<?xml version="1.0" encoding="UTF-8" standalone="no"?>
<svg
   viewBox="0 0 18 18"
   width="18"
   height="18">
  <path
     d="m 6.9151301,7.4566667 a 0.34073333,0.34073333 0 0 0 -0.26,-0.1233334 H 1.9884634 a 0.33083333,0.33083333 0 0 0 -0.2566667,0.12 6.961,6.961 0 0 0 -1.37333334,3.2133337 3.8361333,3.8361333 0 0 0 0.87333334,2.89 3.9926667,3.9926667 0 0 0 6.1233334,0.02667 3.874,3.874 0 0 0 0.9,-2.916666 6.9392,6.9392 0 0 0 -1.34,-3.2100003 z M 1.0284634,10.666667 A 6.3476333,6.3476333 0 0 1 2.15513,8 h 4.3333335 a 6.2894667,6.2894667 0 0 1 1.0933333,2.666667 z m 5.6366667,7 A 0.33333333,0.33333333 0 0 1 6.3317968,18 H 2.3317967 a 0.3333335,0.3333335 0 0 1 0,-0.666667 h 1 v -1.77 a 4.51,4.51 0 0 0 0.9733334,0.103334 4.7733333,4.7733333 0 0 0 1.0266667,-0.113334 v 1.78 h 1 a 0.33333333,0.33333333 0 0 1 0.3333333,0.333334 z M 15.66513,2.6666667 H 12.331797 V 2 h 3.333333 z m 0,-1.3333334 H 12.331797 V 0.33333333 A 0.33333333,0.33333333 0 0 1 12.66513,0 h 2.666667 a 0.33333333,0.33333333 0 0 1 0.333333,0.33333333 z m 2,4.3333334 V 7.3333333 H 10.331797 V 5.6666667 A 0.33083333,0.33083333 0 0 1 10.451797,5.41 l 1.88,-1.5666667 v -0.51 h 3.333333 v 0.51 L 17.54513,5.41 a 0.33083333,0.33083333 0 0 1 0.12,0.2566667 z M 10.331797,8 h 7.333333 v 6.666667 h -7.333333 z m 0,7.333333 h 7.333333 v 2.333334 A 0.3343,0.3343 0 0 1 17.331797,18 H 10.66513 a 0.3343,0.3343 0 0 1 -0.333333,-0.333333 z" />
</svg>
