<?xml version="1.0" encoding="UTF-8"?>
<svg width="11" height="11" version="1.1" viewBox="0 0 11 11" xmlns="http://www.w3.org/2000/svg">
 <title>bank-11.svg</title>
 <rect x="-3" y="-1" width="17" height="17" fill="none"/>
 <g transform="translate(-3,-3)">
  <path transform="translate(3,3)" d="m1 2c-1 0-1 1-1 1v5c0 1 1 1 1 1h9c1 0 1-1 1-1v-5s0-1-1-1zm0 1h1.5c0.2761 0 0.5 0.2239 0.5 0.5s-0.2239 0.5-0.5 0.5-0.5-0.2239-0.5-0.5l-0.5 0.5c0.2761 0 0.5 0.2239 0.5 0.5s-0.2239 0.5-0.5 0.5-0.5-0.2239-0.5-0.5zm4.5 0c1.1046 0 2 1.1193 2 2.5s-0.8954 2.5-2 2.5-2-1.1193-2-2.5 0.8954-2.5 2-2.5zm3 0h1.5v1.5c0 0.2761-0.2239 0.5-0.5 0.5s-0.5-0.2239-0.5-0.5 0.2239-0.5 0.5-0.5l-0.5-0.5c0 0.2761-0.2239 0.5-0.5 0.5s-0.5-0.2239-0.5-0.5 0.2239-0.5 0.5-0.5zm-7 3c0.2761 0 0.5 0.2239 0.5 0.5s-0.2239 0.5-0.5 0.5l0.5 0.5c0-0.2761 0.2239-0.5 0.5-0.5s0.5 0.2239 0.5 0.5-0.2239 0.5-0.5 0.5h-1.5v-1.5c0-0.2761 0.2239-0.5 0.5-0.5zm8 0c0.2761 0 0.5 0.2239 0.5 0.5v1.5h-1.5c-0.2761 0-0.5-0.2239-0.5-0.5s0.2239-0.5 0.5-0.5 0.5 0.2239 0.5 0.5l0.5-0.5c-0.2761 0-0.5-0.2239-0.5-0.5s0.2239-0.5 0.5-0.5z" fill="rgba(255,255,255,0.25)" stroke="rgba(255,255,255,0.25)" stroke-linejoin="round" stroke-width="2"/>
  <path transform="translate(3,3)" d="m4.9023 4.25c-0.0762 0.071-0.1439 0.1551-0.2011 0.25h1.5977c-0.0572-0.0949-0.125-0.179-0.2012-0.25zm-0.3164 0.5c-0.0284 0.0803-0.05 0.1641-0.0644 0.25h1.959c-0.0144-0.0859-0.036-0.1697-0.0645-0.25zm-0.0859 0.5c-2e-4 0.0839 0.0063 0.1677 0.0195 0.25h1.959c0.0139-0.0822 0.0211-0.166 0.0215-0.25zm0.0859 0.5c0.0312 0.0887 0.0705 0.1726 0.1172 0.25h1.5957c0.046-0.0775 0.0847-0.1614 0.1152-0.25zm0.3164 0.5c0.0109 0.0107 0.022 0.0211 0.0332 0.0312l-0.4355 0.2188h2l-0.4355-0.2188c0.0112-0.0101 0.0223-0.0205 0.0332-0.0312zm-0.3203 0.5c0.029 0.0789 0.056 0.1591 0.1094 0.25h1.627c0.0524-0.091 0.0778-0.1711 0.1055-0.25zm0.3106 0.5c0.1469 0.1415 0.3406 0.25 0.6074 0.25 0.2739 0 0.4701-0.1085 0.6172-0.25z" fill="rgba(255,255,255,0.25)" stroke="rgba(255,255,255,0.25)" stroke-linejoin="round" stroke-width="2"/>
  <path transform="translate(3,3)" d="m1 2c-1 0-1 1-1 1v5c0 1 1 1 1 1h9c1 0 1-1 1-1v-5s0-1-1-1zm0 1h1.5c0.2761 0 0.5 0.2239 0.5 0.5s-0.2239 0.5-0.5 0.5-0.5-0.2239-0.5-0.5l-0.5 0.5c0.2761 0 0.5 0.2239 0.5 0.5s-0.2239 0.5-0.5 0.5-0.5-0.2239-0.5-0.5zm4.5 0c1.1046 0 2 1.1193 2 2.5s-0.8954 2.5-2 2.5-2-1.1193-2-2.5 0.8954-2.5 2-2.5zm3 0h1.5v1.5c0 0.2761-0.2239 0.5-0.5 0.5s-0.5-0.2239-0.5-0.5 0.2239-0.5 0.5-0.5l-0.5-0.5c0 0.2761-0.2239 0.5-0.5 0.5s-0.5-0.2239-0.5-0.5 0.2239-0.5 0.5-0.5zm-7 3c0.2761 0 0.5 0.2239 0.5 0.5s-0.2239 0.5-0.5 0.5l0.5 0.5c0-0.2761 0.2239-0.5 0.5-0.5s0.5 0.2239 0.5 0.5-0.2239 0.5-0.5 0.5h-1.5v-1.5c0-0.2761 0.2239-0.5 0.5-0.5zm8 0c0.2761 0 0.5 0.2239 0.5 0.5v1.5h-1.5c-0.2761 0-0.5-0.2239-0.5-0.5s0.2239-0.5 0.5-0.5 0.5 0.2239 0.5 0.5l0.5-0.5c-0.2761 0-0.5-0.2239-0.5-0.5s0.2239-0.5 0.5-0.5z" fill="#444"/>
  <path transform="translate(3,3)" d="m4.9023 4.25c-0.0762 0.071-0.1439 0.1551-0.2011 0.25h1.5977c-0.0572-0.0949-0.125-0.179-0.2012-0.25zm-0.3164 0.5c-0.0284 0.0803-0.05 0.1641-0.0644 0.25h1.959c-0.0144-0.0859-0.036-0.1697-0.0645-0.25zm-0.0859 0.5c-2e-4 0.0839 0.0063 0.1677 0.0195 0.25h1.959c0.0139-0.0822 0.0211-0.166 0.0215-0.25zm0.0859 0.5c0.0312 0.0887 0.0705 0.1726 0.1172 0.25h1.5957c0.046-0.0775 0.0847-0.1614 0.1152-0.25zm0.3164 0.5c0.0109 0.0107 0.022 0.0211 0.0332 0.0312l-0.4355 0.2188h2l-0.4355-0.2188c0.0112-0.0101 0.0223-0.0205 0.0332-0.0312zm-0.3203 0.5c0.029 0.0789 0.056 0.1591 0.1094 0.25h1.627c0.0524-0.091 0.0778-0.1711 0.1055-0.25zm0.3106 0.5c0.1469 0.1415 0.3406 0.25 0.6074 0.25 0.2739 0 0.4701-0.1085 0.6172-0.25z" fill="#444"/>
 </g>
</svg>
