<?xml version="1.0" encoding="UTF-8" standalone="no"?>
<svg
   width="18"
   height="18"
   viewBox="0 0 18 18">
  <path
     d="M 1.6363636,3.2727273 C 0,3.2727273 0,4.909091 0,4.909091 v 8.181818 c 0,1.636364 1.6363636,1.636364 1.6363636,1.636364 H 16.363636 C 18,14.727273 18,13.090909 18,13.090909 V 4.909091 c 0,0 0,-1.6363637 -1.636364,-1.6363637 z m 0,1.6363637 h 2.4545455 c 0.4518,0 0.8181818,0.3663818 0.8181818,0.8181818 0,0.4518 -0.3663818,0.8181818 -0.8181818,0.8181818 -0.4518,0 -0.8181818,-0.3663818 -0.8181818,-0.8181818 L 2.4545455,6.5454546 c 0.4518,0 0.8181818,0.3663822 0.8181818,0.8181822 0,0.4518 -0.3663818,0.818181 -0.8181818,0.818181 -0.4518,0 -0.8181819,-0.3663811 -0.8181819,-0.818181 z m 7.3636357,0 c 1.8075277,0 3.2727277,1.8315818 3.2727277,4.0909088 0,2.2593282 -1.4652,4.0909092 -3.2727277,4.0909092 -1.8075272,0 -3.2727266,-1.831581 -3.2727266,-4.0909092 0,-2.259327 1.4651994,-4.0909089 3.2727266,-4.0909088 z m 4.9090907,0 h 2.454546 v 2.4545458 c 0,0.4518 -0.366382,0.818181 -0.818182,0.818181 -0.4518,0 -0.818182,-0.3663811 -0.818182,-0.818181 0,-0.4518 0.366382,-0.8181822 0.818182,-0.8181822 L 14.727272,5.7272728 c 0,0.4518 -0.366382,0.8181818 -0.818182,0.8181818 -0.4518,0 -0.818181,-0.3663818 -0.818181,-0.8181818 0,-0.4518 0.366381,-0.8181818 0.818181,-0.8181818 z M 8.0220165,6.9545458 c -0.1246909,0.116182 -0.2355904,0.2538 -0.3291904,0.409091 h 2.6143469 c -0.0936,-0.155291 -0.2045,-0.292909 -0.3291908,-0.409091 z m -0.5177558,0.818182 c -0.046473,0.1314 -0.081905,0.268527 -0.1054685,0.40909 h 3.2056108 c -0.02356,-0.140563 -0.05883,-0.27769 -0.105469,-0.40909 z m -0.1406242,0.818181 c -3.272e-4,0.137291 0.010358,0.274419 0.03196,0.409091 h 3.2056105 c 0.02275,-0.134509 0.0345,-0.271636 0.03516,-0.409091 z m 0.1406242,0.818182 c 0.051055,0.145146 0.115344,0.282437 0.1917614,0.409091 h 2.6111509 c 0.07527,-0.126818 0.138655,-0.264109 0.188565,-0.409091 z m -5.0497152,0.409091 c 0.4518,0 0.8181818,0.3663822 0.8181818,0.8181822 0,0.4518 -0.3663818,0.818182 -0.8181818,0.818182 l 0.8181818,0.818182 c 0,-0.4518 0.3663818,-0.818182 0.8181818,-0.818182 0.4518,0 0.8181818,0.366382 0.8181818,0.818182 0,0.4518 -0.3663818,0.818181 -0.8181818,0.818181 H 1.6363636 v -2.454545 c 0,-0.4518 0.3663819,-0.8181822 0.8181819,-0.8181822 z m 13.0909085,0 c 0.4518,0 0.818182,0.3663822 0.818182,0.8181822 v 2.454545 H 13.90909 c -0.4518,0 -0.818181,-0.366381 -0.818181,-0.818181 0,-0.4518 0.366381,-0.818182 0.818181,-0.818182 0.4518,0 0.818182,0.366382 0.818182,0.818182 l 0.818182,-0.818182 c -0.4518,0 -0.818182,-0.366382 -0.818182,-0.818182 0,-0.4518 0.366382,-0.8181822 0.818182,-0.8181822 z M 8.0220165,10.227273 c 0.017836,0.01751 0.036005,0.03461 0.054332,0.05114 l -0.712713,0.357951 H 10.636363 L 9.9236497,10.278409 c 0.018327,-0.01653 0.036496,-0.03363 0.054332,-0.05114 z m -0.5241479,0.818182 c 0.047454,0.129109 0.091595,0.260345 0.1789773,0.409091 h 2.6622871 c 0.08574,-0.148909 0.127258,-0.279982 0.172585,-0.409091 z m 0.5081676,0.818182 c 0.2403819,0.231545 0.5573813,0.409091 0.9939631,0.409091 0.4482,0 0.7692341,-0.177546 1.0099437,-0.409091 z" />
</svg>
