<?xml version="1.0" encoding="UTF-8" standalone="no"?>
<svg viewBox="0 0 18 18" height="18" width="18">
  <path
     d="m 10.636364,2.4545233 c -1.1063464,-0.016364 -1.1063464,1.6520728 0,1.6363637 h 0.818181 v 1.1634546 l -4.4967264,2.5695816 -0.8406,-2.0966726 h 1.169672 c 1.106345,0.016364 1.106345,-1.6520727 0,-1.6363636 h -3.3174 c -1.106345,-0.016364 -1.106345,1.6520727 0,1.6363636 h 0.383564 l 0.706254,1.7641636 c -0.312054,-0.07691 -0.633436,-0.127636 -0.9684,-0.127636 C 1.8412366,7.3637782 0,9.2050142 0,11.454687 c 0,2.249673 1.8412366,4.090909 4.0909086,4.090909 2.249673,0 4.090909,-1.8414 4.090909,-4.090909 0,-0.771218 -0.228927,-1.4854908 -0.603982,-2.1030548 l 4.0429644,-2.310709 0.658309,0.667964 c -1.443764,0.633436 -2.4609274,2.075236 -2.4609274,3.7457998 0,2.249673 1.8412364,4.090909 4.0909094,4.090909 C 16.158764,15.545596 18,13.70436 18,11.454687 18,9.3341232 16.358073,7.5969592 14.286273,7.4020692 l -1.195364,-1.195364 v -2.934 c 0,-0.4518 -0.366382,-0.8181819 -0.818182,-0.8181819 z M 4.0909086,8.9999782 c 1.365382,0 2.454546,1.0893268 2.454546,2.4545448 0,1.365218 -1.089164,2.454546 -2.454546,2.454546 -1.365381,0 -2.454545,-1.089164 -2.454545,-2.454546 0,-1.365382 1.089164,-2.4545448 2.454545,-2.4545448 z m 9.7447094,0.0066 h 0.0033 c 0.04893,0.0049 0.09818,0.0049 0.146945,0 1.3284,0.04074 2.3778,1.1091268 2.3778,2.4481628 0,1.365382 -1.089163,2.454545 -2.454545,2.454545 -1.365382,0 -2.454546,-1.089163 -2.454546,-2.454545 0,-1.340182 1.0512,-2.4090538 2.381073,-2.4481628 z" />
</svg>
