<?xml version="1.0" encoding="UTF-8" standalone="no"?>
<svg viewBox="0 0 18 18" height="18" width="18">
    <path
       d="m 6.7916,1048 c 0,0 -1.3363,-1.567 -2.7257,-3.8465 -1.1024,-1.8085 -2.122,-4.1906 -2.2154,-4.4437 0.75258,-0.5472 4.5931,-2.2768 5.3718,-2.4463 0.22642,0.8747 0.58088,2.5876 1.3298,4.2517 0.77374,1.7193 1.7051,3.0597 2.0518,3.5127 C 9.77434,1045.8104 6.7916,1048 6.7916,1048 Z m 2.617,-0.9585 c 0.09655,0.8013 2.7968,4.527 3.7098,5.2027 0.35239,0.2608 0.59876,0.048 1.1973,-0.3748 0.5985,-0.4231 0.82383,-0.7834 0.60572,-1.2928 -0.44766,-1.0456 -2.4059,-4.7995 -3.3253,-5.4011 -0.88458,-1.2876 -1.6258,-2.2611 -2.3547,-4.0463 -0.75418,-1.847 -1.2355,-3.7233 -1.5241,-4.8256 -1.0267,0.2979 -2.7269,1.0185 -3.7729,1.5009 -1.1654,0.5374 -1.9991,1.0621 -2.9252,1.5588 0.29293,0.8518 0.99334,2.9498 2.4561,5.2163 1.1558,1.7909 2.1274,3.2168 3.2232,4.3016 z m -4.0605,-7.4527 c 0,-0.4143 0.3547,-0.7504 0.79225,-0.7504 0.43755,0 0.79225,0.3361 0.79225,0.7504 0,0.4146 -0.3547,0.7507 -0.79225,0.7507 -0.43755,0 -0.79225,-0.3361 -0.79225,-0.7507 z" />
    <path
       d="m 6.7916,1048 c 0,0 -1.3363,-1.567 -2.7257,-3.8465 -1.1024,-1.8085 -2.122,-4.1906 -2.2154,-4.4437 0.75258,-0.5472 4.5931,-2.2768 5.3718,-2.4463 0.22642,0.8747 0.58088,2.5876 1.3298,4.2517 0.77374,1.7193 1.7051,3.0597 2.0518,3.5127 C 9.77434,1045.8104 6.7916,1048 6.7916,1048 Z m 2.617,-0.9585 c 0.09655,0.8013 2.7968,4.527 3.7098,5.2027 0.35239,0.2608 0.59876,0.048 1.1973,-0.3748 0.5985,-0.4231 0.82383,-0.7834 0.60572,-1.2928 -0.44766,-1.0456 -2.4059,-4.7995 -3.3253,-5.4011 -0.88458,-1.2876 -1.6258,-2.2611 -2.3547,-4.0463 -0.75418,-1.847 -1.2355,-3.7233 -1.5241,-4.8256 -1.0267,0.2979 -2.7269,1.0185 -3.7729,1.5009 -1.1654,0.5374 -1.9991,1.0621 -2.9252,1.5588 0.29293,0.8518 0.99334,2.9498 2.4561,5.2163 1.1558,1.7909 2.1274,3.2168 3.2232,4.3016 z m -4.0605,-7.4527 c 0,-0.4143 0.3547,-0.7504 0.79225,-0.7504 0.43755,0 0.79225,0.3361 0.79225,0.7504 0,0.4146 -0.3547,0.7507 -0.79225,0.7507 -0.43755,0 -0.79225,-0.3361 -0.79225,-0.7507 z" />
  <path
     d="m 7.6303759,13.113752 c 0,0 -1.5008692,-1.756833 -3.0612749,-4.3125545 C 3.3309454,6.7734813 2.1857595,4.1027424 2.0810275,3.8189664 2.9262714,3.2054657 7.239695,1.2662865 8.1142002,1.0762333 8.3684976,2.0569335 8.7666097,3.9774406 9.6076817,5.843206 10.476697,7.7708257 11.522844,9.2737229 11.912076,9.7815935 10.980367,10.658909 7.6303759,13.113897 7.6303759,13.113897 Z m 2.9393051,-1.074655 c 0.108439,0.898392 3.141236,5.075519 4.166538,5.833124 0.39578,0.29241 0.672487,0.05382 1.344713,-0.420217 0.672197,-0.474365 0.925263,-0.878329 0.680309,-1.449445 C 16.258455,14.830256 14.059068,10.621536 13.026523,9.9469339 12.033032,8.5033124 11.200594,7.4117817 10.381859,5.4102847 9.5348187,3.339401 8.9942099,1.2357795 8.6700766,-4.228659e-7 7.5169669,0.33399767 5.6073531,1.1419118 4.4325583,1.6828099 3.1236543,2.2853304 2.187266,2.8736115 1.1471887,3.4305164 1.4761892,4.3855334 2.2628382,6.7377595 3.9057113,9.2788508 5.2037944,11.286721 6.2951368,12.885514 7.5257018,14.101738 Z M 6.00913,3.6832784 c 0,-0.4645003 0.3983728,-0.8413328 0.8898021,-0.8413328 0.4914293,0 0.8898021,0.3768325 0.8898021,0.8413328 0,0.4648334 -0.3983873,0.8416659 -0.8898021,0.8416659 -0.4914148,0 -0.8898021,-0.3768325 -0.8898021,-0.8416659 z" />
</svg>
