<?xml version="1.0" encoding="UTF-8" standalone="no"?>
<svg
   viewBox="0 0 18 18"
   height="18"
   width="18">
  <path
     d="M 1.2857143,1.2857143 V 9 c 0,2.571429 2.5714286,3.857143 5.7857143,3.857143 3.2142854,0 5.7857144,-1.285714 5.7857144,-3.857143 h 2.571428 C 16.714286,9 18,7.7142857 18,6.4285714 V 5.1428571 C 18,3.8571428 16.714286,2.5714286 15.428571,2.5714286 H 12.857143 V 1.2857143 Z M 12.857143,4.1785714 h 2.25 c 0.858584,0 1.285714,0.7236462 1.285714,1.6071429 0,0.8834967 -0.499115,1.6071428 -1.285714,1.6071428 h -2.25 z M 0,14.142857 c 0,1.285715 1.2857143,2.571429 2.5714286,2.571429 h 9.0000004 c 1.285714,0 2.571428,-1.285714 2.571428,-2.571429 z" />
</svg>
