<?xml version="1.0" encoding="UTF-8" standalone="no"?>
<svg
   viewBox="0 0 18 18"
   height="18"
   width="18">
  <path
     d="M 3.528181,0 C 2.6149842,5.0592857e-4 1.7666088,0.5293386 1.2857145,1.2857143 H 4.3317524 L 5.1328127,2.5714286 4.3317524,3.8571429 H 1.2882256 C 1.7686658,4.6128061 2.6158458,5.1415358 3.528181,5.1428571 4.5030556,5.142857 5.3437582,4.6231277 5.8007815,3.8571429 h 5.9991635 c 0.456971,0.7661869 1.300082,1.2857146 2.275112,1.2857142 1.457603,3e-7 2.639229,-1.1512676 2.639229,-2.5714285 C 16.714285,1.1512677 15.532659,-2.5714264e-7 14.075056,0 13.100026,-3.8571407e-7 12.256916,0.51952731 11.799944,1.2857143 H 5.8007815 C 5.3437581,0.51972943 4.5030556,1.2857164e-7 3.528181,0 Z m 9.743304,1.2857143 h 1.607142 l 0.80106,1.2857143 -0.80106,1.2857143 H 13.271485 L 12.470425,2.5714286 Z M 5.1428574,7.7142857 3.8571431,11.571429 c -0.6077006,0 -1.2857143,0.494093 -1.2857143,1.285714 v 3.857143 h 1.2857143 c 0,0 2.81e-5,1.285714 1.2857143,1.285714 1.2856871,0 1.2857142,-1.285714 1.2857142,-1.285714 h 5.1428564 c 0,0 2.8e-5,1.285714 1.285715,1.285714 1.285687,0 1.285714,-1.285714 1.285714,-1.285714 h 1.285714 v -3.857143 c 0,-0.669351 -0.585562,-1.285714 -1.285714,-1.285714 L 12.857143,7.7142857 Z M 6.4285716,9 H 11.571428 L 12.375,11.571429 H 5.6250002 Z m -1.2857142,4.178571 c 0.5325492,0 0.9642857,0.431725 0.9642857,0.964286 0,0.532561 -0.4317365,0.964286 -0.9642857,0.964286 -0.5325493,0 -0.9642858,-0.431725 -0.9642858,-0.964286 0,-0.532561 0.4317365,-0.964286 0.9642858,-0.964286 z m 7.7142856,0 c 0.532549,0 0.964285,0.431725 0.964285,0.964286 0,0.532561 -0.431736,0.964286 -0.964285,0.964286 -0.53255,0 -0.964286,-0.431725 -0.964286,-0.964286 0,-0.532561 0.431736,-0.964286 0.964286,-0.964286 z" />
</svg>
