<?xml version="1.0" encoding="UTF-8"?>
<svg width="18" height="18" version="1.1" viewBox="0 0 18 18" xmlns="http://www.w3.org/2000/svg">
 <path d="m16.373 16.714c0-15.429 0.03015-12.919 0.03015-15.429 0-1.2857-0.0603-1.2857-1.9792-1.2857v16.764c0.061781 1.2402 1e-6 1.2362 0.92391 1.2362 0.98421 0 1.0251 0 1.0251-1.2857zm-14.154-1.7681c2.5578 0.81407 4.0215 0.81407 6.5492-0.09045l-0.77315-9.7129c-2.5714 0.36181-2.5714 0.39196-5.1429 0zm2.3302-14.946h1.7983l0.71285 3.8571c-1.2857 0.39196-1.9986 0.39196-3.2843 0zm-2.9526 18 0.30151-1.2857h7.0704l0.33166 1.2857zm9.5922-18h2.5197v0.78392h-2.5197zm0 1.2857h2.5197v0.78392h-2.5197zm0 1.2857h2.5197v0.78392h-2.5197zm0 1.2857h2.5197v0.78392h-2.5197zm0 1.2857h2.5197v0.78392h-2.5197z" fill-rule="evenodd"/>
</svg>
