<?xml version="1.0" encoding="UTF-8" standalone="no"?>
<svg
   xmlns:dc="http://purl.org/dc/elements/1.1/"
   xmlns:cc="http://creativecommons.org/ns#"
   xmlns:rdf="http://www.w3.org/1999/02/22-rdf-syntax-ns#"
   xmlns:svg="http://www.w3.org/2000/svg"
   xmlns="http://www.w3.org/2000/svg"
   version="1.1"
   width="18"
   height="18"
   id="svg2">
  <path
     d="m 15.922814,1.26941 c 0,0 -0.971752,-0.90863037 -2.57304,-0.68993456 C 11.748488,0.79817194 7.2951977,2.9322305 5.2255238,4.7680238 3.1558495,6.6038173 0.30886559,9.5479811 0.12641959,11.503783 c -0.1824458,1.955799 -0.4810558,2.804279 1.68195401,4.964574 2.1630096,2.160295 7.2738351,0.09774 7.2738351,0.09774 0,0 4.4979973,-2.05121 6.7094493,-5.854448 2.211451,-3.8032377 2.133447,-5.4133158 2.133447,-5.4133158 0,0 0.306963,-1.4064696 -0.323,-2.6375359 -0.629964,-1.2310668 -1.530261,-1.1152242 -1.530261,-1.1152242 0,0 -1.101008,0.7210693 -1.941969,1.6477725 C 13.288914,4.1200434 13.303817,4.1476593 12.884728,4.5180129 12.46564,4.8883656 11.820224,5.030479 11.338739,5.4763659 10.857255,5.9222522 9.68058,8.8295302 7.5146642,10.614422 5.3487481,12.399313 4.2395336,12.828933 3.6996921,13.421556 3.1598504,14.014182 3.0484302,14.636061 2.6417352,14.519629 2.2350405,14.403196 2.4024559,12.270738 3.1782359,11.605565 3.9540158,10.940392 4.161402,11.069812 5.2802252,10.339404 6.3990487,9.6089961 7.6871432,6.0798377 10.832186,3.6879897 13.977228,1.2961409 15.922814,1.26941 15.922814,1.26941 Z"
     id="path4" />
</svg>
