<?xml version="1.0" encoding="UTF-8" standalone="no"?>
<svg
   xmlns:dc="http://purl.org/dc/elements/1.1/"
   xmlns:cc="http://creativecommons.org/ns#"
   xmlns:rdf="http://www.w3.org/1999/02/22-rdf-syntax-ns#"
   xmlns:svg="http://www.w3.org/2000/svg"
   xmlns="http://www.w3.org/2000/svg"
   id="svg2"
   xml:space="preserve"
   style="fill:#000000"
   viewBox="0 0 18 18"
   y="0px"
   x="0px"
   version="1.1"
   width="18"
   height="18">
	<path
   style="stroke-width:0.3103396"
   id="path6"
   d="M 12.381061,0 11.93191,4.0446509 13.955213,6.0684919 18,5.6187495 V 5.5411659 C 17.283103,5.3971707 16.645805,5.0094951 16.183392,4.4319628 15.738667,3.876154 15.502146,3.2016084 15.499663,2.5002527 14.030491,2.493115 12.751613,1.4470892 12.458648,0 Z m -1.829337,4.0343469 c -0.312827,0 -0.6188371,0.1269559 -0.8401129,0.347914 L 8.8181572,5.2756844 H 12.285291 L 11.391837,4.3822609 C 11.170561,4.1613028 10.864552,4.0343469 10.551724,4.0343469 Z M 8.1974675,5.8963532 7.5767779,6.5170219 H 12.103448 V 7.1376907 H 6.9560882 L 4.3824085,9.7112841 C 4.1611326,9.9325525 4.0344828,10.238552 4.0344828,10.551369 c 0,0.105824 0.019052,0.209165 0.046673,0.310334 H 7.137931 v 0.620669 H 4.4733296 l 0.6206896,0.620669 H 9.8025325 L 10.423222,11.482372 H 7.7586207 v -0.620669 h 3.2852913 l 2.57368,-2.5735931 c 0.224379,-0.2243718 0.347925,-0.5229231 0.347925,-0.8400848 0,-0.1067551 -0.01907,-0.2097861 -0.04607,-0.3103344 H 12.724135 V 6.5170219 h 0.802532 L 12.905978,5.8963532 Z M 7.4325162,7.5389434 7.8713631,7.9777755 6.3196389,9.5294474 5.8807921,9.0906153 Z M 5.5704473,9.4009497 6.0092941,9.8397817 5.3886044,10.46045 4.9497576,10.021618 Z M 4.0447871,11.931508 0,12.381251 v 0.07758 c 1.4474483,0.292645 2.4931989,1.57148 2.5003369,3.040913 1.4691724,0.0068 2.74805,1.052853 3.0410155,2.500253 h 0.077586 l 0.4491515,-4.044651 z m 1.6699218,0.792201 0.8934539,0.893424 c 0.2212759,0.221268 0.5272855,0.347914 0.8401131,0.347914 0.3128275,0 0.6188372,-0.126646 0.840113,-0.347914 l 0.8934539,-0.893424 z" /></svg>
