<?xml version="1.0" encoding="UTF-8" standalone="no"?>
<svg
   viewBox="0 0 18 18"
   width="18"
   height="18">
	<path
     d="M 0,16.93881 H 14.5611 V 10.97505 H 0 Z m 6.42078,-4.70142 h 6.87762 v 3.4389 H 6.42078 Z m -5.15826,0 H 5.5611 v 3.4389 H 1.26252 Z m 4.14414,3.00906 c 0,0.153 -0.12258,0.2754 -0.2754,0.2754 -0.15102,0 -0.2745,-0.12258 -0.2745,-0.2754 0,-0.15192 0.12348,-0.27432 0.2745,-0.27432 0.15264,0 0.2754,0.1224 0.2754,0.27432 z M 4.5468,12.66741 c 0,0.15192 -0.12258,0.27522 -0.2754,0.27522 -0.15102,0 -0.2745,-0.12348 -0.2745,-0.27522 0,-0.1521 0.12348,-0.2745 0.2745,-0.2745 0.153,0 0.2754,0.1224 0.2754,0.2745 z m 0,1.71954 c 0,0.15192 -0.12258,0.27522 -0.2754,0.27522 -0.15102,0 -0.2745,-0.12348 -0.2745,-0.27522 0,-0.1521 0.12348,-0.2745 0.2745,-0.2745 0.153,-1.8e-4 0.2754,0.1224 0.2754,0.2745 z M 3.68712,13.52691 c 0,0.1521 -0.12258,0.2754 -0.2754,0.2754 -0.15102,0 -0.2745,-0.12348 -0.2745,-0.2754 0,-0.15192 0.12348,-0.27432 0.2745,-0.27432 0.15282,0 0.2754,0.12258 0.2754,0.27432 z M 8.6661,6.21945 H 6.3729 L 9.85968,1.06101 9.28656,4.49991 h 2.29266 L 8.09244,9.65835 Z m -3.25944,7.30746 c 0,0.1521 -0.12258,0.2754 -0.2754,0.2754 -0.15102,0 -0.2745,-0.12348 -0.2745,-0.2754 0,-0.15192 0.12348,-0.27432 0.2745,-0.27432 0.15264,0 0.2754,0.12258 0.2754,0.27432 z m -3.4389,1.71954 c 0,0.153 -0.12258,0.2754 -0.2754,0.2754 -0.1512,0 -0.2745,-0.12258 -0.2745,-0.2754 0,-0.15192 0.12348,-0.27432 0.2745,-0.27432 0.15264,0 0.2754,0.1224 0.2754,0.27432 z m 1.71936,0 c 0,0.153 -0.12258,0.2754 -0.2754,0.2754 -0.15102,0 -0.2745,-0.12258 -0.2745,-0.2754 0,-0.15192 0.12348,-0.27432 0.2745,-0.27432 0.15282,0 0.2754,0.1224 0.2754,0.27432 z m -0.85968,-0.8595 c 0,0.15192 -0.12258,0.27522 -0.2754,0.27522 -0.15102,0 -0.2745,-0.12348 -0.2745,-0.27522 0,-0.1521 0.12348,-0.2745 0.2745,-0.2745 0.15282,-1.8e-4 0.2754,0.1224 0.2754,0.2745 z M 1.96776,13.52691 c 0,0.1521 -0.12258,0.2754 -0.2754,0.2754 -0.1512,0 -0.2745,-0.12348 -0.2745,-0.2754 0,-0.15192 0.12348,-0.27432 0.2745,-0.27432 0.15264,0 0.2754,0.12258 0.2754,0.27432 z m 0.85968,-0.8595 c 0,0.15192 -0.12258,0.27522 -0.2754,0.27522 -0.15102,0 -0.2745,-0.12348 -0.2745,-0.27522 0,-0.1521 0.12348,-0.2745 0.2745,-0.2745 0.15282,0 0.2754,0.1224 0.2754,0.2745 z M 18,10.97505 v 5.96394 h -1.26252 v -5.96394 z m -2.98188,0 h 1.26252 v 5.96394 h -1.26252 z" /></svg>
