<?xml version="1.0" encoding="UTF-8"?>
<svg width="18" height="18" version="1.1" viewBox="0 0 18 18" xmlns="http://www.w3.org/2000/svg">
 <path id="electronics" d="m12.054 0.022404c-0.18822-0.021719-0.39259 0.030982-0.5625 0.20089l-3.7366 3.7768-2.4509-2.4911c-0.2725-0.36741-0.88391-0.40494-1.2054-0.080357-0.32145 0.32458-0.28351 0.9302 0.080357 1.2054l2.4509 2.4911h-4.058c-1.2857 0-2.5714 1.2857-2.5714 2.5714v7.7143c0 1.2857 1.2857 2.5714 2.5714 2.5714h12.857c1.2857 0 2.5714-1.2857 2.5714-2.5714v-7.7143c0-1.2857-1.2857-2.5714-2.5714-2.5714h-6.5491l3.7366-3.7768c0.49824-0.49824 0.0022-1.2607-0.5625-1.3259zm-4.3393 7.6741c3.8571 0 5.1429 0 5.1429 3.8571 0 3.8571-1.2857 3.8571-5.1429 3.8571-3.8571 0-5.1429 0-5.1429-3.8571 0-3.8571 1.2857-3.8571 5.1429-3.8571zm7.7143 0.16071c0.62132 0 1.125 0.50368 1.125 1.125s-0.50368 1.125-1.125 1.125c-0.62132 0-1.125-0.50368-1.125-1.125s0.50368-1.125 1.125-1.125zm0 3.8571c0.62132 0 1.125 0.50368 1.125 1.125s-0.50368 1.125-1.125 1.125c-0.62132 0-1.125-0.50368-1.125-1.125s0.50368-1.125 1.125-1.125z" stroke-width="1.2857"/>
</svg>
