<?xml version="1.0" encoding="UTF-8" standalone="no"?>
<svg
   height="18"
   width="18"
   viewBox="0 0 18 18">
  <path
     d="m 6.8405886,2.0302325 c -0.9106326,0 -1.6917514,0.618935 -1.6917514,1.4499909 V 4.7930232 H 1.6300236 C 0.71939106,4.7930232 0,5.4123672 0,6.243423 V 8.5604654 H 18 V 6.243423 C 18,5.4123672 17.257677,4.7930232 16.347002,4.7930232 H 13.060465 V 3.4802234 c 0,-0.8310559 -0.738971,-1.4499909 -1.649645,-1.4499909 z m 0.8893716,1.7581396 h 2.7914878 c 0.226214,0 0.404133,0.1043384 0.404133,0.314771 V 4.7930232 H 7.3255814 V 4.1031431 c 0,-0.2104326 0.1779974,-0.314771 0.4043788,-0.314771 z M 0,9.3558144 v 5.0937306 c 0,0.831056 0.71939106,1.520222 1.6300236,1.520222 H 16.347002 C 17.257677,15.969767 18,15.280601 18,14.449545 V 9.3558144 Z" />
</svg>
