<?xml version="1.0" encoding="UTF-8" standalone="no"?>
<svg width="18" height="18" version="1.1" viewBox="0 0 18 18" xmlns="http://www.w3.org/2000/svg">
  <path
     d="M 17,4.0000001 H 16 V 0.99999999 C 16,0.44779995 15.5522,0 14.999999,0 14.4478,0 14,0.44779995 14,0.99999999 V 4.0000001 C 14,5.1046 14.895401,5.9999999 16,5.9999999 V 14.5 c 0,0.2762 -0.2238,0.499999 -0.5,0.499999 -0.276199,0 -0.500001,-0.223799 -0.500001,-0.499999 V 11 c 0,-1.6567994 -1.343199,-2.9999998 -2.999998,-2.9999998 V 2 c 0,-1.10459999 -0.8954,-2 -2.0000011,-2 H 2 C 0.89540001,0 0,0.89540001 0,2 v 14 c 0,1.1046 0.89540001,2 2,2 h 7.9999999 c 1.1046011,0 2.0000011,-0.8954 2.0000011,-2 V 9.9999999 c 0.552199,0 1,0.4477991 1,1.0000001 v 3.5 c 0,1.380801 1.119199,2.5 2.499999,2.5 1.3808,0 2.5,-1.119199 2.5,-2.5 V 5 C 18,4.4478 17.552201,4.0000001 17,4.0000001 Z M 9.9999999,7 C 10.011205,7.5411998 9.5815998,7.9888001 9.0404001,8.0000002 H 9.0400005 3.04 C 2.4768,8.0112002 2.0111999,7.5636 2,7.0004 V 7 4.0000001 c 0,-0.5522001 0.4478,-1 1.0000001,-1 H 9 c 0.5521995,0 0.9999999,0.4477999 0.9999999,1 z" />
</svg>
