<?xml version="1.0" encoding="UTF-8" standalone="no"?>
<svg
   height="18"
   width="18"
   viewBox="0 0 18 18">
  <path
     d="M 15.805954,6.5149254 C 15.559685,2.8656716 12.582073,0 8.9999837,0 5.4178943,0 2.4402821,2.8656716 2.1940134,6.5149254 2.0820731,8.1492537 2.5969985,9.8059701 3.6492374,11.19403 l 4.9253733,6.582089 C 8.6865509,17.910448 8.8432673,18 9.0223718,18 9.2014763,18 9.3581927,17.910448 9.4701329,17.776119 L 14.395506,11.19403 C 15.402969,9.8059701 15.917894,8.1492537 15.805954,6.5149254 Z M 8.9999837,9.8059701 c -1.5895521,0 -2.8656717,-1.2985074 -2.8656717,-2.8880598 0,-1.5895521 1.2761196,-2.8656714 2.8656717,-2.8656714 1.5895523,0 2.8656713,1.2985074 2.8656713,2.8880595 0,1.5895524 -1.276119,2.8656717 -2.8656713,2.8656717 z" />
</svg>
