<?xml version="1.0" encoding="UTF-8" standalone="no"?>
<svg
   xmlns:dc="http://purl.org/dc/elements/1.1/"
   xmlns:cc="http://creativecommons.org/ns#"
   xmlns:rdf="http://www.w3.org/1999/02/22-rdf-syntax-ns#"
   xmlns:svg="http://www.w3.org/2000/svg"
   xmlns="http://www.w3.org/2000/svg"
   version="1.1"
   width="18"
   height="17.999615"
   viewBox="0 0 18 17.999615"
   id="svg2">
  <path
     d="M 0.53159921,8.9998071 C 0.51498421,7.7141204 2.5873267,5.1427469 5.1587002,5.1427469 6.4443869,5.1837949 7.7300736,7.1834264 9.0157603,7.1218543 10.301447,7.2723641 11.587134,5.1359057 12.87282,5.1427469 c 2.571374,0 4.59177,2.5713735 4.59568,3.8570602 -0.396799,0 -0.944349,0 -1.341148,0 C 15.444194,7.7141204 14.158507,7.0550392 12.87282,7.0012856 11.587134,7.1381128 10.301447,9.0066484 9.0157603,8.9998071 7.7300736,9.0340138 6.4443869,7.2108238 5.1587002,7.1218861 3.8730135,7.086702 2.5873267,7.7141204 2.0465647,8.9998071 c -0.4446883,0 -1.07027719,0 -1.51496549,0 z M 11.587134,2.5713735 c 0,1.4201303 -1.151243,2.5713734 -2.5713737,2.5713734 -1.4201303,0 -2.5713734,-1.1512431 -2.5713734,-2.5713734 C 6.4443869,1.1512431 7.59563,0 9.0157603,0 10.194669,0 11.222565,0.8016846 11.509699,1.9450913 M 3.8730135,16.713927 1.30164,10.285494 c 0.9254706,0.185094 1.7827679,1.153887 2.5713735,1.285687 0.5208377,0.08705 2.0938229,-1.331714 2.5713734,-1.285687 1.202903,0.115937 1.6405867,1.178933 2.5713734,1.285687 0.9744772,0.111764 1.3753257,-1.037751 2.5713737,-1.285687 0.577626,-0.11974 1.772172,1.217227 2.571373,1.285687 0.987365,0.08458 1.609632,-1.093339 2.571373,-1.285687 l -2.571373,6.428433 c -1.285687,1.285687 -2.571373,1.285687 -5.1427467,1.285687 -2.5713734,0 -3.8570601,0 -5.1427468,-1.285687 z"
     id="path2986"
     style="fill:#000000;fill-opacity:1;stroke:none" />
</svg>
