<?xml version="1.0" encoding="UTF-8" standalone="no"?>
<svg
   xmlns:dc="http://purl.org/dc/elements/1.1/"
   xmlns:cc="http://creativecommons.org/ns#"
   xmlns:rdf="http://www.w3.org/1999/02/22-rdf-syntax-ns#"
   xmlns:svg="http://www.w3.org/2000/svg"
   xmlns="http://www.w3.org/2000/svg"
   id="svg4"
   viewBox="0 0 18 18"
   height="18"
   width="18"
   version="1.1">
  <path
     style="stroke-width:0.89633203"
     id="path2"
     d="M 5.7283882,0.93964399 C 6.7860599,0.78726749 7.906475,1.9435359 8.2291545,3.5390069 8.551834,5.1255145 7.9692182,6.5417191 6.9115464,6.7030589 5.862838,6.8643987 4.7334596,5.7081304 4.4018168,4.1126594 4.0701739,2.5261517 4.6707164,1.109947 5.7283882,0.93964399 m 6.4087738,0 C 13.203797,1.109947 13.795376,2.5261517 13.48166,4.1126594 13.141054,5.7081304 12.020639,6.8643987 10.962967,6.7030589 9.896332,6.5417191 9.3137162,5.1255145 9.645359,3.5390069 9.9680386,1.9435359 11.088454,0.78726749 12.137162,0.93964399 M 0.93301182,5.0627713 C 1.9548303,4.6235686 3.344145,5.4213041 4.0701739,6.8106188 4.7513862,8.2268234 4.5183399,9.7147344 3.5054847,10.153937 2.4926295,10.59314 1.1122782,9.8043674 0.4041759,8.3971264 -0.3039264,6.9898852 -0.05295343,5.4930107 0.93301182,5.0627713 m 16.13397618,0 c 0.985965,0.4302394 1.236938,1.9271139 0.528836,3.3343551 C 16.887722,9.8043674 15.50737,10.59314 14.494515,10.153937 13.48166,9.7147344 13.248614,8.2268234 13.929826,6.8106188 14.655855,5.4213041 16.04517,4.6235686 17.066988,5.0627713 M 15.570114,14.72523 c 0.03585,0.842553 -0.609506,1.774738 -1.380352,2.124307 -1.604434,0.734993 -3.504658,-0.788772 -5.2883585,-0.788772 -1.7837007,0 -3.7018512,1.586508 -5.2793956,0.788772 C 2.7256759,16.410335 2.1072068,15.245103 2.2237299,14.277064 2.3850697,12.94153 3.989504,12.224464 4.939616,11.247462 6.2034441,9.9836344 7.0997762,7.6083543 8.9014035,7.6083543 c 1.7926635,0 2.7427755,2.3394271 3.9528245,3.6391077 0.994928,1.093525 2.653142,2.016747 2.715886,3.477768 z" />
</svg>
