<?xml version="1.0" encoding="UTF-8" standalone="no"?>
<svg viewBox="0 0 18 18" height="18" width="18">
  <path
     d="M 6.4285714,0 5.1428571,1.2857143 V 2.5714286 H 12.857143 V 1.2857143 L 11.571429,0 Z M 5.1428571,3.8571429 c -0.042814,0.2169334 0,0.4365333 0,0.6666667 0,1.8409333 2.08197,3.1904761 3.8571428,3.1904761 1.7751721,0 3.8571421,-1.3495428 3.8571421,-3.1904761 0,-0.2301334 0,-0.6666667 0,-0.6666667 z M 5.1428571,9 C 3.3185494,9 2.5896214,11.412743 2.5714285,12.857143 V 18 h 1.96875 L 11.571429,9 Z M 13.5,9 6.4687499,18 H 15.428572 V 12.857143 C 15.428572,11.412609 15.077775,9 13.5,9 Z"
     />
</svg>
