<?xml version="1.0" encoding="UTF-8" standalone="no"?>
<svg
   xmlns:dc="http://purl.org/dc/elements/1.1/"
   xmlns:cc="http://creativecommons.org/ns#"
   xmlns:rdf="http://www.w3.org/1999/02/22-rdf-syntax-ns#"
   xmlns:svg="http://www.w3.org/2000/svg"
   xmlns="http://www.w3.org/2000/svg"
   id="svg2863"
   viewBox="0 0 14 14"
   height="14"
   width="14"
   version="1.1">
  <metadata
     id="metadata2869">
    <rdf:RDF>
      <cc:Work
         rdf:about="">
        <dc:format>image/svg+xml</dc:format>
        <dc:type
           rdf:resource="http://purl.org/dc/dcmitype/StillImage" />
        <dc:title></dc:title>
      </cc:Work>
    </rdf:RDF>
  </metadata>
  <defs
     id="defs2867" />
  <path
     id="police"
     d="M 5,0 4,1 v 1 h 6 V 1 L 9,0 Z M 4,3 C 3.9667,3.168726 4,3.3395259 4,3.5185186 4,4.9503556 5.61931,6 7,6 8.38069,6 10,4.9503556 10,3.5185186 10,3.3395259 10,3 10,3 Z M 4,7 C 2.581094,7 2.01415,8.876578 2,10 v 4 H 3.53125 L 9,7 Z m 6.5,0 -5.46875,7 H 12 V 10 C 12,8.876474 11.727158,7 10.5,7 Z" />
</svg>
