<?xml version="1.0" encoding="UTF-8" standalone="no"?>
<svg viewBox="0 0 18 18" height="18" width="18">
  <path
     d="M 17.16117,6 H 14.951325 L 14.373979,2.54 C 14.141447,1.4606 13.326393,0.60299999 12.263677,0.31999999 11.744861,0.1338 11.201359,0.026 10.651088,0 H 7.3462756 C 6.8045651,0.015 6.2680309,0.10939999 5.753595,0.28 4.672364,0.563 3.8457628,1.4398 3.6233847,2.54 L 3.046038,6 H 0.71674267 C 0.31001186,6.011 -0.01071419,6.351 2.3548855e-4,6.7596 0.00222634,6.8346 0.01556504,6.9089999 0.03985342,6.98 l 2.40892938,9.4 C 2.718344,17.321 3.5648537,17.977 4.5391761,18 h 8.9190109 c 0.981689,-0.0144 1.838551,-0.6722 2.110302,-1.62 L 17.95751,6.98 C 18.093286,6.5948 17.89261,6.1718 17.50917,6.0353999 17.397683,5.9955999 17.278232,5.9836 17.16117,6 Z M 4.5590846,6 5.0966143,2.78 C 5.2180562,2.2424 5.650469,1.8318 6.1915822,1.74 6.5590932,1.6217999 6.9407393,1.5544 7.3263671,1.54 h 3.3247209 c 0.385628,0.0144 0.767274,0.0818 1.134785,0.2 0.541113,0.0918 0.973526,0.5024 1.094968,1.04 L 13.438279,6 Z" />
</svg>
