<?xml version="1.0" encoding="UTF-8" standalone="no"?>
<svg
   xmlns:dc="http://purl.org/dc/elements/1.1/"
   xmlns:cc="http://creativecommons.org/ns#"
   xmlns:rdf="http://www.w3.org/1999/02/22-rdf-syntax-ns#"
   xmlns:svg="http://www.w3.org/2000/svg"
   xmlns="http://www.w3.org/2000/svg"
   height="18"
   width="18"
   version="1.1"
   viewBox="0 0 18 18"
   id="svg5114">
  <path
     style="opacity:1;fill:#000000;fill-opacity:1;stroke:none;stroke-width:5;stroke-linejoin:miter;stroke-miterlimit:4;stroke-dasharray:none;stroke-dashoffset:0;stroke-opacity:1"
     d="M 8.7844984,2.5040035 A 1.5499017,1.219744 0 0 0 7.2352007,3.7243579 1.5499017,1.219744 0 0 0 8.3149383,4.886959 C 6.5435967,5.0296709 5.0138445,5.9401641 4.1165171,7.2849806 4.0984706,7.276894 4.0818742,7.2596985 4.0637853,7.2523369 3.2296653,6.9128763 1.9784601,6.7424886 1.1685822,7.2674034 0.37998297,7.7785485 0.04857037,8.6930165 0.00347017,9.8336635 c -0.091602,2.3179595 1.64578513,2.7824515 3.37731833,3.0157325 0.1402673,0.0189 0.2785988,0.0087 0.416829,0.0025 0.3802836,1.097667 0.9477319,2.128577 1.6798706,2.644102 h 6.6165309 c 0.788047,-0.555787 1.383757,-1.709068 1.760224,-2.900225 0.300752,0.06025 0.626415,0.0023 1.077225,-0.356564 0.783155,-0.623472 1.601523,-1.859404 1.868197,-2.4633095 0.481164,-1.043126 1.200267,-4.7885057 1.200267,-4.7885057 0,0 -1.133139,0.3075173 -2.036435,-0.00503 -0.198996,0.6778156 -0.44608,1.9574227 -0.821102,2.5687707 -0.322862,0.526356 -0.53944,0.983433 -1.072206,1.067197 C 13.451529,6.5810065 11.5619,5.0727526 9.2515477,4.886959 A 1.5499017,1.219744 0 0 0 10.333796,3.7243579 1.5499017,1.219744 0 0 0 8.7844984,2.5040035 Z m -6.2398783,5.463974 c 0.4151064,-0.01291 0.7611121,0.118666 1.0722045,0.2963 -0.2163899,0.557404 -0.3541532,1.152292 -0.3540534,1.7803115 8.3e-4,0.503316 0.085182,1.121669 0.2335246,1.762734 -0.995174,-0.01692 -2.1679032,-0.143447 -2.0992106,-1.8807515 0.038312,-0.968859 0.2990875,-1.810969 0.7809264,-1.913396 0.1275973,-0.02712 0.2490746,-0.04154 0.3666085,-0.0452 z"
     id="path4153" />
</svg>
