<?xml version="1.0" encoding="UTF-8"?>
<svg width="18" height="18" enable-background="new 0 0 100 76.179" fill="#000000" version="1.0" viewBox="0 0 18 18" xml:space="preserve" xmlns="http://www.w3.org/2000/svg"><path d="m13.078 2.1445c-0.51766 1e-7 -0.93555 0.41611-0.93555 0.93359 0 0.51766 0.41788 0.9375 0.93555 0.9375 0.51748 0 0.93555-0.41984 0.93555-0.9375 0-0.51748-0.41806-0.93359-0.93555-0.93359zm0.34961 2.1406c-0.38105-0.016379-0.61914 0.12891-0.61914 0.12891s-3.0942 1.6965-3.1113 1.7129c-0.49193 0.30185-0.17433 0.77734-0.18945 0.77734 0.18989 0.42875 0.65039 0.22266 0.65039 0.22266s1.7619-0.85742 1.7461-0.85742c0.17369-0.095937 0.25391 0.033203 0.25391 0.033203s0.26953 0.7283 0.26953 0.74414c0.04806 0.12689-0.11133 0.17578-0.11133 0.17578s-1.7453 0.34766-1.7617 0.34766c-0.6505 0.12762-0.73047 0.68359-0.73047 0.68359s-0.69759 2.9363-0.71289 2.9199c-0.14328 0.63466 0.44454 0.66602 0.39648 0.66602 0.52415 0.12834 0.60352-0.30078 0.60352-0.30078s0.72852-2.6665 0.72852-2.6816c0.06282-0.19079 0.25391-0.20703 0.25391-0.20703s2.6199-0.58739 2.6035-0.57227c0.58732-0.094857 0.55664-0.50781 0.55664-0.50781s-0.01566-2.459 0-2.459c0-0.90483-0.82617-0.82617-0.82617-0.82617zm-5.2187 1.8887c-0.053909 0-0.10734 0.019445-0.14648 0.058594l-0.22266 0.22461c-0.03906 0.03906-0.060547 0.090867-0.060547 0.14648 0 0.05562 0.02149 0.10742 0.060547 0.14648l0.23633 0.23828c0.068037 0.068037 0.068037 0.17787 0 0.24609l-0.17969 0.18164c-0.063177 0.063177-0.1318 0.043968-0.1543-0.042969l-0.11328-0.42773c-0.02844-0.10872-0.14336-0.19727-0.25586-0.19727h-7.1113c-0.056158 0-0.10257 0.02149-0.13281 0.060547-0.030239 0.03924-0.03961 0.090171-0.025391 0.14453l0.96484 3.6914c0.02844 0.1089 0.14336 0.19727 0.25586 0.19727h7.1113c0.056157 0 0.10453-0.02131 0.13477-0.06055s0.039611-0.09017 0.025391-0.14453l-0.59375-2.2695c-0.02502-0.095217 0.012374-0.23503 0.082031-0.30469l0.41016-0.41016c0.065697-0.065517 0.18235-0.065517 0.24805 0l0.23633 0.23828c0.078117 0.078117 0.2168 0.078117 0.29492 0l0.22266-0.22461c0.03906-0.03906 0.060547-0.090864 0.060547-0.14648 0-0.055617-0.021488-0.10725-0.060547-0.14648l-1.1387-1.1406c-0.039148-0.039149-0.094529-0.058594-0.14844-0.058594zm6.0449 2.1895c-2.0687 0-3.748 1.6785-3.748 3.7461 0 2.0703 1.6794 3.7461 3.748 3.7461 2.0683 0 3.7461-1.6758 3.7461-3.7461 0-2.0676-1.6778-3.7461-3.7461-3.7461zm0 2.3027c0.79738 0 1.4434 0.64562 1.4434 1.4434s-0.64598 1.4453-1.4434 1.4453c-0.79828 0-1.4453-0.64776-1.4453-1.4453s0.64722-1.4434 1.4453-1.4434zm-11.904 0.26953c-1.2978 0-2.3496 1.0522-2.3496 2.3496s1.0518 2.3496 2.3496 2.3496c1.2976 0 2.3496-1.052 2.3496-2.3496 0-1.2976-1.052-2.3496-2.3496-2.3496zm1.6855 0.07813c-0.057777 0-0.096568 0.01766-0.11133 0.05078-0.01458 0.0333-0.00177 0.07648 0.037109 0.11914l0.67188 0.73633c0.073977 0.08064 0.22455 0.14648 0.33398 0.14648h3.791c0.056157 0 0.10453-0.02131 0.13477-0.06055 0.03042-0.03906 0.039611-0.09212 0.025391-0.14648l-0.16992-0.64844c-0.02844-0.10872-0.14336-0.19727-0.25586-0.19727zm-1.6855 1.3184c0.52648 0 0.95117 0.42628 0.95117 0.95312 1.8e-4 0.52594-0.42451 0.95312-0.95117 0.95312-0.52594 0-0.95117-0.427-0.95117-0.95312 0-0.52684 0.42505-0.95312 0.95117-0.95312z" fill="#000" stroke-width=".17999"/></svg>
