<?xml version="1.0" encoding="utf-8"?>
<!-- Generator: Adobe Illustrator 24.1.2, SVG Export Plug-In . SVG Version: 6.00 Build 0)  -->
<svg version="1.1" id="Layer_1" xmlns="http://www.w3.org/2000/svg" xmlns:xlink="http://www.w3.org/1999/xlink" x="0px" y="0px"
	 viewBox="0 0 18 18" style="enable-background:new 0 0 18 18;" xml:space="preserve">
<path d="M15.8,4.3c-3.3-4.1-9-5.2-12.8-2.5C-0.9,4.5-0.9,10.5,2.5,14c3.2,3.2,7.5,4.6,11.2,3c0.4-0.2,1.6-0.6,1.5-2.4
	c0-0.7-1.1-2.9-1.1-3.7c0-0.9,0.6-2.1,1.8,0.2c0.7,1.4,1.8,0.5,1.9-0.1C18.3,9,17.7,6.6,15.8,4.3z M4.2,3.6c1.1,0,2,0.9,2,2
	s-0.9,2-2,2s-2-0.9-2-2S3.1,3.6,4.2,3.6z M4.4,12.8c-1.1,0-2-0.9-2-2s0.9-2,2-2c1.1,0,2,0.9,2,2S5.5,12.8,4.4,12.8z M8.7,16.2
	c-1.1,0-2-0.9-2-2c0-1.1,0.9-2,2-2s2,0.9,2,2C10.7,15.3,9.8,16.2,8.7,16.2z M9.6,5.9c-1.1,0-2-0.9-2-2c0-1.1,0.9-2,2-2s2,0.9,2,2
	C11.6,5,10.7,5.9,9.6,5.9z"/>
</svg>
