<?xml version="1.0" encoding="UTF-8" standalone="no"?>
<svg
   xmlns:dc="http://purl.org/dc/elements/1.1/"
   xmlns:cc="http://creativecommons.org/ns#"
   xmlns:rdf="http://www.w3.org/1999/02/22-rdf-syntax-ns#"
   xmlns:svg="http://www.w3.org/2000/svg"
   xmlns="http://www.w3.org/2000/svg"
   xmlns:sodipodi="http://sodipodi.sourceforge.net/DTD/sodipodi-0.dtd"
   xmlns:inkscape="http://www.inkscape.org/namespaces/inkscape"
   height="18"
   width="18"
   xml:space="preserve"
   viewBox="0 0 18 18"
   y="0px"
   x="0px"
   sodipodi:docname="art.svg"
   inkscape:version="1.0 (4035a4f, 2020-05-01)"
   id="svg18"
   version="1.1"><metadata
   id="metadata846"><rdf:RDF><cc:Work
       rdf:about=""><dc:format>image/svg+xml</dc:format><dc:type
         rdf:resource="http://purl.org/dc/dcmitype/StillImage" /><dc:title></dc:title></cc:Work></rdf:RDF></metadata><defs
   id="defs844" /><sodipodi:namedview
   inkscape:current-layer="svg18"
   inkscape:window-maximized="0"
   inkscape:window-y="23"
   inkscape:window-x="0"
   inkscape:cy="89.730942"
   inkscape:cx="90.269058"
   inkscape:zoom="3.7166667"
   showgrid="false"
   id="namedview842"
   inkscape:window-height="931"
   inkscape:window-width="1648"
   inkscape:pageshadow="2"
   inkscape:pageopacity="0"
   guidetolerance="10"
   gridtolerance="10"
   objecttolerance="10"
   borderopacity="1"
   bordercolor="#666666"
   pagecolor="#ffffff" />
<style
   id="style833"
   type="text/css">
	.st0{fill:#FFFFFF;}
</style>
<g
   transform="matrix(0.10589786,0,0,0.1,0.52484216,1)"
   id="g12">
	<path
   d="M 160,32.3 C 160,26.6 151.7,6 150,2 c -0.7,-1.3 -2,-2 -3.3,-2 -1.3,0 -2.7,0.7 -3,2 -1.7,4 -10,24.7 -10,30.3 0,3 1.3,13 3.7,18 -1,8.7 -1.7,17.3 -2,26.3 -2,-1.3 -4,-2.7 -6.3,-3.7 -3.3,-1.7 -6.7,-1.7 -9,-1.7 -1.3,0 -2.7,0 -4,0 -4.7,0.3 -9.7,1 -15.3,-3.3 -5,-3.7 -4,-11 -2,-22.3 3,-15 6.3,-33.7 -15,-43.3 C 80,1 75.7,0 71,0 49,0 25,20 14.7,34 c -25.3,35.7 -17,85.3 18.7,111 13.6,9.7 30.6,15 47.6,15 23,0 44,-9.7 57.7,-26.3 1.3,8.7 3,16.7 5,23.7 0.3,1.3 1.7,2.3 3.3,2.3 1.7,0 2.7,-1 3.3,-2.3 8,-28.4 10.7,-70.4 6.4,-107.4 2,-4.7 3.3,-14.3 3.3,-17.7 z"
   inkscape:connector-curvature="0"
   id="path10" />
	<path
   d="m 65.7,41.7 c -5.4,0 -10,-4.2 -10,-10 0,-5.4 4.2,-10 10,-10 5.4,0 10,4.2 10,10 0,5.4 -4.3,10 -10,10 z"
   class="st0"
   inkscape:connector-curvature="0"
   id="path2" />
	<path
   d="m 26.3,71.7 c 0,-5.4 4.2,-10 10,-10 5.4,0 10,4.2 10,10 0,5.4 -4.2,10 -10,10 -5.8,0 -10,-4.6 -10,-10 z"
   class="st0"
   inkscape:connector-curvature="0"
   id="path4" />
	<path
   d="m 47,120.7 c -5.4,0 -10,-4.2 -10,-10 0,-5.4 4.2,-10 10,-10 5.4,0 10,4.2 10,10 -0.4,5.4 -4.6,10 -10,10 z"
   class="st0"
   inkscape:connector-curvature="0"
   id="path6" />
	<path
   d="m 89.7,139 c -5.4,0 -10,-4.2 -10,-10 0,-5.4 4.2,-10 10,-10 5.4,0 10,4.2 10,10 -0.4,5.8 -4.7,10 -10,10 z"
   class="st0"
   inkscape:connector-curvature="0"
   id="path8" />
</g>
</svg>
