<?xml version="1.0" encoding="UTF-8" standalone="no"?>
<svg
   xmlns:dc="http://purl.org/dc/elements/1.1/"
   xmlns:cc="http://creativecommons.org/ns#"
   xmlns:rdf="http://www.w3.org/1999/02/22-rdf-syntax-ns#"
   xmlns:svg="http://www.w3.org/2000/svg"
   xmlns="http://www.w3.org/2000/svg"
   id="svg6"
   viewBox="0 0 18 18"
   y="0px"
   x="0px"
   version="1.1"
   fill="#000000"
   width="18"
   height="18">
  <metadata
     id="metadata12">
    <rdf:RDF>
      <cc:Work
         rdf:about="">
        <dc:format>image/svg+xml</dc:format>
        <dc:type
           rdf:resource="http://purl.org/dc/dcmitype/StillImage" />
        <dc:title></dc:title>
      </cc:Work>
    </rdf:RDF>
  </metadata>
  <defs
     id="defs10" />
  <style
     id="style2"
     type="text/css">
	.st0{fill:#000000;}
</style>
  <path
     id="path4"
     d="M 9,1 C 7.0103844,1 5.3461652,2.399176 4.91875,4.2625 4.6861072,4.221698 4.4448356,4.2 4.2,4.2 1.8875108,4.2 0,6.0875108 0,8.4 c 0,2.106925 1.5724438,3.842286 3.6,4.1375 V 16.4 A 0.60006,0.60006 0 0 0 4.2,17 h 9.6 a 0.60006,0.60006 0 0 0 0.6,-0.6 V 12.5375 C 16.427556,12.242286 18,10.506925 18,8.4 18,6.0875108 16.112489,4.2 13.8,4.2 13.555164,4.2 13.313893,4.221698 13.08125,4.2625 12.653835,2.399176 10.989616,1 9,1 Z m 0,1.2 c 1.610825,0 2.905521,1.25475 2.9875,2.84375 a 0.60006,0.60006 0 0 0 0.8,0.53125 C 13.106244,5.4606932 13.445053,5.4 13.8,5.4 c 1.663961,0 3,1.3360392 3,3 0,1.663961 -1.336039,3 -3,3 A 0.60006,0.60006 0 0 0 13.2,12 v 3.8 H 4.8 V 15 h 7 a 0.60006,0.60006 0 1 0 0,-1.2 h -7 V 12 A 0.60006,0.60006 0 0 0 4.2,11.4 c -1.6639608,0 -3,-1.336039 -3,-3 0,-1.6639608 1.3360392,-3 3,-3 0.3549466,0 0.693756,0.060693 1.0125,0.175 a 0.60006,0.60006 0 0 0 0.8,-0.53125 C 6.0944792,3.45475 7.3891746,2.2 9,2.2 Z"
     style="color:#000000;font-style:normal;font-variant:normal;font-weight:normal;font-stretch:normal;font-size:medium;line-height:normal;font-family:Sans;-inkscape-font-specification:Sans;text-indent:0;text-align:start;text-decoration:none;text-decoration-line:none;letter-spacing:normal;word-spacing:normal;text-transform:none;writing-mode:lr-tb;direction:ltr;baseline-shift:baseline;text-anchor:start;display:inline;overflow:visible;visibility:visible;opacity:1;fill:#000000;fill-opacity:1;stroke:none;stroke-width:1.2;marker:none;enable-background:accumulate" />
</svg>
