<?xml version="1.0" encoding="UTF-8"?>
<!-- Created with Inkscape (http://www.inkscape.org/) -->
<svg width="18" height="18" version="1.1" viewBox="0 0 18 18" xmlns="http://www.w3.org/2000/svg" xmlns:cc="http://creativecommons.org/ns#" xmlns:dc="http://purl.org/dc/elements/1.1/" xmlns:rdf="http://www.w3.org/1999/02/22-rdf-syntax-ns#">
 <metadata>
  <rdf:RDF>
   <cc:Work rdf:about="">
    <dc:format>image/svg+xml</dc:format>
    <dc:type rdf:resource="http://purl.org/dc/dcmitype/StillImage"/>
    <dc:title/>
   </cc:Work>
  </rdf:RDF>
 </metadata>
 <rect id="canvas" y="4" width="14" height="14" fill="none" visibility="hidden"/>
 <path id="luggage" d="m7.7143 1.2857c-1.2857 0-2.5714 1.3127-2.5714 2.5714v1.2857h-0.96429v11.571h9.6429v-11.571h-0.96429v-1.2857c0-1.2857-1.2992-2.5714-2.5714-2.5714zm0.64286 1.6071h1.2857c1.1056 0 1.6071 0.77068 1.6071 1.6071v0.64286h-4.5v-0.64286c0-0.80898 0.39316-1.6071 1.6071-1.6071zm-5.7857 2.25c-1.7441 0-2.5714 0.82729-2.5714 2.5714v6.4286c0 1.7441 0.96212 2.5714 2.5714 2.5714zm12.857 0v11.571c1.6093 0 2.5714-0.96212 2.5714-2.5714v-6.4286c0-1.6902-0.80033-2.5714-2.5714-2.5714z"/>
</svg>
