<?xml version="1.0" encoding="UTF-8"?>
<svg width="24" height="24" version="1.1" viewBox="0 0 24 24" xmlns="http://www.w3.org/2000/svg">
 <path d="m5.8134 20.86c-1.1706 0-1.6406-2.0928-1.7381-2.9264a4.9305 4.9305 0 0 1 0.28377-2.3943 2.217 2.217 0 0 1 1.6583-1.4366c1.0375-0.17736 1.7736 0.44339 2.7136 0.65622a1.073 1.073 0 0 0 1.3834-1.2149c-0.39019-1.5253-3.1658-1.5519-4.3009-1.5519 0-1.6494 1.809-1.8623 3.1038-1.7381a9.5773 9.5773 0 0 1 2.2524 0.4966c0.44339 0.15075 0.95773 0.53207 1.4455 0.4966 0.73603-0.06208 0.88679-0.82471 0.56754-1.3834-0.7715-1.3124-2.9619-1.4189-4.2654-1.4189 0-1.7736 1.5341-2.1106 3.0062-1.8445a10.269 10.269 0 0 1 2.2081 0.70056c0.45226 0.19509 0.9932 0.56754 1.4898 0.39905 1.277-0.39019-0.05321-1.7558-0.62075-2.0839a5.8528 5.8528 0 0 0-1.2592-0.51434c-0.47886-0.14189-1.0641-0.088679-0.62962-0.64735a4.5492 4.5492 0 0 1 2.4209-1.0996c1.676-0.39019 3.9905-0.46113 4.3985 1.6494a4.7 4.7 0 0 1-0.75377 3.1747 34.549 34.549 0 0 1-6.0745 7.653 32.456 32.456 0 0 1-4.0792 3.5383c-0.88679 0.63849-2.0573 1.4898-3.2102 1.4898z" stroke-width=".88679"/>
</svg>
