<?xml version="1.0" encoding="UTF-8" standalone="no"?>
<svg viewBox="0 0 18 18" height="18" width="18">
  <path
     d="m 2.7158266,17.999959 c -1.1890496,0 -1.6664572,-2.125784 -1.76549389,-2.972523 A 5.0082088,5.0082088 0 0 1 1.2385752,12.595401 2.2519418,2.2519418 0 0 1 2.9230113,11.136158 C 3.9768632,10.956003 4.7245648,11.586537 5.67938,11.802721 A 1.0899114,1.0899114 0 0 0 7.0845835,10.568674 C 6.6882438,9.0193333 3.8688878,8.9923141 2.7158978,8.9923141 c 0,-1.6753959 1.8375113,-1.8916515 3.1527184,-1.7654939 A 9.7282464,9.7282464 0 0 1 8.156516,7.731247 C 8.6068942,7.884373 9.1293406,8.2717028 9.6247982,8.2356738 10.372429,8.1726154 10.525565,7.3979657 10.201283,6.8304703 9.4176237,5.4973857 7.1927012,5.3892072 5.8686569,5.3892072 c 0,-1.8015535 1.5582786,-2.1438649 3.0535802,-1.8735709 a 10.430848,10.430848 0 0 1 2.2429019,0.7116014 c 0.459388,0.1981648 1.008854,0.576485 1.513281,0.4053394 1.297126,-0.3963397 -0.05405,-1.7834729 -0.630534,-2.116744 A 5.9450451,5.9450451 0 0 0 10.768839,1.9933866 C 10.282432,1.8492603 9.6879684,1.9033099 10.129296,1.3358338 a 4.6208993,4.6208993 0 0 1 2.459056,-1.11693057 c 1.702415,-0.39633973 4.053394,-0.46839781 4.467824,1.67539597 a 4.774076,4.774076 0 0 1 -0.76565,3.224736 35.093522,35.093522 0 0 1 -6.17024,7.7736178 32.967534,32.967534 0 0 1 -4.1434913,3.594067 C 5.0760282,17.135272 3.88707,18 2.7159993,18 Z" />
</svg>
