<?xml version="1.0" encoding="UTF-8" standalone="no"?>
<svg
   xmlns:dc="http://purl.org/dc/elements/1.1/"
   xmlns:cc="http://creativecommons.org/ns#"
   xmlns:rdf="http://www.w3.org/1999/02/22-rdf-syntax-ns#"
   xmlns:svg="http://www.w3.org/2000/svg"
   xmlns="http://www.w3.org/2000/svg"
   xmlns:sodipodi="http://sodipodi.sourceforge.net/DTD/sodipodi-0.dtd"
   xmlns:inkscape="http://www.inkscape.org/namespaces/inkscape"
   inkscape:version="1.0 (4035a4fb49, 2020-05-01)"
   height="18"
   width="18"
   sodipodi:docname="sand-bucket-svgrepo-com.svg"
   xml:space="preserve"
   viewBox="0 0 18 18"
   y="0px"
   x="0px"
   id="Layer_1"
   version="1.1"><metadata
   id="metadata43"><rdf:RDF><cc:Work
       rdf:about=""><dc:format>image/svg+xml</dc:format><dc:type
         rdf:resource="http://purl.org/dc/dcmitype/StillImage" /><dc:title></dc:title></cc:Work></rdf:RDF></metadata><defs
   id="defs41" /><sodipodi:namedview
   inkscape:current-layer="Layer_1"
   inkscape:window-maximized="1"
   inkscape:window-y="-9"
   inkscape:window-x="-9"
   inkscape:cy="16.98812"
   inkscape:cx="36.374779"
   inkscape:zoom="13.623838"
   showgrid="false"
   id="namedview39"
   inkscape:window-height="1001"
   inkscape:window-width="1920"
   inkscape:pageshadow="2"
   inkscape:pageopacity="0"
   guidetolerance="10"
   gridtolerance="10"
   objecttolerance="10"
   borderopacity="1"
   bordercolor="#666666"
   pagecolor="#ffffff" />
<g
   transform="matrix(0.03608822,0,0,0.03608822,1.1549441,0.2663116)"
   id="g6">
	<g
   id="g4">
		<path
   id="path2"
   d="m 404.968,291.305 -4.076,-5.018 c -9.073,-11.182 -21.647,-26.665 -35.062,-38.687 0.287,-1.966 0.594,-3.932 0.594,-5.98 v -40.96 c 0,-22.589 -18.371,-40.96 -40.96,-40.96 H 198.202 L 184.747,104.404 C 207.705,91.645 224.151,66.905 226.772,38.192 227.776,27.194 223.454,16.237 215.18,8.885 206.865,1.512 195.478,-1.58 184.542,0.775 h -0.021 L 101.577,18.47 c -10.854,2.335 -20.07,9.748 -24.637,19.886 -4.567,10.117 -4.076,21.893 1.352,31.519 14.315,25.477 39.895,41.472 66.437,43.397 l 11.325,46.428 h -55.869 c -22.569,0 -40.96,18.371 -40.96,40.96 v 40.96 c 0,15.995 9.318,29.737 22.712,36.475 l 27.382,177.05 c 2.519,18.371 18.391,32.236 36.946,32.236 h 136.54 c 17.162,0 31.887,-11.899 36.024,-28.201 3.543,0.451 7.086,1.024 10.568,1.024 24.248,0 46.899,-10.547 63.734,-26.358 35.368,-33.178 51.548,-94.413 11.837,-142.541 z M 118.719,56.686 184.501,42.657 c -4.076,14.807 -15.032,26.583 -28.119,29.389 -13.169,2.724 -27.935,-3.502 -37.663,-15.36 z m -18.534,184.935 v -40.96 h 225.28 l 0.021,40.899 c 0,0.02 -0.021,0.041 -0.041,0.061 z m 264.908,162.365 c -5.55,5.202 -20.726,17.121 -40.366,14.889 l 18.596,-136.049 c 9.503,9.421 19.128,21.115 25.764,29.286 l 4.301,5.263 c 23.797,28.858 13.496,66.172 -8.295,86.611 z" />
	</g>
</g>
<g
   id="g8">
</g>
<g
   id="g10">
</g>
<g
   id="g12">
</g>
<g
   id="g14">
</g>
<g
   id="g16">
</g>
<g
   id="g18">
</g>
<g
   id="g20">
</g>
<g
   id="g22">
</g>
<g
   id="g24">
</g>
<g
   id="g26">
</g>
<g
   id="g28">
</g>
<g
   id="g30">
</g>
<g
   id="g32">
</g>
<g
   id="g34">
</g>
<g
   id="g36">
</g>
</svg>
