<?xml version="1.0" encoding="UTF-8"?>
<svg width="18" height="18" version="1.1" viewBox="0 0 18 18" xml:space="preserve" xmlns="http://www.w3.org/2000/svg">
<g transform="matrix(.036088 0 0 .036088 1.1549 .26631)">
	
		<path d="m404.97 291.3-4.076-5.018c-9.073-11.182-21.647-26.665-35.062-38.687 0.287-1.966 0.594-3.932 0.594-5.98v-40.96c0-22.589-18.371-40.96-40.96-40.96h-127.26l-13.455-55.296c22.958-12.759 39.404-37.499 42.025-66.212 1.004-10.998-3.318-21.955-11.592-29.307-8.315-7.373-19.702-10.465-30.638-8.11h-0.021l-82.944 17.695c-10.854 2.335-20.07 9.748-24.637 19.886-4.567 10.117-4.076 21.893 1.352 31.519 14.315 25.477 39.895 41.472 66.437 43.397l11.325 46.428h-55.869c-22.569 0-40.96 18.371-40.96 40.96v40.96c0 15.995 9.318 29.737 22.712 36.475l27.382 177.05c2.519 18.371 18.391 32.236 36.946 32.236h136.54c17.162 0 31.887-11.899 36.024-28.201 3.543 0.451 7.086 1.024 10.568 1.024 24.248 0 46.899-10.547 63.734-26.358 35.368-33.178 51.548-94.413 11.837-142.54zm-286.25-234.62 65.782-14.029c-4.076 14.807-15.032 26.583-28.119 29.389-13.169 2.724-27.935-3.502-37.663-15.36zm-18.534 184.94v-40.96h225.28l0.021 40.899c0 0.02-0.021 0.041-0.041 0.061zm264.91 162.36c-5.55 5.202-20.726 17.121-40.366 14.889l18.596-136.05c9.503 9.421 19.128 21.115 25.764 29.286l4.301 5.263c23.797 28.858 13.496 66.172-8.295 86.611z"/>
	
</g>















</svg>
