<?xml version="1.0" encoding="UTF-8" standalone="no"?>
<svg
   xmlns:dc="http://purl.org/dc/elements/1.1/"
   xmlns:cc="http://creativecommons.org/ns#"
   xmlns:rdf="http://www.w3.org/1999/02/22-rdf-syntax-ns#"
   xmlns:svg="http://www.w3.org/2000/svg"
   xmlns="http://www.w3.org/2000/svg"
   id="svg6"
   viewBox="0 0 18 18"
   version="1.1"
   height="18"
   width="18">
  <path
     style="fill:#000000;fill-opacity:1;stroke-width:1.10789096"
     d="m 8.0289708,0.27541448 c -3.586132,0 -7.12207665,2.89713472 -7.12207665,4.98550912 0,1.7141288 1.78868985,2.4207416 2.84883065,2.1366784 2.151081,-0.5763914 1.4244154,-4.2732461 5.6976614,-4.2732461 2.1305848,0 5.2794328,1.3065358 8.5466028,3.5610938 C 15.151158,1.6637126 12.302328,0.27552526 8.0289708,0.27552526 Z M 17.999989,8.8220173 c -1.424415,0 -4.273246,1.4244157 -8.5466028,1.4244157 -4.273246,0 -7.1417972,-0.6133509 -8.54660284,-1.4244157 -1.42441534,2.0421757 -1.06831705,5.6976617 0.35610934,7.1220777 0,-2.848831 1.6469906,-4.273247 2.4927546,-4.273247 -0.4850125,1.694852 -0.335968,4.348029 1.4244153,5.697662 -0.6367271,-2.184429 0.6445377,-4.367528 2.1366784,-4.985509 -0.219174,2.136678 -0.2981224,3.030968 1.4244154,5.341585 0,-1.896266 0.3862994,-3.91717 2.1366786,-5.341585 0,1.424415 0.712218,3.561094 2.136678,4.985509 -0.356109,-2.279596 0.161409,-4.273246 1.424415,-5.697662 0.05528,1.880424 0.589897,3.052351 2.492755,4.273247 C 16.36626,13.260007 16.575574,10.885243 18,8.8220173 Z"
     id="beauty" />
</svg>
