<?xml version="1.0" encoding="UTF-8" standalone="no"?>
<svg
   viewBox="0 0 18 18"
   width="18"
   height="18">
  <path
     d="M 2.159295,1.9731357 C 0.96604125,1.9731357 0,2.938881 0,4.1131941 v 9.7543749 c 0,1.193254 0.96604125,2.159295 2.159295,2.159295 h 10.152053 c 1.174313,0 2.159295,-0.966041 2.159295,-2.159295 v -2.272864 l -0.511617,0.587452 c -0.265167,0.34093 -0.586861,0.605876 -0.92779,0.814221 v 0.871191 c 0,0.397751 -0.322137,0.719888 -0.719888,0.719888 H 2.159295 c -0.3977512,0 -0.7198884,-0.322137 -0.7198884,-0.719888 V 5.9695144 H 12.424917 L 14.413673,3.6396808 C 14.186386,2.6926541 13.334136,1.9731357 12.311348,1.9731357 Z m 0.284108,1.3447039 c 0.3598702,0 0.6440521,0.3031227 0.6440521,0.6440523 0,0.3598701 -0.2841819,0.644052 -0.6440521,0.644052 -0.3598701,0 -0.6440522,-0.2841819 -0.6440522,-0.644052 0,-0.3409296 0.2841821,-0.6440523 0.6440522,-0.6440523 z m 1.9506531,0 c 0.3598702,0 0.6440521,0.3031227 0.6440521,0.6440523 0,0.3598701 -0.2841819,0.644052 -0.6440521,0.644052 -0.3598701,0 -0.6436823,-0.2841819 -0.6436823,-0.644052 0,-0.3409296 0.2838122,-0.6440523 0.6436823,-0.6440523 z m 1.9321566,0 c 0.3598701,0 0.644052,0.3031227 0.644052,0.6440523 0,0.3598701 -0.2841819,0.644052 -0.644052,0.644052 -0.3598702,0 -0.6440523,-0.2841819 -0.6440523,-0.644052 0,-0.3409296 0.3031226,-0.6440523 0.6440523,-0.6440523 z m 9.9437803,0.3976772 c -0.222551,0.018941 -0.435558,0.1230396 -0.587082,0.3029747 l -4.129185,4.8868059 2.121192,1.7804836 4.129185,-4.8679387 C 18.107151,5.4390315 18.050404,4.889756 17.690534,4.5867075 L 16.914045,3.9237888 C 16.72464,3.7627943 16.492545,3.6965763 16.269993,3.7155168 Z M 4.1291845,7.9960037 c -0.3977512,0 -0.7198882,0.3221367 -0.7198882,0.7198887 0,0.397751 0.322137,0.719888 0.7198882,0.719888 h 5.4735187 c 0.094703,-0.227287 0.2272864,-0.416988 0.3788107,-0.587453 L 10.644433,8.0718393 c -0.0947,-0.03788 -0.208272,-0.075836 -0.302975,-0.075836 z m 6.6669205,1.8563207 c -0.189406,0.2651666 -0.340782,0.5680676 -0.416544,0.8900566 l -0.3980471,1.629182 c -0.094703,0.321989 0.2085681,0.586861 0.5116161,0.454277 l 1.552976,-0.662919 c 0.303049,-0.132584 0.568364,-0.34093 0.814591,-0.568216 z M 4.1291845,11.102325 c -0.3977512,0 -0.7198882,0.322137 -0.7198882,0.719888 0,0.397752 0.322137,0.719519 0.7198882,0.719519 h 4.602328 c -0.018941,-0.151525 2.273e-4,-0.302753 0.038103,-0.454277 l 0.246005,-0.98513 z" />
</svg>
