<?xml version="1.0" encoding="UTF-8" standalone="no"?>
<svg
   viewBox="0 0 18 18"
   height="18"
   width="18">
  <path
     d="M 3.3323103,1.2076083 C 3.0770743,1.2178936 2.8232997,1.2689311 2.5714286,1.3658115 V 11.651526 c 0,0 4.0982143,-0.160714 5.1428571,3.857143 V 4.7081664 C 6.9171557,3.0295396 5.1189623,1.135611 3.3323103,1.2076083 Z M 7.7142857,15.508669 C 5.0625,13.459562 1.2857143,12.93724 1.2857143,12.93724 V 3.1663137 L 0,2.6515258 V 14.222954 l 7.7142857,2.571429 H 10.285714 L 18,14.222954 V 2.6515258 L 16.714286,3.1663137 V 13.452029 l -6.428572,2.05664 c -0.857143,-0.327446 -1.8563384,-0.269181 -2.5714283,0 z M 15.428571,1.3658115 C 12.86676,1.2288181 9.9093916,2.7668309 8.3571429,4.0904208 V 14.973791 c 1.4332772,-1.188822 4.0031781,-2.753065 7.0714281,-3.066126 z" />
</svg>
