<?xml version="1.0" encoding="UTF-8" standalone="no"?>
<!DOCTYPE svg PUBLIC "-//W3C//DTD SVG 1.1//EN" "http://www.w3.org/Graphics/SVG/1.1/DTD/svg11.dtd">
<svg width="100%" height="100%" viewBox="0 0 18 18" version="1.1" xmlns="http://www.w3.org/2000/svg" xmlns:xlink="http://www.w3.org/1999/xlink" xml:space="preserve" xmlns:serif="http://www.serif.com/" style="fill-rule:evenodd;clip-rule:evenodd;stroke-linejoin:round;stroke-miterlimit:2;">
    <g transform="matrix(0.0999877,0,0,0.0999877,0.00914523,-0.00206295)">
        <path d="M148.8,93.5C142.6,86.9 132,81.7 119.1,78.9C117.9,78.7 117,78.4 117,78.4C117,78.4 118,78.2 119.1,78.1C124.3,77.4 129.4,76.2 134.1,74.6C136.4,73.8 141.1,71.6 142.9,70.4C150.1,65.9 153.9,60.2 154.4,53.7C154.6,50.9 153.7,47.9 152.1,45.5C150.4,42.9 147.7,41 144.2,39.8C141.7,38.9 139.6,38.6 136.4,38.4L134.5,38.3L134.8,37C136.7,29.5 135,23.4 129.9,18.9C127.8,17.1 125.2,15.6 122.2,14.6C120.7,14.1 120.3,14 119.3,14.1C112.2,14.4 105.6,19.3 100.1,28.3C95.9,35.1 92.8,43.7 91,53.2C90.6,55.2 90.6,55.5 90.5,55C90.4,54 89.9,50.4 89.5,48.3C87.3,36.9 82.9,27.2 77.4,21.3C72.4,16 66,13.6 60.3,14.8C58.7,15.1 55.8,16.5 54.6,17.5C51.3,20.3 49.4,24.3 48.9,29.8C48.8,31.1 48.7,33.9 48.8,35C48.8,35.2 48.7,35.2 47.9,35C45.6,34.5 42.9,34.4 40.6,34.6C38.7,34.8 37.7,35.1 35.5,36.1C33.8,36.9 33.4,37.2 32.5,37.8C29.8,40 27.7,43.1 26.4,46.7C25.3,49.7 25.2,50.7 25.7,53.4C25.9,54.4 26.1,54.9 27,57C28,59 28.3,59.6 29,60.5C31.7,64 35.8,67.3 40.6,69.8C43.2,71.2 44.9,71.9 48.5,73.2C53.6,75.1 58.2,76.2 63.8,77.1C65.2,77.3 66.4,77.5 66.3,77.5C66.3,77.5 65.7,77.6 65,77.7C59.5,78.3 53,79.7 47.7,81.5C43.6,82.9 38.5,85.5 35.4,87.8C29.2,92.4 25.9,98 25.8,104.2C25.7,108.2 27.7,112.3 30.9,114.8C34.1,117.3 38.2,118.6 43.9,118.7L46.3,118.8L46.1,119.6C44.1,128.2 46.7,135.2 53.6,139.5C56.7,141.4 60.2,142.6 62.1,142.5C69.7,142 76.9,135.9 82.2,125.1C83.5,122.6 84.6,119.8 85.6,116.9C84.7,123.8 85.9,132.1 79.1,143.7C72.3,155.3 65.6,163.7 42.1,174.9L47.6,179.8C63,173.3 71.9,165.4 79.1,157.6C91.8,143.9 91.6,121.6 91.7,113.3C92.1,115 92.6,116.6 93.1,118.3C93.7,120.1 94,121 95.6,124.4C97.3,128 97.6,128.6 98.5,130C103.1,136.8 108.4,140.4 114.7,141C118.1,141.3 121.8,140.2 124.5,138C125.6,137.1 127.3,135 128,133.7C129.6,130.8 130.4,126.8 130.4,122.5C130.4,121.6 130.4,120.9 130.5,120.9C130.5,120.9 131,121 131.6,121.1C134.7,121.8 137.6,121.9 140.6,121.4C142.1,121.1 145.1,119.8 146.4,118.9C149.1,116.9 151.2,114.3 152.9,110.5C153.7,108.9 154.3,106.5 154.3,105.7C154.4,101.7 152.4,97.2 148.8,93.5Z" style="fill-rule:nonzero;"/>
    </g>
</svg>
