<?xml version="1.0" encoding="UTF-8"?>
<svg width="14" height="14" version="1.0" xmlns="http://www.w3.org/2000/svg">
 <defs>
  <style type="text/css">.fil0 {fill:#EF7900}</style>
 </defs>
 <g transform="matrix(.024144 0 0 .024102 21.23 .8871)"></g>
 <g transform="matrix(.024144 0 0 .024102 21.23 .8871)"></g>
 <g transform="matrix(.77534 0 0 .77399 1.002 -801.3)" fill="#fff" fill-rule="evenodd">
  <path d="m6.7916 1048s-1.3363-1.567-2.7257-3.8465c-1.1024-1.8085-2.122-4.1906-2.2154-4.4437 0.75258-0.5472 4.5931-2.2768 5.3718-2.4463 0.22642 0.8747 0.58088 2.5876 1.3298 4.2517 0.77374 1.7193 1.7051 3.0597 2.0518 3.5127-0.82956 0.7825-3.8123 2.9721-3.8123 2.9721zm2.617-0.9585c0.09655 0.8013 2.7968 4.527 3.7098 5.2027 0.35239 0.2608 0.59876 0.048 1.1973-0.3748 0.5985-0.4231 0.82383-0.7834 0.60572-1.2928-0.44766-1.0456-2.4059-4.7995-3.3253-5.4011-0.88458-1.2876-1.6258-2.2611-2.3547-4.0463-0.75418-1.847-1.2355-3.7233-1.5241-4.8256-1.0267 0.2979-2.7269 1.0185-3.7729 1.5009-1.1654 0.5374-1.9991 1.0621-2.9252 1.5588 0.29293 0.8518 0.99334 2.9498 2.4561 5.2163 1.1558 1.7909 2.1274 3.2168 3.2232 4.3016zm-4.0605-7.4527c0-0.4143 0.3547-0.7504 0.79225-0.7504s0.79225 0.3361 0.79225 0.7504c0 0.4146-0.3547 0.7507-0.79225 0.7507s-0.79225-0.3361-0.79225-0.7507z"/>
  <path d="m6.7916 1048s-1.3363-1.567-2.7257-3.8465c-1.1024-1.8085-2.122-4.1906-2.2154-4.4437 0.75258-0.5472 4.5931-2.2768 5.3718-2.4463 0.22642 0.8747 0.58088 2.5876 1.3298 4.2517 0.77374 1.7193 1.7051 3.0597 2.0518 3.5127-0.82956 0.7825-3.8123 2.9721-3.8123 2.9721zm2.617-0.9585c0.09655 0.8013 2.7968 4.527 3.7098 5.2027 0.35239 0.2608 0.59876 0.048 1.1973-0.3748 0.5985-0.4231 0.82383-0.7834 0.60572-1.2928-0.44766-1.0456-2.4059-4.7995-3.3253-5.4011-0.88458-1.2876-1.6258-2.2611-2.3547-4.0463-0.75418-1.847-1.2355-3.7233-1.5241-4.8256-1.0267 0.2979-2.7269 1.0185-3.7729 1.5009-1.1654 0.5374-1.9991 1.0621-2.9252 1.5588 0.29293 0.8518 0.99334 2.9498 2.4561 5.2163 1.1558 1.7909 2.1274 3.2168 3.2232 4.3016zm-4.0605-7.4527c0-0.4143 0.3547-0.7504 0.79225-0.7504s0.79225 0.3361 0.79225 0.7504c0 0.4146-0.3547 0.7507-0.79225 0.7507s-0.79225-0.3361-0.79225-0.7507z"/>
 </g>
 <path d="m6.2678 9.8682s-1.0361-1.2128-2.1133-2.9771c-0.85474-1.3998-1.6453-3.2435-1.7176-3.4394 0.5835-0.42352 3.5612-1.7622 4.1649-1.8934 0.17555 0.67701 0.45038 2.0028 1.031 3.2908 0.59991 1.3307 1.3221 2.3682 1.5908 2.7188-0.64319 0.60564-2.9558 2.3004-2.9558 2.3004zm2.0291-0.74187c0.074859 0.62019 2.1685 3.5038 2.8763 4.0268 0.27322 0.20186 0.46424 0.03715 0.9283-0.29009 0.46404-0.32747 0.63874-0.60634 0.46964-1.0006-0.34709-0.80928-1.8654-3.7147-2.5782-4.1804-0.68584-0.99658-1.2605-1.7501-1.8257-3.1318-0.58474-1.4296-0.95794-2.8818-1.1817-3.7349-0.79603 0.23057-2.1143 0.7883-2.9253 1.1617-0.90358 0.41594-1.55 0.82205-2.268 1.2065 0.22712 0.65928 0.77017 2.2831 1.9043 4.0373 0.89611 1.3861 1.6495 2.4898 2.499 3.3294zm-3.1483-5.7683c0-0.32066 0.27501-0.5808 0.61426-0.5808s0.61426 0.26014 0.61426 0.5808c0 0.32089-0.27502 0.58103-0.61426 0.58103s-0.61426-0.26014-0.61426-0.58103z" fill="#444" fill-rule="evenodd"/>
</svg>
