<?xml version="1.0" encoding="UTF-8" standalone="no"?>
<svg
   height="18"
   width="18">
  <path
     d="m 17.837865,4.6671063 -0.658811,-0.437711 c -0.01535,0.060923 -0.03548,0.1213268 -0.06185,0.1805767 -2.036498,4.4336075 -4.576621,8.280618 -7.5525803,11.442354 -0.043038,0.04558 -0.091413,0.08388 -0.1407923,0.12075 l 0.6583886,0.438461 c 0.06178,0.03981 0.130829,0.05815 0.199887,0.05815 0.09813,0 0.192605,-0.03635 0.261657,-0.109039 C 13.509387,13.27461 16.006167,9.4942862 17.968711,5.1178574 18.041381,4.9543 17.983251,4.7652425 17.837859,4.667108 Z" />
  <path
     d="M 16.322357,3.6602499 10.910841,0.06167395 C 10.819981,-1.1443197e-4 10.70732,-0.01465287 10.605568,0.01436632 10.503798,0.04321243 10.416579,0.11977002 10.376604,0.21790451 8.581248,4.3108221 6.1280777,8.0220826 3.0897872,11.249888 c -0.00992,0.01038 -0.013286,0.02481 -0.021825,0.03635 -0.00419,0.0055 -0.010627,0.0087 -0.014527,0.01442 l -2.91835651,4.416415 c -0.24713145,0.374423 -0.14538184,0.876028 0.22532647,1.123205 L 1.89408,17.865323 C 2.0285481,17.952744 2.1812059,18 2.344733,18 2.6173073,18 2.8680767,17.865519 3.0207344,17.636481 l 2.7183353,-4.117125 2.8312646,1.885278 c 0.0618,0.04385 0.1308519,0.06179 0.2035212,0.06179 0.094494,0 0.1926288,-0.03981 0.2616807,-0.112673 C 11.961164,12.245898 14.454306,8.46558 16.453185,4.1145935 16.525875,3.9510361 16.471355,3.758344 16.322356,3.6602095 Z M 12.847942,4.6416813 C 12.626254,4.9797578 12.24827,5.183296 11.844865,5.183296 c -0.239856,0 -0.468819,-0.069058 -0.665088,-0.1999036 -0.556039,-0.370788 -0.70506,-1.1195581 -0.341625,-1.6757112 0.225346,-0.3380188 0.599673,-0.5416147 1.010353,-0.5416147 0.236239,0 0.465208,0.069058 0.66145,0.2035382 0.552427,0.3671533 0.70506,1.1159177 0.33799,1.6720708 z" />
</svg>
