<?xml version="1.0" encoding="UTF-8" standalone="no"?>
<svg
   xmlns:dc="http://purl.org/dc/elements/1.1/"
   xmlns:cc="http://creativecommons.org/ns#"
   xmlns:rdf="http://www.w3.org/1999/02/22-rdf-syntax-ns#"
   xmlns:svg="http://www.w3.org/2000/svg"
   xmlns="http://www.w3.org/2000/svg"
   height="18"
   width="18"
   fill="#000000"
   version="1.1"
   x="0px"
   y="0px"
   viewBox="0 0 18 18"
   enable-background="new 0 0 60 60"
   xml:space="preserve"
   id="svg8"><metadata
     id="metadata14"><rdf:RDF><cc:Work
         rdf:about=""><dc:format>image/svg+xml</dc:format><dc:type
           rdf:resource="http://purl.org/dc/dcmitype/StillImage" /><dc:title></dc:title></cc:Work></rdf:RDF></metadata><defs
     id="defs12" /><path
     fill-rule="evenodd"
     clip-rule="evenodd"
     d="m 13.219607,14.428581 c -2.603563,0 -5.2000355,0 -7.8113062,0 0,-2.474696 0,-4.9456915 0,-7.4311772 2.594931,0 5.1960272,0 7.8113062,0 0,2.4713041 0,4.9469242 0,7.4311772 z"
     id="path2"
     style="stroke-width:0.308296" /><path
     fill-rule="evenodd"
     clip-rule="evenodd"
     d="m 0.41759842,15.256665 c 5.72383128,0 11.43933858,0 17.16656058,0 0.0092,0.274692 -0.105745,0.489883 -0.265135,0.683801 -0.328027,0.398319 -0.765191,0.646806 -1.223936,0.859531 -1.000422,0.461828 -2.062812,0.710931 -3.143391,0.88851 -2.039689,0.335118 -4.0914012,0.387529 -6.1480466,0.216116 C 5.2769665,17.778221 3.7712468,17.536825 2.3318109,16.982817 1.807707,16.781191 1.3061087,16.537328 0.88374261,16.157199 0.65282859,15.950332 0.471242,15.709552 0.41883161,15.39324 c -0.007091,-0.04131 -0.001233,-0.08447 -0.001233,-0.136575 z"
     id="path4"
     style="stroke-width:0.308296" /><path
     fill-rule="evenodd"
     clip-rule="evenodd"
     d="M 8.4854073,6.2648915 C 8.410183,6.2473186 8.3676381,6.2463937 8.3315674,6.2266628 8.1450481,6.1283162 7.9505131,6.0435347 7.7763256,5.9192912 7.0194579,5.3828555 6.7154776,4.6253712 7.2235501,3.6123091 7.5469531,2.967353 7.9166005,2.3550763 8.2665169,1.7298512 8.3454408,1.5883431 8.4336136,1.4548508 8.5113042,1.3124179 8.7644156,0.84812345 8.8023361,0.70969836 8.8855761,0 9.7000952,0.55308377 10.43384,2.0810008 10.591072,3.549725 c 0.311379,-0.062584 0.455045,-0.4174334 0.522254,-1.3124179 0.041,0.051485 0.07553,0.08694 0.101429,0.127943 0.311996,0.4914245 0.545993,1.0207695 0.569424,1.6515439 0.0185,0.5105389 -0.142742,0.935988 -0.444255,1.2899123 C 10.970584,5.7398627 10.147742,6.1961414 9.6162386,6.2661247 10.362316,4.9879278 10.183812,3.7547421 9.0995338,2.8273865 8.5979355,3.5201285 8.1342577,4.2295186 8.1228508,5.2083597 8.1185346,5.6029791 8.262509,5.9331646 8.4854073,6.2648915 Z"
     id="path6"
     style="stroke-width:0.308296" /></svg>
