<?xml version="1.0" encoding="UTF-8"?>
<svg width="18" height="18" version="1.1" viewBox="0 0 18 18" xmlns="http://www.w3.org/2000/svg" xmlns:cc="http://creativecommons.org/ns#" xmlns:dc="http://purl.org/dc/elements/1.1/" xmlns:rdf="http://www.w3.org/1999/02/22-rdf-syntax-ns#">
 <metadata>
  <rdf:RDF>
   <cc:Work rdf:about="">
    <dc:format>image/svg+xml</dc:format>
    <dc:type rdf:resource="http://purl.org/dc/dcmitype/StillImage"/>
    <dc:title/>
   </cc:Work>
  </rdf:RDF>
 </metadata>
 <path id="car" d="m3.8568 1.2855-1.5938 5.143c-0.97752 0-2.2632 0.63855-2.2632 2.5715v5.143h2.5714v1.2858s0 1.2858 1.2858 1.2858 1.2858-1.2858 1.2858-1.2858v-1.2858l7.7142-0.04018v1.3259s0 1.2858 1.2858 1.2858 1.2858-1.2858 1.2858-1.2858v-1.2858h2.5714v-5.143c0-1.9638-1.2858-2.5715-2.5714-2.5715l-1.2858-5.143zm1.2858 1.9286h7.7142l0.77142 3.2144h-9.3856zm-1.2858 5.7859c0.71007 0 1.2858 0.57565 1.2858 1.2858 0 0.7101-0.57563 1.2858-1.2858 1.2858s-1.2858-0.57565-1.2858-1.2858c0-0.7101 0.57563-1.2858 1.2858-1.2858zm10.286 0c0.71007 0 1.2858 0.57565 1.2858 1.2858 0 0.7101-0.57563 1.2858-1.2858 1.2858s-1.2858-0.57565-1.2858-1.2858c0-0.7101 0.57563-1.2858 1.2858-1.2858z" stroke-width=".99998"/>
</svg>
