<?xml version="1.0" encoding="UTF-8" standalone="no"?>
<svg viewBox="0 0 18 18" height="18" width="18">
  <path
     d="M 4.5,0 C 2.7247989,0 1.2857143,1.4390847 1.2857143,3.2142857 c 0,1.775201 1.4390846,3.2142857 3.2142857,3.2142857 1.1897254,0 2.2165521,-0.6464086 2.7723214,-1.6071428 H 9 l 1.285714,-1.2857143 1.285715,1.2857143 1.285714,-1.2857143 1.285714,1.2857143 h 0.642857 L 16.714286,3.2142857 14.785714,1.6071429 H 7.2723214 C 6.7165521,0.64640867 5.6897254,0 4.5,0 Z M 3.2142857,2.5714286 c 0.3550397,0 0.6428572,0.2878169 0.6428572,0.6428571 0,0.3550402 -0.2878175,0.6428572 -0.6428572,0.6428572 -0.3550397,0 -0.6428571,-0.287817 -0.6428571,-0.6428572 0,-0.3550402 0.2878174,-0.6428571 0.6428571,-0.6428571 z M 5.1428571,7.7142857 3.8571429,11.571429 c -0.6077135,0 -1.2857143,0.494093 -1.2857143,1.285714 v 3.857143 h 1.2857143 c 0,0 0,1.285714 1.2857142,1.285714 1.2857143,0 1.2857143,-1.285714 1.2857143,-1.285714 h 5.1428576 c 0,0 0,1.285714 1.285714,1.285714 1.285714,0 1.285714,-1.285714 1.285714,-1.285714 h 1.285714 v -3.857143 c 0,-0.669351 -0.585546,-1.285714 -1.285714,-1.285714 L 12.857143,7.7142857 Z M 6.4285714,9 H 11.571429 L 12.375,11.571429 h -6.75 z m -1.2857143,4.178571 c 0.5325609,0 0.9642858,0.431725 0.9642858,0.964286 0,0.532561 -0.4317249,0.964286 -0.9642858,0.964286 -0.5325608,0 -0.9642857,-0.431725 -0.9642857,-0.964286 0,-0.532561 0.4317249,-0.964286 0.9642857,-0.964286 z m 7.7142859,0 c 0.532561,0 0.964286,0.431725 0.964286,0.964286 0,0.532561 -0.431725,0.964286 -0.964286,0.964286 -0.532561,0 -0.964286,-0.431725 -0.964286,-0.964286 0,-0.532561 0.431725,-0.964286 0.964286,-0.964286 z" />
</svg>
