<?xml version="1.0" encoding="UTF-8"?>
<svg width="18" height="18" version="1.1" viewBox="0 0 18 18" xmlns="http://www.w3.org/2000/svg" xmlns:cc="http://creativecommons.org/ns#" xmlns:dc="http://purl.org/dc/elements/1.1/" xmlns:rdf="http://www.w3.org/1999/02/22-rdf-syntax-ns#">
 <metadata>
  <rdf:RDF>
   <cc:Work rdf:about="">
    <dc:format>image/svg+xml</dc:format>
    <dc:type rdf:resource="http://purl.org/dc/dcmitype/StillImage"/>
    <dc:title/>
   </cc:Work>
  </rdf:RDF>
 </metadata>
 <rect id="canvas" y="4" width="14" height="14" fill="none" visibility="hidden"/>
 <path id="variety_store" d="m6.4286 0c-1.2857 0-1.2857 0-1.2857 1.2857l0.012561 3.8571h-3.8697v11.571c0 1.2857 0 1.2857 1.2857 1.2857h12.857c1.2857 0 1.2857 0 1.2857-1.2857v-11.571h-3.8069l-0.050222-3.8571c0-1.2857 0-1.2857-1.2857-1.2857zm0 1.2857h5.1429v3.8571h-5.1429zm0.22852 5.7832c0.66482-0.00368 0.80424 0.073942 1.1953 0.28878 0.476 0.2615 0.96597 1.2327 1.0672 1.6297l0.06278 0.24609 0.15318-0.33901c0.94108-2.0602 3.6512-2.6344 4.623-0.36412 0.26925 0.62901 0.34275 1.9165 0.07032 2.6518-0.35538 0.9592-1.0234 1.6919-2.5664 2.8125-1.0119 0.73491-2.1577 1.8452-2.2374 2.0014-0.09255 0.18129-0.0056 0.02863-0.41434-0.42941-0.21552-0.2415-0.75313-0.7107-1.1953-1.0446-1.3102-0.98943-1.487-1.1324-2.019-1.6222-0.98071-0.90304-1.3976-1.8108-1.3962-3.041 6.965e-4 -0.60052 0.040254-0.83129 0.20843-1.1853 0.28532-0.60055 0.70569-1.0479 1.243-1.3209 0.38058-0.19331 0.56982-0.28025 1.2054-0.28376z"/>
</svg>
