<?xml version="1.0" encoding="UTF-8"?>
<svg width="18" height="18" version="1.1" viewBox="0 0 18 18" xmlns="http://www.w3.org/2000/svg">
 <path d="m 15.392195,15.971419 c 0,-14.0140723 0.02739,-11.7344498 0.02739,-14.0140723 0,-1.16783942 -0.05477,-1.16783942 -1.797772,-1.16783942 V 16.016965 c 0.05612,1.126475 1e-6,1.122842 0.839197,1.122842 0.89397,0 0.931143,0 0.931143,-1.167839 z M 2.5366195,14.365406 c 2.3232997,0.739441 3.6528848,0.739441 5.9487403,-0.08216 L 7.7830913,5.4609233 c -2.3356789,0.3286417 -2.3356789,0.3560275 -4.6713577,0 z M 4.6532116,0.78927366 H 6.2866685 L 6.9341653,4.2927919 c -1.1678393,0.3560276 -1.8152894,0.3560276 -2.9831288,0 z M 1.9712684,17.139025 2.2451385,15.971186 h 6.4221823 l 0.3012559,1.167839 z M 10.68405,0.78927366 h 2.288732 V 1.5013287 H 10.68405 Z m 0,1.16783934 h 2.288732 V 2.6691682 H 10.68405 Z m 0,1.1678395 h 2.288732 v 0.712055 H 10.68405 Z m 0,1.1678394 h 2.288732 V 5.004847 H 10.68405 Z m 0,1.1678394 h 2.288732 V 6.1726864 H 10.68405 Z" fill-rule="evenodd"/>
</svg>
