<?xml version="1.0" encoding="UTF-8"?>
<svg width="14" height="14" version="1.1" viewBox="0 0 14 14" xmlns="http://www.w3.org/2000/svg">
 <path d="m13.516 13c0-12 0.02345-10.048 0.02345-12 0-1-0.0469-1-1.5394-1v13.039c0.048052 0.96458 1e-6 0.96147 0.71859 0.96147 0.76549 0 0.79732 0 0.79732-1zm-11.008-1.3752c1.9894 0.63317 3.1279 0.63317 5.0938-0.07035l-0.60134-7.5544c-2 0.28141-2 0.30486-4 0zm1.8124-11.625h1.3987l0.55444 3c-1 0.30486-1.5544 0.30486-2.5544 0zm-2.2965 14 0.23451-1h5.4992l0.25796 1zm7.4606-14h1.9598v0.60972h-1.9598zm0 1h1.9598v0.60972h-1.9598zm0 1h1.9598v0.60972h-1.9598zm0 1h1.9598v0.60972h-1.9598zm0 1h1.9598v0.60972h-1.9598z" fill-rule="evenodd"/>
</svg>
