<?xml version="1.0" encoding="UTF-8"?>
<svg width="18" height="18" version="1.1" viewBox="0 0 511.2 511.2" xml:space="preserve" xmlns="http://www.w3.org/2000/svg" xmlns:cc="http://creativecommons.org/ns#" xmlns:dc="http://purl.org/dc/elements/1.1/" xmlns:rdf="http://www.w3.org/1999/02/22-rdf-syntax-ns#"><metadata><rdf:RDF><cc:Work rdf:about=""><dc:format>image/svg+xml</dc:format><dc:type rdf:resource="http://purl.org/dc/dcmitype/StillImage"/><dc:title/></cc:Work></rdf:RDF></metadata>
<g transform="translate(-1)">
	
		
			<path d="m496.18 139.79-120.67-109.18c-3.644-3.644-7.68-6.929-11.947-9.754-7.825-5.222-16.256-8.849-25.054-10.786-12.331-2.714-24.004-4.736-35.439-6.366l1.118 5.948c0.393 2.526 0.674 4.779 0.674 7.117 0 25.318-18.492 46.345-42.667 50.432v9.301c0 4.71-3.814 8.533-8.533 8.533s-8.533-3.823-8.533-8.533v-9.301c-24.175-4.087-42.667-25.114-42.667-50.432 0-2.406 0.299-4.719 0.64-7.023l0.981-6.255c-11.315 1.587-22.861 3.567-35.004 6.238-9.02 1.98-17.724 5.811-25.89 11.392-3.925 2.679-7.629 5.751-10.871 8.977l-115.07 109.99c-13.696 13.696-14.822 35.371-2.654 50.415 6.562 8.098 16.282 13.167 26.667 13.901 10.411 0.734 20.727-2.91 28.16-9.83l64.777-56.619v326.81c0 25.882 21.06 46.933 46.933 46.933s46.933-21.052 46.933-46.933v-98.133c0-11.11 7.159-20.497 17.067-24.03v-27.17c0-4.71 3.814-8.533 8.533-8.533s8.533 3.823 8.533 8.533v27.17c9.907 3.533 17.067 12.919 17.067 24.03v98.133c0 25.882 21.06 46.933 46.933 46.933s46.933-21.052 46.933-46.933v-327.73l70.989 57.37c7.637 7.091 18.005 10.726 28.356 10.001 10.385-0.734 20.105-5.803 26.667-13.901 12.178-15.053 11.043-36.727-2.961-50.713zm-233.98 150.04c0 4.71-3.814 8.533-8.533 8.533s-8.533-3.823-8.533-8.533v-17.067c0-4.71 3.814-8.533 8.533-8.533s8.533 3.823 8.533 8.533zm0-42.666c0 4.71-3.814 8.533-8.533 8.533s-8.533-3.823-8.533-8.533v-17.067c0-4.71 3.814-8.533 8.533-8.533s8.533 3.823 8.533 8.533zm0-42.667c0 4.71-3.814 8.533-8.533 8.533s-8.533-3.823-8.533-8.533v-17.067c0-4.71 3.814-8.533 8.533-8.533s8.533 3.823 8.533 8.533zm0-42.667c0 4.71-3.814 8.533-8.533 8.533s-8.533-3.823-8.533-8.533v-17.067c0-4.71 3.814-8.533 8.533-8.533s8.533 3.823 8.533 8.533zm0-42.666c0 4.71-3.814 8.533-8.533 8.533s-8.533-3.823-8.533-8.533v-17.067c0-4.71 3.814-8.533 8.533-8.533s8.533 3.823 8.533 8.533zm76.8 68.266c0 4.71-3.814 8.533-8.533 8.533h-42.667c-4.719 0-8.533-3.823-8.533-8.533v-51.2c0-4.71 3.814-8.533 8.533-8.533h42.667c4.719 0 8.533 3.823 8.533 8.533z"/>
			<rect x="296.33" y="144.77" width="25.6" height="34.133"/>
			<path d="m253.66 50.905c18.825 0 34.133-15.317 34.133-34.133 0-1.468-0.213-2.876-0.435-4.275l-2.039-10.914c-21.513-2.065-42.274-2.108-63.633-0.137l-1.707 10.889c-0.213 1.417-0.452 2.893-0.452 4.437-1e-3 18.816 15.308 34.133 34.133 34.133z"/>
		
	
</g>















</svg>
