<?xml version="1.0" encoding="iso-8859-1"?>
<!-- Generator: Adobe Illustrator 19.0.0, SVG Export Plug-In . SVG Version: 6.00 Build 0)  -->
<svg version="1.1" id="Layer_1" xmlns="http://www.w3.org/2000/svg" xmlns:xlink="http://www.w3.org/1999/xlink" x="0px" y="0px"
	 viewBox="0 0 511.702 511.702" style="enable-background:new 0 0 511.702 511.702;" xml:space="preserve">
<g transform="translate(-1)">
	<g>
		<g>
			<path d="M496.177,139.794L375.508,30.61c-3.644-3.644-7.68-6.929-11.947-9.754c-7.825-5.222-16.256-8.849-25.054-10.786
				c-12.331-2.714-24.004-4.736-35.439-6.366l1.118,5.948c0.393,2.526,0.674,4.779,0.674,7.117
				c0,25.318-18.492,46.345-42.667,50.432v9.301c0,4.71-3.814,8.533-8.533,8.533c-4.719,0-8.533-3.823-8.533-8.533v-9.301
				c-24.175-4.087-42.667-25.114-42.667-50.432c0-2.406,0.299-4.719,0.64-7.023l0.981-6.255
				c-11.315,1.587-22.861,3.567-35.004,6.238c-9.02,1.98-17.724,5.811-25.89,11.392c-3.925,2.679-7.629,5.751-10.871,8.977
				L17.244,140.092c-13.696,13.696-14.822,35.371-2.654,50.415c6.562,8.098,16.282,13.167,26.667,13.901
				c10.411,0.734,20.727-2.91,28.16-9.83l64.777-56.619v326.81c0,25.882,21.06,46.933,46.933,46.933
				c25.873,0,46.933-21.052,46.933-46.933v-98.133c0-11.11,7.159-20.497,17.067-24.03v-27.17c0-4.71,3.814-8.533,8.533-8.533
				c4.719,0,8.533,3.823,8.533,8.533v27.17c9.907,3.533,17.067,12.919,17.067,24.03v98.133c0,25.882,21.06,46.933,46.933,46.933
				s46.933-21.052,46.933-46.933V137.037l70.989,57.37c7.637,7.091,18.005,10.726,28.356,10.001
				c10.385-0.734,20.105-5.803,26.667-13.901C511.316,175.454,510.181,153.78,496.177,139.794z M262.193,289.835
				c0,4.71-3.814,8.533-8.533,8.533c-4.719,0-8.533-3.823-8.533-8.533v-17.067c0-4.71,3.814-8.533,8.533-8.533
				c4.719,0,8.533,3.823,8.533,8.533V289.835z M262.193,247.169c0,4.71-3.814,8.533-8.533,8.533c-4.719,0-8.533-3.823-8.533-8.533
				v-17.067c0-4.71,3.814-8.533,8.533-8.533c4.719,0,8.533,3.823,8.533,8.533V247.169z M262.193,204.502
				c0,4.71-3.814,8.533-8.533,8.533c-4.719,0-8.533-3.823-8.533-8.533v-17.067c0-4.71,3.814-8.533,8.533-8.533
				c4.719,0,8.533,3.823,8.533,8.533V204.502z M262.193,161.835c0,4.71-3.814,8.533-8.533,8.533c-4.719,0-8.533-3.823-8.533-8.533
				v-17.067c0-4.71,3.814-8.533,8.533-8.533c4.719,0,8.533,3.823,8.533,8.533V161.835z M262.193,119.169
				c0,4.71-3.814,8.533-8.533,8.533c-4.719,0-8.533-3.823-8.533-8.533v-17.067c0-4.71,3.814-8.533,8.533-8.533
				c4.719,0,8.533,3.823,8.533,8.533V119.169z M338.993,187.435c0,4.71-3.814,8.533-8.533,8.533h-42.667
				c-4.719,0-8.533-3.823-8.533-8.533v-51.2c0-4.71,3.814-8.533,8.533-8.533h42.667c4.719,0,8.533,3.823,8.533,8.533V187.435z"/>
			<rect x="296.327" y="144.772" width="25.6" height="34.133"/>
			<path d="M253.658,50.905c18.825,0,34.133-15.317,34.133-34.133c0-1.468-0.213-2.876-0.435-4.275l-2.039-10.914
				c-21.513-2.065-42.274-2.108-63.633-0.137l-1.707,10.889c-0.213,1.417-0.452,2.893-0.452,4.437
				C219.524,35.588,234.833,50.905,253.658,50.905z"/>
		</g>
	</g>
</g>
<g>
</g>
<g>
</g>
<g>
</g>
<g>
</g>
<g>
</g>
<g>
</g>
<g>
</g>
<g>
</g>
<g>
</g>
<g>
</g>
<g>
</g>
<g>
</g>
<g>
</g>
<g>
</g>
<g>
</g>
</svg>
