<?xml version="1.0" encoding="UTF-8" standalone="no"?>
<svg
   xmlns:dc="http://purl.org/dc/elements/1.1/"
   xmlns:cc="http://creativecommons.org/ns#"
   xmlns:rdf="http://www.w3.org/1999/02/22-rdf-syntax-ns#"
   xmlns:svg="http://www.w3.org/2000/svg"
   xmlns="http://www.w3.org/2000/svg"
   style="fill:#000000"
   id="svg4"
   version="1.1"
   y="0px"
   x="0px"
   viewBox="0 0 18 18"
   width="18"
   height="18">
  <path
     style="fill-rule:evenodd;stroke-width:0.2"
     id="path2"
     d="m 14.673836,1 c -1.836944,0 -3.326164,1.4788462 -3.326164,3.3032212 0,1.8242732 1.48922,3.3031194 3.326164,3.3031194 C 16.510882,7.6063406 18,6.1274944 18,4.3032212 18,2.4788462 16.510882,1 14.673836,1 Z m -0.159164,9.498528 C 13.194039,7.711108 11.09346,7.124818 9.5613254,7.124818 H 6.829723 l 3.0005632,6.243927 h 2.4819998 l 1.415373,2.745208 c 0.290162,0.562591 0.864444,0.886149 1.46003,0.886047 0.251344,0 0.506478,-0.05767 0.745532,-0.179122 0.805551,-0.409609 1.124187,-1.390353 0.711835,-2.190348 z M 8.2634302,13.368745 C 7.8965536,12.688978 6.3395298,10.062981 3.0849592,9.9083729 c 0.011574,0.3697371 0.099042,0.7391691 0.2665028,1.0861221 0.00656,0.01363 0.013212,0.02706 0.020177,0.04038 l 1.401649,2.709913 H 1.6387566 C 0.73375326,13.744789 0,14.473379 0,15.372242 c 0,0.898862 0.73375326,1.627453 1.6387566,1.627453 h 5.8187126 c 0.5711066,0 1.1010396,-0.295281 1.3986788,-0.779347 0.2975366,-0.484167 0.3199672,-1.08724 0.058995,-1.591751 z" />
</svg>
