<?xml version="1.0" encoding="UTF-8" standalone="no"?>
<svg
   xmlns:dc="http://purl.org/dc/elements/1.1/"
   xmlns:cc="http://creativecommons.org/ns#"
   xmlns:rdf="http://www.w3.org/1999/02/22-rdf-syntax-ns#"
   xmlns:svg="http://www.w3.org/2000/svg"
   xmlns="http://www.w3.org/2000/svg"
   id="svg12"
   xml:space="preserve"
   viewBox="0 0 18 18"
   version="1.1"
   height="18"
   width="18">
<path
   d="M 8.8808594 0 C 8.5097684 -0.0007914825 8.1393448 0.016114295 7.7636719 0.05078125 L 7.703125 0.43359375 C 7.695635 0.48343955 7.6875 0.53553043 7.6875 0.58984375 C 7.6874648 1.2517346 8.2245116 1.7910156 8.8867188 1.7910156 C 9.5489261 1.7910156 10.087891 1.2517346 10.087891 0.58984375 C 10.087891 0.53820385 10.080066 0.48866578 10.072266 0.43945312 L 10.001953 0.056640625 C 9.6235725 0.02032035 9.2519503 0.0007914825 8.8808594 0 z M 7.1445312 0.12304688 C 6.7465032 0.17887281 6.3392639 0.24783905 5.9121094 0.34179688 C 5.5948126 0.41144737 5.2892087 0.54586455 5.0019531 0.7421875 C 4.8638833 0.83642673 4.7331845 0.94511273 4.6191406 1.0585938 L 0.57226562 4.9277344 C 0.090481165 5.4095188 0.050481645 6.1719688 0.47851562 6.7011719 C 0.70934724 6.9860354 1.0507023 7.1636332 1.4160156 7.1894531 C 1.7822436 7.215273 2.1447792 7.087175 2.40625 6.84375 L 4.6855469 4.8535156 L 4.6855469 16.349609 C 4.6855469 17.260061 5.4258025 18 6.3359375 18 C 7.2460725 18 7.9863281 17.260025 7.9863281 16.349609 L 7.9863281 12.896484 C 7.9863281 12.505668 8.2393567 12.175061 8.5878906 12.050781 L 8.5878906 11.095703 C 8.5878906 10.930019 8.7226715 10.794922 8.8886719 10.794922 C 9.0546723 10.794922 9.1875 10.930019 9.1875 11.095703 L 9.1875 12.050781 C 9.5359988 12.175061 9.7890625 12.505633 9.7890625 12.896484 L 9.7890625 16.349609 C 9.7890625 17.260061 10.529318 18 11.439453 18 C 12.349588 18 13.089844 17.260025 13.089844 16.349609 L 13.089844 4.8203125 L 15.587891 6.8378906 C 15.856538 7.0873308 16.219867 7.2149565 16.583984 7.1894531 C 16.949298 7.1636331 17.292606 6.9860354 17.523438 6.7011719 C 17.951823 6.1716522 17.910588 5.4099545 17.417969 4.9179688 L 13.173828 1.0761719 C 13.045643 0.94798679 12.904006 0.83375008 12.753906 0.734375 C 12.478646 0.5506806 12.182534 0.42165352 11.873047 0.35351562 C 11.439279 0.2580452 11.027249 0.18819791 10.625 0.13085938 L 10.664062 0.33984375 C 10.677893 0.42870095 10.689453 0.50759987 10.689453 0.58984375 C 10.689453 1.4804555 10.037904 2.2195128 9.1875 2.3632812 L 9.1875 2.6914062 C 9.1875 2.8570899 9.0527192 2.9921875 8.8867188 2.9921875 C 8.7207184 2.9921875 8.5878906 2.8570899 8.5878906 2.6914062 L 8.5878906 2.3632812 C 7.7374832 2.2195127 7.0859375 1.4804555 7.0859375 0.58984375 C 7.0859375 0.50520785 7.09738 0.42479786 7.109375 0.34375 L 7.1445312 0.12304688 z M 8.8886719 3.2910156 C 9.0546723 3.2910156 9.1875 3.4261131 9.1875 3.5917969 L 9.1875 4.1914062 C 9.1875 4.3570901 9.0546723 4.4921875 8.8886719 4.4921875 C 8.7226716 4.4921875 8.5878906 4.3570901 8.5878906 4.1914062 L 8.5878906 3.5917969 C 8.5878906 3.4261131 8.7226716 3.2910156 8.8886719 3.2910156 z M 10.087891 4.4921875 L 11.589844 4.4921875 C 11.755844 4.4921875 11.888672 4.627285 11.888672 4.7929688 L 11.888672 6.59375 C 11.888672 6.7594337 11.755844 6.8925781 11.589844 6.8925781 L 10.087891 6.8925781 C 9.9218904 6.8925781 9.7890625 6.7594337 9.7890625 6.59375 L 9.7890625 4.7929688 C 9.7890625 4.6272851 9.9218904 4.4921875 10.087891 4.4921875 z M 8.8886719 4.7929688 C 9.0546723 4.7929688 9.1875 4.9261132 9.1875 5.0917969 L 9.1875 5.6933594 C 9.1875 5.8590432 9.0546723 5.9921875 8.8886719 5.9921875 C 8.7226716 5.9921875 8.5878906 5.8590432 8.5878906 5.6933594 L 8.5878906 5.0917969 C 8.5878906 4.9261132 8.7226716 4.7929688 8.8886719 4.7929688 z M 10.388672 5.0917969 L 10.388672 6.2929688 L 11.289062 6.2929688 L 11.289062 5.0917969 L 10.388672 5.0917969 z M 8.8886719 6.2929688 C 9.0546723 6.2929688 9.1875 6.4280662 9.1875 6.59375 L 9.1875 7.1933594 C 9.1875 7.3590431 9.0546723 7.4941406 8.8886719 7.4941406 C 8.7226716 7.4941406 8.5878906 7.3590431 8.5878906 7.1933594 L 8.5878906 6.59375 C 8.5878906 6.4280662 8.7226716 6.2929688 8.8886719 6.2929688 z M 8.8886719 7.7949219 C 9.0546723 7.7949219 9.1875 7.9280662 9.1875 8.09375 L 9.1875 8.6953125 C 9.1875 8.8609962 9.0546723 8.9941406 8.8886719 8.9941406 C 8.7226716 8.9941406 8.5878906 8.8609962 8.5878906 8.6953125 L 8.5878906 8.09375 C 8.5878906 7.9280662 8.7226716 7.7949219 8.8886719 7.7949219 z M 8.8886719 9.2949219 C 9.0546723 9.2949219 9.1875 9.4300193 9.1875 9.5957031 L 9.1875 10.195312 C 9.1875 10.360997 9.0546723 10.496094 8.8886719 10.496094 C 8.7226716 10.496094 8.5878906 10.360996 8.5878906 10.195312 L 8.5878906 9.5957031 C 8.5878906 9.4300193 8.7226716 9.2949219 8.8886719 9.2949219 z "
   style="stroke-width:0.035177"
   id="path4" />
</svg>
