<?xml version="1.0" encoding="UTF-8" standalone="no"?>
<svg
   xmlns:dc="http://purl.org/dc/elements/1.1/"
   xmlns:cc="http://creativecommons.org/ns#"
   xmlns:rdf="http://www.w3.org/1999/02/22-rdf-syntax-ns#"
   xmlns:svg="http://www.w3.org/2000/svg"
   xmlns="http://www.w3.org/2000/svg"
   id="svg18"
   version="1.1"
   width="18"
   height="18">
  <path
     style="stroke-width:0.03600502"
     id="path6"
     d="m 6.7763534,2.5195507 c -0.017102,0 -0.034191,0.0045 -0.048593,0.013502 L 5.240725,3.5159477 c -0.025203,0.018002 -0.039592,0.043192 -0.039592,0.075596 -0.0036,0.032405 0.010802,0.061265 0.036005,0.075667 l 1.4870356,0.982895 c 0.014402,0.010802 0.032348,0.014416 0.050351,0.014416 0.018003,0 0.032419,-0.00361 0.050421,-0.014416 l 1.4870356,-0.982895 c 0.025203,-0.018002 0.039592,-0.043262 0.039592,-0.075667 0,-0.028804 -0.014388,-0.057594 -0.039592,-0.075596 L 6.8249461,2.5330526 c -0.014402,-0.009 -0.03149,-0.013502 -0.048593,-0.013502 z M 4.5458702,3.9948426 c -0.018003,0 -0.032419,0.00361 -0.050421,0.014416 L 3.0084133,4.9921537 c -0.025203,0.018003 -0.039591,0.043192 -0.039591,0.075597 0,0.032405 0.014388,0.057664 0.039591,0.075667 l 1.4870358,0.9828951 c 0.014402,0.010801 0.032419,0.014416 0.050421,0.014416 0.018002,0 0.032348,-0.00361 0.050351,-0.014416 L 6.0832566,5.1434169 c 0.025204,-0.018003 0.039591,-0.043262 0.039591,-0.075667 0,-0.028804 -0.014388,-0.057594 -0.039591,-0.075597 L 4.596221,4.0092586 C 4.581819,3.9984571 4.5638727,3.9948426 4.5458702,3.9948426 Z m 4.4592082,9.145e-4 c -0.017102,0 -0.034191,0.0045 -0.048593,0.013502 l -1.4870356,0.982895 c -0.028804,0.018003 -0.043178,0.046792 -0.043178,0.075596 0,0.028804 0.014388,0.057664 0.039591,0.075667 l 1.4869654,0.982895 c 0.014402,0.010801 0.032419,0.014416 0.050421,0.014416 0.018002,0 0.032418,-0.00361 0.050421,-0.014416 l 1.4870358,-0.982895 c 0.0252,-0.018002 0.03959,-0.043262 0.03959,-0.075667 0,-0.028804 -0.01439,-0.057594 -0.03959,-0.075596 L 9.0536712,4.009259 c -0.014402,-0.009 -0.03149,-0.013502 -0.048593,-0.013502 z M 6.7709386,5.4710489 c -0.018002,0 -0.032419,0.00361 -0.050421,0.014416 l -1.4869654,0.982895 c -0.025203,0.018003 -0.039592,0.043192 -0.039592,0.075597 0,0.032405 0.014388,0.057664 0.039592,0.075667 l 1.4869654,0.9828955 c 0.014402,0.0108 0.032419,0.01442 0.050421,0.01442 0.018002,0 0.032419,-0.0036 0.050421,-0.01442 L 7.5630491,7.1092776 8.3047386,6.6159666 c 0.025203,-0.018002 0.039662,-0.043192 0.039662,-0.075596 0,-0.032405 -0.014458,-0.054022 -0.039662,-0.068424 L 7.5630491,5.9787054 6.8213596,5.4854646 c -0.014402,-0.010801 -0.032419,-0.014416 -0.050421,-0.014416 z m -4.4520355,9.146e-4 c -0.017102,0 -0.034191,0.0045 -0.048593,0.013502 L 0.78334501,6.4683604 c -0.0252035,0.018003 -0.0396618,0.043192 -0.0396618,0.075597 0,0.032405 0.0108015,0.057664 0.036005,0.075667 l 1.48703569,0.982894 c 0.014402,0.0108 0.032419,0.01442 0.050421,0.01442 0.018003,0 0.032419,-0.0036 0.050421,-0.01442 L 3.8545316,6.6196236 c 0.025203,-0.018002 0.039591,-0.043262 0.039591,-0.075667 0,-0.032405 -0.014388,-0.057594 -0.039591,-0.075597 L 2.3675661,5.4854646 c -0.014402,-0.009 -0.031561,-0.013502 -0.048663,-0.013501 z m 8.9148999,0 c -0.0171,0 -0.03426,0.0045 -0.04866,0.013502 L 9.6981751,6.4683604 c -0.028804,0.018003 -0.043248,0.046793 -0.043248,0.075597 0,0.028804 0.014458,0.057664 0.039662,0.075667 l 1.4869649,0.982895 c 0.0144,0.0108 0.03242,0.01442 0.05042,0.01442 0.018,0 0.03242,-0.0036 0.05042,-0.01442 l 1.486966,-0.982895 c 0.0252,-0.018002 0.03966,-0.043262 0.03966,-0.075667 0,-0.032405 -0.01446,-0.057594 -0.03966,-0.075597 l -1.486964,-0.982895 c -0.0144,-0.009 -0.03149,-0.013502 -0.04859,-0.013502 z m -6.6893392,1.476206 c -0.017552,0 -0.034613,0.0045 -0.049015,0.013502 L 3.008413,7.9445664 c -0.025203,0.018 -0.039591,0.04319 -0.039591,0.0756 0,0.0324 0.014388,0.05766 0.039591,0.07567 l 1.4870358,0.982895 c 0.014402,0.0108 0.032419,0.01442 0.050421,0.01442 0.018002,0 0.032348,-0.0036 0.050351,-0.01442 l 1.4870356,-0.982895 c 0.025204,-0.018 0.039591,-0.04326 0.039591,-0.07567 0,-0.03241 -0.014388,-0.05759 -0.039591,-0.0756 L 4.596221,6.9616714 c -0.016202,-0.009 -0.034205,-0.013502 -0.051757,-0.013502 z m 4.4533715,0 c -0.017102,0 -0.034191,0.0045 -0.048593,0.013502 L 7.462277,7.9445664 c -0.025204,0.018 -0.039662,0.04319 -0.039662,0.0756 0,0.0324 0.014458,0.05766 0.039662,0.07567 l 1.4869653,0.982895 c 0.014402,0.0108 0.032419,0.01442 0.050421,0.01442 0.018002,0 0.032419,-0.0036 0.050421,-0.01442 L 10.53705,8.0958294 c 0.0252,-0.018 0.03966,-0.04326 0.03966,-0.07567 0,-0.03241 -0.01805,-0.05759 -0.04325,-0.0756 L 9.0464982,6.9616714 c -0.014402,-0.009 -0.03156,-0.013502 -0.048663,-0.013502 z m 4.4610367,0 c -0.0171,0 -0.03419,0.0045 -0.04859,0.013502 l -1.487035,0.9828949 c -0.0252,0.018 -0.04318,0.04679 -0.04318,0.0756 0,0.0288 0.01439,0.05766 0.03959,0.07567 l 1.487036,0.982895 c 0.0144,0.0108 0.03242,0.01442 0.05042,0.01442 0.018,0 0.03235,-0.0036 0.05035,-0.01442 L 14.9945,8.0958294 c 0.0252,-0.018 0.03959,-0.04326 0.03959,-0.07567 0,-0.03241 -0.01439,-0.05759 -0.03959,-0.0756 l -1.487035,-0.982888 c -0.0144,-0.009 -0.03149,-0.013502 -0.04859,-0.013502 z m -13.00899541,0.00288 c -0.006582,4.5e-4 -0.0131081,0.00157 -0.0194089,0.00337 -0.0252035,0.0072 -0.0467924,0.028804 -0.057594,0.054007 L 0.00558025,7.9878134 c -0.01440201,0.03961 1.404e-5,0.08276 0.03241856,0.104359 L 11.177968,15.466029 c 0.0144,0.0108 0.03242,0.01442 0.05042,0.01442 0.018,0 0.03242,-0.0036 0.05042,-0.01442 l 6.686105,-4.425032 c 0.0324,-0.0216 0.04323,-0.06477 0.02883,-0.100772 l -0.37088,-0.9829646 c -0.0108,-0.0252 -0.02879,-0.04321 -0.05759,-0.05401 -0.0252,-0.0072 -0.05399,-0.0036 -0.0756,0.01083 l -1.857915,1.2385166 c -0.0252,0.018 -0.03959,0.04321 -0.03959,0.07201 v 0.734517 L 15.39414,11.429878 c -0.0108,-0.0252 -0.02879,-0.04321 -0.05759,-0.05401 -0.0252,-0.0072 -0.05399,-0.0036 -0.0756,0.01076 l -1.857845,1.238586 c -0.0072,0.0036 -0.01081,0.0072 -0.01442,0.01442 l -0.0036,0.0036 c -0.0036,0.0036 -0.0072,0.0072 -0.0072,0.01083 0,0.0036 -0.0036,0.0036 -0.0036,0.0072 -0.0036,0.0036 -0.0036,0.0072 -0.0036,0.01442 v 0.0072 c 0,0.0072 -0.0036,0.0144 -0.0036,0.018 V 13.4354 l -0.19801,-0.529315 c -0.0108,-0.0252 -0.02886,-0.04321 -0.05766,-0.05401 -0.0252,-0.0072 -0.05399,-0.0036 -0.0756,0.01076 L 11.22839,14.069006 9.4208958,12.862837 c -0.021603,-0.0144 -0.050393,-0.01796 -0.075596,-0.01076 -0.025204,0.0072 -0.046793,0.0288 -0.057594,0.05401 l -0.1980282,0.529244 v -0.734516 c 0,-0.0288 -0.014388,-0.05761 -0.039592,-0.07201 L 7.1922409,11.390288 c -0.021603,-0.0144 -0.050463,-0.01803 -0.075667,-0.01083 -0.025203,0.0072 -0.046792,0.0288 -0.057594,0.05401 l -0.1980273,0.529244 v -0.734447 c 0,-0.0288 -0.014388,-0.05761 -0.039592,-0.07201 L 4.9635159,9.9176684 c -0.021603,-0.0144 -0.050393,-0.01803 -0.075596,-0.01083 -0.025204,0.0072 -0.046863,0.0288 -0.057664,0.05401 L 4.6322283,10.490164 V 9.7556484 c 0,-0.0288 -0.014388,-0.05761 -0.039592,-0.07201 l -1.8578468,-1.24576 c -0.021603,-0.0144 -0.050393,-0.01803 -0.075596,-0.01083 -0.025204,0.0072 -0.046792,0.0288 -0.057594,0.05401 l -0.1980276,0.529246 v -0.734446 c 0,-0.0288 -0.014458,-0.05761 -0.039662,-0.07201 L 0.50606412,6.9652571 c -0.0162023,-0.010801 -0.036441,-0.015555 -0.0561875,-0.014205 z M 6.774525,8.4198754 c -0.018002,0 -0.032348,0.0035 -0.050351,0.01435 l -1.4870354,0.98296 c -0.025204,0.018 -0.039591,0.04319 -0.039591,0.0756 0,0.03241 0.014388,0.06119 0.039591,0.0756 L 6.7241742,10.55135 c 0.014402,0.0108 0.032348,0.01442 0.050351,0.01442 0.018003,0 0.032419,-0.0036 0.050421,-0.01442 L 8.3119818,9.5683854 c 0.025203,-0.018 0.039592,-0.04319 0.039592,-0.0756 0,-0.0324 -0.014388,-0.05759 -0.039592,-0.0756 L 6.8249461,8.4342204 c -0.014402,-0.0108 -0.032419,-0.01435 -0.050421,-0.01435 z m 4.459278,0.0045 c -0.0171,0 -0.03426,0.0045 -0.04866,0.0135 l -1.4869659,0.982895 c -0.028804,0.018 -0.043248,0.04319 -0.043248,0.0756 0,0.0288 0.014458,0.05766 0.039662,0.07567 l 1.4869649,0.9828946 c 0.0144,0.0108 0.03242,0.01442 0.05042,0.01442 0.018,0 0.03242,-0.0036 0.05042,-0.01442 l 1.486966,-0.9828946 c 0.0252,-0.018 0.03966,-0.04326 0.03966,-0.07567 0,-0.0324 -0.01446,-0.05759 -0.03966,-0.0756 l -1.486966,-0.982895 c -0.0144,-0.009 -0.03149,-0.0135 -0.04859,-0.0135 z m 4.450207,0 c -0.0171,0 -0.03419,0.0045 -0.04859,0.0135 l -1.487036,0.982895 c -0.0252,0.018 -0.03959,0.04319 -0.03959,0.0756 0,0.0288 0.01439,0.05766 0.03959,0.07567 l 1.487036,0.9828946 c 0.0144,0.0108 0.03235,0.01442 0.05035,0.01442 0.018,0 0.03242,-0.0036 0.05042,-0.01442 l 1.487035,-0.9828946 c 0.0252,-0.018 0.03959,-0.04326 0.03959,-0.07567 0,-0.0324 -0.01439,-0.05759 -0.03959,-0.0756 l -1.490622,-0.982895 c -0.0144,-0.009 -0.03149,-0.0135 -0.04859,-0.0135 z m -6.6789316,1.47255 c -0.017102,0 -0.034191,0.0045 -0.048593,0.0135 L 7.4694498,10.893389 c -0.025204,0.018 -0.039592,0.04319 -0.039592,0.0756 0,0.0324 0.010801,0.05759 0.036005,0.0756 l 1.4869654,0.982965 c 0.014402,0.0108 0.032419,0.01442 0.050421,0.01442 0.018002,0 0.032418,-0.0036 0.050421,-0.01442 l 1.4870358,-0.982965 c 0.0252,-0.018 0.03959,-0.04319 0.03959,-0.0756 0,-0.0324 -0.01439,-0.05759 -0.03959,-0.0756 L 9.0536712,9.9104264 c -0.014402,-0.009 -0.03149,-0.0135 -0.048593,-0.0135 z m 4.4537936,0 c -0.0171,0 -0.03419,0.0045 -0.04859,0.0135 l -1.487035,0.9829636 c -0.0252,0.018 -0.03959,0.04319 -0.03959,0.0756 0,0.0324 0.01439,0.05759 0.03959,0.0756 l 1.487035,0.982965 c 0.0108,0.0108 0.02883,0.01442 0.04684,0.01442 0.018,0 0.03235,-0.0036 0.05035,-0.01442 l 1.487028,-0.98297 c 0.0252,-0.018 0.03959,-0.04319 0.03959,-0.0756 0,-0.0324 -0.01439,-0.05759 -0.03959,-0.0756 L 13.507465,9.9104194 c -0.0144,-0.009 -0.03149,-0.0135 -0.04859,-0.0135 z m -2.225069,1.4762056 c -0.0171,0 -0.03426,0.0045 -0.04866,0.0135 l -1.4869659,0.982964 c -0.025203,0.018 -0.039591,0.04319 -0.039591,0.0756 -0.0036,0.0288 0.010802,0.05759 0.036005,0.0756 l 1.4869649,0.982965 c 0.0144,0.0108 0.03242,0.01442 0.05042,0.01442 0.018,0 0.03242,-0.0036 0.05042,-0.01442 l 1.486966,-0.982965 c 0.0252,-0.018 0.03966,-0.04319 0.03966,-0.0756 0,-0.0288 -0.01446,-0.05759 -0.03966,-0.0756 L 11.282396,11.38663 c -0.0144,-0.009 -0.03149,-0.0135 -0.04859,-0.0135 z" />
</svg>
