<?xml version="1.0" encoding="UTF-8"?>
<svg width="18" height="18" version="1.1" viewBox="0 0 18 18" xmlns="http://www.w3.org/2000/svg">
 <g fill-rule="evenodd" stroke-width=".091285">
  <path d="m7.6534 1.1637c0.23614-0.39926 0.31784-0.76425 0.32296-1.1614h0.85478v2.7386l-2.5022 0.012226c0.19261-0.22036 0.24978-0.51297 0.28119-0.81931 0.48199-0.16154 0.7112-0.38478 1.0433-0.77003z"/>
  <path d="m9.1733 0.0025532h2.7385v2.7386h-2.7385z"/>
  <path d="m12.255 0.0025532h2.7386v2.7386h-2.7386z"/>
  <path d="m4.4885 3.8347 0.04748-0.20369 0.29936 0.010375c0.21532-0.020407 0.35338-0.063522 0.67786-0.18242l0.24353-0.13777-0.00745 2.472h-2.7386l0.00576-0.71974c0.11527-0.12735 1.0178-0.33122 1.373-1.0165z"/>
  <path d="m6.0924 3.0551h2.7386v2.7386h-2.7386z"/>
  <path d="m9.1742 3.0551h2.7385v2.7386h-2.7385z"/>
  <path d="m12.255 3.0551h2.7386v2.7386h-2.7386z"/>
  <path d="m3.0116 6.1077h2.7386v2.7386h-2.7386z"/>
  <path d="m6.0925 6.1077h2.7386v2.7386h-2.7386z"/>
  <path d="m9.1743 6.1077h2.7385v2.7386h-2.7385z"/>
  <path d="m12.255 6.1077h2.7386v2.7386h-2.7386z"/>
  <path d="m3.0113 9.1594h2.7386v2.7386h-2.7386z"/>
  <path d="m6.0921 9.1594h2.7386v2.7386h-2.7386z"/>
  <path d="m9.1739 9.1594h2.7385v2.7386h-2.7385z"/>
  <path d="m12.255 9.1594h2.7386v2.7386h-2.7386z"/>
  <path d="m3.0115 12.212h2.7386v2.7386h-2.7386z"/>
  <path d="m6.0923 12.212h2.7386v2.7386h-2.7386z"/>
  <path d="m9.1741 12.212h2.7385v2.7386h-2.7385z"/>
  <path d="m12.255 12.212h2.7386v2.7386h-2.7386z"/>
  <path d="m3.0116 15.264h2.7386v2.7386h-2.7386z"/>
  <path d="m6.0925 15.264h2.7386v2.7386h-2.7386z"/>
  <path d="m9.1743 15.264h2.7385v2.7386h-2.7385z"/>
  <path d="m12.255 15.264h2.7386v2.7386h-2.7386z"/>
 </g>
 <path d="m3.1403 9.195h11.721v8.6774h-11.721z" fill="#feffff" stroke="#000" stroke-width=".19133"/>
 <path d="m3.6031 9.7189h10.783v7.5924h-10.783z" stroke="#000" stroke-width=".17165"/>
 <g transform="translate(-391.95 -494.29)" display="none">
  <g transform="translate(-209.26 59.488)" fill-rule="evenodd">
   <g transform="translate(143.33 -45.457)">
    <g transform="translate(0 -8.4104e-6)">
     <path d="m264.94 270.81h30v30h-30z"/>
     <path d="m298.69 270.81h30v30h-30z"/>
     <path d="m332.45 270.81h30v30h-30z"/>
     <path d="m366.2 270.81h30v30h-30z"/>
    </g>
    <g transform="translate(.0019836 33.438)">
     <path d="m264.94 270.81h30v30h-30z"/>
     <path d="m298.69 270.81h30v30h-30z"/>
     <path d="m332.45 270.81h30v30h-30z"/>
     <path d="m366.2 270.81h30v30h-30z"/>
    </g>
    <g transform="translate(.0039673 66.876)">
     <path d="m264.94 270.81h30v30h-30z"/>
     <path d="m298.69 270.81h30v30h-30z"/>
     <path d="m332.45 270.81h30v30h-30z"/>
     <path d="m366.2 270.81h30v30h-30z"/>
    </g>
   </g>
   <g transform="translate(143.33 54.854)">
    <g transform="translate(0 -8.4104e-6)">
     <path d="m264.94 270.81h30v30h-30z"/>
     <path d="m298.69 270.81h30v30h-30z"/>
     <path d="m332.45 270.81h30v30h-30z"/>
     <path d="m366.2 270.81h30v30h-30z"/>
    </g>
    <g transform="translate(.0019836 33.438)">
     <path d="m264.94 270.81h30v30h-30z"/>
     <path d="m298.69 270.81h30v30h-30z"/>
     <path d="m332.45 270.81h30v30h-30z"/>
     <path d="m366.2 270.81h30v30h-30z"/>
    </g>
    <g transform="translate(.0039673 66.876)">
     <path d="m264.94 270.81h30v30h-30z"/>
     <path d="m298.69 270.81h30v30h-30z"/>
     <path d="m332.45 270.81h30v30h-30z"/>
     <path d="m366.2 270.81h30v30h-30z"/>
    </g>
   </g>
  </g>
 </g>
</svg>
