<?xml version="1.0" encoding="UTF-8" standalone="no"?>
<svg
   xmlns:dc="http://purl.org/dc/elements/1.1/"
   xmlns:cc="http://creativecommons.org/ns#"
   xmlns:rdf="http://www.w3.org/1999/02/22-rdf-syntax-ns#"
   xmlns:svg="http://www.w3.org/2000/svg"
   xmlns="http://www.w3.org/2000/svg"
   height="18"
   width="18"
   fill="#000000"
   version="1.1"
   x="0px"
   y="0px"
   viewBox="0 0 18 18"
   xml:space="preserve"
   id="svg18"><metadata
     id="metadata24"><rdf:RDF><cc:Work
         rdf:about=""><dc:format>image/svg+xml</dc:format><dc:type
           rdf:resource="http://purl.org/dc/dcmitype/StillImage" /><dc:title></dc:title></cc:Work></rdf:RDF></metadata><defs
     id="defs22" /><path
     d="M 17.410147,6.3663158 H 14.784355 L 10.940803,2.6715789 C 10.997886,2.4821053 11.054968,2.2736842 11.054968,2.0463158 11.054968,0.90947368 10.141648,0 8.9999998,0 7.8583508,0 6.9450316,0.90947368 6.9450316,2.0463158 c 0,0.2273684 0.038055,0.4357895 0.1141648,0.6252631 L 3.2156448,6.3663158 H 0.58985199 C 0.26638477,6.3663158 0,6.6315789 0,6.9536842 V 17.412632 C 0,17.734737 0.26638477,18 0.58985199,18 H 17.410147 C 17.733614,18 18,17.734737 18,17.412632 V 6.9536842 C 18,6.6126316 17.733614,6.3663158 17.410147,6.3663158 Z M 8.9999998,1.1747368 c 0.4756871,0 0.8752642,0.3978948 0.8752642,0.871579 0,0.4736842 -0.3995771,0.8715789 -0.8752642,0.8715789 -0.4756871,0 -0.8752643,-0.3978947 -0.8752643,-0.8715789 0,-0.4736842 0.3995772,-0.871579 0.8752643,-0.871579 z M 11.302325,13.642105 c 0.22833,0.227369 0.22833,0.606316 0,0.833684 -0.114164,0.113685 -0.266384,0.170527 -0.418604,0.170527 -0.15222,0 -0.30444,-0.05684 -0.418605,-0.170527 L 8.9999998,13.016842 7.515856,14.494737 c -0.1141649,0.113684 -0.2663847,0.170526 -0.4186046,0.170526 -0.1522198,0 -0.3044398,-0.05684 -0.4186047,-0.170526 -0.2283297,-0.227369 -0.2283297,-0.606316 0,-0.833684 L 8.1627905,12.183158 6.6976743,10.705263 c -0.2283298,-0.227368 -0.2283298,-0.606316 0,-0.8336841 0.2283297,-0.2273684 0.6088794,-0.2273684 0.8372092,0 L 9.0190272,11.349474 10.503171,9.8715789 c 0.22833,-0.2273684 0.608879,-0.2273684 0.83721,0 0.228329,0.2273681 0.228329,0.6063161 0,0.8336841 L 9.8562365,12.183158 Z M 4.9281182,6.3663158 7.7441858,3.6568421 c 0.3424948,0.2652632 0.7801269,0.4357895 1.255814,0.4357895 0.4756871,0 0.9133191,-0.1705263 1.2558142,-0.4357895 l 2.816067,2.7094737 z"
     id="path12"
     style="stroke-width:0.189874" /></svg>
