<?xml version="1.0" encoding="UTF-8" standalone="no"?>
<svg
   xmlns:dc="http://purl.org/dc/elements/1.1/"
   xmlns:cc="http://creativecommons.org/ns#"
   xmlns:rdf="http://www.w3.org/1999/02/22-rdf-syntax-ns#"
   xmlns:svg="http://www.w3.org/2000/svg"
   xmlns="http://www.w3.org/2000/svg"
   width="18"
   height="18"
   version="1.1"
   viewBox="0 0 18 18"
   id="svg6">
  <metadata
     id="metadata8">
    <rdf:RDF>
      <cc:Work
         rdf:about="">
        <dc:format>image/svg+xml</dc:format>
        <dc:type
           rdf:resource="http://purl.org/dc/dcmitype/StillImage" />
        <dc:title></dc:title>
      </cc:Work>
    </rdf:RDF>
  </metadata>
  <defs
     id="defs6" />
  <path
     id="beauty"
     d="M 4.1412131,0 C 2.2915443,0 0.4677613,1.4942951 0.4677613,2.5714448 c 0,0.8841199 0.9225773,1.2485793 1.4693807,1.1020641 1.1094927,-0.2972934 0.7346904,-2.2040711 2.9387614,-2.2040711 1.0989212,0 2.7230459,0.67389 4.4081993,1.8367545 C 7.8147218,0.71606168 6.3453415,5.7138529e-5 4.1412131,5.7138529e-5 Z m 5.1428896,4.4081993 c -0.7346902,0 -2.2040711,0.7346905 -4.4081993,0.7346905 -2.204071,0 -3.6836232,-0.3163565 -4.40819923,-0.7346905 C -0.26698619,5.4615204 -0.08331647,7.3469608 0.65137959,8.0816515 0.65137959,6.6122707 1.5008706,5.87758 1.937102,5.87758 1.6869404,6.7517572 1.7638151,8.1202228 2.6717924,8.8163418 2.3433788,7.6896486 3.0042344,6.5636416 3.7738565,6.244897 3.6608101,7.3469608 3.6200898,7.8082211 4.5085468,9 c 0,-0.9780634 0.199247,-2.0204129 1.1020644,-2.755103 0,0.7346901 0.3673505,1.8367545 1.1020637,2.5714448 C 6.5289997,7.640563 6.7959271,6.6122707 7.4473651,5.87758 7.4758777,6.8474723 7.7516244,7.4519332 8.7330878,8.0816515 8.4414517,6.6972425 8.5494125,5.4723776 9.2841084,4.4081993 Z"
     style="fill:#000000;fill-opacity:1;stroke-width:0.571432" />
  <path
     style="stroke-width:0.583324"
     d="M 9.749981,9 7.5000393,10.499962 8.2500198,13.012399 9.749981,11.999922 V 18 h 6.000078 V 11.999922 L 17.250021,13.012399 18,10.499962 15.750059,9 h -1.499961 c 0,0.749981 -0.749981,1.499962 -1.499962,1.499962 -0.74998,0 -1.49996,-0.749981 -1.49996,-1.499962 z"
     id="clothes" />
</svg>
