<?xml version="1.0" encoding="UTF-8" standalone="no"?>
<svg
   viewBox="0 0 18 18"
   height="18"
   width="18">
  <path
   d="m 3.5351203,0 c -0.664578,0 -1.371416,0.71533053 -1.371416,1.3846154 v 8.3076923 c 0,0.6692863 0.7085114,1.3846153 1.371416,1.3846153 H 14.506448 c 0.662904,0 1.371416,-0.715329 1.371416,-1.3846153 V 1.3846154 C 15.877864,0.71530989 15.169352,0 14.506448,0 Z m 0,1.3846154 H 14.506448 V 9.6923077 H 3.5351203 Z M 2.1637043,12.461538 c -0.3438503,0 -0.4414619,0.204525 -0.6133871,0.551683 L 0.05836661,17.348257 C -0.1971269,17.694209 0.44843805,18 0.79228843,18 H 17.24928 c 0.343851,0 0.849407,-0.346591 0.733922,-0.651743 l -1.534807,-4.378304 c -0.171925,-0.303767 -0.22668,-0.508415 -0.570531,-0.508415 z" /></svg>
