<?xml version="1.0" encoding="UTF-8"?>
<svg width="18" height="18" version="1.1" viewBox="0 0 18 18" xmlns="http://www.w3.org/2000/svg">
 <path d="m8.998 0.013672a0.65465 0.70325 0 0 0-0.6543 0.70313 0.65465 0.70325 0 0 0 0.027344 0.20312 2.214 2.5349 0 0 0-1.5859 2.377h-0.0078124v13.619h4.4375v-13.619h-0.003906a2.214 2.5349 0 0 0-1.5859-2.377 0.65465 0.70325 0 0 0 0.027344-0.20312 0.65465 0.70325 0 0 0-0.6543-0.70313zm-2.9902 17.141v0.001953a0.44811 0.40273 0 0 0-0.43164 0.40039 0.44811 0.40273 0 0 0 0.44922 0.40234h5.9551a0.44811 0.40273 0 0 0 0.43945-0.40234 0.44811 0.40273 0 0 0-0.43945-0.40234h-5.9727z" stroke="#000" stroke-width=".06679"/>
</svg>
