<?xml version="1.0" encoding="UTF-8"?>
<svg width="18" height="18" enable-background="new 0 0 100 100" fill="#000000" version="1.0" viewBox="0 0 18 18" xml:space="preserve" xmlns="http://www.w3.org/2000/svg" xmlns:osb="http://www.openswatchbook.org/uri/2009/osb"><path d="m15.799 2.9766c-0.19438-0.03247-0.37502 0.20118-0.37502 0.20118-0.47942 0.39676-1.0758 0.56286-1.3985 1.1602-0.16146 0.23971-0.72824 0.97983-0.80668 1.5118-0.06704 0.45499-0.2179 0.75016-0.25978 0.82621-0.0074-0.00699-0.01173-0.011729-0.01173-0.011729s0.01124 0.042534-0.03906 0.044923c-0.05033 0.00257-0.06118 0.02004-0.07422 0.052736-0.10672 0-0.04985 0.078949-0.09375 0.070314-0.02167-0.00431-0.02595 5.119e-4 -0.02537 0.00585a3.7472 3.9526 75.001 0 0-4.4983-1.8712 3.7472 3.9526 75.001 0 0-2.9298 4.2463c-1.912e-4 -0.00164-0.00585-0.031252-0.00585-0.031252s-0.056018-0.00557-0.080081 0.029306c-0.023888 0.034719-0.047263-0.058268-0.099614 0.033207-0.015238 0.017454-0.069282-0.058403-0.12696 0.03711-0.016162 0.02041-0.071496-0.036131-0.083988 0.041017-0.1284-0.074203-0.95229-0.55493-1.2774-0.83597-0.35323-0.30528-0.95055-0.88398-2.4415-0.79691-0.64969 0.021857-0.93661-0.083037-1.002-0.074223-0.065391 0.00865-0.52276 0.80565 0.41017 1.5294 0.16568 0.14401 0.3534 0.41084-0.095707 1.0997-0.44911 0.68882-0.12802 1.2869-0.080082 1.4005 0.047942 0.11333 0.08323 1.2065 0.052736 1.3985-0.030492 0.19195 0.15224 0.32626 0.20899 0.36134 0.05676 0.03508 0.81249 0.41053 0.92582 0.65042 0.11333 0.23989 0.4489 1.063 0.71488 0.96293 0.24412-0.09203 2.2539-0.67609 2.8966-3.5509 0.028845 0.10194 0.07293 0.25212 0.095707 0.27931 0.0349 0.04151 0.096496 0.08957 0.2754 0.01758 0 0-0.14413-0.12081-0.017578-0.64651 0 0 0.20425 0.58135 0.90629 0.47463-3.565e-4 1.72e-4 -0.55718-0.20494-0.62698-0.93949-0.013545-0.02047-0.020317-0.04005-0.033207-0.06055a3.7472 3.9526 75.001 0 0 4.3537 1.6134 3.7472 3.9526 75.001 0 0 2.965-3.7541c-4.97e-4 0.019609 0.0058 0.11914 0.0058 0.11914l0.06836 0.074223c0.11793 0.010836 0.30666-0.046878 0.30666-0.046878-0.10048-0.10911-0.09375-0.42775-0.09375-0.42775s0.13371 0.29085 0.21876 0.38674c0.08504 0.096068 0.33655 0.2262 0.53713 0.30665 0.12215-0.043532 0.16407-0.16407 0.16407-0.16407-0.18093-0.052348-0.28461-0.1409-0.32814-0.2129-0.04353-0.072004-0.32316-0.44537-0.35548-0.49221 0.01194 0.00865 0.01952 0.013668 0.01952 0.013668 1.0812 0.96362 2.4226 0.85068 3.2248 0.91607 0.80215 0.065391 1.2212 0.0522 1.086-0.18751-0.13519-0.23989-0.11215-0.49795-0.10352-0.55471 0.0088-0.056577 0.22984-0.44044-0.42775-1.0508-0.65741-0.61038-0.14454-1.3731-0.14454-1.3731 0.60598-1.6394-0.8574-1.7577-1.3067-2.6427-0.06213-0.088306-0.12858-0.12785-0.19337-0.13868zm-2.838 4.4455c0.0088 0.028352 0.01749 0.054072 0.02537 0.082036a3.7472 3.9526 75.001 0 0-0.02537-0.082036zm0.12501 0.5469c0.01074 0.074017 0.0099 0.081137 0.01564 0.14454a3.7472 3.9526 75.001 0 0-0.01564-0.14454zm-7.555 2.1036a3.7472 3.9526 75.001 0 0 0.029306 0.07031c-0.010928-0.02478-0.019209-0.04597-0.029306-0.07031z" fill="#000300" stroke-width=".18368"/></svg>
