<?xml version="1.0" encoding="UTF-8"?>
<svg width="9.5036" height="8.5" version="1.1" viewBox="0 0 9.5036 8.5" xmlns="http://www.w3.org/2000/svg">
 <title>grocery-11.svg</title>
 <rect x="-4" y="-4.5" width="17" height="17" fill="none"/>
 <path d="m8.75 3.4424e-5c-0.0036-1e-4 -0.3176-0.0058-0.6309 0.1875-0.315 0.1944-0.6191 0.6138-0.6191 1.3125h-7.5l0.75 3.5c0.1071 0.5 0.75 0.5 0.75 0.5h6s-0.0027 0.2466-0.1523 0.4961-0.4171 0.5039-1.0977 0.5039h-5.25c-0.3381-0.0048-0.3381 0.5048 0 0.5h5.25c0.8194 0 1.302-0.3705 1.5273-0.7461 0.2254-0.3755 0.2227-0.7539 0.2227-0.7539v-4c0-0.567 0.1959-0.7725 0.3809-0.8867s0.3652-0.1133 0.3652-0.1133h0.0039 0.5c0.3381 0.0048 0.3381-0.5048 0-0.5h-0.4961zm-2.5 7c-0.4142 0-0.75 0.3358-0.75 0.75s0.3358 0.75 0.75 0.75 0.75-0.3358 0.75-0.75-0.3358-0.75-0.75-0.75zm-4 0c-0.4142 0-0.75 0.3358-0.75 0.75s0.3358 0.75 0.75 0.75 0.75-0.3358 0.75-0.75-0.3358-0.75-0.75-0.75z" fill="rgba(255,255,255,0.25)" stroke="rgba(255,255,255,0.25)" stroke-linejoin="round" stroke-width="2"/>
</svg>
