<?xml version="1.0" encoding="UTF-8" standalone="no"?>
<svg viewBox="0 0 18 18" height="18" width="18">
  <path
     d="m 16.572711,0.9504306 c -0.0068,-1.894e-4 -0.601542,-0.010985 -1.19494,0.3551295 -0.596618,0.3681983 -1.17259,1.1625512 -1.17259,2.4859059 H 0 l 1.4205181,6.629085 c 0.2028499,0.947012 1.420518,0.947012 1.420518,0.947012 H 14.205181 c 0,0 -0.0051,0.467066 -0.28846,0.939625 -0.283346,0.472559 -0.789998,0.954399 -2.07907,0.954399 H 1.8940241 c -0.6403696,-0.0091 -0.6403696,0.956103 0,0.947012 h 9.9436269 c 1.551963,0 2.466019,-0.701736 2.892743,-1.413132 0.426913,-0.711206 0.421799,-1.427904 0.421799,-1.427904 V 3.791466 c 0,-1.0739117 0.371039,-1.4631336 0.721434,-1.6794312 0.350394,-0.2162968 0.691697,-0.2145929 0.691697,-0.2145929 h 0.954399 c 0.640369,0.00909 0.640369,-0.9561026 0,-0.9470113 h -0.939626 z m -4.73506,13.2581684 c -0.784505,0 -1.420518,0.636013 -1.420518,1.420518 0,0.784505 0.636013,1.420518 1.420518,1.420518 0.784504,0 1.420518,-0.636013 1.420518,-1.420518 0,-0.784505 -0.636014,-1.420518 -1.420518,-1.420518 z m -7.5760968,0 c -0.7845048,0 -1.4205181,0.636013 -1.4205181,1.420518 0,0.784505 0.6360133,1.420518 1.4205181,1.420518 0.7845048,0 1.4205181,-0.636013 1.4205181,-1.420518 0,-0.784505 -0.6360133,-1.420518 -1.4205181,-1.420518 z" />
</svg>
