<?xml version="1.0" encoding="UTF-8"?>
<svg width="18" height="18" version="1.1" viewBox="0 0 129.6 129.6" xmlns="http://www.w3.org/2000/svg" xmlns:cc="http://creativecommons.org/ns#" xmlns:dc="http://purl.org/dc/elements/1.1/" xmlns:rdf="http://www.w3.org/1999/02/22-rdf-syntax-ns#">
 <title>Copy/Clone Icon</title>
 <g transform="translate(0,-924.36)">
  <g transform="matrix(.99829 0 0 .99829 -101.01 570.97)" fill="#333">
   <path d="m134.94 354c-3.324 0-6 2.676-6 6v96c0 3.324 2.676 6 6 6h82c3.324 0 6-2.676 6-6v-62h-40c-3.324 0-6-2.676-6-6v-34z"/>
   <path d="m113.66 374.22c-3.324 0-6 2.676-6 6v96c0 3.324 2.676 6 6 6h82c3.324 0 6-2.676 6-6v-7h-73c-3.324 0-6-2.676-6-6v-89z"/>
   <path d="m180.94 354v30c0 3.324 2.676 6 6 6h36z"/>
  </g>
 </g>
 <metadata>
  <rdf:RDF>
   <cc:Work>
    <dc:format>image/svg+xml</dc:format>
    <dc:type rdf:resource="http://purl.org/dc/dcmitype/StillImage"/>
    <cc:license rdf:resource="http://creativecommons.org/publicdomain/zero/1.0/"/>
    <dc:publisher>
     <cc:Agent rdf:about="http://openclipart.org/">
      <dc:title>Openclipart</dc:title>
     </cc:Agent>
    </dc:publisher>
    <dc:title>Copy/Clone Icon</dc:title>
    <dc:date>2012-05-11T12:49:15</dc:date>
    <dc:description>A monochrome copy / clone icon</dc:description>
    <dc:source>https://openclipart.org/detail/169987/copy--clone-icon-by-ben</dc:source>
    <dc:creator>
     <cc:Agent>
      <dc:title>ben</dc:title>
     </cc:Agent>
    </dc:creator>
    <dc:subject>
     <rdf:Bag>
      <rdf:li>clone</rdf:li>
      <rdf:li>copy</rdf:li>
      <rdf:li>duplicate</rdf:li>
      <rdf:li>gray</rdf:li>
      <rdf:li>icon</rdf:li>
      <rdf:li>monochrome</rdf:li>
     </rdf:Bag>
    </dc:subject>
   </cc:Work>
   <cc:License rdf:about="http://creativecommons.org/publicdomain/zero/1.0/">
    <cc:permits rdf:resource="http://creativecommons.org/ns#Reproduction"/>
    <cc:permits rdf:resource="http://creativecommons.org/ns#Distribution"/>
    <cc:permits rdf:resource="http://creativecommons.org/ns#DerivativeWorks"/>
   </cc:License>
  </rdf:RDF>
 </metadata>
</svg>
