<?xml version="1.0" encoding="UTF-8" standalone="no"?>
<svg
   xmlns:dc="http://purl.org/dc/elements/1.1/"
   xmlns:cc="http://creativecommons.org/ns#"
   xmlns:rdf="http://www.w3.org/1999/02/22-rdf-syntax-ns#"
   xmlns:svg="http://www.w3.org/2000/svg"
   xmlns="http://www.w3.org/2000/svg"
   id="svg16"
   viewBox="0 0 18 18"
   version="1.1"
   height="18"
   width="18">
  <path
     d="M 4.7377794,0 C 4.2711811,0 3.8954198,0.37576134 3.8954198,0.84235965 V 14.318136 c 0,0.466599 0.3757613,0.842359 0.8423596,0.842359 H 16.250027 c 0.466599,0 0.840382,-0.37576 0.840382,-0.842359 V 5.615731 h -5.613752 c -0.466599,0 -0.84236,-0.3757614 -0.84236,-0.8423597 V 0 Z M 11.19587,0 v 4.2117982 c 0,0.4665983 0.375762,0.8423597 0.84236,0.8423597 h 5.052179 z M 1.7519507,2.8395034 c -0.4665983,0 -0.8423597,0.3757613 -0.8423597,0.8423597 V 17.157641 C 0.909591,17.624239 1.2853524,18 1.7519507,18 H 13.262221 c 0.466599,0 0.842361,-0.375761 0.842361,-0.842359 V 16.174887 H 3.8578498 c -0.4665983,0 -0.8423598,-0.375761 -0.8423598,-0.84236 V 2.8395034 Z"
     style="fill:#000000;fill-opacity:1;stroke-width:0.140372"
     id="path4" />
</svg>
