<?xml version="1.0" encoding="UTF-8"?>
<svg width="18" height="18" version="1.1" viewBox="0 0 18 18" xml:space="preserve" xmlns="http://www.w3.org/2000/svg"><path d="m5.7076 10.73c-0.37323 0.0232-0.60717 0.33711-0.52691 0.72103 0.083333 0.399 0.47444 0.72256 0.87343 0.72256 0.35011 0 0.58997-0.24908 0.58723-0.57961-0.073067 0.16001-0.23288 0.26545-0.43951 0.26545-0.32817 0-0.64977-0.266-0.7184-0.59413-0.0492-0.23565 0.045333-0.43923 0.22416-0.53529m6.5845 0c0.17877 0.09613 0.27337 0.29964 0.22412 0.53529-0.06853 0.32813-0.39012 0.59413-0.71831 0.59413-0.20665 0-0.36652-0.10547-0.43956-0.26545-0.0027 0.33053 0.23712 0.57961 0.58721 0.57961 0.39903 0 0.79011-0.32356 0.87349-0.72256 0.08027-0.38392-0.15368-0.69783-0.52696-0.72103m0.0316-0.87777c-0.79531 0-1.5747 0.64469-1.7408 1.4399-0.13699 0.65537 0.18529 1.2084 0.74799 1.3827-0.33969-0.21373-0.51419-0.62377-0.4158-1.0948 0.14449-0.69128 0.82196-1.2516 1.5132-1.2516 0.61908 0 1.0392 0.44951 1.0164 1.0399 0.0067-0.0252 0.012-0.05067 0.018-0.07627 0.16615-0.79524-0.34379-1.4399-1.139-1.4399m-6.6477 0c-0.79528 0-1.3052 0.64469-1.1391 1.4399 0.00533 0.0256 0.012 0.05107 0.018 0.07627-0.0228-0.59044 0.39731-1.0399 1.0164-1.0399 0.69131 0 1.3687 0.56035 1.5132 1.2516 0.0984 0.47101-0.076 0.88105-0.41577 1.0948 0.56269-0.17435 0.88495-0.72736 0.74805-1.3827-0.16621-0.79524-0.94555-1.4399-1.7408-1.4399m0.0316-3.3365c-0.17877-0.096133-0.27335-0.29971-0.22416-0.53529 0.068667-0.32819 0.39023-0.59419 0.7184-0.59419 0.20663 0 0.36649 0.10547 0.43951 0.26544 0.00267-0.33055-0.23712-0.57955-0.58723-0.57955-0.39899 0-0.79009 0.32347-0.87343 0.72247-0.080267 0.38399 0.15368 0.69789 0.52691 0.72112m6.5845 0c0.37328-0.0232 0.60724-0.33713 0.52696-0.72112-0.08333-0.399-0.47447-0.72247-0.87349-0.72247-0.35009 0-0.58993 0.249-0.58721 0.57955 0.07307-0.15997 0.23291-0.26544 0.43956-0.26544 0.32819 0 0.64975 0.266 0.71831 0.59419 0.0492 0.23559-0.04533 0.43915-0.22412 0.53529m0.0316 0.87777c0.79524 0 1.3052-0.64472 1.139-1.44-0.0053-0.0256-0.01067-0.051067-0.018-0.076267 0.0228 0.59041-0.39736 1.0399-1.0164 1.0399-0.69125 0-1.3687-0.56041-1.5132-1.2517-0.0984-0.47095 0.07613-0.88107 0.4158-1.0947-0.56269 0.17429-0.88497 0.72733-0.74799 1.3827 0.16607 0.79524 0.94548 1.44 1.7408 1.44m-6.6477 0c0.79524 0 1.5746-0.64472 1.7408-1.44 0.13689-0.65535-0.18536-1.2084-0.74805-1.3827 0.33975 0.21363 0.51415 0.62375 0.41577 1.0947-0.14447 0.69125-0.82191 1.2517-1.5132 1.2517-0.61911 0-1.0392-0.44953-1.0164-1.0399-0.00667 0.0252-0.012 0.050667-0.018 0.076267-0.16615 0.79524 0.34381 1.44 1.1391 1.44m2.1142 7.7408c0.017467-0.60197 0.95141-0.67999 2.2841-0.50221-1.2063-0.55111-2.983-0.18728-2.2841 0.50221m-4.9247-7.3438c0.60195 0.017467 0.67999 0.95141 0.50216 2.284 0.55113-1.2062 0.18731-2.9829-0.50216-2.284m12.269 2.4191c-0.60197-0.017467-0.68001-0.95139-0.50221-2.284-0.55105 1.2062-0.18737 2.9829 0.50221 2.284m-4.9247-7.3438c-0.01747 0.60193-0.95152 0.67997-2.2841 0.50217 1.2063 0.55108 2.983 0.18731 2.2841-0.50217m7.2824 6.4972c-0.0628 0.26205-0.1594 0.42999-0.26785 0.42999-0.18917 0-0.34257-0.51139-0.34257-1.1423 0-0.12693 0.0067-0.24893 0.0176-0.363-0.04667 0.19535-0.0748 0.44292-0.0748 0.71225 0 0.63091 0.15336 1.1423 0.34261 1.1423 0.15116 0 0.27945-0.3264 0.32493-0.77931m-8.8549 8.129c-0.26208-0.0628-0.43004-0.15943-0.43004-0.26791 0-0.18921 0.51143-0.3426 1.1423-0.3426 0.12693 0 0.24891 0.0067 0.36297 0.01773-0.19527-0.0468-0.44283-0.0748-0.71225-0.0748-0.63088 0-1.1423 0.15339-1.1423 0.34264 0 0.15111 0.32636 0.27943 0.77932 0.32496m-8.129-8.855c0.0628-0.26211 0.15943-0.43001 0.26785-0.43001 0.18921 0 0.3426 0.51139 0.3426 1.1423 0 0.12693-0.00667 0.24897-0.0176 0.36295 0.0468-0.19529 0.0748-0.44285 0.0748-0.71228 0-0.63088-0.1534-1.1423-0.34261-1.1423-0.15113 0-0.27943 0.3264-0.32493 0.77936m8.8549-8.129c0.26205 0.0628 0.43004 0.15943 0.43004 0.26781 0 0.18921-0.51143 0.34264-1.1423 0.34264-0.12693 0-0.24892-0.00667-0.36295-0.017733 0.19532 0.0468 0.44292 0.0748 0.71228 0.0748 0.63085 0 1.1423-0.15336 1.1423-0.3426 0-0.15117-0.32643-0.27947-0.77941-0.32495m0.5372 2.058c1.5685 0.21751 2.9577 0.99515 3.9597 2.1242-0.17219-0.44787-0.43555-0.79063-0.75812-1.065l0.46564-0.46567c-0.27729-0.4402-0.36904-0.82836-0.19969-0.99773 0.25708-0.25705 1.0185 0.0876 1.7008 0.76979 0.6822 0.68217 1.0268 1.4436 0.76976 1.7007-0.16937 0.16935-0.55759 0.0776-0.99775-0.19972l-0.65488 0.65484c0.65145 0.86203 1.0929 1.8915 1.2484 3.0124h1.0868c-0.06373 0.67484 0.02533 1.2595 0.20949 1.5485-0.03027-0.20045-0.0468-0.41928-0.0468-0.6484 0-0.96477 0.29467-1.7469 0.65823-1.7469 0.3636 0 0.65836 0.78208 0.65836 1.7469 0 0.96479-0.29476 1.7469-0.65836 1.7469-0.23943 0-0.44903-0.33933-0.56424-0.84672h-1.3434c-0.21751 1.5684-0.99513 2.9577-2.1242 3.9597 0.44795-0.17219 0.79068-0.43552 1.065-0.75808l0.46564 0.46565c0.44016-0.27735 0.82837-0.36915 0.99775-0.19977 0.25701 0.25707-0.0876 1.0186-0.76976 1.7008-0.68221 0.68223-1.4437 1.0268-1.7008 0.76972-0.16935-0.16931-0.0776-0.55755 0.19969-0.99777l-0.65479-0.65479c-0.86212 0.65133-1.8915 1.0929-3.0123 1.2484v1.0868c-0.67492-0.06373-1.2595 0.02533-1.5486 0.20947 0.20048-0.03027 0.41925-0.04693 0.64837-0.04693 0.96477 0 1.7468 0.29476 1.7468 0.65836 0 0.36356-0.78207 0.65832-1.7468 0.65832-0.96476 0-1.7469-0.29476-1.7469-0.65832 0-0.23955 0.33936-0.44911 0.84676-0.56431v-1.3434c-1.5685-0.21751-2.9577-0.99508-3.9597-2.1241 0.17219 0.44781 0.43547 0.79063 0.75805 1.065l-0.4656 0.46557c0.27727 0.44023 0.36904 0.82847 0.19967 0.99777-0.25705 0.25711-1.0185-0.08747-1.7007-0.76972-0.68224-0.68219-1.0268-1.4437-0.76976-1.7008 0.16937-0.16937 0.55748-0.0776 0.99775 0.19977l0.65487-0.65484c-0.65139-0.86205-1.093-1.8915-1.2484-3.0124h-1.0868c0.063733-0.6748-0.025333-1.2595-0.20947-1.5486 0.030267 0.20048 0.046933 0.41924 0.046933 0.64835 0 0.96479-0.29476 1.7469-0.65829 1.7469-0.36363 0-0.65836-0.78215-0.65836-1.7469 0-0.96477 0.29473-1.7469 0.65836-1.7469 0.23945 0 0.44907 0.33933 0.56424 0.84672h1.3434c0.21751-1.5684 0.99511-2.9577 2.1242-3.9596-0.44789 0.17219-0.79063 0.43549-1.065 0.75805l-0.4656-0.46563c-0.44027 0.27729-0.82837 0.36907-0.99775 0.19972-0.25708-0.25711 0.087467-1.0185 0.76976-1.7007 0.6822-0.68224 1.4436-1.0268 1.7007-0.76979 0.16937 0.16937 0.0776 0.55753-0.19967 0.99773l0.65488 0.65491c0.86199-0.65145 1.8914-1.093 3.0123-1.2484v-1.0868c0.67489 0.063733 1.2595-0.025467 1.5486-0.20949-0.20045 0.030267-0.41921 0.0468-0.64835 0.0468-0.96476 0-1.7469-0.29473-1.7469-0.65829 0-0.3636 0.78215-0.65836 1.7469-0.65836 0.96477 0 1.7468 0.29476 1.7468 0.65836 0 0.23948-0.33936 0.44909-0.84672 0.56427z" fill="#231f20" fill-rule="evenodd"/></svg>
