<?xml version="1.0" encoding="UTF-8" standalone="no"?>
<svg
   xmlns:dc="http://purl.org/dc/elements/1.1/"
   xmlns:cc="http://creativecommons.org/ns#"
   xmlns:rdf="http://www.w3.org/1999/02/22-rdf-syntax-ns#"
   xmlns:svg="http://www.w3.org/2000/svg"
   xmlns="http://www.w3.org/2000/svg"
   viewBox="0 0 18 18"
   height="18"
   width="18"
   id="shop_dairy"
   version="1.1">
  <path
     id="path2"
     d="M 1.6674107,0 C 1.4381366,0 1.250558,0.187686 1.250558,0.4168527 V 3.4051339 L 0.04268973,6.1548549 C 0.02184701,6.2173548 0,6.2580914 0,6.3205915 V 17.583147 C 0,17.812314 0.18757845,18 0.41685268,18 H 18 V 10.599609 H 9.6478794 c 0.00128,-1.425784 0.00251,-2.8520926 0.00251,-4.2790175 0,-0.0625 -0.019336,-0.1240702 -0.040178,-0.1657366 L 8.3998326,3.4051339 V 0.4168527 C 8.3998326,0.187686 8.212254,0 7.9829799,0 Z M 2.0842635,0.8537946 H 7.5661272 V 3.2996651 H 2.0842635 Z m -0.062779,2.8627233 h 5.5873327 l 0.020089,0.04269 C 7.2417042,4.6359415 6.8389408,5.5327397 6.5039063,6.2779017 V 10.599609 H 4.4121096 v 6.551619 H 0.84375026 c -0.0201,-3.545322 -0.0100455,-7.1580856 -0.0100455,-10.7276788 z m 5.8359375,0.5625 0.9391742,2.1445313 V 10.599609 H 6.9182481 V 6.3708147 c 8.591e-4,-0.00183 0.00166,-0.00575 0.00251,-0.00753 z M 6.8253349,11.674386 c 0.6760567,8.02e-4 1.2235198,0.54939 1.2229352,1.225446 5.846e-4,0.676057 -0.5468785,1.224645 -1.2229352,1.225447 -0.6770376,5.85e-4 -1.2260317,-0.548409 -1.2254464,-1.225447 -5.852e-4,-0.677037 0.5484088,-1.226031 1.2254464,-1.225446 z m 8.2516731,0.524833 c 0.923465,4.69e-4 1.671964,0.748968 1.672434,1.672432 -4.69e-4,0.923466 -0.748968,1.671965 -1.672434,1.672434 -0.924445,9.17e-4 -1.674474,-0.747989 -1.674943,-1.672434 4.7e-4,-0.924445 0.750499,-1.673349 1.674943,-1.672432 z m -4.665736,1.97126 c 0.782238,-9.5e-5 1.41639,0.634058 1.416295,1.416296 9.5e-5,0.782237 -0.634058,1.416389 -1.416295,1.416294 -0.7822367,9.5e-5 -1.4163889,-0.634057 -1.4162943,-1.416294 -9.54e-5,-0.782238 0.6340571,-1.416391 1.4162943,-1.416296 z"
     style="stroke-width:0.2083822" />
</svg>
