<?xml version="1.0" encoding="UTF-8" standalone="no"?>
<svg
   xmlns:dc="http://purl.org/dc/elements/1.1/"
   xmlns:cc="http://creativecommons.org/ns#"
   xmlns:rdf="http://www.w3.org/1999/02/22-rdf-syntax-ns#"
   xmlns:svg="http://www.w3.org/2000/svg"
   xmlns="http://www.w3.org/2000/svg"
   version="1.1"
   width="18"
   height="18"
   viewBox="0 0 18 18"
   id="svg2">
  <metadata
     id="metadata8">
    <rdf:RDF>
      <cc:Work
         rdf:about="">
        <dc:format>image/svg+xml</dc:format>
        <dc:type
           rdf:resource="http://purl.org/dc/dcmitype/StillImage" />
        <dc:title></dc:title>
      </cc:Work>
    </rdf:RDF>
  </metadata>
  <defs
     id="defs6" />
  <path
     style="stroke-width:1.28571"
     d="M 6.4285716,0 C 5.1428574,0 5.1428574,0 5.1428574,1.2857143 l 0.012561,3.8571428 H 1.2857145 V 16.714286 C 1.2857145,18 1.2857145,18 2.5714288,18 H 15.428572 c 1.285713,0 1.285713,0 1.285713,-1.285714 V 5.1428571 H 12.907366 L 12.857143,1.2857143 C 12.857143,0 12.857143,0 11.571429,0 Z m 0,1.2857143 H 11.571429 V 5.1428571 H 6.4285716 Z m 2.0164621,5.7857143 c 0.9824326,0 1.7032363,0.1923682 2.1646203,0.5725446 0.461385,0.3801763 0.69057,0.8354084 0.69057,1.3660714 0,0.2970129 -0.06775,0.5805427 -0.210938,0.8537947 -0.139211,0.2732517 -0.308381,0.4951707 -0.507255,0.6654577 -0.198873,0.170287 -0.554151,0.424267 -1.0672429,0.760882 0.4255887,0.423738 0.8670189,0.81842 1.3284039,1.182756 0.123302,-0.24553 0.228903,-0.505208 0.316406,-0.77846 l 1.895927,0.419364 c -0.09944,0.348496 -0.194789,0.628838 -0.286272,0.838728 -0.09148,0.209889 -0.219666,0.458171 -0.386719,0.743304 l 0.911552,0.622768 c 0.111368,0.07128 0.256909,0.157138 0.431919,0.256138 l -1.308315,1.496652 c -0.238647,-0.126726 -0.487279,-0.273126 -0.745815,-0.439454 -0.254558,-0.166327 -0.482696,-0.310595 -0.685547,-0.429408 -0.421609,0.277212 -0.844015,0.480981 -1.2656246,0.607701 -0.5846861,0.174257 -1.2475655,0.261161 -1.9913504,0.261161 -1.1653944,0 -2.0327865,-0.242583 -2.6015627,-0.725726 C 4.5590141,14.862563 4.2739958,14.276961 4.2739958,13.58789 4.2739957,13.09287 4.4421216,12.626242 4.776228,12.186663 5.1103344,11.743124 5.6563209,11.369107 6.4160159,11.064174 6.0978195,10.680037 5.8799261,10.348415 5.760603,10.067243 5.641281,9.7821108 5.5823105,9.4914345 5.5823105,9.1983817 5.5823105,8.580595 5.8171404,8.0740845 6.2904578,7.6741071 6.7637751,7.2741297 7.4824891,7.0714287 8.4450337,7.0714286 Z m 0.1004465,1.3058035 c -0.2466022,0 -0.4475576,0.073394 -0.6026786,0.2159599 -0.1551204,0.1425662 -0.2310268,0.3106949 -0.2310268,0.5047433 0,0.2455307 0.2178936,0.6024542 0.6554129,1.0697547 C 8.6814075,9.9974025 8.9243928,9.813243 9.0954244,9.6152343 9.2664554,9.4132655 9.3515627,9.2208975 9.3515627,9.0426897 9.3515627,8.8565616 9.2813045,8.702339 9.1381141,8.5756139 8.9949256,8.4449292 8.7960601,8.3772321 8.5454802,8.3772321 Z M 7.5008373,12.282087 c -0.3341051,0.23365 -0.5540891,0.433841 -0.6654577,0.600167 -0.1073944,0.166328 -0.1632254,0.341216 -0.1632254,0.527345 0,0.28909 0.1260951,0.547706 0.3766742,0.773437 0.2505796,0.22573 0.5776297,0.339007 0.9793526,0.339007 0.4335431,0 0.9205616,-0.170639 1.4614956,-0.507255 C 8.972607,13.618773 8.3082623,13.04244 7.5008373,12.282087 Z"
     id="variety_store" />
</svg>
