<?xml version="1.0" encoding="UTF-8" standalone="no"?>
<svg
   viewBox="0 0 18 18"
   width="18"
   height="18">
  <path
     d="M 16.386232,0.14616458 C 16.31014,0.05431963 16.197339,8.1404057e-4 16.078078,2.2329685e-6 h -5.53093 C 10.429547,-3.9259398e-4 10.317887,0.05158895 10.242942,0.14221625 9.3853811,1.2526404 8.8251709,2.5634263 8.6152705,3.9506549 8.4776321,5.1858798 8.8516539,6.4236066 9.6503444,7.3758833 11.531923,9.6438317 15.006451,9.6589645 16.907712,7.4076174 17.721365,6.4498721 18.10689,5.2004848 17.974391,3.9507838 17.776606,2.5683488 17.230033,1.2590537 16.386225,0.14629743 Z M 9.4093585,3.9506512 c 0.19572,-1.1423024 0.6527205,-2.223937 1.3353255,-3.16053094 h 5.135863 c 0.670752,0.93900724 1.114339,2.02091854 1.295819,3.16053094 z m 6.6805755,8.2963978 c 0,0.218192 -0.176864,0.395066 -0.395067,0.395066 h -4.740796 c -0.526757,0 -0.526757,-0.790132 0,-0.790132 H 12.13927 V 9.7541786 c 0.378949,0.082546 0.765756,0.1236161 1.153594,0.1224722 0.409265,-7.934e-4 0.817254,-0.045683 1.216805,-0.1343173 V 11.85199 h 1.185198 c 0.218193,0 0.395067,0.176864 0.395067,0.395067 z"
     />
  <path
     d="M 2.080394,14.879405 H 3.1205946 V 18 H 2.080394 Z M 1.0402008,13.839208 C 1.7336667,12.799012 3.1205946,11.75881 3.1205946,10.718613 3.1205946,9.6784165 0,8.6382154 0,6.5578212 0,4.4774234 2.080394,4.4774234 4.1607915,3.4372264 3.8140604,4.8241241 2.080394,5.5176242 2.080394,6.5578212 c 1.0402006,1.040197 3.1205983,2.0803942 3.1205983,4.1607918 0,2.080399 -1.0402008,2.080399 -4.1607915,3.120595 z M 0,14.879405 H 1.0402008 V 18 H 0 Z M 14.562773,18 H 4.1607915 V 14.879405 H 14.562773 Z" />
</svg>
