<?xml version="1.0" encoding="UTF-8" standalone="no"?>
<!DOCTYPE svg PUBLIC "-//W3C//DTD SVG 1.1//EN" "http://www.w3.org/Graphics/SVG/1.1/DTD/svg11.dtd">
<svg width="100%" height="100%" viewBox="0 0 18 18" version="1.1" xmlns="http://www.w3.org/2000/svg" xmlns:xlink="http://www.w3.org/1999/xlink" xml:space="preserve" xmlns:serif="http://www.serif.com/" style="fill-rule:evenodd;clip-rule:evenodd;stroke-linejoin:round;stroke-miterlimit:2;">
    <g transform="matrix(0.1,0,0,0.1,0,0)">
        <rect x="21.6" y="32.4" width="136.8" height="147.6"/>
        <rect x="21.6" y="0" width="136.8" height="29.6"/>
        <path id="rect4577-4" d="M108,7.5C111.6,7.5 114.7,10.6 114.7,14.2C114.7,17.8 111.6,20.9 108,20.9C104.4,20.9 101.3,17.8 101.3,14.2C101.3,10.6 104.4,7.5 108,7.5ZM140.1,7.5C143.7,7.5 146.8,10.6 146.8,14.2C146.8,17.8 143.7,20.9 140.1,20.9C136.5,20.9 133.4,17.8 133.4,14.2C133.4,10.6 136.5,7.5 140.1,7.5ZM90,156C76.9,156 64,150.7 54.7,141.4C45.4,132.1 40.1,119.2 40.1,106.1C40.1,93 45.4,80.1 54.7,70.8C64,61.5 76.9,56.2 90,56.2C103.1,56.2 116,61.5 125.3,70.8C134.6,80.1 139.9,93 139.9,106.1C139.9,119.2 134.6,132.1 125.3,141.4C116,150.7 103.1,156 90,156Z" style="fill:white;fill-rule:nonzero;"/>
        <path d="M122,130.1C120.6,132 118.9,133.8 117.2,135.4L62.8,135.4C61,133.8 59.4,132 58,130.1L122,130.1ZM58,82.1L122,82.1C120.6,80.2 118.9,78.4 117.2,76.8L62.8,76.8C61.1,78.4 59.4,80.2 58,82.1ZM109.9,71.4C104,68 97.2,66.1 90,66.1C82.8,66.1 75.9,68 70.1,71.4L109.9,71.4ZM52.3,119.4C53,121.2 53.7,123 54.6,124.7L125.4,124.7C126.3,123 127.1,121.2 127.7,119.4L52.3,119.4ZM50.1,108.8C50.2,110.6 50.5,112.4 50.8,114.1L129.2,114.1C129.6,112.4 129.8,110.6 129.9,108.8L50.1,108.8ZM54.6,87.4C53.7,89.1 52.9,90.9 52.3,92.7L127.7,92.7C127,90.9 126.3,89.1 125.4,87.4L54.6,87.4ZM70.1,140.8C76,144.2 82.8,146.1 90,146.1C97.2,146.1 104.1,144.2 109.9,140.8L70.1,140.8ZM50.8,98.1C50.4,99.8 50.2,101.6 50.1,103.4L129.9,103.4C129.8,101.6 129.5,99.8 129.2,98.1L50.8,98.1Z" style="fill-rule:nonzero;"/>
    </g>
</svg>
