<?xml version="1.0" encoding="UTF-8"?>
<svg width="18" height="18" version="1.1" viewBox="0 0 18 18" xmlns="http://www.w3.org/2000/svg">
 <path id="electronics" d="M 12.017441,0.3176901 C 11.841529,0.2973964 11.650513,0.3466479 11.491714,0.50544948 L 7.999444,4.0353321 5.7088358,1.7071116 C 5.4541435,1.3637122 4.8827051,1.3286483 4.5822776,1.6320057 4.28185,1.9353652 4.3172991,2.5013961 4.6573814,2.7585641 L 6.9479896,5.0867846 H 3.1553039 c -1.2016621,0 -2.40332415,1.2016621 -2.40332415,2.4033242 v 7.2099722 c 0,1.201662 1.20166205,2.403324 2.40332415,2.403324 H 15.171923 c 1.201663,0 2.403325,-1.201662 2.403325,-2.403324 V 7.4901088 c 0,-1.2016621 -1.201662,-2.4033242 -2.403325,-2.4033242 H 9.0508984 L 12.543168,1.556902 c 0.465668,-0.4656681 0.002,-1.17831376 -0.525727,-1.23915364 z M 7.961832,7.4901703 c 3.604985,0 4.806647,0 4.806647,3.6049867 0,3.604987 -1.201662,3.604987 -4.806647,3.604987 -3.6049861,0 -4.8066483,0 -4.8066483,-3.604987 0,-3.6049867 1.2016622,-3.6049867 4.8066483,-3.6049867 z m 7.209972,0.1502075 c 0.580702,0 1.051453,0.470752 1.051453,1.0514546 0,0.5807025 -0.470751,1.0514546 -1.051453,1.0514546 -0.580704,0 -1.051455,-0.4707521 -1.051455,-1.0514546 0,-0.5807026 0.470751,-1.0514546 1.051455,-1.0514546 z m 0,3.6049882 c 0.580702,0 1.051453,0.470751 1.051453,1.051453 0,0.580704 -0.470751,1.051455 -1.051453,1.051455 -0.580704,0 -1.051455,-0.470751 -1.051455,-1.051455 0,-0.580702 0.470751,-1.051453 1.051455,-1.051453 z" />
</svg>
