<?xml version="1.0" encoding="UTF-8"?>
<svg width="14" height="14" version="1.1" viewBox="0 0 14 14" xmlns="http://www.w3.org/2000/svg">
 <path id="electronics" d="m9.375 0.03125c-0.14639-0.016892-0.30535 0.024097-0.4375 0.15625l-2.9062 2.9375-1.9062-1.9375c-0.21195-0.28577-0.68749-0.31495-0.9375-0.0625s-0.22051 0.72349 0.0625 0.9375l1.9062 1.9375h-3.1562c-1 0-2 1-2 2v6c0 1 1 2 2 2h10c1 0 2-1 2-2v-6c0-1-1-2-2-2h-5.0938l2.9062-2.9375c0.38752-0.38752 0.001672-0.98057-0.4375-1.0312zm-3.375 5.9688c3 0 4 0 4 3s-1 3-4 3-4 0-4-3 1-3 4-3zm6 0.125c0.48325 0 0.875 0.39175 0.875 0.875s-0.39175 0.875-0.875 0.875-0.875-0.39175-0.875-0.875 0.39175-0.875 0.875-0.875zm0 3c0.48325 0 0.875 0.39175 0.875 0.875s-0.39175 0.875-0.875 0.875-0.875-0.39175-0.875-0.875 0.39175-0.875 0.875-0.875z"/>
</svg>
