<?xml version="1.0" encoding="UTF-8" standalone="no"?>
<svg
   viewBox="0 0 18 18"
   width="18"
   height="18">
<path
     d="M 8.9648438 0 C 4.5086438 -1.1842379e-15 0.8828125 3.6258313 0.8828125 8.0820312 L 0.8828125 10.09375 L 2.0097656 10.09375 L 2.0097656 8.0820312 C 2.0097656 4.2470313 5.1296437 1.1269531 8.9648438 1.1269531 C 12.799644 1.1269531 15.919922 4.2470313 15.919922 8.0820312 L 15.919922 10.09375 L 17.046875 10.09375 L 17.046875 8.0820312 C 17.046875 3.6258313 13.420844 1.0062506e-16 8.9648438 0 z M 11.957031 4.2695312 A 1.0583999 1.0583999 0 0 0 10.898438 5.328125 A 1.0583999 1.0583999 0 0 0 11.957031 6.3867188 A 1.0583999 1.0583999 0 0 0 13.015625 5.328125 A 1.0583999 1.0583999 0 0 0 11.957031 4.2695312 z M 8.2207031 4.8574219 C 8.2207031 4.8574219 7.5159656 4.785675 7.0097656 5.171875 C 6.5041656 5.558275 6.3886719 6.2578125 6.3886719 6.2578125 C 6.3886719 6.2578125 7.0940094 6.3297594 7.5996094 5.9433594 C 8.1056094 5.5571594 8.2207031 4.8574219 8.2207031 4.8574219 z M 5.7539062 5.328125 L 5.7539062 6.84375 C 5.4259062 6.62115 5.0291156 6.4902344 4.6035156 6.4902344 C 3.4719156 6.4902344 2.5546875 7.4074625 2.5546875 8.5390625 C 2.5546875 8.9092625 2.6545719 9.2550875 2.8261719 9.5546875 L 3.1542969 10.09375 L 9.0195312 10.09375 L 9.34375 9.5644531 L 9.3417969 9.5644531 C 9.5161969 9.2628531 9.6171875 8.9126625 9.6171875 8.5390625 C 9.6171875 7.4076625 8.6997594 6.4902344 7.5683594 6.4902344 C 7.1123594 6.4902344 6.6939156 6.6405781 6.3535156 6.8925781 L 6.3535156 5.328125 L 5.7539062 5.328125 z M 14.386719 5.8710938 C 13.528278 5.7613824 12.145044 6.8080406 11.074219 8.4472656 C 10.710619 9.0032656 10.425056 9.56515 10.222656 10.09375 L 14.076172 10.09375 C 15.183772 8.29215 15.479703 6.4858344 14.720703 5.9902344 C 14.621978 5.9256844 14.509353 5.8867668 14.386719 5.8710938 z M 10.533203 6.4609375 A 0.91619998 0.91619998 0 0 0 9.6171875 7.3769531 A 0.91619998 0.91619998 0 0 0 10.533203 8.2929688 A 0.91619998 0.91619998 0 0 0 11.449219 7.3769531 A 0.91619998 0.91619998 0 0 0 10.533203 6.4609375 z M 0.77539062 10.658203 L 2.1835938 18 L 15.816406 18 L 17.224609 10.658203 L 0.77539062 10.658203 z " /></svg>
