<svg
   width="24"
   height="24"
   viewBox="0 0 24 24"
   version="1.1">
  <path
     d="M 12,1 C 5.934037,1 1,5.934037 1,12 c 0,6.065963 4.934037,11 11,11 1.828496,0 3.656992,-0.46438 5.253298,-1.335092 0.05804,-0.02902 0.116095,-0.05804 0.174142,-0.05804 0.02902,0 0.05805,0 0.116095,0 L 22.76781,23 21.403694,17.920844 c -0.02902,-0.116095 0,-0.203166 0.02902,-0.290237 C 22.448549,15.918205 23,13.973615 23,12 23,5.934037 18.065963,1 12,1 Z m 5.601583,12.015831 c 0,0.522427 -0.406333,0.92876 -0.92876,0.92876 H 16.0343 c 0.522428,0 0.928761,0.406333 0.928761,0.92876 v 0.116095 c 0,0.522428 -0.406333,0.928759 -0.928761,0.928759 h -0.870712 c 0.522428,0 0.92876,0.406333 0.92876,0.928761 v 0.08707 c 0,0.522427 -0.406332,0.928759 -0.92876,0.928759 h -3.337731 v 0 c -1.39314,0 -2.5540892,-0.841688 -2.9604217,-1.973614 H 6.6596306 v -5.369394 h 2.3509235 c 0,0 0.8997361,-0.783641 2.1477569,-1.7994716 C 12.116095,7.965698 13.335092,7.1820568 14.089709,5.9340357 14.641161,5.0342995 17.050132,6.6596294 14.3219,9.99736 h 1.7124 c 0.522428,0 0.928761,0.406332 0.928761,0.92876 v 0.116095 c 0,0.522428 -0.406333,0.92876 -0.928761,0.92876 h 0.638523 c 0.522427,0 0.92876,0.406332 0.92876,0.92876 z" />
</svg>
