<?xml version="1.0" encoding="UTF-8" standalone="no"?>
<svg
   xmlns:dc="http://purl.org/dc/elements/1.1/"
   xmlns:cc="http://creativecommons.org/ns#"
   xmlns:rdf="http://www.w3.org/1999/02/22-rdf-syntax-ns#"
   xmlns:svg="http://www.w3.org/2000/svg"
   xmlns="http://www.w3.org/2000/svg"
   id="svg8"
   xml:space="preserve"
   style="fill:#000000"
   viewBox="-0.3 -0.7 18 18"
   y="0px"
   x="0px"
   version="1.1"
   width="18"
   height="18">
	<path
     style="stroke-width:0.2200489"
     id="path6"
     d="M 14.465281,5.1753056 C 14.047188,5.5493888 13.409046,5.9674817 12.572861,6.4075795 12.110758,6.6716381 11.538631,6.9577017 10.856479,7.2657702 10.614425,6.7816626 10.218337,6.3635697 9.7122249,6.1435208 10.020293,5.4613692 10.306357,4.8892421 10.548411,4.4051345 11.010513,3.5469438 11.428606,2.9308068 11.824694,2.5567237 12.308802,2.0726161 12.79291,1.8085575 13.299022,1.698533 c 0.528117,-0.08802 1.100245,0 1.760391,0.2860636 0.264059,0.6161369 0.352078,1.188264 0.242054,1.7163814 -0.08802,0.5061125 -0.374083,0.99022 -0.836186,1.4743276 z M 10.570416,2.0066015 C 10.526406,2.5787286 10.372372,3.3268949 10.108313,4.2290954 9.9542787,4.7352078 9.7562347,5.3513447 9.492176,6.0334963 9.2501222,5.9454768 8.9860636,5.901467 8.7,5.901467 c -0.2860636,0 -0.5501222,0.04401 -0.8141809,0.1320293 C 7.6217604,5.3513447 7.4017115,4.7352078 7.2476773,4.2070905 6.9616137,3.2608802 6.8295844,2.5347188 6.8295844,2.0066015 c 0,-0.6601467 0.1540342,-1.21026898 0.4400978,-1.65036678 C 7.5777506,-0.08386308 8.0618582,-0.41393643 8.7220049,-0.7 c 0.6161369,0.24205379 1.0782396,0.59413203 1.3863081,1.03422983 0.308068,0.46210269 0.462103,1.01222497 0.462103,1.67237167 z M 6.8295844,14.593399 c 0.04401,-0.572128 0.198044,-1.320294 0.4621026,-2.222494 0.1540343,-0.506113 0.3520783,-1.12225 0.5941321,-1.804401 0.2420538,0.08802 0.5061124,0.132029 0.792176,0.132029 0.2860636,0 0.5501223,-0.04401 0.8141809,-0.132029 0.2640587,0.682151 0.4621027,1.298288 0.638142,1.826406 0.286063,0.94621 0.418093,1.672371 0.418093,2.200489 0,0.660146 -0.154034,1.210268 -0.440098,1.650366 C 9.8002445,16.683863 9.3161369,17.013936 8.6559902,17.3 8.0398533,17.057946 7.5777506,16.705868 7.2696822,16.26577 6.9836186,15.803667 6.8295844,15.253545 6.8295844,14.593399 Z M 5.5753056,2.5347188 C 5.9493888,2.9748166 6.3674817,3.5909535 6.8075795,4.4271394 7.0716381,4.8892421 7.3577017,5.4613692 7.6657702,6.1435208 7.1816626,6.3855746 6.7635697,6.7816626 6.5435208,7.2877751 5.8613692,6.9797066 5.2892421,6.693643 4.8051345,6.4515892 3.9469438,5.9894866 3.3308068,5.5713936 2.9567237,5.1753056 2.4726161,4.691198 2.2085575,4.2070905 2.098533,3.700978 2.010513,3.1728606 2.098533,2.6007335 2.3845966,1.9405868 3.0007335,1.6765281 3.5728606,1.5885086 4.100978,1.698533 4.6070905,1.786553 5.091198,2.0726161 5.5753056,2.5347188 Z M 11.824694,14.065281 c -0.374083,-0.440098 -0.792176,-1.056235 -1.232273,-1.89242 -0.264059,-0.462103 -0.550123,-1.03423 -0.8581912,-1.716382 0.4841072,-0.242054 0.9022002,-0.6381416 1.1222492,-1.1442541 0.682152,0.3080685 1.254279,0.5941321 1.738387,0.8361861 0.85819,0.462102 1.474327,0.880195 1.84841,1.276283 0.484108,0.484108 0.748167,0.968216 0.858191,1.474328 0.08802,0.528117 0,1.100245 -0.286064,1.760391 -0.594132,0.264059 -1.166259,0.352078 -1.694376,0.242054 -0.528117,-0.08802 -1.012225,-0.374083 -1.496333,-0.836186 z M 2.4066015,6.4295844 C 2.9787286,6.4735941 3.7268949,6.6276284 4.6290954,6.891687 5.1352078,7.0457213 5.7513447,7.2437653 6.4334963,7.507824 6.3454773,7.7498778 6.301467,8.0139364 6.301467,8.3 c 0,0.2860636 0.04401,0.5501222 0.1320293,0.8141809 C 5.7513447,9.3782396 5.1352078,9.5762836 4.6070905,9.7523227 3.6608802,10.038386 2.9347188,10.170416 2.4066015,10.170416 c -0.6601467,0 -1.210269,-0.154035 -1.65036678,-0.4400982 C 0.31613692,9.4222494 -0.01393643,8.9381418 -0.3,8.2779951 -0.05794621,7.6618582 0.29413203,7.1997555 0.73422983,6.891687 1.1963325,6.5836186 1.7464548,6.4295844 2.4066015,6.4295844 Z M 14.993399,10.170416 C 14.421271,10.126406 13.673105,9.9723716 12.770905,9.708313 12.264792,9.5542787 11.648655,9.3562347 10.966504,9.1141809 c 0.08802,-0.2420538 0.132029,-0.5061124 0.132029,-0.792176 0,-0.2860636 -0.04401,-0.5501223 -0.132029,-0.8141809 0.682151,-0.2640587 1.298288,-0.4621027 1.826406,-0.6381418 0.94621,-0.2860636 1.672371,-0.418093 2.200489,-0.418093 0.660146,0 1.210268,0.1540343 1.650366,0.4400978 0.440098,0.3080685 0.770171,0.7921761 1.056235,1.4523228 -0.242054,0.6161369 -0.594132,1.0782396 -1.03423,1.386308 -0.462103,0.2860632 -1.012225,0.4400982 -1.672371,0.4400982 z M 2.9347188,11.424694 C 3.3528117,11.050611 3.9909535,10.632518 4.8271394,10.192421 5.2892421,9.9283619 5.8613692,9.6422983 6.5435208,9.3342298 6.7855746,9.8183374 7.1816626,10.23643 7.6877751,10.456479 7.3797066,11.138631 7.093643,11.710758 6.8515892,12.194866 c -0.4621026,0.85819 -0.8801956,1.474327 -1.2762836,1.84841 -0.4841076,0.484108 -0.9682151,0.748167 -1.4743276,0.858191 -0.5281174,0.08802 -1.1002445,0 -1.7603912,-0.286064 C 2.0765281,14.021271 1.9885086,13.449144 2.098533,12.921027 2.1865526,12.39291 2.4726161,11.908802 2.9347188,11.424694 Z" /></svg>
