<?xml version="1.0" encoding="UTF-8" standalone="no"?>
<svg
   xmlns:dc="http://purl.org/dc/elements/1.1/"
   xmlns:cc="http://creativecommons.org/ns#"
   xmlns:rdf="http://www.w3.org/1999/02/22-rdf-syntax-ns#"
   xmlns:svg="http://www.w3.org/2000/svg"
   xmlns="http://www.w3.org/2000/svg"
   xmlns:sodipodi="http://sodipodi.sourceforge.net/DTD/sodipodi-0.dtd"
   xmlns:inkscape="http://www.inkscape.org/namespaces/inkscape"
   height="18"
   width="18"
   xml:space="preserve"
   viewBox="0 0 18 18"
   y="0px"
   x="0px"
   sodipodi:docname="frame.svg"
   inkscape:version="1.0 (4035a4f, 2020-05-01)"
   id="svg12"
   version="1.1"><metadata
   id="metadata872"><rdf:RDF><cc:Work
       rdf:about=""><dc:format>image/svg+xml</dc:format><dc:type
         rdf:resource="http://purl.org/dc/dcmitype/StillImage" /><dc:title></dc:title></cc:Work></rdf:RDF></metadata><defs
   id="defs870" /><sodipodi:namedview
   inkscape:current-layer="svg12"
   inkscape:window-maximized="0"
   inkscape:window-y="23"
   inkscape:window-x="0"
   inkscape:cy="94.653061"
   inkscape:cx="87.55102"
   inkscape:zoom="4.0833333"
   showgrid="false"
   id="namedview868"
   inkscape:window-height="991"
   inkscape:window-width="1405"
   inkscape:pageshadow="2"
   inkscape:pageopacity="0"
   guidetolerance="10"
   gridtolerance="10"
   objecttolerance="10"
   borderopacity="1"
   bordercolor="#666666"
   pagecolor="#ffffff" />
<path
   style="stroke-width:0.1"
   d="m 15.535,16.29 c 0.05,-0.03 0.09,-0.07 0.13,-0.11 0.32,-0.32 0.32,-0.83 0,-1.15 -0.09,-0.09 -0.19,-0.15 -0.3,-0.19 0.14,-0.45 0.39,-1.67 -0.11,-3.43 0.3,-0.05 0.53,-0.32 0.53,-0.63 0,-0.19 -0.09,-0.37 -0.22,-0.48 0.31,-0.23 0.52,-0.71 0.52,-1.27 0,-0.55 -0.21,-1.03 -0.52,-1.27 0.14,-0.12 0.22,-0.29 0.22,-0.48 0,-0.32 -0.23,-0.58 -0.53,-0.63 0.44,-1.56 0.29,-2.7 0.16,-3.25 0.09,-0.04 0.18,-0.1 0.26,-0.17 0.32,-0.32 0.32,-0.83 0,-1.15 -0.04,-0.04 -0.09,-0.08 -0.13,-0.11 0.07,-0.03 0.14,-0.08 0.2,-0.14 0.25,-0.25 0.28,-0.64 0.05,-0.87 -0.23,-0.23 -0.61,-0.2 -0.87,0.05 -0.06,0.06 -0.11,0.13 -0.14,0.2 -0.03,-0.05 -0.07,-0.09 -0.11,-0.13 -0.32,-0.32 -0.83,-0.32 -1.15,0 -0.06,0.06 -0.1,0.12 -0.14,0.19 -0.33,-0.12 -1.04,-0.28 -2.03,-0.03 -0.1,-0.24 -0.33,-0.4 -0.6,-0.4 -0.19,0 -0.37,0.09 -0.49,0.22 -0.24,-0.34 -0.72,-0.55 -1.27,-0.55 -0.55,0 -1.03,0.21 -1.27,0.52 -0.11,-0.13 -0.29,-0.22 -0.48,-0.22 -0.27,0 -0.5,0.17 -0.6,0.4 C 5.655,0.96 4.945,1.12 4.615,1.24 4.575,1.17 4.535,1.11 4.475,1.05 4.155,0.73 3.645,0.73 3.325,1.05 3.285,1.09 3.245,1.14 3.215,1.18 3.185,1.11 3.135,1.04 3.075,0.98 2.825,0.73 2.435,0.7 2.205,0.93 c -0.23,0.23 -0.2,0.61 0.05,0.87 0.06,0.06 0.13,0.11 0.2,0.14 -0.05,0.03 -0.09,0.07 -0.13,0.11 -0.32,0.32 -0.32,0.83 0,1.15 0.08,0.08 0.16,0.13 0.26,0.17 -0.13,0.55 -0.28,1.69 0.16,3.25 -0.3,0.05 -0.53,0.32 -0.53,0.63 0,0.19 0.09,0.37 0.22,0.48 -0.31,0.23 -0.52,0.71 -0.52,1.27 0,0.55 0.21,1.03 0.52,1.27 -0.13,0.12 -0.22,0.29 -0.22,0.48 0,0.32 0.23,0.58 0.53,0.63 -0.5,1.76 -0.25,2.98 -0.11,3.43 -0.11,0.04 -0.22,0.1 -0.31,0.19 -0.32,0.32 -0.32,0.83 0,1.15 0.04,0.04 0.08,0.08 0.13,0.11 -0.07,0.03 -0.14,0.08 -0.2,0.14 -0.25,0.25 -0.28,0.64 -0.05,0.87 0.23,0.23 0.61,0.2 0.87,-0.05 0.06,-0.06 0.11,-0.13 0.14,-0.2 0.03,0.05 0.07,0.09 0.11,0.13 0.32,0.32 0.83,0.32 1.15,0 0.11,-0.11 0.18,-0.23 0.21,-0.37 0.35,0.11 1.03,0.24 1.96,0.01 0.09,0.24 0.33,0.4 0.6,0.4 0.19,0 0.37,-0.09 0.48,-0.22 0.23,0.31 0.71,0.52 1.27,0.52 0.55,0 1.03,-0.21 1.27,-0.52 0.12,0.14 0.29,0.22 0.48,0.22 0.27,0 0.5,-0.17 0.6,-0.4 0.93,0.23 1.61,0.11 1.96,-0.01 0.03,0.14 0.1,0.26 0.21,0.37 0.32,0.32 0.83,0.32 1.15,0 0.04,-0.04 0.08,-0.08 0.11,-0.13 0.03,0.07 0.08,0.14 0.14,0.2 0.25,0.25 0.64,0.28 0.87,0.05 0.23,-0.23 0.2,-0.61 -0.05,-0.87 -0.06,-0.03 -0.13,-0.07 -0.2,-0.11 z m -1.66,-0.98 H 4.135 V 2.77 h 9.72 v 12.54 z"
   inkscape:connector-curvature="0"
   id="path4" />
</svg>
