<?xml version="1.0" encoding="UTF-8"?>
<svg width="9" height="9" version="1.1" viewBox="0 0 9 9" xmlns="http://www.w3.org/2000/svg">
 <title>fuel-11.svg</title>
 <rect x="-4.2881" y="-4.2881" width="17" height="17" fill="none"/>
 <path d="m8.5 2h-0.5v-1.5c0-0.2761-0.2239-0.5-0.5-0.5s-0.5 0.2239-0.5 0.5v1.5c0 0.5523 0.4477 1 1 1v4.25c0 0.1381-0.1119 0.25-0.25 0.25s-0.25-0.1119-0.25-0.25v-1.75c0-0.8284-0.6716-1.5-1.5-1.5v-3c0-0.5523-0.4477-1-1-1h-4c-0.5523 0-1 0.4477-1 1v7c0 0.5523 0.4477 1 1 1h4c0.5523 0 1-0.4477 1-1v-3c0.2761 0 0.5 0.2239 0.5 0.5v1.75c0 0.6904 0.5596 1.25 1.25 1.25s1.25-0.5596 1.25-1.25v-4.75c0-0.2761-0.2239-0.5-0.5-0.5zm-3.5 1.5c0.0056 0.2706-0.2092 0.4944-0.4798 0.5h-2e-4 -3c-0.2816 0.0056-0.5144-0.2182-0.52-0.4998v-2e-4 -1.5c0-0.2761 0.2239-0.5 0.5-0.5h3c0.2761 0 0.5 0.2239 0.5 0.5z" fill="rgba(255,255,255,0.25)" stroke="rgba(255,255,255,0.25)" stroke-linejoin="round" stroke-width="2"/>
</svg>
