<?xml version="1.0" encoding="UTF-8" standalone="no"?>
<svg
   xmlns:dc="http://purl.org/dc/elements/1.1/"
   xmlns:cc="http://creativecommons.org/ns#"
   xmlns:rdf="http://www.w3.org/1999/02/22-rdf-syntax-ns#"
   xmlns:svg="http://www.w3.org/2000/svg"
   xmlns="http://www.w3.org/2000/svg"
   id="svg6"
   viewBox="0 0 18 18"
   version="1.1"
   height="18"
   width="18">
  <defs
     id="defs10" />
  <metadata
     id="metadata2">
    <rdf:RDF>
      <cc:Work
         rdf:about="">
        <dc:format>image/svg+xml</dc:format>
        <dc:type
           rdf:resource="http://purl.org/dc/dcmitype/StillImage" />
        <dc:title></dc:title>
      </cc:Work>
    </rdf:RDF>
  </metadata>
  <path
     d="m 3.8571,2.5715 c -1.2857,0 -2.5714,1.2857 -2.5714,2.5714 2.5714,0 3.8571,2.0263 3.8571,3.8571 h 7.7143 c 0,-1.9519 1.2857,-3.8571 3.8571,-3.8571 0,-1.2857 -1.2857,-2.5714 -2.5714,-2.5714 z M 1.2857,6.4286 C 0,6.4286 0,7.7143 0,7.7143 0,8.38051 0.6195,9 1.2857,9 v 3.8571 c 0,0.82961 0.54431,1.2857 1.2857,1.2857 h 0.64286 c 0,0 0,1.2857 1.2857,1.2857 1.2857,0 1.2857,-1.2857 1.2857,-1.2857 h 6.4286 c 0,0 0,1.2857 1.2857,1.2857 1.2857,0 1.2857,-1.2857 1.2857,-1.2857 h 0.64286 c 0.65506,0 1.2857,-0.62261 1.2857,-1.2857 V 9 c 0.63593,0 1.2857,-0.49837 1.2857,-1.2857 0,0 0,-1.2857 -1.2857,-1.2857 -1.2857,0 -2.5714,1.2857 -2.5714,3.8571 h -10.286 c 0,-2.5714 -1.2857,-3.8571 -2.5714,-3.8571 z"
     id="furniture" />
</svg>
