<?xml version="1.0" encoding="UTF-8"?>
<!-- Created with Inkscape (http://www.inkscape.org/) -->
<svg width="1" height="1" version="1.1" viewBox="0 0 18 18" xmlns="http://www.w3.org/2000/svg" xmlns:cc="http://creativecommons.org/ns#" xmlns:dc="http://purl.org/dc/elements/1.1/" xmlns:rdf="http://www.w3.org/1999/02/22-rdf-syntax-ns#">
 <metadata>
  <rdf:RDF>
   <cc:Work rdf:about="">
    <dc:format>image/svg+xml</dc:format>
    <dc:type rdf:resource="http://purl.org/dc/dcmitype/StillImage"/>
    <dc:title/>
   </cc:Work>
  </rdf:RDF>
 </metadata>
 <rect id="canvas" width="14" height="14" fill="none" visibility="hidden"/>
 <path id="furniture" d="m3.8571 2.5714c-1.2857 0-2.5714 1.2857-2.5714 2.5714 2.5714 0 3.8571 2.0263 3.8571 3.8571h7.7143c0-1.9519 1.2857-3.8571 3.8571-3.8571 0-1.2857-1.2857-2.5714-2.5714-2.5714zm-2.5714 3.8571c-1.2857 0-1.2857 1.2857-1.2857 1.2857 0 0.66621 0.6195 1.2857 1.2857 1.2857v3.8571c0 0.82961 0.54431 1.2857 1.2857 1.2857h0.64286s0 1.2857 1.2857 1.2857 1.2857-1.2857 1.2857-1.2857h6.4286s0 1.2857 1.2857 1.2857 1.2857-1.2857 1.2857-1.2857h0.64286c0.65506 0 1.2857-0.62261 1.2857-1.2857v-3.8571c0.63593 0 1.2857-0.49837 1.2857-1.2857 0 0 0-1.2857-1.2857-1.2857-1.2857 0-2.5714 1.2857-2.5714 3.8571h-10.286c0-2.5714-1.2857-3.8571-2.5714-3.8571z"/>
</svg>
