<?xml version="1.0" encoding="UTF-8" standalone="no"?>
<svg
   xmlns:dc="http://purl.org/dc/elements/1.1/"
   xmlns:cc="http://creativecommons.org/ns#"
   xmlns:rdf="http://www.w3.org/1999/02/22-rdf-syntax-ns#"
   xmlns:svg="http://www.w3.org/2000/svg"
   xmlns="http://www.w3.org/2000/svg"
   id="svg6"
   viewBox="0 0 18 18"
   version="1.1"
   height="18"
   width="18">
  <defs
     id="defs10" />
  <metadata
     id="metadata2">
    <rdf:RDF>
      <cc:Work
         rdf:about="">
        <dc:format>image/svg+xml</dc:format>
        <dc:type
           rdf:resource="http://purl.org/dc/dcmitype/StillImage" />
        <dc:title></dc:title>
      </cc:Work>
    </rdf:RDF>
  </metadata>
  <path
     style="stroke-width:1.03703964"
     d="M 5.4999394,0 C 4.3332699,0 3.1666003,0.81666868 3.1666003,2.3333391 c 0,1.5155297 0.6928358,2.3333391 2.2083758,2.3333391 h 7.1666699 c 1.514285,0 2.29165,-0.7773338 2.29165,-2.2916501 C 14.832155,0.85835767 13.666626,0 12.499957,0 10.731286,0 9.4444232,1.0709508 8.9999481,2.6249546 8.5542803,1.0709508 7.3070846,0 5.4999394,0 Z m 0,1.1666695 c 1.8888639,0 2.2084795,1.4944778 2.3333391,2.3333391 H 5.4999394 c -1.2261956,0 -1.1666695,-1.1164768 -1.1666695,-1.1666695 0,-0.050193 -0.059493,-1.1666696 1.1666695,-1.1666696 z m 7.0000176,0 c 1.166669,0 1.166669,1.1164769 1.166669,1.1666696 0,0.050193 0.0595,1.1666695 -1.166669,1.1666695 H 10.166618 C 10.291456,2.6611784 10.60878,1.1666695 12.499957,1.1666695 Z M 4.9999826,6 C 3.6666608,6 2.333339,7.3333218 2.333339,8.6666436 V 10.999983 H 8.0000345 V 6 Z M 9.999965,6 v 4.999983 h 5.666696 V 8.6666436 C 15.666661,7.3333218 14.333339,6 13.000017,6 Z m -7.666626,7.000017 v 2.333339 C 2.333339,16.666678 3.6666608,18 4.9999826,18 h 2.9999482 v -4.999983 z m 7.666626,0 V 18 h 2.999948 c 1.333322,0 2.666644,-1.333322 2.666644,-2.666644 v -2.333339 z"
     id="gift" />
</svg>
