<?xml version="1.0" encoding="UTF-8" standalone="no"?>
<svg
   xmlns:dc="http://purl.org/dc/elements/1.1/"
   xmlns:cc="http://creativecommons.org/ns#"
   xmlns:rdf="http://www.w3.org/1999/02/22-rdf-syntax-ns#"
   xmlns:svg="http://www.w3.org/2000/svg"
   xmlns="http://www.w3.org/2000/svg"
   id="svg6"
   viewBox="0 0 18 18"
   version="1.1"
   height="18"
   width="18">
  <defs
     id="defs10" />
  <metadata
     id="metadata2">
    <rdf:RDF>
      <cc:Work
         rdf:about="">
        <dc:format>image/svg+xml</dc:format>
        <dc:type
           rdf:resource="http://purl.org/dc/dcmitype/StillImage" />
        <dc:title></dc:title>
      </cc:Work>
    </rdf:RDF>
  </metadata>
  <path
     d="m 5.1429,1e-4 v 12.254 C 4.60324,11.84417 3.9402,11.57106 3.2143,11.57106 1.4467,11.57106 0,13.01776 0,14.78536 c 0,1.7676 1.4467,3.2143 3.2143,3.2143 1.5466,0 2.8328,-1.1104 3.1339,-2.5714 h 0.16071 c 0.30107,1.4611 1.5873,2.5714 3.1339,2.5714 1.7676,0 3.2143,-1.4467 3.2143,-3.2143 0,-1.7676 -1.4467,-3.2143 -3.2143,-3.2143 -0.72583,0 -1.3889,0.2731 -1.9286,0.68304 V 10e-5 Z m 5.1428,0 v 2.5714 h 5.1428 v 1.2857 h -5.1428 v 1.2857 h 5.1428 v 1.2857 h -5.1428 v 1.2857 h 5.1428 V 9 h -5.1428 v 1.2857 h 5.1428 V 18 h 2.5714 V 2.571 c 0,-1.2857 -1.2857,-2.5714 -2.5714,-2.5714 z m -7.0714,12.857 c 1.0727,0 1.9286,0.85584 1.9286,1.9286 0,1.0727 -0.85583,1.9286 -1.9286,1.9286 -1.0727,0 -1.9286,-0.85584 -1.9286,-1.9286 0,-1.0727 0.85583,-1.9286 1.9286,-1.9286 z m 6.4286,0 c 1.0727,0 1.9286,0.85584 1.9286,1.9286 0,1.0727 -0.85583,1.9286 -1.9286,1.9286 -1.0727,0 -1.9286,-0.85584 -1.9286,-1.9286 0,-1.0727 0.85583,-1.9286 1.9286,-1.9286 z"
     id="hairdresser" />
</svg>
