<?xml version="1.0" encoding="UTF-8" standalone="no"?>
<svg
   xmlns:dc="http://purl.org/dc/elements/1.1/"
   xmlns:cc="http://creativecommons.org/ns#"
   xmlns:rdf="http://www.w3.org/1999/02/22-rdf-syntax-ns#"
   xmlns:svg="http://www.w3.org/2000/svg"
   xmlns="http://www.w3.org/2000/svg"
   id="svg2"
   viewBox="0 0 18 18"
   height="18"
   width="18"
   version="1.1">
  <path
     style="stroke-width:1.28571415"
     id="doityourself"
     d="M 11.571429,3.4592442e-6 C 10.60561,0.63118375 9.9642857,1.7333409 9.9642857,2.9732172 c 0,1.3682558 0.7915553,2.5461076 1.9285713,3.1339279 V 16.071429 C 11.892857,17.19997 12.562953,18 13.5,18 c 0.937045,0 1.607143,-0.775841 1.607143,-1.928571 V 6.1071451 C 16.244159,5.5193248 17.035714,4.341473 17.035714,2.9732172 17.035714,1.7333409 16.39439,0.63118375 15.428571,3.4592442e-6 V 1.9285745 L 13.5,3.8571456 11.571429,1.9285745 c 0,0 0,-1.93155737 0,-1.9285710407558 z m -6.4285719,0 C 4.432509,3.4592442e-6 3.8571429,0.48915504 3.8571429,0.96428899 H 1.9285714 L 0.32142857,3.2142886 1.9285714,5.4642881 H 3.8571429 V 16.392857 C 3.8571429,17.273438 4.3416617,18 5.1428571,18 5.9440526,18 6.4285714,17.320838 6.4285714,16.392857 V 5.4642881 H 9 V 0.96428899 H 6.4285714 C 6.4285714,0.47890224 5.9440526,3.4592442e-6 5.1428571,3.4592442e-6 Z M 13.5,15.428572 c 0.35504,0 0.642857,0.287817 0.642857,0.642857 0,0.35504 -0.287817,0.642857 -0.642857,0.642857 -0.355041,0 -0.642857,-0.287817 -0.642857,-0.642857 0,-0.35504 0.287816,-0.642857 0.642857,-0.642857 z" />
</svg>
