<?xml version="1.0" encoding="utf-8"?>
<!-- Generator: Adobe Illustrator 24.1.2, SVG Export Plug-In . SVG Version: 6.00 Build 0)  -->
<svg version="1.1"
	 id="Ebene_1" inkscape:version="1.0 (4035a4f, 2020-05-01)" sodipodi:docname="health_food.svg" xmlns:cc="http://creativecommons.org/ns#" xmlns:dc="http://purl.org/dc/elements/1.1/" xmlns:inkscape="http://www.inkscape.org/namespaces/inkscape" xmlns:rdf="http://www.w3.org/1999/02/22-rdf-syntax-ns#" xmlns:sodipodi="http://sodipodi.sourceforge.net/DTD/sodipodi-0.dtd" xmlns:svg="http://www.w3.org/2000/svg"
	 xmlns="http://www.w3.org/2000/svg" xmlns:xlink="http://www.w3.org/1999/xlink" x="0px" y="0px" viewBox="0 0 18 18"
	 style="enable-background:new 0 0 18 18;" xml:space="preserve">
<style type="text/css">
	.st0{fill:none;stroke:#FFFFFF;stroke-width:0.5;stroke-miterlimit:10;}
</style>
<sodipodi:namedview  bordercolor="#666666" borderopacity="1" gridtolerance="10" guidetolerance="10" id="namedview947" inkscape:current-layer="Ebene_1" inkscape:cx="99.497683" inkscape:cy="88.328918" inkscape:pageopacity="0" inkscape:pageshadow="2" inkscape:window-height="946" inkscape:window-maximized="0" inkscape:window-width="1379" inkscape:window-x="0" inkscape:window-y="23" inkscape:zoom="3.7444444" objecttolerance="10" pagecolor="#ffffff" showgrid="false">
	</sodipodi:namedview>
<path d="M0.5,17.5c1.8-1.8,7.4-2.6,11.8-7.1c1-1-0.1-2.9-1-3.5c3.8-2.3,6-2.5,6-2.5c-0.4-0.6,0.2-1.6,0.2-1.6
	C17.1,2.5,16.7,1.6,17,1c-0.6,0.3-1.5-0.1-1.8-0.5c0,0-1,0.6-1.6,0.2c0,0-0.2,2.2-2.5,6c-0.5-0.9-2.4-2-3.5-1
	C3.1,10.1,2.3,15.7,0.5,17.5z"/>
<line class="st0" x1="15.2" y1="0.5" x2="12.4" y2="5.5"/>
<line class="st0" x1="17.5" y1="2.8" x2="12.4" y2="5.5"/>
<line class="st0" x1="17" y1="1" x2="12.4" y2="5.5"/>
</svg>
