<?xml version="1.0" encoding="UTF-8" standalone="no"?>
<svg
   xmlns:dc="http://purl.org/dc/elements/1.1/"
   xmlns:cc="http://creativecommons.org/ns#"
   xmlns:rdf="http://www.w3.org/1999/02/22-rdf-syntax-ns#"
   xmlns:svg="http://www.w3.org/2000/svg"
   xmlns="http://www.w3.org/2000/svg"
   xmlns:sodipodi="http://sodipodi.sourceforge.net/DTD/sodipodi-0.dtd"
   xmlns:inkscape="http://www.inkscape.org/namespaces/inkscape"
   height="18"
   width="18"
   inkscape:version="1.0 (4035a4f, 2020-05-01)"
   sodipodi:docname="health_food.svg"
   xml:space="preserve"
   viewBox="0 0 18 18"
   y="0px"
   x="0px"
   id="Ebene_1"
   version="1.1"><metadata
   id="metadata951"><rdf:RDF><cc:Work
       rdf:about=""><dc:format>image/svg+xml</dc:format><dc:type
         rdf:resource="http://purl.org/dc/dcmitype/StillImage" /><dc:title></dc:title></cc:Work></rdf:RDF></metadata><defs
   id="defs949" /><sodipodi:namedview
   inkscape:current-layer="Ebene_1"
   inkscape:window-maximized="0"
   inkscape:window-y="23"
   inkscape:window-x="0"
   inkscape:cy="88.328918"
   inkscape:cx="99.497683"
   inkscape:zoom="3.7444444"
   showgrid="false"
   id="namedview947"
   inkscape:window-height="946"
   inkscape:window-width="1379"
   inkscape:pageshadow="2"
   inkscape:pageopacity="0"
   guidetolerance="10"
   gridtolerance="10"
   objecttolerance="10"
   borderopacity="1"
   bordercolor="#666666"
   pagecolor="#ffffff" />
<style
   id="style930"
   type="text/css">
	.st0{fill:#FFFFFF;}
</style>






<g
   transform="matrix(0.09943565,0.05975451,-0.05975451,0.09943565,5.6963149,-5.2763231)"
   id="g960"><path
     d="m 91.7,63 c 8,-33 19,-46 19,-46 l -2,-2 c 0,0 -8,10 -16,36 2,-24 12,-43 12,-43 l -2,-1 c 0,0 -7,14 -11,33 V 0 H 88.3 V 40 C 84.3,21 77.3,7 77.3,7 l -2,1 c 0,0 10,19 12,43 -8,-26 -16,-36 -16,-36 l -2,2 c 0,0 11,13 19,46 -8,-2 -19,1 -19,12 0,49 20.7,85 20.7,105 0,-20 20.7,-56 20.7,-105 0,-11 -11,-14 -19,-12 z"
     id="path932" /><polygon
     class="st0"
     points="40,83.8 90,85.3 40,86.8 "
     id="polygon934" /><polygon
     class="st0"
     points="40,120.2 90,121.7 40,123.2 "
     id="polygon936" /><polygon
     class="st0"
     points="40,102 90,103.5 40,105 "
     id="polygon938" /><polygon
     class="st0"
     points="140,92.9 90,94.4 140,95.9 "
     id="polygon940" /><polygon
     class="st0"
     points="140,129.3 90,130.8 140,132.3 "
     id="polygon942" /><polygon
     class="st0"
     points="140,111.1 90,112.6 140,114.1 "
     id="polygon944" /></g>
</svg>
