<?xml version="1.0" encoding="UTF-8" standalone="no"?>
<svg
   xmlns:dc="http://purl.org/dc/elements/1.1/"
   xmlns:cc="http://creativecommons.org/ns#"
   xmlns:rdf="http://www.w3.org/1999/02/22-rdf-syntax-ns#"
   xmlns:svg="http://www.w3.org/2000/svg"
   xmlns="http://www.w3.org/2000/svg"
   id="svg4"
   viewBox="0 0 18 18"
   height="18"
   width="18"
   version="1.1">
  <path
     style="stroke-width:0.86621749"
     id="path2"
     d="m 13.331087,16.267565 c -0.251203,0 -0.485081,-0.05197 -0.658324,-0.129933 C 12.057747,15.834456 11.62464,15.375361 11.19153,14.076035 10.732435,12.724735 9.9181907,12.092397 9.1212706,11.477382 8.4369588,10.948989 7.7266604,10.403272 7.111646,9.2858518 6.6525507,8.4716073 6.4013476,7.5447546 6.4013476,6.7391723 c 0,-2.4254091 1.9056785,-4.3310876 4.3310874,-4.3310876 2.42541,0 4.331088,1.9056785 4.331088,4.3310876 h 1.732434 c 0,-3.4042349 -2.659286,-6.06352264 -6.063522,-6.06352264 -3.4042347,0 -6.0635224,2.65928774 -6.0635224,6.06352264 0,1.0914341 0.3291626,2.2954764 0.9268527,3.3782487 0.8055823,1.429258 1.7151107,2.148219 2.4687199,2.728585 0.7016362,0.537055 1.2040424,0.926853 1.481232,1.775746 0.5197308,1.576516 1.1867178,2.460057 2.3647748,3.075072 C 12.352261,17.896054 12.837343,18 13.331087,18 a 3.4648701,3.4648701 0 0 0 3.46487,-3.46487 h -1.732435 a 1.732435,1.732435 0 0 1 -1.732435,1.732435 M 5.2232918,1.2300289 3.9932629,0 C 2.26949,1.7237729 1.2040425,4.105871 1.2040425,6.7391723 c 0,2.6333012 1.0654475,5.0153997 2.7892204,6.7391727 L 5.2146296,12.256978 C 3.8026951,10.845043 2.9364775,8.9047161 2.9364775,6.7391723 c 0,-2.1655438 0.8662176,-4.105871 2.2868143,-5.5091434 M 8.5668914,6.7391723 A 2.1655438,2.1655438 0 0 0 10.732435,8.9047161 2.1655438,2.1655438 0 0 0 12.897979,6.7391723 2.1655438,2.1655438 0 0 0 10.732435,4.5736285 2.1655438,2.1655438 0 0 0 8.5668914,6.7391723 Z" />
</svg>
