<?xml version="1.0" encoding="UTF-8"?>
<svg width="18" height="18" version="1.1" viewBox="0 0 491.4 491.4" xml:space="preserve" xmlns="http://www.w3.org/2000/svg" xmlns:cc="http://creativecommons.org/ns#" xmlns:dc="http://purl.org/dc/elements/1.1/" xmlns:rdf="http://www.w3.org/1999/02/22-rdf-syntax-ns#"><metadata><rdf:RDF><cc:Work rdf:about=""><dc:format>image/svg+xml</dc:format><dc:type rdf:resource="http://purl.org/dc/dcmitype/StillImage"/><dc:title/></cc:Work></rdf:RDF></metadata>

	<path d="m471.07 2.673c-98.5-11.5-149.6 16.1-176.2 44.8-50 53.9-42 155.8-53.2 193.9-19.3 18-32.6 40.9-42.7 64.8-5.6-10.5-12.4-20.2-20.9-28.3-9.6-96.6-22.9-114.6-36.5-130.3-18.8-20.8-57.8-40-123-32.3-7.3 0-13.5 5.2-16.7 11.5-3.1 7.3-2.1 14.6 2.1 20.8 11.5 14.6 20.8 31.3 28.1 47.9 2.1 4.2 20.3 56.3 46.9 74 11.5 9.4 24.7 15.9 37.5 18.8 42.9 9.7 56.3 52.1 62.5 74l-11.5 104.2c-1 11.5 6.3 21.9 17.7 22.9 11.2 1.2 20-7.3 20.8-17.7 9.8-117 33.3-174 65.7-202.2 12.5-12 35.4-20.8 50-26.1 17.7-7.3 36.9-15.5 54.2-27.1 38-25.6 63.6-101.1 66.7-107.3 11.5-26.1 26.1-51.1 42.7-74 12.5-20.6-6.5-33.2-14.2-32.3zm-396.1 188.6c-2.1-4.2-13.5-28.1-17.7-36.5 58.6-1.2 66.7 42.7 70.9 56.3 2.1 8.3 4.2 25 6.3 40.6-2.2 0-40.5-5-59.5-60.4zm323.1-80.3c-28.8 55.5-22.5 72.9-111.5 102.1 6.8-83.3 26.1-125.1 39.6-140.7 13.5-14.5 49.7-36.2 107.3-32.2-9.3 16.7-32.3 64.6-35.4 70.8z"/>
















</svg>
