<?xml version="1.0" encoding="UTF-8" standalone="no"?>
<svg
   xmlns:dc="http://purl.org/dc/elements/1.1/"
   xmlns:cc="http://creativecommons.org/ns#"
   xmlns:rdf="http://www.w3.org/1999/02/22-rdf-syntax-ns#"
   xmlns:svg="http://www.w3.org/2000/svg"
   xmlns="http://www.w3.org/2000/svg"
   id="svg6"
   xml:space="preserve"
   viewBox="0 0 18 18"
   version="1.1"
   height="18"
   width="18">
<path
   style="stroke-width:0.0367781"
   id="path4"
   d="M 17.325061,0.09828769 C 13.701955,-0.32460485 11.822355,0.69033723 10.843932,1.7457299 9.0047918,3.7278088 9.2990542,7.4750044 8.8870869,8.8760657 8.1771789,9.5379845 7.6879677,10.380092 7.3164614,11.258973 7.1104778,10.872854 6.8603547,10.516153 6.5477009,10.21829 6.194586,6.6659926 5.7053748,6.0040738 5.2051287,5.4267336 4.5136121,4.6618497 3.079083,3.955803 0.68084447,4.2389572 c -0.26851444,0 -0.4965678,0.1912209 -0.61427275,0.4228925 -0.11402668,0.2684448 -0.07724389,0.5368897 0.07724387,0.7648839 0.4230022,0.5368896 0.76508223,1.1510031 1.03359661,1.7614393 0.077244,0.1544477 0.7466909,2.0703348 1.7251133,2.7212215 0.4230022,0.3456686 0.9085352,0.5846946 1.379355,0.6913376 1.5779821,0.3567 2.0708715,1.915887 2.298925,2.721221 l -0.4230023,3.831774 c -0.036783,0.422893 0.2317317,0.805335 0.6510556,0.842108 0.4119673,0.04413 0.735656,-0.268445 0.7650822,-0.650887 C 7.9344125,13.042476 8.7988082,10.9464 9.9905709,9.9093944 10.450356,9.4681153 11.292682,9.1445105 11.829711,8.9496122 12.480766,8.6811674 13.186996,8.3796267 13.823338,7.9530568 15.221085,7.0116613 16.162725,4.2352798 16.276751,4.0072856 16.699753,3.0475034 17.236782,2.1281718 17.847377,1.2860641 18.307162,0.52853487 17.608289,0.06519175 17.325061,0.09828769 Z M 2.7553943,7.0337252 C 2.6781505,6.8792775 2.2588266,6.0003965 2.1043388,5.6915011 c 2.155472,-0.044128 2.4534127,1.5702183 2.6079005,2.0703347 0.077244,0.3052181 0.1544877,0.9193316 0.2317315,1.4929945 -0.080922,0 -1.4897033,-0.1838663 -2.1885765,-2.2211051 z M 14.639917,4.0808321 c -1.059344,2.0409162 -0.827613,2.680771 -4.101282,3.7545503 0.250123,-3.0632129 0.960031,-4.6003353 1.456599,-5.1739982 0.496567,-0.5332124 1.828104,-1.3311922 3.946794,-1.1840991 -0.34208,0.6141135 -1.188084,2.3755528 -1.302111,2.603547 z" />
</svg>
