<?xml version="1.0" encoding="UTF-8"?>
<svg width="18" height="18" version="1.1" viewBox="0 0 18 18" xmlns="http://www.w3.org/2000/svg" xmlns:cc="http://creativecommons.org/ns#" xmlns:dc="http://purl.org/dc/elements/1.1/" xmlns:rdf="http://www.w3.org/1999/02/22-rdf-syntax-ns#">
 <metadata>
  <rdf:RDF>
   <cc:Work rdf:about="">
    <dc:format>image/svg+xml</dc:format>
    <dc:type rdf:resource="http://purl.org/dc/dcmitype/StillImage"/>
    <dc:title/>
   </cc:Work>
  </rdf:RDF>
 </metadata>
 <rect id="canvas" y="4" width="14" height="14" fill="none" visibility="hidden"/>
 <path d="m10.944 12.259a1.9286 1.9286 0 0 1-1.9286 1.9286 1.9286 1.9286 0 0 1-1.9286-1.9286 1.9286 1.9286 0 0 1 1.9286-1.9286 1.9286 1.9286 0 0 1 1.9286 1.9286zm-8.3723-12.259v18h12.857v-18zm6.5189 1.2455c1.4201 0 2.5714 1.1513 2.5714 2.5714s-1.1513 2.5714-2.5714 2.5714c-1.4201 0-2.5714-1.1513-2.5714-2.5714s1.1513-2.5714 2.5714-2.5714zm-0.077845 6.4536a4.5 4.5 0 0 1 4.5 4.4999 4.5 4.5 0 0 1-4.5 4.5 4.5 4.5 0 0 1-4.5-4.5 4.5 4.5 0 0 1 4.5-4.4999z"/>
</svg>
