<?xml version="1.0" encoding="UTF-8" standalone="no"?>
<svg
   xmlns:dc="http://purl.org/dc/elements/1.1/"
   xmlns:cc="http://creativecommons.org/ns#"
   xmlns:rdf="http://www.w3.org/1999/02/22-rdf-syntax-ns#"
   xmlns:svg="http://www.w3.org/2000/svg"
   xmlns="http://www.w3.org/2000/svg"
   height="18"
   width="18"
   fill="#000000"
   version="1.1"
   x="0px"
   y="0px"
   viewBox="0 0 18 18"
   xml:space="preserve"
   id="svg12"><path
     style="stroke-width:0.189481"
     d="m 9.0064751,1.856724 c -0.241588,0 -0.4832498,0.075644 -0.6916786,0.2272289 L 0.48909369,7.7306271 C -0.09829662,8.1474847 -0.1739409,9.000148 0.35660519,9.5306941 0.77346283,9.9475518 1.4553715,9.9472558 1.9290733,9.6061904 L 8.5801434,4.8125497 c 0.265273,-0.1894807 0.6062645,-0.1894807 0.8715375,0 l 6.6884481,4.831759 c 0.208429,0.1515846 0.45505,0.2272287 0.682427,0.2272287 0.435805,0 0.852589,-0.2273769 1.061018,-0.6631826 0.265273,-0.5305461 0.05662,-1.1747806 -0.41708,-1.515846 L 14.719024,5.702961 V 3.2967038 c 0,-0.3979096 -0.321896,-0.7201751 -0.719805,-0.7201751 H 13.26017 c -0.39791,0 -0.720175,0.3222655 -0.720175,0.7201751 V 4.1304929 L 9.6977838,2.0839529 C 9.489355,1.9323683 9.248063,1.856724 9.0064751,1.856724 Z m -0.00962,4.2821909 -6.4045971,4.6234041 v 4.471672 c 0,0.49265 0.3980576,0.909285 0.9096556,0.909285 h 3.7518665 v -4.414679 c 0,-0.322117 0.2651991,-0.587317 0.5873164,-0.587317 H 10.19073 c 0.322117,0 0.587316,0.2652 0.587316,0.587317 v 4.414679 h 3.732623 c 0.49265,0 0.909655,-0.397687 0.909655,-0.909285 v -4.471672 z"
     id="path2" /></svg>
