<?xml version="1.0" encoding="UTF-8" standalone="no"?>
<svg
   width="18"
   height="18"
   viewBox="0 0 18 18"
   id="svg2">
  <path
     style="stroke-width:1.28571427"
     d="M 0.64285714,3.8571429 C 0.28671429,3.8571429 0,4.1438572 0,4.5000001 v 0.6428571 5.1428568 1.285714 0.642858 1.928571 H 1.2857143 V 12.214286 11.571428 H 16.714286 V 13.5 14.142857 H 17.357143 18 V 13.5 11.571428 10.285714 7.7142858 7.0714286 c 0,-0.3561428 -0.286714,-0.6428571 -0.642857,-0.6428571 -0.356143,0 -0.642857,0.2867143 -0.642857,0.6428571 V 7.7142858 10.285714 H 1.2857143 V 5.1428572 4.5000001 C 1.2857143,4.1438572 0.999,3.8571429 0.64285714,3.8571429 Z M 4.5,5.1428572 c -1.0651204,0 -1.9285714,0.863451 -1.9285714,1.9285714 0,1.0651205 0.863451,1.9285715 1.9285714,1.9285715 1.0651204,0 1.9285714,-0.863451 1.9285714,-1.9285716 0,-1.0651203 -0.863451,-1.9285713 -1.9285714,-1.9285713 z m 3.2142857,1.2857143 v 2.5714286 h 7.7142853 c 0,-1.2857144 -1.332225,-2.5714286 -2.571428,-2.5714286 z"
     id="hotel" />
</svg>
