<?xml version="1.0" encoding="UTF-8" standalone="no"?>
<!DOCTYPE svg PUBLIC "-//W3C//DTD SVG 1.1//EN" "http://www.w3.org/Graphics/SVG/1.1/DTD/svg11.dtd">
<svg width="100%" height="100%" viewBox="0 0 18 18" version="1.1" xmlns="http://www.w3.org/2000/svg" xmlns:xlink="http://www.w3.org/1999/xlink" xml:space="preserve" xmlns:serif="http://www.serif.com/" style="fill-rule:evenodd;clip-rule:evenodd;stroke-linejoin:round;stroke-miterlimit:2;">
    <g transform="matrix(0.0999815,0,0,0.0999815,-0.013298,0.0820138)">
        <path d="M49.3,13.2C59,23.4 67,34.8 73.8,47.1C75.9,50.9 76.8,54.8 75.6,59.2C73.4,67.4 75.9,74.4 81.8,80.3C82.9,81.4 84.3,82.4 83.5,84.4C83.2,85 83.9,85.4 84.3,85.8C92.8,93.7 101,101.9 109.2,110.1C109.9,110.8 110.8,111.4 111.8,111.4C115,111.2 117.5,112.8 119.6,115C127.1,122.7 135.2,129.7 143.2,136.8C148.8,141.7 154.4,146.7 159.9,151.7C161.7,153.3 163.5,154.9 164.9,156.8C167.5,160.5 167.1,164.9 163.8,168.4C160.6,171.7 155.6,172.4 152,170C150.1,168.8 148.9,167 147.4,165.4C140.6,158.3 133.9,151.1 127,144C121.1,137.9 115.5,131.4 109.2,125.6C107.1,123.7 105.8,121.4 105.7,118.4C105.6,116.2 103.9,114.9 102.4,113.6C95.1,107.1 88.3,100.1 81.5,93.1C80.8,92.4 80.2,91.6 79.5,90.9C79.2,90.6 78.7,90 78.3,90C75.4,90.4 74.1,88 72.5,86.5C66.9,81.4 60.5,79.9 53.3,81.6C48.6,82.7 44.5,82 40.4,79.6C27.3,71.8 15.7,62.7 5,52.3C4.6,51.9 4.2,51.5 3.8,51.1C-0.7,46.3 -1.2,43.1 2.1,37.3C8.4,26 17.1,16.8 28.1,10C30.2,8.7 32.2,7.3 34.3,6.2C37.7,4.4 40.7,5 43.5,7.5C45.6,9.2 47.4,11.2 49.3,13.2ZM33.5,67C34.3,67.3 35,67.4 35.4,66.3C35.9,65.1 36.1,63.9 36.2,62.6C37.5,47.7 38.8,32.8 40.1,17.9C40.2,16.9 40.1,15.9 40,14.9C39.9,14.2 39.7,13.5 38.8,13.5C37.9,13.5 37.6,14.1 37.4,14.8C37.1,15.8 36.9,16.9 36.8,17.9C35.7,29.8 34.7,41.7 33.7,53.6C33.4,57.1 33.1,60.6 32.9,64.1C32.8,65.1 32.9,66.1 33.5,67ZM44.7,21.8C44,22.9 43.8,24.1 43.7,25.3C42.5,39.3 41.2,53.3 40,67.2C39.9,68.1 40,69.1 40.1,70C40.2,70.7 40.4,71.4 41.3,71.4C42.1,71.4 42.4,70.9 42.6,70.3C42.8,69.5 43.1,68.6 43.2,67.7C44.4,53.7 45.7,39.6 46.9,25.6C47,24.5 47,23.5 46.7,22.4C46.3,21.3 45.6,21.4 44.7,21.8ZM26.3,61.4C27.1,61.9 27.8,61.8 28.3,60.9C28.7,60.1 28.9,59.2 29,58.4C30.1,45.7 31.2,32.9 32.3,20.2C32.4,19.3 32.4,18.3 32.1,17.4C31.9,16.9 31.6,16.5 31,16.5C30.4,16.5 30.1,16.7 29.8,17.2C29.3,18.2 29.1,19.2 29.1,20.3C28.5,27.2 27.9,34 27.3,40.9C26.8,46.6 26.3,52.3 25.8,57.9C25.7,59.1 25.7,60.3 26.3,61.4ZM51.6,29.3C51,30.2 50.9,31.3 50.8,32.3C49.9,42.2 49,52 48.2,61.9C48.1,63.2 47.6,65.1 49.4,65.3C51.5,65.6 51.2,63.5 51.4,62.1C52.3,52.2 53.2,42.3 54,32.4C54.1,31.5 54.2,30.6 53.8,29.8C53.4,28.8 52.3,28.5 51.6,29.3ZM19.4,55.8C20.4,56.6 21.6,56 21.9,54.4C22.2,52.2 22.4,49.9 22.6,47.7C23.2,40.5 23.9,33.4 24.5,26.2C24.6,25.2 24.8,23.9 23.3,23.6C21.8,23.3 21.5,24.6 21.4,25.6C20.5,34.9 19.7,44.3 18.9,53.6C18.7,54.4 18.9,55.2 19.4,55.8ZM57.8,38.2C57.7,38.4 57.5,38.8 57.5,39.1C57,44.8 56.5,50.4 56,56.1C55.9,57.4 56.7,57.9 57.8,58C58.9,58.1 59.7,57.8 59.9,56.6C60.4,50.9 60.9,45.1 61.4,39.4C61.5,38.7 61.2,38 60.4,37.8C59.5,37.6 58.7,37.4 57.8,38.2ZM158.3,158.8C156.4,157.3 154.7,155.9 152.9,154.6C151.8,153.9 150.4,153 149.3,154C148,155.1 148.9,156.6 149.6,157.8C150.7,159.6 152,161.1 153.1,162.9C153.8,164.1 154.8,164.5 156.1,164.3C157.4,164.1 158.3,163.5 158.8,162.3C159.2,161 159,159.8 158.3,158.8ZM12.4,48.6C12.9,49 13.6,49.1 14.3,48.8C15.1,48.6 15.2,47.8 15.2,47.1C15.4,43.2 15.6,39.2 15.8,35.3C15.9,34.2 15.7,33.3 14.3,33.2C12.9,33.1 12.6,33.9 12.6,35.1C12.4,39 12.2,43 12,46.9C11.9,47.5 11.8,48.1 12.4,48.6Z" style="fill-rule:nonzero;"/>
        <path d="M170.8,23.3C176.2,28.8 180,35 180,43.1C180,54.8 169.7,65.4 158,65.5C154,65.6 150,65.2 146.1,64.5C139.9,63.3 134.4,64.5 129.9,69.8C125.6,75 120.5,79.5 115.8,84.3C98.6,102.1 80.9,119.6 64,137.7C58.6,143.4 53.3,149.2 48,155C44.6,158.8 41,162.4 37.5,166.2C35,168.8 32.6,171.4 30.2,174.1C29.3,175.1 28.4,175.2 27.1,174.8C23.3,173.4 20.8,170.8 19.4,167C19,165.9 19,165.1 20,164.2C24.2,160.3 28.5,156.5 32.6,152.6C35.8,149.5 39.1,146.4 42.4,143.4C59.2,127.8 75.8,112 92.1,95.9C102.1,86 112.4,76.3 122.3,66.3C124.1,64.5 126.2,63 127.8,60.9C128.8,59.7 129.4,58.4 129.7,56.8C130.2,53.2 130.2,49.7 129.5,46.1C128.1,38.6 128,31.1 132.7,24.4C140.4,13.5 153.9,11.1 165.2,18.7C167.1,20 169.1,21.5 170.8,23.3ZM27.6,166.5C27.9,166.8 28.2,167.1 28.5,167.4C30.2,169 30.4,169 31.9,167.2C33.3,165.5 34.7,163.7 36.1,162C37,160.9 36.8,160 35.8,159.2C34.8,158.4 34.1,156.7 32.4,158.1C30.4,159.7 28.4,161.3 26.4,162.8C25.5,163.5 25.5,164.3 26.3,165.1C26.8,165.6 27.2,166.1 27.6,166.5Z" style="fill-rule:nonzero;"/>
    </g>
</svg>
