<?xml version="1.0" encoding="UTF-8" standalone="no"?>
<svg
   viewBox="0 0 18 18"
   height="18"
   width="18">
  <path
     d="M 6.4285714,0 C 4.2983302,0 2.5714286,1.7269016 2.5714286,3.8571429 c 0,0.4571142 0.095115,0.8788221 0.2410714,1.2857142 h 7.232143 C 10.190599,4.735965 10.285714,4.3142571 10.285714,3.8571429 10.285714,1.7269016 8.5588127,0 6.4285714,0 Z M 11.571429,0 C 11.052182,0 10.57715,0.13539214 10.125,0.32142857 c 0.884536,0.92367373 1.446429,2.15583353 1.446429,3.53571433 0,0.4458553 -0.08861,0.8730126 -0.200893,1.2857142 H 15.1875 C 15.333456,4.735965 15.428571,4.3142571 15.428571,3.8571429 15.428571,1.7269016 13.701669,0 11.571429,0 Z M 4.1785714,6.4285714 9,18 13.821429,6.4285714 Z" />
</svg>
