<?xml version="1.0" encoding="UTF-8"?>
<svg width="18" height="18" enable-background="new 0 0 100 100" fill="#000000" version="1.1" viewBox="0 0 18 18" xml:space="preserve" xmlns="http://www.w3.org/2000/svg"><path d="m9 0.095842c-0.34024 0-0.61641 0.27617-0.61641 0.61641v0.48308c-3.7665 0.31341-6.7349 3.4779-6.7361 7.3235v0.00193c0 0.34024 0.27617 0.61641 0.61641 0.61641 0.34005 0 0.61448-0.27617 0.61448-0.61641v-0.00193c0.00115-0.89767 0.73302-1.627 1.6309-1.627 0.89863 0 1.629 0.73032 1.629 1.6289 0 0.34024 0.27616 0.61641 0.61641 0.61641 0.31149 0 0.56747-0.23139 0.60868-0.53139-0.00135-0.026571-0.00193-0.052586-0.00193-0.079243 0-0.90477 0.73385-1.6386 1.6386-1.6386 0.90477 0 1.6386 0.73384 1.6386 1.6386 0 0.027-5.9e-4 0.052586-2e-3 0.079243 0.04217 0.29979 0.29758 0.53139 0.60868 0.53139 0.34005 0 0.61641-0.27617 0.61641-0.61641 0-0.89863 0.73032-1.6289 1.629-1.6289 0.8649 0 1.5751 0.67641 1.627 1.5285 5.75e-4 0.033429 2e-3 0.066943 2e-3 0.1005 0 0.34024 0.27404 0.61641 0.61448 0.61641h2e-3c0.34006 0 0.61641-0.27617 0.61641-0.61641 0-0.051-9.88e-4 -0.10067-0.0039-0.15073-0.076518-3.7776-3.0154-6.8646-6.7323-7.1747v-0.48308c0-0.34024-0.27616-0.61641-0.61641-0.61641zm0 7.2713c-0.22695 0-0.43795 0.0672-0.61641 0.1797v7.4955c0 0.89863-0.73032 1.6309-1.629 1.6309-0.89863 0-1.629-0.73225-1.629-1.6309 0-0.34007-0.27617-0.61641-0.61641-0.61641-0.34005 0-0.61641 0.27617-0.61641 0.61641 0 1.5778 1.284 2.8618 2.8618 2.8618 1.5778 0 2.8618-1.2838 2.8618-2.8618v-7.4955c-0.17865-0.1125-0.38984-0.1797-0.61641-0.1797z" fill="#000" stroke="#000" stroke-width=".19169"/></svg>
