<?xml version="1.0" encoding="UTF-8" standalone="no"?>
<svg
   xmlns:dc="http://purl.org/dc/elements/1.1/"
   xmlns:cc="http://creativecommons.org/ns#"
   xmlns:rdf="http://www.w3.org/1999/02/22-rdf-syntax-ns#"
   xmlns:svg="http://www.w3.org/2000/svg"
   xmlns="http://www.w3.org/2000/svg"
   version="1.1"
   id="svg109"
   width="18"
   height="18"
   viewBox="0 0 18 18">
  <metadata
     id="metadata8">
    <rdf:RDF>
      <cc:Work
         rdf:about="">
        <dc:format>image/svg+xml</dc:format>
        <dc:type
           rdf:resource="http://purl.org/dc/dcmitype/StillImage" />
        <dc:title></dc:title>
      </cc:Work>
    </rdf:RDF>
  </metadata>
  <defs
     id="defs6" />
  <path
     style="opacity:1;fill:#000000;fill-opacity:1;fill-rule:evenodd;stroke:none;stroke-width:5.72642;stroke-linecap:square;stroke-linejoin:miter;stroke-miterlimit:4;stroke-dasharray:none;stroke-opacity:1;paint-order:stroke fill markers"
     d="M 1.6799665,0 0,6.1875 H 3.6788504 V 16.558593 H 1.9486607 V 18 H 6.8529575 V 16.558593 H 5.1227678 V 6.1875 H 8.8016182 L 7.1065849,0 Z M 14.459264,0.69810268 a 1.5288058,1.5288058 0 0 0 -1.466518,1.10491082 1.5288058,1.5288058 0 0 0 -0.364119,-0.045201 1.5288058,1.5288058 0 0 0 -1.529297,1.5292968 1.5288058,1.5288058 0 0 0 0.620257,1.2254465 1.5288058,1.5288058 0 0 0 -0.620257,1.2279576 1.5288058,1.5288058 0 0 0 1.529297,1.5292969 1.5288058,1.5288058 0 0 0 0.384208,-0.050224 1.5288058,1.5288058 0 0 0 0.921596,0.95173 V 11.129464 H 10.983817 L 12.337333,18 h 4.324218 L 18,11.129464 H 14.979074 V 8.1738282 a 1.5288058,1.5288058 0 0 0 0.97433,-1.1099331 1.5288058,1.5288058 0 0 0 0.517299,0.095424 A 1.5288058,1.5288058 0 0 0 18,5.6300223 1.5288058,1.5288058 0 0 0 17.517857,4.5200893 1.5288058,1.5288058 0 0 0 18,3.4076451 1.5288058,1.5288058 0 0 0 16.470703,1.8783482 1.5288058,1.5288058 0 0 0 15.96596,1.96875 1.5288058,1.5288058 0 0 0 14.459264,0.69810268 Z m 0.0904,2.64676342 a 1.1371828,1.1371828 0 0 1 1.137557,1.1375557 1.1371828,1.1371828 0 0 1 -1.137557,1.1375559 1.1371828,1.1371828 0 0 1 -1.137555,-1.1375559 1.1371828,1.1371828 0 0 1 1.137555,-1.1375557 z"
     id="rect4498-1" />
</svg>
