<?xml version="1.0" encoding="UTF-8" standalone="no"?>
<!DOCTYPE svg PUBLIC "-//W3C//DTD SVG 1.1//EN" "http://www.w3.org/Graphics/SVG/1.1/DTD/svg11.dtd">
<svg width="100%" height="100%" viewBox="0 0 18 18" version="1.1" xmlns="http://www.w3.org/2000/svg" xmlns:xlink="http://www.w3.org/1999/xlink" xml:space="preserve" xmlns:serif="http://www.serif.com/" style="fill-rule:evenodd;clip-rule:evenodd;stroke-linejoin:round;stroke-miterlimit:2;">
    <g transform="matrix(0.1,0,0,0.1,0,0.005)">
        <g>
            <path d="M6,108.7C6,107.2 7.3,105.9 8.8,105.9L24.1,105.9C25.6,105.9 26.9,107.2 26.9,108.7L26.9,159C26.9,160.5 25.6,161.8 24.1,161.8L8.8,161.8C7.3,161.8 6,160.5 6,159L6,108.7Z" style="fill-rule:nonzero;"/>
            <path d="M120.4,159C120.4,160.5 119.1,161.8 117.6,161.8L102.3,161.8C100.8,161.8 99.5,160.5 99.5,159L99.5,108.8C99.5,107.3 100.8,106 102.3,106L117.6,106C119.1,106 120.4,107.3 120.4,108.8L120.4,159Z" style="fill-rule:nonzero;"/>
            <path d="M98.1,115.7C98.1,117.2 96.8,118.5 95.3,118.5L31.1,118.5C29.6,118.5 28.3,117.2 28.3,115.7L28.3,72.4C28.3,70.9 29.6,69.6 31.1,69.6L95.3,69.6C96.8,69.6 98.1,70.9 98.1,72.4L98.1,115.7Z" style="fill-rule:nonzero;"/>
            <path d="M98.1,131C98.1,132.5 96.8,133.8 95.3,133.8L31.1,133.8C29.6,133.8 28.3,132.5 28.3,131L28.3,122.6C28.3,121.1 29.6,119.8 31.1,119.8L95.3,119.8C96.8,119.8 98.1,121.1 98.1,122.6L98.1,131Z" style="fill-rule:nonzero;"/>
            <path d="M98.1,159C98.1,160.5 96.8,161.8 95.3,161.8L31.1,161.8C29.6,161.8 28.3,160.5 28.3,159L28.3,138C28.3,136.5 29.6,135.2 31.1,135.2L95.3,135.2C96.8,135.2 98.1,136.5 98.1,138L98.1,159Z" style="fill-rule:nonzero;"/>
        </g>
        <path d="M148.9,50.1L174,50.1L160,8.3L132.1,8.3L118.2,50.1L141.9,50.1L141.9,154.8L125.2,154.8L125.2,161.7L167,161.7L167,154.8L148.9,154.8L148.9,50.1Z" style="fill-rule:nonzero;"/>
    </g>
</svg>
