<?xml version="1.0" encoding="UTF-8"?>
<!-- Created with Inkscape (http://www.inkscape.org/) -->
<svg width="1" height="1" version="1.1" viewBox="0 0 18 18" xmlns="http://www.w3.org/2000/svg" xmlns:cc="http://creativecommons.org/ns#" xmlns:dc="http://purl.org/dc/elements/1.1/" xmlns:rdf="http://www.w3.org/1999/02/22-rdf-syntax-ns#">
 <metadata>
  <rdf:RDF>
   <cc:Work rdf:about="">
    <dc:format>image/svg+xml</dc:format>
    <dc:type rdf:resource="http://purl.org/dc/dcmitype/StillImage"/>
    <dc:title/>
   </cc:Work>
  </rdf:RDF>
 </metadata>
 <rect id="canvas" width="14" height="14" fill="none" visibility="hidden"/>
 <path id="jewellery" d="m7.1115-0.020089-1.9287 2.5714h7.7147l-1.9287-2.5714zm-1.9287 3.8571 3.8573 3.5357 3.8573-3.5357zm-0.16072 2.7321c-1.4344 1.1937-2.4108 2.9946-2.4108 4.9821 0 3.5334 3.0083 6.4688 6.3887 6.4688 3.3804 0 6.3887-2.9354 6.3887-6.4688 0-1.9726-0.95432-3.7482-2.3707-4.942l-1.4465 1.3259c1.1836 0.86508 2.009 2.268 2.009 3.6161 0 2.2005-2.2269 4.4598-4.5806 4.4598-2.3537 0-4.5404-2.2594-4.5404-4.4598 0-1.3577 0.85206-2.7522 2.0492-3.6161z" stroke-width="1.2857"/>
</svg>
