<?xml version="1.0" encoding="UTF-8" standalone="no"?>
<svg
   height="18"
   width="18"
   viewBox="0 0 18 18">
  <path
     d="M 6.1890341,0 C 5.8385009,0 5.5562216,0.323625 5.5562216,0.7255 v 2.189275 h 6.2547444 c 0.206325,0 0.396518,0.04625 0.568,0.124625 l 0.350793,-0.8996188 h 1.026691 l 2.552855,6.5541501 H 15.367244 L 14.756806,7.0128438 h -1.494844 v 4.4193312 l 2.472825,2.834869 v -3.566763 h 1.6324 C 17.717719,10.700281 18,10.376656 18,9.9747875 V 0.7255 C 18,0.32360625 17.717721,0 17.367187,0 Z m 7.0520879,3.01385 -0.224488,0.596125 c 0.1561,0.251875 0.245325,0.547625 0.245325,0.8484812 v 1.8170063 h 1.212828 z M 0.6328125,3.7329563 C 0.28227875,3.7329563 0,4.0565625 0,4.45845 v 9.249294 c 0,0.401875 0.28227875,0.725493 0.6328125,0.725493 H 2.2652131 V 18 l 3.1112642,-3.566763 h 6.4344887 c 0.350531,0 0.632812,-0.323625 0.632812,-0.725493 V 4.45845 c 0,-0.401875 -0.282281,-0.7254937 -0.632812,-0.7254937 z m 4.6342329,2.1005499 h 0.1541763 c 0.1026656,0 0.2361325,0.00937 0.4003981,0.02875 0.1847981,0.019375 0.3181363,0.029375 0.4002694,0.029375 0.020531,0.077813 1.088e-4,0.185 -0.061494,0.321125 -0.041069,0.058125 -0.061619,0.1065626 -0.061619,0.1455 -0.041069,0.09725 -0.072151,0.2526251 -0.092684,0.4666251 -0.020531,0.058125 -0.0303,0.097937 -0.0303,0.1173749 0.1026656,0 0.2155794,-0.02 0.3387781,-0.05875 0.5133313,-0.058125 0.9747482,-0.145375 1.3854113,-0.2620625 V 7.321375 C 7.1455879,7.4575625 6.5810186,7.5646875 6.0060898,7.6425 H 5.8519137 c -0.020531,0.1945 -0.040956,0.427625 -0.061494,0.6999313 0.041069,0 0.1032369,-0.00937 0.18537,-0.02875 0.3490625,-0.058125 0.6050806,-0.097125 0.7693469,-0.116625 0,-0.019375 0.010687,-0.058125 0.031187,-0.1166875 v -0.174875 c -0.020562,-0.077813 -1.088e-4,-0.1268125 0.0615,-0.14625 l 0.7391762,0.1165625 0.031062,0.087937 c -0.020562,0.03875 -0.051625,0.116625 -0.092688,0.2333125 0.4927938,0.03875 0.89294,0.185 1.2009375,0.437875 0.4722625,0.447375 0.70875,0.9329437 0.70875,1.4581492 v 0.204563 c -0.020562,0.700275 -0.420675,1.283806 -1.2009375,1.750656 -0.308,0.175063 -0.5550187,0.262875 -0.7398156,0.262875 h -0.030437 l -0.154175,-0.14625 C 7.0738337,11.989863 6.899515,11.86405 6.7763149,11.786238 7.2896462,11.708425 7.7306381,11.5523 8.1002362,11.318863 c 0.3696,-0.31125 0.5652313,-0.670994 0.5857688,-1.079494 V 10.122681 C 8.665442,9.6753063 8.4494112,9.3054438 8.0387462,9.0136625 7.9566152,8.9555375 7.8339337,8.907225 7.6696712,8.8682875 H 7.638485 C 7.556354,8.8295375 7.443435,8.7997875 7.2997037,8.7803505 7.0327725,9.5000818 6.5917787,10.2196 5.9757835,10.939325 c 0.0616,0.1945 0.1327675,0.36 0.2149006,0.496188 -0.1026662,0.01938 -0.2458975,0.07775 -0.4306962,0.175001 -0.1026657,0.01938 -0.1746013,0.03875 -0.2156682,0.05813 -0.0616,-0.03875 -0.1131093,-0.106501 -0.1541762,-0.203813 -0.1437319,0.09725 -0.2566463,0.164875 -0.3387788,0.203813 -0.4311968,0.291812 -0.8109151,0.437875 -1.1394458,0.437875 h -0.12297 C 3.3166858,12.067631 3.0597737,11.737469 3.0187074,11.115 V 10.998312 C 3.0392384,10.395312 3.3370031,9.8210812 3.9119318,9.276425 4.1788631,9.02355 4.5585818,8.7906125 5.0513776,8.576625 5.0719086,8.4404375 5.0824466,8.2360625 5.0824466,7.96375 5.1029776,7.7886875 5.1128716,7.711 5.1128716,7.7304375 h -0.461889 c -0.225865,0.019375 -0.4000544,0.02875 -0.5232531,0.02875 H 3.6658414 c -0.020531,0 -0.051619,-0.00938 -0.092684,-0.02875 L 3.4501739,7.496375 C 3.4296429,7.43825 3.4090869,7.3898125 3.3885549,7.350875 V 7.3215 C 3.3269549,7.2048125 3.3164229,7.1178125 3.3574929,7.0594375 h 0.3387788 c 0.1437325,0.019375 0.2467531,0.02875 0.3083525,0.02875 h 0.4618887 c 0.3079969,0 0.5542494,-0.019375 0.739049,-0.05875 0,-0.03875 0.00976,-0.097062 0.0303,-0.174875 0.041069,-0.2918125 0.062387,-0.524875 0.062387,-0.6999312 0,-0.1166876 -0.010662,-0.224 -0.031194,-0.32125 z M 6.6221594,8.751475 C 6.2730969,8.8096 6.0268431,8.8681 5.883111,8.926475 c -0.020531,0 -0.051619,0.00938 -0.092685,0.02875 v 0.6711813 c 0,0.350125 0.010531,0.5256877 0.031069,0.5256877 C 6.2116257,9.6463438 6.4784309,9.1794125 6.6221597,8.7514688 Z M 5.05125,9.2468625 C 4.5584537,9.519175 4.1788633,9.8992375 3.9119318,10.385537 3.7887331,10.541162 3.7273293,10.73535 3.7273293,10.968725 c 0,0.272312 0.1334663,0.408312 0.4003975,0.408312 0.2463981,0 0.502415,-0.106374 0.7693466,-0.320374 0.020531,-0.01938 0.041856,-0.03875 0.062387,-0.05875 0.1026657,-0.116687 0.1738344,-0.185062 0.2149007,-0.204562 l -0.030425,-0.08781 C 5.0823356,10.239056 5.05125,9.7526187 5.05125,9.2468625 Z" />
</svg>
