<?xml version="1.0" encoding="UTF-8" standalone="no"?>
<svg
   viewBox="0 0 18 18"
   width="18"
   height="18">
  <path
     d="M 18,9.0072 C 18,9.0048 18,9.0024 18,9 18,8.9622 17.9856,8.9298 17.9784,8.8944 17.9712,8.8554 17.9724,8.8158 17.9568,8.7774 L 17.9526,8.766 v 0 L 15.5568,2.7774 C 15.5562,2.775 15.5544,2.7738 15.5538,2.7714 15.5496,2.7606 15.5412,2.7528 15.5364,2.742 15.5106,2.688 15.4776,2.64 15.4386,2.5974 15.4236,2.5806 15.4068,2.5674 15.39,2.553 15.3522,2.52 15.3126,2.493 15.2676,2.4702 15.2478,2.46 15.2298,2.4504 15.2088,2.442 15.1434,2.4168 15.0738,2.4 15,2.4 H 9.6 V 0.6 C 9.6,0.2682 9.3312,0 9,0 8.6688,0 8.4,0.2682 8.4,0.6 V 2.4 H 3 c -0.0018,0 -0.003,6e-4 -0.0048,6e-4 -0.0102,0 -0.0198,0.003 -0.0306,0.0036 C 2.9052,2.4084 2.8482,2.421 2.7936,2.4414 2.7774,2.4474 2.7618,2.4522 2.7462,2.46 2.6874,2.4876 2.6334,2.5236 2.586,2.5686 2.5758,2.5788 2.5674,2.5902 2.5578,2.601 2.5392,2.6214 2.5188,2.64 2.5032,2.6634 2.4822,2.6946 2.4678,2.7282 2.4528,2.7618 2.4504,2.7678 2.445,2.772 2.4426,2.7774 L 0.0474,8.766 v 0 L 0.0432,8.7774 C 0.0282,8.8152 0.0294,8.8548 0.0222,8.8932 0.015,8.9292 0,8.9622 0,9 0,9.0024 6e-4,9.0048 6e-4,9.0072 6e-4,9.0126 0.0018,9.018 0.0024,9.0234 0.015,10.6662 1.3536,12 3,12 4.6458,12 5.985,10.6662 5.9982,9.0234 5.9982,9.0174 6,9.0126 6,9.0072 6,9.0048 6,9.0024 6,9 6,8.9622 5.9856,8.9298 5.9784,8.8944 5.9712,8.8554 5.9724,8.8158 5.9568,8.7774 L 5.9526,8.766 v 0 L 3.8862,3.6 H 8.4 V 14.4 H 6.6 c -0.9924,0 -1.8,0.8076 -1.8,1.8 0,0.9924 0.8076,1.8 1.8,1.8 h 4.8 c 0.9924,0 1.8,-0.8076 1.8,-1.8 0,-0.9924 -0.8076,-1.8 -1.8,-1.8 H 9.6 V 3.6 h 4.5138 l -2.0664,5.166 v 0 L 12.0432,8.7774 C 12.0282,8.8152 12.0294,8.8548 12.0222,8.8932 12.015,8.9292 12,8.9622 12,9 c 0,0.0024 6e-4,0.0048 6e-4,0.0072 0,0.0054 0.0012,0.0108 0.0018,0.0162 C 12.015,10.6662 13.3536,12 15,12 16.6458,12 17.985,10.6662 17.9982,9.0234 17.9982,9.0174 18,9.0126 18,9.0072 Z M 4.5138,8.4 H 1.4862 L 3,4.6158 Z m 12,0 H 13.4862 L 15,4.6152 Z" />
</svg>
