<?xml version="1.0" encoding="UTF-8" standalone="no"?>
<svg
   xmlns:dc="http://purl.org/dc/elements/1.1/"
   xmlns:cc="http://creativecommons.org/ns#"
   xmlns:rdf="http://www.w3.org/1999/02/22-rdf-syntax-ns#"
   xmlns:svg="http://www.w3.org/2000/svg"
   xmlns="http://www.w3.org/2000/svg"
   id="svg6"
   xml:space="preserve"
   viewBox="0 0 18 18"
   version="1.1"
   height="18"
   width="18">
<path
   style="stroke-width:0.035156"
   id="path4"
   d="M 14.461129,5.4611292 C 14.461129,2.4450278 12.016067,0 9.0000002,0 5.9838636,0 3.538871,2.4450278 3.538871,5.4611292 c 0,1.3712588 0.5054375,2.6243233 1.3401458,3.5834486 0.6294326,0.7231584 1.0869876,1.5701012 1.3490051,2.4773362 -0.2578691,0.102163 -0.4404692,0.353282 -0.4404692,0.647538 0,0.338903 0.2419785,0.620995 0.5625307,0.683643 -0.3205522,0.06261 -0.5625307,0.344739 -0.5625307,0.683643 0,0.310849 0.2036585,0.573956 0.4847305,0.66371 -0.281072,0.08975 -0.4847305,0.35286 -0.4847305,0.663709 0,0.384853 0.3119741,0.696827 0.6968265,0.696827 h 0.1127804 c 0.2200413,0.708569 0.7448848,1.282912 1.4212155,1.56982 C 8.0775777,17.620456 8.4942815,18 8.9999299,18 9.5055783,18 9.9223172,17.620456 9.9814496,17.130804 10.65778,16.843896 11.182624,16.269553 11.402665,15.560984 h 0.11278 c 0.384853,0 0.696827,-0.311974 0.696827,-0.696827 0,-0.310849 -0.203659,-0.573956 -0.484731,-0.663709 0.281072,-0.08975 0.484731,-0.352861 0.484731,-0.66371 0,-0.338904 -0.241979,-0.620995 -0.562531,-0.683643 0.320552,-0.06261 0.562531,-0.34474 0.562531,-0.683643 0,-0.294467 -0.182917,-0.545691 -0.441067,-0.647749 0.261666,-0.906778 0.718975,-1.7524903 1.349673,-2.4770901 0.834814,-0.9590198 1.340251,-2.2120842 1.340251,-3.5834485 z M 12.582324,5.7214241 10.862634,11.47259 H 9.6157923 L 10.874517,7.2630136 9.6712684,6.8460989 9.0508006,7.3255561 C 8.8494623,7.4811564 8.5715895,7.4919844 8.3586849,7.3528371 L 7.5792066,6.8431458 7.107765,7.0243045 8.4378562,11.47259 H 7.1910143 L 5.471395,5.7214241 C 5.3768957,5.4053718 5.5564724,5.0725854 5.8725598,4.978051 6.1885065,4.8834462 6.5213985,5.0631284 6.6159329,5.3792158 L 6.7645724,5.8763213 7.4360163,5.6182764 c 0.1791549,-0.068906 0.380458,-0.04739 0.5411208,0.057621 L 8.656667,6.1201983 9.1963815,5.7031781 C 9.3559545,5.5799564 9.5667848,5.5454684 9.7571193,5.6113858 L 11.217077,6.11721 11.437751,5.3791455 c 0.0945,-0.3160522 0.427426,-0.4956641 0.743373,-0.4011649 0.316087,0.09464 0.495664,0.4274264 0.4012,0.7434786 z" />
</svg>
