<?xml version="1.0" encoding="UTF-8"?>
<svg width="18" height="18" version="1.1" viewBox="0 0 514.8 514.8" xml:space="preserve" xmlns="http://www.w3.org/2000/svg" xmlns:cc="http://creativecommons.org/ns#" xmlns:dc="http://purl.org/dc/elements/1.1/" xmlns:rdf="http://www.w3.org/1999/02/22-rdf-syntax-ns#"><metadata><rdf:RDF><cc:Work rdf:about=""><dc:format>image/svg+xml</dc:format><dc:type rdf:resource="http://purl.org/dc/dcmitype/StillImage"/><dc:title/></cc:Work></rdf:RDF></metadata>

	
		<path d="m411.34 155.34c0-85.792-69.549-155.34-155.34-155.34-85.793 0-155.34 69.548-155.34 155.34 0 39.005 14.377 74.648 38.12 101.93 17.904 20.57 30.919 44.661 38.372 70.467-7.335 2.906-12.529 10.049-12.529 18.419 0 9.64 6.883 17.664 16.001 19.446-9.118 1.781-16.001 9.806-16.001 19.446 0 8.842 5.793 16.326 13.788 18.879-7.995 2.553-13.788 10.037-13.788 18.879 0 10.947 8.874 19.821 19.821 19.821h3.208c6.259 20.155 21.188 36.492 40.426 44.653 1.684 13.928 13.537 24.724 27.92 24.724s26.237-10.796 27.919-24.724c19.238-8.161 34.167-24.498 40.426-44.653h3.208c10.947 0 19.821-8.874 19.821-19.821 0-8.842-5.793-16.326-13.788-18.879 7.995-2.553 13.788-10.037 13.788-18.879 0-9.64-6.883-17.664-16.001-19.446 9.118-1.781 16.001-9.806 16.001-19.446 0-8.376-5.203-15.522-12.546-18.425 7.443-25.793 20.451-49.849 38.391-70.46 23.746-27.279 38.123-62.922 38.123-101.93zm-53.442 7.404-48.916 163.59h-35.466l35.804-119.74-34.226-11.859-17.649 13.638c-5.727 4.426-13.631 4.734-19.687 0.776l-22.172-14.498-13.41 5.153 37.834 126.53h-35.466l-48.914-163.59c-2.688-8.99 2.42-18.456 11.411-21.145 8.987-2.691 18.456 2.42 21.145 11.411l4.228 14.14 19.099-7.34c5.096-1.96 10.822-1.348 15.392 1.639l19.329 12.638 15.352-11.862c4.539-3.505 10.536-4.486 15.95-2.611l41.528 14.388 6.277-20.994c2.688-8.99 12.158-14.099 21.145-11.411 8.991 2.692 14.099 12.158 11.412 21.148z"/>
	
















</svg>
