<?xml version="1.0" encoding="iso-8859-1"?>
<!-- Generator: Adobe Illustrator 19.0.0, SVG Export Plug-In . SVG Version: 6.00 Build 0)  -->
<svg version="1.1" id="Layer_1" xmlns="http://www.w3.org/2000/svg" xmlns:xlink="http://www.w3.org/1999/xlink" x="0px" y="0px"
	 viewBox="0 0 512 512" style="enable-background:new 0 0 512 512;" xml:space="preserve">
<g>
	<g>
		<path d="M411.34,155.34C411.34,69.548,341.791,0,256,0c-85.793,0-155.34,69.548-155.34,155.34
			c0,39.005,14.377,74.648,38.12,101.926c17.904,20.57,30.919,44.661,38.372,70.467c-7.335,2.906-12.529,10.049-12.529,18.419
			c0,9.64,6.883,17.664,16.001,19.446c-9.118,1.781-16.001,9.806-16.001,19.446c0,8.842,5.793,16.326,13.788,18.879
			c-7.995,2.553-13.788,10.037-13.788,18.879c0,10.947,8.874,19.821,19.821,19.821h3.208c6.259,20.155,21.188,36.492,40.426,44.653
			C229.762,501.204,241.615,512,255.998,512c14.383,0,26.237-10.796,27.919-24.724c19.238-8.161,34.167-24.498,40.426-44.653h3.208
			c10.947,0,19.821-8.874,19.821-19.821c0-8.842-5.793-16.326-13.788-18.879c7.995-2.553,13.788-10.037,13.788-18.879
			c0-9.64-6.883-17.664-16.001-19.446c9.118-1.781,16.001-9.806,16.001-19.446c0-8.376-5.203-15.522-12.546-18.425
			c7.443-25.793,20.451-49.849,38.391-70.46C396.963,229.988,411.34,194.345,411.34,155.34z M357.898,162.744L308.982,326.33
			h-35.466l35.804-119.74l-34.226-11.859l-17.649,13.638c-5.727,4.426-13.631,4.734-19.687,0.776l-22.172-14.498l-13.41,5.153
			l37.834,126.529h-35.466L155.63,162.743c-2.688-8.99,2.42-18.456,11.411-21.145c8.987-2.691,18.456,2.42,21.145,11.411
			l4.228,14.14l19.099-7.34c5.096-1.96,10.822-1.348,15.392,1.639l19.329,12.638l15.352-11.862
			c4.539-3.505,10.536-4.486,15.95-2.611l41.528,14.388l6.277-20.994c2.688-8.99,12.158-14.099,21.145-11.411
			C355.477,144.288,360.585,153.754,357.898,162.744z"/>
	</g>
</g>
<g>
</g>
<g>
</g>
<g>
</g>
<g>
</g>
<g>
</g>
<g>
</g>
<g>
</g>
<g>
</g>
<g>
</g>
<g>
</g>
<g>
</g>
<g>
</g>
<g>
</g>
<g>
</g>
<g>
</g>
</svg>
