<?xml version="1.0" encoding="utf-8"?>
<!-- Generator: Adobe Illustrator 24.1.2, SVG Export Plug-In . SVG Version: 6.00 Build 0)  -->
<svg version="1.1" xmlns="http://www.w3.org/2000/svg" xmlns:xlink="http://www.w3.org/1999/xlink" x="0px" y="0px"
	 viewBox="0 0 180 180" style="enable-background:new 0 0 180 180;" xml:space="preserve">
<style type="text/css">
	.st0{display:none;}
	.st1{display:inline;}
</style>
<g id="Ebene_1" xmlns:serif="http://www.serif.com/" class="st0">
	<g transform="matrix(1,0,0,1,0,-1.5)" class="st1">
		<g transform="matrix(0.1,0,0,0.1,0,0)">
			<path d="M0,1115h1800v-63c-597-30-1203-30-1800,0V1115z"/>
		</g>
		<g transform="matrix(0.1,0,0,0.1,0,0)">
			<path d="M0,1020c595-45,1205-45,1800,0v-63c-592-75-1208-75-1800,0V1020z"/>
		</g>
		<g transform="matrix(0.1,0,0,0.1,0,0)">
			<path d="M0,926c590-90,1210-90,1800,0v-63C1214,742,586,742,0,863V926z"/>
		</g>
		<g transform="matrix(0.1,0,0,0.1,0,0)">
			<path d="M0,768v63c585-136,1215-136,1800,0v-63C1219,602,581,602,0,768z"/>
		</g>
		<g transform="matrix(0.1,0,0,0.1,0,0)">
			<path d="M293,585c0,25,1,50,1,76c199-40,402-60,606-60v-86C696,515,492,538,293,585z"/>
		</g>
	</g>
</g>
<g id="Ebene_2">
	<g>
		<path d="M180,152.2c-58.4-9.8-121.6-9.8-180,0c0,4.3,0,8.5,0,12.8c60,0,120,0,180,0C180,160.7,180,156.5,180,152.2z"/>
		<path d="M180,126.7c-55.2-29.3-124.8-29.3-180,0c0,4.3,0,8.5,0,12.8c56.8-19.5,123.2-19.5,180,0C180,135.2,180,131,180,126.7z"/>
		<path d="M180,101.2c-52.1-48.8-127.9-48.8-180,0c0,4.3,0,8.5,0,12.8c53.7-39.1,126.3-39.1,180,0C180,109.7,180,105.4,180,101.2z"
			/>
		<path d="M79.2,35C64.7,36.6,50.5,41.3,37,49.1c0.2,5.9,0.3,11.9,0.5,17.8C50.9,60.3,65,56.3,79.3,55C79.2,48.3,79.2,41.7,79.2,35z
			"/>
	</g>
</g>
</svg>
