<?xml version="1.0" encoding="UTF-8" standalone="no"?>
<svg viewBox="0 0 18 18" height="18" width="18">
  <path
     d="M 5.0001062e-7,-1e-6 V 1.2857133 2.5714277 A 2.5714203,2.5714213 0 0 0 2.571429,5.1428563 2.5714203,2.5714213 0 0 0 5.1428575,2.5714277 H 6.4285717 A 2.5714203,2.5714213 0 0 0 9.0000002,5.1428563 2.5714203,2.5714213 0 0 0 11.571429,2.5714277 h 1.285715 A 2.5714203,2.5714213 0 0 0 15.428572,5.1428563 2.5714203,2.5714213 0 0 0 18,2.5714277 V 1.2857133 -1e-6 h -2.571428 z"
     />
  <path
     d="m 5.0001062e-7,6.4285707 v 5.1428583 2.571427 3.857143 H 2.571429 v -3.857143 h 12.857143 v 3.857143 H 18 V 14.142856 11.571429 6.4285707 H 15.428572 V 11.571429 H 2.571429 V 6.4285707 Z"
/>
</svg>
