<?xml version="1.0" encoding="iso-8859-1"?>
<!-- Generator: Adobe Illustrator 18.0.0, SVG Export Plug-In . SVG Version: 6.00 Build 0)  -->
<!DOCTYPE svg PUBLIC "-//W3C//DTD SVG 1.1//EN" "http://www.w3.org/Graphics/SVG/1.1/DTD/svg11.dtd">
<svg version="1.1" id="Capa_1" xmlns="http://www.w3.org/2000/svg" xmlns:xlink="http://www.w3.org/1999/xlink" x="0px" y="0px"
	 viewBox="0 0 218.465 218.465" style="enable-background:new 0 0 218.465 218.465;" xml:space="preserve">
<g>
	<path d="M216.281,108.414c-2.923-2.938-7.672-2.948-10.607-0.024l-23.582,23.472V84.949l34.091-34.091
		c1.464-1.465,2.197-3.385,2.197-5.304c0-1.92-0.732-3.839-2.197-5.304c-2.929-2.928-7.678-2.929-10.606,0.001l-34.092,34.092
		H46.979l-33.73-33.732c-2.928-2.929-7.677-2.93-10.606-0.001c-1.464,1.465-2.197,3.384-2.197,5.304
		c0,1.919,0.732,3.839,2.197,5.303l33.731,33.732v46.912L12.791,108.39c-2.936-2.923-7.684-2.912-10.607,0.024
		C0.729,109.876,0.001,111.788,0,113.7c-0.002,1.927,0.735,3.854,2.209,5.32l36.308,36.139c0.207,0.211,0.425,0.412,0.658,0.6
		c19.786,15.896,44.664,24.651,70.053,24.651c25.39,0,50.271-8.756,70.061-24.655c0.002-0.002,0.003-0.003,0.005-0.005
		c0.203-0.164,0.4-0.339,0.588-0.526l36.373-36.203c1.474-1.467,2.21-3.394,2.209-5.32
		C218.464,111.788,217.736,109.876,216.281,108.414z M51.373,146.237V89.344h115.719v56.89
		c-16.816,12.559-36.745,19.177-57.863,19.177C88.111,165.41,68.185,158.794,51.373,146.237z"/>
	<path d="M124.996,119.877h-8.264v-8.264c0-4.143-3.358-7.5-7.5-7.5c-4.142,0-7.5,3.357-7.5,7.5v8.264h-8.264
		c-4.142,0-7.5,3.357-7.5,7.5c0,4.143,3.358,7.5,7.5,7.5h8.264v8.264c0,4.143,3.358,7.5,7.5,7.5c4.142,0,7.5-3.357,7.5-7.5v-8.264
		h8.264c4.142,0,7.5-3.357,7.5-7.5C132.496,123.234,129.138,119.877,124.996,119.877z"/>
</g>
</svg>
