<?xml version="1.0" encoding="UTF-8" standalone="no"?>
<svg
   xmlns:dc="http://purl.org/dc/elements/1.1/"
   xmlns:cc="http://creativecommons.org/ns#"
   xmlns:rdf="http://www.w3.org/1999/02/22-rdf-syntax-ns#"
   xmlns:svg="http://www.w3.org/2000/svg"
   xmlns="http://www.w3.org/2000/svg"
   height="24"
   width="24"
   xml:space="preserve"
   viewBox="0 0 24 24"
   y="0px"
   x="0px"
   id="Capa_1"
   version="1.1"><metadata
   id="metadata13"><rdf:RDF><cc:Work
       rdf:about=""><dc:format>image/svg+xml</dc:format><dc:type
         rdf:resource="http://purl.org/dc/dcmitype/StillImage" /><dc:title></dc:title></cc:Work></rdf:RDF></metadata><defs
   id="defs11" />
<g
   transform="matrix(0.10985791,0,0,0.10985791,-3.6135717e-6,1.4507119e-5)"
   id="g6">
	<path
   id="path2"
   d="m 216.281,108.414 c -2.923,-2.938 -7.672,-2.948 -10.607,-0.024 l -23.582,23.472 V 84.949 l 34.091,-34.091 c 1.464,-1.465 2.197,-3.385 2.197,-5.304 0,-1.92 -0.732,-3.839 -2.197,-5.304 -2.929,-2.928 -7.678,-2.929 -10.606,10e-4 L 171.485,74.343 H 46.979 L 13.249,40.611 C 10.321,37.682 5.572,37.681 2.643,40.61 c -1.464,1.465 -2.197,3.384 -2.197,5.304 0,1.919 0.732,3.839 2.197,5.303 l 33.731,33.732 v 46.912 L 12.791,108.39 C 9.855,105.467 5.107,105.478 2.184,108.414 0.729,109.876 0.001,111.788 0,113.7 c -0.002,1.927 0.735,3.854 2.209,5.32 l 36.308,36.139 c 0.207,0.211 0.425,0.412 0.658,0.6 19.786,15.896 44.664,24.651 70.053,24.651 25.39,0 50.271,-8.756 70.061,-24.655 0.002,-0.002 0.003,-0.003 0.005,-0.005 0.203,-0.164 0.4,-0.339 0.588,-0.526 l 36.373,-36.203 c 1.474,-1.467 2.21,-3.394 2.209,-5.32 0,-1.913 -0.728,-3.825 -2.183,-5.287 z M 51.373,146.237 V 89.344 h 115.719 v 56.89 c -16.816,12.559 -36.745,19.177 -57.863,19.177 -21.118,-0.001 -41.044,-6.617 -57.856,-19.174 z" />
	<path
   id="path4"
   d="m 124.996,119.877 h -8.264 v -8.264 c 0,-4.143 -3.358,-7.5 -7.5,-7.5 -4.142,0 -7.5,3.357 -7.5,7.5 v 8.264 h -8.264 c -4.142,0 -7.5,3.357 -7.5,7.5 0,4.143 3.358,7.5 7.5,7.5 h 8.264 v 8.264 c 0,4.143 3.358,7.5 7.5,7.5 4.142,0 7.5,-3.357 7.5,-7.5 v -8.264 h 8.264 c 4.142,0 7.5,-3.357 7.5,-7.5 0,-4.143 -3.358,-7.5 -7.5,-7.5 z" />
</g>
</svg>
