<?xml version="1.0" encoding="UTF-8"?>
<svg width="18" height="18" version="1.1" viewBox="0 0 18 18" xmlns="http://www.w3.org/2000/svg" xmlns:cc="http://creativecommons.org/ns#" xmlns:dc="http://purl.org/dc/elements/1.1/" xmlns:rdf="http://www.w3.org/1999/02/22-rdf-syntax-ns#">
 <metadata>
  <rdf:RDF>
   <cc:Work rdf:about="">
    <dc:format>image/svg+xml</dc:format>
    <dc:type rdf:resource="http://purl.org/dc/dcmitype/StillImage"/>
    <dc:title/>
   </cc:Work>
  </rdf:RDF>
 </metadata>
 <path d="m7.1292 1.2857a1.9286 1.9286 0 0 0-1.9286 1.9286 1.9286 1.9286 0 0 0 1.9286 1.9286 1.9286 1.9286 0 0 0 1.9286-1.9286 1.9286 1.9286 0 0 0-1.9286-1.9286zm-1.5619 4.5126c-0.50066 0.065827-0.9522 0.41039-1.1225 0.90653l-1.6699 4.8666h2.6593l1.2179-3.5458 1.3083 1.346c0.020071 0.02065 0.045838 0.03033 0.067801 0.04771 0.021877 0.01923 0.048187 0.03145 0.072824 0.04771 0.038317 0.02265 0.074229 0.04626 0.11551 0.06027 0.02126 0.0085 0.037714 0.02379 0.060268 0.03013l2.4735 0.69559c0.34282 0.0965 0.69703-0.10165 0.79353-0.44448 0.0965-0.34282-0.10166-0.69452-0.44448-0.79102l-2.3253-0.65541-2.132-2.1922c-0.014923-0.015352-0.034231-0.021609-0.050223-0.035156-0.14111-0.13564-0.30737-0.24882-0.5173-0.30385-0.16914-0.044333-0.34037-0.054587-0.50725-0.032645zm9.2185 4.4874a1.9286 1.9286 0 0 0-1.9286 1.9286 1.9286 1.9286 0 0 0 1.9286 1.9286 1.9286 1.9286 0 0 0 1.9286-1.9286 1.9286 1.9286 0 0 0-1.9286-1.9286zm-13.5 2.5714c-0.71229 0-1.2857 0.57343-1.2857 1.2857s0.57343 1.2857 1.2857 1.2857h10.537l2.6468 1.2204c0.08612 0.03975 0.17631 0.05546 0.26367 0.05525 0.01825 0.0015 0.03407 0.01004 0.05274 0.01004h2.5714c0.35614 0 0.64285-0.28672 0.64285-0.64286 0-0.35614-0.28671-0.64286-0.64286-0.64286h-2.4936l-5.4216-2.5036c-0.10612-0.048985-0.21532-0.053642-0.32143-0.04269-0.041708-0.004047-0.07773-0.025111-0.12054-0.025111h-6.6671z"/>
</svg>
