<?xml version="1.0" encoding="UTF-8"?>
<svg id="shop_medical_supply" width="18" height="18" version="1.1" viewBox="0 0 18 18" xmlns="http://www.w3.org/2000/svg">
 <g transform="matrix(1.3892 0 0 1.3819 -2.8667 -2.6371)" stroke-linecap="round" stroke-linejoin="round" stroke-width="4">
  <path d="m14.809 1.9083-3.0952 0.22534v0.00638l-0.0085-0.00213-0.49184 4.0923h-4.9226v1.318h2.1624a3.9172 3.9172 0 0 0-1.8232 2.0302h-2.7199v0.048895l-0.5724 1.9111a1.7277 1.7277 0 0 0-1.2741 1.6667 1.7277 1.7277 0 0 0 1.7278 1.7283 1.7277 1.7277 0 0 0 1.7278-1.7283 1.7277 1.7277 0 0 0-0.8586-1.4902l0.11236-0.3784h1.5942a3.9172 3.9172 0 0 0 3.9029 3.5969 3.9172 3.9172 0 0 0 3.9177-3.9179 3.9172 3.9172 0 0 0-1.4183-3.0123l0.5618-4.6662 1.6006-0.11692zm-4.5135 6.7347a2.4272 2.4339 0 0 1 2.4274 2.4341 2.4272 2.4339 0 0 1-2.4274 2.4341 2.4272 2.4339 0 0 1-2.4274-2.4341 2.4272 2.4339 0 0 1 2.4274-2.4341z"/>
 </g>
</svg>
