<?xml version="1.0" encoding="UTF-8" standalone="no"?>
<svg
   xmlns:dc="http://purl.org/dc/elements/1.1/"
   xmlns:cc="http://creativecommons.org/ns#"
   xmlns:rdf="http://www.w3.org/1999/02/22-rdf-syntax-ns#"
   xmlns:svg="http://www.w3.org/2000/svg"
   xmlns="http://www.w3.org/2000/svg"
   version="1.1"
   height="18"
   width="18"
   id="svg6">
  <metadata
     id="metadata11">
    <rdf:RDF>
      <cc:Work
         rdf:about="">
        <dc:format>image/svg+xml</dc:format>
        <dc:type
           rdf:resource="http://purl.org/dc/dcmitype/StillImage" />
        <dc:title></dc:title>
      </cc:Work>
    </rdf:RDF>
  </metadata>
  <defs
     id="defs9" />
  <path
     id="path4505"
     d="M 0,1.8 V 16.2 H 13.2 L 8.4,9 13.2,1.8 Z m 13.2,0 V 16.2 L 18,9 Z M 3.6,4.2 H 6 V 5.4 C 6.365568,5.86032 6.998208,6.22176 7.2,6.75 V 7.8 C 6.739608,7.43448 6.378228,6.80172 5.85,6.6 H 3.6 V 7.8 L 6,9 7.2,10.2 v 1.2 C 6.834432,11.86032 6.201792,12.22176 6,12.75 V 13.8 H 3.6 V 12.6 C 3.234432,12.13968 2.601792,11.77824 2.4,11.25 V 10.2 c 0.460392,0.36552 0.821772,0.99828 1.35,1.2 H 6 V 10.2 L 3.6,9 2.4,7.8 V 6.6 C 2.765568,6.13968 3.398208,5.77824 3.6,5.25 Z"
     style="fill:#0a0a0a;fill-opacity:1;stroke-width:1.20000005" />
</svg>
