<?xml version="1.0" encoding="UTF-8"?>
<svg width="18" height="18" version="1.1" viewBox="0 0 18 18" xmlns="http://www.w3.org/2000/svg" xmlns:cc="http://creativecommons.org/ns#" xmlns:dc="http://purl.org/dc/elements/1.1/" xmlns:rdf="http://www.w3.org/1999/02/22-rdf-syntax-ns#">
 <metadata>
  <rdf:RDF>
   <cc:Work rdf:about="">
    <dc:format>image/svg+xml</dc:format>
    <dc:type rdf:resource="http://purl.org/dc/dcmitype/StillImage"/>
    <dc:title/>
   </cc:Work>
  </rdf:RDF>
 </metadata>
 <rect id="canvas" y="4" width="14" height="14" fill="none" visibility="hidden"/>
 <path id="motorcycle" d="m14.987 6.8461c0.3839 0.27007 0.60774 0.56761 0.71694 0.94474 0.03588 0.12399 0.03815 0.14946 0.03912 0.40437 8.64e-4 0.23461-0.0017 0.29614-0.02934 0.42642-0.0544 0.2557-0.15507 0.54141-0.27374 0.79035l-0.05214 0.11397-0.17924 0.01106c-0.65204 0.03822-1.1767 0.17058-1.6327 0.41539-0.97792 0.52505-1.5922 1.5115-1.8966 3.0401l-0.02607 0.12131-0.1271 0.13234c-0.07048 0.07172-0.1654 0.15801-0.21182 0.19116-0.42188 0.30109-1.0274 0.48127-1.8869 0.56611-0.38583 0.03816-0.64439 0.04564-1.8901 0.05882-0.7304 0.0078-1.3319 0.01787-1.3361 0.02207-4e-3 0.0041-0.032252 0.0075-0.061919 0.0075-0.064671 0-0.06025 0.02825-0.022809-0.30879 0.057831-0.52094 0.051391-1.1254-0.01637-1.5624-0.19471-1.2569-0.88365-2.082-2.053-2.4594-0.51379-0.1658-0.96582-0.22558-1.737-0.23894l-0.49208-0.01106-0.032585-0.03676c-0.16437-0.20218-0.24856-0.51127-0.20205-0.74629 0.021991-0.111 0.097925-0.2717 0.16295-0.34187l1.3852-1.5881c3.0035-0.010736 3.8051 0.00549 6.6741 0.033951 0.15938 0.042423 0.88527 1.6826 0.96118 1.8188 0.04103 0.07361 0.09796 0.23604 0.1108 0.31614 0.0052 0.03254 0.01085 0.05882 0.01302 0.05882 0.01932 0 0.28703-0.12019 0.42365-0.19116 0.36557-0.18989 0.82423-0.93398 1.0561-1.2388 0.22084-2.9328-3.3984-10.718 2.6166-0.74992zm-0.14012 3.0254c0.87426-0.06808 1.7349 0.28488 2.3464 0.96312 0.85005 0.94292 1.0499 2.3526 0.4986 3.5143-0.45842 0.96594-1.3645 1.618-2.3789 1.713-0.38068 0.03567-0.837-0.01934-1.196-0.14705-0.88774-0.31579-1.5787-1.048-1.8673-1.9777-0.26633-0.8579-0.16427-1.8128 0.27374-2.5696 0.5054-0.87324 1.3543-1.4207 2.3235-1.4961zm-11.898 0.0073c0.35715 3.93e-4 0.45824 0.01183 0.71694 0.08087 1.1665 0.31134 2.0357 1.3332 2.203 2.5879 0.030784 0.23152 0.031068 0.63757 0 0.85652-0.1484 1.0459-0.756 1.9123-1.6555 2.3674-0.28538 0.14438-0.64397 0.25316-0.96787 0.29041-0.18618 0.02141-0.58683 0.0057-0.78212-0.02942-1.2544-0.22642-2.2054-1.2268-2.4278-2.5549-0.04218-0.25113-0.047286-0.71193-0.00984-0.96312 0.10086-0.67546 0.3864-1.2623 0.84078-1.7388 0.4405-0.4619 0.96044-0.74796 1.5968-0.87122 0.11246-0.02199 0.21004-0.02609 0.48556-0.02573zm12.009 1.0624c-0.57814 0.0292-1.1009 0.32278-1.4534 0.8124-0.10992 0.15266-0.25755 0.46255-0.30633 0.64331-0.19846 0.73548-0.0058 1.4967 0.51164 2.0255 0.13106 0.13391 0.32572 0.28557 0.46601 0.36025 0.10957 0.05835 0.33544 0.14154 0.46927 0.17278 0.16572 0.03894 0.54316 0.05063 0.70716 0.02208 0.78802-0.13713 1.4023-0.75017 1.5838-1.5734 0.04166-0.18902 0.05095-0.55959 0.01957-0.75359-0.16804-1.0381-1.0102-1.7592-1.9977-1.7094zm-12.002 0.0073c-0.34748-7.58e-4 -0.59958 0.06201-0.88966 0.22056-0.20199 0.1104-0.34987 0.22325-0.50838 0.39701-0.26033 0.28539-0.41768 0.59797-0.50186 0.99253-0.034739 0.16288-0.040962 0.54942-0.013018 0.73521 0.071829 0.47758 0.32825 0.9468 0.68109 1.2462 0.27157 0.23042 0.5815 0.37836 0.90595 0.43377 0.16069 0.02753 0.49746 0.02769 0.64199 0 1.144-0.21915 1.8435-1.4012 1.5251-2.5769-0.16427-0.60651-0.63138-1.1247-1.2058-1.338-0.21993-0.081677-0.38291-0.10969-0.63547-0.11028z" fill-rule="evenodd" stroke-width="1.2857"/>
</svg>
