<?xml version="1.0" encoding="UTF-8" standalone="no"?>
<svg
   xmlns:dc="http://purl.org/dc/elements/1.1/"
   xmlns:cc="http://creativecommons.org/ns#"
   xmlns:rdf="http://www.w3.org/1999/02/22-rdf-syntax-ns#"
   xmlns:svg="http://www.w3.org/2000/svg"
   xmlns="http://www.w3.org/2000/svg"
   xmlns:sodipodi="http://sodipodi.sourceforge.net/DTD/sodipodi-0.dtd"
   xmlns:inkscape="http://www.inkscape.org/namespaces/inkscape"
   inkscape:version="1.0 (4035a4fb49, 2020-05-01)"
   sodipodi:docname="museum-14.svg"
   id="svg2"
   viewBox="0 0 18 18"
   height="18"
   width="18"
   version="1.1">
  <sodipodi:namedview
     inkscape:current-layer="svg2"
     inkscape:window-maximized="1"
     inkscape:window-y="-9"
     inkscape:window-x="-9"
     inkscape:cy="9.7673347"
     inkscape:cx="3.2607958"
     inkscape:zoom="29.642857"
     showgrid="false"
     id="namedview7"
     inkscape:window-height="1001"
     inkscape:window-width="1920"
     inkscape:pageshadow="2"
     inkscape:pageopacity="0"
     guidetolerance="10"
     gridtolerance="10"
     objecttolerance="10"
     borderopacity="1"
     bordercolor="#666666"
     pagecolor="#ffffff" />
  <metadata
     id="metadata8">
    <rdf:RDF>
      <cc:Work
         rdf:about="">
        <dc:format>image/svg+xml</dc:format>
        <dc:type
           rdf:resource="http://purl.org/dc/dcmitype/StillImage" />
        <dc:title></dc:title>
      </cc:Work>
    </rdf:RDF>
  </metadata>
  <defs
     id="defs6" />
  <rect
     style="visibility:hidden;fill:none;stroke:none"
     id="canvas"
     y="0"
     x="0"
     height="14"
     width="14" />
  <path
     style="fill:#000000;fill-opacity:1;stroke:none;stroke-width:1.28434"
     id="museum"
     d="M 8.9903614,1 1.2843373,3.5686747 V 4.853012 H 16.696386 V 3.5686747 Z M 1.2843373,6.1373494 V 7.4216867 H 2.5686747 V 13.843373 H 1.2843373 L 0,16.412048 H 17.980723 L 16.696386,13.843373 H 15.412048 V 7.4216867 h 1.284338 V 6.1373494 Z m 5.1373494,1.2843373 c 0.6387935,0 1.2843374,0.6840258 1.2843374,1.2843374 V 13.843373 H 5.1373494 V 8.7060241 c 0,-0.6772746 0.6455439,-1.2843374 1.2843373,-1.2843374 z m 5.1373493,0 c 0.646489,0 1.284337,0.6070628 1.284337,1.2843374 V 13.843373 H 10.274699 V 8.7060241 c 0,-0.6772746 0.637848,-1.2843374 1.284337,-1.2843374 z" />
</svg>
