<?xml version="1.0" encoding="UTF-8"?>
<svg width="18" height="18" enable-background="new 0 0 580 580" version="1.1" viewBox="0 0 18 18" xml:space="preserve" xmlns="http://www.w3.org/2000/svg" xmlns:cc="http://creativecommons.org/ns#" xmlns:dc="http://purl.org/dc/elements/1.1/" xmlns:rdf="http://www.w3.org/1999/02/22-rdf-syntax-ns#"><metadata><rdf:RDF><cc:Work rdf:about=""><dc:format>image/svg+xml</dc:format><dc:type rdf:resource="http://purl.org/dc/dcmitype/StillImage"/><dc:title/></cc:Work></rdf:RDF></metadata><path d="m14.143 8.3571c1.2857 0 2.5714 1.2857 2.5714 2.5714v2.5714c0.0044 1.2171-1.2857 2.5714-2.5714 2.5714h-6.4286c-1.2857 0-2.5714-1.2857-2.5714-2.5714v-2.5714c0-1.2857 1.2857-2.5714 2.5714-2.5714h1.2857c-2.5714 1.2857-2.5714 1.2857-2.5714 3.8571 0 0.71751 0.66212 1.2362 1.2857 1.2857h6.4286c0.77839 0 1.2857-0.56821 1.2857-1.2857 0-2.5714 0-2.5714-2.5714-3.8632zm-5.1429-3.8571v2.5564l-2.5714 0.015067v1.2857h2.5714v2.5714h1.2857v-2.5714h1.2857v2.5714h1.2857v-2.5714h3.8571c0 1.2857 1.2857 1.2857 1.2857 1.2857v-3.8571s-1.2857 6.12e-4 -1.2857 1.2254l-3.8571 0.0226v-2.5338h-1.2857v2.5413l-1.2857 0.00753v-2.5488zm-9 9v-11.571c3.8571 0 3.8571 5.1429 6.4286 5.1429v1.2857c-2.5714 0-2.5714 5.1429-6.4286 5.1429z" fill-rule="evenodd"/>
</svg>
