<?xml version="1.0" encoding="UTF-8" standalone="no"?>
<!DOCTYPE svg PUBLIC "-//W3C//DTD SVG 1.1//EN" "http://www.w3.org/Graphics/SVG/1.1/DTD/svg11.dtd">
<svg width="100%" height="100%" viewBox="0 0 18 18" version="1.1" xmlns="http://www.w3.org/2000/svg" xmlns:xlink="http://www.w3.org/1999/xlink" xml:space="preserve" xmlns:serif="http://www.serif.com/" style="fill-rule:evenodd;clip-rule:evenodd;stroke-linejoin:round;stroke-miterlimit:2;">
    <g transform="matrix(0.200573,0,0,0.200573,-70.3883,-97.7891)">
        <g id="layer1">
            <path id="path2239" d="M374.528,575.257C368.94,570.237 371.997,562.059 381.221,557.354C384.298,555.784 386.567,555.104 390.627,555.225C393.089,555.288 395.921,556.707 395.921,556.707C395.921,538.652 395.852,504.427 395.852,487.556C396.853,487.561 397.493,487.549 398.893,487.549C398.893,488.542 398.88,489.256 398.88,490.135C398.88,490.993 398.94,491.549 399.023,492.088C399.992,498.387 401.402,500.867 408.445,508.652C417.352,518.498 419.94,524.428 419.887,532.304C419.838,539.692 413.339,555.516 411.861,554.859C413.916,549.323 416.686,543.351 417.423,538.353C418.324,532.246 415.843,523.627 411.85,519.079C408.566,515.339 401.004,511.995 398.941,511.995C398.941,511.995 398.853,548.367 398.853,562.157C398.853,564.532 396.702,568.557 395.49,570.005C389.964,576.606 379.356,579.595 374.528,575.257Z" style="fill-rule:nonzero;"/>
        </g>
    </g>
</svg>
