<?xml version="1.0" encoding="UTF-8" standalone="no"?>
<svg
   xmlns:dc="http://purl.org/dc/elements/1.1/"
   xmlns:cc="http://creativecommons.org/ns#"
   xmlns:rdf="http://www.w3.org/1999/02/22-rdf-syntax-ns#"
   xmlns:svg="http://www.w3.org/2000/svg"
   xmlns="http://www.w3.org/2000/svg"
   version="1.1"
   width="18"
   height="18"
   viewBox="0 0 18 18"
   id="shop_music">
  <metadata
     id="metadata8">
    <rdf:RDF>
      <cc:Work
         rdf:about="">
        <dc:format>image/svg+xml</dc:format>
        <dc:type
           rdf:resource="http://purl.org/dc/dcmitype/StillImage" />
        <dc:title></dc:title>
      </cc:Work>
    </rdf:RDF>
  </metadata>
  <defs
     id="defs6" />
  <path
     style="stroke-width:2.22875"
     d="M 7.8036746,0 5.3041084,0.39425223 C 5.2847359,4.6210977 5.2681763,8.8487569 5.2514596,13.075614 l -0.7044915,-0.05022 c -1.70823,-0.120549 -3.5144982,0.720714 -4.30717623,2.003907 -0.2918086,0.472365 -0.32178551,1.222201 -0.0651843,1.629743 C 0.57520631,17.295276 1.5265176,17.828243 2.5613549,18 4.9410198,17.931651 6.6452952,17.099265 7.8011676,15.385882 7.8011676,10.19075 7.8034302,4.6072751 7.8036746,0 Z m 1.2084162,0.02511161 a 8.9876594,8.981097 0 0 0 -0.027579,0.0025111 V 1.2907365 A 7.7000312,7.7216426 0 0 1 16.671242,9.0125558 7.7000312,7.7216426 0 0 1 8.9694702,16.734375 7.7000312,7.7216426 0 0 1 8.3376843,16.701731 l -1.115654,1.099887 A 8.9876594,8.981097 0 0 0 9.0120908,17.987444 8.9876594,8.981097 0 0 0 18,9.0075335 8.9876594,8.981097 0 0 0 9.0120908,0.02511161 Z M 3.8901111,1.6297433 A 8.9876594,8.981097 0 0 0 0.02668945,9.0075335 8.9876594,8.981097 0 0 0 0.85653538,12.756696 L 1.9797106,12.22433 A 7.7000312,7.7216426 0 0 1 1.2702048,9.0125558 7.7000312,7.7216426 0 0 1 3.8901111,3.2218192 Z m 5.0944017,4.7988281 v 1.2857143 a 1.3283169,1.2857239 0 0 1 0.022564,0 A 1.3283169,1.2857239 0 0 1 10.335833,9 1.3283169,1.2857239 0 0 1 9.007077,10.285714 1.3283169,1.2857239 0 0 1 8.984513,10.283214 v 1.288222 A 2.5710873,2.5717833 0 0 0 11.539235,9 2.5710873,2.5717833 0 0 0 8.9845128,6.4285714 Z"
     id="path3773" />
</svg>
