<?xml version="1.0" encoding="UTF-8" standalone="no"?>
<svg
   viewBox="0 0 18 18"
   width="18"
   height="18">
  <path
     d="m 4.0714286,2.142855 v 12.107147 c 0,0.612729 -0.2326715,1.17375 -0.609375,1.607143 H 16.285714 C 17.294807,15.857145 18,15.151952 18,14.142859 V 2.142855 Z m 8.1428574,2.1428571 h 3.428571 c 0.237429,0 0.428572,0.1911429 0.428572,0.4285715 0,0.2374285 -0.191143,0.4285714 -0.428572,0.4285714 h -3.428571 c -0.237429,0 -0.428572,-0.1911429 -0.428572,-0.4285714 0,-0.2374286 0.191143,-0.4285715 0.428572,-0.4285715 z M 0,4.7142836 v 9.5357184 c 0,0.890357 0.71678571,1.607143 1.6071429,1.607143 0.8903571,0 1.6071428,-0.716786 1.6071428,-1.607143 V 4.7142836 Z m 6.4285714,0 h 3.4285715 v 3 H 6.4285714 Z m 5.7857146,2.5714285 h 3.428571 c 0.237429,0 0.428572,0.1911429 0.428572,0.4285715 0,0.2374284 -0.191143,0.4285714 -0.428572,0.4285714 h -3.428571 c -0.237429,0 -0.428572,-0.191143 -0.428572,-0.4285714 0,-0.2374286 0.191143,-0.4285715 0.428572,-0.4285715 z M 6.4285714,10.071431 h 9.2142856 c 0.237429,0 0.428572,0.191143 0.428572,0.428571 0,0.237429 -0.191143,0.428572 -0.428572,0.428572 H 6.4285714 C 6.1911429,10.928574 6,10.737431 6,10.500002 6,10.262574 6.1911429,10.071431 6.4285714,10.071431 Z m 0,2.785714 h 9.2142856 c 0.237429,0 0.428572,0.191143 0.428572,0.428571 0,0.237429 -0.191143,0.428572 -0.428572,0.428572 H 6.4285714 C 6.1911429,13.714288 6,13.523145 6,13.285716 6,13.048288 6.1911429,12.857145 6.4285714,12.857145 Z" />
</svg>
