<?xml version="1.0" encoding="UTF-8"?>
<svg width="12" height="12" version="1.0" xmlns="http://www.w3.org/2000/svg">
 <path d="m5.9199-0.029297c-3.3111 0.07845-5.9339 2.8296-5.8555 6.1406 0.078456 3.3111 2.8276 5.934 6.1387 5.8555 3.3111-0.07846 5.9359-2.8296 5.8574-6.1406l-0.001953-0.021484c-0.090917-3.3027-2.8357-5.9123-6.1387-5.834zm0.11133 0.77148c1.2286-7.1625e-4 2.4566 0.43194 3.459 1.2988 2.2063 1.9081 2.4491 5.2469 0.54102 7.4531l-2.0879-2.0859v-2.3613l-1.1816-0.63281h-1.8164l-2.373-2.3691c1.0013-0.86802 2.2304-1.302 3.459-1.3027zm1.7285 1.6758-0.73438 1.6719 1.0605 0.57031 0.22266-0.36719 0.83594 0.54883 0.50781-1.0996-1.6699-0.85547-0.22266-0.46875zm-5.7207 0.16016 1.834 1.8359h-1.6738c-0.2504 0-0.25358 0.46875 0 0.46875h0.61133v3.9102c0 0.35732 0.58984 0.38447 0.58984 0v-1.8535h2.9941l0.875 0.87695v0.97656c0 0.37067 0.67383 0.36118 0.67383 0v-0.30273l1.5449 1.5469c-2.2063 1.9081-5.545 1.6672-7.4531-0.53906-1.7338-2.0047-1.7322-4.9173 0.0039063-6.9199z" fill-rule="evenodd" stroke="#000" stroke-width=".016693px"/>
</svg>
