<?xml version="1.0" encoding="UTF-8" standalone="no"?>
<svg viewBox="0 0 18 18" height="18" width="18">
  <path
     d="M 6.4285714,3.8870776 0,7.7442205 c 0,2.5714285 0.32142857,6.4285715 1.6071429,6.4285715 h 4.8214285 c 1.2857143,0 1.6071429,-4.5000001 1.6071429,-4.5000001 0.66474,-0.321429 1.2638314,-0.321429 1.9285714,0 0,0 0.3214283,4.5000001 1.6071433,4.5000001 h 4.821428 C 17.678571,14.172792 18,10.315649 18,7.7442205 L 11.571429,3.8870776 c -0.61533,-0.3552557 -1.122095,0.9592972 0,1.6071429 l 3.857142,2.25 H 2.5714286 l 3.8571428,-2.25 c 1.1860715,-0.6847843 0.4692472,-1.8780429 0,-1.6071429 z M 1.6071429,9.3513629 H 6.4285714 L 5.7857143,12.565649 H 2.25 Z m 9.9642861,0 h 4.821428 L 15.75,12.565649 h -3.535714 z"
/>
</svg>
