<?xml version="1.0" encoding="UTF-8"?>
<svg width="18" height="18" version="1.1" viewBox="0 0 516.6 516.6" xml:space="preserve" xmlns="http://www.w3.org/2000/svg" xmlns:cc="http://creativecommons.org/ns#" xmlns:dc="http://purl.org/dc/elements/1.1/" xmlns:rdf="http://www.w3.org/1999/02/22-rdf-syntax-ns#"><metadata><rdf:RDF><cc:Work rdf:about=""><dc:format>image/svg+xml</dc:format><dc:type rdf:resource="http://purl.org/dc/dcmitype/StillImage"/><dc:title/></cc:Work></rdf:RDF></metadata>

	
		<path d="m457.14 414.7v-32c20.114-26.514 18.286-87.771 18.286-95.086 0-54.857-67.657-84.114-118.86-97.829v-49.371c0-9.143-7.314-17.371-17.371-17.371h-0.914v-64c0-5.486-3.657-9.143-9.143-9.143h-54.857c-5.486 0-9.143 3.657-9.143 9.143v27.428h-109.72c-60.343 0-109.71 49.371-109.71 109.71v56.686c-26.515 7.315-45.715 49.372-45.715 103.32 0 60.343 23.771 105.14 54.857 105.14s54.857-44.8 54.857-105.14c0-53.943-19.2-96-45.714-103.31v-56.686c0-50.286 41.143-91.429 91.429-91.429h109.71v18.286h-0.914c-9.143 0-17.371 7.314-17.371 17.371v49.371c-51.201 13.715-118.86 42.972-118.86 97.829 0 7.314-1.829 68.571 18.286 95.086v32l-9.143 35.657c-0.914 2.743 0 5.486 1.829 8.229 1.829 1.829 4.571 3.657 7.314 3.657h310.86c2.743 0 5.486-0.914 7.314-3.657 1.829-1.829 2.743-5.486 1.829-8.229zm-173.71-346.51h36.571v18.285h-9.143c-5.486 0-9.143 3.657-9.143 9.143s3.657 9.143 9.143 9.143h9.143v18.286h-36.571zm-118.86 320h274.29v18.286h-274.29zm-6.4 54.857 4.571-18.286h277.94l4.571 18.286z"/>
	


	
		<path d="m466.29 95.613h-9.143c-5.486 0-9.143 3.657-9.143 9.143s3.657 9.143 9.143 9.143h9.143c5.486 0 9.143-3.657 9.143-9.143 0-5.485-3.658-9.143-9.143-9.143z"/>
	


	
		<path d="m393.14 95.613h-9.143c-5.486 0-9.143 3.657-9.143 9.143s3.657 9.143 9.143 9.143h9.143c5.486 0 9.143-3.657 9.143-9.143 0-5.485-3.657-9.143-9.143-9.143z"/>
	


	
		<path d="m429.71 95.613h-9.143c-5.486 0-9.143 3.657-9.143 9.143s3.657 9.143 9.143 9.143h9.143c5.486 0 9.143-3.657 9.143-9.143 0-5.485-3.657-9.143-9.143-9.143z"/>
	


	
		<path d="m502.86 95.613h-9.143c-5.486 0-9.143 3.657-9.143 9.143s3.657 9.143 9.143 9.143h9.143c5.486 0 9.143-3.657 9.143-9.143 0-5.485-3.657-9.143-9.143-9.143z"/>
	


	
		<path d="m473.6 57.213c-0.914-4.571-6.4-8.229-10.971-7.314l-9.143 1.829c-4.571 0.914-8.229 6.4-7.314 10.971s4.571 8.229 9.143 8.229h1.829l9.143-2.743c4.57-0.915 8.227-6.4 7.313-10.972z"/>
	


	
		<path d="m437.94 65.442c-0.914-4.571-6.4-8.229-10.971-7.314l-9.143 1.829c-4.571 0.914-8.229 6.4-7.314 10.971 0.914 4.571 4.571 7.314 9.143 7.314h1.829l9.143-1.829c4.57-0.914 8.227-6.4 7.313-10.971z"/>
	


	
		<path d="m402.29 73.67c-0.914-4.571-6.4-8.229-10.971-7.314l-9.143 1.829c-4.571 0.914-8.229 6.4-7.314 10.971 0.914 4.571 4.571 7.314 9.143 7.314h1.829l9.143-1.829c4.57-0.913 8.227-6.399 7.313-10.971z"/>
	


	
		<path d="m466.29 141.33-9.143-1.829c-4.571-0.914-10.057 1.829-10.971 7.314-0.914 4.571 1.829 10.057 7.314 10.971l9.143 1.829h1.829c4.571 0 8.229-2.743 9.143-7.314 0.913-5.486-2.744-10.057-7.315-10.971z"/>
	


	
		<path d="m394.97 124.87-9.143-1.829c-4.571-0.914-10.057 1.829-10.971 7.314-0.914 4.571 1.829 10.057 7.314 10.971l9.143 1.829h1.829c4.571 0 8.229-2.743 9.143-7.314s-2.743-9.142-7.315-10.971z"/>
	


	
		<path d="m430.63 133.1-9.143-1.829c-4.571-0.914-10.057 1.829-10.971 7.314-0.914 4.571 1.829 10.057 7.314 10.971l9.143 1.829h1.829c4.571 0 8.229-2.743 9.143-7.314 0.913-4.571-2.744-10.057-7.315-10.971z"/>
	
















</svg>
