<?xml version="1.0" encoding="iso-8859-1"?>
<!-- Generator: Adobe Illustrator 19.0.0, SVG Export Plug-In . SVG Version: 6.00 Build 0)  -->
<svg version="1.1" id="Layer_1" xmlns="http://www.w3.org/2000/svg" xmlns:xlink="http://www.w3.org/1999/xlink" x="0px" y="0px"
	 viewBox="0 0 512 512" style="enable-background:new 0 0 512 512;" xml:space="preserve">
<g>
	<g>
		<path d="M457.143,414.699v-32c20.114-26.514,18.286-87.771,18.286-95.086c0-54.857-67.657-84.114-118.857-97.829v-49.371
			c0-9.143-7.314-17.371-17.371-17.371h-0.914v-64c0-5.486-3.657-9.143-9.143-9.143h-54.857c-5.486,0-9.143,3.657-9.143,9.143V86.47
			H155.429c-60.343,0-109.714,49.371-109.714,109.714v56.686C19.2,260.185,0,302.242,0,356.185
			c0,60.343,23.771,105.143,54.857,105.143c31.086,0,54.857-44.8,54.857-105.143c0-53.943-19.2-96-45.714-103.314v-56.686
			c0-50.286,41.143-91.429,91.429-91.429h109.714v18.286h-0.914c-9.143,0-17.371,7.314-17.371,17.371v49.371
			C195.657,203.499,128,232.756,128,287.613c0,7.314-1.829,68.571,18.286,95.086v32l-9.143,35.657c-0.914,2.743,0,5.486,1.829,8.229
			c1.829,1.829,4.571,3.657,7.314,3.657h310.857c2.743,0,5.486-0.914,7.314-3.657c1.829-1.829,2.743-5.486,1.829-8.229
			L457.143,414.699z M283.429,68.185H320V86.47h-9.143c-5.486,0-9.143,3.657-9.143,9.143s3.657,9.143,9.143,9.143H320v18.286
			h-36.571V68.185z M164.571,388.185h274.286v18.286H164.571V388.185z M158.171,443.042l4.571-18.286h277.943l4.571,18.286H158.171z
			"/>
	</g>
</g>
<g>
	<g>
		<path d="M466.286,95.613h-9.143c-5.486,0-9.143,3.657-9.143,9.143c0,5.486,3.657,9.143,9.143,9.143h9.143
			c5.486,0,9.143-3.657,9.143-9.143C475.429,99.271,471.771,95.613,466.286,95.613z"/>
	</g>
</g>
<g>
	<g>
		<path d="M393.143,95.613H384c-5.486,0-9.143,3.657-9.143,9.143c0,5.486,3.657,9.143,9.143,9.143h9.143
			c5.486,0,9.143-3.657,9.143-9.143C402.286,99.271,398.629,95.613,393.143,95.613z"/>
	</g>
</g>
<g>
	<g>
		<path d="M429.714,95.613h-9.143c-5.486,0-9.143,3.657-9.143,9.143c0,5.486,3.657,9.143,9.143,9.143h9.143
			c5.486,0,9.143-3.657,9.143-9.143C438.857,99.271,435.2,95.613,429.714,95.613z"/>
	</g>
</g>
<g>
	<g>
		<path d="M502.857,95.613h-9.143c-5.486,0-9.143,3.657-9.143,9.143c0,5.486,3.657,9.143,9.143,9.143h9.143
			c5.486,0,9.143-3.657,9.143-9.143C512,99.271,508.343,95.613,502.857,95.613z"/>
	</g>
</g>
<g>
	<g>
		<path d="M473.6,57.213c-0.914-4.571-6.4-8.229-10.971-7.314l-9.143,1.829c-4.571,0.914-8.229,6.4-7.314,10.971
			s4.571,8.229,9.143,8.229c0.914,0,0.914,0,1.829,0l9.143-2.743C470.857,67.27,474.514,61.785,473.6,57.213z"/>
	</g>
</g>
<g>
	<g>
		<path d="M437.943,65.442c-0.914-4.571-6.4-8.229-10.971-7.314l-9.143,1.829c-4.571,0.914-8.229,6.4-7.314,10.971
			c0.914,4.571,4.571,7.314,9.143,7.314c0.914,0,0.914,0,1.829,0l9.143-1.829C435.2,75.499,438.857,70.013,437.943,65.442z"/>
	</g>
</g>
<g>
	<g>
		<path d="M402.286,73.67c-0.914-4.571-6.4-8.229-10.971-7.314l-9.143,1.829c-4.571,0.914-8.229,6.4-7.314,10.971
			c0.914,4.571,4.571,7.314,9.143,7.314c0.914,0,0.914,0,1.829,0l9.143-1.829C399.543,83.728,403.2,78.242,402.286,73.67z"/>
	</g>
</g>
<g>
	<g>
		<path d="M466.286,141.328l-9.143-1.829c-4.571-0.914-10.057,1.829-10.971,7.314c-0.914,4.571,1.829,10.057,7.314,10.971
			l9.143,1.829c0.914,0,0.914,0,1.829,0c4.571,0,8.229-2.743,9.143-7.314C474.514,146.813,470.857,142.242,466.286,141.328z"/>
	</g>
</g>
<g>
	<g>
		<path d="M394.971,124.87l-9.143-1.829c-4.571-0.914-10.057,1.829-10.971,7.314c-0.914,4.571,1.829,10.057,7.314,10.971
			l9.143,1.829c0.914,0,0.914,0,1.829,0c4.571,0,8.229-2.743,9.143-7.314C403.2,131.27,399.543,126.699,394.971,124.87z"/>
	</g>
</g>
<g>
	<g>
		<path d="M430.629,133.099l-9.143-1.829c-4.571-0.914-10.057,1.829-10.971,7.314c-0.914,4.571,1.829,10.057,7.314,10.971
			l9.143,1.829c0.914,0,0.914,0,1.829,0c4.571,0,8.229-2.743,9.143-7.314C438.857,139.499,435.2,134.013,430.629,133.099z"/>
	</g>
</g>
<g>
</g>
<g>
</g>
<g>
</g>
<g>
</g>
<g>
</g>
<g>
</g>
<g>
</g>
<g>
</g>
<g>
</g>
<g>
</g>
<g>
</g>
<g>
</g>
<g>
</g>
<g>
</g>
<g>
</g>
</svg>
