<?xml version="1.0" encoding="UTF-8" standalone="no"?>
<svg
   xmlns:dc="http://purl.org/dc/elements/1.1/"
   xmlns:cc="http://creativecommons.org/ns#"
   xmlns:rdf="http://www.w3.org/1999/02/22-rdf-syntax-ns#"
   xmlns:svg="http://www.w3.org/2000/svg"
   xmlns="http://www.w3.org/2000/svg"
   id="svg26"
   xml:space="preserve"
   viewBox="0 0 18 18"
   version="1.1"
   height="18"
   width="18">
<path
   d="m 9.6424349,1.7543825 c -0.1928658,0 -0.3212176,0.1283516 -0.3212176,0.3212175 V 3.041223 H 5.4646376 c -2.121419,0 -3.8585504,1.7353013 -3.8585504,3.8565798 V 8.8901391 C 0.67392556,9.1473053 0,10.625467 0,12.522063 c 0,2.12142 0.83641554,3.696957 1.9292753,3.696957 1.0928596,0 1.9273044,-1.575643 1.9273044,-3.696957 0,-1.89642 -0.6739607,-3.3749335 -1.606087,-3.6319239 V 6.8978028 c 0,-1.7678551 1.4462899,-3.214145 3.2141449,-3.214145 h 3.8565797 v 0.6424349 h -0.03153 c -0.3214314,0 -0.6109045,0.2573403 -0.6109045,0.6109042 V 6.6731475 C 6.8787596,7.1553121 4.4990146,8.1833944 4.4990146,10.111947 c 0,0.257132 -0.064728,2.410077 0.6424349,3.342238 v 1.125247 L 4.8202322,15.83277 c -0.032133,0.09644 7.313e-4,0.193255 0.065032,0.289688 0.0643,0.0643 0.1597528,0.128093 0.2561857,0.128093 H 16.070724 c 0.09644,0 0.193891,-0.03166 0.258157,-0.128093 0.0643,-0.0643 0.0952,-0.193254 0.06306,-0.289688 l -0.321218,-1.253338 v -1.125247 c 0.707129,-0.932126 0.642435,-3.085072 0.642435,-3.342238 0,-1.9285526 -2.377704,-2.9566349 -4.177797,-3.4387995 V 4.9369969 c 0,-0.3214313 -0.257341,-0.6109042 -0.610905,-0.6109042 h -0.03153 V 2.0756 c 0,-0.1928659 -0.128351,-0.3212175 -0.321217,-0.3212175 z m 6.6214151,0 -0.321219,0.065032 c -0.160697,0.032133 -0.288353,0.2255511 -0.256185,0.3862492 0.03217,0.1606981 0.160484,0.2877162 0.321217,0.2877162 h 0.06306 l 0.321218,-0.096562 C 16.552605,2.3646497 16.682231,2.1732722 16.650098,2.0125389 16.617965,1.8518408 16.424547,1.7222148 16.26385,1.7543825 Z m -1.25334,0.2896869 -0.321217,0.065032 c -0.160699,0.032133 -0.290324,0.2235804 -0.258157,0.3842785 0.03214,0.1606981 0.162455,0.2581564 0.323189,0.2581564 h 0.06306 l 0.321217,-0.065032 C 15.299266,2.6543717 15.428891,2.4609533 15.396759,2.3002552 15.364627,2.139557 15.171208,2.0119017 15.01051,2.0440694 Z m -1.253339,0.2896869 -0.321218,0.063061 c -0.160698,0.032133 -0.290324,0.2255511 -0.258156,0.3862492 0.03214,0.1606981 0.162455,0.2581564 0.323188,0.2581564 h 0.06306 L 13.885263,2.976191 C 14.045926,2.9440938 14.175553,2.7506753 14.14342,2.589942 14.111287,2.4292439 13.917869,2.3015886 13.757171,2.3337563 Z M 9.9636522,2.3968174 H 11.250493 V 3.041223 h -0.321218 c -0.192866,0 -0.321217,0.1283515 -0.321217,0.3212173 0,0.1928659 0.128351,0.3212175 0.321217,0.3212175 h 0.321218 V 4.3260927 H 9.9636522 Z m 3.5353618,0.9656229 c -0.192866,0 -0.321217,0.1283516 -0.321217,0.3212175 0,0.1928659 0.128351,0.3212174 0.321217,0.3212174 h 0.323189 c 0.192866,0 0.321217,-0.1283515 0.321217,-0.3212174 0,-0.1928308 -0.128351,-0.3212174 -0.321217,-0.3212175 z m 1.286841,0 c -0.192866,0 -0.321218,0.1283516 -0.321217,0.3212175 0,0.1928659 0.128351,0.3212174 0.321217,0.3212174 h 0.321217 c 0.192866,0 0.321218,-0.1283515 0.321218,-0.3212174 0,-0.1928308 -0.128352,-0.3212174 -0.321218,-0.3212175 z m 1.284869,0 c -0.192865,0 -0.321217,0.1283516 -0.321217,0.3212175 0,0.1928659 0.128352,0.3212174 0.321217,0.3212174 h 0.321218 c 0.192866,0 0.323188,-0.1283515 0.323188,-0.3212174 0,-0.1928308 -0.130357,-0.3212174 -0.323188,-0.3212175 z m 1.286841,0 c -0.192866,0 -0.321217,0.1283516 -0.321217,0.3212175 0,0.1928659 0.128351,0.3212174 0.321217,0.3212174 h 0.321217 C 17.871648,4.0048752 18,3.8765237 18,3.6836578 18,3.490827 17.871648,3.3624404 17.678782,3.3624403 Z m -3.793519,0.9636524 c -0.160698,-0.032133 -0.354116,0.063355 -0.386249,0.2561856 -0.03214,0.1606981 0.06532,0.3541166 0.258156,0.3862492 l 0.321218,0.065032 h 0.06503 c 0.160698,0 0.289084,-0.097458 0.321217,-0.2581563 0.03214,-0.1606981 -0.09743,-0.3199782 -0.258156,-0.3842785 z m 1.25334,0.2896869 c -0.160698,-0.032133 -0.354117,0.063355 -0.38625,0.2561856 -0.03214,0.1606981 0.06533,0.3541166 0.258157,0.3862492 l 0.321217,0.065032 h 0.06503 c 0.160698,0 0.289085,-0.097458 0.321218,-0.2581564 0.03209,-0.160698 -0.09746,-0.3541165 -0.258157,-0.386249 z m 1.253338,0.2896868 c -0.160698,-0.032133 -0.352145,0.063355 -0.384278,0.2561857 -0.03214,0.1606982 0.06335,0.3541167 0.256185,0.3862493 l 0.321219,0.063061 h 0.06503 c 0.160698,0 0.289084,-0.095488 0.321217,-0.2561857 0.0321,-0.192866 -0.09746,-0.3541167 -0.258156,-0.3862493 z M 5.7858549,13.64731 H 15.42829 v 0.642434 H 5.7858549 Z m -0.065032,1.28684 h 9.7724991 l 0.159623,0.642435 H 5.5611999 Z"
   style="stroke-width:0.035156"
   id="path4" />
</svg>
