<?xml version="1.0" encoding="UTF-8" standalone="no"?>
<svg
   xmlns:dc="http://purl.org/dc/elements/1.1/"
   xmlns:cc="http://creativecommons.org/ns#"
   xmlns:rdf="http://www.w3.org/1999/02/22-rdf-syntax-ns#"
   xmlns:svg="http://www.w3.org/2000/svg"
   xmlns="http://www.w3.org/2000/svg"
   id="svg6"
   version="1.1"
   viewBox="0 0 24 24"
   height="24"
   width="24">
  <metadata
     id="metadata12">
    <rdf:RDF>
      <cc:Work
         rdf:about="">
        <dc:format>image/svg+xml</dc:format>
        <dc:type
           rdf:resource="http://purl.org/dc/dcmitype/StillImage" />
        <dc:title></dc:title>
      </cc:Work>
    </rdf:RDF>
  </metadata>
  <defs
     id="defs10" />
  <path
     id="path4"
     d="m 3.62,13.79 c 1.44,2.83 3.76,5.14 6.59,6.59 l 2.2,-2.2 c 0.27,-0.27 0.67,-0.36 1.02,-0.24 1.12,0.37 2.33,0.57 3.57,0.57 0.55,0 1,0.45 1,1 V 23 c 0,0.55 -0.45,1 -1,1 C 7.61,24 0,16.39 0,7 0,6.45 0.45,6 1,6 h 3.5 c 0.55,0 1,0.45 1,1 0,1.25 0.2,2.45 0.57,3.57 0.11,0.35 0.03,0.74 -0.25,1.02 z" />
  <path
     id="path4-3"
     d="m 23.365709,8.9893606 a 1.2585867,1.2585867 0 0 0 -1.401405,0.095206 L 20.839607,8.4359389 a 4.3738117,4.3738117 0 0 0 0.02976,-2.6064371 l 1.09494,-0.6307816 A 1.261562,1.261562 0 1 0 21.488243,4.3715674 l -1.01163,0.5950733 A 2.8474407,2.8474407 0 0 0 18.123085,3.6009366 V 2.4286361 a 1.261562,1.261562 0 1 0 -0.958075,0 V 3.6753287 A 3.939406,3.939406 0 0 0 14.966202,5.058879 L 13.796877,4.3834622 A 1.2585867,1.2585867 0 1 0 13.320815,5.210623 l 1.160406,0.6694575 a 3.3056496,3.3056496 0 0 0 -0.246958,1.261563 3.5942616,3.5942616 0 0 0 0.235055,1.2823927 l -1.145527,0.6605304 a 1.261562,1.261562 0 1 0 0.476062,0.8271608 L 14.92455,9.2630918 a 3.6091385,3.6091385 0 0 0 2.24046,1.4252102 v 1.166349 a 1.261562,1.261562 0 1 0 0.958075,0 V 10.73888 a 2.9753821,2.9753821 0 0 0 2.311869,-1.4341287 l 1.053289,0.5950734 a 1.2585867,1.2585867 0 1 0 1.877466,-0.9223669 z"
     data-name="Path"
     style="stroke-width:0.29753819" />
</svg>
