<?xml version="1.0" encoding="UTF-8"?>
<svg width="18" height="18" version="1.1" viewBox="0 0 18 18" xmlns="http://www.w3.org/2000/svg" xmlns:cc="http://creativecommons.org/ns#" xmlns:dc="http://purl.org/dc/elements/1.1/" xmlns:rdf="http://www.w3.org/1999/02/22-rdf-syntax-ns#">
 <metadata>
  <rdf:RDF>
   <cc:Work rdf:about="">
    <dc:format>image/svg+xml</dc:format>
    <dc:type rdf:resource="http://purl.org/dc/dcmitype/StillImage"/>
    <dc:title/>
   </cc:Work>
  </rdf:RDF>
 </metadata>
 <path id="photo" d="m2.4324 5.1005c-2.4335 0.021938-2.4335 0.27368-2.4324 2.5713l0.018892 7.7421c-0.020018 2.5203-0.020018 2.5203 2.4537 2.5649l12.968-0.04658c2.4949 0.0019 2.4949 0.0019 2.5595-2.5846l-0.0017-7.6668c-0.0629-2.5584-0.0629-2.5584-2.5586-2.5688zm7.8159 1.3231c2.8303 2e-7 5.1247 2.2944 5.1247 5.1247 0 2.8303-2.2944 5.1247-5.1247 5.1247-2.8303 0-5.1247-2.2944-5.1247-5.1247 0-2.8303 2.2944-5.1247 5.1247-5.1247zm-7.708-3.8875 1.3231-1e-7c1.2602 0.023975 1.2602 1.3052 1.3007 1.9315l-3.8196 0.041957c-0.064434-0.66831-0.064434-1.9495 1.1958-1.9735zm10.919 9.0409c0 1.7689-1.434 3.2029-3.2029 3.2029-1.7689 0-3.2029-1.434-3.2029-3.2029 0-1.7689 1.434-3.2029 3.2029-3.2029 1.7689 0 3.2029 1.434 3.2029 3.2029zm-1.9285-10.321-0.02194 3.3366 6.4463-0.020396 0.02193-3.463c-0.04195-1.1119-0.04195-1.1119-1.3006-1.1094l-3.7935 0.015742c-1.3537-0.018242-1.3537-0.018242-1.3522 1.2405zm1.413 0.061931 3.7327-0.021938 0.04291 2.5443-3.7346 0.020396z"/>
</svg>
