<?xml version="1.0" encoding="UTF-8"?>
<svg width="18" height="18" version="1.1" viewBox="0 0 18 18" xmlns="http://www.w3.org/2000/svg">
 <path id="place-of-worship" d="m8.0337 0c-1.0627 0-1.9243 0.86152-1.9243 1.9243 0 1.0627 0.86152 1.9243 1.9243 1.9243 1.0627 0 1.9243-0.86152 1.9243-1.9243 0-1.0627-0.86152-1.9243-1.9243-1.9243zm-6.8404 5.8667 1.709 3.1132 3.8485-1.2828 1.2828 5.1314-2.5657 2.5657c-0.34789 0.39138-0.59793 0.58846-0.64142 1.2828 0 1.2828 1.2828 1.2828 1.2828 1.2828h7.6971s1.2828 0 1.2828-1.2828c0-1.2828-1.2828-1.2828-1.2828-1.2828h-3.8485l1.2828-1.2828c1.2828-1.2828 1.1917-1.8892 1.0423-2.5657l-1.0423-5.1314c-0.3071-1.1461-1.1061-1.7057-2.5657-1.4753l-1.2828 0.19243-3.8485 1.9243-1.2828-1.9243c-0.56594-0.75382-1.5179-0.10489-1.0676 0.73529z"/>
</svg>
