<?xml version="1.0" encoding="UTF-8" standalone="no"?>
<svg
   xmlns:dc="http://purl.org/dc/elements/1.1/"
   xmlns:cc="http://creativecommons.org/ns#"
   xmlns:rdf="http://www.w3.org/1999/02/22-rdf-syntax-ns#"
   xmlns:svg="http://www.w3.org/2000/svg"
   xmlns="http://www.w3.org/2000/svg"
   xmlns:sodipodi="http://sodipodi.sourceforge.net/DTD/sodipodi-0.dtd"
   xmlns:inkscape="http://www.inkscape.org/namespaces/inkscape"
   inkscape:version="1.0 (4035a4fb49, 2020-05-01)"
   sodipodi:docname="place-of-worship-14.svg"
   id="svg2"
   viewBox="0 0 18 18"
   height="18"
   width="18"
   version="1.1">
  <sodipodi:namedview
     inkscape:current-layer="svg2"
     inkscape:window-maximized="1"
     inkscape:window-y="-9"
     inkscape:window-x="-9"
     inkscape:cy="8.5223999"
     inkscape:cx="1.1304345"
     inkscape:zoom="20.960665"
     showgrid="false"
     id="namedview7"
     inkscape:window-height="1001"
     inkscape:window-width="1920"
     inkscape:pageshadow="2"
     inkscape:pageopacity="0"
     guidetolerance="10"
     gridtolerance="10"
     objecttolerance="10"
     borderopacity="1"
     bordercolor="#666666"
     pagecolor="#ffffff" />
  <metadata
     id="metadata8">
    <rdf:RDF>
      <cc:Work
         rdf:about="">
        <dc:format>image/svg+xml</dc:format>
        <dc:type
           rdf:resource="http://purl.org/dc/dcmitype/StillImage" />
        <dc:title></dc:title>
      </cc:Work>
    </rdf:RDF>
  </metadata>
  <defs
     id="defs6" />
  <rect
     style="visibility:hidden;fill:none;stroke:none"
     id="canvas"
     y="0"
     x="0"
     height="14"
     width="14" />
  <path
     style="fill:#000000;fill-opacity:1;stroke:none;stroke-width:1.28284"
     id="place-of-worship"
     d="M 8.0336836,0 C 6.9709421,0 6.1094195,0.8615224 6.1094195,1.9242641 c 0,1.0627416 0.8615226,1.924264 1.9242641,1.924264 1.0627428,0 1.9242641,-0.8615224 1.9242641,-1.924264 C 9.9579477,0.8615224 9.0964251,0 8.0336836,0 Z M 1.1932943,5.8666591 2.9023127,8.979899 6.7508409,7.6970563 8.0336836,12.828427 5.4679982,15.394113 c -0.347889,0.391376 -0.5979343,0.588465 -0.6414214,1.282842 0,1.282843 1.2828427,1.282843 1.2828427,1.282843 h 7.6970565 c 0,0 1.282842,0 1.282842,-1.282843 0,-1.282842 -1.282842,-1.282842 -1.282842,-1.282842 H 9.9579477 L 11.24079,14.11127 c 1.282843,-1.282843 1.191742,-1.889199 1.04231,-2.565686 L 11.24079,6.4142136 C 10.933691,5.2681003 10.134709,4.7084806 8.675105,4.9389444 L 7.3922622,5.1313708 3.5437341,7.0556349 2.2608914,5.1313708 C 1.6949499,4.3775507 0.74301014,5.0264766 1.1932943,5.8666591 Z" />
</svg>
