<?xml version="1.0" encoding="UTF-8" standalone="no"?>
<svg
   xmlns:dc="http://purl.org/dc/elements/1.1/"
   xmlns:cc="http://creativecommons.org/ns#"
   xmlns:rdf="http://www.w3.org/1999/02/22-rdf-syntax-ns#"
   xmlns:svg="http://www.w3.org/2000/svg"
   xmlns="http://www.w3.org/2000/svg"
   xmlns:sodipodi="http://sodipodi.sourceforge.net/DTD/sodipodi-0.dtd"
   xmlns:inkscape="http://www.inkscape.org/namespaces/inkscape"
   inkscape:version="1.0 (4035a4f, 2020-05-01)"
   height="18"
   width="18"
   sodipodi:docname="pottery.svg"
   xml:space="preserve"
   viewBox="0 0 18 18"
   y="0px"
   x="0px"
   id="Ebene_1"
   version="1.1"><metadata
   id="metadata44"><rdf:RDF><cc:Work
       rdf:about=""><dc:format>image/svg+xml</dc:format><dc:type
         rdf:resource="http://purl.org/dc/dcmitype/StillImage" /><dc:title></dc:title></cc:Work></rdf:RDF></metadata><defs
   id="defs42" /><sodipodi:namedview
   inkscape:current-layer="Ebene_1"
   inkscape:window-maximized="0"
   inkscape:window-y="23"
   inkscape:window-x="0"
   inkscape:cy="9"
   inkscape:cx="9"
   inkscape:zoom="5.4097222"
   scale-x="1"
   showgrid="false"
   id="namedview40"
   inkscape:window-height="987"
   inkscape:window-width="1359"
   inkscape:pageshadow="2"
   inkscape:pageopacity="0"
   guidetolerance="10"
   gridtolerance="10"
   objecttolerance="10"
   borderopacity="1"
   bordercolor="#666666"
   pagecolor="#ffffff" />
<path
   style="stroke-width:0.1"
   id="path37"
   d="m 10.56,4 c 0,-2.9 0.66,-3.63 0.66,-3.63 C 11.4,0.17 11.33,0 11.06,0 h -4 C 6.78,0 6.71,0.17 6.9,0.37 6.9,0.37 7.56,1.1 7.56,4 7.56,6.2 4,5.5 4,10 4,13.7 6.51,17.58 6.51,17.58 6.66,17.81 7.01,18 7.28,18 h 3.44 C 11,18 11.34,17.81 11.49,17.58 11.49,17.58 14,13.7 14,10 14,5.5 10.56,6.2 10.56,4 Z" />
</svg>
