<?xml version="1.0" encoding="UTF-8" standalone="no"?>
<svg
   xmlns:dc="http://purl.org/dc/elements/1.1/"
   xmlns:cc="http://creativecommons.org/ns#"
   xmlns:rdf="http://www.w3.org/1999/02/22-rdf-syntax-ns#"
   xmlns:svg="http://www.w3.org/2000/svg"
   xmlns="http://www.w3.org/2000/svg"
   id="svg10"
   xml:space="preserve"
   viewBox="0 0 18 18"
   version="1.1"
   height="18"
   width="18">
<path
   style="stroke-width:0.0436256"
   d="m 4.4994035,0.2118655 c -0.4142253,0 -0.7499858,0.33580209 -0.7499858,0.75007098 V 4.1130356 H 0.94647152 C 0.42370567,4.1130356 0,4.536785 0,5.0595071 v 6.9726869 c 0,0.522678 0.42370567,0.946472 0.94647152,0.946472 H 1.847528 c 0.5227222,0 0.9465567,-0.423794 0.9465567,-0.946472 V 10.68619 h 0.955333 v 6.351873 c 0,0.414269 0.3357605,0.750071 0.7499858,0.750071 h 9.0012785 c 0.414181,0 0.749985,-0.335802 0.749985,-0.750071 V 10.68619 H 15.206 v 1.346004 c 0,0.522678 0.423748,0.946472 0.946557,0.946472 h 0.900971 C 17.57625,12.978666 18,12.554872 18,12.032194 V 5.0595071 C 18.000044,4.536785 17.57638,4.1130356 17.053614,4.1130356 H 14.250667 V 0.96193648 c 0,-0.41426889 -0.335804,-0.75007098 -0.749985,-0.75007098 z m 0.749986,1.5000567 H 12.750355 V 4.1130356 H 5.2493895 Z m 0,8.9746088 h 7.5009655 v 5.601972 H 5.2493895 Z m 1.7314769,0.906339 c -0.2613611,0 -0.4732355,0.211875 -0.4732355,0.473236 0,0.261405 0.2118744,0.473321 0.4732355,0.473321 h 4.0384376 c 0.261404,0 0.473236,-0.211873 0.473236,-0.473321 0,-0.261317 -0.211788,-0.473236 -0.473236,-0.473236 z m 0,2.303297 c -0.2613611,0 -0.4732355,0.211916 -0.4732355,0.473321 0,0.261317 0.2118744,0.473235 0.4732355,0.473235 h 4.0384376 c 0.261404,0 0.473236,-0.211787 0.473236,-0.473235 0,-0.261361 -0.211832,-0.473321 -0.473236,-0.473321 z"
   id="path4" />
</svg>
