<?xml version="1.0" encoding="UTF-8"?>
<svg width="18" height="18" version="1.1" viewBox="0 0 412.2 412.2" xml:space="preserve" xmlns="http://www.w3.org/2000/svg" xmlns:cc="http://creativecommons.org/ns#" xmlns:dc="http://purl.org/dc/elements/1.1/" xmlns:rdf="http://www.w3.org/1999/02/22-rdf-syntax-ns#"><metadata><rdf:RDF><cc:Work rdf:about=""><dc:format>image/svg+xml</dc:format><dc:type rdf:resource="http://purl.org/dc/dcmitype/StillImage"/><dc:title/></cc:Work></rdf:RDF></metadata>

	
		<path d="m390.91 94.277h-64.25v-72.23c0-9.496-7.697-17.193-17.191-17.193h-206.33c-9.495 0-17.192 7.697-17.192 17.193v72.23h-64.25c-11.983 0-21.696 9.713-21.696 21.695v159.83c0 11.981 9.713 21.696 21.696 21.696h20.655c11.982 0 21.696-9.715 21.696-21.696v-30.853h21.899v145.6c0 9.496 7.697 17.193 17.192 17.193h206.33c9.494 0 17.191-7.697 17.191-17.193v-145.6h21.898v30.853c0 11.981 9.713 21.696 21.697 21.696h20.654c11.982 0 21.695-9.715 21.695-21.696v-159.83c1e-3 -11.982-9.711-21.695-21.694-21.695zm-270.58-55.039h171.94v55.039h-171.94zm171.94 334.13h-171.94v-128.41h171.94z"/>
		<path d="m160.02 287.43h92.57c5.992 0 10.848-4.856 10.848-10.849 0-5.99-4.855-10.848-10.848-10.848h-92.57c-5.991 0-10.848 4.857-10.848 10.848 0 5.992 4.857 10.849 10.848 10.849z"/>
		<path d="m252.59 318.53h-92.57c-5.991 0-10.848 4.856-10.848 10.848 0 5.99 4.857 10.849 10.848 10.849h92.57c5.992 0 10.848-4.856 10.848-10.849 0-5.991-4.856-10.848-10.848-10.848z"/>
	
















</svg>
