<?xml version="1.0" encoding="UTF-8" standalone="no"?>
<svg
   height="18"
   width="18"
   viewBox="0 0 18 18">
  <path
     d="M 1.1312873,4.1709578 H 16.868465 C 17.490834,4.1709578 18,4.6806179 18,5.3027394 v 7.3947676 c 0,0.620886 -0.510402,1.131535 -1.131535,1.131535 H 1.1312873 C 0.51064882,13.829042 0,13.318393 0,12.697507 V 5.3027394 C 0,4.6806179 0.50916581,4.1709578 1.1312873,4.1709578 Z M 8.0581668,10.798764 H 15.43069 v 0.981998 H 8.0581668 Z m 0,-2.2897628 h 5.6186202 v 0.981998 H 8.0581668 Z m 0,-2.289763 H 15.43069 v 0.982245 H 8.0581668 Z M 4.9065294,11.21277 h -1.83448 v 0.982245 h 1.83448 z m -2.4914522,0 H 1.6100515 v 0.982245 H 2.4150772 Z M 4.9065294,9.4101752 h -1.83448 v 0.9819978 h 1.83448 z m -2.4914522,0 H 1.6100515 v 0.9819978 h 0.8050257 z m 2.4914522,-1.802595 h -1.83448 v 0.98175 h 1.83448 z m -2.4914522,0 H 1.6100515 v 0.98175 H 2.4150772 Z M 4.9065294,5.8052317 h -1.83448 v 0.9819975 h 1.83448 z m -2.4914522,0 H 1.6100515 V 6.7872292 H 2.4150772 Z M 5.8682595,10.621297 H 6.824552 v 1.926427 H 5.8682595 Z m 0,-2.5846338 H 6.824552 v 1.926426 H 5.8682595 Z m 0,-2.5843872 H 6.824552 V 7.3787022 H 5.8682595 Z M 16.868465,5.1529557 H 1.1312873 c -0.082554,0 -0.14928936,0.066982 -0.14928936,0.1497837 v 7.3947676 c 0,0.0833 0.0659939,0.14929 0.14928936,0.14929 H 16.868465 c 0.08404,0 0.149537,-0.06599 0.149537,-0.14929 V 5.3027394 c 0,-0.082801 -0.06723,-0.1497837 -0.149537,-0.1497837 z" />
</svg>
