<?xml version="1.0" encoding="UTF-8" standalone="no"?>
<svg
   xmlns:dc="http://purl.org/dc/elements/1.1/"
   xmlns:cc="http://creativecommons.org/ns#"
   xmlns:rdf="http://www.w3.org/1999/02/22-rdf-syntax-ns#"
   xmlns:svg="http://www.w3.org/2000/svg"
   xmlns="http://www.w3.org/2000/svg"
   id="svg4"
   viewBox="0 0 18 18"
   height="18"
   width="18"
   version="1.1">
  <path
     style="stroke-width:1.23769462"
     id="recycling"
     d="M 6.7003873,11.428619 4.7228471,7.855913 H 0.74569857 L 2.3623877,8.8263114 1.3629096,10.612327 c -0.08524,0.161963 -0.1278588,0.331097 -0.127855,0.507407 -3.8e-6,0.176317 0.042614,0.345452 0.127855,0.507405 l 1.5732053,2.844571 c 0.070957,-0.205923 0.141914,-0.382461 0.2128772,-0.529612 L 5.1057625,10.45822 Z m -2.9556024,2.866778 c -0.1137936,0.191119 -0.1706954,0.396818 -0.1706905,0.617096 -4.9e-6,0.33827 0.1170365,0.62495 0.3511154,0.860034 0.2340716,0.235086 0.5140121,0.352627 0.8398216,0.352627 H 8.678576 V 12.839801 H 4.5528052 c -0.028566,0.05878 -0.1350003,0.249893 -0.3193141,0.573354 z M 9.040077,6.1580555 h 3.955729 L 14.994765,2.5860235 13.378725,3.55642 12.378597,1.7697308 C 12.194265,1.4319238 11.91086,1.2630137 11.52839,1.2629981 H 8.3806791 c 0.127631,0.1467195 0.2340678,0.2936465 0.3193153,0.440784 L 10.6347,5.1876575 10.316035,5.3861781 Z M 7.1047223,1.4393125 C 6.6508387,1.4393267 6.3105395,1.6450258 6.083826,2.0564093 L 4.1062846,5.5846988 C 4.8574018,6.0405209 5.7718602,6.5844905 6.8496607,7.2166085 7.4874137,6.0847126 8.1749333,4.8498465 8.9122219,3.5120051 L 8.1256199,2.0564093 C 7.8988878,1.6450258 7.5585899,1.4393267 7.1047223,1.4393125 Z M 12.187788,12.795387 V 12.398343 10.877469 L 10.209598,14.449504 12.187788,18 v -1.918588 h 1.97754 c 0.3829,0 0.673442,-0.169134 0.871623,-0.507407 l 1.573854,-2.844568 c -0.212457,0.05877 -0.389639,0.08816 -0.53154,0.08816 z m 2.934834,-6.0417698 c -0.07098,0.043979 -0.985652,0.5879448 -2.744025,1.6319091 0.87918,1.5729217 1.574055,2.8151897 2.084627,3.7268137 h 1.594624 c 0.468137,2e-6 0.815574,-0.205919 1.042315,-0.617773 0.212424,-0.397038 0.205287,-0.801258 -0.02142,-1.212661 L 15.122624,6.7536172 Z" />
</svg>
