<?xml version="1.0" encoding="UTF-8" standalone="no"?>
<svg
   width="18"
   height="18"
   viewBox="0 0 18 18">
  <path
     d="M 1.9285716,0 C 1.6071431,0 1.2857145,0.32142857 1.2857145,0.96428571 V 9 c 0,1.285714 2.25,1.285714 2.25,2.571429 L 2.8928574,18 H 6.1071431 L 5.4642859,11.571429 c 0,-1.285715 2.25,-1.285715 2.25,-2.571429 V 0.96428571 c 0,-1.28571428 -1.2857143,-1.28571428 -1.2857143,0 V 7.7142857 c 0,0.7242274 -1.2857142,0.7242274 -1.2857142,0 V 0.96428571 c 0,-1.28571428 -1.2857143,-1.28571428 -1.2857143,0 V 7.7142857 c 0,0.6780009 -1.2857143,0.6780009 -1.2857143,0 V 0.96428571 C 2.5714288,0.32142857 2.2500002,0 1.9285716,0 Z M 12.857143,0 c -1.285714,0 -3.8571428,2.5714286 -3.8571428,6.4285714 0,3.8571426 2.8928578,5.1428576 2.8928578,5.1428576 L 11.25,18 h 3.214285 l -0.642856,-6.428571 c 0,0 2.892857,-1.285715 2.892857,-5.1428576 C 16.714286,2.5714286 14.142858,0 12.857143,0 Z"
     />
</svg>
