<?xml version="1.0" encoding="UTF-8"?>
<svg width="14" height="14" enable-background="new 0 0 580 580" version="1.1" viewBox="0 0 14 14" xml:space="preserve" xmlns="http://www.w3.org/2000/svg">
  
    <path d="m6 3c-3 0-6 2-6 4s3 4 6 4c2.2433-0.022811 5-2 5-4s-3-4-5-4zm5 4c0 2 1.6344 3.2742 3 4 0-2-0.66667-2.6667-1-4 0.33333-1.3333 1-2 1-4-1.2285 0.66485-3 2-3 4zm-8.0176-2a1 1 0 0 1 1.0176 0.97656v0.023438a1 1 0 0 1-0.99414 1 1 1 0 0 1-1.0059-0.98828 1 1 0 0 1 0.98242-1.0117z" fill-rule="evenodd"/></svg>
