<?xml version="1.0" encoding="UTF-8" standalone="no"?>
<svg viewBox="0 0 18 18" height="18" width="18">
    <path
   d="M 7.7142857,3.8571429 C 3.8571429,3.8571429 0,6.4285715 0,9.0000001 0,11.571428 3.8571429,14.142857 7.7142857,14.142857 10.59854,14.11353 14.142857,11.571428 14.142857,9.0000001 c 0,-2.5714286 -3.857143,-5.1428572 -6.4285713,-5.1428572 z M 14.142857,9.0000001 C 14.142857,11.571428 16.244209,13.2097 18,14.142857 18,11.571428 17.142857,10.714285 16.714286,9.0000001 17.142857,7.2857144 18,6.4285715 18,3.8571429 16.420488,4.711954 14.142857,6.4285715 14.142857,9.0000001 Z M 3.8345424,6.4285715 a 1.2857143,1.2857143 0 0 1 1.3083147,1.2555803 v 0.030134 A 1.2857143,1.2857143 0 0 1 3.8646764,9.0000001 1.2857143,1.2857143 0 0 1 2.5714286,7.729353 1.2857143,1.2857143 0 0 1 3.8345424,6.4285715 Z" /></svg>
