<?xml version="1.0" encoding="UTF-8"?>
<svg width="18" height="18" version="1.1" viewBox="0 0 18 18" xmlns="http://www.w3.org/2000/svg" xmlns:cc="http://creativecommons.org/ns#" xmlns:dc="http://purl.org/dc/elements/1.1/" xmlns:rdf="http://www.w3.org/1999/02/22-rdf-syntax-ns#">
 <metadata>
  <rdf:RDF>
   <cc:Work rdf:about="">
    <dc:format>image/svg+xml</dc:format>
    <dc:type rdf:resource="http://purl.org/dc/dcmitype/StillImage"/>
    <dc:title/>
   </cc:Work>
  </rdf:RDF>
 </metadata>
 <rect id="canvas" y="4" width="14" height="14" fill="none" visibility="hidden"/>
 <path id="variety_store" d="m6.4286 0c-1.2857 0-1.2857 0-1.2857 1.2857l0.012556 3.8571h-3.8697v11.571c0 1.2857 0 1.2857 1.2857 1.2857h12.857c1.2857 0 1.2857 0 1.2857-1.2857v-11.571h-3.8069l-0.05022-3.8571c-2e-6 -1.2857-2e-6 -1.2857-1.2857-1.2857zm0 1.2857h5.1429v3.8571h-5.1429zm3.2218 5.1429 0.26116 0.047712c1.8237 0.32494 3.3475 1.5998 3.9777 3.3323 0.15573 0.42809 0.25096 0.86938 0.28878 1.3083 0.10465 1.2146-0.29296 2.3897-0.98438 3.38h0.4721c0.34363 6.28e-4 0.62862 0.28305 0.62779 0.62528l-0.0025 0.47963c-8.2e-4 0.34182-0.28409 0.62341-0.62779 0.62277l-3.0084-5e-3c-0.21107-4.44e-4 -0.38733-0.1762-0.38673-0.38674l5e-3 -2.9933c6.11e-4 -0.34202 0.28659-0.62341 0.6303-0.62277l0.48214 0.0025c0.34364 6.29e-4 0.62592 0.28323 0.62528 0.62528v0.16071c0.38869-0.81351 0.57175-1.7212 0.24861-2.6091-0.41931-1.1532-1.4393-2.0034-2.6543-2.2199l-0.26116-0.0452zm-5.3136 0.48968 3.0084 0.00753c0.2108 5.922e-4 0.38715 0.17394 0.38672 0.38421l-0.00753 2.9933c-6.46e-4 0.34197-0.28419 0.6257-0.62779 0.62528l-0.48214-0.002511c-0.34364-6.38e-4 -0.62319-0.28344-0.62277-0.62528l-0.00251-0.16574c-0.39059 0.81448-0.57226 1.7196-0.2486 2.6091 0.41952 1.1529 1.4369 2.0084 2.6518 2.2249l0.26367 0.0452-0.30636 1.7001-0.26367-0.04771c-1.8239-0.32504-3.345-1.6024-3.9752-3.3348-0.58742-1.6154-0.21688-3.3332 0.72824-4.6833h-0.50725c-0.34363-6.4e-4 -0.62591-0.28325-0.62528-0.62528v-0.47963c8.292e-4 -0.34179 0.28671-0.6257 0.6303-0.62528z" stroke-width="1.2857"/>
</svg>
