<?xml version="1.0" encoding="UTF-8" standalone="no"?>
<svg
   xmlns:dc="http://purl.org/dc/elements/1.1/"
   xmlns:cc="http://creativecommons.org/ns#"
   xmlns:rdf="http://www.w3.org/1999/02/22-rdf-syntax-ns#"
   xmlns:svg="http://www.w3.org/2000/svg"
   xmlns="http://www.w3.org/2000/svg"
   height="18"
   width="18"
   version="1.1"
   x="0px"
   y="0px"
   viewBox="0 0 18 18"
   enable-background="new 0 0 100 100"
   xml:space="preserve"
   id="svg20"
   style="fill:#000000">
	<path
   style="stroke-width:0.21716581"
   id="polygon2"
   d="m 0,1.4136175 1.9506749,2.0397469 h 4.3356816 4.6601585 l 1.62535,-2.0397469 H 6.2863565 Z M 2.587327,3.828739 c -0.3665759,0 -0.664222,0.2186859 -0.664222,0.488623 v 0.3910681 c 0,0.2699371 0.2976461,0.4886231 0.664222,0.4886231 h 3.6990295 3.6986053 c 0.3665762,0 0.6642222,-0.218686 0.6642222,-0.4886231 V 4.317362 c 0,-0.2699371 -0.297646,-0.488623 -0.6642222,-0.488623 H 6.2863565 Z m 0.016967,1.7538685 c -0.3667931,0 -0.664222,0.2186859 -0.664222,0.488623 v 0.3910681 c 0,0.2699371 0.2974289,0.4886231 0.664222,0.4886231 h 3.6820634 0.8338828 2.8816888 8.47e-4 2.455416 c 0.698622,0 1.486096,0.3991712 1.871782,0.9492522 0.219772,0.3138046 0.282004,0.6314435 0.184931,0.9441626 -0.03475,0.11184 -0.119832,0.284562 -0.209956,0.467415 -0.310547,0.630867 -0.735995,1.4943585 -0.433483,2.4142725 0.201313,0.612191 0.695521,1.113679 1.468414,1.490896 l 1.813674,0.566667 c 0.06254,0.01955 0.125366,0.02884 0.187475,0.02884 0.284053,0 0.546434,-0.192596 0.631563,-0.489896 0.103588,-0.362232 -0.09554,-0.743144 -0.444088,-0.850424 l -1.671158,-0.514921 c -0.292957,-0.148324 -0.642234,-0.379728 -0.738873,-0.673553 -0.122047,-0.370485 0.133404,-0.890159 0.359257,-1.3483795 0.115098,-0.233454 0.224071,-0.45406 0.291392,-0.671009 C 15.99606,8.5330494 15.863012,7.7627114 15.39502,7.0947092 14.760896,6.1904307 13.580929,5.5826075 12.458616,5.5826075 H 10.002776 10.001928 7.1202393 6.2863565 Z M 2.587327,7.3364759 c -0.3665759,0 -0.664222,0.218686 -0.664222,0.4886231 v 0.3910681 c 0,0.2699371 0.2976461,0.4886234 0.664222,0.4886234 h 3.6990295 3.6986053 c 0.3665762,0 0.6642222,-0.2184691 0.6642222,-0.4886234 V 7.825099 c 0,-0.2699371 -0.297646,-0.4886231 -0.6642222,-0.4886231 H 6.2863565 Z m 0,1.7534446 c -0.3665759,0 -0.664222,0.218893 -0.664222,0.489047 v 0.391068 c 0,0.2699375 0.2976461,0.4886235 0.664222,0.4886235 h 3.6990295 3.6986053 c 0.3665762,0 0.6642222,-0.218686 0.6642222,-0.4886235 v -0.391068 c 0,-0.269937 -0.297646,-0.489047 -0.6642222,-0.489047 H 6.2863565 Z m 0,1.7542915 c -0.3665759,0 -0.664222,0.218686 -0.664222,0.488624 v 0.391069 c 0,0.269937 0.2976461,0.489046 0.664222,0.489046 h 3.6990295 3.6986053 c 0.3665762,0 0.6642222,-0.218892 0.6642222,-0.489046 v -0.391069 c 0,-0.269719 -0.297646,-0.488624 -0.6642222,-0.488624 H 6.2863565 Z m 0,1.753445 c -0.3665759,0 -0.664222,0.21911 -0.664222,0.489047 v 0.391068 c 0,0.26972 0.2976461,0.488623 0.664222,0.488623 h 3.6990295 3.6986053 c 0.3665762,0 0.6642222,-0.218902 0.6642222,-0.488623 v -0.391068 c 0,-0.269937 -0.297646,-0.489047 -0.6642222,-0.489047 H 6.2863565 Z M 1.9506749,14.54706 0,16.586382 H 6.2863565 12.571865 L 10.946515,14.54706 H 6.2863565 Z" /></svg>
