<?xml version="1.0" encoding="UTF-8" standalone="no"?>
<svg
   xmlns:dc="http://purl.org/dc/elements/1.1/"
   xmlns:cc="http://creativecommons.org/ns#"
   xmlns:rdf="http://www.w3.org/1999/02/22-rdf-syntax-ns#"
   xmlns:svg="http://www.w3.org/2000/svg"
   xmlns="http://www.w3.org/2000/svg"
   xmlns:sodipodi="http://sodipodi.sourceforge.net/DTD/sodipodi-0.dtd"
   xmlns:inkscape="http://www.inkscape.org/namespaces/inkscape"
   viewBox="0 0 18 18"
   height="18"
   width="18"
   version="1.1"
   id="svg4"
   sodipodi:docname="shoes.svg"
   inkscape:version="0.92.4 (5da689c313, 2019-01-14)">
  <metadata
     id="metadata10">
    <rdf:RDF>
      <cc:Work
         rdf:about="">
        <dc:format>image/svg+xml</dc:format>
        <dc:type
           rdf:resource="http://purl.org/dc/dcmitype/StillImage" />
        <dc:title></dc:title>
      </cc:Work>
    </rdf:RDF>
  </metadata>
  <defs
     id="defs8" />
  <sodipodi:namedview
     pagecolor="#ffffff"
     bordercolor="#666666"
     borderopacity="1"
     objecttolerance="10"
     gridtolerance="10"
     guidetolerance="10"
     inkscape:pageopacity="0"
     inkscape:pageshadow="2"
     inkscape:window-width="2560"
     inkscape:window-height="1410"
     id="namedview6"
     showgrid="false"
     inkscape:zoom="45.922657"
     inkscape:cx="9"
     inkscape:cy="9"
     inkscape:window-x="0"
     inkscape:window-y="30"
     inkscape:window-maximized="0"
     inkscape:current-layer="svg4" />
  <g
     id="g871"
     transform="matrix(1.2815293,0,0,1.1996246,0.07711665,1.2625175)">
    <rect
       style="visibility:hidden;fill:none;stroke:none"
       id="canvas"
       y="0"
       x="0"
       height="14"
       width="14" />
    <path
       style="fill:#000000;fill-opacity:1;stroke:none"
       id="shoes"
       d="M 0.75,3 C 0.75,3 0,5.25 0,8.25 h 5.5 c 0.5,0 1.306389,1 1.3,1 H 14 C 14,6.25 11,6 10,6 H 8 C 7,4 5,3 5,3 H 4.75 C 4,4.508412 2.016472,4.508412 1,3 Z M 5.5,4 C 5.776142,4 6,4.2238577 6,4.5 6,4.7761423 5.776142,5 5.5,5 5.223858,5 5,4.7761423 5,4.5 5,4.2238577 5.223858,4 5.5,4 Z m 1,1 C 6.776142,5 7,5.2238577 7,5.5 7,5.7761423 6.776142,6 6.5,6 6.223858,6 6,5.7761423 6,5.5 6,5.2238577 6.223858,5 6.5,5 Z M 0,9 v 2 H 5.25 V 9 Z m 7.3,1 c 0,0 0.7,1 1.2,1 H 14 v -1 z"
       inkscape:connector-curvature="0" />
  </g>
</svg>
