<?xml version="1.0" encoding="UTF-8"?>
<svg width="18" height="18" version="1.1" viewBox="0 0 18 18" xmlns="http://www.w3.org/2000/svg" xmlns:cc="http://creativecommons.org/ns#" xmlns:dc="http://purl.org/dc/elements/1.1/" xmlns:rdf="http://www.w3.org/1999/02/22-rdf-syntax-ns#">
 <metadata>
  <rdf:RDF>
   <cc:Work rdf:about="">
    <dc:format>image/svg+xml</dc:format>
    <dc:type rdf:resource="http://purl.org/dc/dcmitype/StillImage"/>
    <dc:title/>
   </cc:Work>
  </rdf:RDF>
 </metadata>
 <g transform="matrix(1.2815 0 0 1.1996 .077117 1.2625)">
  <path id="shoes" d="m0.75 3s-0.75 2.25-0.75 5.25h5.5c0.5 0 1.3064 1 1.3 1h7.2c0-3-3-3.25-4-3.25h-2c-1-2-3-3-3-3h-0.25c-0.75 1.5084-2.7335 1.5084-3.75 0zm4.75 1c0.27614 0 0.5 0.22386 0.5 0.5s-0.22386 0.5-0.5 0.5-0.5-0.22386-0.5-0.5 0.22386-0.5 0.5-0.5zm1 1c0.27614 0 0.5 0.22386 0.5 0.5s-0.22386 0.5-0.5 0.5-0.5-0.22386-0.5-0.5 0.22386-0.5 0.5-0.5zm-6.5 4v2h5.25v-2zm7.3 1s0.7 1 1.2 1h5.5v-1z"/>
 </g>
</svg>
