<?xml version="1.0" encoding="UTF-8" standalone="no"?>
<svg
   xmlns:dc="http://purl.org/dc/elements/1.1/"
   xmlns:cc="http://creativecommons.org/ns#"
   xmlns:rdf="http://www.w3.org/1999/02/22-rdf-syntax-ns#"
   xmlns:svg="http://www.w3.org/2000/svg"
   xmlns="http://www.w3.org/2000/svg"
   xmlns:sodipodi="http://sodipodi.sourceforge.net/DTD/sodipodi-0.dtd"
   xmlns:inkscape="http://www.inkscape.org/namespaces/inkscape"
   viewBox="0 0 18 18"
   height="18"
   width="18"
   version="1.1"
   id="svg4"
   sodipodi:docname="shoes.svg"
   inkscape:version="0.92.4 (5da689c313, 2019-01-14)">
  <metadata
     id="metadata10">
    <rdf:RDF>
      <cc:Work
         rdf:about="">
        <dc:format>image/svg+xml</dc:format>
        <dc:type
           rdf:resource="http://purl.org/dc/dcmitype/StillImage" />
        <dc:title></dc:title>
      </cc:Work>
    </rdf:RDF>
  </metadata>
  <defs
     id="defs8" />
  <sodipodi:namedview
     pagecolor="#ffffff"
     bordercolor="#666666"
     borderopacity="1"
     objecttolerance="10"
     gridtolerance="10"
     guidetolerance="10"
     inkscape:pageopacity="0"
     inkscape:pageshadow="2"
     inkscape:window-width="1366"
     inkscape:window-height="708"
     id="namedview6"
     showgrid="false"
     inkscape:zoom="22.961329"
     inkscape:cx="7.9600277"
     inkscape:cy="9.0393582"
     inkscape:window-x="0"
     inkscape:window-y="0"
     inkscape:window-maximized="1"
     inkscape:current-layer="svg4" />
  <g
     id="g871">
    <rect
       style="visibility:hidden;fill:none;stroke:none"
       id="canvas"
       y="0"
       x="0"
       height="14"
       width="14" />
    <path
       style="fill:#000000;fill-opacity:1;stroke:none"
       id="shoes"
       d="m 1.0110011,4.3412481 c 0,0 -0.96049884,2.8814965 -0.96049884,6.7234919 H 7.0941604 c 0.6403325,0 1.6730467,1.280665 1.6648646,1.280665 h 9.220788 c 0,-3.8419953 -3.841995,-4.1621616 -5.12266,-4.1621616 h -2.56133 C 9.015158,5.6219132 6.4538278,4.3412481 6.4538278,4.3412481 H 6.1336615 c -0.9604988,1.9317706 -3.5007339,1.9317706 -4.8024941,0 z m 6.0831592,1.2806651 c 0.3536455,0 0.6403326,0.2866867 0.6403326,0.6403325 0,0.3536459 -0.2866871,0.6403326 -0.6403326,0.6403326 -0.3536454,0 -0.6403325,-0.2866867 -0.6403325,-0.6403326 0,-0.3536458 0.2866871,-0.6403325 0.6403325,-0.6403325 z m 1.2806652,1.2806651 c 0.3536454,0 0.6403325,0.2866867 0.6403325,0.6403325 0,0.3536459 -0.2866871,0.6403326 -0.6403325,0.6403326 -0.3536455,0 -0.6403326,-0.2866867 -0.6403326,-0.6403326 0,-0.3536458 0.2866871,-0.6403325 0.6403326,-0.6403325 z M 0.05050226,12.025239 v 2.56133 H 6.7739941 v -2.56133 z m 9.34885524,1.280665 c 0,0 0.8964655,1.280665 1.5367975,1.280665 h 7.043658 v -1.280665 z"
       inkscape:connector-curvature="0" />
  </g>
</svg>
