<?xml version="1.0" encoding="UTF-8"?>
<svg width="9.0414" height="9" version="1.1" viewBox="0 0 9.0414 9" xmlns="http://www.w3.org/2000/svg">
 <title>shop-11.svg</title>
 <rect x="-3.98" y="-4" width="17" height="17" fill="none"/>
 <path d="m8.62 3h-1.11l-0.29-1.73c-0.1168-0.5397-0.5262-0.9685-1.06-1.11-0.2606-0.0931-0.5336-0.147-0.81-0.16h-1.66c-0.2721 0.0075-0.5416 0.0547-0.8 0.14-0.5431 0.1415-0.9583 0.5799-1.07 1.13l-0.29 1.73h-1.17c-0.2043 0.0055-0.3654 0.1755-0.3599 0.3798 1e-3 0.0375 0.0077 0.0747 0.0199 0.1102l1.21 4.7c0.1354 0.4705 0.5606 0.7985 1.05 0.81h4.48c0.4931-0.0072 0.9235-0.3361 1.06-0.81l1.2-4.7c0.0682-0.1926-0.0326-0.4041-0.2252-0.4723-0.056-0.0199-0.116-0.0259-0.1748-0.0177zm-6.33 0 0.27-1.61c0.061-0.2688 0.2782-0.4741 0.55-0.52 0.1846-0.0591 0.3763-0.0928 0.57-0.1h1.67c0.1937 0.0072 0.3854 0.0409 0.57 0.1 0.2718 0.0459 0.489 0.2512 0.55 0.52l0.28 1.61z" fill="rgba(255,255,255,0.25)" stroke="rgba(255,255,255,0.25)" stroke-linejoin="round" stroke-width="2"/>
</svg>
