<?xml version="1.0" encoding="UTF-8"?>
<svg width="18" height="18" enable-background="new 0 0 580 580" version="1.1" viewBox="0 0 18 18" xml:space="preserve" xmlns="http://www.w3.org/2000/svg" xmlns:cc="http://creativecommons.org/ns#" xmlns:dc="http://purl.org/dc/elements/1.1/" xmlns:rdf="http://www.w3.org/1999/02/22-rdf-syntax-ns#"><metadata><rdf:RDF><cc:Work rdf:about=""><dc:format>image/svg+xml</dc:format><dc:type rdf:resource="http://purl.org/dc/dcmitype/StillImage"/><dc:title/></cc:Work></rdf:RDF></metadata>
  
  <path d="m7.071 1.6234a1.6336 1.6234 0 0 1-1.6336 1.6235 1.6336 1.6234 0 0 1-1.6336-1.6235 1.6336 1.6234 0 0 1 1.6336-1.6234 1.6336 1.6234 0 0 1 1.6336 1.6234zm8.8298 11.029-3.4549 0.888c-0.14112 0.03627-0.45369 0.0043-0.57202-0.0249-0.30326-0.05881-0.39046-0.19967-0.50913-0.34697l-1.6357-2.6951-2.0563 2.2072 0.83025 4.1268c0.026553 0.08849 0.03983 0.16212 0.03983 0.22092 0 0.26491-0.085654 0.493-0.25701 0.68429-0.17135 0.19128-0.37568 0.28695-0.61307 0.28695-0.44806 0-0.72498-0.25754-0.8308-0.77259l-1.0082-5.0098c-0.11867-0.52986-0.065996-0.91984 0.15808-1.17l1.7992-2.0086-1.9573-2.5379-1.2653 1.4124c-0.13191 0.14682-0.28356 0.22025-0.45495 0.22025-0.22403 0-0.44142-0.11025-0.65221-0.33069l-2.0563-2.2955c-0.10536-0.1473-0.15799-0.30918-0.15808-0.48564 9.42e-5 -0.22045 0.069209-0.40432 0.20763-0.55162 0.13833-0.14725 0.29988-0.22092 0.48446-0.22092 0.18467 0 0.32968 0.058805 0.43504 0.17646l1.7003 1.8987 2.0563-2.2954c0.15808-0.17694 0.36094-0.31711 0.59311-0.26543l4.4765 0.99646c0.19363 0.043101 0.33534 0.22565 0.48014 0.40259l0.99435 1.7135c0.15807 0.14682 0.23718 0.33069 0.23713 0.55162 3.1e-5 0.2061-0.06582 0.38271-0.1976 0.52977-0.13169 0.14701-0.2899 0.22054-0.47457 0.22054-0.19748 0-0.36887-0.088255-0.51405-0.26472l-1.1546-1.9337-1.8757-0.31785 3.8912 6.0408 3.1706-0.91027c0.25058 0 0.47923 0.05061 0.65062 0.22731 0.17131 0.17665 0.34541 0.33333 0.34541 0.61262 0 0.26491-0.10921 0.49487-0.28051 0.67879-0.17135 0.18392-0.34111 0.28238-0.57184 0.34168z" fill-rule="evenodd"/></svg>
