<?xml version="1.0" encoding="UTF-8" standalone="no"?>
<svg xmlns:dc="http://purl.org/dc/elements/1.1/" xmlns:cc="http://creativecommons.org/ns#" xmlns:rdf="http://www.w3.org/1999/02/22-rdf-syntax-ns#" xmlns:svg="http://www.w3.org/2000/svg" xmlns="http://www.w3.org/2000/svg" version="1.1" x="0px" y="0px" width="18" height="18" viewBox="0 0 18 18" enable-background="new 0 0 580 580" xml:space="preserve" id="svg2">
  <metadata id="metadata21"><rdf:RDF><cc:Work rdf:about=""><dc:format>image/svg+xml</dc:format><dc:type rdf:resource="http://purl.org/dc/dcmitype/StillImage"/><dc:title/></cc:Work></rdf:RDF></metadata>
  <defs id="defs19"/>
  <rect width="14" height="14" x="0" y="0" id="canvas" style="fill:none;stroke:none;visibility:hidden"/>
  <path id="path4286"
        style="fill:#000000;fill-opacity:1;fill-rule:evenodd;stroke:none;stroke-opacity:1"
        d="M 7.1363174,1.6842418 A 1.6259613,1.6158623 0 0 1 5.5103562,3.3001042 1.6259613,1.6158623 0 0 1 3.8843947,1.6842418 1.6259613,1.6158623 0 0 1 5.5103562,0.06837958 1.6259613,1.6158623 0 0 1 7.1363174,1.6842418 Z m 8.7885086,10.9777652 -3.438724,0.883845 c -0.140457,0.0361 -0.451568,0.0042 -0.569346,-0.02478 -0.301842,-0.05853 -0.388634,-0.198738 -0.506753,-0.345348 l -1.6280137,-2.682526 -2.0466928,2.196915 0.826367,4.107554 c 0.026429,0.08808 0.039644,0.161362 0.039644,0.219891 0,0.26367 -0.085254,0.490699 -0.2558043,0.681088 -0.1705514,0.190389 -0.3739241,0.285606 -0.6102057,0.285606 -0.4459639,0 -0.7215906,-0.256341 -0.8269218,-0.768977 L 5.9048493,12.228868 C 5.7867301,11.701482 5.8391614,11.313329 6.0621856,11.064364 L 7.8529894,9.0651667 5.9048071,6.539105 4.6454349,7.9449149 C 4.5141436,8.0910494 4.3632011,8.1641404 4.1926079,8.1641404 3.9696261,8.1641404 3.7532514,8.0544148 3.5434417,7.834993 L 1.4967478,5.5502376 C 1.3918851,5.4036276 1.3394968,5.2425039 1.3394115,5.0668667 1.3395053,4.8474514 1.4082966,4.6644387 1.546067,4.5178287 1.6837525,4.3712662 1.8445415,4.2979381 2.0282639,4.2979381 c 0.1838076,0 0.3281428,0.05853 0.433005,0.1756361 L 4.153647,6.3634207 6.2003402,4.0787125 C 6.3576765,3.9025992 6.5595937,3.7630802 6.7906821,3.8145195 L 11.24628,4.8063204 c 0.192726,0.0429 0.333775,0.2245914 0.477896,0.4007043 l 0.989699,1.7054821 c 0.157335,0.1461344 0.236068,0.3291466 0.236025,0.549038 3.2e-5,0.20514 -0.06552,0.3809193 -0.196681,0.5272911 -0.131078,0.1463244 -0.288542,0.2195116 -0.472349,0.2195116 -0.196554,0 -0.367147,-0.087845 -0.511652,-0.2634801 L 10.620042,6.020161 8.7530651,5.7037946 12.62605,11.716315 l 3.155766,-0.90602 c 0.24941,0 0.476991,0.05037 0.647584,0.226249 0.170507,0.175827 0.343796,0.331768 0.343796,0.609761 0,0.26367 -0.108699,0.492559 -0.279203,0.67562 -0.170551,0.18306 -0.33952,0.281056 -0.569167,0.340082 z"/>
</svg>
