<?xml version="1.0" encoding="UTF-8"?>
<svg width="18" height="18" version="1.1" viewBox="0 0 18 18" xml:space="preserve" xmlns="http://www.w3.org/2000/svg">
<g transform="matrix(.035055 0 0 .035055 .063153 -.13222)">
	
		<path d="m30.183 151.9c-16.643 0-30.183 13.54-30.183 30.183v147.84c0 16.643 13.54 30.183 30.183 30.183h20.253v-208.2z"/>
	
</g>
<g transform="matrix(.035055 0 0 .035055 .063153 -.13222)">
	
		<path d="m417.16 120.41h-65.84c-16.643 0-30.183 13.54-30.183 30.183v87.293h-130.28v-87.293c0-16.643-13.54-30.183-30.182-30.183h-65.84c-16.643 0-30.183 13.54-30.183 30.183v210.81c0 16.643 13.54 30.183 30.183 30.183h65.84c16.643 0 30.182-13.54 30.182-30.183v-87.301h130.28v87.301c0 16.643 13.54 30.183 30.183 30.183h65.84c16.643 0 30.183-13.54 30.183-30.183v-210.81c0-16.643-13.539-30.183-30.183-30.183z"/>
	
</g>
<g transform="matrix(.035055 0 0 .035055 .063153 -.13222)">
	
		<path d="m481.82 151.9h-20.253v208.2h20.253c16.643 0 30.183-13.54 30.183-30.183v-147.84c0-16.643-13.54-30.183-30.183-30.183z"/>
	
</g>















</svg>
