<?xml version="1.0" encoding="UTF-8" standalone="no"?>
<svg
   xmlns:dc="http://purl.org/dc/elements/1.1/"
   xmlns:cc="http://creativecommons.org/ns#"
   xmlns:rdf="http://www.w3.org/1999/02/22-rdf-syntax-ns#"
   xmlns:svg="http://www.w3.org/2000/svg"
   xmlns="http://www.w3.org/2000/svg"
   xmlns:sodipodi="http://sodipodi.sourceforge.net/DTD/sodipodi-0.dtd"
   xmlns:inkscape="http://www.inkscape.org/namespaces/inkscape"
   inkscape:version="1.0 (4035a4fb49, 2020-05-01)"
   height="18"
   width="18"
   sodipodi:docname="gym-svgrepo-com.svg"
   xml:space="preserve"
   viewBox="0 0 18 18"
   y="0px"
   x="0px"
   id="Layer_1"
   version="1.1"><metadata
   id="metadata55"><rdf:RDF><cc:Work
       rdf:about=""><dc:format>image/svg+xml</dc:format><dc:type
         rdf:resource="http://purl.org/dc/dcmitype/StillImage" /><dc:title></dc:title></cc:Work></rdf:RDF></metadata><defs
   id="defs53" /><sodipodi:namedview
   inkscape:current-layer="Layer_1"
   inkscape:window-maximized="1"
   inkscape:window-y="-9"
   inkscape:window-x="-9"
   inkscape:cy="13.926607"
   inkscape:cx="7.8534552"
   inkscape:zoom="18.340582"
   showgrid="false"
   id="namedview51"
   inkscape:window-height="1001"
   inkscape:window-width="1920"
   inkscape:pageshadow="2"
   inkscape:pageopacity="0"
   guidetolerance="10"
   gridtolerance="10"
   objecttolerance="10"
   borderopacity="1"
   bordercolor="#666666"
   pagecolor="#ffffff" />
<g
   transform="matrix(0.03505533,0,0,0.03505533,0.06315336,-0.1322151)"
   id="g6">
	<g
   id="g4">
		<path
   id="path2"
   d="M 30.183,151.899 C 13.54,151.899 0,165.439 0,182.082 V 329.917 C 0,346.56 13.54,360.1 30.183,360.1 H 50.436 V 151.899 Z" />
	</g>
</g>
<g
   transform="matrix(0.03505533,0,0,0.03505533,0.06315336,-0.1322151)"
   id="g12">
	<g
   id="g10">
		<path
   id="path8"
   d="m 417.164,120.41 h -65.84 c -16.643,0 -30.183,13.54 -30.183,30.183 v 87.293 H 190.858 v -87.293 c 0,-16.643 -13.54,-30.183 -30.182,-30.183 h -65.84 c -16.643,0 -30.183,13.54 -30.183,30.183 v 210.814 c 0,16.643 13.54,30.183 30.183,30.183 h 65.84 c 16.643,0 30.182,-13.54 30.182,-30.183 v -87.301 h 130.283 v 87.301 c 0,16.643 13.54,30.183 30.183,30.183 h 65.84 c 16.643,0 30.183,-13.54 30.183,-30.183 V 150.593 c 0,-16.643 -13.539,-30.183 -30.183,-30.183 z" />
	</g>
</g>
<g
   transform="matrix(0.03505533,0,0,0.03505533,0.06315336,-0.1322151)"
   id="g18">
	<g
   id="g16">
		<path
   id="path14"
   d="m 481.817,151.899 h -20.253 v 208.202 h 20.253 c 16.643,0 30.183,-13.54 30.183,-30.183 V 182.082 c 0,-16.643 -13.54,-30.183 -30.183,-30.183 z" />
	</g>
</g>
<g
   id="g20">
</g>
<g
   id="g22">
</g>
<g
   id="g24">
</g>
<g
   id="g26">
</g>
<g
   id="g28">
</g>
<g
   id="g30">
</g>
<g
   id="g32">
</g>
<g
   id="g34">
</g>
<g
   id="g36">
</g>
<g
   id="g38">
</g>
<g
   id="g40">
</g>
<g
   id="g42">
</g>
<g
   id="g44">
</g>
<g
   id="g46">
</g>
<g
   id="g48">
</g>
</svg>
