<?xml version="1.0" encoding="UTF-8" standalone="no"?>
<svg
   xmlns:dc="http://purl.org/dc/elements/1.1/"
   xmlns:cc="http://creativecommons.org/ns#"
   xmlns:rdf="http://www.w3.org/1999/02/22-rdf-syntax-ns#"
   xmlns:svg="http://www.w3.org/2000/svg"
   xmlns="http://www.w3.org/2000/svg"
   id="svg2"
   viewBox="0 0 18 18"
   height="18"
   width="18"
   version="1.1">
  <path
     style="fill:#000000;fill-opacity:1;fill-rule:evenodd;stroke:none;stroke-width:1.28570223"
     id="stationery"
     d="m 5.7857447,12.857154 c 0,-0.924572 0,-6.8570788 0,-10.2856181 0,-1.2857022 0,-1.2857022 1.2857022,-1.2857022 h 1.2857022 c 1.2857022,0 1.2857022,0 1.2857022,1.2857022 L 9.6291792,11.582286 H 8.343477 L 8.3571491,3.8572382 H 7.0714469 c 0,2.142837 -0.013672,5.5822104 -0.013672,7.7250478 0,1.285702 1.9e-6,1.2638 1.2993738,1.274868 l 1.2720306,0.0108 c 1.2857017,0 1.2857017,0 1.2857017,-1.285702 l 0.01367,-9.0107151 c 0.0039,-2.57140140816 0,-2.57140436528 -2.5714038,-2.57140436528 -1.2857022,0 0,0 -1.2857022,0 -2.5714025,-1e-6 -2.5714025,-1e-6 -2.5714025,2.57140336528 0,3.8571067 0,6.4285111 0,10.2856181 0,1.285702 0,1.285702 3.4129016,4.717204 0.2664398,0.384913 0.444205,0.425604 1.1347018,0.425604 0.5952054,0 0.8467351,0.02098 1.2421661,-0.40434 3.210145,-3.452766 3.210145,-3.452766 3.210145,-4.738468 0,-4.285674 0,-5.9999441 0,-10.2856181 H 12.214256 V 12.857154 c 0,0.628924 -2.5714047,4.144447 -3.1334954,3.857106 -0.7236115,0.205243 -3.2950159,-3.022939 -3.2950159,-3.857106 z" />
</svg>
