<?xml version="1.0" encoding="UTF-8" standalone="no"?>
<svg
   xmlns:dc="http://purl.org/dc/elements/1.1/"
   xmlns:cc="http://creativecommons.org/ns#"
   xmlns:rdf="http://www.w3.org/1999/02/22-rdf-syntax-ns#"
   xmlns:svg="http://www.w3.org/2000/svg"
   xmlns="http://www.w3.org/2000/svg"
   height="18"
   width="18"
   fill="#000000"
   data-name="Layer 1"
   viewBox="0 0 18 18"
   x="0px"
   y="0px"
   version="1.1"
   id="svg6">
  <metadata
     id="metadata12">
    <rdf:RDF>
      <cc:Work
         rdf:about="">
        <dc:format>image/svg+xml</dc:format>
        <dc:type
           rdf:resource="http://purl.org/dc/dcmitype/StillImage" />
        <dc:title>Artboard 26</dc:title>
      </cc:Work>
    </rdf:RDF>
  </metadata>
  <defs
     id="defs10" />
  <title
     id="title2">Artboard 26</title>
  <path
     d="M 0.46634019,5.7272727 2.729381,0.72794118 A 1.2415434,1.2332888 0 0 1 3.8619109,0 H 14.137448 a 1.2415434,1.2332888 0 0 1 1.13253,0.72794118 L 17.53302,5.7272727 c 0.643987,1.4217915 -0.298779,3.1042781 -1.865344,3.2085562 h -0.165539 a 2.3982984,2.3823529 0 0 1 -2.040976,-1.1290107 0.15746404,0.15641711 0 0 0 -0.266478,0 2.3982984,2.3823529 0 0 1 -4.0637832,0.026069 0.15746404,0.15641711 0 0 0 -0.2644588,0 2.3982984,2.3823529 0 0 1 -4.0637834,-0.024064 0.15746404,0.15641711 0 0 0 -0.2664777,0 2.3982984,2.3823529 0 0 1 -2.0409761,1.129011 2.5315373,2.5147059 0 0 1 -0.2584026,-0.014037 C 0.72272394,8.7713904 -0.1614972,7.1129679 0.46634019,5.7272727 Z M 17.999355,17.009358 A 0.99727224,0.99064171 0 0 1 17.002083,18 H 0.99727663 a 0.99727224,0.99064171 0 1 1 0,-1.981283 H 1.7522965 v -5.789439 a 3.6216729,3.5975936 0 0 0 0.4865235,0.06818 c 0.086807,0 0.1715954,0 0.2563838,0 a 3.7750994,3.75 0 0 0 2.1742149,-0.6878323 3.7730807,3.7479947 0 0 0 4.3302611,0.020053 3.7730807,3.7479947 0 0 0 4.3302612,-0.020053 3.7750994,3.75 0 0 0 2.174215,0.6878343 c 0.08681,0 0.171595,0 0.256384,0 a 3.6337855,3.6096257 0 0 0 0.488542,-0.06818 v 5.789439 h 0.753001 a 0.99727224,0.99064171 0 0 1 0.997272,0.990641 z m -6.799217,-5.059492 a 0.73079464,0.72593583 0 0 0 -1.033609,0 L 8.3132981,13.780749 7.8348496,13.303476 a 0.73079464,0.72593583 0 0 0 -1.03361,0 v 0 a 0.73079464,0.72593583 0 0 0 0,1.026738 l 0.4784483,0.477273 0.50873,0.509358 a 0.73079464,0.72593583 0 0 0 1.0336101,0 L 9.3428706,14.815508 11.19812,12.98262 a 0.73079464,0.72593583 0 0 0 0.002,-1.032754 z"
     id="path4"
     style="stroke-width:0.201205" />
</svg>
