<?xml version="1.0" encoding="UTF-8" standalone="no"?>
<svg
   xmlns:dc="http://purl.org/dc/elements/1.1/"
   xmlns:cc="http://creativecommons.org/ns#"
   xmlns:rdf="http://www.w3.org/1999/02/22-rdf-syntax-ns#"
   xmlns:svg="http://www.w3.org/2000/svg"
   xmlns="http://www.w3.org/2000/svg"
   xmlns:sodipodi="http://sodipodi.sourceforge.net/DTD/sodipodi-0.dtd"
   xmlns:inkscape="http://www.inkscape.org/namespaces/inkscape"
   inkscape:version="1.0 (4035a4f, 2020-05-01)"
   height="18"
   width="18"
   sodipodi:docname="tailor.svg"
   xml:space="preserve"
   viewBox="0 0 18 18"
   y="0px"
   x="0px"
   id="Ebene_1"
   version="1.1"><metadata
   id="metadata1476"><rdf:RDF><cc:Work
       rdf:about=""><dc:format>image/svg+xml</dc:format><dc:type
         rdf:resource="http://purl.org/dc/dcmitype/StillImage" /><dc:title></dc:title></cc:Work></rdf:RDF></metadata><defs
   id="defs1474" /><sodipodi:namedview
   inkscape:current-layer="Ebene_1"
   inkscape:window-maximized="0"
   inkscape:window-y="23"
   inkscape:window-x="0"
   inkscape:cy="90"
   inkscape:cx="90"
   inkscape:zoom="4.0166667"
   showgrid="false"
   id="namedview1472"
   inkscape:window-height="1009"
   inkscape:window-width="1665"
   inkscape:pageshadow="2"
   inkscape:pageopacity="0"
   guidetolerance="10"
   gridtolerance="10"
   objecttolerance="10"
   borderopacity="1"
   bordercolor="#666666"
   pagecolor="#ffffff" />
<path
   style="stroke-width:0.0999445"
   id="path1469"
   d="m 13.805791,14.352027 c -0.3598,-0.399778 -0.80955,-0.599667 -1.359245,-0.599667 -0.189895,0 -0.379789,0.02998 -0.579678,0.07996 -0.199889,0.04997 -0.409772,0.139923 -0.62965,0.259856 -0.01,0.01 -0.01999,0.01 -0.02998,0.01 -0.01,0 -0.02998,0 -0.05997,0 -0.07996,0 -0.199889,-0.439755 -0.379789,-1.319267 -0.169906,-0.879511 -0.439756,-1.739033 -0.7995565,-2.568573 0.9494725,-2.398667 1.6390895,-4.2476398 2.0688515,-5.5569125 0.419766,-1.3092726 0.639644,-2.2287618 0.639644,-2.748473 0,-0.3598001 -0.06996,-0.6896169 -0.199889,-0.98945033 C 12.346601,0.61965575 12.136718,0.30982787 11.846879,0 L 9.0184495,7.6357579 6.1700325,0.00999445 c -0.289839,0.29983342 -0.499722,0.6096613 -0.62965,0.91948917 -0.129928,0.30982788 -0.199889,0.63964468 -0.199889,0.98945028 0,0.5197113 0.209883,1.4092171 0.619655,2.678512 0.409773,1.2692948 1.109384,3.1482509 2.08884,5.6268741 -0.3598,0.839533 -0.62965,1.689061 -0.799556,2.568573 -0.169905,0.879511 -0.299833,1.319267 -0.389783,1.319267 -0.01,0 -0.02998,0 -0.03998,0 -0.01,0 -0.02998,-0.01 -0.03998,-0.01 -0.219878,-0.119933 -0.429761,-0.199888 -0.62965,-0.259855 -0.199889,-0.05997 -0.389783,-0.07996 -0.579678,-0.07996 -0.5397,0 -0.98945,0.199889 -1.359245,0.599667 -0.3598,0.399778 -0.5397,0.909495 -0.5397,1.519156 0,0.62965 0.189895,1.139367 0.579678,1.529151 0.389783,0.399777 0.879511,0.589672 1.489173,0.589672 0.639644,0 1.129372,-0.249861 1.469183,-0.749584 0.339812,-0.499722 0.509717,-1.219322 0.509717,-2.1588 v -0.789562 c 0,-0.869517 0.09995,-1.499167 0.289839,-1.898945 0.189895,-0.399778 0.519711,-0.669628 0.989451,-0.819544 0.479733,0.159911 0.80955,0.429761 0.999444,0.819544 0.1898955,0.389784 0.2798455,1.019434 0.2798455,1.898945 v 0.789562 c 0,0.939478 0.169905,1.659078 0.509717,2.1588 C 11.127279,17.750139 11.617007,18 12.256651,18 c 0.609662,0 1.09939,-0.199889 1.489173,-0.589672 0.389784,-0.399778 0.579678,-0.909495 0.579678,-1.529151 0.02998,-0.619656 -0.159911,-1.129372 -0.519711,-1.52915 z m -7.1260415,2.558578 c -0.259856,0.289839 -0.599667,0.429761 -1.009439,0.429761 -0.389784,0 -0.709606,-0.139922 -0.969462,-0.409772 -0.249861,-0.26985 -0.379789,-0.62965 -0.379789,-1.059411 0,-0.419767 0.129928,-0.779567 0.399778,-1.059412 0.259856,-0.279844 0.589672,-0.419767 0.979456,-0.419767 0.409772,0 0.729595,0.129928 0.98945,0.389784 0.249861,0.259856 0.379789,0.599667 0.379789,1.009439 0,0.459745 -0.129928,0.829539 -0.389783,1.119378 z m 2.3387,-6.506385 c -0.279844,0 -0.499722,-0.219878 -0.499722,-0.4997225 0,-0.2798445 0.219878,-0.4997224 0.499722,-0.4997224 0.279845,0 0.499723,0.2198779 0.499723,0.4997224 0,0.2798445 -0.219878,0.4997225 -0.499723,0.4997225 z m 4.3176025,6.536369 c -0.249861,0.26985 -0.579678,0.409772 -0.969462,0.409772 -0.389783,0 -0.729594,-0.149917 -0.999444,-0.439756 -0.26985,-0.289839 -0.399778,-0.659633 -0.399778,-1.109383 0,-0.409773 0.129928,-0.749584 0.379789,-1.00944 0.249861,-0.259855 0.579678,-0.389783 0.979456,-0.389783 0.399777,0 0.729594,0.139922 0.98945,0.419767 0.259856,0.279844 0.399778,0.62965 0.399778,1.059411 0,0.429761 -0.129928,0.789561 -0.379789,1.059412 z" />
</svg>
