<?xml version="1.0" encoding="UTF-8" standalone="no"?>
<!DOCTYPE svg PUBLIC "-//W3C//DTD SVG 1.1//EN" "http://www.w3.org/Graphics/SVG/1.1/DTD/svg11.dtd">
<svg width="100%" height="100%" viewBox="0 0 18 18" version="1.1" xmlns="http://www.w3.org/2000/svg" xmlns:xlink="http://www.w3.org/1999/xlink" xml:space="preserve" xmlns:serif="http://www.serif.com/" style="fill-rule:evenodd;clip-rule:evenodd;stroke-linejoin:round;stroke-miterlimit:2;">
    <g transform="matrix(0.100111,0,0,0.100111,0.0150167,0)">
        <g>
            <path d="M60.7,179L65.2,177.8C64.5,175.3 66,172.7 68.5,172.1C71,171.4 73.6,172.9 74.2,175.4L78.7,174.2C78,171.7 79.5,169.1 82,168.5C84.5,167.8 87.1,169.3 87.7,171.8L92.2,170.6C91.5,168.1 93,165.5 95.5,164.9C98,164.2 100.6,165.7 101.2,168.2L105.7,167C105,164.5 106.5,161.9 109,161.3C111.5,160.6 114.1,162.1 114.7,164.6L119.2,163.4C118.5,160.9 120,158.3 122.5,157.7L81.7,3.3C79.2,4 76.6,2.5 76,0L71.5,1.2C72.2,3.7 70.7,6.3 68.2,6.9C65.7,7.6 63.1,6.1 62.5,3.6L58,4.8C58.7,7.3 57.2,9.9 54.7,10.5C52.2,11.2 49.6,9.7 49,7.2L44.5,8.4C45.2,10.9 43.7,13.5 41.2,14.1C38.7,14.8 36.1,13.3 35.5,10.8L31,12C31.7,14.5 30.2,17.1 27.7,17.7C25.2,18.3 22.6,16.9 22,14.4L17,15.8C17.7,18.3 16.2,20.9 13.7,21.5L55,175.7C57.5,175 60.1,176.5 60.7,179Z" style="fill-rule:nonzero;"/>
            <g transform="matrix(0.2588,0.9659,-0.9659,0.2588,187.621,-9.6895)">
                <rect x="64.9" y="115.1" width="70.4" height="4.7" style="fill:white;"/>
            </g>
            <g transform="matrix(0.2588,0.9659,-0.9659,0.2588,183.248,0.8679)">
                <rect x="55.9" y="117.5" width="70.4" height="4.7" style="fill:white;"/>
            </g>
            <g transform="matrix(0.2588,0.9659,-0.9659,0.2588,178.875,11.4254)">
                <rect x="46.8" y="119.9" width="70.4" height="4.7" style="fill:white;"/>
            </g>
            <g transform="matrix(0.2588,0.9659,-0.9659,0.2588,170.129,32.5402)">
                <rect x="28.7" y="124.8" width="70.4" height="4.7" style="fill:white;"/>
            </g>
            <g transform="matrix(0.2588,0.9659,-0.9659,0.2588,165.756,43.0976)">
                <rect x="19.6" y="127.2" width="70.4" height="4.7" style="fill:white;"/>
            </g>
            <path d="M86.3,75L45.5,85.9L29.7,27L70.5,16L86.3,75M92.1,78.3L73.9,10.3L24,23.6L42.2,91.6L92.1,78.3Z" style="fill:white;fill-rule:nonzero;"/>
        </g>
        <g>
            <path d="M60.3,164.2L64.8,165.4C65.5,162.9 68,161.4 70.5,162.1C73,162.8 74.5,165.3 73.8,167.8L78.3,169C79,166.5 81.5,165 84,165.7C86.5,166.4 88,168.9 87.3,171.4L91.8,172.6C92.5,170.1 95,168.6 97.5,169.3C100,170 101.5,172.5 100.8,175L105.3,176.2C106,173.7 108.5,172.2 111,172.9C113.5,173.6 115,176.1 114.3,178.6L118.8,179.8C119.5,177.3 122,175.8 124.5,176.5L165.8,22.4C163.3,21.7 161.8,19.2 162.5,16.7L158,15.5C157.3,18 154.8,19.5 152.3,18.8C149.8,18.1 148.3,15.6 149,13.1L144.5,11.9C143.8,14.4 141.3,15.9 138.8,15.2C136.3,14.5 134.8,12 135.5,9.5L131,8.3C130.3,10.8 127.8,12.3 125.3,11.6C122.8,10.9 121.3,8.4 122,5.9L117.5,4.7C116.8,7.2 114.3,8.7 111.8,8C109.3,7.3 107.8,4.8 108.5,2.3L104,1C103.3,3.5 100.8,5 98.3,4.3L57,158.5C59.5,159.1 61,161.7 60.3,164.2Z" style="fill-rule:nonzero;"/>
            <g transform="matrix(-0.2588,0.9659,-0.9659,-0.2588,289.461,57.2459)">
                <rect x="97" y="137.3" width="51.6" height="4.7" style="fill:white;"/>
            </g>
            <g transform="matrix(-0.2588,0.9659,-0.9659,-0.2588,269.984,49.14)">
                <rect x="80.9" y="125.8" width="70.4" height="4.7" style="fill:white;"/>
            </g>
            <g transform="matrix(-0.2588,0.9659,-0.9659,-0.2588,256.226,54.839)">
                <rect x="71.9" y="123.4" width="70.4" height="4.7" style="fill:white;"/>
            </g>
            <g transform="matrix(-0.2588,0.9659,-0.9659,-0.2588,228.708,66.2371)">
                <rect x="53.7" y="118.5" width="70.4" height="4.7" style="fill:white;"/>
            </g>
            <g transform="matrix(-0.2588,0.9659,-0.9659,-0.2588,214.95,71.9361)">
                <rect x="44.7" y="116.1" width="70.4" height="4.7" style="fill:white;"/>
            </g>
            <path d="M134.5,86.9L93.7,76L109.5,17.1L150.3,28L134.5,86.9M137.8,92.7L156,24.7L106.1,11.3L87.9,79.3L137.8,92.7Z" style="fill:white;fill-rule:nonzero;"/>
        </g>
    </g>
</svg>
