<?xml version="1.0" encoding="UTF-8" standalone="no"?>
<svg
   xmlns:dc="http://purl.org/dc/elements/1.1/"
   xmlns:cc="http://creativecommons.org/ns#"
   xmlns:rdf="http://www.w3.org/1999/02/22-rdf-syntax-ns#"
   xmlns:svg="http://www.w3.org/2000/svg"
   xmlns="http://www.w3.org/2000/svg"
   style="fill:#000000"
   id="svg8"
   version="1.1"
   y="0px"
   x="0px"
   viewBox="0 0 18 18"
   data-name="Layer 1"
   width="18"
   height="18">
  <path
     id="path4"
     d="M 9.7539054,0.00195313 A 2.2160217,2.2160217 0 0 0 9.8417961,4.4316406 2.2106212,2.2106212 0 0 0 12.060546,2.21875 2.2160217,2.2160217 0 0 0 9.7539054,0.00195313 Z M 10.11328,5.3964844 A 1.3825383,1.3825383 0 0 0 9.5761711,5.5097656 2.7632764,2.7632764 0 0 0 9.0078117,5.796875 C 8.1743283,6.3999353 7.3556138,7.0029024 6.5527336,7.6347656 A 4.8352837,4.8352837 0 0 0 5.9394523,8.3378906 V 8.765625 A 0.4518452,0.4518452 0 0 0 6.5429679,8.8808594 C 6.8111948,8.7782491 7.06951,8.6467673 7.3359367,8.5351562 a 1.7317732,1.7317732 0 0 1 0.3613281,-0.125 0.21422143,0.21422143 0 0 1 0.2851563,0.2558594 6.8406843,6.8406843 0 0 1 -0.1601563,0.9199219 C 7.2822107,11.773156 6.7341773,13.959419 6.2031242,16.148438 c -0.1980198,0.793879 0.156763,1.474061 0.8984375,1.8125 A 0.27902791,0.27902791 0 0 1 7.1542961,18 h 1.171875 c 1.0225023,-0.531053 1.9329769,-1.234701 2.8222659,-1.951172 a 5.9819984,5.9819984 0 0 0 0.625,-0.603516 1.5355536,1.5355536 0 0 0 0.222656,-0.339843 0.36003602,0.36003602 0 0 0 -0.03906,-0.414063 0.33843386,0.33843386 0 0 0 -0.384765,-0.111328 c -0.232223,0.08821 -0.470749,0.18044 -0.701172,0.28125 -0.190819,0.07741 -0.377999,0.171059 -0.574219,0.230469 A 0.20342035,0.20342035 0 0 1 10.001952,14.861328 8.4608464,8.4608464 0 0 1 10.18164,13.820312 C 10.701292,11.712902 11.219523,9.605458 11.734374,7.4980469 11.9882,6.4701441 11.448554,5.6344492 10.406249,5.4238281 A 1.3825383,1.3825383 0 0 0 10.11328,5.3964844 Z"
     style="stroke-width:0.18001801" />
</svg>
