<?xml version="1.0" encoding="UTF-8" standalone="no"?>
<svg
   xmlns:dc="http://purl.org/dc/elements/1.1/"
   xmlns:cc="http://creativecommons.org/ns#"
   xmlns:rdf="http://www.w3.org/1999/02/22-rdf-syntax-ns#"
   xmlns:svg="http://www.w3.org/2000/svg"
   xmlns="http://www.w3.org/2000/svg"
   id="svg1680"
   viewBox="0 0 14 14"
   height="14"
   width="14"
   version="1.1">
  <metadata
     id="metadata1686">
    <rdf:RDF>
      <cc:Work
         rdf:about="">
        <dc:format>image/svg+xml</dc:format>
        <dc:type
           rdf:resource="http://purl.org/dc/dcmitype/StillImage" />
        <dc:title></dc:title>
      </cc:Work>
    </rdf:RDF>
  </metadata>
  <defs
     id="defs1684" />
  <path
     id="town-hall"
     d="M 7,2.421526e-5 C 6.75,0.00322422 6.5,0.16444812 6.5,0.50002422 V 4.3750242 l -5.50000005,2.625 H 13 l -5.5,-2.625 V 0.50002422 C 7.5,0.15166512 7.25,-0.00317148 7,2.421526e-5 Z m 1,0 V 3.0000242 h 4 l -2,-1.5 L 12,2.421526e-5 Z M 0.99999995,8.0000242 v 1 H 2 V 13.000024 H 0.99999995 v 1 H 13 v -1 H 12 V 9.0000242 h 1 v -1 z M 7,9.5000242 c 1,0 2,0.4999998 2,1.4999998 v 2 H 4.9999999 v -2 c 0,-1 1,-1.4999998 2.0000001,-1.4999998 z" />
</svg>
