<?xml version="1.0" encoding="UTF-8" standalone="no"?>
<svg
   viewBox="0 0 18 18"
   height="18"
   width="18">
  <path
     id="town-hall"
     d="M 9.0000001,6.2267597e-5 C 8.6785727,0.00417654 8.3571452,0.2114637 8.3571452,0.6429172 V 5.6250429 L 1.285741,9.000031 H 16.714259 L 9.6428551,5.6250429 V 0.6429172 c 0,-0.44788873 -0.3214275,-0.64696368 -0.642855,-0.642854932403 z m 1.2857099,0 V 3.8571918 h 5.142839 L 12.85713,1.9286271 15.428549,6.2267597e-5 Z M 1.285741,10.285741 v 1.28571 h 1.28571 V 16.71429 H 1.285741 V 18 h 15.428518 v -1.28571 h -1.28571 v -5.142839 h 1.28571 v -1.28571 z m 7.7142591,1.928565 c 1.2857099,0 2.5714199,0.642855 2.5714199,1.928564 v 2.57142 H 6.4285804 v -2.57142 c 0,-1.285709 1.2857098,-1.928564 2.5714197,-1.928564 z"
     style="stroke-width:1.28570986" />
</svg>
