<?xml version="1.0" encoding="UTF-8" standalone="no"?>
<svg
   xmlns:dc="http://purl.org/dc/elements/1.1/"
   xmlns:cc="http://creativecommons.org/ns#"
   xmlns:rdf="http://www.w3.org/1999/02/22-rdf-syntax-ns#"
   xmlns:svg="http://www.w3.org/2000/svg"
   xmlns="http://www.w3.org/2000/svg"
   id="svg6"
   viewBox="0 0 18 18"
   version="1.1"
   height="18"
   width="18">
  <defs
     id="defs10" />
  <metadata
     id="metadata2">
    <rdf:RDF>
      <cc:Work
         rdf:about="">
        <dc:format>image/svg+xml</dc:format>
        <dc:type
           rdf:resource="http://purl.org/dc/dcmitype/StillImage" />
        <dc:title></dc:title>
      </cc:Work>
    </rdf:RDF>
  </metadata>
  <path
     style="stroke-width:1.11997509"
     d="m 1.4399631,0.36024856 c 0.9330625,1.07996954 0.4283009,1.82746344 0,2.51994404 C 1.084483,3.454975 1.1065856e-5,5.3798651 1.1065856e-5,5.7600967 0.17933027,6.4293042 0.80219327,6.8851117 1.4399631,6.8851117 1.9860966,6.5698051 2.4196726,5.8604016 2.8799152,5.4001367 c 0,0 1.439952,1.799912 1.439952,3.239864 0,0.8759662 -1.439952,4.1398763 -1.439952,4.1398763 0.1648715,0.164871 1.0686691,0.620488 1.439952,0.719987 0,0 1.4706394,-3.0423 2.8799041,-3.419956 0.8984553,-0.240739 2.0356666,-0.226213 2.8799037,0 1.416545,0.379548 2.879905,3.419956 2.879905,3.419956 0.364943,-0.09777 1.189973,-0.575645 1.439952,-0.719987 0,0 -1.250901,-2.71426 -1.439952,-3.4199562 0,0 -0.605459,-1.8312714 0,-2.8799041 C 14.817618,5.4072709 16.559516,6.339079 16.559516,9.3599208 17.320068,8.9208121 18.022091,7.1999367 17.999468,6.4800167 17.314177,3.9224415 14.399532,2.8800806 12.23966,5.0400646 10.849434,4.2374009 8.4454077,4.1533803 6.4798513,4.680071 c 0,-3.2398641 -2.9379188,-4.31985604 -5.0398882,-4.31985604 z M 2.3399416,2.8801926 c 0.2982269,0 0.5399848,0.2417578 0.5399848,0.5399848 0,0.298227 -0.2417579,0.5399848 -0.5399848,0.5399848 -0.298227,0 -0.5399848,-0.2417578 -0.5399848,-0.5399848 0,-0.298227 0.2417578,-0.5399848 0.5399848,-0.5399848 z M 1.0799695,12.959969 -1.3414443e-7,14.399921 c 0,0 2.87990413414443,3.239864 8.63982423414443,3.239864 5.7598079,0 8.6398239,-3.239864 8.6398239,-3.239864 l -1.079969,-1.439952 c 0,0 -3.239864,2.879904 -7.5598325,2.879904 -4.3198561,0 -7.5598322,-2.879904 -7.5598322,-2.879904 z"
     id="toys" />
</svg>
