<?xml version="1.0" encoding="UTF-8"?>
<!-- Created with Inkscape (http://www.inkscape.org/) -->
<svg width="1" height="1" version="1.1" viewBox="0 0 18 18" xmlns="http://www.w3.org/2000/svg" xmlns:cc="http://creativecommons.org/ns#" xmlns:dc="http://purl.org/dc/elements/1.1/" xmlns:rdf="http://www.w3.org/1999/02/22-rdf-syntax-ns#">
 <metadata>
  <rdf:RDF>
   <cc:Work rdf:about="">
    <dc:format>image/svg+xml</dc:format>
    <dc:type rdf:resource="http://purl.org/dc/dcmitype/StillImage"/>
    <dc:title/>
   </cc:Work>
  </rdf:RDF>
 </metadata>
 <rect id="canvas" width="14" height="14" fill="none" visibility="hidden"/>
 <path id="toys" d="m2.2498 1.2857c0.83311 0.96428 0.38242 1.6317 0 2.25-0.3174 0.51321-1.2857 2.2319-1.2857 2.5714 0.16011 0.59752 0.71625 1.0045 1.2857 1.0045 0.48763-0.28153 0.87476-0.91494 1.2857-1.3259 0 0 1.2857 1.6071 1.2857 2.8928 0 0.78213-1.2857 3.6964-1.2857 3.6964 0.14721 0.14721 0.95419 0.55402 1.2857 0.64286 0 0 1.3131-2.7164 2.5714-3.0536 0.80221-0.21495 1.8176-0.20198 2.5714 0 1.2648 0.33889 2.5714 3.0536 2.5714 3.0536 0.32585-0.08731 1.0625-0.51398 1.2857-0.64286 0 0-1.1169-2.4235-1.2857-3.0536 0 0-0.5406-1.6351 0-2.5714 1.659-0.95783 3.2143-0.12584 3.2143 2.5714 0.67908-0.39207 1.3059-1.9286 1.2857-2.5714-0.61188-2.2836-3.2143-3.2143-5.1428-1.2857-1.2413-0.71668-3.3878-0.7917-5.1428-0.32143 0-2.8928-2.6232-3.8571-4.5-3.8571zm0.80357 2.25c0.26628 0 0.48214 0.21586 0.48214 0.48214 0 0.26628-0.21586 0.48214-0.48214 0.48214s-0.48214-0.21586-0.48214-0.48214c0-0.26628 0.21586-0.48214 0.48214-0.48214zm-1.125 9-0.96428 1.2857s2.5714 2.8928 7.7143 2.8928c5.1428 0 7.7143-2.8928 7.7143-2.8928l-0.96428-1.2857s-2.8928 2.5714-6.75 2.5714c-3.8571 0-6.75-2.5714-6.75-2.5714z"/>
</svg>
