<?xml version="1.0" encoding="UTF-8" standalone="no"?>
<svg
   xmlns:dc="http://purl.org/dc/elements/1.1/"
   xmlns:cc="http://creativecommons.org/ns#"
   xmlns:rdf="http://www.w3.org/1999/02/22-rdf-syntax-ns#"
   xmlns:svg="http://www.w3.org/2000/svg"
   xmlns="http://www.w3.org/2000/svg"
   xmlns:sodipodi="http://sodipodi.sourceforge.net/DTD/sodipodi-0.dtd"
   xmlns:inkscape="http://www.inkscape.org/namespaces/inkscape"
   inkscape:version="1.0 (4035a4f, 2020-05-01)"
   height="18"
   width="18"
   sodipodi:docname="travel_agency.svg"
   xml:space="preserve"
   viewBox="0 0 18 18"
   y="0px"
   x="0px"
   id="Ebene_1"
   version="1.1"><metadata
   id="metadata17"><rdf:RDF><cc:Work
       rdf:about=""><dc:format>image/svg+xml</dc:format><dc:type
         rdf:resource="http://purl.org/dc/dcmitype/StillImage" /><dc:title></dc:title></cc:Work></rdf:RDF></metadata><defs
   id="defs15" /><sodipodi:namedview
   inkscape:current-layer="Ebene_1"
   inkscape:window-maximized="0"
   inkscape:window-y="23"
   inkscape:window-x="0"
   inkscape:cy="9"
   inkscape:cx="9"
   inkscape:zoom="20.861111"
   inkscape:guide-bbox="true"
   showguides="true"
   showgrid="false"
   id="namedview13"
   inkscape:window-height="959"
   inkscape:window-width="1497"
   inkscape:pageshadow="2"
   inkscape:pageopacity="0"
   guidetolerance="10"
   gridtolerance="10"
   objecttolerance="10"
   borderopacity="1"
   bordercolor="#666666"
   pagecolor="#ffffff"><sodipodi:guide
     id="guide19"
     orientation="0,-1"
     position="-1.2703063,9.011984" /><sodipodi:guide
     id="guide21"
     orientation="1,0"
     position="8.988016,18.167776" /></sodipodi:namedview>
<path
   style="stroke-width:0.089066"
   id="path10"
   d="m 10.352788,5.4909999 c 0.828319,-1.4428786 1.496318,-2.4493294 1.977277,-3.0193563 0.48096,-0.5700257 0.86394,-0.7748791 1.131139,-0.6234657 0.276119,0.1603198 0.29392,0.5789329 0.05352,1.2647446 -0.240484,0.6858131 -0.783783,1.7724257 -1.638822,3.2509299 l 1.095503,2.5473047 0.124693,-0.2226676 c 0.124687,-0.2137598 0.249386,-0.3473596 0.37408,-0.4275195 0.124686,-0.07126 0.249386,-0.07126 0.37408,0 0.124686,0.07126 0.178126,0.1781337 0.18704,0.3206396 0,0.1425078 -0.06234,0.3206396 -0.178135,0.5343993 l -0.445343,0.7659731 0.721439,1.638826 0.1247,-0.21376 c 0.124695,-0.21376 0.24938,-0.356263 0.374079,-0.427519 0.124696,-0.07126 0.24938,-0.08017 0.37408,-0.0085 0.124696,0.07124 0.178136,0.178134 0.178136,0.329551 0,0.151409 -0.06234,0.329544 -0.18704,0.534399 l -0.445335,0.765969 c 0.409699,0.712534 0.650179,1.309279 0.703619,1.790238 0.06234,0.48096 -0.0445,0.944109 -0.30282,1.389438 l -0.115793,0.204792 c -1.024317,-1.505528 -1.950597,-2.761366 -2.787835,-3.785643 -0.837223,-1.024302 -1.425063,-1.62995 -1.754604,-1.825898 -0.347362,-0.204853 -0.899575,0.267199 -1.647734,1.416153 -0.596747,0.917398 -1.131147,1.683358 -1.612106,2.297917 0.01782,0.18704 0.124694,0.489879 0.29392,0.908479 0.178133,0.42752 0.436426,0.988639 0.783786,1.701178 -0.05344,0.19594 -0.115787,0.400799 -0.195947,0.596739 C 7.841112,17.3903 7.760952,17.595141 7.671885,17.8 7.324526,17.354661 6.99498,16.953861 6.67434,16.606502 6.3537007,16.259142 6.0330611,15.938503 5.7213276,15.662403 c -0.06234,0.08018 -0.1425059,0.16922 -0.2315737,0.24938 -0.08906,0.08018 -0.1959458,0.16032 -0.3206396,0.240479 0.00882,-0.106879 0.02672,-0.213759 0.05344,-0.329539 0.02672,-0.115781 0.06234,-0.24048 0.1068799,-0.38298 -0.4186116,-0.1336 -0.8550389,-0.2583 -1.3270904,-0.356279 -0.4720534,-0.10688 -0.9708267,-0.18704 -1.5052261,-0.258281 0.2137598,-0.276119 0.4720534,-0.587839 0.7837861,-0.935198 0.01782,-0.01784 0.03562,-0.03568 0.05344,-0.0445 0.792692,-0.05351 1.4250652,-0.106882 1.8793046,-0.169231 0.4542394,-0.06234 0.7570651,-0.124691 0.9173849,-0.19595 C 6.4249527,12.812271 6.80794,12.001771 7.2889,11.05767 7.947992,9.7572881 8.090499,9.0091291 7.734232,8.8042773 7.404686,8.6172375 6.603087,8.4212898 5.311622,8.2075301 4.0201557,7.9937703 2.4525839,7.8156385 0.6,7.6731307 L 0.7157865,7.4682789 C 0.9740795,7.0229455 1.3214392,6.7023059 1.7667725,6.5152661 2.212104,6.3282264 2.8444772,6.2302525 3.6727962,6.2302525 L 4.1181296,5.4642799 c 0.1246938,-0.2137601 0.2493857,-0.356266 0.3740795,-0.4275198 0.1246938,-0.071256 0.2493857,-0.08016 0.3740795,-0.00886 0.1246938,0.071257 0.1781338,0.1781335 0.1781338,0.3295463 0,0.1514132 -0.06234,0.3295466 -0.1870398,0.5343996 L 4.7326888,6.1055598 6.5140205,5.9096129 6.959352,5.1436399 C 7.084046,4.9298802 7.20874,4.7962804 7.333432,4.7161205 c 0.124693,-0.07126 0.249387,-0.07126 0.37408,0 0.124693,0.07126 0.178133,0.1781337 0.18704,0.3206396 0.0088,0.1425077 -0.06234,0.3206397 -0.178133,0.5343998 L 7.591725,5.793827 Z" />
</svg>
