<?xml version="1.0" encoding="UTF-8"?>
<svg width="18" height="18" version="1.1" xmlns="http://www.w3.org/2000/svg" xmlns:cc="http://creativecommons.org/ns#" xmlns:dc="http://purl.org/dc/elements/1.1/" xmlns:rdf="http://www.w3.org/1999/02/22-rdf-syntax-ns#">
 <metadata>
  <rdf:RDF>
   <cc:Work rdf:about="">
    <dc:format>image/svg+xml</dc:format>
    <dc:type rdf:resource="http://purl.org/dc/dcmitype/StillImage"/>
    <dc:title/>
   </cc:Work>
  </rdf:RDF>
 </metadata>
 <rect id="canvas" y="3.125" width="14" height="14" fill="none" visibility="hidden"/>
 <path id="tyres" d="m6.4285 0.25697c-2.6422 0.33103-4.8215 3.7724-4.8215 8.743 0 4.9707 2.1608 8.7009 4.8215 8.8073l4.8215 0.19287c-1.5583 0-2.86-1.1453-3.7417-2.7774-0.88169-1.6321-1.4013-3.8163-1.4013-6.2228 0-2.4065 0.51956-4.5907 1.4013-6.2228 0.88169-1.6321 2.1834-2.7774 3.7417-2.7774h-1.2054c-1.2084 0-2.4509 0.11116-3.6161 0.25715zm4.8215-0.25715c1.5583 0 2.86 1.1453 3.7417 2.7774 0.66127 1.2241 1.1183 2.7589 1.3058 4.4649-0.42633-3.9766-2.2248-6.9299-4.3921-7.2122l-0.01251-0.030134h-0.32148zm0 18h0.64287l0.0075-0.02257c2.5248-0.32233 4.4865-4.2336 4.4926-8.9575-3e-3 2.3984-0.52207 4.5752-1.4013 6.2027-0.88169 1.6321-2.1834 2.7774-3.7417 2.7774zm0-16.8c-0.94791 0-1.9137 0.73642-2.6744 2.1446-0.7607 1.4081-1.2581 3.4225-1.2581 5.6552 0 2.2328 0.49741 4.2496 1.2581 5.6578 0.7607 1.4081 1.7265 2.1421 2.6744 2.1421 0.94791 0 1.9137-0.73392 2.6744-2.1421 0.7607-1.4081 1.2581-3.425 1.2581-5.6578 0-2.2328-0.49741-4.2471-1.2581-5.6552-0.76071-1.4081-1.7265-2.1446-2.6744-2.1446zm0.30134 3.2997c0.42774 0 0.81938 0.19366 1.1175 0.46457 0.29811 0.27092 0.52692 0.62148 0.7157 1.0271 0.37755 0.81121 0.58762 1.8566 0.58762 3.0084 0 1.1518-0.21007 2.1972-0.58762 3.0084-0.18878 0.4056-0.41759 0.75617-0.7157 1.0271-0.29811 0.27092-0.68974 0.46458-1.1175 0.46458s-0.81687-0.19366-1.115-0.46458-0.52692-0.62148-0.71569-1.0271c-0.37755-0.81121-0.58762-1.8566-0.58762-3.0084 0-1.1518 0.21007-2.1972 0.58762-3.0084 0.18878-0.4056 0.41759-0.75617 0.71569-1.0271 0.29811-0.27092 0.68723-0.46457 1.115-0.46457zm-0.7719 1.2004c-0.0735 0-0.1601 0.026882-0.29632 0.15067-0.13622 0.12379-0.29725 0.3427-0.43695 0.64287-0.27941 0.60034-0.47462 1.504-0.47462 2.5062 0 1.0021 0.19521 1.9084 0.47462 2.5087 0.1397 0.30017 0.30073 0.51908 0.43695 0.64287 0.13622 0.12379 0.22282 0.14816 0.29632 0.14816 0.0735 0 0.16262-0.02437 0.29883-0.14816 0.13622-0.12379 0.29725-0.3427 0.43695-0.64287 0.27941-0.60034 0.47462-1.5066 0.47462-2.5087 0-1.0021-0.19521-1.9058-0.47462-2.5062-0.1397-0.30017-0.30073-0.51908-0.43695-0.64287-0.13622-0.12379-0.22533-0.15067-0.29883-0.15067zm5.5181 1.5444c0.06233 0.56793 0.0954 1.1546 0.0954 1.7553-9.26e-4 -0.58953-0.03289-1.1775-0.0954-1.7553z"/>
</svg>
