<?xml version="1.0" encoding="UTF-8"?>
<svg width="18" height="18" version="1.1" viewBox="0 0 18 18" xmlns="http://www.w3.org/2000/svg">
 <path d="m7.8343 11.777h1.7738v1.7738h-1.7738v-1.7738m1.1826-10.052c3.1634 0.13008 4.541 3.323 2.6608 5.7177-0.49076 0.59128-1.2831 0.98153-1.6733 1.4782-0.39616 0.49076-0.39616 1.082-0.39616 1.6733h-1.7738c0-0.98744 0-1.8211 0.39616-2.4124 0.39024-0.59128 1.1826-0.94014 1.6733-1.3304 1.4309-1.3245 1.0761-3.1988-0.88692-3.3526a1.7738 1.7738 0 0 0-1.7738 1.7738h-1.7738a3.5477 3.5477 0 0 1 3.5477-3.5477z" stroke-width=".59128"/>
</svg>
