<?xml version="1.0" encoding="UTF-8"?>
<svg width="18" height="18" version="1.1" viewBox="0 0 18 18" xmlns="http://www.w3.org/2000/svg">
 <path d="m 6.8801356,15.303537 h 2.6494008 v 2.649401 H 6.8801356 V 15.303537 M 8.6465023,0.28956941 C 13.371451,0.48386082 15.429076,5.2529017 12.620753,8.8296974 11.887739,9.7128504 10.704276,10.295739 10.121462,11.037581 9.5297455,11.770594 9.5297455,12.653689 9.5297455,13.536872 H 6.8803447 c 0,-1.47487 0,-2.72005 0.5917165,-3.6032323 C 8.0549353,9.0504857 9.238428,8.5294179 9.9713521,7.946514 12.108587,5.9682011 11.578647,3.1686905 8.6466219,2.9389702 A 2.6494008,2.6494008 0 0 0 5.997221,5.588371 H 3.3478203 A 5.298951,5.298951 0 0 1 8.6467712,0.28942007 Z" stroke-width=".59128"/>
</svg>
