<?xml version="1.0" encoding="UTF-8" standalone="no"?>
<svg
   viewBox="0 0 18 18"
   width="18"
   height="18">
	<path
     d="M 8,0 C 7.72,0 7.5,0.22 7.5,0.5 V 3 H 6.4199218 C 4.4999218,3 3,5.64 3,9 c 0,3.36 1.4999218,6 3.4199218,6 H 7.5 v 2.5 C 7.5,17.78 7.72,18 8,18 h 6.5 C 14.78,18 15,17.78 15,17.5 V 0.5 C 15,0.22 14.78,0 14.5,0 Z M 8.5,1 H 14 V 17 H 8.5 V 15 H 8.5601562 8.6 c 0.32,-0.02 0.62,-0.09984 0.9,-0.239844 v 1 c 0,0.14 0.1201562,0.259766 0.2601562,0.259766 h 2.9999998 c 0.14,0 0.259766,-0.119766 0.259766,-0.259766 V 2.2601562 C 13.019922,2.1201562 12.900156,2 12.760156,2 H 9.7601562 C 9.6201562,2 9.5,2.1201562 9.5,2.2601562 v 1 C 9.22,3.1201562 8.92,3.0399218 8.6,3.0199218 H 8.5601562 8.5 Z M 10,2.5 h 2.5 v 13 H 10 V 14.439844 C 11.2,13.499844 12,11.44 12,9 12,6.56 11.2,4.5001562 10,3.5601562 Z M 6.4199218,4 h 0.119922 c -0.06,0.06 -0.099766,0.1200782 -0.1597656,0.1800782 h -0.6 C 6.0000782,4.0600782 6.1999218,4 6.4199218,4 Z M 8.5,4 C 9.86,4 11,6.28 11,9 11,11.72 9.86,14 8.5,14 7.14,14 6,11.72 6,9 6,6.28 7.14,4 8.5,4 Z M 5.2199218,4.6800782 h 0.040234 0.7796876 c -0.04,0.06 -0.06,0.120078 -0.1,0.180078 H 5.0800782 c 0.06,-0.06 0.099844,-0.120078 0.1398436,-0.180078 z M 4.7800782,5.3398438 c 0.02,0 0.039766,0.020312 0.059766,0.020312 H 5.7 c -0.04,0.1 -0.079922,0.199922 -0.1199218,0.319922 H 4.6398438 c 0.04,-0.12 0.080234,-0.2202344 0.1402344,-0.340234 z M 4.4398438,6.1601562 H 4.4800782 5.4 C 5.36,6.3001562 5.3200782,6.44 5.2800782,6.6 H 4.3 C 4.34,6.46 4.3798438,6.3001562 4.4398438,6.1601562 Z M 4.1800782,7.1 h 0.039844 0.9601564 C 5.1400782,7.28 5.12,7.4598438 5.1,7.6398438 h -1 C 4.12,7.4598438 4.1400782,7.28 4.1800782,7.1 Z M 8.5,7.2449218 c -0.065,0 -0.1300782,0.025 -0.1800782,0.075 -0.1,0.1 -0.1,0.2601564 0,0.3601564 L 9.4,8.7601562 H 7 c -0.14,0 -0.2601562,0.1197656 -0.2601562,0.2597656 0,0.14 0.1201562,0.2601564 0.2601562,0.2601564 H 9.4 L 8.3199218,10.360156 c -0.1,0.1 -0.1,0.259766 0,0.359766 C 8.3599218,10.759922 8.44,10.8 8.5,10.8 c 0.06,0 0.1200782,-0.07992 0.1800782,-0.119922 L 10.180078,9.1800782 c 0.1,-0.1 0.1,-0.2601564 0,-0.3601564 l -1.4999998,-1.5 c -0.05,-0.05 -0.1150782,-0.075 -0.1800782,-0.075 z m -4.4601562,0.894922 h 1 c -0.02,0.2 -0.019844,0.4 -0.039844,0.6 H 4 c 0,-0.2 0.019844,-0.4 0.039844,-0.6 z M 4,9.2398438 h 1 c 0,0.2 0.019844,0.4 0.039844,0.6 l -1,0.020312 C 4.0198438,9.6601562 4.02,9.4598438 4,9.2398438 Z m 0.080078,1.1203122 h 1 c 0.02,0.18 0.060078,0.359844 0.080078,0.539844 H 4.2 4.1800782 c -0.04,-0.18 -0.06,-0.359844 -0.1000002,-0.539844 z M 4.3,11.4 H 5.2800782 C 5.3200782,11.54 5.36,11.699844 5.4,11.839844 H 4.4800782 c -0.02,-0.02 -0.020234,0 -0.040234,0 C 4.3998438,11.699844 4.34,11.54 4.3,11.4 Z m 0.3199218,0.939844 h 0.9402344 c 0.04,0.1 0.079922,0.220312 0.119922,0.320312 H 4.8199218 c 0,-0.02 -0.019844,-0.02 -0.039844,0 -0.06,-0.1 -0.1001564,-0.220312 -0.160156,-0.320312 z m 0.4601564,0.8 h 0.8597656 c 0.04,0.06 0.06,0.120078 0.1,0.180078 H 5.2601562 5.2199218 c -0.04,-0.06 -0.099844,-0.120078 -0.1398436,-0.180078 z M 5.8,13.819922 H 6.4 C 6.46,13.879922 6.5001562,13.94 6.5601562,14 H 6.4199218 C 6.2199218,14 6,13.939922 5.8,13.819922 Z" /></svg>
