<?xml version="1.0" encoding="UTF-8"?>
<svg width="18" height="18" version="1.1" viewBox="0 0 18 18" xmlns="http://www.w3.org/2000/svg" xmlns:cc="http://creativecommons.org/ns#" xmlns:dc="http://purl.org/dc/elements/1.1/" xmlns:rdf="http://www.w3.org/1999/02/22-rdf-syntax-ns#">
 <metadata>
  <rdf:RDF>
   <cc:Work>
    <dc:format>image/svgxml</dc:format>
    <dc:type rdf:resource="http://purl.org/dc/dcmitype/StillImage"/>
    <dc:title/>
   </cc:Work>
  </rdf:RDF>
 </metadata>
 <g id="gamepad" transform="matrix(.060731 0 0 .060731 2.6249 .20497)" fill-rule="evenodd">
  <path d="m23.397 78.626c-9.982 2.377-16.043 5.823-23.649 13.548-8.675 8.675-15.211 18.657-20.083 31.136-6.472 13.722-10.941 28.694-14.142 42.544-7.25 31.968-8.965 63.987-7.25 79.028 3.922 17.826 8.438 27.808 16.757 36.008 8.556 8.557 14.855 11.29 27.333 11.884 12.24 0.594 21.39-1.664 30.185-7.487 6.774-4.516 24.48-22.936 34.939-36.602l7.011-9.27 31.017-0.237c17.113-0.12 31.017 0 31.017 0.356 6.55 9.551 14.556 18.668 21.985 27.571 15.687 18.301 29.71 25.907 47.655 25.907 12.835 0 20.678-3.328 29.71-12.478 13.31-13.548 16.518-24.243 16.4-54.072 0-22.104-1.189-33.513-5.824-56.449-6.113-24.284-14.458-50.31-28.402-69.164-3.565-4.754-8.913-10.814-12.122-13.429-18.063-14.855-54.903-13.785-73.918 2.258-3.427 2.438-8.53 5.282-11.646 6.774-2.87 1.365-5.995 2.707-7.25 3.09-2.02 1.545-11.645 1.663-14.973 0.119-1.426-0.713-5.05-1.662-8.319-3.328-11.49-6.615-23.418-14.628-33.75-17.35-10.458-2.615-22.936-2.734-32.68-0.357zm28.403 47.06c2.496 2.377 2.733 3.565 2.733 14.023 0 7.25 0.352 13.675 0.352 13.675s6.54 0.586 13.434 0.586c9.15 0 11.29 0.357 14.023 2.496 1.663 1.307 2.852 2.852 2.495 3.446 0.648 4.196 0.432 7.874-2.614 10.933-2.496 2.377-4.519 1.88-15.096 2.356l-12.596 0.35 2e-3 14.05c-0.475 11.171-2.408 13.435-4.429 14.86-6.06 3.666-11.733 2.848-14.823-3.45-1.545-2.972-2.083-6.894-2.139-14.5l-0.085-11.626s-15.977-0.09-23.564-0.627c-6.18-2.14-7.962-9.494-3.684-15.08 2.377-2.97 3.209-3.09 14.617-3.446l12.957-0.356 0.393-12.056c0.832-13.666 0.481-13.817 5.19-17.654 3.921-2.258 9.269-1.426 12.834 2.02zm129.1 3.6492c11.629 14.544-10.029 32.065-22.001 18.126-12.803-13.663 8.5017-33.652 22.001-18.126zm-24.607 23.192c12.521 14.682-8.0614 34.546-21.829 20.244-15.103-15.69 8.6535-35.694 21.829-20.244zm49.696-2.3494c15.022 14.231-5.2035 35.187-19.646 21.076-15.375-15.021 6.0864-33.922 19.646-21.076zm-18.894 36.761c0.3115 21.219-29.149 19.584-29.533-0.1607-0.4612-19.446 28.441-19.313 29.533 0.1607z"/>
  <path d="m-16.439-3.375c-0.60447 11.149 5.624 19.422 13.154 27.135 7.5303 7.7129 17.419 14.722 28.484 20.08 11.065 5.3583 23.299 9.0873 35.709 9.2285 12.41 0.14118 25.427-3.7798 34.986-13.723 13.629-14.176 25.681-14.623 32.082-12.059 3.2005 1.2822 4.9936 3.268 5.7539 5.1543 0.74358 1.8448 0.9238 3.8268-0.85352 7.1387-5.87 9.3855-14.454 18.529-22.223 28.688-7.8409 10.254-15.242 22.271-15.17 37.197l22-0.10546c-0.0361-7.4859 3.8396-14.83 10.645-23.729 6.805-8.8988 16.132-18.624 23.629-30.723l0.14258-0.23047 0.13086-0.23633c4.6728-8.441 5.3404-18.194 2.1035-26.225-3.2369-8.0308-9.9041-14.117-17.979-17.352-16.149-6.4694-37.901-1.722-56.123 17.232-4.8615 5.0568-10.88 7.0636-18.875 6.9727-7.9954-0.09096-17.538-2.7538-26.371-7.0312-8.833-4.2774-16.964-10.15-22.332-15.648-5.3679-5.4981-6.9154-10.765-6.9258-10.574z"/>
 </g>
</svg>
