<?xml version="1.0" encoding="UTF-8"?>
<svg width="18" height="18" version="1.1" viewBox="0 0 4.7625 4.7625" xmlns="http://www.w3.org/2000/svg" xmlns:cc="http://creativecommons.org/ns#" xmlns:dc="http://purl.org/dc/elements/1.1/" xmlns:rdf="http://www.w3.org/1999/02/22-rdf-syntax-ns#">
 <metadata>
  <rdf:RDF>
   <cc:Work rdf:about="">
    <dc:format>image/svg+xml</dc:format>
    <dc:type rdf:resource="http://purl.org/dc/dcmitype/StillImage"/>
    <dc:title/>
   </cc:Work>
  </rdf:RDF>
 </metadata>
 <g transform="translate(-2.1167 -292.24)">
  <rect id="canvas" x="-6e-8" y="293.3" width="3.7042" height="3.7042" fill="none" visibility="hidden"/>
  <path d="m6.8719 292.24c-1.3124-4e-5 -2.3761 1.0632-2.3759 2.3746 1.728e-4 1.3112 1.0671 2.378 2.3793 2.3779 0.00342-0.33605-0.00784-5e-3 0-0.33989-1.1244 2.5e-4 -2.0281-0.90847-2.0281-2.036-2.71e-5 -1.126 0.90919-2.0388 2.0321-2.0414v-0.33391l-0.0073-6.7e-4zm-4.7552 0.33392v4.4186h2.9449v-0.33989h-1.9252v-1.6995h1.0197v-0.3399h-1.0197v-1.6995h1.6995v-0.33989h-2.3793zm0.33989 0.33989h0.33989v0.3399h-0.33989zm0 0.67979h0.33989v0.33989h-0.33989zm4.4226 0.33989c-0.37366 2e-3 -0.67509 0.30603-0.67514 0.67979 4.15e-5 0.37377 0.30148 0.67722 0.67514 0.67979v-0.34056c-0.00199 2.5e-4 -0.00398 4.6e-4 -0.00597 6.7e-4 -0.19399 6e-5 -0.35118-0.15214-0.35118-0.3399s0.1572-0.33996 0.35118-0.33989c0.00199-2e-5 0.00398-2e-5 0.00597 0zm-4.4226 0.3399h0.33989v0.33989h-0.33989zm0 0.67979h0.33989v0.33989h-0.33989zm0 0.67978h0.33989v0.3399h-0.33989zm0 0.67979h0.33989v0.3399h-0.33989z" stroke-width=".5892"/>
 </g>
</svg>
