<?xml version="1.0" encoding="UTF-8" standalone="no"?>
<svg
   xmlns:dc="http://purl.org/dc/elements/1.1/"
   xmlns:cc="http://creativecommons.org/ns#"
   xmlns:rdf="http://www.w3.org/1999/02/22-rdf-syntax-ns#"
   xmlns:svg="http://www.w3.org/2000/svg"
   xmlns="http://www.w3.org/2000/svg"
   width="18"
   height="18"
   viewBox="0 0 18 18"
   version="1.1"
   id="svg8">
  <metadata
     id="metadata8">
    <rdf:RDF>
      <cc:Work
         rdf:about="">
        <dc:format>image/svg+xml</dc:format>
        <dc:type
           rdf:resource="http://purl.org/dc/dcmitype/StillImage" />
        <dc:title></dc:title>
      </cc:Work>
    </rdf:RDF>
  </metadata>
  <defs
     id="defs6" />
  <path
     style="stroke-width:2.22922"
     d="M 17.9724,0 C 13.012202,-1.4595711e-4 8.9917572,4.026782 8.9924727,8.9937233 8.9931258,13.959693 13.025715,18.000146 17.984946,18 c 0.01296,-1.272765 -0.02963,-0.01947 0,-1.287362 -4.249801,9.74e-4 -7.665277,-3.440732 -7.66518,-7.711373 C 10.319663,4.7365119 13.756069,1.2794795 18,1.2697485 V 0.00501147 L 17.97241,0.00253007 Z M 0,1.2646884 V 18 H 1.284639 2.5692779 3.853917 11.130192 V 16.712638 H 3.853917 V 10.276025 H 7.7078336 V 8.9886637 H 3.853917 V 2.55205 h 6.423195 V 1.2646884 H 3.853917 2.5692779 1.284639 Z M 1.284639,2.55205 H 2.5692779 V 3.8393632 H 1.284639 Z m 0,2.5746263 H 2.5692779 V 6.4140378 H 1.284639 Z M 18,6.4140378 C 16.587756,6.4237512 15.44847,7.5730473 15.448286,8.9886637 15.448442,10.40428 16.587736,11.553607 18,11.563338 v -1.289843 c -0.0075,9.25e-4 -0.01504,0.0018 -0.02256,0.0025 -0.733177,2.44e-4 -1.327307,-0.5762205 -1.327293,-1.2873613 1.4e-5,-0.7111412 0.594135,-1.2875566 1.327293,-1.2873131 0.0075,-4.88e-5 0.01504,-4.88e-5 0.02256,0 z M 1.284639,7.7013506 H 2.5692779 V 8.9886637 H 1.284639 Z m 0,2.5746744 h 1.2846389 v 1.287313 H 1.284639 Z m 0,2.574626 h 1.2846389 v 1.287362 H 1.284639 Z m 0,2.574674 h 1.2846389 v 1.287313 H 1.284639 Z"
     id="path3773" />
</svg>
