<?xml version="1.0" encoding="UTF-8" standalone="no"?>
<svg
   xmlns:dc="http://purl.org/dc/elements/1.1/"
   xmlns:cc="http://creativecommons.org/ns#"
   xmlns:rdf="http://www.w3.org/1999/02/22-rdf-syntax-ns#"
   xmlns:svg="http://www.w3.org/2000/svg"
   xmlns="http://www.w3.org/2000/svg"
   xmlns:sodipodi="http://sodipodi.sourceforge.net/DTD/sodipodi-0.dtd"
   xmlns:inkscape="http://www.inkscape.org/namespaces/inkscape"
   inkscape:version="1.0 (4035a4f, 2020-05-01)"
   height="18"
   width="18"
   sodipodi:docname="watch.svg"
   xml:space="preserve"
   viewBox="0 0 18 18"
   y="0px"
   x="0px"
   id="Capa_1"
   version="1.1"><metadata
   id="metadata1515"><rdf:RDF><cc:Work
       rdf:about=""><dc:format>image/svg+xml</dc:format><dc:type
         rdf:resource="http://purl.org/dc/dcmitype/StillImage" /><dc:title></dc:title></cc:Work></rdf:RDF></metadata><defs
   id="defs1513" /><sodipodi:namedview
   inkscape:current-layer="Capa_1"
   inkscape:window-maximized="0"
   inkscape:window-y="23"
   inkscape:window-x="0"
   inkscape:cy="-48.426966"
   inkscape:cx="88.876404"
   inkscape:zoom="4.45"
   showgrid="false"
   id="namedview1511"
   inkscape:window-height="938"
   inkscape:window-width="1502"
   inkscape:pageshadow="2"
   inkscape:pageopacity="0"
   guidetolerance="10"
   gridtolerance="10"
   objecttolerance="10"
   borderopacity="1"
   bordercolor="#666666"
   pagecolor="#ffffff" />

<g
   transform="matrix(0.1,0,0,0.1,-0.56,0)"
   id="g1520"><g
     id="g1506">
	<path
   d="m 33.7,90 c 0,31.1 25.2,56.3 56.3,56.3 27.2,0 49.9,-19.3 55.1,-45 h 6.8 c 3.1,0 5.6,-2.5 5.6,-5.6 V 84.4 c 0,-3.1 -2.5,-5.6 -5.6,-5.6 h -6.8 C 139.9,53.1 117.2,33.8 90,33.8 58.9,33.8 33.7,58.9 33.7,90 Z M 90,135 C 65.2,135 45,114.8 45,90 45,65.2 65.2,45 90,45 c 24.8,0 45,20.2 45,45 0,24.8 -20.2,45 -45,45 z m 0,16.9 c 11.6,0 22.5,-3.3 31.7,-8.9 l -9.2,37 h -45 l -9.3,-37 c 9.3,5.6 20.2,8.9 31.8,8.9 z M 90,28.1 C 78.4,28.1 67.5,31.4 58.2,37 L 67.5,0 h 45 l 9.2,37 C 112.5,31.4 101.6,28.1 90,28.1 Z"
   id="path1504" />
</g><polygon
     points="95.6,56.2 95.6,88.5 111.8,116.4 102,122 84.4,91.5 84.4,56.2 "
     id="polygon1508" /></g>
</svg>
