<?xml version="1.0" encoding="UTF-8" standalone="no"?>
<svg
   xmlns:dc="http://purl.org/dc/elements/1.1/"
   xmlns:cc="http://creativecommons.org/ns#"
   xmlns:rdf="http://www.w3.org/1999/02/22-rdf-syntax-ns#"
   xmlns:svg="http://www.w3.org/2000/svg"
   xmlns="http://www.w3.org/2000/svg"
   style="fill:#000000"
   id="svg8"
   xml:space="preserve"
   enable-background="new 0 0 100 100"
   viewBox="0 0 24 24"
   y="0px"
   x="0px"
   version="1.1"
   width="24"
   height="24"><metadata
     id="metadata14"><rdf:RDF><cc:Work
         rdf:about=""><dc:format>image/svg+xml</dc:format><dc:type
           rdf:resource="http://purl.org/dc/dcmitype/StillImage" /><dc:title></dc:title></cc:Work></rdf:RDF></metadata><defs
     id="defs12" /><path
     style="stroke-width:0.24489796"
     id="path2"
     d="M 9.7960192,0 A 2.4489796,2.4489796 0 0 0 7.3470396,2.4489796 2.4489796,2.4489796 0 0 0 9.7960192,4.8979592 2.4489796,2.4489796 0 0 0 12.244999,2.4489796 2.4489796,2.4489796 0 0 0 9.7960192,0 Z m 0.5031888,5.6321748 c -0.162755,-7.592e-4 -0.3277961,0.01474 -0.4936226,0.047832 L 4.3891315,6.7610013 C 3.8660295,6.8655727 3.4541072,7.2687284 3.3382704,7.7893815 L 2.3586786,12.197545 c -0.1613876,0.726122 0.2962732,1.445755 1.0226405,1.607143 0.098449,0.0218 0.1967064,0.03252 0.293686,0.03252 0.6173878,0 1.173865,-0.427248 1.3134568,-1.055166 L 5.7776838,9.2305484 7.9320205,8.7995856 9.1091568,14.684311 c 0.2328983,1.164245 1.2550832,1.969229 2.3987562,1.969229 l 6.044484,-4.79e-4 0.968591,4.842475 c 0.151347,0.756979 0.815567,1.280452 1.558833,1.280452 0.103592,0 0.208714,-0.01051 0.313775,-0.03157 0.862286,-0.172408 1.421292,-1.010813 1.248884,-1.872609 L 20.41799,14.74936 C 20.269337,14.005117 19.616183,13.469388 18.857244,13.469388 H 13.860752 L 12.687442,7.6014029 C 12.455585,6.4410458 11.438495,5.6375319 10.299208,5.6321748 Z M 7.6785129,11.942602 C 5.5963905,12.990765 4.1633662,15.146939 4.1633662,17.632653 4.1633662,21.143755 7.0198559,24 10.530713,24 c 3.511103,0 6.367347,-2.856245 6.367347,-6.367347 h -1.469387 c 0,2.700735 -2.197225,4.897959 -4.89796,4.897959 -2.7007346,0 -4.8979591,-2.197224 -4.8979591,-4.897959 0,-1.766449 0.9432972,-3.312471 2.3490115,-4.174267 z" /></svg>