<?xml version="1.0" encoding="UTF-8"?>
<svg enable-background="new 0 0 598 176.9" version="1.1" viewBox="0 0 598 176.9" xml:space="preserve" xmlns="http://www.w3.org/2000/svg" xmlns:xlink="http://www.w3.org/1999/xlink">
<style type="text/css">
	.st0{fill:url(#SVGID_1_);}
	.st1{fill:#DAD0C9;}
	.st2{clip-path:url(#SVGID_3_);}
	.st3{fill:#E0DFDF;}
	.st4{clip-path:url(#SVGID_5_);}
	.st5{clip-path:url(#SVGID_7_);}
	.st6{fill:#ABD3E0;}
	.st7{clip-path:url(#SVGID_9_);}
	.st8{clip-path:url(#SVGID_11_);}
	.st9{fill:#CDECB0;}
	.st10{clip-path:url(#SVGID_13_);}
	.st11{clip-path:url(#SVGID_15_);}
	.st12{clip-path:url(#SVGID_17_);}
	.st13{clip-path:url(#SVGID_19_);}
	.st14{clip-path:url(#SVGID_21_);}
	.st15{clip-path:url(#SVGID_23_);}
	.st16{fill:#FFFFFF;}
	.st17{clip-path:url(#SVGID_25_);}
	.st18{clip-path:url(#SVGID_27_);}
	.st19{clip-path:url(#SVGID_29_);}
	.st20{clip-path:url(#SVGID_31_);}
	.st21{clip-path:url(#SVGID_33_);}
	.st22{clip-path:url(#SVGID_35_);}
	.st23{clip-path:url(#SVGID_37_);}
	.st24{clip-path:url(#SVGID_39_);}
	.st25{clip-path:url(#SVGID_41_);}
	.st26{clip-path:url(#SVGID_43_);}
	.st27{clip-path:url(#SVGID_45_);}
	.st28{clip-path:url(#SVGID_47_);}
	.st29{fill:#FCD6A5;}
	.st30{clip-path:url(#SVGID_49_);}
	.st31{clip-path:url(#SVGID_51_);fill:#E0DFDF;}
	.st32{clip-path:url(#SVGID_53_);fill:#FCD6A5;}
	.st33{clip-path:url(#SVGID_55_);}
	.st34{fill:#F12A2A;}
	.st35{fill:#009A00;}
	.st36{fill:#FFC900;}
	.st37{fill:#0060B1;}
</style>




				<linearGradient id="SVGID_1_" x1=".8" x2="173.5" y1="785.1" y2="785.1" gradientTransform="translate(0 -622)" gradientUnits="userSpaceOnUse">
				<stop stop-color="#E0DFDF" offset="0"/>
				<stop stop-color="#DAD0C9" offset=".053881"/>
				<stop stop-color="#E0DFDF" offset=".128"/>
				<stop stop-color="#E0DFDF" offset=".8798"/>
				<stop stop-color="#DAD0C9" offset=".9445"/>
				<stop stop-color="#E0DFDF" offset="1"/>
			</linearGradient>
			<path class="st0" d="m173.5 149.3h-172.7v19c0.2 4.9 6.9 8.6 16.3 8.6h140.3c9.5 0 16-3.7 16.1-8.6v-19z"/>



						<path class="st1" d="m158.1 158.2h-141.9c-10.1 0-16.9-4.8-15.1-10.7l24.7-82.7c1.7-6 8.5-10.8 15.2-10.8l92.7 0.3c6.6 0 13.4 4.9 15.1 10.7l24.5 82.4c1.8 5.9-5 10.8-15.2 10.8z"/>



									<defs>
										<path id="SVGID_2_" d="m158.1 158.2h-141.9c-10.1 0-16.9-4.8-15.1-10.7l24.7-82.7c1.7-6 8.5-10.8 15.2-10.8l92.7 0.3c6.6 0 13.4 4.9 15.1 10.7l24.5 82.4c1.8 5.9-5 10.8-15.2 10.8z"/>
									</defs>
									<clipPath id="SVGID_3_">
										<use xlink:href="#SVGID_2_"/>
									</clipPath>
									<g class="st2" clip-path="url(#SVGID_3_)">
										<polygon class="st3" points="22.3 85 85.6 74.9 84.9 98 40.6 99.5 22.1 87.6"/>
									</g>




									<defs>
										<path id="SVGID_4_" d="m158.1 158.2h-141.9c-10.1 0-16.9-4.8-15.1-10.7l24.7-82.7c1.7-6 8.5-10.8 15.2-10.8l92.7 0.3c6.6 0 13.4 4.9 15.1 10.7l24.5 82.4c1.8 5.9-5 10.8-15.2 10.8z"/>
									</defs>
									<clipPath id="SVGID_5_">
										<use xlink:href="#SVGID_4_"/>
									</clipPath>
									<g class="st4" clip-path="url(#SVGID_5_)">
										<polygon class="st3" points="165.7 98.2 143.8 110.1 159.2 129.9 177.4 128.4"/>
									</g>




									<defs>
										<path id="SVGID_6_" d="m158.1 158.2h-141.9c-10.1 0-16.9-4.8-15.1-10.7l24.7-82.7c1.7-6 8.5-10.8 15.2-10.8l92.7 0.3c6.6 0 13.4 4.9 15.1 10.7l24.5 82.4c1.8 5.9-5 10.8-15.2 10.8z"/>
									</defs>
									<clipPath id="SVGID_7_">
										<use xlink:href="#SVGID_6_"/>
									</clipPath>
									<g class="st5" clip-path="url(#SVGID_7_)">
										<polygon class="st6" points="87.5 161.6 87.6 136.2 95.3 137.4 114.7 164.6"/>
									</g>




									<defs>
										<path id="SVGID_8_" d="m158.1 158.2h-141.9c-10.1 0-16.9-4.8-15.1-10.7l24.7-82.7c1.7-6 8.5-10.8 15.2-10.8l92.7 0.3c6.6 0 13.4 4.9 15.1 10.7l24.5 82.4c1.8 5.9-5 10.8-15.2 10.8z"/>
									</defs>
									<clipPath id="SVGID_9_">
										<use xlink:href="#SVGID_8_"/>
									</clipPath>
									<g class="st7" clip-path="url(#SVGID_9_)">
										<polygon class="st6" points="44.2 160.4 7.5 160.4 16.3 127.8 49 127.9"/>
									</g>




									<defs>
										<path id="SVGID_10_" d="m158.1 158.2h-141.9c-10.1 0-16.9-4.8-15.1-10.7l24.7-82.7c1.7-6 8.5-10.8 15.2-10.8l92.7 0.3c6.6 0 13.4 4.9 15.1 10.7l24.5 82.4c1.8 5.9-5 10.8-15.2 10.8z"/>
									</defs>
									<clipPath id="SVGID_11_">
										<use xlink:href="#SVGID_10_"/>
									</clipPath>
									<g class="st8" clip-path="url(#SVGID_11_)">
										<polygon class="st9" points="86.3 44.3 87.6 80.2 115.2 82.4 113.4 44.4"/>
									</g>




									<defs>
										<path id="SVGID_12_" d="m158.1 158.2h-141.9c-10.1 0-16.9-4.8-15.1-10.7l24.7-82.7c1.7-6 8.5-10.8 15.2-10.8l92.7 0.3c6.6 0 13.4 4.9 15.1 10.7l24.5 82.4c1.8 5.9-5 10.8-15.2 10.8z"/>
									</defs>
									<clipPath id="SVGID_13_">
										<use xlink:href="#SVGID_12_"/>
									</clipPath>
									<g class="st10" clip-path="url(#SVGID_13_)">
										<polygon class="st9" points="146.7 53.6 134.4 68 145.8 77.7 161.6 91.7"/>
									</g>




									<defs>
										<path id="SVGID_14_" d="m158.1 158.2h-141.9c-10.1 0-16.9-4.8-15.1-10.7l24.7-82.7c1.7-6 8.5-10.8 15.2-10.8l92.7 0.3c6.6 0 13.4 4.9 15.1 10.7l24.5 82.4c1.8 5.9-5 10.8-15.2 10.8z"/>
									</defs>
									<clipPath id="SVGID_15_">
										<use xlink:href="#SVGID_14_"/>
									</clipPath>
									<g class="st11" clip-path="url(#SVGID_15_)">
										<polygon class="st9" points="171.2 129.1 104.1 129.7 100.1 136.6 158.6 161.9 182.9 155.9"/>
									</g>




									<defs>
										<path id="SVGID_16_" d="m158.1 158.2h-141.9c-10.1 0-16.9-4.8-15.1-10.7l24.7-82.7c1.7-6 8.5-10.8 15.2-10.8l92.7 0.3c6.6 0 13.4 4.9 15.1 10.7l24.5 82.4c1.8 5.9-5 10.8-15.2 10.8z"/>
									</defs>
									<clipPath id="SVGID_17_">
										<use xlink:href="#SVGID_16_"/>
									</clipPath>
									<g class="st12" clip-path="url(#SVGID_17_)">
										<polygon class="st6" points="10.5 64.9 86.9 53 85 73.8 3.9 86.9"/>
									</g>




									<defs>
										<path id="SVGID_18_" d="m158.1 158.2h-141.9c-10.1 0-16.9-4.8-15.1-10.7l24.7-82.7c1.7-6 8.5-10.8 15.2-10.8l92.7 0.3c6.6 0 13.4 4.9 15.1 10.7l24.5 82.4c1.8 5.9-5 10.8-15.2 10.8z"/>
									</defs>
									<clipPath id="SVGID_19_">
										<use xlink:href="#SVGID_18_"/>
									</clipPath>
									<g class="st13" clip-path="url(#SVGID_19_)">
										<polygon class="st6" points="117.8 84.1 133.9 66.4 160.5 90.4 161.6 100.6 137.9 108.6"/>
									</g>




									<defs>
										<path id="SVGID_20_" d="m158.1 158.2h-141.9c-10.1 0-16.9-4.8-15.1-10.7l24.7-82.7c1.7-6 8.5-10.8 15.2-10.8l92.7 0.3c6.6 0 13.4 4.9 15.1 10.7l24.5 82.4c1.8 5.9-5 10.8-15.2 10.8z"/>
									</defs>
									<clipPath id="SVGID_21_">
										<use xlink:href="#SVGID_20_"/>
									</clipPath>
									<g class="st14" clip-path="url(#SVGID_21_)">
										<polygon class="st9" points="-5.2 116.4 39.2 101 73.2 120.9 65.8 129 -4.3 128.6"/>
									</g>




									<defs>
										<path id="SVGID_22_" d="m158.1 158.2h-141.9c-10.1 0-16.9-4.8-15.1-10.7l24.7-82.7c1.7-6 8.5-10.8 15.2-10.8l92.7 0.3c6.6 0 13.4 4.9 15.1 10.7l24.5 82.4c1.8 5.9-5 10.8-15.2 10.8z"/>
									</defs>
									<clipPath id="SVGID_23_">
										<use xlink:href="#SVGID_22_"/>
									</clipPath>
									<g class="st15" clip-path="url(#SVGID_23_)">
										<polygon class="st16" points="13.3 67.5 14 62.3 112.8 46.7 114.5 52"/>
									</g>




									<defs>
										<path id="SVGID_24_" d="m158.1 158.2h-141.9c-10.1 0-16.9-4.8-15.1-10.7l24.7-82.7c1.7-6 8.5-10.8 15.2-10.8l92.7 0.3c6.6 0 13.4 4.9 15.1 10.7l24.5 82.4c1.8 5.9-5 10.8-15.2 10.8z"/>
									</defs>
									<clipPath id="SVGID_25_">
										<use xlink:href="#SVGID_24_"/>
									</clipPath>
									<g class="st17" clip-path="url(#SVGID_25_)">
										<polygon class="st16" points="83.4 123.7 84.2 47.7 90 47.7 91.5 123.7"/>
									</g>




									<defs>
										<path id="SVGID_26_" d="m158.1 158.2h-141.9c-10.1 0-16.9-4.8-15.1-10.7l24.7-82.7c1.7-6 8.5-10.8 15.2-10.8l92.7 0.3c6.6 0 13.4 4.9 15.1 10.7l24.5 82.4c1.8 5.9-5 10.8-15.2 10.8z"/>
									</defs>
									<clipPath id="SVGID_27_">
										<use xlink:href="#SVGID_26_"/>
									</clipPath>
									<g class="st18" clip-path="url(#SVGID_27_)">
										<polygon class="st16" points="159.1 130.1 112.4 84.7 110.9 47.3 116.7 47.6 119.2 83.4 165.5 127.4"/>
									</g>




									<defs>
										<path id="SVGID_28_" d="m158.1 158.2h-141.9c-10.1 0-16.9-4.8-15.1-10.7l24.7-82.7c1.7-6 8.5-10.8 15.2-10.8l92.7 0.3c6.6 0 13.4 4.9 15.1 10.7l24.5 82.4c1.8 5.9-5 10.8-15.2 10.8z"/>
									</defs>
									<clipPath id="SVGID_29_">
										<use xlink:href="#SVGID_28_"/>
									</clipPath>
									<g class="st19" clip-path="url(#SVGID_29_)">
										<polygon class="st16" points="169.1 131.8 97.5 131.7 97.3 126.4 167.5 126.4"/>
									</g>




									<defs>
										<path id="SVGID_30_" d="m158.1 158.2h-141.9c-10.1 0-16.9-4.8-15.1-10.7l24.7-82.7c1.7-6 8.5-10.8 15.2-10.8l92.7 0.3c6.6 0 13.4 4.9 15.1 10.7l24.5 82.4c1.8 5.9-5 10.8-15.2 10.8z"/>
									</defs>
									<clipPath id="SVGID_31_">
										<use xlink:href="#SVGID_30_"/>
									</clipPath>
									<g class="st20" clip-path="url(#SVGID_31_)">
										<polygon class="st16" points="117.3 87 87 82.9 88.2 77.6 114.3 81.2 142.9 54.7 148.2 58.6"/>
									</g>




									<defs>
										<path id="SVGID_32_" d="m158.1 158.2h-141.9c-10.1 0-16.9-4.8-15.1-10.7l24.7-82.7c1.7-6 8.5-10.8 15.2-10.8l92.7 0.3c6.6 0 13.4 4.9 15.1 10.7l24.5 82.4c1.8 5.9-5 10.8-15.2 10.8z"/>
									</defs>
									<clipPath id="SVGID_33_">
										<use xlink:href="#SVGID_32_"/>
									</clipPath>
									<g class="st21" clip-path="url(#SVGID_33_)">
										<polygon class="st16" points="156.5 90.1 133.7 67.3 138.6 64.5 161.8 87.4"/>
									</g>




									<defs>
										<path id="SVGID_34_" d="m158.1 158.2h-141.9c-10.1 0-16.9-4.8-15.1-10.7l24.7-82.7c1.7-6 8.5-10.8 15.2-10.8l92.7 0.3c6.6 0 13.4 4.9 15.1 10.7l24.5 82.4c1.8 5.9-5 10.8-15.2 10.8z"/>
									</defs>
									<clipPath id="SVGID_35_">
										<use xlink:href="#SVGID_34_"/>
									</clipPath>
									<g class="st22" clip-path="url(#SVGID_35_)">
										<polygon class="st16" points="142.8 112.2 137.8 107.6 159.9 97 165.1 101.6"/>
									</g>




									<defs>
										<path id="SVGID_36_" d="m158.1 158.2h-141.9c-10.1 0-16.9-4.8-15.1-10.7l24.7-82.7c1.7-6 8.5-10.8 15.2-10.8l92.7 0.3c6.6 0 13.4 4.9 15.1 10.7l24.5 82.4c1.8 5.9-5 10.8-15.2 10.8z"/>
									</defs>
									<clipPath id="SVGID_37_">
										<use xlink:href="#SVGID_36_"/>
									</clipPath>
									<g class="st23" clip-path="url(#SVGID_37_)">
										<polygon class="st16" points="0.5 116.6 -1.5 111.8 39 98.1 87.5 96.9 87.7 102.3 39.9 103.5"/>
									</g>




									<defs>
										<path id="SVGID_38_" d="m158.1 158.2h-141.9c-10.1 0-16.9-4.8-15.1-10.7l24.7-82.7c1.7-6 8.5-10.8 15.2-10.8l92.7 0.3c6.6 0 13.4 4.9 15.1 10.7l24.5 82.4c1.8 5.9-5 10.8-15.2 10.8z"/>
									</defs>
									<clipPath id="SVGID_39_">
										<use xlink:href="#SVGID_38_"/>
									</clipPath>
									<g class="st24" clip-path="url(#SVGID_39_)">
										<polygon class="st16" points="79.2 130.9 -0.4 130.9 1.3 125.5 79.4 125.6"/>
									</g>




									<defs>
										<path id="SVGID_40_" d="m158.1 158.2h-141.9c-10.1 0-16.9-4.8-15.1-10.7l24.7-82.7c1.7-6 8.5-10.8 15.2-10.8l92.7 0.3c6.6 0 13.4 4.9 15.1 10.7l24.5 82.4c1.8 5.9-5 10.8-15.2 10.8z"/>
									</defs>
									<clipPath id="SVGID_41_">
										<use xlink:href="#SVGID_40_"/>
									</clipPath>
									<g class="st25" clip-path="url(#SVGID_41_)">
										<polygon class="st16" points="11.5 160.4 2.2 160.4 11.4 128.7 19.6 128.7"/>
									</g>




									<defs>
										<path id="SVGID_42_" d="m158.1 158.2h-141.9c-10.1 0-16.9-4.8-15.1-10.7l24.7-82.7c1.7-6 8.5-10.8 15.2-10.8l92.7 0.3c6.6 0 13.4 4.9 15.1 10.7l24.5 82.4c1.8 5.9-5 10.8-15.2 10.8z"/>
									</defs>
									<clipPath id="SVGID_43_">
										<use xlink:href="#SVGID_42_"/>
									</clipPath>
									<g class="st26" clip-path="url(#SVGID_43_)">
										<polygon class="st16" points="47.8 158.9 38.5 158.9 43.5 128.7 51.8 128.8"/>
									</g>




									<defs>
										<path id="SVGID_44_" d="m158.1 158.2h-141.9c-10.1 0-16.9-4.8-15.1-10.7l24.7-82.7c1.7-6 8.5-10.8 15.2-10.8l92.7 0.3c6.6 0 13.4 4.9 15.1 10.7l24.5 82.4c1.8 5.9-5 10.8-15.2 10.8z"/>
									</defs>
									<clipPath id="SVGID_45_">
										<use xlink:href="#SVGID_44_"/>
									</clipPath>
									<g class="st27" clip-path="url(#SVGID_45_)">
										<polygon class="st16" points="107.6 161.6 91.2 142.3 91.4 158.9 82.2 158.9 82.9 118.8 115.8 159.3"/>
									</g>




									<defs>
										<path id="SVGID_46_" d="m158.1 158.2h-141.9c-10.1 0-16.9-4.8-15.1-10.7l24.7-82.7c1.7-6 8.5-10.8 15.2-10.8l92.7 0.3c6.6 0 13.4 4.9 15.1 10.7l24.5 82.4c1.8 5.9-5 10.8-15.2 10.8z"/>
									</defs>
									<clipPath id="SVGID_47_">
										<use xlink:href="#SVGID_46_"/>
									</clipPath>
									<g class="st28" clip-path="url(#SVGID_47_)">
										<polygon class="st29" points="151.8 162.5 95 135.6 100.2 131.5 156.8 158.4"/>
									</g>




									<defs>
										<path id="SVGID_48_" d="m158.1 158.2h-141.9c-10.1 0-16.9-4.8-15.1-10.7l24.7-82.7c1.7-6 8.5-10.8 15.2-10.8l92.7 0.3c6.6 0 13.4 4.9 15.1 10.7l24.5 82.4c1.8 5.9-5 10.8-15.2 10.8z"/>
									</defs>
									<clipPath id="SVGID_49_">
										<use xlink:href="#SVGID_48_"/>
									</clipPath>
									<g class="st30" clip-path="url(#SVGID_49_)">
										<polygon class="st29" points="82.4 130.3 13.2 84.8 18.9 80.7 87.8 126.2"/>
									</g>




									<defs>
										<path id="SVGID_50_" d="m158.1 158.2h-141.9c-10.1 0-16.9-4.8-15.1-10.7l24.7-82.7c1.7-6 8.5-10.8 15.2-10.8l92.7 0.3c6.6 0 13.4 4.9 15.1 10.7l24.5 82.4c1.8 5.9-5 10.8-15.2 10.8z"/>
									</defs>
									<clipPath id="SVGID_51_">
										<use xlink:href="#SVGID_50_"/>
									</clipPath>
									<path class="st31" d="m108.6 129.2c0.6 7.6-9 13.8-21.4 13.8s-22-6.2-21.4-13.8 10.2-13.8 21.4-13.8 20.8 6.2 21.4 13.8z" clip-path="url(#SVGID_51_)"/>




									<defs>
										<path id="SVGID_52_" d="m158.1 158.2h-141.9c-10.1 0-16.9-4.8-15.1-10.7l24.7-82.7c1.7-6 8.5-10.8 15.2-10.8l92.7 0.3c6.6 0 13.4 4.9 15.1 10.7l24.5 82.4c1.8 5.9-5 10.8-15.2 10.8z"/>
									</defs>
									<clipPath id="SVGID_53_">
										<use xlink:href="#SVGID_52_"/>
									</clipPath>
									<path class="st32" d="m87.2 145.7c-15 0-26.4-7.4-25.5-16.5s12.3-16.5 25.6-16.5c13.2 0 24.7 7.4 25.5 16.5s-10.7 16.5-25.6 16.5zm0-27.6c-9.1 0-16.9 5-17.3 11.1s7.3 11.1 17.2 11.1 17.6-5 17.3-11.1c-0.4-6.1-8.1-11.1-17.2-11.1z" clip-path="url(#SVGID_53_)"/>




									<defs>
										<path id="SVGID_54_" d="m158.1 158.2h-141.9c-10.1 0-16.9-4.8-15.1-10.7l24.7-82.7c1.7-6 8.5-10.8 15.2-10.8l92.7 0.3c6.6 0 13.4 4.9 15.1 10.7l24.5 82.4c1.8 5.9-5 10.8-15.2 10.8z"/>
									</defs>
									<clipPath id="SVGID_55_">
										<use xlink:href="#SVGID_54_"/>
									</clipPath>
									<g class="st33" clip-path="url(#SVGID_55_)">
										<polygon class="st16" points="8.1 88.4 8.4 83.1 86.4 70.2 87.8 75.4"/>
									</g>







		<path class="st34" d="m86.5 0c-25.8 0-46.8 21-46.8 46.8 0 32 41.9 79 43.6 81 1.7 1.9 4.6 1.9 6.3 0 1.8-2 43.6-49 43.6-81 0-25.8-20.9-46.8-46.7-46.8z"/>
		<path class="st35" d="m16 96.7c-8.8 0-16 7.2-16 16 0 11 14.3 27.1 15 27.8 0.6 0.6 1.6 0.6 2.1 0 0.6-0.7 15-16.8 15-27.8 0-8.8-7.2-16-16.1-16z"/>
		<path class="st36" d="m157.5 57.4c-8.8 0-16 7.2-16 16 0 11 14.3 27.1 15 27.8 0.6 0.6 1.6 0.6 2.1 0 0.6-0.7 15-16.8 15-27.8-0.1-8.8-7.2-16-16.1-16z"/>
		<path class="st37" d="m133.3 107.1c-8.8 0-16 7.2-16 16 0 11 14.3 27.1 15 27.8 0.6 0.6 1.6 0.6 2.1 0 0.6-0.7 15-16.8 15-27.8-0.1-8.8-7.3-16-16.1-16z"/>


				<path class="st16" d="m140.4 121.2c-1.9-2.7-4.3-2.1-5.8-1.7-0.2 0-0.3 0.1-0.5 0.1 0.2-1.7 1.1-3 2.7-4l-0.7-1.1c-0.9 0.5-1.6 1.1-2.1 1.8-0.2-0.6-0.5-1.2-0.9-1.6-0.8-0.8-2-1.2-3.6-1.2h-0.6v0.6c0 1.6 0.4 2.8 1.2 3.6 0.7 0.7 1.6 1.1 2.8 1.2 0 0.2-0.1 0.4-0.1 0.6-0.2 0-0.4-0.1-0.6-0.1-1.6-0.4-3.9-1-5.8 1.7-0.9 1.3-1.2 3.1-0.8 5.1 0.5 2.4 1.9 4.9 3.3 5.8 1.7 1.1 3.1 0.6 4 0.3 0.2-0.1 0.5-0.2 0.6-0.2s0.4 0.1 0.6 0.2c0.5 0.2 1.1 0.4 1.8 0.4 0.6 0 1.4-0.2 2.1-0.7 1.4-0.9 2.8-3.4 3.3-5.8 0.3-1.9 0-3.6-0.9-5z"/>




				<path class="st16" d="m150.9 71.2c0.2 0.1 0.8 0.6 1.9 1.3 1 0.7 1.8 1.3 2.4 1.7 0.1 0 0.2 0.1 0.4 0.3 0.2 0.1 0.4 0.3 0.5 0.3 0.1 0.1 0.3 0.2 0.5 0.3s0.4 0.2 0.5 0.2c0.2 0.1 0.3 0.1 0.5 0.1 0.1 0 0.3 0 0.5-0.1s0.3-0.1 0.5-0.2 0.3-0.2 0.5-0.3c0.1-0.1 0.3-0.2 0.5-0.3s0.3-0.2 0.4-0.3c0.6-0.4 2-1.4 4.3-3 0.4-0.3 0.8-0.7 1.1-1.1s0.4-0.9 0.4-1.4c0-0.4-0.1-0.7-0.4-1s-0.6-0.4-1-0.4h-13.4c-0.5 0-0.8 0.2-1.1 0.5s-0.4 0.7-0.4 1.2c0 0.4 0.2 0.8 0.5 1.2 0.2 0.4 0.5 0.7 0.9 1z"/>
				<path class="st16" d="m164.7 72.1c-2 1.3-3.5 2.4-4.5 3.1-0.3 0.3-0.6 0.5-0.8 0.6s-0.5 0.3-0.9 0.4-0.7 0.2-1 0.2-0.6-0.1-1-0.2-0.6-0.3-0.9-0.4c-0.2-0.1-0.5-0.3-0.8-0.6-0.8-0.6-2.3-1.6-4.5-3.1-0.3-0.2-0.7-0.5-0.9-0.8v7.2c0 0.4 0.1 0.7 0.4 1s0.6 0.4 1 0.4h13.4c0.4 0 0.7-0.1 1-0.4s0.4-0.6 0.4-1v-7.2c-0.2 0.3-0.5 0.6-0.9 0.8z"/>


		<path class="st16" d="m18.7 122.1h-5.4c-0.3 0-0.5-0.2-0.5-0.5v-4.9h-5c-0.3 0-0.5-0.2-0.5-0.5v-5.4c0-0.3 0.2-0.5 0.5-0.5h4.9v-4.9c0-0.3 0.2-0.5 0.5-0.5h5.4c0.3 0 0.5 0.2 0.5 0.5v4.9h4.9c0.3 0 0.5 0.2 0.5 0.5v5.4c0 0.3-0.2 0.5-0.5 0.5h-4.9v4.9c0.1 0.3-0.1 0.5-0.4 0.5z"/>
		<circle class="st16" cx="86.7" cy="47.5" r="32.5"/>
		<path class="st34" d="m108.8 29.9c-0.5-1.1-1.1-1.7-2.4-2.6-1.1-0.8-2.8-0.4-3.7 0.5-4.7 4.6-9.2 9.5-13.3 14.6-2 2.5-4.9 5.5-6.7 8.7-0.9-0.7-1.7-1.4-2.5-2.1-2.6-2.4-5.4-5.4-8.7-6.9-2.7-1.3-4.7-0.1-6.4 2.1-0.5 0.7-1.1 1.8-1.1 2.7-0.7 0.7-0.9 1.9 0 3 5.7 7 12.8 12.5 20.3 17.5 1 0.7 2.9 0.5 3.7-0.5 8.1-10.3 15.7-21.7 22.3-33 1.2-2 0-3.6-1.5-4z"/>




				<path class="st37" d="m239.8 67.5c-2.6-1-4.7-0.8-7-1.8-7.7-0.6-15.3 0.9-20.1 4.8-2.3 3-3 6.5-4 11.1-0.1 8.4 3.6 13 9.2 15.7 9.4 2.2 20.8 2.1 26.9-3.6 1.2 0 2.1-0.4 3.4-0.2 2.4 1.8 2.3 3.1 0 5-1.6 1.3-4.6 3.3-6.2 4.4-7.5 2.6-13.3 2.6-21.3 2-1.9-0.7-3.8-1.3-6-1.6-6.1-3.2-9.9-8.7-12.1-15.9-0.3-3.2-0.2-7 0.2-10.5 1.4-3.2 2.4-6.7 3.8-9.9 2.1-3.3 6.1-4.5 9-6.8 3.2-0.6 7.7-1.9 11.5-2.2 6.9-0.5 10.6 1.3 15.5 2.4 1.9 1.7 4.8 2.5 6 5 0.1 2 0.1 3.9-1.2 4.6-2.8-0.5-4.6-2.1-7.6-2.5zm-4.7 41.5c1.2 0.8 2.7 2.8 2.7 4.5 0 1.4-0.6 3.5-1.6 4.3-0.1-0.2-0.8 0.2-1.1-0.1-2.5 0.9-5.9 0.2-8.7 0.8-1.5-0.8-0.9-2.9-0.2-4 2.7-0.1 6.4 0.4 8.6-0.6 0.1-0.9-0.2-1.2-0.2-2-2.2-0.3-4.2-0.2-6.4 0.4-0.7-0.2-0.9-1-1.4-1.4 0.2-2.1-0.5-5.1 0.2-6.8 2.9-1.3 3.1 1.6 2.8 4.2 1.7-0.1 3.8-0.3 5.3 0.7z"/>
				<path class="st37" d="m285.9 63.1c6.7 12.9 15.2 24.9 20.7 38.4-0.3 0.5-0.3 1.2-0.4 1.8-0.9 0.7-2 1.2-3.2 1.4-1-0.5-1.7-1.3-2.8-1.2-2.3-4.8-4.9-10-7-14.5-6.9-0.1-17.4 0.1-26.1 0.4-2.6 3.5-4.2 7.9-7 11.5-0.1 0.4 0.1 0.4 0.4 0.4-1.7 1.1-1.7 2.8-3 4-2.5 0.4-4.1-1.5-5.2-3.2 0.8-1.5 1.1-3.7 2.6-4.6 6.2-11.4 13.6-23.3 20.3-34.4 0.1-0.4 0.3-0.7 0.2-1.4 0.9 0.2 2.2-1.7 1.8-2.4 0.2-0.3 0.5-0.5 1.2-0.4 0-0.4-0.6-0.2-0.4-0.8 1.7-0.4 4.2-1.5 6.4 0.2-0.3 1.6 1.2 3.1 1.5 4.8zm-12.7 18.7c0.5-0.3 0.2 0.1 0.6 0.2 0.2-0.1 0.1-0.7 0.6-0.6-0.2 0.3-0.2 0.5 0.2 0.6 0.4-0.4 1.9 0.1 1.6-0.6 0.2 0.7 1.6 0.5 1.4 0 4.1 1 6.7-0.1 11.1 0.2-2.3-5.1-5.2-10.1-8-15.3-2.9 5.4-6 10.5-9 15.7 0.6 0.2 0.7-0.2 1.2-0.2-0.1 0.3 0.3 0.2 0.3 0zm-0.4 0c0-0.2-0.3-0.3 0-0.4 0.2 0.1 0.3 0.3 0.4 0.4h-0.4zm2.5-0.4c0 0.3-0.4 0.2-0.6 0.2-0.1-0.2 0.4-0.1 0.6-0.2zm0.6 0c0 0.2-0.3 0.2-0.4 0.2 0-0.1 0.2-0.1 0.4-0.2zm1.2 0c0 0.2-0.3 0.2-0.4 0.2 0-0.1 0.2-0.1 0.4-0.2z"/>


				<path class="st36" d="m361.7 87.2c2.9 3.3 6.8 4.6 10.5 7.6 3.4 2.1 7.3 5 10.7 7.2 0.2 4.6-4.6 4-7.6 3-7.7-6.8-17.6-12-26.3-18.5-2.8-0.1-7 0.7-10.3 0.2-0.8 4.7 1.3 13.4-0.4 18.5-2.2 0.2-3.7-0.3-5.8-1-0.2-0.6-0.5-1.2-1-1.6-0.6-12-0.4-24.5 0.2-36.2-1.1-2.3-0.6-5.5 0-8 4.2-1 10.6-1.2 15.5-1.8 2.8 0.2 6.4 0 10.7 0.2 6.8 0.3 12.3 2.4 16.9 6.8 3.4 3.2 5.8 9 3.4 15.5-3.5 5.2-10.4 5.9-18.3 6.6 0.2 1.1 0.9 1.8 1.8 1.5zm11.7-12.1c0.1-0.4 0.2-0.7 0.4-0.8 0.5-5.1-2.5-6.6-5-8.8-8.7-3.8-20.2-2.9-30.2-1.6 0.5 5.7-0.2 9.5 0 15.9 6.4 0.4 13.6 0.3 20.7-0.8 5.6-0.9 11-0.5 14.1-3.9z"/>
				<path class="st36" d="m427.4 63.4c-1.2 2.3-4.4 1.2-6.6 1.2-9-0.1-19.9 0.6-27.9 0.2-0.5 3-0.2 8.6-0.8 12.3 10-0.3 18.5-0.6 27.3 0 2.8 0.6 4.5 4.8 2.8 7.4-10-0.7-21-1.1-30.6 0.8-0.1 3.8 0.2 8.7 0 12.7 11.4 0.3 23.1 0.2 36.2-0.4 2.6-0.1 5.2-1 6.8 0.4 0.7 2.4 0 5.2-1.4 6.2-7.3 0-15.5 0.1-23.5 0.6-6.3 0.4-12.5 0.3-19.3 0.8-1-1.1-3.3-1-4.4-2.2-0.8-2.1-0.4-5.7-0.2-8-0.1-11.7 1-22.9 1.2-32.6-1.5-2.1-0.2-5.3 2-5.6 12.4 1 23.5 0.3 35.8 0.4 1.2 1.5 3.4 3.1 2.6 5.8z"/>
				<path class="st36" d="m475.9 57c3.7 2.3 10.3 8.3 6.8 13.5-1.2 0.5-3 0.1-3.8-0.4-0.5-1.8-0.1-4.4-1.4-5.8-0.8-0.6-2-0.8-3-1.2-10.7 1-20.5-0.1-28.9 4-1 1-1.9 2-2.8 3 0.1 0.7-0.5 1.1 0 1.6-1.2 5.7 10.5 3.2 14.9 4 4.9 0.6 10.2 0.8 15.3 1.2 1.7 0.7 3.8 1.2 5.8 1.6 7.6 3 11.4 13.7 6.4 21.3-5.1 4.8-13.8 5.6-21.9 6-6.4-0.9-13.4-0.8-20.1-2.6-3.2-2.3-5.8-7.8-4-13.1 4.5-1.3 5.1 3.2 6.2 6.4 8.9 2 21.6 2.8 30.6 0 2.4-1.3 5-2.4 6.2-5 0.4-1.8 0.2-4.2-1.2-5.2-5.2-3.6-12.6-3-19.3-3.6-7-0.5-14.2 0.3-19.1-2.2-0.3-0.5-0.9-0.7-1.4-1-4-4-4.7-13-1-17.3 2.6-3 8.2-4.6 12.9-5.2 7.5-1 13.8-0.3 20.9-0.8 0.5 0.3 1.1 0.6 1.8 0.8-0.1 0.2 0.1 0.1 0.1 0zm0 0h-0.2c0-0.1 0.1-0.2 0.2 0z"/>
				<path class="st36" d="m546.1 59.9c1.3 2 0.1 5.5-1.4 6.4-8.7 0.1-15.5-0.5-23.7 0-0.6 10.4 0.1 21.9 0 32.4 0 2.2 0.6 4.2-0.8 6-1.4 0.5-4.2 0.6-5.4-0.2-1.2-6.8-0.8-15.2-0.6-23.5 0.2-4.9-0.4-9.9-0.8-14.3-6.3-1.2-14.8 1.1-20.9-0.2-1.8-1.9-1.9-4.3-1.8-7 0.5-0.3 0.8-0.6 1-1 13 0.5 25.8-0.1 37.8 0 6.9 0.1 9.6-0.1 15.9 0.4-0.4 0.9 0.4 0.5 0.7 1z"/>
				<path class="st36" d="m590.5 63.4c-1.2 2.3-4.4 1.2-6.6 1.2-9-0.1-19.9 0.6-27.9 0.2-0.5 3-0.2 8.6-0.8 12.3 10-0.3 18.5-0.6 27.3 0 2.8 0.6 4.5 4.8 2.8 7.4-10-0.7-21-1.1-30.6 0.8-0.1 3.8 0.2 8.7 0 12.7 11.4 0.3 23.1 0.2 36.2-0.4 2.6-0.1 5.2-1 6.8 0.4 0.7 2.4 0 5.2-1.4 6.2-7.3 0-15.5 0.1-23.5 0.6-6.3 0.4-12.5 0.3-19.3 0.8-1-1.1-3.3-1-4.4-2.2-0.8-2.1-0.4-5.7-0.2-8-0.1-11.7 1-22.9 1.2-32.6-1.5-2.1-0.2-5.3 2-5.6 12.4 1 23.5 0.3 35.8 0.4 1.2 1.5 3.4 3.1 2.6 5.8z"/>



			<path class="st35" d="m203.8 162c-0.9-3.3-1.3-6.6-1.3-9.8 0-9.8 3.6-19.2 9.4-25.3 1.3-0.3 1.7-0.7 2.3-1.2h-0.1l0.2-0.1 1-0.7h-0.1l2.1-1.5c3.3-1.2 7.6-1.5 11.7-1.9l2.6-0.2c1.6-0.2 3.8-0.2 5.4-0.2 5.4 0 10.5 0.7 14.7 1.5l2.1 1.5c0.1 0.1 0.6 0.3 1.7 0.8l1 1.4c4.1 4.8 10 11.7 10.7 19.5 0.5 5.4-0.5 10.5-1 14.5 0 0.1-0.5 0.8-0.7 1-0.1 0.2-0.3 0.2-0.3 0.6-1.4 2.3-2.7 4.5-3.7 5.8l-1.7 1.6c-0.2 0.2-0.6 0.3-0.8 0.5l-2.8 2.8c-6.3 3-13.4 4.2-20.5 4.2-5.4 0-10.7-0.6-15.9-1.4-7.3-2-12.6-5.6-15.2-12.4-0.2 0-0.5-0.2-0.5-0.7 0 0-0.1 0.1 0-0.1l-0.3-0.2zm15.2-27.6c0.7-0.2-0.5 0.9-1.4 1.9l-1 1v-0.1c-3.4 4.4-5.6 10.3-5.6 16.6 0 2 0.3 4.8 0.9 7.1 0.6 0.3 0.9 0.9 1.3 1.7 4.5 3 12.2 4.9 19.6 4.9 7.2 0 14.9-2 19.5-5.1h-0.1c3.8-3.8 6.5-12.8 6.6-20.5-0.3-1.5-1.2-3.1-2-4.7l-0.2-0.6c-0.1-0.1-0.2-0.2-0.2-0.3-3.4-2.9-8.3-5.1-14.3-5.4-7-0.1-16.8 0-23.1 3.5zm47.3 25.9c0.1 0 0.1 0.1 0 0.2v-0.2z"/>
			<path class="st35" d="m321.8 132.2c-0.2-1.4-0.3-2.7-0.3-4 0-2 0.2-3.7 2-5.5 0.7-0.1 2-0.2 3.7-0.2 2 0 4.5 0.6 6.1 2.9 0.2 1.4 0.5 2.6 0.1 3.8 0.5 2 0.5 3.6 0.5 5.7v2.2c0 0.5-0.1 0.9-0.1 1.4-0.3 11.9-0.6 25.8-7.9 31.9-7.5 4-16.7 6.4-24.5 6.4-6.2 0-12.5-1.5-18.4-4.4-5-4.2-9-9.1-11.2-15.7-0.7-4.8-1.4-10.6-1.4-17 0-3.4 0.3-7.1 0.9-10v-0.7c0-1 0-1.7 0.5-4.2 1-1.2 2.6-1.6 4.3-1.6s3.8 0.3 5.5 0.9c0 0.8 0.1 1.7 0.3 2l1.2 2.2c0.1 1.5 0.1 3.4 0.1 5.1 0 2.1 0 4.4-0.1 6.6-0.1 1.9-0.1 4.7-0.1 6.6 0 6.2 0.8 12.2 3.8 16.9 0.3 0.2 1 0.8 1.4 0.9 0.8 0.8 2.2 1.7 3.6 2.3 1.7 0.3 3.3 0.6 4.7 1 2.8-0.1 7.3-0.3 9.4-0.6l4-0.7c0.6-0.2 1.6-0.7 2-0.9l1-0.3 4-2.4c3.1-4.1 4.3-11.5 4.7-18.1 0.7-8.7 0.4-10.5 0.2-12.5z"/>
			<path class="st35" d="m404.3 125.4c-0.1 0.1-0.1 0.6-0.1 1-10.7 15.3-20.6 30-28.7 44.8 0 0.7-0.3 1.4-0.9 1.6v0.6c0.6 2.2-3 2.8-4 2.9-0.2 0-0.8 0.2-1.3 0.3l-1.6-0.6c-1-0.2-2.1-0.6-3.1-1.4l-0.7-1c-0.2-0.6-0.7-1.2-1.4-1.5-1.6-4.1-2.3-5.1-2.9-6.3v0.1l-0.8-1.3c-0.7-1.2-1.4-2.7-2-3.7l-1.7-3.3-2.9-5.1c-2-3.7-4-7.5-7.6-11.7-0.5-1.7-1.2-4.7-3-5.7 0.1-1.4-1.4-3.6-2.6-4.1-4.1-3.4-2.2-4.8 0.2-7.2 0.1-0.1 0.2-0.2 2.1-1.2 1.6 0 2.7 0 4.7-0.3 0 0.2-0.1 0.5-0.1 0.8l1.6 0.5c1.9 2.1 3.6 4.1 4.3 7 0.8 0.7 0.7 1 0.9 1.6l0.2 0.9c2.7 2.9 3.4 7.9 6.5 12.1v-0.1l2.6 4.4c2.1 4.3 4.1 7.8 7.2 12.2 2.1-3.4 4.2-6.9 6.4-10.1 5.9-9.6 12.8-20.3 19.1-29.3 1.4-0.3 3-0.6 4.8-0.6 2 0 3.6 0.7 4.8 2.1v1.6z"/>
			<path class="st35" d="m454.7 122c1.6 1.5 3.3 3.6 2.4 6.2-1.4 3-4.2 2.9-6.5 2.7h-0.5c-0.6-0.1-1.2-0.1-1.6-0.1-4.3 0-9 0.1-13.5 0.2-3.3 0.1-7.7 0.1-10.6 0.1-2.6 0-4.2 0-6.2-0.1-0.1 0.9-0.1 2.2-0.1 3.3 0 0.7-0.1 1.2-0.1 1.9 0 0.8-0.1 1.6-0.1 2.4 0 1.5 0 2.8-0.1 3.8 5.9-0.2 11.3-0.3 16.7-0.3 4.3 0 8.9 0 12.9 0.3 2.7 0.6 4.4 3.6 4.4 6.8 0 1.3-0.2 2.7-1.2 4-5.1-0.3-11.1-0.7-16.4-0.7-5.8 0-11.7 0.2-17.1 1.4v7.8c0 1.6 0.1 2.6 0 4.3 4.3 0.1 8.2 0.2 12.8 0.2 8.3 0 17.1-0.2 26.6-0.7 0.5 0 1.2-0.1 2-0.2 2.3-0.2 4.5-0.5 6.4 1.2 1 3.3-0.1 7.5-2 8.6-8.3 0-17.8 0.1-26.7 0.7-2.1 0.1-4.4 0.2-6.5 0.2-1.2 0-2.3 0.1-3.4 0.1-3.7 0.1-8 0.2-12.4 0.6-0.7-0.7-1-0.8-1.4-0.9-0.1 0-0.5-0.2-0.5-0.2-0.1 0-0.5-0.1-0.6-0.1-1.2-0.5-2.4-1-2.9-1.5-0.5-0.9-0.6-2.8-0.6-4.7 0-1.3 0.1-3.3 0.2-4.5v-0.6c-0.1-7.7 0.3-15.7 0.8-22.6l0.6-13.5c-2-3.1 0-7.1 3-7.7 6.1 0.6 12.1 0.7 18.1 0.7h4.7c1.6 0 3-0.1 4.7-0.1 3.8-0.1 10-0.1 13.4-0.1l1.3 1.1z"/>
			<path class="st35" d="m524.4 146.4c-4 5.7-10.6 7.2-18.3 8 2 2 4.1 3.4 6.3 4.7h-0.1c0.3 0.2 0.8 0.7 1.3 0.9 1.5 0.8 2.8 1.6 4 2.4 1.3 0.9 2.9 2.1 4.4 3 1 0.7 2.1 1.3 3 2 1.3 0.9 3 2.2 4.9 3.4 0.2 4.4-2.4 5.9-5.4 5.9-1.7 0-3.6-0.3-4.9-0.8-4.7-4-9.8-7.6-14.8-10.8h0.1l-2.6-1.6c-3.7-2.4-8.4-5.4-12.1-8.3-1.3 0-2.6 0.1-3.7 0.2h0.1c-2.1 0.2-4.7 0.5-6.4 0.2v2.2c0 1.5 0.1 3 0.2 4.9v2.1c0.1 1.3 0.2 2.9 0.2 4.2 0 2.7-0.2 4.9-0.9 7.1-3.6 0.2-5.6-0.5-8.4-1.4-0.3-0.8-0.7-1.4-1.4-2-0.3-5.6-0.5-12-0.5-17.8 0-7.8 0.3-15.7 0.7-23.3-0.5-1.2-0.8-2.7-0.8-3.6 0-1.5 0.3-3.4 0.7-4.8 0-0.5 0.2-1 0.2-1.4 3.8-1 8-1.4 12.1-1.7l6.2-0.6c1.6 0.1 3.5 0.1 5.4 0.1 2.1 0 4.3 0 6.5 0.1 7.7 0.3 14.6 3 19.6 7.9 3 2.7 5.4 7.5 5.4 12.4 0 2-0.1 4.1-0.9 6.2l-0.1 0.2zm-18.5-2.3h0.3c4.3-0.5 8.3-1.2 11-3.4 0-0.1 0.1-0.6 0.2-0.7 0.3-4.2-1.7-5.6-4.2-7.5h-0.1l-1.2-1c-5.2-2.1-11-2.7-16.8-2.7-4.8 0-9.8 0.3-14.8 1.3 0.1 1.3 0.1 2.7 0.1 3.8 0 0.8-0.1 1.5-0.1 2.2v2.3c0 2.1-0.1 4.3 0 7 2.1 0.1 4.1 0.2 6.4 0.2 4.9 0 10-0.3 15.3-1.2 1.3-0.1 2.7-0.2 3.9-0.3z"/>
			<path class="st35" d="m596.4 123c0.2 0.1 0.6 0.3 0.8 0.7 1.7 2.8-0.1 7.8-2.1 9.1-4 0-7.7 0-11.2-0.1h-3.8c-1.5 0-2.8-0.1-3.7-0.1-2.4 0-4.5 0.1-6.8 0.2h-0.2c-0.1 2.2-0.1 4.2-0.1 6.5v2.4c0 4.1 0 8.2 0.1 12.5 0.1 4.5 0.1 9.2 0.1 13.5v0.9c0 0.3 0.1 0.6 0.1 0.8 0.1 1.9 0 4.2-1.5 6.2-2 0.8-5.9 0.7-7.9-0.7-0.8-4-1-8.9-1-14.1 0-3 0.1-6.1 0.2-9.1v-0.6c0-0.5 0.1-1 0.1-1.6v-1.4c0.2-4.5-0.2-9.2-0.7-13.4l-0.2-1.7c-1.3-0.3-2.7-0.2-4.1-0.2-2.1 0-4.1 0.1-6.3 0.3-2.3 0.2-4.5 0.3-6.8 0.3-2.1 0-3.8-0.1-5.5-0.5-2.8-2.9-2.9-5.9-2.8-9.7 1-0.6 1.6-0.9 1.9-1.5 4.3 0.2 9.4 0.2 13.8 0.2 4.3 0 8.9 0 13.2-0.1 5.4-0.1 10.6-0.1 15.7-0.1h5.9c4.3 0 7.2 0 12.4 0.5l0.4 0.8z"/>



</svg>
