<?xml version="1.0" encoding="UTF-8"?>
<svg width="18" height="18" version="1.1" viewBox="0 0 18 18" xmlns="http://www.w3.org/2000/svg">
 <path d="m9 1.2408v15.884l-3.0208-0.18566-2.74-2.3423-1.2374-3.3146 0.26516-3.0936 1.0165-1.7236z" fill="#0c7bdc" fill-rule="evenodd"/>
 <path d="m9 1.2408v15.884l3.0208-0.18566 2.74-2.3423 1.2374-3.3146-0.26516-3.0936-1.0165-1.7236z" fill="#ffc20a" fill-rule="evenodd"/>
 <path d="m9 0-5.2763 5.2763c-2.9053 2.9053-2.9053 7.6377 0 10.543 1.4528 1.4528 3.3665 2.1807 5.2763 2.1807s3.8235-0.72786 5.2763-2.1807c2.9053-2.9053 2.9053-7.6377 0-10.543zm0 1.2408 4.6553 4.6553c2.5693 2.5693 2.5693 6.7329 0 9.3022-1.2845 1.2845-2.968 1.9242-4.6553 1.9242s-3.3708-0.63974-4.6553-1.9242c-2.5693-2.5693-2.5693-6.7329 0-9.3022z" color="#000000" color-rendering="auto" dominant-baseline="auto" image-rendering="auto" shape-rendering="auto" solid-color="#000000" style="font-feature-settings:normal;font-variant-alternates:normal;font-variant-caps:normal;font-variant-ligatures:normal;font-variant-numeric:normal;font-variant-position:normal;isolation:auto;mix-blend-mode:normal;shape-padding:0;text-decoration-color:#000000;text-decoration-line:none;text-decoration-style:solid;text-indent:0;text-orientation:mixed;text-transform:none;white-space:normal"/>
</svg>
