<?xml version="1.0" encoding="utf-8"?>
<!-- Generator: Adobe Illustrator 24.0.1, SVG Export Plug-In . SVG Version: 6.00 Build 0)  -->
<svg version="1.1" id="Calque_1" xmlns="http://www.w3.org/2000/svg" xmlns:xlink="http://www.w3.org/1999/xlink" x="0px" y="0px"
	 viewBox="0 0 800 338" style="enable-background:new 0 0 800 338;" xml:space="preserve">
<style type="text/css">
	.st0{fill:url(#SVGID_1_);}
	.st1{fill:#DAD0C9;}
	.st2{clip-path:url(#SVGID_3_);}
	.st3{fill:#E0DFDF;}
	.st4{clip-path:url(#SVGID_5_);}
	.st5{clip-path:url(#SVGID_7_);}
	.st6{fill:#ABD3E0;}
	.st7{clip-path:url(#SVGID_9_);}
	.st8{clip-path:url(#SVGID_11_);}
	.st9{fill:#CDECB0;}
	.st10{clip-path:url(#SVGID_13_);}
	.st11{clip-path:url(#SVGID_15_);}
	.st12{clip-path:url(#SVGID_17_);}
	.st13{clip-path:url(#SVGID_19_);}
	.st14{clip-path:url(#SVGID_21_);}
	.st15{clip-path:url(#SVGID_23_);}
	.st16{fill:#FFFFFF;}
	.st17{clip-path:url(#SVGID_25_);}
	.st18{clip-path:url(#SVGID_27_);}
	.st19{clip-path:url(#SVGID_29_);}
	.st20{clip-path:url(#SVGID_31_);}
	.st21{clip-path:url(#SVGID_33_);}
	.st22{clip-path:url(#SVGID_35_);}
	.st23{clip-path:url(#SVGID_37_);}
	.st24{clip-path:url(#SVGID_39_);}
	.st25{clip-path:url(#SVGID_41_);}
	.st26{clip-path:url(#SVGID_43_);}
	.st27{clip-path:url(#SVGID_45_);}
	.st28{clip-path:url(#SVGID_47_);}
	.st29{fill:#FCD6A5;}
	.st30{clip-path:url(#SVGID_49_);}
	.st31{clip-path:url(#SVGID_51_);fill:#E0DFDF;}
	.st32{clip-path:url(#SVGID_53_);fill:#FCD6A5;}
	.st33{clip-path:url(#SVGID_55_);}
	.st34{fill:#F12A2A;}
	.st35{fill:#009A00;}
	.st36{fill:#FFC900;}
	.st37{fill:#0060B1;}
</style>
<g>
	<g>
		<g>
			
				<linearGradient id="SVGID_1_" gradientUnits="userSpaceOnUse" x1="94.7077" y1="1543.0178" x2="323.0565" y2="1543.0178" gradientTransform="matrix(1 0 0 1 0 -1286.6144)">
				<stop  offset="0" style="stop-color:#E0DFDF"/>
				<stop  offset="0.0539" style="stop-color:#DAD0C9"/>
				<stop  offset="0.128" style="stop-color:#E0DFDF"/>
				<stop  offset="0.8798" style="stop-color:#E0DFDF"/>
				<stop  offset="0.9445" style="stop-color:#DAD0C9"/>
				<stop  offset="1" style="stop-color:#E0DFDF"/>
			</linearGradient>
			<path class="st0" d="M323.06,238.16H94.71v25.12l0,0c0.26,6.48,9.12,11.37,21.55,11.37h185.51c12.56,0,21.16-4.89,21.29-11.37
				l0,0V238.16L323.06,238.16z"/>
			<g>
				<g>
					<g>
						<path class="st1" d="M302.69,249.92H115.07c-13.35,0-22.35-6.35-19.97-14.15l32.66-109.35c2.25-7.93,11.24-14.28,20.1-14.28
							l122.57,0.4c8.73,0,17.72,6.48,19.97,14.15l32.39,108.95C325.17,243.45,316.18,249.92,302.69,249.92z"/>
						<g>
							<g>
								<g>
									<g>
										<g>
											<defs>
												<path id="SVGID_2_" d="M302.69,249.92H115.07c-13.35,0-22.35-6.35-19.97-14.15l32.66-109.35
													c2.25-7.93,11.24-14.28,20.1-14.28l122.57,0.4c8.73,0,17.72,6.48,19.97,14.15l32.39,108.95
													C325.17,243.45,316.18,249.92,302.69,249.92z"/>
											</defs>
											<clipPath id="SVGID_3_">
												<use xlink:href="#SVGID_2_"  style="overflow:visible;"/>
											</clipPath>
											<g class="st2">
												<polygon class="st3" points="123.14,153.14 206.83,139.78 205.91,170.33 147.33,172.31 122.87,156.58 												"/>
											</g>
										</g>
									</g>
								</g>
							</g>
							<g>
								<g>
									<g>
										<g>
											<defs>
												<path id="SVGID_4_" d="M302.69,249.92H115.07c-13.35,0-22.35-6.35-19.97-14.15l32.66-109.35
													c2.25-7.93,11.24-14.28,20.1-14.28l122.57,0.4c8.73,0,17.72,6.48,19.97,14.15l32.39,108.95
													C325.17,243.45,316.18,249.92,302.69,249.92z"/>
											</defs>
											<clipPath id="SVGID_5_">
												<use xlink:href="#SVGID_4_"  style="overflow:visible;"/>
											</clipPath>
											<g class="st4">
												<polygon class="st3" points="312.74,170.59 283.79,186.33 304.15,212.51 328.21,210.52 												"/>
											</g>
										</g>
									</g>
								</g>
							</g>
							<g>
								<g>
									<g>
										<g>
											<defs>
												<path id="SVGID_6_" d="M302.69,249.92H115.07c-13.35,0-22.35-6.35-19.97-14.15l32.66-109.35
													c2.25-7.93,11.24-14.28,20.1-14.28l122.57,0.4c8.73,0,17.72,6.48,19.97,14.15l32.39,108.95
													C325.17,243.45,316.18,249.92,302.69,249.92z"/>
											</defs>
											<clipPath id="SVGID_7_">
												<use xlink:href="#SVGID_6_"  style="overflow:visible;"/>
											</clipPath>
											<g class="st5">
												<polygon class="st6" points="209.34,254.42 209.48,220.84 219.66,222.42 245.31,258.39 												"/>
											</g>
										</g>
									</g>
								</g>
							</g>
							<g>
								<g>
									<g>
										<g>
											<defs>
												<path id="SVGID_8_" d="M302.69,249.92H115.07c-13.35,0-22.35-6.35-19.97-14.15l32.66-109.35
													c2.25-7.93,11.24-14.28,20.1-14.28l122.57,0.4c8.73,0,17.72,6.48,19.97,14.15l32.39,108.95
													C325.17,243.45,316.18,249.92,302.69,249.92z"/>
											</defs>
											<clipPath id="SVGID_9_">
												<use xlink:href="#SVGID_8_"  style="overflow:visible;"/>
											</clipPath>
											<g class="st7">
												<polygon class="st6" points="152.09,252.83 103.57,252.83 115.2,209.73 158.44,209.86 												"/>
											</g>
										</g>
									</g>
								</g>
							</g>
							<g>
								<g>
									<g>
										<g>
											<defs>
												<path id="SVGID_10_" d="M302.69,249.92H115.07c-13.35,0-22.35-6.35-19.97-14.15l32.66-109.35
													c2.25-7.93,11.24-14.28,20.1-14.28l122.57,0.4c8.73,0,17.72,6.48,19.97,14.15l32.39,108.95
													C325.17,243.45,316.18,249.92,302.69,249.92z"/>
											</defs>
											<clipPath id="SVGID_11_">
												<use xlink:href="#SVGID_10_"  style="overflow:visible;"/>
											</clipPath>
											<g class="st8">
												<polygon class="st9" points="207.76,99.32 209.48,146.79 245.97,149.7 243.59,99.45 												"/>
											</g>
										</g>
									</g>
								</g>
							</g>
							<g>
								<g>
									<g>
										<g>
											<defs>
												<path id="SVGID_12_" d="M302.69,249.92H115.07c-13.35,0-22.35-6.35-19.97-14.15l32.66-109.35
													c2.25-7.93,11.24-14.28,20.1-14.28l122.57,0.4c8.73,0,17.72,6.48,19.97,14.15l32.39,108.95
													C325.17,243.45,316.18,249.92,302.69,249.92z"/>
											</defs>
											<clipPath id="SVGID_13_">
												<use xlink:href="#SVGID_12_"  style="overflow:visible;"/>
											</clipPath>
											<g class="st10">
												<polygon class="st9" points="287.62,111.62 271.36,130.66 286.43,143.49 307.32,162 												"/>
											</g>
										</g>
									</g>
								</g>
							</g>
							<g>
								<g>
									<g>
										<g>
											<defs>
												<path id="SVGID_14_" d="M302.69,249.92H115.07c-13.35,0-22.35-6.35-19.97-14.15l32.66-109.35
													c2.25-7.93,11.24-14.28,20.1-14.28l122.57,0.4c8.73,0,17.72,6.48,19.97,14.15l32.39,108.95
													C325.17,243.45,316.18,249.92,302.69,249.92z"/>
											</defs>
											<clipPath id="SVGID_15_">
												<use xlink:href="#SVGID_14_"  style="overflow:visible;"/>
											</clipPath>
											<g class="st11">
												<polygon class="st9" points="320.02,211.45 231.29,212.24 226,221.36 303.36,254.82 335.49,246.88 												"/>
											</g>
										</g>
									</g>
								</g>
							</g>
							<g>
								<g>
									<g>
										<g>
											<defs>
												<path id="SVGID_16_" d="M302.69,249.92H115.07c-13.35,0-22.35-6.35-19.97-14.15l32.66-109.35
													c2.25-7.93,11.24-14.28,20.1-14.28l122.57,0.4c8.73,0,17.72,6.48,19.97,14.15l32.39,108.95
													C325.17,243.45,316.18,249.92,302.69,249.92z"/>
											</defs>
											<clipPath id="SVGID_17_">
												<use xlink:href="#SVGID_16_"  style="overflow:visible;"/>
											</clipPath>
											<g class="st12">
												<polygon class="st6" points="107.53,126.56 208.55,110.83 206.04,138.33 98.81,155.65 												"/>
											</g>
										</g>
									</g>
								</g>
							</g>
							<g>
								<g>
									<g>
										<g>
											<defs>
												<path id="SVGID_18_" d="M302.69,249.92H115.07c-13.35,0-22.35-6.35-19.97-14.15l32.66-109.35
													c2.25-7.93,11.24-14.28,20.1-14.28l122.57,0.4c8.73,0,17.72,6.48,19.97,14.15l32.39,108.95
													C325.17,243.45,316.18,249.92,302.69,249.92z"/>
											</defs>
											<clipPath id="SVGID_19_">
												<use xlink:href="#SVGID_18_"  style="overflow:visible;"/>
											</clipPath>
											<g class="st13">
												<polygon class="st6" points="249.41,151.95 270.7,128.54 305.87,160.28 307.32,173.76 275.99,184.34 												"/>
											</g>
										</g>
									</g>
								</g>
							</g>
							<g>
								<g>
									<g>
										<g>
											<defs>
												<path id="SVGID_20_" d="M302.69,249.92H115.07c-13.35,0-22.35-6.35-19.97-14.15l32.66-109.35
													c2.25-7.93,11.24-14.28,20.1-14.28l122.57,0.4c8.73,0,17.72,6.48,19.97,14.15l32.39,108.95
													C325.17,243.45,316.18,249.92,302.69,249.92z"/>
											</defs>
											<clipPath id="SVGID_21_">
												<use xlink:href="#SVGID_20_"  style="overflow:visible;"/>
											</clipPath>
											<g class="st14">
												<polygon class="st9" points="86.77,194.66 145.48,174.29 190.44,200.61 180.65,211.32 87.96,210.79 												"/>
											</g>
										</g>
									</g>
								</g>
							</g>
							<g>
								<g>
									<g>
										<g>
											<defs>
												<path id="SVGID_22_" d="M302.69,249.92H115.07c-13.35,0-22.35-6.35-19.97-14.15l32.66-109.35
													c2.25-7.93,11.24-14.28,20.1-14.28l122.57,0.4c8.73,0,17.72,6.48,19.97,14.15l32.39,108.95
													C325.17,243.45,316.18,249.92,302.69,249.92z"/>
											</defs>
											<clipPath id="SVGID_23_">
												<use xlink:href="#SVGID_22_"  style="overflow:visible;"/>
											</clipPath>
											<g class="st15">
												<polygon class="st16" points="111.24,130 112.16,123.12 242.8,102.5 245.05,109.5 												"/>
											</g>
										</g>
									</g>
								</g>
							</g>
							<g>
								<g>
									<g>
										<g>
											<defs>
												<path id="SVGID_24_" d="M302.69,249.92H115.07c-13.35,0-22.35-6.35-19.97-14.15l32.66-109.35
													c2.25-7.93,11.24-14.28,20.1-14.28l122.57,0.4c8.73,0,17.72,6.48,19.97,14.15l32.39,108.95
													C325.17,243.45,316.18,249.92,302.69,249.92z"/>
											</defs>
											<clipPath id="SVGID_25_">
												<use xlink:href="#SVGID_24_"  style="overflow:visible;"/>
											</clipPath>
											<g class="st17">
												<polygon class="st16" points="203.92,204.31 204.98,103.82 212.65,103.82 214.63,204.31 												"/>
											</g>
										</g>
									</g>
								</g>
							</g>
							<g>
								<g>
									<g>
										<g>
											<defs>
												<path id="SVGID_26_" d="M302.69,249.92H115.07c-13.35,0-22.35-6.35-19.97-14.15l32.66-109.35
													c2.25-7.93,11.24-14.28,20.1-14.28l122.57,0.4c8.73,0,17.72,6.48,19.97,14.15l32.39,108.95
													C325.17,243.45,316.18,249.92,302.69,249.92z"/>
											</defs>
											<clipPath id="SVGID_27_">
												<use xlink:href="#SVGID_26_"  style="overflow:visible;"/>
											</clipPath>
											<g class="st18">
												<polygon class="st16" points="304.02,212.77 242.27,152.74 240.29,103.29 247.95,103.69 251.26,151.02 312.48,209.2 
																									"/>
											</g>
										</g>
									</g>
								</g>
							</g>
							<g>
								<g>
									<g>
										<g>
											<defs>
												<path id="SVGID_28_" d="M302.69,249.92H115.07c-13.35,0-22.35-6.35-19.97-14.15l32.66-109.35
													c2.25-7.93,11.24-14.28,20.1-14.28l122.57,0.4c8.73,0,17.72,6.48,19.97,14.15l32.39,108.95
													C325.17,243.45,316.18,249.92,302.69,249.92z"/>
											</defs>
											<clipPath id="SVGID_29_">
												<use xlink:href="#SVGID_28_"  style="overflow:visible;"/>
											</clipPath>
											<g class="st19">
												<polygon class="st16" points="317.24,215.02 222.57,214.89 222.3,207.88 315.12,207.88 												"/>
											</g>
										</g>
									</g>
								</g>
							</g>
							<g>
								<g>
									<g>
										<g>
											<defs>
												<path id="SVGID_30_" d="M302.69,249.92H115.07c-13.35,0-22.35-6.35-19.97-14.15l32.66-109.35
													c2.25-7.93,11.24-14.28,20.1-14.28l122.57,0.4c8.73,0,17.72,6.48,19.97,14.15l32.39,108.95
													C325.17,243.45,316.18,249.92,302.69,249.92z"/>
											</defs>
											<clipPath id="SVGID_31_">
												<use xlink:href="#SVGID_30_"  style="overflow:visible;"/>
											</clipPath>
											<g class="st20">
												<polygon class="st16" points="248.75,155.78 208.68,150.36 210.27,143.35 244.78,148.11 282.6,113.07 289.6,118.23 
																									"/>
											</g>
										</g>
									</g>
								</g>
							</g>
							<g>
								<g>
									<g>
										<g>
											<defs>
												<path id="SVGID_32_" d="M302.69,249.92H115.07c-13.35,0-22.35-6.35-19.97-14.15l32.66-109.35
													c2.25-7.93,11.24-14.28,20.1-14.28l122.57,0.4c8.73,0,17.72,6.48,19.97,14.15l32.39,108.95
													C325.17,243.45,316.18,249.92,302.69,249.92z"/>
											</defs>
											<clipPath id="SVGID_33_">
												<use xlink:href="#SVGID_32_"  style="overflow:visible;"/>
											</clipPath>
											<g class="st21">
												<polygon class="st16" points="300.58,159.88 270.43,129.73 276.91,126.03 307.59,156.31 												"/>
											</g>
										</g>
									</g>
								</g>
							</g>
							<g>
								<g>
									<g>
										<g>
											<defs>
												<path id="SVGID_34_" d="M302.69,249.92H115.07c-13.35,0-22.35-6.35-19.97-14.15l32.66-109.35
													c2.25-7.93,11.24-14.28,20.1-14.28l122.57,0.4c8.73,0,17.72,6.48,19.97,14.15l32.39,108.95
													C325.17,243.45,316.18,249.92,302.69,249.92z"/>
											</defs>
											<clipPath id="SVGID_35_">
												<use xlink:href="#SVGID_34_"  style="overflow:visible;"/>
											</clipPath>
											<g class="st22">
												<polygon class="st16" points="282.46,189.1 275.85,183.02 305.07,169 311.95,175.09 												"/>
											</g>
										</g>
									</g>
								</g>
							</g>
							<g>
								<g>
									<g>
										<g>
											<defs>
												<path id="SVGID_36_" d="M302.69,249.92H115.07c-13.35,0-22.35-6.35-19.97-14.15l32.66-109.35
													c2.25-7.93,11.24-14.28,20.1-14.28l122.57,0.4c8.73,0,17.72,6.48,19.97,14.15l32.39,108.95
													C325.17,243.45,316.18,249.92,302.69,249.92z"/>
											</defs>
											<clipPath id="SVGID_37_">
												<use xlink:href="#SVGID_36_"  style="overflow:visible;"/>
											</clipPath>
											<g class="st23">
												<polygon class="st16" points="94.31,194.92 91.67,188.57 145.22,170.46 209.34,168.87 209.61,176.01 146.41,177.6 
																									"/>
											</g>
										</g>
									</g>
								</g>
							</g>
							<g>
								<g>
									<g>
										<g>
											<defs>
												<path id="SVGID_38_" d="M302.69,249.92H115.07c-13.35,0-22.35-6.35-19.97-14.15l32.66-109.35
													c2.25-7.93,11.24-14.28,20.1-14.28l122.57,0.4c8.73,0,17.72,6.48,19.97,14.15l32.39,108.95
													C325.17,243.45,316.18,249.92,302.69,249.92z"/>
											</defs>
											<clipPath id="SVGID_39_">
												<use xlink:href="#SVGID_38_"  style="overflow:visible;"/>
											</clipPath>
											<g class="st24">
												<polygon class="st16" points="198.37,213.83 93.12,213.83 95.37,206.69 198.63,206.82 												"/>
											</g>
										</g>
									</g>
								</g>
							</g>
							<g>
								<g>
									<g>
										<g>
											<defs>
												<path id="SVGID_40_" d="M302.69,249.92H115.07c-13.35,0-22.35-6.35-19.97-14.15l32.66-109.35
													c2.25-7.93,11.24-14.28,20.1-14.28l122.57,0.4c8.73,0,17.72,6.48,19.97,14.15l32.39,108.95
													C325.17,243.45,316.18,249.92,302.69,249.92z"/>
											</defs>
											<clipPath id="SVGID_41_">
												<use xlink:href="#SVGID_40_"  style="overflow:visible;"/>
											</clipPath>
											<g class="st25">
												<polygon class="st16" points="108.86,252.83 96.56,252.83 108.72,210.92 119.57,210.92 												"/>
											</g>
										</g>
									</g>
								</g>
							</g>
							<g>
								<g>
									<g>
										<g>
											<defs>
												<path id="SVGID_42_" d="M302.69,249.92H115.07c-13.35,0-22.35-6.35-19.97-14.15l32.66-109.35
													c2.25-7.93,11.24-14.28,20.1-14.28l122.57,0.4c8.73,0,17.72,6.48,19.97,14.15l32.39,108.95
													C325.17,243.45,316.18,249.92,302.69,249.92z"/>
											</defs>
											<clipPath id="SVGID_43_">
												<use xlink:href="#SVGID_42_"  style="overflow:visible;"/>
											</clipPath>
											<g class="st26">
												<polygon class="st16" points="156.85,250.85 144.56,250.85 151.17,210.92 162.14,211.05 												"/>
											</g>
										</g>
									</g>
								</g>
							</g>
							<g>
								<g>
									<g>
										<g>
											<defs>
												<path id="SVGID_44_" d="M302.69,249.92H115.07c-13.35,0-22.35-6.35-19.97-14.15l32.66-109.35
													c2.25-7.93,11.24-14.28,20.1-14.28l122.57,0.4c8.73,0,17.72,6.48,19.97,14.15l32.39,108.95
													C325.17,243.45,316.18,249.92,302.69,249.92z"/>
											</defs>
											<clipPath id="SVGID_45_">
												<use xlink:href="#SVGID_44_"  style="overflow:visible;"/>
											</clipPath>
											<g class="st27">
												<polygon class="st16" points="235.92,254.42 214.24,228.9 214.5,250.85 202.34,250.85 203.26,197.83 246.76,251.38 
																									"/>
											</g>
										</g>
									</g>
								</g>
							</g>
							<g>
								<g>
									<g>
										<g>
											<defs>
												<path id="SVGID_46_" d="M302.69,249.92H115.07c-13.35,0-22.35-6.35-19.97-14.15l32.66-109.35
													c2.25-7.93,11.24-14.28,20.1-14.28l122.57,0.4c8.73,0,17.72,6.48,19.97,14.15l32.39,108.95
													C325.17,243.45,316.18,249.92,302.69,249.92z"/>
											</defs>
											<clipPath id="SVGID_47_">
												<use xlink:href="#SVGID_46_"  style="overflow:visible;"/>
											</clipPath>
											<g class="st28">
												<polygon class="st29" points="294.36,255.61 219.26,220.04 226.14,214.62 300.98,250.19 												"/>
											</g>
										</g>
									</g>
								</g>
							</g>
							<g>
								<g>
									<g>
										<g>
											<defs>
												<path id="SVGID_48_" d="M302.69,249.92H115.07c-13.35,0-22.35-6.35-19.97-14.15l32.66-109.35
													c2.25-7.93,11.24-14.28,20.1-14.28l122.57,0.4c8.73,0,17.72,6.48,19.97,14.15l32.39,108.95
													C325.17,243.45,316.18,249.92,302.69,249.92z"/>
											</defs>
											<clipPath id="SVGID_49_">
												<use xlink:href="#SVGID_48_"  style="overflow:visible;"/>
											</clipPath>
											<g class="st30">
												<polygon class="st29" points="202.6,213.03 111.1,152.87 118.64,147.45 209.74,207.61 												"/>
											</g>
										</g>
									</g>
								</g>
							</g>
							<g>
								<g>
									<g>
										<g>
											<defs>
												<path id="SVGID_50_" d="M302.69,249.92H115.07c-13.35,0-22.35-6.35-19.97-14.15l32.66-109.35
													c2.25-7.93,11.24-14.28,20.1-14.28l122.57,0.4c8.73,0,17.72,6.48,19.97,14.15l32.39,108.95
													C325.17,243.45,316.18,249.92,302.69,249.92z"/>
											</defs>
											<clipPath id="SVGID_51_">
												<use xlink:href="#SVGID_50_"  style="overflow:visible;"/>
											</clipPath>
											<path class="st31" d="M237.24,211.58c0.79,10.05-11.9,18.25-28.3,18.25s-29.09-8.2-28.3-18.25
												c0.79-10.05,13.49-18.25,28.3-18.25C223.76,193.33,236.45,201.53,237.24,211.58z"/>
										</g>
									</g>
								</g>
							</g>
							<g>
								<g>
									<g>
										<g>
											<defs>
												<path id="SVGID_52_" d="M302.69,249.92H115.07c-13.35,0-22.35-6.35-19.97-14.15l32.66-109.35
													c2.25-7.93,11.24-14.28,20.1-14.28l122.57,0.4c8.73,0,17.72,6.48,19.97,14.15l32.39,108.95
													C325.17,243.45,316.18,249.92,302.69,249.92z"/>
											</defs>
											<clipPath id="SVGID_53_">
												<use xlink:href="#SVGID_52_"  style="overflow:visible;"/>
											</clipPath>
											<path class="st32" d="M208.95,233.4c-19.83,0-34.91-9.78-33.72-21.82c1.19-12.03,16.26-21.82,33.85-21.82
												c17.45,0,32.66,9.78,33.72,21.82C243.86,223.61,228.65,233.4,208.95,233.4z M208.95,196.9
												c-12.03,0-22.35,6.61-22.87,14.68c-0.53,8.07,9.65,14.68,22.74,14.68c13.09,0,23.27-6.61,22.87-14.68
												C231.16,203.51,220.98,196.9,208.95,196.9z"/>
										</g>
									</g>
								</g>
							</g>
							<g>
								<g>
									<g>
										<g>
											<defs>
												<path id="SVGID_54_" d="M302.69,249.92H115.07c-13.35,0-22.35-6.35-19.97-14.15l32.66-109.35
													c2.25-7.93,11.24-14.28,20.1-14.28l122.57,0.4c8.73,0,17.72,6.48,19.97,14.15l32.39,108.95
													C325.17,243.45,316.18,249.92,302.69,249.92z"/>
											</defs>
											<clipPath id="SVGID_55_">
												<use xlink:href="#SVGID_54_"  style="overflow:visible;"/>
											</clipPath>
											<g class="st33">
												<polygon class="st16" points="104.36,157.63 104.76,150.63 207.89,133.57 209.74,140.44 												"/>
											</g>
										</g>
									</g>
								</g>
							</g>
						</g>
					</g>
				</g>
			</g>
		</g>
		<path class="st34" d="M208.02,40.75c-34.11,0-61.88,27.77-61.88,61.88c0,42.31,55.4,104.46,57.65,107.1
			c2.25,2.51,6.08,2.51,8.33,0c2.38-2.64,57.65-64.79,57.65-107.1C269.77,68.51,242.14,40.75,208.02,40.75z"/>
		<path class="st35" d="M114.81,168.61c-11.64,0-21.16,9.52-21.16,21.16c0,14.54,18.91,35.83,19.83,36.76
			c0.79,0.79,2.12,0.79,2.78,0c0.79-0.93,19.83-22.21,19.83-36.76C136.09,178.13,126.57,168.61,114.81,168.61z"/>
		<path class="st36" d="M301.9,116.64c-11.64,0-21.16,9.52-21.16,21.16c0,14.54,18.91,35.83,19.83,36.76c0.79,0.79,2.12,0.79,2.78,0
			c0.79-0.93,19.83-22.21,19.83-36.76C323.06,126.16,313.67,116.64,301.9,116.64z"/>
		<path class="st37" d="M269.9,182.36c-11.64,0-21.16,9.52-21.16,21.16c0,14.54,18.91,35.83,19.83,36.76c0.79,0.79,2.12,0.79,2.78,0
			c0.79-0.93,19.83-22.21,19.83-36.76C291.06,191.88,281.54,182.36,269.9,182.36z"/>
		<g>
			<g>
				<path class="st16" d="M279.29,201c-2.51-3.57-5.69-2.78-7.67-2.25c-0.26,0-0.4,0.13-0.66,0.13c0.26-2.25,1.45-3.97,3.57-5.29
					l-0.93-1.45c-1.19,0.66-2.12,1.45-2.78,2.38c-0.26-0.79-0.66-1.59-1.19-2.12c-1.06-1.06-2.64-1.59-4.76-1.59h-0.79v0.79
					c0,2.12,0.53,3.7,1.59,4.76c0.93,0.93,2.12,1.45,3.7,1.59c0,0.26-0.13,0.53-0.13,0.79c-0.26,0-0.53-0.13-0.79-0.13
					c-2.12-0.53-5.16-1.32-7.67,2.25c-1.19,1.72-1.59,4.1-1.06,6.74c0.66,3.17,2.51,6.48,4.36,7.67c2.25,1.45,4.1,0.79,5.29,0.4
					c0.26-0.13,0.66-0.26,0.79-0.26s0.53,0.13,0.79,0.26c0.66,0.26,1.45,0.53,2.38,0.53c0.79,0,1.85-0.26,2.78-0.93
					c1.85-1.19,3.7-4.5,4.36-7.67C280.88,205.1,280.48,202.85,279.29,201z"/>
			</g>
		</g>
		<g>
			<g>
				<path class="st16" d="M293.17,134.89c0.26,0.13,1.06,0.79,2.51,1.72c1.32,0.93,2.38,1.72,3.17,2.25c0.13,0,0.26,0.13,0.53,0.4
					c0.26,0.13,0.53,0.4,0.66,0.4c0.13,0.13,0.4,0.26,0.66,0.4s0.53,0.26,0.66,0.26c0.26,0.13,0.4,0.13,0.66,0.13l0,0l0,0
					c0.13,0,0.4,0,0.66-0.13s0.4-0.13,0.66-0.26c0.26-0.13,0.4-0.26,0.66-0.4c0.13-0.13,0.4-0.26,0.66-0.4
					c0.26-0.13,0.4-0.26,0.53-0.4c0.79-0.53,2.64-1.85,5.69-3.97c0.53-0.4,1.06-0.93,1.45-1.45s0.53-1.19,0.53-1.85
					c0-0.53-0.13-0.93-0.53-1.32c-0.4-0.4-0.79-0.53-1.32-0.53h-17.72c-0.66,0-1.06,0.26-1.45,0.66c-0.4,0.4-0.53,0.93-0.53,1.59
					c0,0.53,0.26,1.06,0.66,1.59C292.25,134.1,292.65,134.49,293.17,134.89z"/>
				<path class="st16" d="M311.42,136.08c-2.64,1.72-4.63,3.17-5.95,4.1c-0.4,0.4-0.79,0.66-1.06,0.79s-0.66,0.4-1.19,0.53
					c-0.53,0.13-0.93,0.26-1.32,0.26l0,0l0,0c-0.4,0-0.79-0.13-1.32-0.26c-0.53-0.13-0.79-0.4-1.19-0.53
					c-0.26-0.13-0.66-0.4-1.06-0.79c-1.06-0.79-3.04-2.12-5.95-4.1c-0.4-0.26-0.93-0.66-1.19-1.06v9.52c0,0.53,0.13,0.93,0.53,1.32
					c0.4,0.4,0.79,0.53,1.32,0.53h17.72c0.53,0,0.93-0.13,1.32-0.53c0.4-0.4,0.53-0.79,0.53-1.32v-9.52
					C312.35,135.42,311.95,135.82,311.42,136.08z"/>
			</g>
		</g>
		<path class="st16" d="M118.38,202.19h-7.14c-0.4,0-0.66-0.26-0.66-0.66v-6.48h-6.61c-0.4,0-0.66-0.26-0.66-0.66v-7.14
			c0-0.4,0.26-0.66,0.66-0.66h6.48v-6.48c0-0.4,0.26-0.66,0.66-0.66h7.14c0.4,0,0.66,0.26,0.66,0.66v6.48h6.48
			c0.4,0,0.66,0.26,0.66,0.66v7.14c0,0.4-0.26,0.66-0.66,0.66h-6.48v6.48C119.04,201.93,118.77,202.19,118.38,202.19z"/>
		<circle class="st16" cx="208.29" cy="103.55" r="42.97"/>
		<path class="st34" d="M237.51,80.28c-0.66-1.45-1.45-2.25-3.17-3.44c-1.45-1.06-3.7-0.53-4.89,0.66
			c-6.21,6.08-12.16,12.56-17.59,19.3c-2.64,3.31-6.48,7.27-8.86,11.5c-1.19-0.93-2.25-1.85-3.31-2.78
			c-3.44-3.17-7.14-7.14-11.5-9.12c-3.57-1.72-6.21-0.13-8.46,2.78c-0.66,0.93-1.45,2.38-1.45,3.57c-0.93,0.93-1.19,2.51,0,3.97
			c7.54,9.26,16.92,16.53,26.84,23.14c1.32,0.93,3.83,0.66,4.89-0.66c10.71-13.62,20.76-28.69,29.49-43.63
			C241.08,82.93,239.49,80.81,237.51,80.28z"/>
	</g>
	<g>
		<path class="st36" d="M445.59,73.09c2.91,2.71,5.83,6.45,4.37,11.03c-2.5,5.41-7.49,5.2-11.65,4.79h-0.83
			c-1.04-0.21-2.08-0.21-2.91-0.21c-7.7,0-16.02,0.21-24.14,0.42c-5.83,0.21-13.74,0.21-18.94,0.21c-4.58,0-7.49,0-11.03-0.21
			c-0.21,1.67-0.21,3.95-0.21,5.83c0,1.25-0.21,2.08-0.21,3.33c0,1.46-0.21,2.91-0.21,4.37c0,2.71,0,5-0.21,6.87
			c10.61-0.42,20.19-0.63,29.76-0.63c7.7,0,15.82,0,23.1,0.63c4.79,1.04,7.91,6.45,7.91,12.07c0,2.29-0.42,4.79-2.08,7.08
			c-9.16-0.62-19.77-1.25-29.34-1.25c-10.41,0-20.81,0.42-30.59,2.5v13.94c0,2.91,0.21,4.58,0,7.7c7.7,0.21,14.57,0.42,22.89,0.42
			c14.78,0,30.59-0.42,47.45-1.25c0.83,0,2.08-0.21,3.54-0.42c4.16-0.42,8.12-0.83,11.45,2.08c1.87,5.83-0.21,13.32-3.54,15.4
			c-14.78,0-31.84,0.21-47.66,1.25c-3.75,0.21-7.91,0.42-11.65,0.42c-2.08,0-4.16,0.21-6.03,0.21c-6.66,0.21-14.36,0.42-22.06,1.04
			c-1.25-1.25-1.87-1.46-2.5-1.67c-0.21,0-0.83-0.42-0.83-0.42c-0.21,0-0.83-0.21-1.04-0.21c-2.08-0.83-4.37-1.87-5.2-2.71
			c-0.83-1.66-1.04-4.99-1.04-8.32c0-2.29,0.21-5.83,0.42-8.12v-1.04c-0.21-13.74,0.62-28.09,1.46-40.37l1.04-24.14
			c-3.54-5.62,0-12.69,5.41-13.74c10.82,1.04,21.64,1.25,32.26,1.25h8.32c2.91,0,5.41-0.21,8.32-0.21
			c6.87-0.21,17.9-0.21,23.93-0.21L445.59,73.09z"/>
		<path class="st36" d="M502.85,148.63c8.74-0.21,17.48-0.83,26.64-1.67c11.86-1.04,25.39-1.87,37.67-1.87c3.95,0,8.53,0,12.07,0.21
			c4.58,0.63,8.12,6.45,8.12,11.45c0,2.5-1.04,4.79-3.33,7.7c-2.5-0.21-4.79-0.21-7.08-0.21c-2.91,0-4.37-0.21-6.66-0.62
			c-2.5,0.83-4.37,0.83-6.66,0c-16.02,1.04-34.75,2.08-46.2,3.33c-1.46,0.21-2.71,0.42-4.16,0.83l-2.5,0.83
			c-2.08,0.21-3.95,0.21-6.45,0.21c-2.08,0-3.95,0-6.04,0.21l-2.29,0.42c-2.29,0.42-5.2,0.62-7.7,0.62c-2.08,0-4.37-0.21-7.08-1.04
			c-0.42-0.63-0.83-1.25-3.33-1.04c-0.42-2.08-1.04-4.16-1.87-5.83c-1.04-3.12-2.08-6.24-1.04-10.61
			c4.16-8.12,15.19-17.06,24.14-22.27l7.08-4.79l5.41-4.37c6.87-5,13.53-10.41,22.48-14.78c3.95-4.37,9.36-8.95,14.15-12.28
			c1.46-1.25,3.95-3.12,5.83-4.99l1.25-1.04c-5.41,0.21-12.49,0.83-17.69,1.25l-11.24,0.62c-13.73,0.83-29.34,1.46-41.2,1.87
			c-1.25,0-2.5-0.83-3.33-1.25h-1.87c-2.71-3.95-5.83-9.57-3.75-15.82l22.68-1.04c8.53-0.21,16.86-0.63,25.18-1.04l25.39-1.25
			c3.95-0.21,11.03-0.42,16.86-0.42h8.53c3.75,3.54,9.78,9.99,7.49,17.69c0.21,2.5-1.25,2.29-37.25,29.76l-18.11,13.53
			C518.25,137.18,511.59,141.97,502.85,148.63z"/>
		<path class="st36" d="M591.45,144.47c-1.66-5.83-2.29-11.86-2.29-17.48c0-17.48,6.45-34.34,16.86-45.16
			c2.29-0.62,3.12-1.25,4.16-2.08h-0.21l0.42-0.21l1.87-1.25h-0.21l3.75-2.71c5.83-2.08,13.53-2.71,20.81-3.33l4.58-0.42
			c2.91-0.42,6.87-0.42,9.57-0.42c9.57,0,18.73,1.25,26.22,2.71l3.75,2.71c0.21,0.21,1.04,0.63,3.12,1.46l1.87,2.5
			c7.28,8.53,17.9,20.81,19.15,34.75c0.83,9.57-0.83,18.73-1.87,25.81c0,0.21-0.83,1.46-1.25,1.87c-0.21,0.42-0.63,0.42-0.63,1.04
			c-2.5,4.16-4.79,8.12-6.66,10.41l-3.12,2.91c-0.42,0.42-1.04,0.62-1.46,0.83l-4.99,4.99c-11.24,5.41-23.93,7.49-36.63,7.49
			c-9.57,0-19.15-1.04-28.3-2.5c-13.11-3.54-22.48-9.99-27.05-22.06c-0.42,0-0.83-0.42-0.83-1.25c0,0-0.21,0.21,0-0.21
			L591.45,144.47z M618.5,95.15c1.25-0.42-0.83,1.67-2.5,3.33l-1.87,1.87v-0.21c-6.03,7.91-9.99,18.31-9.99,29.55
			c0,3.54,0.62,8.53,1.67,12.69c1.04,0.62,1.66,1.67,2.29,3.12c8.12,5.41,21.85,8.74,34.96,8.74c12.9,0,26.64-3.54,34.75-9.16h-0.21
			c6.87-6.87,11.65-22.89,11.86-36.63c-0.62-2.71-2.08-5.62-3.54-8.32l-0.42-1.04c-0.21-0.21-0.42-0.42-0.42-0.62
			c-6.03-5.2-14.78-9.16-25.6-9.57C647.22,88.69,629.74,88.9,618.5,95.15z M702.99,141.35c0.21,0,0.21,0.21,0,0.41V141.35z"/>
	</g>
	<g>
		<path class="st35" d="M424.67,193.62c5.35,3.08,13.28,10.37,13.28,17.5c0,2.11-0.65,4.21-2.27,6.32c-2.59,1.13-6.48-0.16-8.42-1.3
			l-0.49-3.73c-0.16-1.94-0.65-3.73-1.3-4.86l-2.59-0.97c-0.16,0-0.49-0.16-0.97-0.65c-4.54,0.49-9.4,0.65-13.77,0.81
			c-10.21,0.32-21.06,1.46-30.13,5.35l-3.89,3.89c0,0.32-0.16,0.81-0.32,1.3c0.16-0.16,0.32-0.32,0.65-0.16
			c-1.13,5.67,6.64,5.51,13.28,5.35h2.43c1.94,0,4.37,0,5.83,0.16c4.7,0.49,10.37,0.81,15.55,1.13l8.59,0.49
			c2.43,0.97,5.83,1.94,9.4,2.59c8.42,3.56,13.93,13.12,13.93,22.84c0,4.21-1.13,8.91-3.56,12.8c-8.59,8.1-22.84,9.4-35.64,10.04
			c-3.73-0.49-7.13-0.81-10.53-1.13c-0.81,0-1.78-0.16-2.59-0.16c-6.16-0.49-12.96-1.13-18.63-2.92c-4.37-2.92-8.1-9.23-8.1-16.36
			c0-1.94,0.32-4.21,1.3-6.64c7.94-2.43,10.21,3.4,11.99,8.59c0.16,0.65,0.32,1.3,0.32,1.46c7.29,1.62,16.2,2.59,24.46,2.59
			c6.97,0,14.9-0.97,21.06-2.92h-0.16l1.46-0.65v0.16c2.92-1.62,5.99-3.24,7.45-6.15l-0.16,0.16c0.65-2.43,0.16-5.51-1.13-6.64
			c-5.99-3.56-14.42-4.37-22.03-4.86l-6.97-0.49c-2.75-0.16-6.8-0.32-9.23-0.32c-7.78-0.16-15.07-0.32-22.03-3.56l-0.16-0.65
			c-0.16,0-0.65,0-1.78-0.81c-3.56-3.56-5.67-9.88-5.67-16.2c0-4.7,1.46-9.4,4.21-12.8c4.37-5.02,13.45-7.78,20.74-8.75
			c6.8-0.97,13.93-0.97,19.6-0.97c4.54,0,9.23,0,13.93-0.32l2.43,1.3L424.67,193.62z"/>
		<path class="st35" d="M499.18,197.34c0,1.3,0.65,3.08,1.62,5.02l0.65,1.78l-0.16-0.16c4.05,7.29,8.1,14.26,12.47,21.38l2.59,4.7
			v-0.16c6.32,10.85,12.31,21.55,17.66,34.18c0,0-0.32,1.46-0.49,2.43c0,0.32-0.16,1.13-0.16,1.46c-1.94,1.3-4.37,2.43-6.97,2.75
			c-2.75-1.78-3.4-2.11-4.86-1.78l-5.35-10.53l-3.24-6.48l-2.75-5.51h-5.02c-10.37,0-22.68,0.32-33.69,0.65
			c-2.43,3.4-3.4,5.18-4.54,7.29c-2.92,5.51-3.73,6.8-4.54,7.94c-1.13,1.3-1.94,2.43-3.56,5.67H459c-0.49,1.13-1.13,2.43-2.75,3.73
			c-4.86,0.65-8.42-3.4-10.53-6.48l1.3-3.08c0.81-1.94,1.62-3.89,3.73-5.35l-0.16,0.32c7.45-13.61,15.71-27.7,23.97-41.31l5.51-8.75
			l-0.16,0.16c0.49-1.13,1.3-2.11,1.62-3.24v0.16c0-0.16,0.16-0.16,0.16-0.49c0-0.16,0.49,1.3-0.32-3.56
			c0.97,0.32,3.4-1.13,3.08-1.78c0.49-0.81,0.97-1.3,1.46-1.3c0-0.49,0.16-0.81,0.49-1.78l1.94-0.32c1.3-0.49,2.92-0.81,4.86-0.81
			c1.94,0,3.89,0.49,5.83,1.94L499.18,197.34z M481.2,231.85c4.7-1.13,12.31,0.97,16.2,0h4.54c-2.43-5.18-4.7-10.04-7.61-15.23
			l-2.43-3.89c-1.62,3.08-3.73,6.8-5.83,10.21v-0.16c-0.65,1.13-1.62,2.43-2.27,3.73L481.2,231.85z M481.2,231.85"/>
		<path class="st35" d="M609.16,255.17l2.43,2.75c2.59,2.59,5.02,6.32,4.05,11.66c-2.43,2.59-4.37,2.11-6.64,1.46
			c-0.16,0-0.49-0.16-0.65-0.16l-2.27-0.49c-1.94-0.32-4.37-0.32-6.32-0.32c-2.59,0-5.51,0-8.59,0.16
			c-2.43,0.16-6.16,0.32-8.59,0.32c-2.92,0-6.64-0.16-9.4-0.49c-6.32,0.49-15.23,0.65-22.36,0.65h-0.97
			c-2.11-0.16-4.54-0.32-5.99-1.78l-1.46-1.94v0.16c-0.81-0.81-1.62-2.11-1.78-3.08l0.16,0.16c-0.49-0.97-0.49-1.78-0.49-2.43
			c0-0.32,0-0.97-0.49-1.62v0.16c-0.81-0.81-1.13-1.13-1.3-2.92c-0.16-1.3,0-2.11,0.16-2.59c0-0.32,0-0.49,0.32-0.81v0.16
			c0-0.16,0.16-0.16,0.16-0.49v-5.35c-0.16-1.62-0.16-4.86,0-6.48v-1.78c0-0.81,0.16-1.78,0.16-2.43l0.32-9.23
			c0.32-8.1,0.65-17.01,0.65-25.27c0-1.46-0.16-2.92-0.16-4.37v-3.89c1.78-2.27,3.56-3.24,5.51-3.24c2.92,0,5.83,1.3,7.61,3.24
			c0.97,1.78,1.13,3.73,1.3,6.16l0.49,3.56c-1.13,16.85-1.46,33.37-1.46,50.54H609.16z"/>
		<path class="st35" d="M671.52,197.34c0,1.3,0.65,3.08,1.62,5.02l0.65,1.78l-0.16-0.16c4.05,7.29,8.1,14.26,12.47,21.38l2.59,4.7
			v-0.16c6.32,10.85,12.31,21.55,17.66,34.18c0,0-0.32,1.46-0.49,2.43c0,0.32-0.16,1.13-0.16,1.46c-1.94,1.3-4.37,2.43-6.97,2.75
			c-2.75-1.78-3.4-2.11-4.86-1.78l-5.35-10.53l-3.24-6.48l-2.75-5.51h-5.02c-10.37,0-22.68,0.32-33.69,0.65
			c-2.43,3.4-3.4,5.18-4.54,7.29c-2.92,5.51-3.73,6.8-4.54,7.94c-1.13,1.3-1.94,2.43-3.56,5.67h0.16c-0.49,1.13-1.13,2.43-2.75,3.73
			c-4.86,0.65-8.42-3.4-10.53-6.48l1.3-3.08c0.81-1.94,1.62-3.89,3.73-5.35l-0.16,0.32c7.45-13.61,15.71-27.7,23.97-41.31l5.51-8.75
			l-0.16,0.16c0.49-1.13,1.3-2.11,1.62-3.24v0.16c0-0.16,0.16-0.16,0.16-0.49c0-0.16,0.49,1.3-0.32-3.56
			c0.97,0.32,3.4-1.13,3.08-1.78c0.49-0.81,0.97-1.3,1.46-1.3c0-0.49,0.16-0.81,0.49-1.78l1.94-0.32c1.3-0.49,2.92-0.81,4.86-0.81
			c1.94,0,3.89,0.49,5.83,1.94L671.52,197.34z M653.54,231.85c4.7-1.13,12.31,0.97,16.2,0h4.54c-2.43-5.18-4.7-10.04-7.61-15.23
			l-2.43-3.89c-1.62,3.08-3.73,6.8-5.83,10.21v-0.16c-0.65,1.13-1.62,2.43-2.27,3.73L653.54,231.85z M653.54,231.85"/>
	</g>
</g>
</svg>
