<?xml version="1.0" encoding="utf-8"?>
<!-- Generator: Adobe Illustrator 24.0.1, SVG Export Plug-In . SVG Version: 6.00 Build 0)  -->
<svg version="1.1" id="Calque_1" xmlns="http://www.w3.org/2000/svg" xmlns:xlink="http://www.w3.org/1999/xlink" x="0px" y="0px"
	 viewBox="0 0 940.18 338" style="enable-background:new 0 0 940.18 338;" xml:space="preserve">
<style type="text/css">
	.st0{fill:url(#SVGID_1_);}
	.st1{fill:#DAD0C9;}
	.st2{clip-path:url(#SVGID_3_);}
	.st3{fill:#E0DFDF;}
	.st4{clip-path:url(#SVGID_5_);}
	.st5{clip-path:url(#SVGID_7_);}
	.st6{fill:#ABD3E0;}
	.st7{clip-path:url(#SVGID_9_);}
	.st8{clip-path:url(#SVGID_11_);}
	.st9{fill:#CDECB0;}
	.st10{clip-path:url(#SVGID_13_);}
	.st11{clip-path:url(#SVGID_15_);}
	.st12{clip-path:url(#SVGID_17_);}
	.st13{clip-path:url(#SVGID_19_);}
	.st14{clip-path:url(#SVGID_21_);}
	.st15{clip-path:url(#SVGID_23_);}
	.st16{fill:#FFFFFF;}
	.st17{clip-path:url(#SVGID_25_);}
	.st18{clip-path:url(#SVGID_27_);}
	.st19{clip-path:url(#SVGID_29_);}
	.st20{clip-path:url(#SVGID_31_);}
	.st21{clip-path:url(#SVGID_33_);}
	.st22{clip-path:url(#SVGID_35_);}
	.st23{clip-path:url(#SVGID_37_);}
	.st24{clip-path:url(#SVGID_39_);}
	.st25{clip-path:url(#SVGID_41_);}
	.st26{clip-path:url(#SVGID_43_);}
	.st27{clip-path:url(#SVGID_45_);}
	.st28{clip-path:url(#SVGID_47_);}
	.st29{fill:#FCD6A5;}
	.st30{clip-path:url(#SVGID_49_);}
	.st31{clip-path:url(#SVGID_51_);fill:#E0DFDF;}
	.st32{clip-path:url(#SVGID_53_);fill:#FCD6A5;}
	.st33{clip-path:url(#SVGID_55_);}
	.st34{fill:#F12A2A;}
	.st35{fill:#009A00;}
	.st36{fill:#FFC900;}
	.st37{fill:#0060B1;}
</style>
<g>
	<g>
		<g>
			
				<linearGradient id="SVGID_1_" gradientUnits="userSpaceOnUse" x1="29.4249" y1="1515.0824" x2="182.0394" y2="1515.0824" gradientTransform="matrix(1 0 0 1 0 -1286.6144)">
				<stop  offset="0" style="stop-color:#E0DFDF"/>
				<stop  offset="0.0539" style="stop-color:#DAD0C9"/>
				<stop  offset="0.128" style="stop-color:#E0DFDF"/>
				<stop  offset="0.8798" style="stop-color:#E0DFDF"/>
				<stop  offset="0.9445" style="stop-color:#DAD0C9"/>
				<stop  offset="1" style="stop-color:#E0DFDF"/>
			</linearGradient>
			<path class="st0" d="M182.04,216.27H29.42v16.79l0,0c0.18,4.33,6.1,7.6,14.4,7.6h123.98c8.4,0,14.14-3.27,14.23-7.6l0,0V216.27
				L182.04,216.27z"/>
			<g>
				<g>
					<g>
						<path class="st1" d="M168.43,224.14H43.03c-8.93,0-14.93-4.24-13.34-9.46l21.83-73.08c1.5-5.3,7.51-9.54,13.43-9.54
							l81.92,0.27c5.83,0,11.84,4.33,13.34,9.46l21.65,72.82C183.45,219.81,177.44,224.14,168.43,224.14z"/>
						<g>
							<g>
								<g>
									<g>
										<g>
											<defs>
												<path id="SVGID_2_" d="M168.43,224.14H43.03c-8.93,0-14.93-4.24-13.34-9.46l21.83-73.08c1.5-5.3,7.51-9.54,13.43-9.54
													l81.92,0.27c5.83,0,11.84,4.33,13.34,9.46l21.65,72.82C183.45,219.81,177.44,224.14,168.43,224.14z"/>
											</defs>
											<clipPath id="SVGID_3_">
												<use xlink:href="#SVGID_2_"  style="overflow:visible;"/>
											</clipPath>
											<g class="st2">
												<polygon class="st3" points="48.42,159.45 104.36,150.53 103.74,170.94 64.6,172.26 48.25,161.75 												"/>
											</g>
										</g>
									</g>
								</g>
							</g>
							<g>
								<g>
									<g>
										<g>
											<defs>
												<path id="SVGID_4_" d="M168.43,224.14H43.03c-8.93,0-14.93-4.24-13.34-9.46l21.83-73.08c1.5-5.3,7.51-9.54,13.43-9.54
													l81.92,0.27c5.83,0,11.84,4.33,13.34,9.46l21.65,72.82C183.45,219.81,177.44,224.14,168.43,224.14z"/>
											</defs>
											<clipPath id="SVGID_5_">
												<use xlink:href="#SVGID_4_"  style="overflow:visible;"/>
											</clipPath>
											<g class="st4">
												<polygon class="st3" points="175.15,171.12 155.79,181.63 169.4,199.13 185.49,197.8 												"/>
											</g>
										</g>
									</g>
								</g>
							</g>
							<g>
								<g>
									<g>
										<g>
											<defs>
												<path id="SVGID_6_" d="M168.43,224.14H43.03c-8.93,0-14.93-4.24-13.34-9.46l21.83-73.08c1.5-5.3,7.51-9.54,13.43-9.54
													l81.92,0.27c5.83,0,11.84,4.33,13.34,9.46l21.65,72.82C183.45,219.81,177.44,224.14,168.43,224.14z"/>
											</defs>
											<clipPath id="SVGID_7_">
												<use xlink:href="#SVGID_6_"  style="overflow:visible;"/>
											</clipPath>
											<g class="st5">
												<polygon class="st6" points="106.04,227.14 106.13,204.7 112.93,205.76 130.08,229.79 												"/>
											</g>
										</g>
									</g>
								</g>
							</g>
							<g>
								<g>
									<g>
										<g>
											<defs>
												<path id="SVGID_8_" d="M168.43,224.14H43.03c-8.93,0-14.93-4.24-13.34-9.46l21.83-73.08c1.5-5.3,7.51-9.54,13.43-9.54
													l81.92,0.27c5.83,0,11.84,4.33,13.34,9.46l21.65,72.82C183.45,219.81,177.44,224.14,168.43,224.14z"/>
											</defs>
											<clipPath id="SVGID_9_">
												<use xlink:href="#SVGID_8_"  style="overflow:visible;"/>
											</clipPath>
											<g class="st7">
												<polygon class="st6" points="67.78,226.08 35.35,226.08 43.12,197.27 72.02,197.36 												"/>
											</g>
										</g>
									</g>
								</g>
							</g>
							<g>
								<g>
									<g>
										<g>
											<defs>
												<path id="SVGID_10_" d="M168.43,224.14H43.03c-8.93,0-14.93-4.24-13.34-9.46l21.83-73.08c1.5-5.3,7.51-9.54,13.43-9.54
													l81.92,0.27c5.83,0,11.84,4.33,13.34,9.46l21.65,72.82C183.45,219.81,177.44,224.14,168.43,224.14z"/>
											</defs>
											<clipPath id="SVGID_11_">
												<use xlink:href="#SVGID_10_"  style="overflow:visible;"/>
											</clipPath>
											<g class="st8">
												<polygon class="st9" points="104.98,123.48 106.13,155.21 130.52,157.15 128.93,123.57 												"/>
											</g>
										</g>
									</g>
								</g>
							</g>
							<g>
								<g>
									<g>
										<g>
											<defs>
												<path id="SVGID_12_" d="M168.43,224.14H43.03c-8.93,0-14.93-4.24-13.34-9.46l21.83-73.08c1.5-5.3,7.51-9.54,13.43-9.54
													l81.92,0.27c5.83,0,11.84,4.33,13.34,9.46l21.65,72.82C183.45,219.81,177.44,224.14,168.43,224.14z"/>
											</defs>
											<clipPath id="SVGID_13_">
												<use xlink:href="#SVGID_12_"  style="overflow:visible;"/>
											</clipPath>
											<g class="st10">
												<polygon class="st9" points="158.36,131.7 147.49,144.43 157.56,153 171.52,165.37 												"/>
											</g>
										</g>
									</g>
								</g>
							</g>
							<g>
								<g>
									<g>
										<g>
											<defs>
												<path id="SVGID_14_" d="M168.43,224.14H43.03c-8.93,0-14.93-4.24-13.34-9.46l21.83-73.08c1.5-5.3,7.51-9.54,13.43-9.54
													l81.92,0.27c5.83,0,11.84,4.33,13.34,9.46l21.65,72.82C183.45,219.81,177.44,224.14,168.43,224.14z"/>
											</defs>
											<clipPath id="SVGID_15_">
												<use xlink:href="#SVGID_14_"  style="overflow:visible;"/>
											</clipPath>
											<g class="st11">
												<polygon class="st9" points="180.01,198.42 120.71,198.95 117.18,205.05 168.87,227.41 190.35,222.11 												"/>
											</g>
										</g>
									</g>
								</g>
							</g>
							<g>
								<g>
									<g>
										<g>
											<defs>
												<path id="SVGID_16_" d="M168.43,224.14H43.03c-8.93,0-14.93-4.24-13.34-9.46l21.83-73.08c1.5-5.3,7.51-9.54,13.43-9.54
													l81.92,0.27c5.83,0,11.84,4.33,13.34,9.46l21.65,72.82C183.45,219.81,177.44,224.14,168.43,224.14z"/>
											</defs>
											<clipPath id="SVGID_17_">
												<use xlink:href="#SVGID_16_"  style="overflow:visible;"/>
											</clipPath>
											<g class="st12">
												<polygon class="st6" points="38,141.69 105.51,131.17 103.83,149.55 32.16,161.13 												"/>
											</g>
										</g>
									</g>
								</g>
							</g>
							<g>
								<g>
									<g>
										<g>
											<defs>
												<path id="SVGID_18_" d="M168.43,224.14H43.03c-8.93,0-14.93-4.24-13.34-9.46l21.83-73.08c1.5-5.3,7.51-9.54,13.43-9.54
													l81.92,0.27c5.83,0,11.84,4.33,13.34,9.46l21.65,72.82C183.45,219.81,177.44,224.14,168.43,224.14z"/>
											</defs>
											<clipPath id="SVGID_19_">
												<use xlink:href="#SVGID_18_"  style="overflow:visible;"/>
											</clipPath>
											<g class="st13">
												<polygon class="st6" points="132.82,158.66 147.05,143.01 170.55,164.22 171.52,173.24 150.58,180.31 												"/>
											</g>
										</g>
									</g>
								</g>
							</g>
							<g>
								<g>
									<g>
										<g>
											<defs>
												<path id="SVGID_20_" d="M168.43,224.14H43.03c-8.93,0-14.93-4.24-13.34-9.46l21.83-73.08c1.5-5.3,7.51-9.54,13.43-9.54
													l81.92,0.27c5.83,0,11.84,4.33,13.34,9.46l21.65,72.82C183.45,219.81,177.44,224.14,168.43,224.14z"/>
											</defs>
											<clipPath id="SVGID_21_">
												<use xlink:href="#SVGID_20_"  style="overflow:visible;"/>
											</clipPath>
											<g class="st14">
												<polygon class="st9" points="24.12,187.2 63.36,173.59 93.4,191.18 86.87,198.33 24.92,197.98 												"/>
											</g>
										</g>
									</g>
								</g>
							</g>
							<g>
								<g>
									<g>
										<g>
											<defs>
												<path id="SVGID_22_" d="M168.43,224.14H43.03c-8.93,0-14.93-4.24-13.34-9.46l21.83-73.08c1.5-5.3,7.51-9.54,13.43-9.54
													l81.92,0.27c5.83,0,11.84,4.33,13.34,9.46l21.65,72.82C183.45,219.81,177.44,224.14,168.43,224.14z"/>
											</defs>
											<clipPath id="SVGID_23_">
												<use xlink:href="#SVGID_22_"  style="overflow:visible;"/>
											</clipPath>
											<g class="st15">
												<polygon class="st16" points="40.47,143.99 41.09,139.39 128.4,125.61 129.9,130.29 												"/>
											</g>
										</g>
									</g>
								</g>
							</g>
							<g>
								<g>
									<g>
										<g>
											<defs>
												<path id="SVGID_24_" d="M168.43,224.14H43.03c-8.93,0-14.93-4.24-13.34-9.46l21.83-73.08c1.5-5.3,7.51-9.54,13.43-9.54
													l81.92,0.27c5.83,0,11.84,4.33,13.34,9.46l21.65,72.82C183.45,219.81,177.44,224.14,168.43,224.14z"/>
											</defs>
											<clipPath id="SVGID_25_">
												<use xlink:href="#SVGID_24_"  style="overflow:visible;"/>
											</clipPath>
											<g class="st17">
												<polygon class="st16" points="102.42,193.65 103.13,126.49 108.25,126.49 109.58,193.65 												"/>
											</g>
										</g>
									</g>
								</g>
							</g>
							<g>
								<g>
									<g>
										<g>
											<defs>
												<path id="SVGID_26_" d="M168.43,224.14H43.03c-8.93,0-14.93-4.24-13.34-9.46l21.83-73.08c1.5-5.3,7.51-9.54,13.43-9.54
													l81.92,0.27c5.83,0,11.84,4.33,13.34,9.46l21.65,72.82C183.45,219.81,177.44,224.14,168.43,224.14z"/>
											</defs>
											<clipPath id="SVGID_27_">
												<use xlink:href="#SVGID_26_"  style="overflow:visible;"/>
											</clipPath>
											<g class="st18">
												<polygon class="st16" points="169.31,199.31 128.05,159.19 126.72,126.14 131.85,126.4 134.05,158.04 174.97,196.92 
																									"/>
											</g>
										</g>
									</g>
								</g>
							</g>
							<g>
								<g>
									<g>
										<g>
											<defs>
												<path id="SVGID_28_" d="M168.43,224.14H43.03c-8.93,0-14.93-4.24-13.34-9.46l21.83-73.08c1.5-5.3,7.51-9.54,13.43-9.54
													l81.92,0.27c5.83,0,11.84,4.33,13.34,9.46l21.65,72.82C183.45,219.81,177.44,224.14,168.43,224.14z"/>
											</defs>
											<clipPath id="SVGID_29_">
												<use xlink:href="#SVGID_28_"  style="overflow:visible;"/>
											</clipPath>
											<g class="st19">
												<polygon class="st16" points="178.15,200.81 114.88,200.72 114.7,196.04 176.74,196.04 												"/>
											</g>
										</g>
									</g>
								</g>
							</g>
							<g>
								<g>
									<g>
										<g>
											<defs>
												<path id="SVGID_30_" d="M168.43,224.14H43.03c-8.93,0-14.93-4.24-13.34-9.46l21.83-73.08c1.5-5.3,7.51-9.54,13.43-9.54
													l81.92,0.27c5.83,0,11.84,4.33,13.34,9.46l21.65,72.82C183.45,219.81,177.44,224.14,168.43,224.14z"/>
											</defs>
											<clipPath id="SVGID_31_">
												<use xlink:href="#SVGID_30_"  style="overflow:visible;"/>
											</clipPath>
											<g class="st20">
												<polygon class="st16" points="132.38,161.22 105.6,157.6 106.66,152.91 129.72,156.09 155,132.68 159.68,136.12 
																									"/>
											</g>
										</g>
									</g>
								</g>
							</g>
							<g>
								<g>
									<g>
										<g>
											<defs>
												<path id="SVGID_32_" d="M168.43,224.14H43.03c-8.93,0-14.93-4.24-13.34-9.46l21.83-73.08c1.5-5.3,7.51-9.54,13.43-9.54
													l81.92,0.27c5.83,0,11.84,4.33,13.34,9.46l21.65,72.82C183.45,219.81,177.44,224.14,168.43,224.14z"/>
											</defs>
											<clipPath id="SVGID_33_">
												<use xlink:href="#SVGID_32_"  style="overflow:visible;"/>
											</clipPath>
											<g class="st21">
												<polygon class="st16" points="167.02,163.96 146.87,143.81 151.2,141.34 171.7,161.57 												"/>
											</g>
										</g>
									</g>
								</g>
							</g>
							<g>
								<g>
									<g>
										<g>
											<defs>
												<path id="SVGID_34_" d="M168.43,224.14H43.03c-8.93,0-14.93-4.24-13.34-9.46l21.83-73.08c1.5-5.3,7.51-9.54,13.43-9.54
													l81.92,0.27c5.83,0,11.84,4.33,13.34,9.46l21.65,72.82C183.45,219.81,177.44,224.14,168.43,224.14z"/>
											</defs>
											<clipPath id="SVGID_35_">
												<use xlink:href="#SVGID_34_"  style="overflow:visible;"/>
											</clipPath>
											<g class="st22">
												<polygon class="st16" points="154.91,183.49 150.49,179.42 170.02,170.06 174.62,174.12 												"/>
											</g>
										</g>
									</g>
								</g>
							</g>
							<g>
								<g>
									<g>
										<g>
											<defs>
												<path id="SVGID_36_" d="M168.43,224.14H43.03c-8.93,0-14.93-4.24-13.34-9.46l21.83-73.08c1.5-5.3,7.51-9.54,13.43-9.54
													l81.92,0.27c5.83,0,11.84,4.33,13.34,9.46l21.65,72.82C183.45,219.81,177.44,224.14,168.43,224.14z"/>
											</defs>
											<clipPath id="SVGID_37_">
												<use xlink:href="#SVGID_36_"  style="overflow:visible;"/>
											</clipPath>
											<g class="st23">
												<polygon class="st16" points="29.16,187.38 27.39,183.13 63.18,171.03 106.04,169.97 106.22,174.74 63.98,175.8 
																									"/>
											</g>
										</g>
									</g>
								</g>
							</g>
							<g>
								<g>
									<g>
										<g>
											<defs>
												<path id="SVGID_38_" d="M168.43,224.14H43.03c-8.93,0-14.93-4.24-13.34-9.46l21.83-73.08c1.5-5.3,7.51-9.54,13.43-9.54
													l81.92,0.27c5.83,0,11.84,4.33,13.34,9.46l21.65,72.82C183.45,219.81,177.44,224.14,168.43,224.14z"/>
											</defs>
											<clipPath id="SVGID_39_">
												<use xlink:href="#SVGID_38_"  style="overflow:visible;"/>
											</clipPath>
											<g class="st24">
												<polygon class="st16" points="98.71,200.01 28.36,200.01 29.87,195.24 98.88,195.33 												"/>
											</g>
										</g>
									</g>
								</g>
							</g>
							<g>
								<g>
									<g>
										<g>
											<defs>
												<path id="SVGID_40_" d="M168.43,224.14H43.03c-8.93,0-14.93-4.24-13.34-9.46l21.83-73.08c1.5-5.3,7.51-9.54,13.43-9.54
													l81.92,0.27c5.83,0,11.84,4.33,13.34,9.46l21.65,72.82C183.45,219.81,177.44,224.14,168.43,224.14z"/>
											</defs>
											<clipPath id="SVGID_41_">
												<use xlink:href="#SVGID_40_"  style="overflow:visible;"/>
											</clipPath>
											<g class="st25">
												<polygon class="st16" points="38.88,226.08 30.66,226.08 38.79,198.07 46.04,198.07 												"/>
											</g>
										</g>
									</g>
								</g>
							</g>
							<g>
								<g>
									<g>
										<g>
											<defs>
												<path id="SVGID_42_" d="M168.43,224.14H43.03c-8.93,0-14.93-4.24-13.34-9.46l21.83-73.08c1.5-5.3,7.51-9.54,13.43-9.54
													l81.92,0.27c5.83,0,11.84,4.33,13.34,9.46l21.65,72.82C183.45,219.81,177.44,224.14,168.43,224.14z"/>
											</defs>
											<clipPath id="SVGID_43_">
												<use xlink:href="#SVGID_42_"  style="overflow:visible;"/>
											</clipPath>
											<g class="st26">
												<polygon class="st16" points="70.96,224.76 62.74,224.76 67.16,198.07 74.49,198.16 												"/>
											</g>
										</g>
									</g>
								</g>
							</g>
							<g>
								<g>
									<g>
										<g>
											<defs>
												<path id="SVGID_44_" d="M168.43,224.14H43.03c-8.93,0-14.93-4.24-13.34-9.46l21.83-73.08c1.5-5.3,7.51-9.54,13.43-9.54
													l81.92,0.27c5.83,0,11.84,4.33,13.34,9.46l21.65,72.82C183.45,219.81,177.44,224.14,168.43,224.14z"/>
											</defs>
											<clipPath id="SVGID_45_">
												<use xlink:href="#SVGID_44_"  style="overflow:visible;"/>
											</clipPath>
											<g class="st27">
												<polygon class="st16" points="123.8,227.14 109.31,210.09 109.49,224.76 101.36,224.76 101.98,189.32 131.05,225.11 
																									"/>
											</g>
										</g>
									</g>
								</g>
							</g>
							<g>
								<g>
									<g>
										<g>
											<defs>
												<path id="SVGID_46_" d="M168.43,224.14H43.03c-8.93,0-14.93-4.24-13.34-9.46l21.83-73.08c1.5-5.3,7.51-9.54,13.43-9.54
													l81.92,0.27c5.83,0,11.84,4.33,13.34,9.46l21.65,72.82C183.45,219.81,177.44,224.14,168.43,224.14z"/>
											</defs>
											<clipPath id="SVGID_47_">
												<use xlink:href="#SVGID_46_"  style="overflow:visible;"/>
											</clipPath>
											<g class="st28">
												<polygon class="st29" points="162.86,227.94 112.67,204.17 117.26,200.54 167.28,224.31 												"/>
											</g>
										</g>
									</g>
								</g>
							</g>
							<g>
								<g>
									<g>
										<g>
											<defs>
												<path id="SVGID_48_" d="M168.43,224.14H43.03c-8.93,0-14.93-4.24-13.34-9.46l21.83-73.08c1.5-5.3,7.51-9.54,13.43-9.54
													l81.92,0.27c5.83,0,11.84,4.33,13.34,9.46l21.65,72.82C183.45,219.81,177.44,224.14,168.43,224.14z"/>
											</defs>
											<clipPath id="SVGID_49_">
												<use xlink:href="#SVGID_48_"  style="overflow:visible;"/>
											</clipPath>
											<g class="st30">
												<polygon class="st29" points="101.53,199.48 40.38,159.27 45.42,155.65 106.31,195.86 												"/>
											</g>
										</g>
									</g>
								</g>
							</g>
							<g>
								<g>
									<g>
										<g>
											<defs>
												<path id="SVGID_50_" d="M168.43,224.14H43.03c-8.93,0-14.93-4.24-13.34-9.46l21.83-73.08c1.5-5.3,7.51-9.54,13.43-9.54
													l81.92,0.27c5.83,0,11.84,4.33,13.34,9.46l21.65,72.82C183.45,219.81,177.44,224.14,168.43,224.14z"/>
											</defs>
											<clipPath id="SVGID_51_">
												<use xlink:href="#SVGID_50_"  style="overflow:visible;"/>
											</clipPath>
											<path class="st31" d="M124.69,198.51c0.53,6.72-7.95,12.2-18.91,12.2s-19.44-5.48-18.91-12.2
												c0.53-6.72,9.01-12.2,18.91-12.2C115.67,186.32,124.16,191.79,124.69,198.51z"/>
										</g>
									</g>
								</g>
							</g>
							<g>
								<g>
									<g>
										<g>
											<defs>
												<path id="SVGID_52_" d="M168.43,224.14H43.03c-8.93,0-14.93-4.24-13.34-9.46l21.83-73.08c1.5-5.3,7.51-9.54,13.43-9.54
													l81.92,0.27c5.83,0,11.84,4.33,13.34,9.46l21.65,72.82C183.45,219.81,177.44,224.14,168.43,224.14z"/>
											</defs>
											<clipPath id="SVGID_53_">
												<use xlink:href="#SVGID_52_"  style="overflow:visible;"/>
											</clipPath>
											<path class="st32" d="M105.78,213.09c-13.26,0-23.33-6.54-22.53-14.58c0.8-8.04,10.87-14.58,22.62-14.58
												c11.66,0,21.83,6.54,22.53,14.58C129.11,206.55,118.94,213.09,105.78,213.09z M105.78,188.7
												c-8.04,0-14.93,4.42-15.29,9.81c-0.35,5.39,6.45,9.81,15.2,9.81s15.55-4.42,15.29-9.81
												C120.62,193.12,113.82,188.7,105.78,188.7z"/>
										</g>
									</g>
								</g>
							</g>
							<g>
								<g>
									<g>
										<g>
											<defs>
												<path id="SVGID_54_" d="M168.43,224.14H43.03c-8.93,0-14.93-4.24-13.34-9.46l21.83-73.08c1.5-5.3,7.51-9.54,13.43-9.54
													l81.92,0.27c5.83,0,11.84,4.33,13.34,9.46l21.65,72.82C183.45,219.81,177.44,224.14,168.43,224.14z"/>
											</defs>
											<clipPath id="SVGID_55_">
												<use xlink:href="#SVGID_54_"  style="overflow:visible;"/>
											</clipPath>
											<g class="st33">
												<polygon class="st16" points="35.88,162.46 36.14,157.77 105.07,146.37 106.31,150.97 												"/>
											</g>
										</g>
									</g>
								</g>
							</g>
						</g>
					</g>
				</g>
			</g>
		</g>
		<path class="st34" d="M105.16,84.34c-22.8,0-41.36,18.56-41.36,41.36c0,28.28,37.03,69.81,38.53,71.58c1.5,1.68,4.07,1.68,5.57,0
			c1.59-1.77,38.53-43.3,38.53-71.58C146.43,102.89,127.96,84.34,105.16,84.34z"/>
		<path class="st35" d="M42.86,169.79c-7.78,0-14.14,6.36-14.14,14.14c0,9.72,12.64,23.95,13.26,24.57c0.53,0.53,1.41,0.53,1.86,0
			c0.53-0.62,13.26-14.85,13.26-24.57C57.08,176.15,50.72,169.79,42.86,169.79z"/>
		<path class="st36" d="M167.9,135.06c-7.78,0-14.14,6.36-14.14,14.14c0,9.72,12.64,23.95,13.26,24.57c0.53,0.53,1.41,0.53,1.86,0
			c0.53-0.62,13.26-14.85,13.26-24.57C182.04,141.42,175.77,135.06,167.9,135.06z"/>
		<path class="st37" d="M146.51,178.98c-7.78,0-14.14,6.36-14.14,14.14c0,9.72,12.64,23.95,13.26,24.57c0.53,0.53,1.41,0.53,1.86,0
			c0.53-0.62,13.26-14.85,13.26-24.57C160.65,185.34,154.29,178.98,146.51,178.98z"/>
		<g>
			<g>
				<path class="st16" d="M152.79,191.44c-1.68-2.39-3.8-1.86-5.13-1.5c-0.18,0-0.27,0.09-0.44,0.09c0.18-1.5,0.97-2.65,2.39-3.53
					l-0.62-0.97c-0.8,0.44-1.41,0.97-1.86,1.59c-0.18-0.53-0.44-1.06-0.8-1.41c-0.71-0.71-1.77-1.06-3.18-1.06h-0.53v0.53
					c0,1.41,0.35,2.47,1.06,3.18c0.62,0.62,1.41,0.97,2.47,1.06c0,0.18-0.09,0.35-0.09,0.53c-0.18,0-0.35-0.09-0.53-0.09
					c-1.41-0.35-3.45-0.88-5.13,1.5c-0.8,1.15-1.06,2.74-0.71,4.51c0.44,2.12,1.68,4.33,2.92,5.13c1.5,0.97,2.74,0.53,3.53,0.27
					c0.18-0.09,0.44-0.18,0.53-0.18s0.35,0.09,0.53,0.18c0.44,0.18,0.97,0.35,1.59,0.35c0.53,0,1.24-0.18,1.86-0.62
					c1.24-0.8,2.47-3,2.92-5.13C153.85,194.18,153.58,192.68,152.79,191.44z"/>
			</g>
		</g>
		<g>
			<g>
				<path class="st16" d="M162.07,147.26c0.18,0.09,0.71,0.53,1.68,1.15c0.88,0.62,1.59,1.15,2.12,1.5c0.09,0,0.18,0.09,0.35,0.27
					c0.18,0.09,0.35,0.27,0.44,0.27c0.09,0.09,0.27,0.18,0.44,0.27c0.18,0.09,0.35,0.18,0.44,0.18c0.18,0.09,0.27,0.09,0.44,0.09
					l0,0l0,0c0.09,0,0.27,0,0.44-0.09c0.18-0.09,0.27-0.09,0.44-0.18c0.18-0.09,0.27-0.18,0.44-0.27c0.09-0.09,0.27-0.18,0.44-0.27
					c0.18-0.09,0.27-0.18,0.35-0.27c0.53-0.35,1.77-1.24,3.8-2.65c0.35-0.27,0.71-0.62,0.97-0.97c0.27-0.35,0.35-0.8,0.35-1.24
					c0-0.35-0.09-0.62-0.35-0.88c-0.27-0.27-0.53-0.35-0.88-0.35h-11.84c-0.44,0-0.71,0.18-0.97,0.44
					c-0.27,0.27-0.35,0.62-0.35,1.06c0,0.35,0.18,0.71,0.44,1.06C161.45,146.73,161.71,146.99,162.07,147.26z"/>
				<path class="st16" d="M174.26,148.05c-1.77,1.15-3.09,2.12-3.98,2.74c-0.27,0.27-0.53,0.44-0.71,0.53
					c-0.18,0.09-0.44,0.27-0.8,0.35c-0.35,0.09-0.62,0.18-0.88,0.18l0,0l0,0c-0.27,0-0.53-0.09-0.88-0.18
					c-0.35-0.09-0.53-0.27-0.8-0.35c-0.18-0.09-0.44-0.27-0.71-0.53c-0.71-0.53-2.03-1.41-3.98-2.74c-0.27-0.18-0.62-0.44-0.8-0.71
					v6.36c0,0.35,0.09,0.62,0.35,0.88s0.53,0.35,0.88,0.35h11.84c0.35,0,0.62-0.09,0.88-0.35s0.35-0.53,0.35-0.88v-6.36
					C174.88,147.61,174.62,147.87,174.26,148.05z"/>
			</g>
		</g>
		<path class="st16" d="M45.24,192.24h-4.77c-0.27,0-0.44-0.18-0.44-0.44v-4.33h-4.42c-0.27,0-0.44-0.18-0.44-0.44v-4.77
			c0-0.27,0.18-0.44,0.44-0.44h4.33v-4.33c0-0.27,0.18-0.44,0.44-0.44h4.77c0.27,0,0.44,0.18,0.44,0.44v4.33h4.33
			c0.27,0,0.44,0.18,0.44,0.44v4.77c0,0.27-0.18,0.44-0.44,0.44H45.6v4.33C45.68,192.06,45.51,192.24,45.24,192.24z"/>
		<circle class="st16" cx="105.33" cy="126.31" r="28.72"/>
		<path class="st34" d="M124.86,110.76c-0.44-0.97-0.97-1.5-2.12-2.3c-0.97-0.71-2.47-0.35-3.27,0.44
			c-4.15,4.07-8.13,8.4-11.75,12.9c-1.77,2.21-4.33,4.86-5.92,7.69c-0.8-0.62-1.5-1.24-2.21-1.86c-2.3-2.12-4.77-4.77-7.69-6.1
			c-2.39-1.15-4.15-0.09-5.66,1.86c-0.44,0.62-0.97,1.59-0.97,2.39c-0.62,0.62-0.8,1.68,0,2.65c5.04,6.19,11.31,11.05,17.94,15.46
			c0.88,0.62,2.56,0.44,3.27-0.44c7.16-9.1,13.87-19.18,19.71-29.16C127.25,112.53,126.19,111.11,124.86,110.76z"/>
	</g>
	<g>
		<path class="st36" d="M290.84,153.46c2.46,2.28,4.91,5.44,3.68,9.29c-2.1,4.56-6.31,4.38-9.82,4.03H284
			c-0.88-0.17-1.75-0.17-2.46-0.17c-6.49,0-13.5,0.17-20.34,0.35c-4.91,0.17-11.57,0.17-15.96,0.17c-3.86,0-6.31,0-9.29-0.17
			c-0.17,1.4-0.17,3.33-0.17,4.91c0,1.05-0.18,1.75-0.18,2.8c0,1.23-0.17,2.46-0.17,3.68c0,2.28,0,4.21-0.17,5.79
			c8.94-0.35,17.01-0.53,25.07-0.53c6.49,0,13.33,0,19.46,0.53c4.03,0.88,6.66,5.44,6.66,10.17c0,1.93-0.35,4.03-1.75,5.96
			c-7.72-0.53-16.66-1.05-24.72-1.05c-8.77,0-17.53,0.35-25.78,2.1v11.75c0,2.46,0.17,3.86,0,6.49c6.49,0.18,12.27,0.35,19.29,0.35
			c12.45,0,25.78-0.35,39.98-1.05c0.7,0,1.75-0.18,2.98-0.35c3.51-0.35,6.84-0.7,9.64,1.75c1.58,4.91-0.18,11.22-2.98,12.98
			c-12.45,0-26.83,0.18-40.15,1.05c-3.16,0.17-6.66,0.35-9.82,0.35c-1.75,0-3.51,0.17-5.08,0.17c-5.61,0.18-12.1,0.35-18.59,0.88
			c-1.05-1.05-1.58-1.23-2.1-1.4c-0.17,0-0.7-0.35-0.7-0.35c-0.18,0-0.7-0.18-0.88-0.18c-1.75-0.7-3.68-1.58-4.38-2.28
			c-0.7-1.4-0.88-4.21-0.88-7.01c0-1.93,0.18-4.91,0.35-6.84v-0.88c-0.17-11.57,0.53-23.67,1.23-34.02l0.88-20.34
			c-2.98-4.73,0-10.7,4.56-11.57c9.12,0.88,18.24,1.05,27.18,1.05h7.01c2.46,0,4.56-0.18,7.01-0.18c5.79-0.17,15.08-0.17,20.16-0.17
			L290.84,153.46z"/>
		<path class="st36" d="M337.72,217.11c7.36-0.18,14.73-0.7,22.44-1.4c9.99-0.88,21.39-1.58,31.74-1.58c3.33,0,7.19,0,10.17,0.17
			c3.86,0.53,6.84,5.44,6.84,9.64c0,2.1-0.88,4.03-2.81,6.49c-2.1-0.18-4.03-0.18-5.96-0.18c-2.45,0-3.68-0.17-5.61-0.53
			c-2.1,0.7-3.68,0.7-5.61,0c-13.5,0.88-29.28,1.75-38.93,2.8c-1.23,0.18-2.28,0.35-3.51,0.7l-2.1,0.7
			c-1.75,0.17-3.33,0.17-5.44,0.17c-1.75,0-3.33,0-5.09,0.18l-1.93,0.35c-1.93,0.35-4.38,0.53-6.49,0.53
			c-1.75,0-3.68-0.17-5.96-0.88c-0.35-0.53-0.7-1.05-2.81-0.88c-0.35-1.75-0.88-3.51-1.58-4.91c-0.88-2.63-1.75-5.26-0.88-8.94
			c3.51-6.84,12.8-14.38,20.34-18.76l5.96-4.03l4.56-3.68c5.79-4.21,11.4-8.77,18.94-12.45c3.33-3.68,7.89-7.54,11.92-10.34
			c1.23-1.05,3.33-2.63,4.91-4.21l1.05-0.88c-4.56,0.18-10.52,0.7-14.9,1.05l-9.47,0.53c-11.57,0.7-24.72,1.23-34.72,1.58
			c-1.05,0-2.1-0.7-2.81-1.05h-1.58c-2.28-3.33-4.91-8.07-3.16-13.33l19.11-0.88c7.19-0.18,14.2-0.53,21.22-0.88l21.39-1.05
			c3.33-0.18,9.29-0.35,14.2-0.35h7.19c3.16,2.98,8.24,8.42,6.31,14.9c0.18,2.1-1.05,1.93-31.39,25.07l-15.26,11.4
			C350.7,207.47,345.08,211.5,337.72,217.11z"/>
		<path class="st36" d="M413.74,213.61c-1.4-4.91-1.93-9.99-1.93-14.73c0-14.73,5.44-28.93,14.2-38.05
			c1.93-0.53,2.63-1.05,3.51-1.75h-0.18l0.35-0.18l1.58-1.05h-0.17l3.16-2.28c4.91-1.75,11.4-2.28,17.53-2.8l3.86-0.35
			c2.46-0.35,5.79-0.35,8.07-0.35c8.07,0,15.78,1.05,22.09,2.28l3.16,2.28c0.18,0.18,0.88,0.53,2.63,1.23l1.58,2.1
			c6.14,7.19,15.08,17.53,16.13,29.28c0.7,8.07-0.7,15.78-1.58,21.74c0,0.17-0.7,1.23-1.05,1.58c-0.18,0.35-0.53,0.35-0.53,0.88
			c-2.1,3.51-4.03,6.84-5.61,8.77l-2.63,2.45c-0.35,0.35-0.88,0.53-1.23,0.7l-4.21,4.21c-9.47,4.56-20.16,6.31-30.86,6.31
			c-8.07,0-16.13-0.88-23.85-2.1c-11.05-2.98-18.94-8.42-22.79-18.59c-0.35,0-0.7-0.35-0.7-1.05c0,0-0.18,0.17,0-0.18L413.74,213.61
			z M436.53,172.05c1.05-0.35-0.7,1.4-2.1,2.81l-1.58,1.58v-0.17c-5.08,6.66-8.42,15.43-8.42,24.9c0,2.98,0.53,7.19,1.4,10.7
			c0.88,0.53,1.4,1.4,1.93,2.63c6.84,4.56,18.41,7.36,29.46,7.36c10.87,0,22.44-2.98,29.28-7.72h-0.18
			c5.79-5.79,9.82-19.29,9.99-30.86c-0.53-2.28-1.75-4.73-2.98-7.01l-0.35-0.88c-0.17-0.17-0.35-0.35-0.35-0.53
			c-5.08-4.38-12.45-7.72-21.57-8.07C460.73,166.61,446,166.79,436.53,172.05z M507.72,210.98c0.17,0,0.17,0.17,0,0.35V210.98z"/>
		<path class="st35" d="M606.51,150.66c5.79,3.33,14.38,11.22,14.38,18.94c0,2.28-0.7,4.56-2.45,6.84c-2.81,1.23-7.01-0.17-9.12-1.4
			l-0.53-4.03c-0.18-2.1-0.7-4.03-1.4-5.26l-2.8-1.05c-0.18,0-0.53-0.18-1.05-0.7c-4.91,0.53-10.17,0.7-14.9,0.88
			c-11.05,0.35-22.79,1.58-32.61,5.79l-4.21,4.21c0,0.35-0.18,0.88-0.35,1.4c0.17-0.18,0.35-0.35,0.7-0.18
			c-1.23,6.14,7.19,5.96,14.38,5.79h2.63c2.1,0,4.73,0,6.31,0.17c5.09,0.53,11.22,0.88,16.83,1.23l9.29,0.53
			c2.63,1.05,6.31,2.1,10.17,2.8c9.12,3.86,15.08,14.2,15.08,24.72c0,4.56-1.23,9.64-3.86,13.85c-9.29,8.77-24.72,10.17-38.58,10.87
			c-4.03-0.53-7.72-0.88-11.4-1.23c-0.88,0-1.93-0.17-2.8-0.17c-6.66-0.53-14.03-1.23-20.16-3.16c-4.73-3.16-8.77-9.99-8.77-17.71
			c0-2.1,0.35-4.56,1.4-7.19c8.59-2.63,11.05,3.68,12.98,9.29c0.17,0.7,0.35,1.4,0.35,1.58c7.89,1.75,17.53,2.8,26.48,2.8
			c7.54,0,16.13-1.05,22.79-3.16h-0.18l1.58-0.7v0.17c3.16-1.75,6.49-3.51,8.07-6.66l-0.18,0.17c0.7-2.63,0.18-5.96-1.23-7.19
			c-6.49-3.86-15.61-4.73-23.85-5.26l-7.54-0.53c-2.98-0.17-7.36-0.35-9.99-0.35c-8.42-0.18-16.31-0.35-23.85-3.86l-0.18-0.7
			c-0.17,0-0.7,0-1.93-0.88c-3.86-3.86-6.14-10.7-6.14-17.53c0-5.08,1.58-10.17,4.56-13.85c4.73-5.44,14.55-8.42,22.44-9.47
			c7.36-1.05,15.08-1.05,21.22-1.05c4.91,0,9.99,0,15.08-0.35l2.63,1.4L606.51,150.66z"/>
		<path class="st35" d="M687.16,154.69c0,1.4,0.7,3.33,1.75,5.44l0.7,1.93l-0.17-0.18c4.38,7.89,8.77,15.43,13.5,23.15l2.8,5.09
			v-0.18c6.84,11.75,13.33,23.32,19.11,37c0,0-0.35,1.58-0.53,2.63c0,0.35-0.17,1.23-0.17,1.58c-2.1,1.4-4.73,2.63-7.54,2.98
			c-2.98-1.93-3.68-2.28-5.26-1.93l-5.79-11.4l-3.51-7.01l-2.98-5.96h-5.44c-11.22,0-24.55,0.35-36.47,0.7
			c-2.63,3.68-3.68,5.61-4.91,7.89c-3.16,5.96-4.03,7.36-4.91,8.59c-1.23,1.4-2.1,2.63-3.86,6.14h0.18
			c-0.53,1.23-1.23,2.63-2.98,4.03c-5.26,0.7-9.12-3.68-11.4-7.01l1.4-3.33c0.88-2.1,1.75-4.21,4.03-5.79l-0.18,0.35
			c8.07-14.73,17.01-29.98,25.95-44.71l5.96-9.47l-0.17,0.18c0.53-1.23,1.4-2.28,1.75-3.51v0.18c0-0.18,0.17-0.18,0.17-0.53
			c0-0.17,0.53,1.4-0.35-3.86c1.05,0.35,3.68-1.23,3.33-1.93c0.53-0.88,1.05-1.4,1.58-1.4c0-0.53,0.18-0.88,0.53-1.93l2.1-0.35
			c1.4-0.53,3.16-0.88,5.26-0.88c2.1,0,4.21,0.53,6.31,2.1L687.16,154.69z M667.69,192.04c5.08-1.23,13.33,1.05,17.53,0h4.91
			c-2.63-5.61-5.09-10.87-8.24-16.48l-2.63-4.21c-1.75,3.33-4.03,7.36-6.31,11.05v-0.17c-0.7,1.23-1.75,2.63-2.46,4.03
			L667.69,192.04z M667.69,192.04"/>
		<path class="st35" d="M806.2,217.29l2.63,2.98c2.81,2.81,5.44,6.84,4.38,12.63c-2.63,2.81-4.73,2.28-7.19,1.58
			c-0.18,0-0.53-0.17-0.7-0.17l-2.46-0.53c-2.1-0.35-4.73-0.35-6.84-0.35c-2.8,0-5.96,0-9.29,0.17c-2.63,0.17-6.66,0.35-9.29,0.35
			c-3.16,0-7.19-0.18-10.17-0.53c-6.84,0.53-16.48,0.7-24.2,0.7h-1.05c-2.28-0.17-4.91-0.35-6.49-1.93l-1.58-2.1v0.17
			c-0.88-0.88-1.75-2.28-1.93-3.33l0.17,0.18c-0.53-1.05-0.53-1.93-0.53-2.63c0-0.35,0-1.05-0.53-1.75v0.17
			c-0.88-0.88-1.23-1.23-1.4-3.16c-0.18-1.4,0-2.28,0.17-2.81c0-0.35,0-0.53,0.35-0.88v0.18c0-0.18,0.18-0.18,0.18-0.53v-5.79
			c-0.18-1.75-0.18-5.26,0-7.01v-1.93c0-0.88,0.17-1.93,0.17-2.63l0.35-9.99c0.35-8.77,0.7-18.41,0.7-27.35
			c0-1.58-0.18-3.16-0.18-4.73v-4.21c1.93-2.46,3.86-3.51,5.96-3.51c3.16,0,6.31,1.4,8.24,3.51c1.05,1.93,1.23,4.03,1.4,6.66
			l0.53,3.86c-1.23,18.24-1.58,36.12-1.58,54.71H806.2z"/>
		<path class="st35" d="M878.36,154.69c0,1.4,0.7,3.33,1.75,5.44l0.7,1.93l-0.17-0.18c4.38,7.89,8.77,15.43,13.5,23.15l2.8,5.09
			v-0.18c6.84,11.75,13.33,23.32,19.11,37c0,0-0.35,1.58-0.53,2.63c0,0.35-0.17,1.23-0.17,1.58c-2.1,1.4-4.73,2.63-7.54,2.98
			c-2.98-1.93-3.68-2.28-5.26-1.93l-5.79-11.4l-3.51-7.01l-2.98-5.96h-5.44c-11.22,0-24.55,0.35-36.47,0.7
			c-2.63,3.68-3.68,5.61-4.91,7.89c-3.16,5.96-4.03,7.36-4.91,8.59c-1.23,1.4-2.1,2.63-3.86,6.14h0.18
			c-0.53,1.23-1.23,2.63-2.98,4.03c-5.26,0.7-9.12-3.68-11.4-7.01l1.4-3.33c0.88-2.1,1.75-4.21,4.03-5.79l-0.18,0.35
			c8.07-14.73,17.01-29.98,25.95-44.71l5.96-9.47l-0.17,0.18c0.53-1.23,1.4-2.28,1.75-3.51v0.18c0-0.18,0.17-0.18,0.17-0.53
			c0-0.17,0.53,1.4-0.35-3.86c1.05,0.35,3.68-1.23,3.33-1.93c0.53-0.88,1.05-1.4,1.58-1.4c0-0.53,0.18-0.88,0.53-1.93l2.1-0.35
			c1.4-0.53,3.16-0.88,5.26-0.88c2.1,0,4.21,0.53,6.31,2.1L878.36,154.69z M858.9,192.04c5.08-1.23,13.33,1.05,17.53,0h4.91
			c-2.63-5.61-5.09-10.87-8.24-16.48l-2.63-4.21c-1.75,3.33-4.03,7.36-6.31,11.05v-0.17c-0.7,1.23-1.75,2.63-2.46,4.03L858.9,192.04
			z M858.9,192.04"/>
	</g>
	<g>
		<path class="st37" d="M245.96,100.07c0,0.61,0.31,1.45,0.76,2.37l0.31,0.84l-0.08-0.08c1.91,3.44,3.82,6.72,5.88,10.08l1.22,2.21
			v-0.08c2.98,5.12,5.8,10.16,8.32,16.11c0,0-0.15,0.69-0.23,1.15c0,0.15-0.08,0.53-0.08,0.69c-0.92,0.61-2.06,1.15-3.28,1.3
			c-1.3-0.84-1.6-0.99-2.29-0.84l-2.52-4.96l-1.53-3.05l-1.3-2.6h-2.37c-4.89,0-10.69,0.15-15.88,0.31c-1.15,1.6-1.6,2.44-2.14,3.44
			c-1.37,2.6-1.76,3.21-2.14,3.74c-0.53,0.61-0.92,1.15-1.68,2.67h0.08c-0.23,0.53-0.53,1.15-1.3,1.76
			c-2.29,0.31-3.97-1.6-4.96-3.05l0.61-1.45c0.38-0.92,0.76-1.83,1.76-2.52l-0.08,0.15c3.51-6.41,7.41-13.06,11.3-19.47l2.6-4.12
			l-0.08,0.08c0.23-0.53,0.61-0.99,0.76-1.53v0.08c0-0.08,0.08-0.08,0.08-0.23c0-0.08,0.23,0.61-0.15-1.68
			c0.46,0.15,1.6-0.53,1.45-0.84c0.23-0.38,0.46-0.61,0.69-0.61c0-0.23,0.08-0.38,0.23-0.84l0.92-0.15
			c0.61-0.23,1.37-0.38,2.29-0.38c0.92,0,1.83,0.23,2.75,0.92L245.96,100.07z M237.48,116.34c2.21-0.53,5.8,0.46,7.64,0h2.14
			c-1.15-2.44-2.21-4.73-3.59-7.18l-1.15-1.83c-0.76,1.45-1.76,3.21-2.75,4.81v-0.08c-0.31,0.53-0.76,1.15-1.07,1.76L237.48,116.34z
			 M237.48,116.34"/>
		<path class="st37" d="M306.59,100.15c0.15,0.08,0.38,0.23,0.53,0.46c1.15,1.83-0.08,5.12-1.37,5.96c-2.6,0-5.04,0-7.33-0.08h-2.52
			c-0.99,0-1.83-0.08-2.44-0.08c-1.6,0-2.98,0.08-4.43,0.15h-0.15c-0.08,1.45-0.08,2.75-0.08,4.28v1.6c0,2.67,0,5.35,0.08,8.17
			c0.08,2.98,0.08,6.03,0.08,8.86v0.61c0,0.23,0.08,0.38,0.08,0.53c0.08,1.22,0,2.75-0.99,4.05c-1.3,0.53-3.89,0.46-5.19-0.46
			c-0.53-2.6-0.69-5.8-0.69-9.24c0-1.99,0.08-3.97,0.15-5.96v-0.38c0-0.31,0.08-0.69,0.08-1.07v-0.92c0.15-2.98-0.15-6.03-0.46-8.78
			l-0.15-1.15c-0.84-0.23-1.76-0.15-2.67-0.15c-1.37,0-2.67,0.08-4.12,0.23c-1.53,0.15-2.98,0.23-4.43,0.23
			c-1.37,0-2.52-0.08-3.59-0.31c-1.83-1.91-1.91-3.89-1.83-6.34c0.69-0.38,1.07-0.61,1.22-0.99c2.83,0.15,6.19,0.15,9.01,0.15
			c2.83,0,5.8,0,8.63-0.08c3.51-0.08,6.95-0.08,10.31-0.08h3.89c2.83,0,4.73,0,8.09,0.31L306.59,100.15z"/>
		<path class="st37" d="M333.46,100.07c0,0.61,0.31,1.45,0.76,2.37l0.31,0.84l-0.08-0.08c1.91,3.44,3.82,6.72,5.88,10.08l1.22,2.21
			v-0.08c2.98,5.12,5.8,10.16,8.32,16.11c0,0-0.15,0.69-0.23,1.15c0,0.15-0.08,0.53-0.08,0.69c-0.92,0.61-2.06,1.15-3.28,1.3
			c-1.3-0.84-1.6-0.99-2.29-0.84l-2.52-4.96l-1.53-3.05l-1.3-2.6h-2.37c-4.89,0-10.69,0.15-15.88,0.31c-1.15,1.6-1.6,2.44-2.14,3.44
			c-1.37,2.6-1.76,3.21-2.14,3.74c-0.53,0.61-0.92,1.15-1.68,2.67h0.08c-0.23,0.53-0.53,1.15-1.3,1.76
			c-2.29,0.31-3.97-1.6-4.96-3.05l0.61-1.45c0.38-0.92,0.76-1.83,1.76-2.52l-0.08,0.15c3.51-6.41,7.41-13.06,11.3-19.47l2.6-4.12
			l-0.08,0.08c0.23-0.53,0.61-0.99,0.76-1.53v0.08c0-0.08,0.08-0.08,0.08-0.23c0-0.08,0.23,0.61-0.15-1.68
			c0.46,0.15,1.6-0.53,1.45-0.84c0.23-0.38,0.46-0.61,0.69-0.61c0-0.23,0.08-0.38,0.23-0.84l0.92-0.15
			c0.61-0.23,1.37-0.38,2.29-0.38c0.92,0,1.83,0.23,2.75,0.92L333.46,100.07z M324.98,116.34c2.21-0.53,5.8,0.46,7.64,0h2.14
			c-1.15-2.44-2.21-4.73-3.59-7.18l-1.15-1.83c-0.76,1.45-1.76,3.21-2.75,4.81v-0.08c-0.31,0.53-0.76,1.15-1.07,1.76L324.98,116.34z
			 M324.98,116.34"/>
		<path class="st37" d="M403.51,120.77c1.37,1.53,2.98,3.13,4.66,4.43c0.08-0.99,0-2.14,0-3.28c0-2.06-0.08-4.35-0.15-6.41
			c0-0.76-0.08-1.6-0.08-2.37c-0.08-1.3-0.15-3.21-0.15-4.58c0-2.67,0.15-5.42,0.84-8.63l0.76-0.08h-0.15
			c0.92-0.38,1.83-0.76,2.9-0.76c0.69,0,1.45,0.23,2.44,0.76c0.99,1.37,1.07,3.21,1.07,5.04c0,0.69-0.08,1.37-0.08,1.99v5.42
			c0,1.15-0.08,2.37-0.08,3.67c0,5.27,0.15,10.61,0.46,15.12c0,0-0.23,0.84-0.23,1.22c0,0.08-0.08,0.23-0.08,0.31
			c0,0.69-0.08,1.3-0.46,1.91c-0.92,0.69-2.83,1.07-3.89,0.76c-6.87-4.89-12.68-11-18.48-17.26c-3.51-3.82-7.1-7.48-10.77-10.84
			c0,0.46-0.08,0.99-0.08,1.37v2.14c0,2.75,0.08,5.5,0.15,7.94c0.08,1.53,0.15,2.9,0.15,4.43c0,0.53-0.08,1.07-0.08,1.6v1.45
			c0,0.69-0.08,1.37-0.08,2.06v1.91c0,0.23,0.08,0.46,0.08,0.61v0.46c0.08,1.07,0.08,1.68-0.92,2.98l-0.38,0.15h0.08
			c-0.23,0.15-0.38,0.23-0.53,0.23c0,0,0.08,0-0.08,0.46c-2.52-0.31-4.2-1.45-5.34-3.21c0.15-2.6,0.23-5.35,0.23-7.87
			c0-4.5-0.15-9.01-0.38-13.82l-0.31-8.55l0.61-1.15c0.15-0.23,0.38-0.53,0.3-1.45c1.6-0.38,2.44-0.61,3.59-0.76l1.3-0.15l0.38,0.38
			c0.08,0.08,0.31,0.15,1.15,0.23c1.91,1.99,4.2,4.2,6.26,6.11l1.83,1.68h-0.08c1.91,1.91,4.2,4.05,5.88,6.03l6.72,7.03v-0.08
			c0.15,0.15,0.15,0.31,0.31,0.46l0.61,0.84L403.51,120.77z"/>
		<path class="st37" d="M442.14,100.07c0,0.61,0.31,1.45,0.76,2.37l0.31,0.84l-0.08-0.08c1.91,3.44,3.82,6.72,5.88,10.08l1.22,2.21
			v-0.08c2.98,5.12,5.8,10.16,8.32,16.11c0,0-0.15,0.69-0.23,1.15c0,0.15-0.08,0.53-0.08,0.69c-0.92,0.61-2.06,1.15-3.28,1.3
			c-1.3-0.84-1.6-0.99-2.29-0.84l-2.52-4.96l-1.53-3.05l-1.3-2.6h-2.37c-4.89,0-10.69,0.15-15.88,0.31c-1.15,1.6-1.6,2.44-2.14,3.44
			c-1.37,2.6-1.76,3.21-2.14,3.74c-0.53,0.61-0.92,1.15-1.68,2.67h0.08c-0.23,0.53-0.53,1.15-1.3,1.76
			c-2.29,0.31-3.97-1.6-4.96-3.05l0.61-1.45c0.38-0.92,0.76-1.83,1.76-2.52l-0.08,0.15c3.51-6.41,7.41-13.06,11.3-19.47l2.6-4.12
			l-0.08,0.08c0.23-0.53,0.61-0.99,0.76-1.53v0.08c0-0.08,0.08-0.08,0.08-0.23c0-0.08,0.23,0.61-0.15-1.68
			c0.46,0.15,1.6-0.53,1.45-0.84c0.23-0.38,0.46-0.61,0.69-0.61c0-0.23,0.08-0.38,0.23-0.84l0.92-0.15
			c0.61-0.23,1.37-0.38,2.29-0.38c0.92,0,1.83,0.23,2.75,0.92L442.14,100.07z M433.67,116.34c2.21-0.53,5.8,0.46,7.64,0h2.14
			c-1.15-2.44-2.21-4.73-3.59-7.18l-1.15-1.83c-0.76,1.45-1.76,3.21-2.75,4.81v-0.08c-0.31,0.53-0.76,1.15-1.07,1.76L433.67,116.34z
			 M433.67,116.34"/>
		<path class="st34" d="M513.37,109.24c-1.07-0.23-1.76-0.46-2.6-0.92v0.08c-0.99-0.38-1.99-0.84-3.21-0.99
			c-0.99-0.38-1.68-0.53-2.37-0.69c-0.92-0.15-1.76-0.31-2.44-0.69c-0.76-0.08-1.6-0.08-2.37-0.08c-4.2,0-9.01,1.6-11.84,3.44
			c-1.07,1.76-1.83,4.28-2.44,6.49l-0.23,1.15c0.15,5.5,2.6,8.93,6.19,10.77l-0.08-0.08c2.6,0.61,5.42,0.99,7.94,0.99
			c4.35,0,8.55-0.99,11.38-3.67c0.46,0,0.76,0,1.07-0.08c0.61-0.08,1.3-0.15,2.06-0.08c1.15,0.92,1.68,1.6,1.68,2.52
			c0,0.69-0.69,1.83-1.53,2.44l-2.6,1.91l-1.07,0.76h0.08c0,0-0.69,0.46-1.68,0.99c-3.36,1.07-6.41,1.45-10.16,1.45
			c-1.6,0-3.82-0.08-5.65-0.23c-1.68-0.61-3.05-1.07-3.97-1.22c-8.02-4.5-12.6-14.43-8.48-22.91v0.08c0.08-0.31,0.38-0.84,0.46-1.15
			l0.38-1.07c0.15-0.69-0.46,0.15,1.07-2.75c0.69-1.15,3.05-2.52,4.35-3.36c0.76-0.53,1.83-1.15,2.67-1.83l2.67-0.61l0.76-0.08
			c1.53-0.38,3.51-0.69,5.27-0.84c3.21-0.23,5.96,0.31,8.32,0.92l0.53,0.08h-0.08l2.98,0.76l0.38,0.31h-0.08
			c0.53,0.46,3.67,2.21,1.3,1.07c1.15,0.69,2.21,1.45,3.13,2.98c0.08,1.76,0.08,3.36-1.37,4.05L513.37,109.24z"/>
		<path class="st34" d="M519.33,125.73c-0.61-2.14-0.84-4.35-0.84-6.41c0-6.41,2.37-12.6,6.19-16.57c0.84-0.23,1.15-0.46,1.53-0.76
			h-0.08l0.15-0.08l0.69-0.46h-0.08l1.37-0.99c2.14-0.76,4.96-0.99,7.64-1.22l1.68-0.15c1.07-0.15,2.52-0.15,3.51-0.15
			c3.51,0,6.87,0.46,9.62,0.99l1.37,0.99c0.08,0.08,0.38,0.23,1.15,0.53l0.69,0.92c2.67,3.13,6.57,7.64,7.03,12.75
			c0.31,3.51-0.31,6.87-0.69,9.47c0,0.08-0.31,0.53-0.46,0.69c-0.08,0.15-0.23,0.15-0.23,0.38c-0.92,1.53-1.76,2.98-2.44,3.82
			l-1.15,1.07c-0.15,0.15-0.38,0.23-0.53,0.31l-1.83,1.83c-4.12,1.99-8.78,2.75-13.44,2.75c-3.51,0-7.03-0.38-10.38-0.92
			c-4.81-1.3-8.25-3.67-9.93-8.09c-0.15,0-0.31-0.15-0.31-0.46c0,0-0.08,0.08,0-0.08L519.33,125.73z M529.25,107.63
			c0.46-0.15-0.31,0.61-0.92,1.22l-0.69,0.69v-0.08c-2.21,2.9-3.67,6.72-3.67,10.84c0,1.3,0.23,3.13,0.61,4.66
			c0.38,0.23,0.61,0.61,0.84,1.15c2.98,1.99,8.02,3.21,12.83,3.21c4.73,0,9.77-1.3,12.75-3.36h-0.08c2.52-2.52,4.28-8.4,4.35-13.44
			c-0.23-0.99-0.76-2.06-1.3-3.05l-0.15-0.38c-0.08-0.08-0.15-0.15-0.15-0.23c-2.21-1.91-5.42-3.36-9.39-3.51
			C539.79,105.27,533.38,105.34,529.25,107.63z M560.26,124.59c0.08,0,0.08,0.08,0,0.15V124.59z"/>
		<path class="st34" d="M592.78,120.77c1.37,1.53,2.98,3.13,4.66,4.43c0.08-0.99,0-2.14,0-3.28c0-2.06-0.08-4.35-0.15-6.41
			c0-0.76-0.08-1.6-0.08-2.37c-0.08-1.3-0.15-3.21-0.15-4.58c0-2.67,0.15-5.42,0.84-8.63l0.76-0.08h-0.15
			c0.92-0.38,1.83-0.76,2.9-0.76c0.69,0,1.45,0.23,2.44,0.76c0.99,1.37,1.07,3.21,1.07,5.04c0,0.69-0.08,1.37-0.08,1.99v5.42
			c0,1.15-0.08,2.37-0.08,3.67c0,5.27,0.15,10.61,0.46,15.12c0,0-0.23,0.84-0.23,1.22c0,0.08-0.08,0.23-0.08,0.31
			c0,0.69-0.08,1.3-0.46,1.91c-0.92,0.69-2.83,1.07-3.89,0.76c-6.87-4.89-12.68-11-18.48-17.26c-3.51-3.82-7.1-7.48-10.77-10.84
			c0,0.46-0.08,0.99-0.08,1.37v2.14c0,2.75,0.08,5.5,0.15,7.94c0.08,1.53,0.15,2.9,0.15,4.43c0,0.53-0.08,1.07-0.08,1.6v1.45
			c0,0.69-0.08,1.37-0.08,2.06v1.91c0,0.23,0.08,0.46,0.08,0.61v0.46c0.08,1.07,0.08,1.68-0.92,2.98l-0.38,0.15h0.08
			c-0.23,0.15-0.38,0.23-0.53,0.23c0,0,0.08,0-0.08,0.46c-2.52-0.31-4.2-1.45-5.34-3.21c0.15-2.6,0.23-5.35,0.23-7.87
			c0-4.5-0.15-9.01-0.38-13.82l-0.31-8.55l0.61-1.15c0.15-0.23,0.38-0.53,0.3-1.45c1.6-0.38,2.44-0.61,3.59-0.76l1.3-0.15l0.38,0.38
			c0.08,0.08,0.31,0.15,1.15,0.23c1.91,1.99,4.2,4.2,6.26,6.11l1.83,1.68h-0.08c1.91,1.91,4.2,4.05,5.88,6.03l6.72,7.03v-0.08
			c0.15,0.15,0.15,0.31,0.31,0.46l0.61,0.84L592.78,120.77z"/>
		<path class="st34" d="M644.63,100.53c0.15,1.45-0.08,2.6-0.69,3.59c0,0.08-0.08,0.53-0.08,0.84c-4.58,0-9.77,0.15-14.13,0.31
			c-0.76,0-1.53,0.08-2.29,0.08c-2.98,0.15-6.72,0.31-9.77,0.31c-0.69,0-1.3-0.08-1.83-0.08h-1.45c-0.23,1.15-0.23,2.67-0.23,3.74
			c0,1.07,0,2.06-0.08,2.98c4.51-0.23,9.55-0.38,14.36-0.38c1.76,0,3.74,0,5.35,0.08c1.15,1.15,1.6,3.97,1.07,6.11h-3.05
			c-4.89,0-11.76,0.23-17.18,1.07c-0.15,2.52-0.15,4.96-0.15,7.33c0,2.6,0,5.5,0.15,7.79c-0.99,1.3-3.74,0.92-4.81,0.76
			c-1.07-0.99-1.37-2.06-1.37-3.51c0-0.76,0.08-1.6,0.15-2.37c0.23-1.6,0.46-3.21-0.15-4.2v-2.52c0-2.21-0.08-4.81-0.15-7.25
			c-0.08-2.6-0.15-5.04-0.15-7.41c0-1.91,0-3.74,0.15-5.34c0,0-0.08,0-0.23-0.15c-0.23-0.23-0.46-0.69-0.23-1.76
			c0.69-0.61,2.29-1.6,3.36-1.68c3.51,0.46,7.64,0.61,11.68,0.61c3.89,0,7.79-0.15,12.07-0.31h0.84c0.76,0,1.53-0.08,2.29-0.15
			c0.15,0,0.23-0.08,0.38-0.08c0.61-0.08,1.3-0.08,2.06-0.08c1.22,0,1.99,0.08,2.75,0.15l0.46,0.76c0.46,0.15,0.61,0.23,0.76,0.38
			L644.63,100.53z"/>
		<path class="st34" d="M652.64,100.68l0.61,0.76c0,1.3-0.08,3.05-0.15,4.2c-0.15,1.37,0,2.75,0.23,3.97
			c0.15,0.76,0.23,1.83,0.23,2.83v1.6c0.08,2.9,0.08,7.48,0.08,10.23c0,2.44,0,4.89,0.08,7.94c0.31,0.53,0.08,0.76-0.3,1.3
			c0,0,0.08,0,0.3,0.76c-0.84,0-1.22,0.08-1.37,0.31l-1.68-0.15c-1.22-0.08-2.44-0.23-3.05-1.53c0.15-0.84,0-1.37-0.08-1.99
			c-0.08-0.61,0-1.15,0.08-1.68c-0.15-0.76-0.15-1.76-0.15-2.75c0-0.84,0-2.14,0.08-2.98v-1.37c0-0.53,0.08-0.99,0.08-1.3
			c0-1.22-0.08-2.44-0.31-3.51c0.08-0.15,0.38-0.69,0.31-0.61c-0.31-1.76-0.23-4.12-0.23-6.11c0-1.22,0-2.29-0.08-3.36l-0.15-1.83
			c-0.08-0.84-0.15-1.99-0.15-2.83c0-0.76,0-1.53,0.23-2.67c0.99-0.92,3.44-0.99,4.81-0.46L652.64,100.68z"/>
		<path class="st34" d="M686.39,120.77c1.37,1.53,2.98,3.13,4.66,4.43c0.08-0.99,0-2.14,0-3.28c0-2.06-0.08-4.35-0.15-6.41
			c0-0.76-0.08-1.6-0.08-2.37c-0.08-1.3-0.15-3.21-0.15-4.58c0-2.67,0.15-5.42,0.84-8.63l0.76-0.08h-0.15
			c0.92-0.38,1.83-0.76,2.9-0.76c0.69,0,1.45,0.23,2.44,0.76c0.99,1.37,1.07,3.21,1.07,5.04c0,0.69-0.08,1.37-0.08,1.99v5.42
			c0,1.15-0.08,2.37-0.08,3.67c0,5.27,0.15,10.61,0.46,15.12c0,0-0.23,0.84-0.23,1.22c0,0.08-0.08,0.23-0.08,0.31
			c0,0.69-0.08,1.3-0.46,1.91c-0.92,0.69-2.83,1.07-3.89,0.76c-6.87-4.89-12.68-11-18.48-17.26c-3.51-3.82-7.1-7.48-10.77-10.84
			c0,0.46-0.08,0.99-0.08,1.37v2.14c0,2.75,0.08,5.5,0.15,7.94c0.08,1.53,0.15,2.9,0.15,4.43c0,0.53-0.08,1.07-0.08,1.6v1.45
			c0,0.69-0.08,1.37-0.08,2.06v1.91c0,0.23,0.08,0.46,0.08,0.61v0.46c0.08,1.07,0.08,1.68-0.92,2.98l-0.38,0.15h0.08
			c-0.23,0.15-0.38,0.23-0.53,0.23c0,0,0.08,0-0.08,0.46c-2.52-0.31-4.2-1.45-5.34-3.21c0.15-2.6,0.23-5.35,0.23-7.87
			c0-4.5-0.15-9.01-0.38-13.82l-0.31-8.55l0.61-1.15c0.15-0.23,0.38-0.53,0.3-1.45c1.6-0.38,2.44-0.61,3.59-0.76l1.3-0.15l0.38,0.38
			c0.08,0.08,0.31,0.15,1.15,0.23c1.91,1.99,4.2,4.2,6.26,6.11l1.83,1.68h-0.08c1.91,1.91,4.2,4.05,5.88,6.03l6.72,7.03v-0.08
			c0.15,0.15,0.15,0.31,0.31,0.46l0.61,0.84L686.39,120.77z"/>
		<path class="st34" d="M731.44,99.54c1.07,0.99,2.14,2.37,1.6,4.05c-0.92,1.99-2.75,1.91-4.28,1.76h-0.31
			c-0.38-0.08-0.76-0.08-1.07-0.08c-2.83,0-5.88,0.08-8.86,0.15c-2.14,0.08-5.04,0.08-6.95,0.08c-1.68,0-2.75,0-4.05-0.08
			c-0.08,0.61-0.08,1.45-0.08,2.14c0,0.46-0.08,0.76-0.08,1.22c0,0.53-0.08,1.07-0.08,1.6c0,0.99,0,1.83-0.08,2.52
			c3.89-0.15,7.41-0.23,10.92-0.23c2.83,0,5.8,0,8.48,0.23c1.76,0.38,2.9,2.37,2.9,4.43c0,0.84-0.15,1.76-0.76,2.6
			c-3.36-0.23-7.25-0.46-10.77-0.46c-3.82,0-7.64,0.15-11.23,0.92v5.12c0,1.07,0.08,1.68,0,2.83c2.83,0.08,5.35,0.15,8.4,0.15
			c5.42,0,11.23-0.15,17.41-0.46c0.31,0,0.76-0.08,1.3-0.15c1.53-0.15,2.98-0.31,4.2,0.76c0.69,2.14-0.08,4.89-1.3,5.65
			c-5.42,0-11.68,0.08-17.49,0.46c-1.37,0.08-2.9,0.15-4.28,0.15c-0.76,0-1.53,0.08-2.21,0.08c-2.44,0.08-5.27,0.15-8.09,0.38
			c-0.46-0.46-0.69-0.53-0.92-0.61c-0.08,0-0.3-0.15-0.3-0.15c-0.08,0-0.31-0.08-0.38-0.08c-0.76-0.3-1.6-0.69-1.91-0.99
			c-0.31-0.61-0.38-1.83-0.38-3.05c0-0.84,0.08-2.14,0.15-2.98v-0.38c-0.08-5.04,0.23-10.31,0.53-14.81l0.38-8.86
			c-1.3-2.06,0-4.66,1.99-5.04c3.97,0.38,7.94,0.46,11.84,0.46h3.05c1.07,0,1.99-0.08,3.05-0.08c2.52-0.08,6.57-0.08,8.78-0.08
			L731.44,99.54z"/>
		<path class="st34" d="M784.2,134.05c-0.76,0.53-1.68,0.76-2.83,0.76c-1.3,0-2.98-0.46-4.58-1.45c0.61,0,0.61,0,0.69,0.08
			c-0.08-0.15-0.61-0.76-0.61-0.76c0.08-2.83,0.15-6.19,0.15-9.24c0-4.81,0-8.09-0.31-12.68c-0.92,0.99-1.68,1.99-2.44,3.05
			c-0.61,0.84-1.22,1.6-1.99,2.52c-2.52,3.21-5.57,6.72-8.7,9.7c-0.84-0.38-1.68-0.46-2.44-0.46c-0.61-0.69-1.3-1.3-2.44-1.6
			c-0.61-1.15-1.3-1.99-2.21-2.9l-1.6-1.91c-0.53-0.69-0.99-1.45-1.37-2.21c-0.53-0.84-1.15-1.76-1.83-2.6v0.08
			c-0.99-0.92-2.29-2.37-3.74-4.28v2.9v2.06c0,5.57,0,10.16,0.53,15.5c-0.23,0.99-0.31,2.21-0.31,3.44
			c-0.76,0.76-1.76,1.15-2.75,1.15c-1.45,0-2.98-0.76-3.97-1.53c-0.23-2.67-0.38-5.88-0.38-9.54v-2.37c0-0.76,0.08-1.53,0.08-2.29
			v-2.98c0-0.99,0.08-2.06,0.08-3.13c0-3.28-0.08-6.57-0.3-9.62c0.23-0.61,0.23-1.45,0.23-2.29v-0.84l1.22-0.69
			c1.15-0.46,1.83-0.69,3.67-0.92c1.6,0.46,2.44,1.07,3.21,1.83c0.08,0.15,0.46,0.69,0.46,0.69v-0.15l0.15,0.15
			c1.83,2.83,3.89,5.35,5.88,7.64c2.06,2.44,4.43,5.42,6.18,8.4c1.83-1.68,3.67-3.97,5.27-5.88l1.91-2.29l0.84-1.07
			c1.45-1.83,2.9-3.67,4.58-5.35c0.08-0.69,0.84-1.76,1.37-2.44l0.53-1.07c0.99-0.69,2.06-0.92,3.13-0.92
			c0.99,0,2.37,0.38,3.36,0.61l0.38,0.46c0.08,0.15,0.15,0.23,0.76,0.76c0.08,3.13,0.08,6.19,0.08,8.63v2.6
			c0,4.2,0.08,8.25,0.69,13.52c-0.38,0.69-0.31,1.68-0.23,2.44c0.08,0.76,0.15,1.68-0.08,2.44c0,0.15,0.08,0.53,0.15,0.69
			c0.08,0.31,0.15,0.69,0.15,1.45l-0.46,1.6L784.2,134.05z"/>
		<path class="st34" d="M817.8,99.54c1.07,0.99,2.14,2.37,1.6,4.05c-0.92,1.99-2.75,1.91-4.28,1.76h-0.31
			c-0.38-0.08-0.76-0.08-1.07-0.08c-2.83,0-5.88,0.08-8.86,0.15c-2.14,0.08-5.04,0.08-6.95,0.08c-1.68,0-2.75,0-4.05-0.08
			c-0.08,0.61-0.08,1.45-0.08,2.14c0,0.46-0.08,0.76-0.08,1.22c0,0.53-0.08,1.07-0.08,1.6c0,0.99,0,1.83-0.08,2.52
			c3.89-0.15,7.41-0.23,10.92-0.23c2.83,0,5.8,0,8.48,0.23c1.76,0.38,2.9,2.37,2.9,4.43c0,0.84-0.15,1.76-0.76,2.6
			c-3.36-0.23-7.25-0.46-10.77-0.46c-3.82,0-7.64,0.15-11.23,0.92v5.12c0,1.07,0.08,1.68,0,2.83c2.83,0.08,5.35,0.15,8.4,0.15
			c5.42,0,11.23-0.15,17.41-0.46c0.31,0,0.76-0.08,1.3-0.15c1.53-0.15,2.98-0.31,4.2,0.76c0.69,2.14-0.08,4.89-1.3,5.65
			c-5.42,0-11.68,0.08-17.49,0.46c-1.37,0.08-2.9,0.15-4.28,0.15c-0.76,0-1.53,0.08-2.21,0.08c-2.44,0.08-5.27,0.15-8.09,0.38
			c-0.46-0.46-0.69-0.53-0.92-0.61c-0.08,0-0.3-0.15-0.3-0.15c-0.08,0-0.31-0.08-0.38-0.08c-0.76-0.3-1.6-0.69-1.91-0.99
			c-0.31-0.61-0.38-1.83-0.38-3.05c0-0.84,0.08-2.14,0.15-2.98v-0.38c-0.08-5.04,0.23-10.31,0.53-14.81l0.38-8.86
			c-1.3-2.06,0-4.66,1.99-5.04c3.97,0.38,7.94,0.46,11.84,0.46h3.05c1.07,0,1.99-0.08,3.05-0.08c2.52-0.08,6.57-0.08,8.78-0.08
			L817.8,99.54z"/>
		<path class="st34" d="M856.74,120.77c1.37,1.53,2.98,3.13,4.66,4.43c0.08-0.99,0-2.14,0-3.28c0-2.06-0.08-4.35-0.15-6.41
			c0-0.76-0.08-1.6-0.08-2.37c-0.08-1.3-0.15-3.21-0.15-4.58c0-2.67,0.15-5.42,0.84-8.63l0.76-0.08h-0.15
			c0.92-0.38,1.83-0.76,2.9-0.76c0.69,0,1.45,0.23,2.44,0.76c0.99,1.37,1.07,3.21,1.07,5.04c0,0.69-0.08,1.37-0.08,1.99v5.42
			c0,1.15-0.08,2.37-0.08,3.67c0,5.27,0.15,10.61,0.46,15.12c0,0-0.23,0.84-0.23,1.22c0,0.08-0.08,0.23-0.08,0.31
			c0,0.69-0.08,1.3-0.46,1.91c-0.92,0.69-2.83,1.07-3.89,0.76c-6.87-4.89-12.68-11-18.48-17.26c-3.51-3.82-7.1-7.48-10.77-10.84
			c0,0.46-0.08,0.99-0.08,1.37v2.14c0,2.75,0.08,5.5,0.15,7.94c0.08,1.53,0.15,2.9,0.15,4.43c0,0.53-0.08,1.07-0.08,1.6v1.45
			c0,0.69-0.08,1.37-0.08,2.06v1.91c0,0.23,0.08,0.46,0.08,0.61v0.46c0.08,1.07,0.08,1.68-0.92,2.98l-0.38,0.15h0.08
			c-0.23,0.15-0.38,0.23-0.53,0.23c0,0,0.08,0-0.08,0.46c-2.52-0.31-4.2-1.45-5.34-3.21c0.15-2.6,0.23-5.35,0.23-7.87
			c0-4.5-0.15-9.01-0.38-13.82l-0.31-8.55l0.61-1.15c0.15-0.23,0.38-0.53,0.3-1.45c1.6-0.38,2.44-0.61,3.59-0.76l1.3-0.15l0.38,0.38
			c0.08,0.08,0.31,0.15,1.15,0.23c1.91,1.99,4.2,4.2,6.26,6.11l1.83,1.68h-0.08c1.91,1.91,4.2,4.05,5.88,6.03l6.72,7.03v-0.08
			c0.15,0.15,0.15,0.31,0.31,0.46l0.61,0.84L856.74,120.77z"/>
		<path class="st34" d="M912.86,100.15c0.15,0.08,0.38,0.23,0.53,0.46c1.15,1.83-0.08,5.12-1.37,5.96c-2.6,0-5.04,0-7.33-0.08h-2.52
			c-0.99,0-1.83-0.08-2.44-0.08c-1.6,0-2.98,0.08-4.43,0.15h-0.15c-0.08,1.45-0.08,2.75-0.08,4.28v1.6c0,2.67,0,5.35,0.08,8.17
			c0.08,2.98,0.08,6.03,0.08,8.86v0.61c0,0.23,0.08,0.38,0.08,0.53c0.08,1.22,0,2.75-0.99,4.05c-1.3,0.53-3.89,0.46-5.19-0.46
			c-0.53-2.6-0.69-5.8-0.69-9.24c0-1.99,0.08-3.97,0.15-5.96v-0.38c0-0.31,0.08-0.69,0.08-1.07v-0.92c0.15-2.98-0.15-6.03-0.46-8.78
			l-0.15-1.15c-0.84-0.23-1.76-0.15-2.67-0.15c-1.37,0-2.67,0.08-4.12,0.23c-1.53,0.15-2.98,0.23-4.43,0.23
			c-1.37,0-2.52-0.08-3.59-0.31c-1.83-1.91-1.91-3.89-1.83-6.34c0.69-0.38,1.07-0.61,1.22-0.99c2.83,0.15,6.19,0.15,9.01,0.15
			c2.83,0,5.8,0,8.63-0.08c3.51-0.08,6.95-0.08,10.31-0.08h3.89c2.83,0,4.73,0,8.09,0.31L912.86,100.15z"/>
	</g>
</g>
</svg>
