<?xml version="1.0" encoding="UTF-8" standalone="no"?>
<!-- Generator: Adobe Illustrator 24.0.1, SVG Export Plug-In . SVG Version: 6.00 Build 0)  -->

<svg
   xmlns:dc="http://purl.org/dc/elements/1.1/"
   xmlns:cc="http://creativecommons.org/ns#"
   xmlns:rdf="http://www.w3.org/1999/02/22-rdf-syntax-ns#"
   xmlns:svg="http://www.w3.org/2000/svg"
   xmlns="http://www.w3.org/2000/svg"
   xmlns:xlink="http://www.w3.org/1999/xlink"
   xmlns:sodipodi="http://sodipodi.sourceforge.net/DTD/sodipodi-0.dtd"
   xmlns:inkscape="http://www.inkscape.org/namespaces/inkscape"
   version="1.1"
   id="Calque_1"
   x="0px"
   y="0px"
   viewBox="0 0 887.33002 156.32001"
   xml:space="preserve"
   sodipodi:docname="ezosala-mobile.svg"
   width="887.33002"
   height="156.32001"
   inkscape:version="0.92.5 (2060ec1f9f, 2020-04-08)"><metadata
   id="metadata600"><rdf:RDF><cc:Work
       rdf:about=""><dc:format>image/svg+xml</dc:format><dc:type
         rdf:resource="http://purl.org/dc/dcmitype/StillImage" /><dc:title></dc:title></cc:Work></rdf:RDF></metadata><defs
   id="defs598" /><sodipodi:namedview
   pagecolor="#ffffff"
   bordercolor="#666666"
   borderopacity="1"
   objecttolerance="10"
   gridtolerance="10"
   guidetolerance="10"
   inkscape:pageopacity="0"
   inkscape:pageshadow="2"
   inkscape:window-width="1920"
   inkscape:window-height="1015"
   id="namedview596"
   showgrid="false"
   fit-margin-top="0"
   fit-margin-left="0"
   fit-margin-right="0"
   fit-margin-bottom="0"
   inkscape:zoom="0.83633213"
   inkscape:cx="267.99088"
   inkscape:cy="75.155364"
   inkscape:window-x="0"
   inkscape:window-y="452"
   inkscape:window-maximized="1"
   inkscape:current-layer="Calque_1" />
<style
   type="text/css"
   id="style2">
	.st0{fill:url(#SVGID_1_);}
	.st1{fill:#DAD0C9;}
	.st2{clip-path:url(#SVGID_3_);}
	.st3{fill:#E0DFDF;}
	.st4{clip-path:url(#SVGID_5_);}
	.st5{clip-path:url(#SVGID_7_);}
	.st6{fill:#ABD3E0;}
	.st7{clip-path:url(#SVGID_9_);}
	.st8{clip-path:url(#SVGID_11_);}
	.st9{fill:#CDECB0;}
	.st10{clip-path:url(#SVGID_13_);}
	.st11{clip-path:url(#SVGID_15_);}
	.st12{clip-path:url(#SVGID_17_);}
	.st13{clip-path:url(#SVGID_19_);}
	.st14{clip-path:url(#SVGID_21_);}
	.st15{clip-path:url(#SVGID_23_);}
	.st16{fill:#FFFFFF;}
	.st17{clip-path:url(#SVGID_25_);}
	.st18{clip-path:url(#SVGID_27_);}
	.st19{clip-path:url(#SVGID_29_);}
	.st20{clip-path:url(#SVGID_31_);}
	.st21{clip-path:url(#SVGID_33_);}
	.st22{clip-path:url(#SVGID_35_);}
	.st23{clip-path:url(#SVGID_37_);}
	.st24{clip-path:url(#SVGID_39_);}
	.st25{clip-path:url(#SVGID_41_);}
	.st26{clip-path:url(#SVGID_43_);}
	.st27{clip-path:url(#SVGID_45_);}
	.st28{clip-path:url(#SVGID_47_);}
	.st29{fill:#FCD6A5;}
	.st30{clip-path:url(#SVGID_49_);}
	.st31{clip-path:url(#SVGID_51_);fill:#E0DFDF;}
	.st32{clip-path:url(#SVGID_53_);fill:#FCD6A5;}
	.st33{clip-path:url(#SVGID_55_);}
	.st34{fill:#F12A2A;}
	.st35{fill:#009A00;}
	.st36{fill:#FFC900;}
	.st37{fill:#0060B1;}
</style>
<g
   id="g593"
   transform="translate(-28.72,-84.34)">
	<g
   id="g541">
		<g
   id="g511">
			
				<linearGradient
   id="SVGID_1_"
   gradientUnits="userSpaceOnUse"
   x1="29.4249"
   y1="1515.0824"
   x2="182.0394"
   y2="1515.0824"
   gradientTransform="translate(0,-1286.6144)">
				<stop
   offset="0"
   style="stop-color:#E0DFDF"
   id="stop4" />
				<stop
   offset="0.0539"
   style="stop-color:#DAD0C9"
   id="stop6" />
				<stop
   offset="0.128"
   style="stop-color:#E0DFDF"
   id="stop8" />
				<stop
   offset="0.8798"
   style="stop-color:#E0DFDF"
   id="stop10" />
				<stop
   offset="0.9445"
   style="stop-color:#DAD0C9"
   id="stop12" />
				<stop
   offset="1"
   style="stop-color:#E0DFDF"
   id="stop14" />
			</linearGradient>
			<path
   class="st0"
   d="M 182.04,216.27 H 29.42 v 16.79 0 c 0.18,4.33 6.1,7.6 14.4,7.6 H 167.8 c 8.4,0 14.14,-3.27 14.23,-7.6 v 0 -16.79 z"
   id="path17"
   inkscape:connector-curvature="0"
   style="fill:url(#SVGID_1_)" />
			<g
   id="g509">
				<g
   id="g507">
					<g
   id="g505">
						<path
   class="st1"
   d="M 168.43,224.14 H 43.03 c -8.93,0 -14.93,-4.24 -13.34,-9.46 L 51.52,141.6 c 1.5,-5.3 7.51,-9.54 13.43,-9.54 l 81.92,0.27 c 5.83,0 11.84,4.33 13.34,9.46 l 21.65,72.82 c 1.59,5.2 -4.42,9.53 -13.43,9.53 z"
   id="path19"
   inkscape:connector-curvature="0"
   style="fill:#dad0c9" />
						<g
   id="g503">
							<g
   id="g37">
								<g
   id="g35">
									<g
   id="g33">
										<g
   id="g31">
											<defs
   id="defs22">
												<path
   id="SVGID_2_"
   d="M 168.43,224.14 H 43.03 c -8.93,0 -14.93,-4.24 -13.34,-9.46 L 51.52,141.6 c 1.5,-5.3 7.51,-9.54 13.43,-9.54 l 81.92,0.27 c 5.83,0 11.84,4.33 13.34,9.46 l 21.65,72.82 c 1.59,5.2 -4.42,9.53 -13.43,9.53 z"
   inkscape:connector-curvature="0" />
											</defs>
											<clipPath
   id="SVGID_3_">
												<use
   xlink:href="#SVGID_2_"
   style="overflow:visible"
   id="use24"
   x="0"
   y="0"
   width="100%"
   height="100%" />
											</clipPath>
											<g
   class="st2"
   clip-path="url(#SVGID_3_)"
   id="g29">
												<polygon
   class="st3"
   points="103.74,170.94 64.6,172.26 48.25,161.75 48.42,159.45 104.36,150.53 "
   id="polygon27"
   style="fill:#e0dfdf" />
											</g>
										</g>
									</g>
								</g>
							</g>
							<g
   id="g55">
								<g
   id="g53">
									<g
   id="g51">
										<g
   id="g49">
											<defs
   id="defs40">
												<path
   id="SVGID_4_"
   d="M 168.43,224.14 H 43.03 c -8.93,0 -14.93,-4.24 -13.34,-9.46 L 51.52,141.6 c 1.5,-5.3 7.51,-9.54 13.43,-9.54 l 81.92,0.27 c 5.83,0 11.84,4.33 13.34,9.46 l 21.65,72.82 c 1.59,5.2 -4.42,9.53 -13.43,9.53 z"
   inkscape:connector-curvature="0" />
											</defs>
											<clipPath
   id="SVGID_5_">
												<use
   xlink:href="#SVGID_4_"
   style="overflow:visible"
   id="use42"
   x="0"
   y="0"
   width="100%"
   height="100%" />
											</clipPath>
											<g
   class="st4"
   clip-path="url(#SVGID_5_)"
   id="g47">
												<polygon
   class="st3"
   points="169.4,199.13 185.49,197.8 175.15,171.12 155.79,181.63 "
   id="polygon45"
   style="fill:#e0dfdf" />
											</g>
										</g>
									</g>
								</g>
							</g>
							<g
   id="g73">
								<g
   id="g71">
									<g
   id="g69">
										<g
   id="g67">
											<defs
   id="defs58">
												<path
   id="SVGID_6_"
   d="M 168.43,224.14 H 43.03 c -8.93,0 -14.93,-4.24 -13.34,-9.46 L 51.52,141.6 c 1.5,-5.3 7.51,-9.54 13.43,-9.54 l 81.92,0.27 c 5.83,0 11.84,4.33 13.34,9.46 l 21.65,72.82 c 1.59,5.2 -4.42,9.53 -13.43,9.53 z"
   inkscape:connector-curvature="0" />
											</defs>
											<clipPath
   id="SVGID_7_">
												<use
   xlink:href="#SVGID_6_"
   style="overflow:visible"
   id="use60"
   x="0"
   y="0"
   width="100%"
   height="100%" />
											</clipPath>
											<g
   class="st5"
   clip-path="url(#SVGID_7_)"
   id="g65">
												<polygon
   class="st6"
   points="112.93,205.76 130.08,229.79 106.04,227.14 106.13,204.7 "
   id="polygon63"
   style="fill:#abd3e0" />
											</g>
										</g>
									</g>
								</g>
							</g>
							<g
   id="g91">
								<g
   id="g89">
									<g
   id="g87">
										<g
   id="g85">
											<defs
   id="defs76">
												<path
   id="SVGID_8_"
   d="M 168.43,224.14 H 43.03 c -8.93,0 -14.93,-4.24 -13.34,-9.46 L 51.52,141.6 c 1.5,-5.3 7.51,-9.54 13.43,-9.54 l 81.92,0.27 c 5.83,0 11.84,4.33 13.34,9.46 l 21.65,72.82 c 1.59,5.2 -4.42,9.53 -13.43,9.53 z"
   inkscape:connector-curvature="0" />
											</defs>
											<clipPath
   id="SVGID_9_">
												<use
   xlink:href="#SVGID_8_"
   style="overflow:visible"
   id="use78"
   x="0"
   y="0"
   width="100%"
   height="100%" />
											</clipPath>
											<g
   class="st7"
   clip-path="url(#SVGID_9_)"
   id="g83">
												<polygon
   class="st6"
   points="43.12,197.27 72.02,197.36 67.78,226.08 35.35,226.08 "
   id="polygon81"
   style="fill:#abd3e0" />
											</g>
										</g>
									</g>
								</g>
							</g>
							<g
   id="g109">
								<g
   id="g107">
									<g
   id="g105">
										<g
   id="g103">
											<defs
   id="defs94">
												<path
   id="SVGID_10_"
   d="M 168.43,224.14 H 43.03 c -8.93,0 -14.93,-4.24 -13.34,-9.46 L 51.52,141.6 c 1.5,-5.3 7.51,-9.54 13.43,-9.54 l 81.92,0.27 c 5.83,0 11.84,4.33 13.34,9.46 l 21.65,72.82 c 1.59,5.2 -4.42,9.53 -13.43,9.53 z"
   inkscape:connector-curvature="0" />
											</defs>
											<clipPath
   id="SVGID_11_">
												<use
   xlink:href="#SVGID_10_"
   style="overflow:visible"
   id="use96"
   x="0"
   y="0"
   width="100%"
   height="100%" />
											</clipPath>
											<g
   class="st8"
   clip-path="url(#SVGID_11_)"
   id="g101">
												<polygon
   class="st9"
   points="130.52,157.15 128.93,123.57 104.98,123.48 106.13,155.21 "
   id="polygon99"
   style="fill:#cdecb0" />
											</g>
										</g>
									</g>
								</g>
							</g>
							<g
   id="g127">
								<g
   id="g125">
									<g
   id="g123">
										<g
   id="g121">
											<defs
   id="defs112">
												<path
   id="SVGID_12_"
   d="M 168.43,224.14 H 43.03 c -8.93,0 -14.93,-4.24 -13.34,-9.46 L 51.52,141.6 c 1.5,-5.3 7.51,-9.54 13.43,-9.54 l 81.92,0.27 c 5.83,0 11.84,4.33 13.34,9.46 l 21.65,72.82 c 1.59,5.2 -4.42,9.53 -13.43,9.53 z"
   inkscape:connector-curvature="0" />
											</defs>
											<clipPath
   id="SVGID_13_">
												<use
   xlink:href="#SVGID_12_"
   style="overflow:visible"
   id="use114"
   x="0"
   y="0"
   width="100%"
   height="100%" />
											</clipPath>
											<g
   class="st10"
   clip-path="url(#SVGID_13_)"
   id="g119">
												<polygon
   class="st9"
   points="157.56,153 171.52,165.37 158.36,131.7 147.49,144.43 "
   id="polygon117"
   style="fill:#cdecb0" />
											</g>
										</g>
									</g>
								</g>
							</g>
							<g
   id="g145">
								<g
   id="g143">
									<g
   id="g141">
										<g
   id="g139">
											<defs
   id="defs130">
												<path
   id="SVGID_14_"
   d="M 168.43,224.14 H 43.03 c -8.93,0 -14.93,-4.24 -13.34,-9.46 L 51.52,141.6 c 1.5,-5.3 7.51,-9.54 13.43,-9.54 l 81.92,0.27 c 5.83,0 11.84,4.33 13.34,9.46 l 21.65,72.82 c 1.59,5.2 -4.42,9.53 -13.43,9.53 z"
   inkscape:connector-curvature="0" />
											</defs>
											<clipPath
   id="SVGID_15_">
												<use
   xlink:href="#SVGID_14_"
   style="overflow:visible"
   id="use132"
   x="0"
   y="0"
   width="100%"
   height="100%" />
											</clipPath>
											<g
   class="st11"
   clip-path="url(#SVGID_15_)"
   id="g137">
												<polygon
   class="st9"
   points="117.18,205.05 168.87,227.41 190.35,222.11 180.01,198.42 120.71,198.95 "
   id="polygon135"
   style="fill:#cdecb0" />
											</g>
										</g>
									</g>
								</g>
							</g>
							<g
   id="g163">
								<g
   id="g161">
									<g
   id="g159">
										<g
   id="g157">
											<defs
   id="defs148">
												<path
   id="SVGID_16_"
   d="M 168.43,224.14 H 43.03 c -8.93,0 -14.93,-4.24 -13.34,-9.46 L 51.52,141.6 c 1.5,-5.3 7.51,-9.54 13.43,-9.54 l 81.92,0.27 c 5.83,0 11.84,4.33 13.34,9.46 l 21.65,72.82 c 1.59,5.2 -4.42,9.53 -13.43,9.53 z"
   inkscape:connector-curvature="0" />
											</defs>
											<clipPath
   id="SVGID_17_">
												<use
   xlink:href="#SVGID_16_"
   style="overflow:visible"
   id="use150"
   x="0"
   y="0"
   width="100%"
   height="100%" />
											</clipPath>
											<g
   class="st12"
   clip-path="url(#SVGID_17_)"
   id="g155">
												<polygon
   class="st6"
   points="103.83,149.55 32.16,161.13 38,141.69 105.51,131.17 "
   id="polygon153"
   style="fill:#abd3e0" />
											</g>
										</g>
									</g>
								</g>
							</g>
							<g
   id="g181">
								<g
   id="g179">
									<g
   id="g177">
										<g
   id="g175">
											<defs
   id="defs166">
												<path
   id="SVGID_18_"
   d="M 168.43,224.14 H 43.03 c -8.93,0 -14.93,-4.24 -13.34,-9.46 L 51.52,141.6 c 1.5,-5.3 7.51,-9.54 13.43,-9.54 l 81.92,0.27 c 5.83,0 11.84,4.33 13.34,9.46 l 21.65,72.82 c 1.59,5.2 -4.42,9.53 -13.43,9.53 z"
   inkscape:connector-curvature="0" />
											</defs>
											<clipPath
   id="SVGID_19_">
												<use
   xlink:href="#SVGID_18_"
   style="overflow:visible"
   id="use168"
   x="0"
   y="0"
   width="100%"
   height="100%" />
											</clipPath>
											<g
   class="st13"
   clip-path="url(#SVGID_19_)"
   id="g173">
												<polygon
   class="st6"
   points="170.55,164.22 171.52,173.24 150.58,180.31 132.82,158.66 147.05,143.01 "
   id="polygon171"
   style="fill:#abd3e0" />
											</g>
										</g>
									</g>
								</g>
							</g>
							<g
   id="g199">
								<g
   id="g197">
									<g
   id="g195">
										<g
   id="g193">
											<defs
   id="defs184">
												<path
   id="SVGID_20_"
   d="M 168.43,224.14 H 43.03 c -8.93,0 -14.93,-4.24 -13.34,-9.46 L 51.52,141.6 c 1.5,-5.3 7.51,-9.54 13.43,-9.54 l 81.92,0.27 c 5.83,0 11.84,4.33 13.34,9.46 l 21.65,72.82 c 1.59,5.2 -4.42,9.53 -13.43,9.53 z"
   inkscape:connector-curvature="0" />
											</defs>
											<clipPath
   id="SVGID_21_">
												<use
   xlink:href="#SVGID_20_"
   style="overflow:visible"
   id="use186"
   x="0"
   y="0"
   width="100%"
   height="100%" />
											</clipPath>
											<g
   class="st14"
   clip-path="url(#SVGID_21_)"
   id="g191">
												<polygon
   class="st9"
   points="93.4,191.18 86.87,198.33 24.92,197.98 24.12,187.2 63.36,173.59 "
   id="polygon189"
   style="fill:#cdecb0" />
											</g>
										</g>
									</g>
								</g>
							</g>
							<g
   id="g217">
								<g
   id="g215">
									<g
   id="g213">
										<g
   id="g211">
											<defs
   id="defs202">
												<path
   id="SVGID_22_"
   d="M 168.43,224.14 H 43.03 c -8.93,0 -14.93,-4.24 -13.34,-9.46 L 51.52,141.6 c 1.5,-5.3 7.51,-9.54 13.43,-9.54 l 81.92,0.27 c 5.83,0 11.84,4.33 13.34,9.46 l 21.65,72.82 c 1.59,5.2 -4.42,9.53 -13.43,9.53 z"
   inkscape:connector-curvature="0" />
											</defs>
											<clipPath
   id="SVGID_23_">
												<use
   xlink:href="#SVGID_22_"
   style="overflow:visible"
   id="use204"
   x="0"
   y="0"
   width="100%"
   height="100%" />
											</clipPath>
											<g
   class="st15"
   clip-path="url(#SVGID_23_)"
   id="g209">
												<polygon
   class="st16"
   points="128.4,125.61 129.9,130.29 40.47,143.99 41.09,139.39 "
   id="polygon207"
   style="fill:#ffffff" />
											</g>
										</g>
									</g>
								</g>
							</g>
							<g
   id="g235">
								<g
   id="g233">
									<g
   id="g231">
										<g
   id="g229">
											<defs
   id="defs220">
												<path
   id="SVGID_24_"
   d="M 168.43,224.14 H 43.03 c -8.93,0 -14.93,-4.24 -13.34,-9.46 L 51.52,141.6 c 1.5,-5.3 7.51,-9.54 13.43,-9.54 l 81.92,0.27 c 5.83,0 11.84,4.33 13.34,9.46 l 21.65,72.82 c 1.59,5.2 -4.42,9.53 -13.43,9.53 z"
   inkscape:connector-curvature="0" />
											</defs>
											<clipPath
   id="SVGID_25_">
												<use
   xlink:href="#SVGID_24_"
   style="overflow:visible"
   id="use222"
   x="0"
   y="0"
   width="100%"
   height="100%" />
											</clipPath>
											<g
   class="st17"
   clip-path="url(#SVGID_25_)"
   id="g227">
												<polygon
   class="st16"
   points="108.25,126.49 109.58,193.65 102.42,193.65 103.13,126.49 "
   id="polygon225"
   style="fill:#ffffff" />
											</g>
										</g>
									</g>
								</g>
							</g>
							<g
   id="g253">
								<g
   id="g251">
									<g
   id="g249">
										<g
   id="g247">
											<defs
   id="defs238">
												<path
   id="SVGID_26_"
   d="M 168.43,224.14 H 43.03 c -8.93,0 -14.93,-4.24 -13.34,-9.46 L 51.52,141.6 c 1.5,-5.3 7.51,-9.54 13.43,-9.54 l 81.92,0.27 c 5.83,0 11.84,4.33 13.34,9.46 l 21.65,72.82 c 1.59,5.2 -4.42,9.53 -13.43,9.53 z"
   inkscape:connector-curvature="0" />
											</defs>
											<clipPath
   id="SVGID_27_">
												<use
   xlink:href="#SVGID_26_"
   style="overflow:visible"
   id="use240"
   x="0"
   y="0"
   width="100%"
   height="100%" />
											</clipPath>
											<g
   class="st18"
   clip-path="url(#SVGID_27_)"
   id="g245">
												<polygon
   class="st16"
   points="126.72,126.14 131.85,126.4 134.05,158.04 174.97,196.92 169.31,199.31 128.05,159.19 "
   id="polygon243"
   style="fill:#ffffff" />
											</g>
										</g>
									</g>
								</g>
							</g>
							<g
   id="g271">
								<g
   id="g269">
									<g
   id="g267">
										<g
   id="g265">
											<defs
   id="defs256">
												<path
   id="SVGID_28_"
   d="M 168.43,224.14 H 43.03 c -8.93,0 -14.93,-4.24 -13.34,-9.46 L 51.52,141.6 c 1.5,-5.3 7.51,-9.54 13.43,-9.54 l 81.92,0.27 c 5.83,0 11.84,4.33 13.34,9.46 l 21.65,72.82 c 1.59,5.2 -4.42,9.53 -13.43,9.53 z"
   inkscape:connector-curvature="0" />
											</defs>
											<clipPath
   id="SVGID_29_">
												<use
   xlink:href="#SVGID_28_"
   style="overflow:visible"
   id="use258"
   x="0"
   y="0"
   width="100%"
   height="100%" />
											</clipPath>
											<g
   class="st19"
   clip-path="url(#SVGID_29_)"
   id="g263">
												<polygon
   class="st16"
   points="114.7,196.04 176.74,196.04 178.15,200.81 114.88,200.72 "
   id="polygon261"
   style="fill:#ffffff" />
											</g>
										</g>
									</g>
								</g>
							</g>
							<g
   id="g289">
								<g
   id="g287">
									<g
   id="g285">
										<g
   id="g283">
											<defs
   id="defs274">
												<path
   id="SVGID_30_"
   d="M 168.43,224.14 H 43.03 c -8.93,0 -14.93,-4.24 -13.34,-9.46 L 51.52,141.6 c 1.5,-5.3 7.51,-9.54 13.43,-9.54 l 81.92,0.27 c 5.83,0 11.84,4.33 13.34,9.46 l 21.65,72.82 c 1.59,5.2 -4.42,9.53 -13.43,9.53 z"
   inkscape:connector-curvature="0" />
											</defs>
											<clipPath
   id="SVGID_31_">
												<use
   xlink:href="#SVGID_30_"
   style="overflow:visible"
   id="use276"
   x="0"
   y="0"
   width="100%"
   height="100%" />
											</clipPath>
											<g
   class="st20"
   clip-path="url(#SVGID_31_)"
   id="g281">
												<polygon
   class="st16"
   points="106.66,152.91 129.72,156.09 155,132.68 159.68,136.12 132.38,161.22 105.6,157.6 "
   id="polygon279"
   style="fill:#ffffff" />
											</g>
										</g>
									</g>
								</g>
							</g>
							<g
   id="g307">
								<g
   id="g305">
									<g
   id="g303">
										<g
   id="g301">
											<defs
   id="defs292">
												<path
   id="SVGID_32_"
   d="M 168.43,224.14 H 43.03 c -8.93,0 -14.93,-4.24 -13.34,-9.46 L 51.52,141.6 c 1.5,-5.3 7.51,-9.54 13.43,-9.54 l 81.92,0.27 c 5.83,0 11.84,4.33 13.34,9.46 l 21.65,72.82 c 1.59,5.2 -4.42,9.53 -13.43,9.53 z"
   inkscape:connector-curvature="0" />
											</defs>
											<clipPath
   id="SVGID_33_">
												<use
   xlink:href="#SVGID_32_"
   style="overflow:visible"
   id="use294"
   x="0"
   y="0"
   width="100%"
   height="100%" />
											</clipPath>
											<g
   class="st21"
   clip-path="url(#SVGID_33_)"
   id="g299">
												<polygon
   class="st16"
   points="151.2,141.34 171.7,161.57 167.02,163.96 146.87,143.81 "
   id="polygon297"
   style="fill:#ffffff" />
											</g>
										</g>
									</g>
								</g>
							</g>
							<g
   id="g325">
								<g
   id="g323">
									<g
   id="g321">
										<g
   id="g319">
											<defs
   id="defs310">
												<path
   id="SVGID_34_"
   d="M 168.43,224.14 H 43.03 c -8.93,0 -14.93,-4.24 -13.34,-9.46 L 51.52,141.6 c 1.5,-5.3 7.51,-9.54 13.43,-9.54 l 81.92,0.27 c 5.83,0 11.84,4.33 13.34,9.46 l 21.65,72.82 c 1.59,5.2 -4.42,9.53 -13.43,9.53 z"
   inkscape:connector-curvature="0" />
											</defs>
											<clipPath
   id="SVGID_35_">
												<use
   xlink:href="#SVGID_34_"
   style="overflow:visible"
   id="use312"
   x="0"
   y="0"
   width="100%"
   height="100%" />
											</clipPath>
											<g
   class="st22"
   clip-path="url(#SVGID_35_)"
   id="g317">
												<polygon
   class="st16"
   points="170.02,170.06 174.62,174.12 154.91,183.49 150.49,179.42 "
   id="polygon315"
   style="fill:#ffffff" />
											</g>
										</g>
									</g>
								</g>
							</g>
							<g
   id="g343">
								<g
   id="g341">
									<g
   id="g339">
										<g
   id="g337">
											<defs
   id="defs328">
												<path
   id="SVGID_36_"
   d="M 168.43,224.14 H 43.03 c -8.93,0 -14.93,-4.24 -13.34,-9.46 L 51.52,141.6 c 1.5,-5.3 7.51,-9.54 13.43,-9.54 l 81.92,0.27 c 5.83,0 11.84,4.33 13.34,9.46 l 21.65,72.82 c 1.59,5.2 -4.42,9.53 -13.43,9.53 z"
   inkscape:connector-curvature="0" />
											</defs>
											<clipPath
   id="SVGID_37_">
												<use
   xlink:href="#SVGID_36_"
   style="overflow:visible"
   id="use330"
   x="0"
   y="0"
   width="100%"
   height="100%" />
											</clipPath>
											<g
   class="st23"
   clip-path="url(#SVGID_37_)"
   id="g335">
												<polygon
   class="st16"
   points="63.18,171.03 106.04,169.97 106.22,174.74 63.98,175.8 29.16,187.38 27.39,183.13 "
   id="polygon333"
   style="fill:#ffffff" />
											</g>
										</g>
									</g>
								</g>
							</g>
							<g
   id="g361">
								<g
   id="g359">
									<g
   id="g357">
										<g
   id="g355">
											<defs
   id="defs346">
												<path
   id="SVGID_38_"
   d="M 168.43,224.14 H 43.03 c -8.93,0 -14.93,-4.24 -13.34,-9.46 L 51.52,141.6 c 1.5,-5.3 7.51,-9.54 13.43,-9.54 l 81.92,0.27 c 5.83,0 11.84,4.33 13.34,9.46 l 21.65,72.82 c 1.59,5.2 -4.42,9.53 -13.43,9.53 z"
   inkscape:connector-curvature="0" />
											</defs>
											<clipPath
   id="SVGID_39_">
												<use
   xlink:href="#SVGID_38_"
   style="overflow:visible"
   id="use348"
   x="0"
   y="0"
   width="100%"
   height="100%" />
											</clipPath>
											<g
   class="st24"
   clip-path="url(#SVGID_39_)"
   id="g353">
												<polygon
   class="st16"
   points="29.87,195.24 98.88,195.33 98.71,200.01 28.36,200.01 "
   id="polygon351"
   style="fill:#ffffff" />
											</g>
										</g>
									</g>
								</g>
							</g>
							<g
   id="g379">
								<g
   id="g377">
									<g
   id="g375">
										<g
   id="g373">
											<defs
   id="defs364">
												<path
   id="SVGID_40_"
   d="M 168.43,224.14 H 43.03 c -8.93,0 -14.93,-4.24 -13.34,-9.46 L 51.52,141.6 c 1.5,-5.3 7.51,-9.54 13.43,-9.54 l 81.92,0.27 c 5.83,0 11.84,4.33 13.34,9.46 l 21.65,72.82 c 1.59,5.2 -4.42,9.53 -13.43,9.53 z"
   inkscape:connector-curvature="0" />
											</defs>
											<clipPath
   id="SVGID_41_">
												<use
   xlink:href="#SVGID_40_"
   style="overflow:visible"
   id="use366"
   x="0"
   y="0"
   width="100%"
   height="100%" />
											</clipPath>
											<g
   class="st25"
   clip-path="url(#SVGID_41_)"
   id="g371">
												<polygon
   class="st16"
   points="38.79,198.07 46.04,198.07 38.88,226.08 30.66,226.08 "
   id="polygon369"
   style="fill:#ffffff" />
											</g>
										</g>
									</g>
								</g>
							</g>
							<g
   id="g397">
								<g
   id="g395">
									<g
   id="g393">
										<g
   id="g391">
											<defs
   id="defs382">
												<path
   id="SVGID_42_"
   d="M 168.43,224.14 H 43.03 c -8.93,0 -14.93,-4.24 -13.34,-9.46 L 51.52,141.6 c 1.5,-5.3 7.51,-9.54 13.43,-9.54 l 81.92,0.27 c 5.83,0 11.84,4.33 13.34,9.46 l 21.65,72.82 c 1.59,5.2 -4.42,9.53 -13.43,9.53 z"
   inkscape:connector-curvature="0" />
											</defs>
											<clipPath
   id="SVGID_43_">
												<use
   xlink:href="#SVGID_42_"
   style="overflow:visible"
   id="use384"
   x="0"
   y="0"
   width="100%"
   height="100%" />
											</clipPath>
											<g
   class="st26"
   clip-path="url(#SVGID_43_)"
   id="g389">
												<polygon
   class="st16"
   points="67.16,198.07 74.49,198.16 70.96,224.76 62.74,224.76 "
   id="polygon387"
   style="fill:#ffffff" />
											</g>
										</g>
									</g>
								</g>
							</g>
							<g
   id="g415">
								<g
   id="g413">
									<g
   id="g411">
										<g
   id="g409">
											<defs
   id="defs400">
												<path
   id="SVGID_44_"
   d="M 168.43,224.14 H 43.03 c -8.93,0 -14.93,-4.24 -13.34,-9.46 L 51.52,141.6 c 1.5,-5.3 7.51,-9.54 13.43,-9.54 l 81.92,0.27 c 5.83,0 11.84,4.33 13.34,9.46 l 21.65,72.82 c 1.59,5.2 -4.42,9.53 -13.43,9.53 z"
   inkscape:connector-curvature="0" />
											</defs>
											<clipPath
   id="SVGID_45_">
												<use
   xlink:href="#SVGID_44_"
   style="overflow:visible"
   id="use402"
   x="0"
   y="0"
   width="100%"
   height="100%" />
											</clipPath>
											<g
   class="st27"
   clip-path="url(#SVGID_45_)"
   id="g407">
												<polygon
   class="st16"
   points="109.49,224.76 101.36,224.76 101.98,189.32 131.05,225.11 123.8,227.14 109.31,210.09 "
   id="polygon405"
   style="fill:#ffffff" />
											</g>
										</g>
									</g>
								</g>
							</g>
							<g
   id="g433">
								<g
   id="g431">
									<g
   id="g429">
										<g
   id="g427">
											<defs
   id="defs418">
												<path
   id="SVGID_46_"
   d="M 168.43,224.14 H 43.03 c -8.93,0 -14.93,-4.24 -13.34,-9.46 L 51.52,141.6 c 1.5,-5.3 7.51,-9.54 13.43,-9.54 l 81.92,0.27 c 5.83,0 11.84,4.33 13.34,9.46 l 21.65,72.82 c 1.59,5.2 -4.42,9.53 -13.43,9.53 z"
   inkscape:connector-curvature="0" />
											</defs>
											<clipPath
   id="SVGID_47_">
												<use
   xlink:href="#SVGID_46_"
   style="overflow:visible"
   id="use420"
   x="0"
   y="0"
   width="100%"
   height="100%" />
											</clipPath>
											<g
   class="st28"
   clip-path="url(#SVGID_47_)"
   id="g425">
												<polygon
   class="st29"
   points="117.26,200.54 167.28,224.31 162.86,227.94 112.67,204.17 "
   id="polygon423"
   style="fill:#fcd6a5" />
											</g>
										</g>
									</g>
								</g>
							</g>
							<g
   id="g451">
								<g
   id="g449">
									<g
   id="g447">
										<g
   id="g445">
											<defs
   id="defs436">
												<path
   id="SVGID_48_"
   d="M 168.43,224.14 H 43.03 c -8.93,0 -14.93,-4.24 -13.34,-9.46 L 51.52,141.6 c 1.5,-5.3 7.51,-9.54 13.43,-9.54 l 81.92,0.27 c 5.83,0 11.84,4.33 13.34,9.46 l 21.65,72.82 c 1.59,5.2 -4.42,9.53 -13.43,9.53 z"
   inkscape:connector-curvature="0" />
											</defs>
											<clipPath
   id="SVGID_49_">
												<use
   xlink:href="#SVGID_48_"
   style="overflow:visible"
   id="use438"
   x="0"
   y="0"
   width="100%"
   height="100%" />
											</clipPath>
											<g
   class="st30"
   clip-path="url(#SVGID_49_)"
   id="g443">
												<polygon
   class="st29"
   points="45.42,155.65 106.31,195.86 101.53,199.48 40.38,159.27 "
   id="polygon441"
   style="fill:#fcd6a5" />
											</g>
										</g>
									</g>
								</g>
							</g>
							<g
   id="g467">
								<g
   id="g465">
									<g
   id="g463">
										<g
   id="g461">
											<defs
   id="defs454">
												<path
   id="SVGID_50_"
   d="M 168.43,224.14 H 43.03 c -8.93,0 -14.93,-4.24 -13.34,-9.46 L 51.52,141.6 c 1.5,-5.3 7.51,-9.54 13.43,-9.54 l 81.92,0.27 c 5.83,0 11.84,4.33 13.34,9.46 l 21.65,72.82 c 1.59,5.2 -4.42,9.53 -13.43,9.53 z"
   inkscape:connector-curvature="0" />
											</defs>
											<clipPath
   id="SVGID_51_">
												<use
   xlink:href="#SVGID_50_"
   style="overflow:visible"
   id="use456"
   x="0"
   y="0"
   width="100%"
   height="100%" />
											</clipPath>
											<path
   class="st31"
   d="m 124.69,198.51 c 0.53,6.72 -7.95,12.2 -18.91,12.2 -10.96,0 -19.44,-5.48 -18.91,-12.2 0.53,-6.72 9.01,-12.2 18.91,-12.2 9.89,0.01 18.38,5.48 18.91,12.2 z"
   clip-path="url(#SVGID_51_)"
   id="path459"
   inkscape:connector-curvature="0"
   style="fill:#e0dfdf" />
										</g>
									</g>
								</g>
							</g>
							<g
   id="g483">
								<g
   id="g481">
									<g
   id="g479">
										<g
   id="g477">
											<defs
   id="defs470">
												<path
   id="SVGID_52_"
   d="M 168.43,224.14 H 43.03 c -8.93,0 -14.93,-4.24 -13.34,-9.46 L 51.52,141.6 c 1.5,-5.3 7.51,-9.54 13.43,-9.54 l 81.92,0.27 c 5.83,0 11.84,4.33 13.34,9.46 l 21.65,72.82 c 1.59,5.2 -4.42,9.53 -13.43,9.53 z"
   inkscape:connector-curvature="0" />
											</defs>
											<clipPath
   id="SVGID_53_">
												<use
   xlink:href="#SVGID_52_"
   style="overflow:visible"
   id="use472"
   x="0"
   y="0"
   width="100%"
   height="100%" />
											</clipPath>
											<path
   class="st32"
   d="m 105.78,213.09 c -13.26,0 -23.33,-6.54 -22.53,-14.58 0.8,-8.04 10.87,-14.58 22.62,-14.58 11.66,0 21.83,6.54 22.53,14.58 0.71,8.04 -9.46,14.58 -22.62,14.58 z m 0,-24.39 c -8.04,0 -14.93,4.42 -15.29,9.81 -0.35,5.39 6.45,9.81 15.2,9.81 8.75,0 15.55,-4.42 15.29,-9.81 -0.36,-5.39 -7.16,-9.81 -15.2,-9.81 z"
   clip-path="url(#SVGID_53_)"
   id="path475"
   inkscape:connector-curvature="0"
   style="fill:#fcd6a5" />
										</g>
									</g>
								</g>
							</g>
							<g
   id="g501">
								<g
   id="g499">
									<g
   id="g497">
										<g
   id="g495">
											<defs
   id="defs486">
												<path
   id="SVGID_54_"
   d="M 168.43,224.14 H 43.03 c -8.93,0 -14.93,-4.24 -13.34,-9.46 L 51.52,141.6 c 1.5,-5.3 7.51,-9.54 13.43,-9.54 l 81.92,0.27 c 5.83,0 11.84,4.33 13.34,9.46 l 21.65,72.82 c 1.59,5.2 -4.42,9.53 -13.43,9.53 z"
   inkscape:connector-curvature="0" />
											</defs>
											<clipPath
   id="SVGID_55_">
												<use
   xlink:href="#SVGID_54_"
   style="overflow:visible"
   id="use488"
   x="0"
   y="0"
   width="100%"
   height="100%" />
											</clipPath>
											<g
   class="st33"
   clip-path="url(#SVGID_55_)"
   id="g493">
												<polygon
   class="st16"
   points="105.07,146.37 106.31,150.97 35.88,162.46 36.14,157.77 "
   id="polygon491"
   style="fill:#ffffff" />
											</g>
										</g>
									</g>
								</g>
							</g>
						</g>
					</g>
				</g>
			</g>
		</g>
		<path
   class="st34"
   d="m 105.16,84.34 c -22.8,0 -41.36,18.56 -41.36,41.36 0,28.28 37.03,69.81 38.53,71.58 1.5,1.68 4.07,1.68 5.57,0 1.59,-1.77 38.53,-43.3 38.53,-71.58 0,-22.81 -18.47,-41.36 -41.27,-41.36 z"
   id="path513"
   inkscape:connector-curvature="0"
   style="fill:#f12a2a" />
		<path
   class="st35"
   d="m 42.86,169.79 c -7.78,0 -14.14,6.36 -14.14,14.14 0,9.72 12.64,23.95 13.26,24.57 0.53,0.53 1.41,0.53 1.86,0 0.53,-0.62 13.26,-14.85 13.26,-24.57 -0.02,-7.78 -6.38,-14.14 -14.24,-14.14 z"
   id="path515"
   inkscape:connector-curvature="0"
   style="fill:#009a00" />
		<path
   class="st36"
   d="m 167.9,135.06 c -7.78,0 -14.14,6.36 -14.14,14.14 0,9.72 12.64,23.95 13.26,24.57 0.53,0.53 1.41,0.53 1.86,0 0.53,-0.62 13.26,-14.85 13.26,-24.57 -0.1,-7.78 -6.37,-14.14 -14.24,-14.14 z"
   id="path517"
   inkscape:connector-curvature="0"
   style="fill:#ffc900" />
		<path
   class="st37"
   d="m 146.51,178.98 c -7.78,0 -14.14,6.36 -14.14,14.14 0,9.72 12.64,23.95 13.26,24.57 0.53,0.53 1.41,0.53 1.86,0 0.53,-0.62 13.26,-14.85 13.26,-24.57 -0.1,-7.78 -6.46,-14.14 -14.24,-14.14 z"
   id="path519"
   inkscape:connector-curvature="0"
   style="fill:#0060b1" />
		<g
   id="g525">
			<g
   id="g523">
				<path
   class="st16"
   d="m 152.79,191.44 c -1.68,-2.39 -3.8,-1.86 -5.13,-1.5 -0.18,0 -0.27,0.09 -0.44,0.09 0.18,-1.5 0.97,-2.65 2.39,-3.53 l -0.62,-0.97 c -0.8,0.44 -1.41,0.97 -1.86,1.59 -0.18,-0.53 -0.44,-1.06 -0.8,-1.41 -0.71,-0.71 -1.77,-1.06 -3.18,-1.06 h -0.53 v 0.53 c 0,1.41 0.35,2.47 1.06,3.18 0.62,0.62 1.41,0.97 2.47,1.06 0,0.18 -0.09,0.35 -0.09,0.53 -0.18,0 -0.35,-0.09 -0.53,-0.09 -1.41,-0.35 -3.45,-0.88 -5.13,1.5 -0.8,1.15 -1.06,2.74 -0.71,4.51 0.44,2.12 1.68,4.33 2.92,5.13 1.5,0.97 2.74,0.53 3.53,0.27 0.18,-0.09 0.44,-0.18 0.53,-0.18 0.09,0 0.35,0.09 0.53,0.18 0.44,0.18 0.97,0.35 1.59,0.35 0.53,0 1.24,-0.18 1.86,-0.62 1.24,-0.8 2.47,-3 2.92,-5.13 0.28,-1.69 0.01,-3.19 -0.78,-4.43 z"
   id="path521"
   inkscape:connector-curvature="0"
   style="fill:#ffffff" />
			</g>
		</g>
		<g
   id="g533">
			<g
   id="g531">
				<path
   class="st16"
   d="m 162.07,147.26 c 0.18,0.09 0.71,0.53 1.68,1.15 0.88,0.62 1.59,1.15 2.12,1.5 0.09,0 0.18,0.09 0.35,0.27 0.18,0.09 0.35,0.27 0.44,0.27 0.09,0.09 0.27,0.18 0.44,0.27 0.18,0.09 0.35,0.18 0.44,0.18 0.18,0.09 0.27,0.09 0.44,0.09 v 0 0 c 0.09,0 0.27,0 0.44,-0.09 0.18,-0.09 0.27,-0.09 0.44,-0.18 0.18,-0.09 0.27,-0.18 0.44,-0.27 0.09,-0.09 0.27,-0.18 0.44,-0.27 0.18,-0.09 0.27,-0.18 0.35,-0.27 0.53,-0.35 1.77,-1.24 3.8,-2.65 0.35,-0.27 0.71,-0.62 0.97,-0.97 0.27,-0.35 0.35,-0.8 0.35,-1.24 0,-0.35 -0.09,-0.62 -0.35,-0.88 -0.27,-0.27 -0.53,-0.35 -0.88,-0.35 h -11.84 c -0.44,0 -0.71,0.18 -0.97,0.44 -0.27,0.27 -0.35,0.62 -0.35,1.06 0,0.35 0.18,0.71 0.44,1.06 0.19,0.35 0.45,0.61 0.81,0.88 z"
   id="path527"
   inkscape:connector-curvature="0"
   style="fill:#ffffff" />
				<path
   class="st16"
   d="m 174.26,148.05 c -1.77,1.15 -3.09,2.12 -3.98,2.74 -0.27,0.27 -0.53,0.44 -0.71,0.53 -0.18,0.09 -0.44,0.27 -0.8,0.35 -0.35,0.09 -0.62,0.18 -0.88,0.18 v 0 0 c -0.27,0 -0.53,-0.09 -0.88,-0.18 -0.35,-0.09 -0.53,-0.27 -0.8,-0.35 -0.18,-0.09 -0.44,-0.27 -0.71,-0.53 -0.71,-0.53 -2.03,-1.41 -3.98,-2.74 -0.27,-0.18 -0.62,-0.44 -0.8,-0.71 v 6.36 c 0,0.35 0.09,0.62 0.35,0.88 0.26,0.26 0.53,0.35 0.88,0.35 h 11.84 c 0.35,0 0.62,-0.09 0.88,-0.35 0.26,-0.26 0.35,-0.53 0.35,-0.88 v -6.36 c -0.14,0.27 -0.4,0.53 -0.76,0.71 z"
   id="path529"
   inkscape:connector-curvature="0"
   style="fill:#ffffff" />
			</g>
		</g>
		<path
   class="st16"
   d="m 45.24,192.24 h -4.77 c -0.27,0 -0.44,-0.18 -0.44,-0.44 v -4.33 h -4.42 c -0.27,0 -0.44,-0.18 -0.44,-0.44 v -4.77 c 0,-0.27 0.18,-0.44 0.44,-0.44 h 4.33 v -4.33 c 0,-0.27 0.18,-0.44 0.44,-0.44 h 4.77 c 0.27,0 0.44,0.18 0.44,0.44 v 4.33 h 4.33 c 0.27,0 0.44,0.18 0.44,0.44 v 4.77 c 0,0.27 -0.18,0.44 -0.44,0.44 H 45.6 v 4.33 c 0.08,0.26 -0.09,0.44 -0.36,0.44 z"
   id="path535"
   inkscape:connector-curvature="0"
   style="fill:#ffffff" />
		<circle
   class="st16"
   cx="105.33"
   cy="126.31"
   r="28.719999"
   id="circle537"
   style="fill:#ffffff" />
		<path
   class="st34"
   d="m 124.86,110.76 c -0.44,-0.97 -0.97,-1.5 -2.12,-2.3 -0.97,-0.71 -2.47,-0.35 -3.27,0.44 -4.15,4.07 -8.13,8.4 -11.75,12.9 -1.77,2.21 -4.33,4.86 -5.92,7.69 -0.8,-0.62 -1.5,-1.24 -2.21,-1.86 -2.3,-2.12 -4.77,-4.77 -7.69,-6.1 -2.39,-1.15 -4.15,-0.09 -5.66,1.86 -0.44,0.62 -0.97,1.59 -0.97,2.39 -0.62,0.62 -0.8,1.68 0,2.65 5.04,6.19 11.31,11.05 17.94,15.46 0.88,0.62 2.56,0.44 3.27,-0.44 7.16,-9.1 13.87,-19.18 19.71,-29.16 1.06,-1.76 0,-3.18 -1.33,-3.53 z"
   id="path539"
   inkscape:connector-curvature="0"
   style="fill:#f12a2a" />
	</g>
	<g
   id="g557">
		<path
   class="st36"
   d="m 290.84,153.46 c 2.46,2.28 4.91,5.44 3.68,9.29 -2.1,4.56 -6.31,4.38 -9.82,4.03 H 284 c -0.88,-0.17 -1.75,-0.17 -2.46,-0.17 -6.49,0 -13.5,0.17 -20.34,0.35 -4.91,0.17 -11.57,0.17 -15.96,0.17 -3.86,0 -6.31,0 -9.29,-0.17 -0.17,1.4 -0.17,3.33 -0.17,4.91 0,1.05 -0.18,1.75 -0.18,2.8 0,1.23 -0.17,2.46 -0.17,3.68 0,2.28 0,4.21 -0.17,5.79 8.94,-0.35 17.01,-0.53 25.07,-0.53 6.49,0 13.33,0 19.46,0.53 4.03,0.88 6.66,5.44 6.66,10.17 0,1.93 -0.35,4.03 -1.75,5.96 -7.72,-0.53 -16.66,-1.05 -24.72,-1.05 -8.77,0 -17.53,0.35 -25.78,2.1 v 11.75 c 0,2.46 0.17,3.86 0,6.49 6.49,0.18 12.27,0.35 19.29,0.35 12.45,0 25.78,-0.35 39.98,-1.05 0.7,0 1.75,-0.18 2.98,-0.35 3.51,-0.35 6.84,-0.7 9.64,1.75 1.58,4.91 -0.18,11.22 -2.98,12.98 -12.45,0 -26.83,0.18 -40.15,1.05 -3.16,0.17 -6.66,0.35 -9.82,0.35 -1.75,0 -3.51,0.17 -5.08,0.17 -5.61,0.18 -12.1,0.35 -18.59,0.88 -1.05,-1.05 -1.58,-1.23 -2.1,-1.4 -0.17,0 -0.7,-0.35 -0.7,-0.35 -0.18,0 -0.7,-0.18 -0.88,-0.18 -1.75,-0.7 -3.68,-1.58 -4.38,-2.28 -0.7,-1.4 -0.88,-4.21 -0.88,-7.01 0,-1.93 0.18,-4.91 0.35,-6.84 v -0.88 c -0.17,-11.57 0.53,-23.67 1.23,-34.02 l 0.88,-20.34 c -2.98,-4.73 0,-10.7 4.56,-11.57 9.12,0.88 18.24,1.05 27.18,1.05 h 7.01 c 2.46,0 4.56,-0.18 7.01,-0.18 5.79,-0.17 15.08,-0.17 20.16,-0.17 z"
   id="path543"
   inkscape:connector-curvature="0"
   style="fill:#ffc900" />
		<path
   class="st36"
   d="m 337.72,217.11 c 7.36,-0.18 14.73,-0.7 22.44,-1.4 9.99,-0.88 21.39,-1.58 31.74,-1.58 3.33,0 7.19,0 10.17,0.17 3.86,0.53 6.84,5.44 6.84,9.64 0,2.1 -0.88,4.03 -2.81,6.49 -2.1,-0.18 -4.03,-0.18 -5.96,-0.18 -2.45,0 -3.68,-0.17 -5.61,-0.53 -2.1,0.7 -3.68,0.7 -5.61,0 -13.5,0.88 -29.28,1.75 -38.93,2.8 -1.23,0.18 -2.28,0.35 -3.51,0.7 l -2.1,0.7 c -1.75,0.17 -3.33,0.17 -5.44,0.17 -1.75,0 -3.33,0 -5.09,0.18 l -1.93,0.35 c -1.93,0.35 -4.38,0.53 -6.49,0.53 -1.75,0 -3.68,-0.17 -5.96,-0.88 -0.35,-0.53 -0.7,-1.05 -2.81,-0.88 -0.35,-1.75 -0.88,-3.51 -1.58,-4.91 -0.88,-2.63 -1.75,-5.26 -0.88,-8.94 3.51,-6.84 12.8,-14.38 20.34,-18.76 l 5.96,-4.03 4.56,-3.68 c 5.79,-4.21 11.4,-8.77 18.94,-12.45 3.33,-3.68 7.89,-7.54 11.92,-10.34 1.23,-1.05 3.33,-2.63 4.91,-4.21 l 1.05,-0.88 c -4.56,0.18 -10.52,0.7 -14.9,1.05 l -9.47,0.53 c -11.57,0.7 -24.72,1.23 -34.72,1.58 -1.05,0 -2.1,-0.7 -2.81,-1.05 h -1.58 c -2.28,-3.33 -4.91,-8.07 -3.16,-13.33 l 19.11,-0.88 c 7.19,-0.18 14.2,-0.53 21.22,-0.88 l 21.39,-1.05 c 3.33,-0.18 9.29,-0.35 14.2,-0.35 h 7.19 c 3.16,2.98 8.24,8.42 6.31,14.9 0.18,2.1 -1.05,1.93 -31.39,25.07 l -15.26,11.4 c -7.31,5.29 -12.93,9.32 -20.29,14.93 z"
   id="path545"
   inkscape:connector-curvature="0"
   style="fill:#ffc900" />
		<path
   class="st36"
   d="m 413.74,213.61 c -1.4,-4.91 -1.93,-9.99 -1.93,-14.73 0,-14.73 5.44,-28.93 14.2,-38.05 1.93,-0.53 2.63,-1.05 3.51,-1.75 h -0.18 l 0.35,-0.18 1.58,-1.05 h -0.17 l 3.16,-2.28 c 4.91,-1.75 11.4,-2.28 17.53,-2.8 l 3.86,-0.35 c 2.46,-0.35 5.79,-0.35 8.07,-0.35 8.07,0 15.78,1.05 22.09,2.28 l 3.16,2.28 c 0.18,0.18 0.88,0.53 2.63,1.23 l 1.58,2.1 c 6.14,7.19 15.08,17.53 16.13,29.28 0.7,8.07 -0.7,15.78 -1.58,21.74 0,0.17 -0.7,1.23 -1.05,1.58 -0.18,0.35 -0.53,0.35 -0.53,0.88 -2.1,3.51 -4.03,6.84 -5.61,8.77 l -2.63,2.45 c -0.35,0.35 -0.88,0.53 -1.23,0.7 l -4.21,4.21 c -9.47,4.56 -20.16,6.31 -30.86,6.31 -8.07,0 -16.13,-0.88 -23.85,-2.1 -11.05,-2.98 -18.94,-8.42 -22.79,-18.59 -0.35,0 -0.7,-0.35 -0.7,-1.05 0,0 -0.18,0.17 0,-0.18 z m 22.79,-41.56 c 1.05,-0.35 -0.7,1.4 -2.1,2.81 l -1.58,1.58 v -0.17 c -5.08,6.66 -8.42,15.43 -8.42,24.9 0,2.98 0.53,7.19 1.4,10.7 0.88,0.53 1.4,1.4 1.93,2.63 6.84,4.56 18.41,7.36 29.46,7.36 10.87,0 22.44,-2.98 29.28,-7.72 h -0.18 c 5.79,-5.79 9.82,-19.29 9.99,-30.86 -0.53,-2.28 -1.75,-4.73 -2.98,-7.01 l -0.35,-0.88 c -0.17,-0.17 -0.35,-0.35 -0.35,-0.53 -5.08,-4.38 -12.45,-7.72 -21.57,-8.07 -10.33,-0.18 -25.06,0 -34.53,5.26 z m 71.19,38.93 c 0.17,0 0.17,0.17 0,0.35 z"
   id="path547"
   inkscape:connector-curvature="0"
   style="fill:#ffc900" />
		<path
   class="st35"
   d="m 606.51,150.66 c 5.79,3.33 14.38,11.22 14.38,18.94 0,2.28 -0.7,4.56 -2.45,6.84 -2.81,1.23 -7.01,-0.17 -9.12,-1.4 l -0.53,-4.03 c -0.18,-2.1 -0.7,-4.03 -1.4,-5.26 l -2.8,-1.05 c -0.18,0 -0.53,-0.18 -1.05,-0.7 -4.91,0.53 -10.17,0.7 -14.9,0.88 -11.05,0.35 -22.79,1.58 -32.61,5.79 l -4.21,4.21 c 0,0.35 -0.18,0.88 -0.35,1.4 0.17,-0.18 0.35,-0.35 0.7,-0.18 -1.23,6.14 7.19,5.96 14.38,5.79 h 2.63 c 2.1,0 4.73,0 6.31,0.17 5.09,0.53 11.22,0.88 16.83,1.23 l 9.29,0.53 c 2.63,1.05 6.31,2.1 10.17,2.8 9.12,3.86 15.08,14.2 15.08,24.72 0,4.56 -1.23,9.64 -3.86,13.85 -9.29,8.77 -24.72,10.17 -38.58,10.87 -4.03,-0.53 -7.72,-0.88 -11.4,-1.23 -0.88,0 -1.93,-0.17 -2.8,-0.17 -6.66,-0.53 -14.03,-1.23 -20.16,-3.16 -4.73,-3.16 -8.77,-9.99 -8.77,-17.71 0,-2.1 0.35,-4.56 1.4,-7.19 8.59,-2.63 11.05,3.68 12.98,9.29 0.17,0.7 0.35,1.4 0.35,1.58 7.89,1.75 17.53,2.8 26.48,2.8 7.54,0 16.13,-1.05 22.79,-3.16 h -0.18 l 1.58,-0.7 v 0.17 c 3.16,-1.75 6.49,-3.51 8.07,-6.66 l -0.18,0.17 c 0.7,-2.63 0.18,-5.96 -1.23,-7.19 -6.49,-3.86 -15.61,-4.73 -23.85,-5.26 l -7.54,-0.53 c -2.98,-0.17 -7.36,-0.35 -9.99,-0.35 -8.42,-0.18 -16.31,-0.35 -23.85,-3.86 l -0.18,-0.7 c -0.17,0 -0.7,0 -1.93,-0.88 -3.86,-3.86 -6.14,-10.7 -6.14,-17.53 0,-5.08 1.58,-10.17 4.56,-13.85 4.73,-5.44 14.55,-8.42 22.44,-9.47 7.36,-1.05 15.08,-1.05 21.22,-1.05 4.91,0 9.99,0 15.08,-0.35 l 2.63,1.4 z"
   id="path549"
   inkscape:connector-curvature="0"
   style="fill:#009a00" />
		<path
   class="st35"
   d="m 687.16,154.69 c 0,1.4 0.7,3.33 1.75,5.44 l 0.7,1.93 -0.17,-0.18 c 4.38,7.89 8.77,15.43 13.5,23.15 l 2.8,5.09 v -0.18 c 6.84,11.75 13.33,23.32 19.11,37 0,0 -0.35,1.58 -0.53,2.63 0,0.35 -0.17,1.23 -0.17,1.58 -2.1,1.4 -4.73,2.63 -7.54,2.98 -2.98,-1.93 -3.68,-2.28 -5.26,-1.93 l -5.79,-11.4 -3.51,-7.01 -2.98,-5.96 h -5.44 c -11.22,0 -24.55,0.35 -36.47,0.7 -2.63,3.68 -3.68,5.61 -4.91,7.89 -3.16,5.96 -4.03,7.36 -4.91,8.59 -1.23,1.4 -2.1,2.63 -3.86,6.14 h 0.18 c -0.53,1.23 -1.23,2.63 -2.98,4.03 -5.26,0.7 -9.12,-3.68 -11.4,-7.01 l 1.4,-3.33 c 0.88,-2.1 1.75,-4.21 4.03,-5.79 l -0.18,0.35 c 8.07,-14.73 17.01,-29.98 25.95,-44.71 l 5.96,-9.47 -0.17,0.18 c 0.53,-1.23 1.4,-2.28 1.75,-3.51 v 0.18 c 0,-0.18 0.17,-0.18 0.17,-0.53 0,-0.17 0.53,1.4 -0.35,-3.86 1.05,0.35 3.68,-1.23 3.33,-1.93 0.53,-0.88 1.05,-1.4 1.58,-1.4 0,-0.53 0.18,-0.88 0.53,-1.93 l 2.1,-0.35 c 1.4,-0.53 3.16,-0.88 5.26,-0.88 2.1,0 4.21,0.53 6.31,2.1 z m -19.47,37.35 c 5.08,-1.23 13.33,1.05 17.53,0 h 4.91 c -2.63,-5.61 -5.09,-10.87 -8.24,-16.48 l -2.63,-4.21 c -1.75,3.33 -4.03,7.36 -6.31,11.05 v -0.17 c -0.7,1.23 -1.75,2.63 -2.46,4.03 z m 0,0"
   id="path551"
   inkscape:connector-curvature="0"
   style="fill:#009a00" />
		<path
   class="st35"
   d="m 806.2,217.29 2.63,2.98 c 2.81,2.81 5.44,6.84 4.38,12.63 -2.63,2.81 -4.73,2.28 -7.19,1.58 -0.18,0 -0.53,-0.17 -0.7,-0.17 l -2.46,-0.53 c -2.1,-0.35 -4.73,-0.35 -6.84,-0.35 -2.8,0 -5.96,0 -9.29,0.17 -2.63,0.17 -6.66,0.35 -9.29,0.35 -3.16,0 -7.19,-0.18 -10.17,-0.53 -6.84,0.53 -16.48,0.7 -24.2,0.7 h -1.05 c -2.28,-0.17 -4.91,-0.35 -6.49,-1.93 l -1.58,-2.1 v 0.17 c -0.88,-0.88 -1.75,-2.28 -1.93,-3.33 l 0.17,0.18 c -0.53,-1.05 -0.53,-1.93 -0.53,-2.63 0,-0.35 0,-1.05 -0.53,-1.75 v 0.17 c -0.88,-0.88 -1.23,-1.23 -1.4,-3.16 -0.18,-1.4 0,-2.28 0.17,-2.81 0,-0.35 0,-0.53 0.35,-0.88 v 0.18 c 0,-0.18 0.18,-0.18 0.18,-0.53 v -5.79 c -0.18,-1.75 -0.18,-5.26 0,-7.01 v -1.93 c 0,-0.88 0.17,-1.93 0.17,-2.63 l 0.35,-9.99 c 0.35,-8.77 0.7,-18.41 0.7,-27.35 0,-1.58 -0.18,-3.16 -0.18,-4.73 v -4.21 c 1.93,-2.46 3.86,-3.51 5.96,-3.51 3.16,0 6.31,1.4 8.24,3.51 1.05,1.93 1.23,4.03 1.4,6.66 l 0.53,3.86 c -1.23,18.24 -1.58,36.12 -1.58,54.71 z"
   id="path553"
   inkscape:connector-curvature="0"
   style="fill:#009a00" />
		<path
   class="st35"
   d="m 878.36,154.69 c 0,1.4 0.7,3.33 1.75,5.44 l 0.7,1.93 -0.17,-0.18 c 4.38,7.89 8.77,15.43 13.5,23.15 l 2.8,5.09 v -0.18 c 6.84,11.75 13.33,23.32 19.11,37 0,0 -0.35,1.58 -0.53,2.63 0,0.35 -0.17,1.23 -0.17,1.58 -2.1,1.4 -4.73,2.63 -7.54,2.98 -2.98,-1.93 -3.68,-2.28 -5.26,-1.93 l -5.79,-11.4 -3.51,-7.01 -2.98,-5.96 h -5.44 c -11.22,0 -24.55,0.35 -36.47,0.7 -2.63,3.68 -3.68,5.61 -4.91,7.89 -3.16,5.96 -4.03,7.36 -4.91,8.59 -1.23,1.4 -2.1,2.63 -3.86,6.14 h 0.18 c -0.53,1.23 -1.23,2.63 -2.98,4.03 -5.26,0.7 -9.12,-3.68 -11.4,-7.01 l 1.4,-3.33 c 0.88,-2.1 1.75,-4.21 4.03,-5.79 l -0.18,0.35 c 8.07,-14.73 17.01,-29.98 25.95,-44.71 l 5.96,-9.47 -0.17,0.18 c 0.53,-1.23 1.4,-2.28 1.75,-3.51 v 0.18 c 0,-0.18 0.17,-0.18 0.17,-0.53 0,-0.17 0.53,1.4 -0.35,-3.86 1.05,0.35 3.68,-1.23 3.33,-1.93 0.53,-0.88 1.05,-1.4 1.58,-1.4 0,-0.53 0.18,-0.88 0.53,-1.93 l 2.1,-0.35 c 1.4,-0.53 3.16,-0.88 5.26,-0.88 2.1,0 4.21,0.53 6.31,2.1 z m -19.46,37.35 c 5.08,-1.23 13.33,1.05 17.53,0 h 4.91 c -2.63,-5.61 -5.09,-10.87 -8.24,-16.48 l -2.63,-4.21 c -1.75,3.33 -4.03,7.36 -6.31,11.05 v -0.17 c -0.7,1.23 -1.75,2.63 -2.46,4.03 z m 0,0"
   id="path555"
   inkscape:connector-curvature="0"
   style="fill:#009a00" />
	</g>
	<g
   id="g591">
		<path
   class="st37"
   d="m 245.96,100.07 c 0,0.61 0.31,1.45 0.76,2.37 l 0.31,0.84 -0.08,-0.08 c 1.91,3.44 3.82,6.72 5.88,10.08 l 1.22,2.21 v -0.08 c 2.98,5.12 5.8,10.16 8.32,16.11 0,0 -0.15,0.69 -0.23,1.15 0,0.15 -0.08,0.53 -0.08,0.69 -0.92,0.61 -2.06,1.15 -3.28,1.3 -1.3,-0.84 -1.6,-0.99 -2.29,-0.84 l -2.52,-4.96 -1.53,-3.05 -1.3,-2.6 h -2.37 c -4.89,0 -10.69,0.15 -15.88,0.31 -1.15,1.6 -1.6,2.44 -2.14,3.44 -1.37,2.6 -1.76,3.21 -2.14,3.74 -0.53,0.61 -0.92,1.15 -1.68,2.67 h 0.08 c -0.23,0.53 -0.53,1.15 -1.3,1.76 -2.29,0.31 -3.97,-1.6 -4.96,-3.05 l 0.61,-1.45 c 0.38,-0.92 0.76,-1.83 1.76,-2.52 l -0.08,0.15 c 3.51,-6.41 7.41,-13.06 11.3,-19.47 l 2.6,-4.12 -0.08,0.08 c 0.23,-0.53 0.61,-0.99 0.76,-1.53 v 0.08 c 0,-0.08 0.08,-0.08 0.08,-0.23 0,-0.08 0.23,0.61 -0.15,-1.68 0.46,0.15 1.6,-0.53 1.45,-0.84 0.23,-0.38 0.46,-0.61 0.69,-0.61 0,-0.23 0.08,-0.38 0.23,-0.84 l 0.92,-0.15 c 0.61,-0.23 1.37,-0.38 2.29,-0.38 0.92,0 1.83,0.23 2.75,0.92 z m -8.48,16.27 c 2.21,-0.53 5.8,0.46 7.64,0 h 2.14 c -1.15,-2.44 -2.21,-4.73 -3.59,-7.18 l -1.15,-1.83 c -0.76,1.45 -1.76,3.21 -2.75,4.81 v -0.08 c -0.31,0.53 -0.76,1.15 -1.07,1.76 z m 0,0"
   id="path559"
   inkscape:connector-curvature="0"
   style="fill:#0060b1" />
		<path
   class="st37"
   d="m 306.59,100.15 c 0.15,0.08 0.38,0.23 0.53,0.46 1.15,1.83 -0.08,5.12 -1.37,5.96 -2.6,0 -5.04,0 -7.33,-0.08 h -2.52 c -0.99,0 -1.83,-0.08 -2.44,-0.08 -1.6,0 -2.98,0.08 -4.43,0.15 h -0.15 c -0.08,1.45 -0.08,2.75 -0.08,4.28 v 1.6 c 0,2.67 0,5.35 0.08,8.17 0.08,2.98 0.08,6.03 0.08,8.86 v 0.61 c 0,0.23 0.08,0.38 0.08,0.53 0.08,1.22 0,2.75 -0.99,4.05 -1.3,0.53 -3.89,0.46 -5.19,-0.46 -0.53,-2.6 -0.69,-5.8 -0.69,-9.24 0,-1.99 0.08,-3.97 0.15,-5.96 v -0.38 c 0,-0.31 0.08,-0.69 0.08,-1.07 v -0.92 c 0.15,-2.98 -0.15,-6.03 -0.46,-8.78 l -0.15,-1.15 c -0.84,-0.23 -1.76,-0.15 -2.67,-0.15 -1.37,0 -2.67,0.08 -4.12,0.23 -1.53,0.15 -2.98,0.23 -4.43,0.23 -1.37,0 -2.52,-0.08 -3.59,-0.31 -1.83,-1.91 -1.91,-3.89 -1.83,-6.34 0.69,-0.38 1.07,-0.61 1.22,-0.99 2.83,0.15 6.19,0.15 9.01,0.15 2.83,0 5.8,0 8.63,-0.08 3.51,-0.08 6.95,-0.08 10.31,-0.08 h 3.89 c 2.83,0 4.73,0 8.09,0.31 z"
   id="path561"
   inkscape:connector-curvature="0"
   style="fill:#0060b1" />
		<path
   class="st37"
   d="m 333.46,100.07 c 0,0.61 0.31,1.45 0.76,2.37 l 0.31,0.84 -0.08,-0.08 c 1.91,3.44 3.82,6.72 5.88,10.08 l 1.22,2.21 v -0.08 c 2.98,5.12 5.8,10.16 8.32,16.11 0,0 -0.15,0.69 -0.23,1.15 0,0.15 -0.08,0.53 -0.08,0.69 -0.92,0.61 -2.06,1.15 -3.28,1.3 -1.3,-0.84 -1.6,-0.99 -2.29,-0.84 l -2.52,-4.96 -1.53,-3.05 -1.3,-2.6 h -2.37 c -4.89,0 -10.69,0.15 -15.88,0.31 -1.15,1.6 -1.6,2.44 -2.14,3.44 -1.37,2.6 -1.76,3.21 -2.14,3.74 -0.53,0.61 -0.92,1.15 -1.68,2.67 h 0.08 c -0.23,0.53 -0.53,1.15 -1.3,1.76 -2.29,0.31 -3.97,-1.6 -4.96,-3.05 l 0.61,-1.45 c 0.38,-0.92 0.76,-1.83 1.76,-2.52 l -0.08,0.15 c 3.51,-6.41 7.41,-13.06 11.3,-19.47 l 2.6,-4.12 -0.08,0.08 c 0.23,-0.53 0.61,-0.99 0.76,-1.53 v 0.08 c 0,-0.08 0.08,-0.08 0.08,-0.23 0,-0.08 0.23,0.61 -0.15,-1.68 0.46,0.15 1.6,-0.53 1.45,-0.84 0.23,-0.38 0.46,-0.61 0.69,-0.61 0,-0.23 0.08,-0.38 0.23,-0.84 l 0.92,-0.15 c 0.61,-0.23 1.37,-0.38 2.29,-0.38 0.92,0 1.83,0.23 2.75,0.92 z m -8.48,16.27 c 2.21,-0.53 5.8,0.46 7.64,0 h 2.14 c -1.15,-2.44 -2.21,-4.73 -3.59,-7.18 l -1.15,-1.83 c -0.76,1.45 -1.76,3.21 -2.75,4.81 v -0.08 c -0.31,0.53 -0.76,1.15 -1.07,1.76 z m 0,0"
   id="path563"
   inkscape:connector-curvature="0"
   style="fill:#0060b1" />
		<path
   class="st37"
   d="m 403.51,120.77 c 1.37,1.53 2.98,3.13 4.66,4.43 0.08,-0.99 0,-2.14 0,-3.28 0,-2.06 -0.08,-4.35 -0.15,-6.41 0,-0.76 -0.08,-1.6 -0.08,-2.37 -0.08,-1.3 -0.15,-3.21 -0.15,-4.58 0,-2.67 0.15,-5.42 0.84,-8.63 l 0.76,-0.08 h -0.15 c 0.92,-0.38 1.83,-0.76 2.9,-0.76 0.69,0 1.45,0.23 2.44,0.76 0.99,1.37 1.07,3.21 1.07,5.04 0,0.69 -0.08,1.37 -0.08,1.99 v 5.42 c 0,1.15 -0.08,2.37 -0.08,3.67 0,5.27 0.15,10.61 0.46,15.12 0,0 -0.23,0.84 -0.23,1.22 0,0.08 -0.08,0.23 -0.08,0.31 0,0.69 -0.08,1.3 -0.46,1.91 -0.92,0.69 -2.83,1.07 -3.89,0.76 -6.87,-4.89 -12.68,-11 -18.48,-17.26 -3.51,-3.82 -7.1,-7.48 -10.77,-10.84 0,0.46 -0.08,0.99 -0.08,1.37 v 2.14 c 0,2.75 0.08,5.5 0.15,7.94 0.08,1.53 0.15,2.9 0.15,4.43 0,0.53 -0.08,1.07 -0.08,1.6 v 1.45 c 0,0.69 -0.08,1.37 -0.08,2.06 v 1.91 c 0,0.23 0.08,0.46 0.08,0.61 v 0.46 c 0.08,1.07 0.08,1.68 -0.92,2.98 l -0.38,0.15 h 0.08 c -0.23,0.15 -0.38,0.23 -0.53,0.23 0,0 0.08,0 -0.08,0.46 -2.52,-0.31 -4.2,-1.45 -5.34,-3.21 0.15,-2.6 0.23,-5.35 0.23,-7.87 0,-4.5 -0.15,-9.01 -0.38,-13.82 l -0.31,-8.55 0.61,-1.15 c 0.15,-0.23 0.38,-0.53 0.3,-1.45 1.6,-0.38 2.44,-0.61 3.59,-0.76 l 1.3,-0.15 0.38,0.38 c 0.08,0.08 0.31,0.15 1.15,0.23 1.91,1.99 4.2,4.2 6.26,6.11 l 1.83,1.68 h -0.08 c 1.91,1.91 4.2,4.05 5.88,6.03 l 6.72,7.03 v -0.08 c 0.15,0.15 0.15,0.31 0.31,0.46 l 0.61,0.84 z"
   id="path565"
   inkscape:connector-curvature="0"
   style="fill:#0060b1" />
		<path
   class="st37"
   d="m 442.14,100.07 c 0,0.61 0.31,1.45 0.76,2.37 l 0.31,0.84 -0.08,-0.08 c 1.91,3.44 3.82,6.72 5.88,10.08 l 1.22,2.21 v -0.08 c 2.98,5.12 5.8,10.16 8.32,16.11 0,0 -0.15,0.69 -0.23,1.15 0,0.15 -0.08,0.53 -0.08,0.69 -0.92,0.61 -2.06,1.15 -3.28,1.3 -1.3,-0.84 -1.6,-0.99 -2.29,-0.84 l -2.52,-4.96 -1.53,-3.05 -1.3,-2.6 h -2.37 c -4.89,0 -10.69,0.15 -15.88,0.31 -1.15,1.6 -1.6,2.44 -2.14,3.44 -1.37,2.6 -1.76,3.21 -2.14,3.74 -0.53,0.61 -0.92,1.15 -1.68,2.67 h 0.08 c -0.23,0.53 -0.53,1.15 -1.3,1.76 -2.29,0.31 -3.97,-1.6 -4.96,-3.05 l 0.61,-1.45 c 0.38,-0.92 0.76,-1.83 1.76,-2.52 l -0.08,0.15 c 3.51,-6.41 7.41,-13.06 11.3,-19.47 l 2.6,-4.12 -0.08,0.08 c 0.23,-0.53 0.61,-0.99 0.76,-1.53 v 0.08 c 0,-0.08 0.08,-0.08 0.08,-0.23 0,-0.08 0.23,0.61 -0.15,-1.68 0.46,0.15 1.6,-0.53 1.45,-0.84 0.23,-0.38 0.46,-0.61 0.69,-0.61 0,-0.23 0.08,-0.38 0.23,-0.84 l 0.92,-0.15 c 0.61,-0.23 1.37,-0.38 2.29,-0.38 0.92,0 1.83,0.23 2.75,0.92 z m -8.47,16.27 c 2.21,-0.53 5.8,0.46 7.64,0 h 2.14 c -1.15,-2.44 -2.21,-4.73 -3.59,-7.18 l -1.15,-1.83 c -0.76,1.45 -1.76,3.21 -2.75,4.81 v -0.08 c -0.31,0.53 -0.76,1.15 -1.07,1.76 z m 0,0"
   id="path567"
   inkscape:connector-curvature="0"
   style="fill:#0060b1" />
		<path
   class="st34"
   d="m 513.37,109.24 c -1.07,-0.23 -1.76,-0.46 -2.6,-0.92 v 0.08 c -0.99,-0.38 -1.99,-0.84 -3.21,-0.99 -0.99,-0.38 -1.68,-0.53 -2.37,-0.69 -0.92,-0.15 -1.76,-0.31 -2.44,-0.69 -0.76,-0.08 -1.6,-0.08 -2.37,-0.08 -4.2,0 -9.01,1.6 -11.84,3.44 -1.07,1.76 -1.83,4.28 -2.44,6.49 l -0.23,1.15 c 0.15,5.5 2.6,8.93 6.19,10.77 l -0.08,-0.08 c 2.6,0.61 5.42,0.99 7.94,0.99 4.35,0 8.55,-0.99 11.38,-3.67 0.46,0 0.76,0 1.07,-0.08 0.61,-0.08 1.3,-0.15 2.06,-0.08 1.15,0.92 1.68,1.6 1.68,2.52 0,0.69 -0.69,1.83 -1.53,2.44 l -2.6,1.91 -1.07,0.76 h 0.08 c 0,0 -0.69,0.46 -1.68,0.99 -3.36,1.07 -6.41,1.45 -10.16,1.45 -1.6,0 -3.82,-0.08 -5.65,-0.23 -1.68,-0.61 -3.05,-1.07 -3.97,-1.22 -8.02,-4.5 -12.6,-14.43 -8.48,-22.91 v 0.08 c 0.08,-0.31 0.38,-0.84 0.46,-1.15 l 0.38,-1.07 c 0.15,-0.69 -0.46,0.15 1.07,-2.75 0.69,-1.15 3.05,-2.52 4.35,-3.36 0.76,-0.53 1.83,-1.15 2.67,-1.83 l 2.67,-0.61 0.76,-0.08 c 1.53,-0.38 3.51,-0.69 5.27,-0.84 3.21,-0.23 5.96,0.31 8.32,0.92 l 0.53,0.08 h -0.08 l 2.98,0.76 0.38,0.31 h -0.08 c 0.53,0.46 3.67,2.21 1.3,1.07 1.15,0.69 2.21,1.45 3.13,2.98 0.08,1.76 0.08,3.36 -1.37,4.05 z"
   id="path569"
   inkscape:connector-curvature="0"
   style="fill:#f12a2a" />
		<path
   class="st34"
   d="m 519.33,125.73 c -0.61,-2.14 -0.84,-4.35 -0.84,-6.41 0,-6.41 2.37,-12.6 6.19,-16.57 0.84,-0.23 1.15,-0.46 1.53,-0.76 h -0.08 l 0.15,-0.08 0.69,-0.46 h -0.08 l 1.37,-0.99 c 2.14,-0.76 4.96,-0.99 7.64,-1.22 l 1.68,-0.15 c 1.07,-0.15 2.52,-0.15 3.51,-0.15 3.51,0 6.87,0.46 9.62,0.99 l 1.37,0.99 c 0.08,0.08 0.38,0.23 1.15,0.53 l 0.69,0.92 c 2.67,3.13 6.57,7.64 7.03,12.75 0.31,3.51 -0.31,6.87 -0.69,9.47 0,0.08 -0.31,0.53 -0.46,0.69 -0.08,0.15 -0.23,0.15 -0.23,0.38 -0.92,1.53 -1.76,2.98 -2.44,3.82 l -1.15,1.07 c -0.15,0.15 -0.38,0.23 -0.53,0.31 l -1.83,1.83 c -4.12,1.99 -8.78,2.75 -13.44,2.75 -3.51,0 -7.03,-0.38 -10.38,-0.92 -4.81,-1.3 -8.25,-3.67 -9.93,-8.09 -0.15,0 -0.31,-0.15 -0.31,-0.46 0,0 -0.08,0.08 0,-0.08 z m 9.92,-18.1 c 0.46,-0.15 -0.31,0.61 -0.92,1.22 l -0.69,0.69 v -0.08 c -2.21,2.9 -3.67,6.72 -3.67,10.84 0,1.3 0.23,3.13 0.61,4.66 0.38,0.23 0.61,0.61 0.84,1.15 2.98,1.99 8.02,3.21 12.83,3.21 4.73,0 9.77,-1.3 12.75,-3.36 h -0.08 c 2.52,-2.52 4.28,-8.4 4.35,-13.44 -0.23,-0.99 -0.76,-2.06 -1.3,-3.05 l -0.15,-0.38 c -0.08,-0.08 -0.15,-0.15 -0.15,-0.23 -2.21,-1.91 -5.42,-3.36 -9.39,-3.51 -4.49,-0.08 -10.9,-0.01 -15.03,2.28 z m 31.01,16.96 c 0.08,0 0.08,0.08 0,0.15 z"
   id="path571"
   inkscape:connector-curvature="0"
   style="fill:#f12a2a" />
		<path
   class="st34"
   d="m 592.78,120.77 c 1.37,1.53 2.98,3.13 4.66,4.43 0.08,-0.99 0,-2.14 0,-3.28 0,-2.06 -0.08,-4.35 -0.15,-6.41 0,-0.76 -0.08,-1.6 -0.08,-2.37 -0.08,-1.3 -0.15,-3.21 -0.15,-4.58 0,-2.67 0.15,-5.42 0.84,-8.63 l 0.76,-0.08 h -0.15 c 0.92,-0.38 1.83,-0.76 2.9,-0.76 0.69,0 1.45,0.23 2.44,0.76 0.99,1.37 1.07,3.21 1.07,5.04 0,0.69 -0.08,1.37 -0.08,1.99 v 5.42 c 0,1.15 -0.08,2.37 -0.08,3.67 0,5.27 0.15,10.61 0.46,15.12 0,0 -0.23,0.84 -0.23,1.22 0,0.08 -0.08,0.23 -0.08,0.31 0,0.69 -0.08,1.3 -0.46,1.91 -0.92,0.69 -2.83,1.07 -3.89,0.76 -6.87,-4.89 -12.68,-11 -18.48,-17.26 -3.51,-3.82 -7.1,-7.48 -10.77,-10.84 0,0.46 -0.08,0.99 -0.08,1.37 v 2.14 c 0,2.75 0.08,5.5 0.15,7.94 0.08,1.53 0.15,2.9 0.15,4.43 0,0.53 -0.08,1.07 -0.08,1.6 v 1.45 c 0,0.69 -0.08,1.37 -0.08,2.06 v 1.91 c 0,0.23 0.08,0.46 0.08,0.61 v 0.46 c 0.08,1.07 0.08,1.68 -0.92,2.98 l -0.38,0.15 h 0.08 c -0.23,0.15 -0.38,0.23 -0.53,0.23 0,0 0.08,0 -0.08,0.46 -2.52,-0.31 -4.2,-1.45 -5.34,-3.21 0.15,-2.6 0.23,-5.35 0.23,-7.87 0,-4.5 -0.15,-9.01 -0.38,-13.82 l -0.31,-8.55 0.61,-1.15 c 0.15,-0.23 0.38,-0.53 0.3,-1.45 1.6,-0.38 2.44,-0.61 3.59,-0.76 l 1.3,-0.15 0.38,0.38 c 0.08,0.08 0.31,0.15 1.15,0.23 1.91,1.99 4.2,4.2 6.26,6.11 l 1.83,1.68 h -0.08 c 1.91,1.91 4.2,4.05 5.88,6.03 l 6.72,7.03 v -0.08 c 0.15,0.15 0.15,0.31 0.31,0.46 l 0.61,0.84 z"
   id="path573"
   inkscape:connector-curvature="0"
   style="fill:#f12a2a" />
		<path
   class="st34"
   d="m 644.63,100.53 c 0.15,1.45 -0.08,2.6 -0.69,3.59 0,0.08 -0.08,0.53 -0.08,0.84 -4.58,0 -9.77,0.15 -14.13,0.31 -0.76,0 -1.53,0.08 -2.29,0.08 -2.98,0.15 -6.72,0.31 -9.77,0.31 -0.69,0 -1.3,-0.08 -1.83,-0.08 h -1.45 c -0.23,1.15 -0.23,2.67 -0.23,3.74 0,1.07 0,2.06 -0.08,2.98 4.51,-0.23 9.55,-0.38 14.36,-0.38 1.76,0 3.74,0 5.35,0.08 1.15,1.15 1.6,3.97 1.07,6.11 h -3.05 c -4.89,0 -11.76,0.23 -17.18,1.07 -0.15,2.52 -0.15,4.96 -0.15,7.33 0,2.6 0,5.5 0.15,7.79 -0.99,1.3 -3.74,0.92 -4.81,0.76 -1.07,-0.99 -1.37,-2.06 -1.37,-3.51 0,-0.76 0.08,-1.6 0.15,-2.37 0.23,-1.6 0.46,-3.21 -0.15,-4.2 v -2.52 c 0,-2.21 -0.08,-4.81 -0.15,-7.25 -0.08,-2.6 -0.15,-5.04 -0.15,-7.41 0,-1.91 0,-3.74 0.15,-5.34 0,0 -0.08,0 -0.23,-0.15 -0.23,-0.23 -0.46,-0.69 -0.23,-1.76 0.69,-0.61 2.29,-1.6 3.36,-1.68 3.51,0.46 7.64,0.61 11.68,0.61 3.89,0 7.79,-0.15 12.07,-0.31 h 0.84 c 0.76,0 1.53,-0.08 2.29,-0.15 0.15,0 0.23,-0.08 0.38,-0.08 0.61,-0.08 1.3,-0.08 2.06,-0.08 1.22,0 1.99,0.08 2.75,0.15 l 0.46,0.76 c 0.46,0.15 0.61,0.23 0.76,0.38 z"
   id="path575"
   inkscape:connector-curvature="0"
   style="fill:#f12a2a" />
		<path
   class="st34"
   d="m 652.64,100.68 0.61,0.76 c 0,1.3 -0.08,3.05 -0.15,4.2 -0.15,1.37 0,2.75 0.23,3.97 0.15,0.76 0.23,1.83 0.23,2.83 v 1.6 c 0.08,2.9 0.08,7.48 0.08,10.23 0,2.44 0,4.89 0.08,7.94 0.31,0.53 0.08,0.76 -0.3,1.3 0,0 0.08,0 0.3,0.76 -0.84,0 -1.22,0.08 -1.37,0.31 l -1.68,-0.15 c -1.22,-0.08 -2.44,-0.23 -3.05,-1.53 0.15,-0.84 0,-1.37 -0.08,-1.99 -0.08,-0.61 0,-1.15 0.08,-1.68 -0.15,-0.76 -0.15,-1.76 -0.15,-2.75 0,-0.84 0,-2.14 0.08,-2.98 v -1.37 c 0,-0.53 0.08,-0.99 0.08,-1.3 0,-1.22 -0.08,-2.44 -0.31,-3.51 0.08,-0.15 0.38,-0.69 0.31,-0.61 -0.31,-1.76 -0.23,-4.12 -0.23,-6.11 0,-1.22 0,-2.29 -0.08,-3.36 l -0.15,-1.83 c -0.08,-0.84 -0.15,-1.99 -0.15,-2.83 0,-0.76 0,-1.53 0.23,-2.67 0.99,-0.92 3.44,-0.99 4.81,-0.46 z"
   id="path577"
   inkscape:connector-curvature="0"
   style="fill:#f12a2a" />
		<path
   class="st34"
   d="m 686.39,120.77 c 1.37,1.53 2.98,3.13 4.66,4.43 0.08,-0.99 0,-2.14 0,-3.28 0,-2.06 -0.08,-4.35 -0.15,-6.41 0,-0.76 -0.08,-1.6 -0.08,-2.37 -0.08,-1.3 -0.15,-3.21 -0.15,-4.58 0,-2.67 0.15,-5.42 0.84,-8.63 l 0.76,-0.08 h -0.15 c 0.92,-0.38 1.83,-0.76 2.9,-0.76 0.69,0 1.45,0.23 2.44,0.76 0.99,1.37 1.07,3.21 1.07,5.04 0,0.69 -0.08,1.37 -0.08,1.99 v 5.42 c 0,1.15 -0.08,2.37 -0.08,3.67 0,5.27 0.15,10.61 0.46,15.12 0,0 -0.23,0.84 -0.23,1.22 0,0.08 -0.08,0.23 -0.08,0.31 0,0.69 -0.08,1.3 -0.46,1.91 -0.92,0.69 -2.83,1.07 -3.89,0.76 -6.87,-4.89 -12.68,-11 -18.48,-17.26 -3.51,-3.82 -7.1,-7.48 -10.77,-10.84 0,0.46 -0.08,0.99 -0.08,1.37 v 2.14 c 0,2.75 0.08,5.5 0.15,7.94 0.08,1.53 0.15,2.9 0.15,4.43 0,0.53 -0.08,1.07 -0.08,1.6 v 1.45 c 0,0.69 -0.08,1.37 -0.08,2.06 v 1.91 c 0,0.23 0.08,0.46 0.08,0.61 v 0.46 c 0.08,1.07 0.08,1.68 -0.92,2.98 l -0.38,0.15 h 0.08 c -0.23,0.15 -0.38,0.23 -0.53,0.23 0,0 0.08,0 -0.08,0.46 -2.52,-0.31 -4.2,-1.45 -5.34,-3.21 0.15,-2.6 0.23,-5.35 0.23,-7.87 0,-4.5 -0.15,-9.01 -0.38,-13.82 l -0.31,-8.55 0.61,-1.15 c 0.15,-0.23 0.38,-0.53 0.3,-1.45 1.6,-0.38 2.44,-0.61 3.59,-0.76 l 1.3,-0.15 0.38,0.38 c 0.08,0.08 0.31,0.15 1.15,0.23 1.91,1.99 4.2,4.2 6.26,6.11 l 1.83,1.68 h -0.08 c 1.91,1.91 4.2,4.05 5.88,6.03 l 6.72,7.03 v -0.08 c 0.15,0.15 0.15,0.31 0.31,0.46 l 0.61,0.84 z"
   id="path579"
   inkscape:connector-curvature="0"
   style="fill:#f12a2a" />
		<path
   class="st34"
   d="m 731.44,99.54 c 1.07,0.99 2.14,2.37 1.6,4.05 -0.92,1.99 -2.75,1.91 -4.28,1.76 h -0.31 c -0.38,-0.08 -0.76,-0.08 -1.07,-0.08 -2.83,0 -5.88,0.08 -8.86,0.15 -2.14,0.08 -5.04,0.08 -6.95,0.08 -1.68,0 -2.75,0 -4.05,-0.08 -0.08,0.61 -0.08,1.45 -0.08,2.14 0,0.46 -0.08,0.76 -0.08,1.22 0,0.53 -0.08,1.07 -0.08,1.6 0,0.99 0,1.83 -0.08,2.52 3.89,-0.15 7.41,-0.23 10.92,-0.23 2.83,0 5.8,0 8.48,0.23 1.76,0.38 2.9,2.37 2.9,4.43 0,0.84 -0.15,1.76 -0.76,2.6 -3.36,-0.23 -7.25,-0.46 -10.77,-0.46 -3.82,0 -7.64,0.15 -11.23,0.92 v 5.12 c 0,1.07 0.08,1.68 0,2.83 2.83,0.08 5.35,0.15 8.4,0.15 5.42,0 11.23,-0.15 17.41,-0.46 0.31,0 0.76,-0.08 1.3,-0.15 1.53,-0.15 2.98,-0.31 4.2,0.76 0.69,2.14 -0.08,4.89 -1.3,5.65 -5.42,0 -11.68,0.08 -17.49,0.46 -1.37,0.08 -2.9,0.15 -4.28,0.15 -0.76,0 -1.53,0.08 -2.21,0.08 -2.44,0.08 -5.27,0.15 -8.09,0.38 -0.46,-0.46 -0.69,-0.53 -0.92,-0.61 -0.08,0 -0.3,-0.15 -0.3,-0.15 -0.08,0 -0.31,-0.08 -0.38,-0.08 -0.76,-0.3 -1.6,-0.69 -1.91,-0.99 -0.31,-0.61 -0.38,-1.83 -0.38,-3.05 0,-0.84 0.08,-2.14 0.15,-2.98 v -0.38 c -0.08,-5.04 0.23,-10.31 0.53,-14.81 l 0.38,-8.86 c -1.3,-2.06 0,-4.66 1.99,-5.04 3.97,0.38 7.94,0.46 11.84,0.46 h 3.05 c 1.07,0 1.99,-0.08 3.05,-0.08 2.52,-0.08 6.57,-0.08 8.78,-0.08 z"
   id="path581"
   inkscape:connector-curvature="0"
   style="fill:#f12a2a" />
		<path
   class="st34"
   d="m 784.2,134.05 c -0.76,0.53 -1.68,0.76 -2.83,0.76 -1.3,0 -2.98,-0.46 -4.58,-1.45 0.61,0 0.61,0 0.69,0.08 -0.08,-0.15 -0.61,-0.76 -0.61,-0.76 0.08,-2.83 0.15,-6.19 0.15,-9.24 0,-4.81 0,-8.09 -0.31,-12.68 -0.92,0.99 -1.68,1.99 -2.44,3.05 -0.61,0.84 -1.22,1.6 -1.99,2.52 -2.52,3.21 -5.57,6.72 -8.7,9.7 -0.84,-0.38 -1.68,-0.46 -2.44,-0.46 -0.61,-0.69 -1.3,-1.3 -2.44,-1.6 -0.61,-1.15 -1.3,-1.99 -2.21,-2.9 l -1.6,-1.91 c -0.53,-0.69 -0.99,-1.45 -1.37,-2.21 -0.53,-0.84 -1.15,-1.76 -1.83,-2.6 v 0.08 c -0.99,-0.92 -2.29,-2.37 -3.74,-4.28 v 2.9 2.06 c 0,5.57 0,10.16 0.53,15.5 -0.23,0.99 -0.31,2.21 -0.31,3.44 -0.76,0.76 -1.76,1.15 -2.75,1.15 -1.45,0 -2.98,-0.76 -3.97,-1.53 -0.23,-2.67 -0.38,-5.88 -0.38,-9.54 v -2.37 c 0,-0.76 0.08,-1.53 0.08,-2.29 v -2.98 c 0,-0.99 0.08,-2.06 0.08,-3.13 0,-3.28 -0.08,-6.57 -0.3,-9.62 0.23,-0.61 0.23,-1.45 0.23,-2.29 v -0.84 l 1.22,-0.69 c 1.15,-0.46 1.83,-0.69 3.67,-0.92 1.6,0.46 2.44,1.07 3.21,1.83 0.08,0.15 0.46,0.69 0.46,0.69 v -0.15 l 0.15,0.15 c 1.83,2.83 3.89,5.35 5.88,7.64 2.06,2.44 4.43,5.42 6.18,8.4 1.83,-1.68 3.67,-3.97 5.27,-5.88 l 1.91,-2.29 0.84,-1.07 c 1.45,-1.83 2.9,-3.67 4.58,-5.35 0.08,-0.69 0.84,-1.76 1.37,-2.44 l 0.53,-1.07 c 0.99,-0.69 2.06,-0.92 3.13,-0.92 0.99,0 2.37,0.38 3.36,0.61 l 0.38,0.46 c 0.08,0.15 0.15,0.23 0.76,0.76 0.08,3.13 0.08,6.19 0.08,8.63 v 2.6 c 0,4.2 0.08,8.25 0.69,13.52 -0.38,0.69 -0.31,1.68 -0.23,2.44 0.08,0.76 0.15,1.68 -0.08,2.44 0,0.15 0.08,0.53 0.15,0.69 0.08,0.31 0.15,0.69 0.15,1.45 l -0.46,1.6 z"
   id="path583"
   inkscape:connector-curvature="0"
   style="fill:#f12a2a" />
		<path
   class="st34"
   d="m 817.8,99.54 c 1.07,0.99 2.14,2.37 1.6,4.05 -0.92,1.99 -2.75,1.91 -4.28,1.76 h -0.31 c -0.38,-0.08 -0.76,-0.08 -1.07,-0.08 -2.83,0 -5.88,0.08 -8.86,0.15 -2.14,0.08 -5.04,0.08 -6.95,0.08 -1.68,0 -2.75,0 -4.05,-0.08 -0.08,0.61 -0.08,1.45 -0.08,2.14 0,0.46 -0.08,0.76 -0.08,1.22 0,0.53 -0.08,1.07 -0.08,1.6 0,0.99 0,1.83 -0.08,2.52 3.89,-0.15 7.41,-0.23 10.92,-0.23 2.83,0 5.8,0 8.48,0.23 1.76,0.38 2.9,2.37 2.9,4.43 0,0.84 -0.15,1.76 -0.76,2.6 -3.36,-0.23 -7.25,-0.46 -10.77,-0.46 -3.82,0 -7.64,0.15 -11.23,0.92 v 5.12 c 0,1.07 0.08,1.68 0,2.83 2.83,0.08 5.35,0.15 8.4,0.15 5.42,0 11.23,-0.15 17.41,-0.46 0.31,0 0.76,-0.08 1.3,-0.15 1.53,-0.15 2.98,-0.31 4.2,0.76 0.69,2.14 -0.08,4.89 -1.3,5.65 -5.42,0 -11.68,0.08 -17.49,0.46 -1.37,0.08 -2.9,0.15 -4.28,0.15 -0.76,0 -1.53,0.08 -2.21,0.08 -2.44,0.08 -5.27,0.15 -8.09,0.38 -0.46,-0.46 -0.69,-0.53 -0.92,-0.61 -0.08,0 -0.3,-0.15 -0.3,-0.15 -0.08,0 -0.31,-0.08 -0.38,-0.08 -0.76,-0.3 -1.6,-0.69 -1.91,-0.99 -0.31,-0.61 -0.38,-1.83 -0.38,-3.05 0,-0.84 0.08,-2.14 0.15,-2.98 v -0.38 c -0.08,-5.04 0.23,-10.31 0.53,-14.81 l 0.38,-8.86 c -1.3,-2.06 0,-4.66 1.99,-5.04 3.97,0.38 7.94,0.46 11.84,0.46 h 3.05 c 1.07,0 1.99,-0.08 3.05,-0.08 2.52,-0.08 6.57,-0.08 8.78,-0.08 z"
   id="path585"
   inkscape:connector-curvature="0"
   style="fill:#f12a2a" />
		<path
   class="st34"
   d="m 856.74,120.77 c 1.37,1.53 2.98,3.13 4.66,4.43 0.08,-0.99 0,-2.14 0,-3.28 0,-2.06 -0.08,-4.35 -0.15,-6.41 0,-0.76 -0.08,-1.6 -0.08,-2.37 -0.08,-1.3 -0.15,-3.21 -0.15,-4.58 0,-2.67 0.15,-5.42 0.84,-8.63 l 0.76,-0.08 h -0.15 c 0.92,-0.38 1.83,-0.76 2.9,-0.76 0.69,0 1.45,0.23 2.44,0.76 0.99,1.37 1.07,3.21 1.07,5.04 0,0.69 -0.08,1.37 -0.08,1.99 v 5.42 c 0,1.15 -0.08,2.37 -0.08,3.67 0,5.27 0.15,10.61 0.46,15.12 0,0 -0.23,0.84 -0.23,1.22 0,0.08 -0.08,0.23 -0.08,0.31 0,0.69 -0.08,1.3 -0.46,1.91 -0.92,0.69 -2.83,1.07 -3.89,0.76 -6.87,-4.89 -12.68,-11 -18.48,-17.26 -3.51,-3.82 -7.1,-7.48 -10.77,-10.84 0,0.46 -0.08,0.99 -0.08,1.37 v 2.14 c 0,2.75 0.08,5.5 0.15,7.94 0.08,1.53 0.15,2.9 0.15,4.43 0,0.53 -0.08,1.07 -0.08,1.6 v 1.45 c 0,0.69 -0.08,1.37 -0.08,2.06 v 1.91 c 0,0.23 0.08,0.46 0.08,0.61 v 0.46 c 0.08,1.07 0.08,1.68 -0.92,2.98 l -0.38,0.15 h 0.08 c -0.23,0.15 -0.38,0.23 -0.53,0.23 0,0 0.08,0 -0.08,0.46 -2.52,-0.31 -4.2,-1.45 -5.34,-3.21 0.15,-2.6 0.23,-5.35 0.23,-7.87 0,-4.5 -0.15,-9.01 -0.38,-13.82 l -0.31,-8.55 0.61,-1.15 c 0.15,-0.23 0.38,-0.53 0.3,-1.45 1.6,-0.38 2.44,-0.61 3.59,-0.76 l 1.3,-0.15 0.38,0.38 c 0.08,0.08 0.31,0.15 1.15,0.23 1.91,1.99 4.2,4.2 6.26,6.11 l 1.83,1.68 h -0.08 c 1.91,1.91 4.2,4.05 5.88,6.03 l 6.72,7.03 v -0.08 c 0.15,0.15 0.15,0.31 0.31,0.46 l 0.61,0.84 z"
   id="path587"
   inkscape:connector-curvature="0"
   style="fill:#f12a2a" />
		<path
   class="st34"
   d="m 912.86,100.15 c 0.15,0.08 0.38,0.23 0.53,0.46 1.15,1.83 -0.08,5.12 -1.37,5.96 -2.6,0 -5.04,0 -7.33,-0.08 h -2.52 c -0.99,0 -1.83,-0.08 -2.44,-0.08 -1.6,0 -2.98,0.08 -4.43,0.15 h -0.15 c -0.08,1.45 -0.08,2.75 -0.08,4.28 v 1.6 c 0,2.67 0,5.35 0.08,8.17 0.08,2.98 0.08,6.03 0.08,8.86 v 0.61 c 0,0.23 0.08,0.38 0.08,0.53 0.08,1.22 0,2.75 -0.99,4.05 -1.3,0.53 -3.89,0.46 -5.19,-0.46 -0.53,-2.6 -0.69,-5.8 -0.69,-9.24 0,-1.99 0.08,-3.97 0.15,-5.96 v -0.38 c 0,-0.31 0.08,-0.69 0.08,-1.07 v -0.92 c 0.15,-2.98 -0.15,-6.03 -0.46,-8.78 l -0.15,-1.15 c -0.84,-0.23 -1.76,-0.15 -2.67,-0.15 -1.37,0 -2.67,0.08 -4.12,0.23 -1.53,0.15 -2.98,0.23 -4.43,0.23 -1.37,0 -2.52,-0.08 -3.59,-0.31 -1.83,-1.91 -1.91,-3.89 -1.83,-6.34 0.69,-0.38 1.07,-0.61 1.22,-0.99 2.83,0.15 6.19,0.15 9.01,0.15 2.83,0 5.8,0 8.63,-0.08 3.51,-0.08 6.95,-0.08 10.31,-0.08 h 3.89 c 2.83,0 4.73,0 8.09,0.31 z"
   id="path589"
   inkscape:connector-curvature="0"
   style="fill:#f12a2a" />
	</g>
</g>
</svg>