<?xml version="1.0" encoding="UTF-8" standalone="no"?>
<!-- Generator: Adobe Illustrator 24.0.1, SVG Export Plug-In . SVG Version: 6.00 Build 0)  -->

<svg
   xmlns:dc="http://purl.org/dc/elements/1.1/"
   xmlns:cc="http://creativecommons.org/ns#"
   xmlns:rdf="http://www.w3.org/1999/02/22-rdf-syntax-ns#"
   xmlns:svg="http://www.w3.org/2000/svg"
   xmlns="http://www.w3.org/2000/svg"
   xmlns:xlink="http://www.w3.org/1999/xlink"
   xmlns:sodipodi="http://sodipodi.sourceforge.net/DTD/sodipodi-0.dtd"
   xmlns:inkscape="http://www.inkscape.org/namespaces/inkscape"
   version="1.1"
   id="Calque_1"
   x="0px"
   y="0px"
   viewBox="0 0 612.70001 233.89999"
   xml:space="preserve"
   sodipodi:docname="ezosala.svg"
   width="612.70001"
   height="233.89999"
   inkscape:version="0.92.5 (2060ec1f9f, 2020-04-08)"><metadata
   id="metadata568"><rdf:RDF><cc:Work
       rdf:about=""><dc:format>image/svg+xml</dc:format><dc:type
         rdf:resource="http://purl.org/dc/dcmitype/StillImage" /><dc:title></dc:title></cc:Work></rdf:RDF></metadata><defs
   id="defs566" /><sodipodi:namedview
   pagecolor="#ffffff"
   bordercolor="#666666"
   borderopacity="1"
   objecttolerance="10"
   gridtolerance="10"
   guidetolerance="10"
   inkscape:pageopacity="0"
   inkscape:pageshadow="2"
   inkscape:window-width="1920"
   inkscape:window-height="1015"
   id="namedview564"
   showgrid="false"
   fit-margin-top="0"
   fit-margin-left="0"
   fit-margin-right="0"
   fit-margin-bottom="0"
   inkscape:zoom="0.695"
   inkscape:cx="76.853597"
   inkscape:cy="105.65"
   inkscape:window-x="0"
   inkscape:window-y="452"
   inkscape:window-maximized="1"
   inkscape:current-layer="Calque_1" />
<style
   type="text/css"
   id="style2">
	.st0{fill:url(#SVGID_1_);}
	.st1{fill:#DAD0C9;}
	.st2{clip-path:url(#SVGID_3_);}
	.st3{fill:#E0DFDF;}
	.st4{clip-path:url(#SVGID_5_);}
	.st5{clip-path:url(#SVGID_7_);}
	.st6{fill:#ABD3E0;}
	.st7{clip-path:url(#SVGID_9_);}
	.st8{clip-path:url(#SVGID_11_);}
	.st9{fill:#CDECB0;}
	.st10{clip-path:url(#SVGID_13_);}
	.st11{clip-path:url(#SVGID_15_);}
	.st12{clip-path:url(#SVGID_17_);}
	.st13{clip-path:url(#SVGID_19_);}
	.st14{clip-path:url(#SVGID_21_);}
	.st15{clip-path:url(#SVGID_23_);}
	.st16{fill:#FFFFFF;}
	.st17{clip-path:url(#SVGID_25_);}
	.st18{clip-path:url(#SVGID_27_);}
	.st19{clip-path:url(#SVGID_29_);}
	.st20{clip-path:url(#SVGID_31_);}
	.st21{clip-path:url(#SVGID_33_);}
	.st22{clip-path:url(#SVGID_35_);}
	.st23{clip-path:url(#SVGID_37_);}
	.st24{clip-path:url(#SVGID_39_);}
	.st25{clip-path:url(#SVGID_41_);}
	.st26{clip-path:url(#SVGID_43_);}
	.st27{clip-path:url(#SVGID_45_);}
	.st28{clip-path:url(#SVGID_47_);}
	.st29{fill:#FCD6A5;}
	.st30{clip-path:url(#SVGID_49_);}
	.st31{clip-path:url(#SVGID_51_);fill:#E0DFDF;}
	.st32{clip-path:url(#SVGID_53_);fill:#FCD6A5;}
	.st33{clip-path:url(#SVGID_55_);}
	.st34{fill:#F12A2A;}
	.st35{fill:#009A00;}
	.st36{fill:#FFC900;}
	.st37{fill:#0060B1;}
</style>
<g
   id="g561"
   transform="translate(-93.65,-40.75)">
	<g
   id="g541">
		<g
   id="g511">
			
				<linearGradient
   id="SVGID_1_"
   gradientUnits="userSpaceOnUse"
   x1="94.707703"
   y1="1543.0178"
   x2="323.05649"
   y2="1543.0178"
   gradientTransform="translate(0,-1286.6144)">
				<stop
   offset="0"
   style="stop-color:#E0DFDF"
   id="stop4" />
				<stop
   offset="0.0539"
   style="stop-color:#DAD0C9"
   id="stop6" />
				<stop
   offset="0.128"
   style="stop-color:#E0DFDF"
   id="stop8" />
				<stop
   offset="0.8798"
   style="stop-color:#E0DFDF"
   id="stop10" />
				<stop
   offset="0.9445"
   style="stop-color:#DAD0C9"
   id="stop12" />
				<stop
   offset="1"
   style="stop-color:#E0DFDF"
   id="stop14" />
			</linearGradient>
			<path
   class="st0"
   d="M 323.06,238.16 H 94.71 v 25.12 0 c 0.26,6.48 9.12,11.37 21.55,11.37 h 185.51 c 12.56,0 21.16,-4.89 21.29,-11.37 v 0 z"
   id="path17"
   inkscape:connector-curvature="0"
   style="fill:url(#SVGID_1_)" />
			<g
   id="g509">
				<g
   id="g507">
					<g
   id="g505">
						<path
   class="st1"
   d="M 302.69,249.92 H 115.07 c -13.35,0 -22.35,-6.35 -19.97,-14.15 l 32.66,-109.35 c 2.25,-7.93 11.24,-14.28 20.1,-14.28 l 122.57,0.4 c 8.73,0 17.72,6.48 19.97,14.15 l 32.39,108.95 c 2.38,7.81 -6.61,14.28 -20.1,14.28 z"
   id="path19"
   inkscape:connector-curvature="0"
   style="fill:#dad0c9" />
						<g
   id="g503">
							<g
   id="g37">
								<g
   id="g35">
									<g
   id="g33">
										<g
   id="g31">
											<defs
   id="defs22">
												<path
   id="SVGID_2_"
   d="M 302.69,249.92 H 115.07 c -13.35,0 -22.35,-6.35 -19.97,-14.15 l 32.66,-109.35 c 2.25,-7.93 11.24,-14.28 20.1,-14.28 l 122.57,0.4 c 8.73,0 17.72,6.48 19.97,14.15 l 32.39,108.95 c 2.38,7.81 -6.61,14.28 -20.1,14.28 z"
   inkscape:connector-curvature="0" />
											</defs>
											<clipPath
   id="SVGID_3_">
												<use
   xlink:href="#SVGID_2_"
   style="overflow:visible"
   id="use24"
   x="0"
   y="0"
   width="100%"
   height="100%" />
											</clipPath>
											<g
   class="st2"
   clip-path="url(#SVGID_3_)"
   id="g29">
												<polygon
   class="st3"
   points="205.91,170.33 147.33,172.31 122.87,156.58 123.14,153.14 206.83,139.78 "
   id="polygon27"
   style="fill:#e0dfdf" />
											</g>
										</g>
									</g>
								</g>
							</g>
							<g
   id="g55">
								<g
   id="g53">
									<g
   id="g51">
										<g
   id="g49">
											<defs
   id="defs40">
												<path
   id="SVGID_4_"
   d="M 302.69,249.92 H 115.07 c -13.35,0 -22.35,-6.35 -19.97,-14.15 l 32.66,-109.35 c 2.25,-7.93 11.24,-14.28 20.1,-14.28 l 122.57,0.4 c 8.73,0 17.72,6.48 19.97,14.15 l 32.39,108.95 c 2.38,7.81 -6.61,14.28 -20.1,14.28 z"
   inkscape:connector-curvature="0" />
											</defs>
											<clipPath
   id="SVGID_5_">
												<use
   xlink:href="#SVGID_4_"
   style="overflow:visible"
   id="use42"
   x="0"
   y="0"
   width="100%"
   height="100%" />
											</clipPath>
											<g
   class="st4"
   clip-path="url(#SVGID_5_)"
   id="g47">
												<polygon
   class="st3"
   points="304.15,212.51 328.21,210.52 312.74,170.59 283.79,186.33 "
   id="polygon45"
   style="fill:#e0dfdf" />
											</g>
										</g>
									</g>
								</g>
							</g>
							<g
   id="g73">
								<g
   id="g71">
									<g
   id="g69">
										<g
   id="g67">
											<defs
   id="defs58">
												<path
   id="SVGID_6_"
   d="M 302.69,249.92 H 115.07 c -13.35,0 -22.35,-6.35 -19.97,-14.15 l 32.66,-109.35 c 2.25,-7.93 11.24,-14.28 20.1,-14.28 l 122.57,0.4 c 8.73,0 17.72,6.48 19.97,14.15 l 32.39,108.95 c 2.38,7.81 -6.61,14.28 -20.1,14.28 z"
   inkscape:connector-curvature="0" />
											</defs>
											<clipPath
   id="SVGID_7_">
												<use
   xlink:href="#SVGID_6_"
   style="overflow:visible"
   id="use60"
   x="0"
   y="0"
   width="100%"
   height="100%" />
											</clipPath>
											<g
   class="st5"
   clip-path="url(#SVGID_7_)"
   id="g65">
												<polygon
   class="st6"
   points="219.66,222.42 245.31,258.39 209.34,254.42 209.48,220.84 "
   id="polygon63"
   style="fill:#abd3e0" />
											</g>
										</g>
									</g>
								</g>
							</g>
							<g
   id="g91">
								<g
   id="g89">
									<g
   id="g87">
										<g
   id="g85">
											<defs
   id="defs76">
												<path
   id="SVGID_8_"
   d="M 302.69,249.92 H 115.07 c -13.35,0 -22.35,-6.35 -19.97,-14.15 l 32.66,-109.35 c 2.25,-7.93 11.24,-14.28 20.1,-14.28 l 122.57,0.4 c 8.73,0 17.72,6.48 19.97,14.15 l 32.39,108.95 c 2.38,7.81 -6.61,14.28 -20.1,14.28 z"
   inkscape:connector-curvature="0" />
											</defs>
											<clipPath
   id="SVGID_9_">
												<use
   xlink:href="#SVGID_8_"
   style="overflow:visible"
   id="use78"
   x="0"
   y="0"
   width="100%"
   height="100%" />
											</clipPath>
											<g
   class="st7"
   clip-path="url(#SVGID_9_)"
   id="g83">
												<polygon
   class="st6"
   points="115.2,209.73 158.44,209.86 152.09,252.83 103.57,252.83 "
   id="polygon81"
   style="fill:#abd3e0" />
											</g>
										</g>
									</g>
								</g>
							</g>
							<g
   id="g109">
								<g
   id="g107">
									<g
   id="g105">
										<g
   id="g103">
											<defs
   id="defs94">
												<path
   id="SVGID_10_"
   d="M 302.69,249.92 H 115.07 c -13.35,0 -22.35,-6.35 -19.97,-14.15 l 32.66,-109.35 c 2.25,-7.93 11.24,-14.28 20.1,-14.28 l 122.57,0.4 c 8.73,0 17.72,6.48 19.97,14.15 l 32.39,108.95 c 2.38,7.81 -6.61,14.28 -20.1,14.28 z"
   inkscape:connector-curvature="0" />
											</defs>
											<clipPath
   id="SVGID_11_">
												<use
   xlink:href="#SVGID_10_"
   style="overflow:visible"
   id="use96"
   x="0"
   y="0"
   width="100%"
   height="100%" />
											</clipPath>
											<g
   class="st8"
   clip-path="url(#SVGID_11_)"
   id="g101">
												<polygon
   class="st9"
   points="245.97,149.7 243.59,99.45 207.76,99.32 209.48,146.79 "
   id="polygon99"
   style="fill:#cdecb0" />
											</g>
										</g>
									</g>
								</g>
							</g>
							<g
   id="g127">
								<g
   id="g125">
									<g
   id="g123">
										<g
   id="g121">
											<defs
   id="defs112">
												<path
   id="SVGID_12_"
   d="M 302.69,249.92 H 115.07 c -13.35,0 -22.35,-6.35 -19.97,-14.15 l 32.66,-109.35 c 2.25,-7.93 11.24,-14.28 20.1,-14.28 l 122.57,0.4 c 8.73,0 17.72,6.48 19.97,14.15 l 32.39,108.95 c 2.38,7.81 -6.61,14.28 -20.1,14.28 z"
   inkscape:connector-curvature="0" />
											</defs>
											<clipPath
   id="SVGID_13_">
												<use
   xlink:href="#SVGID_12_"
   style="overflow:visible"
   id="use114"
   x="0"
   y="0"
   width="100%"
   height="100%" />
											</clipPath>
											<g
   class="st10"
   clip-path="url(#SVGID_13_)"
   id="g119">
												<polygon
   class="st9"
   points="286.43,143.49 307.32,162 287.62,111.62 271.36,130.66 "
   id="polygon117"
   style="fill:#cdecb0" />
											</g>
										</g>
									</g>
								</g>
							</g>
							<g
   id="g145">
								<g
   id="g143">
									<g
   id="g141">
										<g
   id="g139">
											<defs
   id="defs130">
												<path
   id="SVGID_14_"
   d="M 302.69,249.92 H 115.07 c -13.35,0 -22.35,-6.35 -19.97,-14.15 l 32.66,-109.35 c 2.25,-7.93 11.24,-14.28 20.1,-14.28 l 122.57,0.4 c 8.73,0 17.72,6.48 19.97,14.15 l 32.39,108.95 c 2.38,7.81 -6.61,14.28 -20.1,14.28 z"
   inkscape:connector-curvature="0" />
											</defs>
											<clipPath
   id="SVGID_15_">
												<use
   xlink:href="#SVGID_14_"
   style="overflow:visible"
   id="use132"
   x="0"
   y="0"
   width="100%"
   height="100%" />
											</clipPath>
											<g
   class="st11"
   clip-path="url(#SVGID_15_)"
   id="g137">
												<polygon
   class="st9"
   points="226,221.36 303.36,254.82 335.49,246.88 320.02,211.45 231.29,212.24 "
   id="polygon135"
   style="fill:#cdecb0" />
											</g>
										</g>
									</g>
								</g>
							</g>
							<g
   id="g163">
								<g
   id="g161">
									<g
   id="g159">
										<g
   id="g157">
											<defs
   id="defs148">
												<path
   id="SVGID_16_"
   d="M 302.69,249.92 H 115.07 c -13.35,0 -22.35,-6.35 -19.97,-14.15 l 32.66,-109.35 c 2.25,-7.93 11.24,-14.28 20.1,-14.28 l 122.57,0.4 c 8.73,0 17.72,6.48 19.97,14.15 l 32.39,108.95 c 2.38,7.81 -6.61,14.28 -20.1,14.28 z"
   inkscape:connector-curvature="0" />
											</defs>
											<clipPath
   id="SVGID_17_">
												<use
   xlink:href="#SVGID_16_"
   style="overflow:visible"
   id="use150"
   x="0"
   y="0"
   width="100%"
   height="100%" />
											</clipPath>
											<g
   class="st12"
   clip-path="url(#SVGID_17_)"
   id="g155">
												<polygon
   class="st6"
   points="206.04,138.33 98.81,155.65 107.53,126.56 208.55,110.83 "
   id="polygon153"
   style="fill:#abd3e0" />
											</g>
										</g>
									</g>
								</g>
							</g>
							<g
   id="g181">
								<g
   id="g179">
									<g
   id="g177">
										<g
   id="g175">
											<defs
   id="defs166">
												<path
   id="SVGID_18_"
   d="M 302.69,249.92 H 115.07 c -13.35,0 -22.35,-6.35 -19.97,-14.15 l 32.66,-109.35 c 2.25,-7.93 11.24,-14.28 20.1,-14.28 l 122.57,0.4 c 8.73,0 17.72,6.48 19.97,14.15 l 32.39,108.95 c 2.38,7.81 -6.61,14.28 -20.1,14.28 z"
   inkscape:connector-curvature="0" />
											</defs>
											<clipPath
   id="SVGID_19_">
												<use
   xlink:href="#SVGID_18_"
   style="overflow:visible"
   id="use168"
   x="0"
   y="0"
   width="100%"
   height="100%" />
											</clipPath>
											<g
   class="st13"
   clip-path="url(#SVGID_19_)"
   id="g173">
												<polygon
   class="st6"
   points="305.87,160.28 307.32,173.76 275.99,184.34 249.41,151.95 270.7,128.54 "
   id="polygon171"
   style="fill:#abd3e0" />
											</g>
										</g>
									</g>
								</g>
							</g>
							<g
   id="g199">
								<g
   id="g197">
									<g
   id="g195">
										<g
   id="g193">
											<defs
   id="defs184">
												<path
   id="SVGID_20_"
   d="M 302.69,249.92 H 115.07 c -13.35,0 -22.35,-6.35 -19.97,-14.15 l 32.66,-109.35 c 2.25,-7.93 11.24,-14.28 20.1,-14.28 l 122.57,0.4 c 8.73,0 17.72,6.48 19.97,14.15 l 32.39,108.95 c 2.38,7.81 -6.61,14.28 -20.1,14.28 z"
   inkscape:connector-curvature="0" />
											</defs>
											<clipPath
   id="SVGID_21_">
												<use
   xlink:href="#SVGID_20_"
   style="overflow:visible"
   id="use186"
   x="0"
   y="0"
   width="100%"
   height="100%" />
											</clipPath>
											<g
   class="st14"
   clip-path="url(#SVGID_21_)"
   id="g191">
												<polygon
   class="st9"
   points="190.44,200.61 180.65,211.32 87.96,210.79 86.77,194.66 145.48,174.29 "
   id="polygon189"
   style="fill:#cdecb0" />
											</g>
										</g>
									</g>
								</g>
							</g>
							<g
   id="g217">
								<g
   id="g215">
									<g
   id="g213">
										<g
   id="g211">
											<defs
   id="defs202">
												<path
   id="SVGID_22_"
   d="M 302.69,249.92 H 115.07 c -13.35,0 -22.35,-6.35 -19.97,-14.15 l 32.66,-109.35 c 2.25,-7.93 11.24,-14.28 20.1,-14.28 l 122.57,0.4 c 8.73,0 17.72,6.48 19.97,14.15 l 32.39,108.95 c 2.38,7.81 -6.61,14.28 -20.1,14.28 z"
   inkscape:connector-curvature="0" />
											</defs>
											<clipPath
   id="SVGID_23_">
												<use
   xlink:href="#SVGID_22_"
   style="overflow:visible"
   id="use204"
   x="0"
   y="0"
   width="100%"
   height="100%" />
											</clipPath>
											<g
   class="st15"
   clip-path="url(#SVGID_23_)"
   id="g209">
												<polygon
   class="st16"
   points="242.8,102.5 245.05,109.5 111.24,130 112.16,123.12 "
   id="polygon207"
   style="fill:#ffffff" />
											</g>
										</g>
									</g>
								</g>
							</g>
							<g
   id="g235">
								<g
   id="g233">
									<g
   id="g231">
										<g
   id="g229">
											<defs
   id="defs220">
												<path
   id="SVGID_24_"
   d="M 302.69,249.92 H 115.07 c -13.35,0 -22.35,-6.35 -19.97,-14.15 l 32.66,-109.35 c 2.25,-7.93 11.24,-14.28 20.1,-14.28 l 122.57,0.4 c 8.73,0 17.72,6.48 19.97,14.15 l 32.39,108.95 c 2.38,7.81 -6.61,14.28 -20.1,14.28 z"
   inkscape:connector-curvature="0" />
											</defs>
											<clipPath
   id="SVGID_25_">
												<use
   xlink:href="#SVGID_24_"
   style="overflow:visible"
   id="use222"
   x="0"
   y="0"
   width="100%"
   height="100%" />
											</clipPath>
											<g
   class="st17"
   clip-path="url(#SVGID_25_)"
   id="g227">
												<polygon
   class="st16"
   points="212.65,103.82 214.63,204.31 203.92,204.31 204.98,103.82 "
   id="polygon225"
   style="fill:#ffffff" />
											</g>
										</g>
									</g>
								</g>
							</g>
							<g
   id="g253">
								<g
   id="g251">
									<g
   id="g249">
										<g
   id="g247">
											<defs
   id="defs238">
												<path
   id="SVGID_26_"
   d="M 302.69,249.92 H 115.07 c -13.35,0 -22.35,-6.35 -19.97,-14.15 l 32.66,-109.35 c 2.25,-7.93 11.24,-14.28 20.1,-14.28 l 122.57,0.4 c 8.73,0 17.72,6.48 19.97,14.15 l 32.39,108.95 c 2.38,7.81 -6.61,14.28 -20.1,14.28 z"
   inkscape:connector-curvature="0" />
											</defs>
											<clipPath
   id="SVGID_27_">
												<use
   xlink:href="#SVGID_26_"
   style="overflow:visible"
   id="use240"
   x="0"
   y="0"
   width="100%"
   height="100%" />
											</clipPath>
											<g
   class="st18"
   clip-path="url(#SVGID_27_)"
   id="g245">
												<polygon
   class="st16"
   points="240.29,103.29 247.95,103.69 251.26,151.02 312.48,209.2 304.02,212.77 242.27,152.74 "
   id="polygon243"
   style="fill:#ffffff" />
											</g>
										</g>
									</g>
								</g>
							</g>
							<g
   id="g271">
								<g
   id="g269">
									<g
   id="g267">
										<g
   id="g265">
											<defs
   id="defs256">
												<path
   id="SVGID_28_"
   d="M 302.69,249.92 H 115.07 c -13.35,0 -22.35,-6.35 -19.97,-14.15 l 32.66,-109.35 c 2.25,-7.93 11.24,-14.28 20.1,-14.28 l 122.57,0.4 c 8.73,0 17.72,6.48 19.97,14.15 l 32.39,108.95 c 2.38,7.81 -6.61,14.28 -20.1,14.28 z"
   inkscape:connector-curvature="0" />
											</defs>
											<clipPath
   id="SVGID_29_">
												<use
   xlink:href="#SVGID_28_"
   style="overflow:visible"
   id="use258"
   x="0"
   y="0"
   width="100%"
   height="100%" />
											</clipPath>
											<g
   class="st19"
   clip-path="url(#SVGID_29_)"
   id="g263">
												<polygon
   class="st16"
   points="222.3,207.88 315.12,207.88 317.24,215.02 222.57,214.89 "
   id="polygon261"
   style="fill:#ffffff" />
											</g>
										</g>
									</g>
								</g>
							</g>
							<g
   id="g289">
								<g
   id="g287">
									<g
   id="g285">
										<g
   id="g283">
											<defs
   id="defs274">
												<path
   id="SVGID_30_"
   d="M 302.69,249.92 H 115.07 c -13.35,0 -22.35,-6.35 -19.97,-14.15 l 32.66,-109.35 c 2.25,-7.93 11.24,-14.28 20.1,-14.28 l 122.57,0.4 c 8.73,0 17.72,6.48 19.97,14.15 l 32.39,108.95 c 2.38,7.81 -6.61,14.28 -20.1,14.28 z"
   inkscape:connector-curvature="0" />
											</defs>
											<clipPath
   id="SVGID_31_">
												<use
   xlink:href="#SVGID_30_"
   style="overflow:visible"
   id="use276"
   x="0"
   y="0"
   width="100%"
   height="100%" />
											</clipPath>
											<g
   class="st20"
   clip-path="url(#SVGID_31_)"
   id="g281">
												<polygon
   class="st16"
   points="210.27,143.35 244.78,148.11 282.6,113.07 289.6,118.23 248.75,155.78 208.68,150.36 "
   id="polygon279"
   style="fill:#ffffff" />
											</g>
										</g>
									</g>
								</g>
							</g>
							<g
   id="g307">
								<g
   id="g305">
									<g
   id="g303">
										<g
   id="g301">
											<defs
   id="defs292">
												<path
   id="SVGID_32_"
   d="M 302.69,249.92 H 115.07 c -13.35,0 -22.35,-6.35 -19.97,-14.15 l 32.66,-109.35 c 2.25,-7.93 11.24,-14.28 20.1,-14.28 l 122.57,0.4 c 8.73,0 17.72,6.48 19.97,14.15 l 32.39,108.95 c 2.38,7.81 -6.61,14.28 -20.1,14.28 z"
   inkscape:connector-curvature="0" />
											</defs>
											<clipPath
   id="SVGID_33_">
												<use
   xlink:href="#SVGID_32_"
   style="overflow:visible"
   id="use294"
   x="0"
   y="0"
   width="100%"
   height="100%" />
											</clipPath>
											<g
   class="st21"
   clip-path="url(#SVGID_33_)"
   id="g299">
												<polygon
   class="st16"
   points="276.91,126.03 307.59,156.31 300.58,159.88 270.43,129.73 "
   id="polygon297"
   style="fill:#ffffff" />
											</g>
										</g>
									</g>
								</g>
							</g>
							<g
   id="g325">
								<g
   id="g323">
									<g
   id="g321">
										<g
   id="g319">
											<defs
   id="defs310">
												<path
   id="SVGID_34_"
   d="M 302.69,249.92 H 115.07 c -13.35,0 -22.35,-6.35 -19.97,-14.15 l 32.66,-109.35 c 2.25,-7.93 11.24,-14.28 20.1,-14.28 l 122.57,0.4 c 8.73,0 17.72,6.48 19.97,14.15 l 32.39,108.95 c 2.38,7.81 -6.61,14.28 -20.1,14.28 z"
   inkscape:connector-curvature="0" />
											</defs>
											<clipPath
   id="SVGID_35_">
												<use
   xlink:href="#SVGID_34_"
   style="overflow:visible"
   id="use312"
   x="0"
   y="0"
   width="100%"
   height="100%" />
											</clipPath>
											<g
   class="st22"
   clip-path="url(#SVGID_35_)"
   id="g317">
												<polygon
   class="st16"
   points="305.07,169 311.95,175.09 282.46,189.1 275.85,183.02 "
   id="polygon315"
   style="fill:#ffffff" />
											</g>
										</g>
									</g>
								</g>
							</g>
							<g
   id="g343">
								<g
   id="g341">
									<g
   id="g339">
										<g
   id="g337">
											<defs
   id="defs328">
												<path
   id="SVGID_36_"
   d="M 302.69,249.92 H 115.07 c -13.35,0 -22.35,-6.35 -19.97,-14.15 l 32.66,-109.35 c 2.25,-7.93 11.24,-14.28 20.1,-14.28 l 122.57,0.4 c 8.73,0 17.72,6.48 19.97,14.15 l 32.39,108.95 c 2.38,7.81 -6.61,14.28 -20.1,14.28 z"
   inkscape:connector-curvature="0" />
											</defs>
											<clipPath
   id="SVGID_37_">
												<use
   xlink:href="#SVGID_36_"
   style="overflow:visible"
   id="use330"
   x="0"
   y="0"
   width="100%"
   height="100%" />
											</clipPath>
											<g
   class="st23"
   clip-path="url(#SVGID_37_)"
   id="g335">
												<polygon
   class="st16"
   points="145.22,170.46 209.34,168.87 209.61,176.01 146.41,177.6 94.31,194.92 91.67,188.57 "
   id="polygon333"
   style="fill:#ffffff" />
											</g>
										</g>
									</g>
								</g>
							</g>
							<g
   id="g361">
								<g
   id="g359">
									<g
   id="g357">
										<g
   id="g355">
											<defs
   id="defs346">
												<path
   id="SVGID_38_"
   d="M 302.69,249.92 H 115.07 c -13.35,0 -22.35,-6.35 -19.97,-14.15 l 32.66,-109.35 c 2.25,-7.93 11.24,-14.28 20.1,-14.28 l 122.57,0.4 c 8.73,0 17.72,6.48 19.97,14.15 l 32.39,108.95 c 2.38,7.81 -6.61,14.28 -20.1,14.28 z"
   inkscape:connector-curvature="0" />
											</defs>
											<clipPath
   id="SVGID_39_">
												<use
   xlink:href="#SVGID_38_"
   style="overflow:visible"
   id="use348"
   x="0"
   y="0"
   width="100%"
   height="100%" />
											</clipPath>
											<g
   class="st24"
   clip-path="url(#SVGID_39_)"
   id="g353">
												<polygon
   class="st16"
   points="95.37,206.69 198.63,206.82 198.37,213.83 93.12,213.83 "
   id="polygon351"
   style="fill:#ffffff" />
											</g>
										</g>
									</g>
								</g>
							</g>
							<g
   id="g379">
								<g
   id="g377">
									<g
   id="g375">
										<g
   id="g373">
											<defs
   id="defs364">
												<path
   id="SVGID_40_"
   d="M 302.69,249.92 H 115.07 c -13.35,0 -22.35,-6.35 -19.97,-14.15 l 32.66,-109.35 c 2.25,-7.93 11.24,-14.28 20.1,-14.28 l 122.57,0.4 c 8.73,0 17.72,6.48 19.97,14.15 l 32.39,108.95 c 2.38,7.81 -6.61,14.28 -20.1,14.28 z"
   inkscape:connector-curvature="0" />
											</defs>
											<clipPath
   id="SVGID_41_">
												<use
   xlink:href="#SVGID_40_"
   style="overflow:visible"
   id="use366"
   x="0"
   y="0"
   width="100%"
   height="100%" />
											</clipPath>
											<g
   class="st25"
   clip-path="url(#SVGID_41_)"
   id="g371">
												<polygon
   class="st16"
   points="108.72,210.92 119.57,210.92 108.86,252.83 96.56,252.83 "
   id="polygon369"
   style="fill:#ffffff" />
											</g>
										</g>
									</g>
								</g>
							</g>
							<g
   id="g397">
								<g
   id="g395">
									<g
   id="g393">
										<g
   id="g391">
											<defs
   id="defs382">
												<path
   id="SVGID_42_"
   d="M 302.69,249.92 H 115.07 c -13.35,0 -22.35,-6.35 -19.97,-14.15 l 32.66,-109.35 c 2.25,-7.93 11.24,-14.28 20.1,-14.28 l 122.57,0.4 c 8.73,0 17.72,6.48 19.97,14.15 l 32.39,108.95 c 2.38,7.81 -6.61,14.28 -20.1,14.28 z"
   inkscape:connector-curvature="0" />
											</defs>
											<clipPath
   id="SVGID_43_">
												<use
   xlink:href="#SVGID_42_"
   style="overflow:visible"
   id="use384"
   x="0"
   y="0"
   width="100%"
   height="100%" />
											</clipPath>
											<g
   class="st26"
   clip-path="url(#SVGID_43_)"
   id="g389">
												<polygon
   class="st16"
   points="151.17,210.92 162.14,211.05 156.85,250.85 144.56,250.85 "
   id="polygon387"
   style="fill:#ffffff" />
											</g>
										</g>
									</g>
								</g>
							</g>
							<g
   id="g415">
								<g
   id="g413">
									<g
   id="g411">
										<g
   id="g409">
											<defs
   id="defs400">
												<path
   id="SVGID_44_"
   d="M 302.69,249.92 H 115.07 c -13.35,0 -22.35,-6.35 -19.97,-14.15 l 32.66,-109.35 c 2.25,-7.93 11.24,-14.28 20.1,-14.28 l 122.57,0.4 c 8.73,0 17.72,6.48 19.97,14.15 l 32.39,108.95 c 2.38,7.81 -6.61,14.28 -20.1,14.28 z"
   inkscape:connector-curvature="0" />
											</defs>
											<clipPath
   id="SVGID_45_">
												<use
   xlink:href="#SVGID_44_"
   style="overflow:visible"
   id="use402"
   x="0"
   y="0"
   width="100%"
   height="100%" />
											</clipPath>
											<g
   class="st27"
   clip-path="url(#SVGID_45_)"
   id="g407">
												<polygon
   class="st16"
   points="214.5,250.85 202.34,250.85 203.26,197.83 246.76,251.38 235.92,254.42 214.24,228.9 "
   id="polygon405"
   style="fill:#ffffff" />
											</g>
										</g>
									</g>
								</g>
							</g>
							<g
   id="g433">
								<g
   id="g431">
									<g
   id="g429">
										<g
   id="g427">
											<defs
   id="defs418">
												<path
   id="SVGID_46_"
   d="M 302.69,249.92 H 115.07 c -13.35,0 -22.35,-6.35 -19.97,-14.15 l 32.66,-109.35 c 2.25,-7.93 11.24,-14.28 20.1,-14.28 l 122.57,0.4 c 8.73,0 17.72,6.48 19.97,14.15 l 32.39,108.95 c 2.38,7.81 -6.61,14.28 -20.1,14.28 z"
   inkscape:connector-curvature="0" />
											</defs>
											<clipPath
   id="SVGID_47_">
												<use
   xlink:href="#SVGID_46_"
   style="overflow:visible"
   id="use420"
   x="0"
   y="0"
   width="100%"
   height="100%" />
											</clipPath>
											<g
   class="st28"
   clip-path="url(#SVGID_47_)"
   id="g425">
												<polygon
   class="st29"
   points="226.14,214.62 300.98,250.19 294.36,255.61 219.26,220.04 "
   id="polygon423"
   style="fill:#fcd6a5" />
											</g>
										</g>
									</g>
								</g>
							</g>
							<g
   id="g451">
								<g
   id="g449">
									<g
   id="g447">
										<g
   id="g445">
											<defs
   id="defs436">
												<path
   id="SVGID_48_"
   d="M 302.69,249.92 H 115.07 c -13.35,0 -22.35,-6.35 -19.97,-14.15 l 32.66,-109.35 c 2.25,-7.93 11.24,-14.28 20.1,-14.28 l 122.57,0.4 c 8.73,0 17.72,6.48 19.97,14.15 l 32.39,108.95 c 2.38,7.81 -6.61,14.28 -20.1,14.28 z"
   inkscape:connector-curvature="0" />
											</defs>
											<clipPath
   id="SVGID_49_">
												<use
   xlink:href="#SVGID_48_"
   style="overflow:visible"
   id="use438"
   x="0"
   y="0"
   width="100%"
   height="100%" />
											</clipPath>
											<g
   class="st30"
   clip-path="url(#SVGID_49_)"
   id="g443">
												<polygon
   class="st29"
   points="118.64,147.45 209.74,207.61 202.6,213.03 111.1,152.87 "
   id="polygon441"
   style="fill:#fcd6a5" />
											</g>
										</g>
									</g>
								</g>
							</g>
							<g
   id="g467">
								<g
   id="g465">
									<g
   id="g463">
										<g
   id="g461">
											<defs
   id="defs454">
												<path
   id="SVGID_50_"
   d="M 302.69,249.92 H 115.07 c -13.35,0 -22.35,-6.35 -19.97,-14.15 l 32.66,-109.35 c 2.25,-7.93 11.24,-14.28 20.1,-14.28 l 122.57,0.4 c 8.73,0 17.72,6.48 19.97,14.15 l 32.39,108.95 c 2.38,7.81 -6.61,14.28 -20.1,14.28 z"
   inkscape:connector-curvature="0" />
											</defs>
											<clipPath
   id="SVGID_51_">
												<use
   xlink:href="#SVGID_50_"
   style="overflow:visible"
   id="use456"
   x="0"
   y="0"
   width="100%"
   height="100%" />
											</clipPath>
											<path
   class="st31"
   d="m 237.24,211.58 c 0.79,10.05 -11.9,18.25 -28.3,18.25 -16.4,0 -29.09,-8.2 -28.3,-18.25 0.79,-10.05 13.49,-18.25 28.3,-18.25 14.82,0 27.51,8.2 28.3,18.25 z"
   clip-path="url(#SVGID_51_)"
   id="path459"
   inkscape:connector-curvature="0"
   style="fill:#e0dfdf" />
										</g>
									</g>
								</g>
							</g>
							<g
   id="g483">
								<g
   id="g481">
									<g
   id="g479">
										<g
   id="g477">
											<defs
   id="defs470">
												<path
   id="SVGID_52_"
   d="M 302.69,249.92 H 115.07 c -13.35,0 -22.35,-6.35 -19.97,-14.15 l 32.66,-109.35 c 2.25,-7.93 11.24,-14.28 20.1,-14.28 l 122.57,0.4 c 8.73,0 17.72,6.48 19.97,14.15 l 32.39,108.95 c 2.38,7.81 -6.61,14.28 -20.1,14.28 z"
   inkscape:connector-curvature="0" />
											</defs>
											<clipPath
   id="SVGID_53_">
												<use
   xlink:href="#SVGID_52_"
   style="overflow:visible"
   id="use472"
   x="0"
   y="0"
   width="100%"
   height="100%" />
											</clipPath>
											<path
   class="st32"
   d="m 208.95,233.4 c -19.83,0 -34.91,-9.78 -33.72,-21.82 1.19,-12.03 16.26,-21.82 33.85,-21.82 17.45,0 32.66,9.78 33.72,21.82 1.06,12.03 -14.15,21.82 -33.85,21.82 z m 0,-36.5 c -12.03,0 -22.35,6.61 -22.87,14.68 -0.53,8.07 9.65,14.68 22.74,14.68 13.09,0 23.27,-6.61 22.87,-14.68 -0.53,-8.07 -10.71,-14.68 -22.74,-14.68 z"
   clip-path="url(#SVGID_53_)"
   id="path475"
   inkscape:connector-curvature="0"
   style="fill:#fcd6a5" />
										</g>
									</g>
								</g>
							</g>
							<g
   id="g501">
								<g
   id="g499">
									<g
   id="g497">
										<g
   id="g495">
											<defs
   id="defs486">
												<path
   id="SVGID_54_"
   d="M 302.69,249.92 H 115.07 c -13.35,0 -22.35,-6.35 -19.97,-14.15 l 32.66,-109.35 c 2.25,-7.93 11.24,-14.28 20.1,-14.28 l 122.57,0.4 c 8.73,0 17.72,6.48 19.97,14.15 l 32.39,108.95 c 2.38,7.81 -6.61,14.28 -20.1,14.28 z"
   inkscape:connector-curvature="0" />
											</defs>
											<clipPath
   id="SVGID_55_">
												<use
   xlink:href="#SVGID_54_"
   style="overflow:visible"
   id="use488"
   x="0"
   y="0"
   width="100%"
   height="100%" />
											</clipPath>
											<g
   class="st33"
   clip-path="url(#SVGID_55_)"
   id="g493">
												<polygon
   class="st16"
   points="207.89,133.57 209.74,140.44 104.36,157.63 104.76,150.63 "
   id="polygon491"
   style="fill:#ffffff" />
											</g>
										</g>
									</g>
								</g>
							</g>
						</g>
					</g>
				</g>
			</g>
		</g>
		<path
   class="st34"
   d="m 208.02,40.75 c -34.11,0 -61.88,27.77 -61.88,61.88 0,42.31 55.4,104.46 57.65,107.1 2.25,2.51 6.08,2.51 8.33,0 2.38,-2.64 57.65,-64.79 57.65,-107.1 0,-34.12 -27.63,-61.88 -61.75,-61.88 z"
   id="path513"
   inkscape:connector-curvature="0"
   style="fill:#f12a2a" />
		<path
   class="st35"
   d="m 114.81,168.61 c -11.64,0 -21.16,9.52 -21.16,21.16 0,14.54 18.91,35.83 19.83,36.76 0.79,0.79 2.12,0.79 2.78,0 0.79,-0.93 19.83,-22.21 19.83,-36.76 0,-11.64 -9.52,-21.16 -21.28,-21.16 z"
   id="path515"
   inkscape:connector-curvature="0"
   style="fill:#009a00" />
		<path
   class="st36"
   d="m 301.9,116.64 c -11.64,0 -21.16,9.52 -21.16,21.16 0,14.54 18.91,35.83 19.83,36.76 0.79,0.79 2.12,0.79 2.78,0 0.79,-0.93 19.83,-22.21 19.83,-36.76 -0.12,-11.64 -9.51,-21.16 -21.28,-21.16 z"
   id="path517"
   inkscape:connector-curvature="0"
   style="fill:#ffc900" />
		<path
   class="st37"
   d="m 269.9,182.36 c -11.64,0 -21.16,9.52 -21.16,21.16 0,14.54 18.91,35.83 19.83,36.76 0.79,0.79 2.12,0.79 2.78,0 0.79,-0.93 19.83,-22.21 19.83,-36.76 -0.12,-11.64 -9.64,-21.16 -21.28,-21.16 z"
   id="path519"
   inkscape:connector-curvature="0"
   style="fill:#0060b1" />
		<g
   id="g525">
			<g
   id="g523">
				<path
   class="st16"
   d="m 279.29,201 c -2.51,-3.57 -5.69,-2.78 -7.67,-2.25 -0.26,0 -0.4,0.13 -0.66,0.13 0.26,-2.25 1.45,-3.97 3.57,-5.29 l -0.93,-1.45 c -1.19,0.66 -2.12,1.45 -2.78,2.38 -0.26,-0.79 -0.66,-1.59 -1.19,-2.12 -1.06,-1.06 -2.64,-1.59 -4.76,-1.59 h -0.79 v 0.79 c 0,2.12 0.53,3.7 1.59,4.76 0.93,0.93 2.12,1.45 3.7,1.59 0,0.26 -0.13,0.53 -0.13,0.79 -0.26,0 -0.53,-0.13 -0.79,-0.13 -2.12,-0.53 -5.16,-1.32 -7.67,2.25 -1.19,1.72 -1.59,4.1 -1.06,6.74 0.66,3.17 2.51,6.48 4.36,7.67 2.25,1.45 4.1,0.79 5.29,0.4 0.26,-0.13 0.66,-0.26 0.79,-0.26 0.13,0 0.53,0.13 0.79,0.26 0.66,0.26 1.45,0.53 2.38,0.53 0.79,0 1.85,-0.26 2.78,-0.93 1.85,-1.19 3.7,-4.5 4.36,-7.67 0.41,-2.5 0.01,-4.75 -1.18,-6.6 z"
   id="path521"
   inkscape:connector-curvature="0"
   style="fill:#ffffff" />
			</g>
		</g>
		<g
   id="g533">
			<g
   id="g531">
				<path
   class="st16"
   d="m 293.17,134.89 c 0.26,0.13 1.06,0.79 2.51,1.72 1.32,0.93 2.38,1.72 3.17,2.25 0.13,0 0.26,0.13 0.53,0.4 0.26,0.13 0.53,0.4 0.66,0.4 0.13,0.13 0.4,0.26 0.66,0.4 0.26,0.14 0.53,0.26 0.66,0.26 0.26,0.13 0.4,0.13 0.66,0.13 v 0 0 c 0.13,0 0.4,0 0.66,-0.13 0.26,-0.13 0.4,-0.13 0.66,-0.26 0.26,-0.13 0.4,-0.26 0.66,-0.4 0.13,-0.13 0.4,-0.26 0.66,-0.4 0.26,-0.13 0.4,-0.26 0.53,-0.4 0.79,-0.53 2.64,-1.85 5.69,-3.97 0.53,-0.4 1.06,-0.93 1.45,-1.45 0.39,-0.52 0.53,-1.19 0.53,-1.85 0,-0.53 -0.13,-0.93 -0.53,-1.32 -0.4,-0.4 -0.79,-0.53 -1.32,-0.53 h -17.72 c -0.66,0 -1.06,0.26 -1.45,0.66 -0.4,0.4 -0.53,0.93 -0.53,1.59 0,0.53 0.26,1.06 0.66,1.59 0.28,0.52 0.68,0.91 1.2,1.31 z"
   id="path527"
   inkscape:connector-curvature="0"
   style="fill:#ffffff" />
				<path
   class="st16"
   d="m 311.42,136.08 c -2.64,1.72 -4.63,3.17 -5.95,4.1 -0.4,0.4 -0.79,0.66 -1.06,0.79 -0.27,0.13 -0.66,0.4 -1.19,0.53 -0.53,0.13 -0.93,0.26 -1.32,0.26 v 0 0 c -0.4,0 -0.79,-0.13 -1.32,-0.26 -0.53,-0.13 -0.79,-0.4 -1.19,-0.53 -0.26,-0.13 -0.66,-0.4 -1.06,-0.79 -1.06,-0.79 -3.04,-2.12 -5.95,-4.1 -0.4,-0.26 -0.93,-0.66 -1.19,-1.06 v 9.52 c 0,0.53 0.13,0.93 0.53,1.32 0.4,0.4 0.79,0.53 1.32,0.53 h 17.72 c 0.53,0 0.93,-0.13 1.32,-0.53 0.4,-0.4 0.53,-0.79 0.53,-1.32 v -9.52 c -0.26,0.4 -0.66,0.8 -1.19,1.06 z"
   id="path529"
   inkscape:connector-curvature="0"
   style="fill:#ffffff" />
			</g>
		</g>
		<path
   class="st16"
   d="m 118.38,202.19 h -7.14 c -0.4,0 -0.66,-0.26 -0.66,-0.66 v -6.48 h -6.61 c -0.4,0 -0.66,-0.26 -0.66,-0.66 v -7.14 c 0,-0.4 0.26,-0.66 0.66,-0.66 h 6.48 v -6.48 c 0,-0.4 0.26,-0.66 0.66,-0.66 h 7.14 c 0.4,0 0.66,0.26 0.66,0.66 v 6.48 h 6.48 c 0.4,0 0.66,0.26 0.66,0.66 v 7.14 c 0,0.4 -0.26,0.66 -0.66,0.66 h -6.48 v 6.48 c 0.13,0.4 -0.14,0.66 -0.53,0.66 z"
   id="path535"
   inkscape:connector-curvature="0"
   style="fill:#ffffff" />
		<circle
   class="st16"
   cx="208.28999"
   cy="103.55"
   r="42.970001"
   id="circle537"
   style="fill:#ffffff" />
		<path
   class="st34"
   d="m 237.51,80.28 c -0.66,-1.45 -1.45,-2.25 -3.17,-3.44 -1.45,-1.06 -3.7,-0.53 -4.89,0.66 -6.21,6.08 -12.16,12.56 -17.59,19.3 -2.64,3.31 -6.48,7.27 -8.86,11.5 -1.19,-0.93 -2.25,-1.85 -3.31,-2.78 -3.44,-3.17 -7.14,-7.14 -11.5,-9.12 -3.57,-1.72 -6.21,-0.13 -8.46,2.78 -0.66,0.93 -1.45,2.38 -1.45,3.57 -0.93,0.93 -1.19,2.51 0,3.97 7.54,9.26 16.92,16.53 26.84,23.14 1.32,0.93 3.83,0.66 4.89,-0.66 10.71,-13.62 20.76,-28.69 29.49,-43.63 1.58,-2.64 -0.01,-4.76 -1.99,-5.29 z"
   id="path539"
   inkscape:connector-curvature="0"
   style="fill:#f12a2a" />
	</g>
	<g
   id="g549">
		<path
   class="st36"
   d="m 445.59,73.09 c 2.91,2.71 5.83,6.45 4.37,11.03 -2.5,5.41 -7.49,5.2 -11.65,4.79 h -0.83 c -1.04,-0.21 -2.08,-0.21 -2.91,-0.21 -7.7,0 -16.02,0.21 -24.14,0.42 -5.83,0.21 -13.74,0.21 -18.94,0.21 -4.58,0 -7.49,0 -11.03,-0.21 -0.21,1.67 -0.21,3.95 -0.21,5.83 0,1.25 -0.21,2.08 -0.21,3.33 0,1.46 -0.21,2.91 -0.21,4.37 0,2.71 0,5 -0.21,6.87 10.61,-0.42 20.19,-0.63 29.76,-0.63 7.7,0 15.82,0 23.1,0.63 4.79,1.04 7.91,6.45 7.91,12.07 0,2.29 -0.42,4.79 -2.08,7.08 -9.16,-0.62 -19.77,-1.25 -29.34,-1.25 -10.41,0 -20.81,0.42 -30.59,2.5 v 13.94 c 0,2.91 0.21,4.58 0,7.7 7.7,0.21 14.57,0.42 22.89,0.42 14.78,0 30.59,-0.42 47.45,-1.25 0.83,0 2.08,-0.21 3.54,-0.42 4.16,-0.42 8.12,-0.83 11.45,2.08 1.87,5.83 -0.21,13.32 -3.54,15.4 -14.78,0 -31.84,0.21 -47.66,1.25 -3.75,0.21 -7.91,0.42 -11.65,0.42 -2.08,0 -4.16,0.21 -6.03,0.21 -6.66,0.21 -14.36,0.42 -22.06,1.04 -1.25,-1.25 -1.87,-1.46 -2.5,-1.67 -0.21,0 -0.83,-0.42 -0.83,-0.42 -0.21,0 -0.83,-0.21 -1.04,-0.21 -2.08,-0.83 -4.37,-1.87 -5.2,-2.71 -0.83,-1.66 -1.04,-4.99 -1.04,-8.32 0,-2.29 0.21,-5.83 0.42,-8.12 v -1.04 c -0.21,-13.74 0.62,-28.09 1.46,-40.37 l 1.04,-24.14 c -3.54,-5.62 0,-12.69 5.41,-13.74 10.82,1.04 21.64,1.25 32.26,1.25 h 8.32 c 2.91,0 5.41,-0.21 8.32,-0.21 6.87,-0.21 17.9,-0.21 23.93,-0.21 z"
   id="path543"
   inkscape:connector-curvature="0"
   style="fill:#ffc900" />
		<path
   class="st36"
   d="m 502.85,148.63 c 8.74,-0.21 17.48,-0.83 26.64,-1.67 11.86,-1.04 25.39,-1.87 37.67,-1.87 3.95,0 8.53,0 12.07,0.21 4.58,0.63 8.12,6.45 8.12,11.45 0,2.5 -1.04,4.79 -3.33,7.7 -2.5,-0.21 -4.79,-0.21 -7.08,-0.21 -2.91,0 -4.37,-0.21 -6.66,-0.62 -2.5,0.83 -4.37,0.83 -6.66,0 -16.02,1.04 -34.75,2.08 -46.2,3.33 -1.46,0.21 -2.71,0.42 -4.16,0.83 l -2.5,0.83 c -2.08,0.21 -3.95,0.21 -6.45,0.21 -2.08,0 -3.95,0 -6.04,0.21 l -2.29,0.42 c -2.29,0.42 -5.2,0.62 -7.7,0.62 -2.08,0 -4.37,-0.21 -7.08,-1.04 -0.42,-0.63 -0.83,-1.25 -3.33,-1.04 -0.42,-2.08 -1.04,-4.16 -1.87,-5.83 -1.04,-3.12 -2.08,-6.24 -1.04,-10.61 4.16,-8.12 15.19,-17.06 24.14,-22.27 l 7.08,-4.79 5.41,-4.37 c 6.87,-5 13.53,-10.41 22.48,-14.78 3.95,-4.37 9.36,-8.95 14.15,-12.28 1.46,-1.25 3.95,-3.12 5.83,-4.99 l 1.25,-1.04 c -5.41,0.21 -12.49,0.83 -17.69,1.25 l -11.24,0.62 c -13.73,0.83 -29.34,1.46 -41.2,1.87 -1.25,0 -2.5,-0.83 -3.33,-1.25 h -1.87 c -2.71,-3.95 -5.83,-9.57 -3.75,-15.82 l 22.68,-1.04 c 8.53,-0.21 16.86,-0.63 25.18,-1.04 l 25.39,-1.25 c 3.95,-0.21 11.03,-0.42 16.86,-0.42 h 8.53 c 3.75,3.54 9.78,9.99 7.49,17.69 0.21,2.5 -1.25,2.29 -37.25,29.76 l -18.11,13.53 c -8.74,6.25 -15.4,11.04 -24.14,17.7 z"
   id="path545"
   inkscape:connector-curvature="0"
   style="fill:#ffc900" />
		<path
   class="st36"
   d="m 591.45,144.47 c -1.66,-5.83 -2.29,-11.86 -2.29,-17.48 0,-17.48 6.45,-34.34 16.86,-45.16 2.29,-0.62 3.12,-1.25 4.16,-2.08 h -0.21 l 0.42,-0.21 1.87,-1.25 h -0.21 l 3.75,-2.71 c 5.83,-2.08 13.53,-2.71 20.81,-3.33 l 4.58,-0.42 c 2.91,-0.42 6.87,-0.42 9.57,-0.42 9.57,0 18.73,1.25 26.22,2.71 l 3.75,2.71 c 0.21,0.21 1.04,0.63 3.12,1.46 l 1.87,2.5 c 7.28,8.53 17.9,20.81 19.15,34.75 0.83,9.57 -0.83,18.73 -1.87,25.81 0,0.21 -0.83,1.46 -1.25,1.87 -0.21,0.42 -0.63,0.42 -0.63,1.04 -2.5,4.16 -4.79,8.12 -6.66,10.41 l -3.12,2.91 c -0.42,0.42 -1.04,0.62 -1.46,0.83 l -4.99,4.99 c -11.24,5.41 -23.93,7.49 -36.63,7.49 -9.57,0 -19.15,-1.04 -28.3,-2.5 -13.11,-3.54 -22.48,-9.99 -27.05,-22.06 -0.42,0 -0.83,-0.42 -0.83,-1.25 0,0 -0.21,0.21 0,-0.21 z M 618.5,95.15 c 1.25,-0.42 -0.83,1.67 -2.5,3.33 l -1.87,1.87 v -0.21 c -6.03,7.91 -9.99,18.31 -9.99,29.55 0,3.54 0.62,8.53 1.67,12.69 1.04,0.62 1.66,1.67 2.29,3.12 8.12,5.41 21.85,8.74 34.96,8.74 12.9,0 26.64,-3.54 34.75,-9.16 h -0.21 c 6.87,-6.87 11.65,-22.89 11.86,-36.63 -0.62,-2.71 -2.08,-5.62 -3.54,-8.32 l -0.42,-1.04 c -0.21,-0.21 -0.42,-0.42 -0.42,-0.62 -6.03,-5.2 -14.78,-9.16 -25.6,-9.57 -12.26,-0.21 -29.74,0 -40.98,6.25 z m 84.49,46.2 c 0.21,0 0.21,0.21 0,0.41 z"
   id="path547"
   inkscape:connector-curvature="0"
   style="fill:#ffc900" />
	</g>
	<g
   id="g559">
		<path
   class="st35"
   d="m 424.67,193.62 c 5.35,3.08 13.28,10.37 13.28,17.5 0,2.11 -0.65,4.21 -2.27,6.32 -2.59,1.13 -6.48,-0.16 -8.42,-1.3 l -0.49,-3.73 c -0.16,-1.94 -0.65,-3.73 -1.3,-4.86 l -2.59,-0.97 c -0.16,0 -0.49,-0.16 -0.97,-0.65 -4.54,0.49 -9.4,0.65 -13.77,0.81 -10.21,0.32 -21.06,1.46 -30.13,5.35 l -3.89,3.89 c 0,0.32 -0.16,0.81 -0.32,1.3 0.16,-0.16 0.32,-0.32 0.65,-0.16 -1.13,5.67 6.64,5.51 13.28,5.35 h 2.43 c 1.94,0 4.37,0 5.83,0.16 4.7,0.49 10.37,0.81 15.55,1.13 l 8.59,0.49 c 2.43,0.97 5.83,1.94 9.4,2.59 8.42,3.56 13.93,13.12 13.93,22.84 0,4.21 -1.13,8.91 -3.56,12.8 -8.59,8.1 -22.84,9.4 -35.64,10.04 -3.73,-0.49 -7.13,-0.81 -10.53,-1.13 -0.81,0 -1.78,-0.16 -2.59,-0.16 -6.16,-0.49 -12.96,-1.13 -18.63,-2.92 -4.37,-2.92 -8.1,-9.23 -8.1,-16.36 0,-1.94 0.32,-4.21 1.3,-6.64 7.94,-2.43 10.21,3.4 11.99,8.59 0.16,0.65 0.32,1.3 0.32,1.46 7.29,1.62 16.2,2.59 24.46,2.59 6.97,0 14.9,-0.97 21.06,-2.92 h -0.16 l 1.46,-0.65 v 0.16 c 2.92,-1.62 5.99,-3.24 7.45,-6.15 l -0.16,0.16 c 0.65,-2.43 0.16,-5.51 -1.13,-6.64 -5.99,-3.56 -14.42,-4.37 -22.03,-4.86 L 402,236.56 c -2.75,-0.16 -6.8,-0.32 -9.23,-0.32 -7.78,-0.16 -15.07,-0.32 -22.03,-3.56 l -0.16,-0.65 c -0.16,0 -0.65,0 -1.78,-0.81 -3.56,-3.56 -5.67,-9.88 -5.67,-16.2 0,-4.7 1.46,-9.4 4.21,-12.8 4.37,-5.02 13.45,-7.78 20.74,-8.75 6.8,-0.97 13.93,-0.97 19.6,-0.97 4.54,0 9.23,0 13.93,-0.32 l 2.43,1.3 z"
   id="path551"
   inkscape:connector-curvature="0"
   style="fill:#009a00" />
		<path
   class="st35"
   d="m 499.18,197.34 c 0,1.3 0.65,3.08 1.62,5.02 l 0.65,1.78 -0.16,-0.16 c 4.05,7.29 8.1,14.26 12.47,21.38 l 2.59,4.7 v -0.16 c 6.32,10.85 12.31,21.55 17.66,34.18 0,0 -0.32,1.46 -0.49,2.43 0,0.32 -0.16,1.13 -0.16,1.46 -1.94,1.3 -4.37,2.43 -6.97,2.75 -2.75,-1.78 -3.4,-2.11 -4.86,-1.78 l -5.35,-10.53 -3.24,-6.48 -2.75,-5.51 h -5.02 c -10.37,0 -22.68,0.32 -33.69,0.65 -2.43,3.4 -3.4,5.18 -4.54,7.29 -2.92,5.51 -3.73,6.8 -4.54,7.94 -1.13,1.3 -1.94,2.43 -3.56,5.67 H 459 c -0.49,1.13 -1.13,2.43 -2.75,3.73 -4.86,0.65 -8.42,-3.4 -10.53,-6.48 l 1.3,-3.08 c 0.81,-1.94 1.62,-3.89 3.73,-5.35 l -0.16,0.32 c 7.45,-13.61 15.71,-27.7 23.97,-41.31 l 5.51,-8.75 -0.16,0.16 c 0.49,-1.13 1.3,-2.11 1.62,-3.24 v 0.16 c 0,-0.16 0.16,-0.16 0.16,-0.49 0,-0.16 0.49,1.3 -0.32,-3.56 0.97,0.32 3.4,-1.13 3.08,-1.78 0.49,-0.81 0.97,-1.3 1.46,-1.3 0,-0.49 0.16,-0.81 0.49,-1.78 l 1.94,-0.32 c 1.3,-0.49 2.92,-0.81 4.86,-0.81 1.94,0 3.89,0.49 5.83,1.94 z m -17.98,34.51 c 4.7,-1.13 12.31,0.97 16.2,0 h 4.54 c -2.43,-5.18 -4.7,-10.04 -7.61,-15.23 l -2.43,-3.89 c -1.62,3.08 -3.73,6.8 -5.83,10.21 v -0.16 c -0.65,1.13 -1.62,2.43 -2.27,3.73 z m 0,0"
   id="path553"
   inkscape:connector-curvature="0"
   style="fill:#009a00" />
		<path
   class="st35"
   d="m 609.16,255.17 2.43,2.75 c 2.59,2.59 5.02,6.32 4.05,11.66 -2.43,2.59 -4.37,2.11 -6.64,1.46 -0.16,0 -0.49,-0.16 -0.65,-0.16 l -2.27,-0.49 c -1.94,-0.32 -4.37,-0.32 -6.32,-0.32 -2.59,0 -5.51,0 -8.59,0.16 -2.43,0.16 -6.16,0.32 -8.59,0.32 -2.92,0 -6.64,-0.16 -9.4,-0.49 -6.32,0.49 -15.23,0.65 -22.36,0.65 h -0.97 c -2.11,-0.16 -4.54,-0.32 -5.99,-1.78 l -1.46,-1.94 v 0.16 c -0.81,-0.81 -1.62,-2.11 -1.78,-3.08 l 0.16,0.16 c -0.49,-0.97 -0.49,-1.78 -0.49,-2.43 0,-0.32 0,-0.97 -0.49,-1.62 v 0.16 c -0.81,-0.81 -1.13,-1.13 -1.3,-2.92 -0.16,-1.3 0,-2.11 0.16,-2.59 0,-0.32 0,-0.49 0.32,-0.81 v 0.16 c 0,-0.16 0.16,-0.16 0.16,-0.49 v -5.35 c -0.16,-1.62 -0.16,-4.86 0,-6.48 v -1.78 c 0,-0.81 0.16,-1.78 0.16,-2.43 l 0.32,-9.23 c 0.32,-8.1 0.65,-17.01 0.65,-25.27 0,-1.46 -0.16,-2.92 -0.16,-4.37 v -3.89 c 1.78,-2.27 3.56,-3.24 5.51,-3.24 2.92,0 5.83,1.3 7.61,3.24 0.97,1.78 1.13,3.73 1.3,6.16 l 0.49,3.56 c -1.13,16.85 -1.46,33.37 -1.46,50.54 h 55.6 z"
   id="path555"
   inkscape:connector-curvature="0"
   style="fill:#009a00" />
		<path
   class="st35"
   d="m 671.52,197.34 c 0,1.3 0.65,3.08 1.62,5.02 l 0.65,1.78 -0.16,-0.16 c 4.05,7.29 8.1,14.26 12.47,21.38 l 2.59,4.7 v -0.16 c 6.32,10.85 12.31,21.55 17.66,34.18 0,0 -0.32,1.46 -0.49,2.43 0,0.32 -0.16,1.13 -0.16,1.46 -1.94,1.3 -4.37,2.43 -6.97,2.75 -2.75,-1.78 -3.4,-2.11 -4.86,-1.78 l -5.35,-10.53 -3.24,-6.48 -2.75,-5.51 h -5.02 c -10.37,0 -22.68,0.32 -33.69,0.65 -2.43,3.4 -3.4,5.18 -4.54,7.29 -2.92,5.51 -3.73,6.8 -4.54,7.94 -1.13,1.3 -1.94,2.43 -3.56,5.67 h 0.16 c -0.49,1.13 -1.13,2.43 -2.75,3.73 -4.86,0.65 -8.42,-3.4 -10.53,-6.48 l 1.3,-3.08 c 0.81,-1.94 1.62,-3.89 3.73,-5.35 l -0.16,0.32 c 7.45,-13.61 15.71,-27.7 23.97,-41.31 l 5.51,-8.75 -0.16,0.16 c 0.49,-1.13 1.3,-2.11 1.62,-3.24 v 0.16 c 0,-0.16 0.16,-0.16 0.16,-0.49 0,-0.16 0.49,1.3 -0.32,-3.56 0.97,0.32 3.4,-1.13 3.08,-1.78 0.49,-0.81 0.97,-1.3 1.46,-1.3 0,-0.49 0.16,-0.81 0.49,-1.78 l 1.94,-0.32 c 1.3,-0.49 2.92,-0.81 4.86,-0.81 1.94,0 3.89,0.49 5.83,1.94 z m -17.98,34.51 c 4.7,-1.13 12.31,0.97 16.2,0 h 4.54 c -2.43,-5.18 -4.7,-10.04 -7.61,-15.23 l -2.43,-3.89 c -1.62,3.08 -3.73,6.8 -5.83,10.21 v -0.16 c -0.65,1.13 -1.62,2.43 -2.27,3.73 z m 0,0"
   id="path557"
   inkscape:connector-curvature="0"
   style="fill:#009a00" />
	</g>
</g>
</svg>