<?xml version="1.0" encoding="UTF-8" standalone="no"?>
<svg
   xmlns:dc="http://purl.org/dc/elements/1.1/"
   xmlns:cc="http://creativecommons.org/ns#"
   xmlns:rdf="http://www.w3.org/1999/02/22-rdf-syntax-ns#"
   xmlns:svg="http://www.w3.org/2000/svg"
   xmlns="http://www.w3.org/2000/svg"
   xmlns:sodipodi="http://sodipodi.sourceforge.net/DTD/sodipodi-0.dtd"
   xmlns:inkscape="http://www.inkscape.org/namespaces/inkscape"
   version="1.1"
   id="svg2"
   width="1417"
   height="631"
   viewBox="0 0 1417 631"
   sodipodi:docname="VDL-logo_RVB.svg"
   inkscape:version="1.0.1 (3bc2e813f5, 2020-09-07)">
  <metadata
     id="metadata8">
    <rdf:RDF>
      <cc:Work
         rdf:about="">
        <dc:format>image/svg+xml</dc:format>
        <dc:type
           rdf:resource="http://purl.org/dc/dcmitype/StillImage" />
        <dc:title></dc:title>
      </cc:Work>
    </rdf:RDF>
  </metadata>
  <defs
     id="defs6" />
  <sodipodi:namedview
     pagecolor="#ffffff"
     bordercolor="#666666"
     borderopacity="1"
     objecttolerance="10"
     gridtolerance="10"
     guidetolerance="10"
     inkscape:pageopacity="0"
     inkscape:pageshadow="2"
     inkscape:window-width="1882"
     inkscape:window-height="1061"
     id="namedview4"
     showgrid="false"
     inkscape:zoom="0.59386027"
     inkscape:cx="637.02192"
     inkscape:cy="268.69116"
     inkscape:window-x="0"
     inkscape:window-y="0"
     inkscape:window-maximized="1"
     inkscape:current-layer="g10" />
  <g
     inkscape:groupmode="layer"
     inkscape:label="Image"
     id="g10">
    <g
       id="g14">
      <path
         style="fill:#e0352c"
         d="M 993,505.5 V 505 h 0.5 0.5 v 0.5 0.5 h -0.5 -0.5 z m -691.28117,-2.61883 1.11882,-1.11882 6.91876,-0.21475 6.91876,-0.21475 6.41241,-4.54461 6.41242,-4.54461 4.39147,-2.21431 4.39146,-2.21431 4.35854,-0.0659 4.35853,-0.0659 v -0.82743 -0.82742 l -4.18485,-2.76419 -4.18486,-2.76419 -9.84113,0.004 -9.84113,0.004 0.28291,-1.46903 0.2829,-1.46902 3.31635,-2.23489 3.31634,-2.23488 4.60716,-0.69088 4.60716,-0.69089 -3.56142,-3.2638 -3.56142,-3.26379 -5.369,-1.03331 -5.36901,-1.03331 -7.60309,-0.63385 -7.6031,-0.63385 -3.17183,-1.9289 -3.17183,-1.92891 -0.97508,-2.56464 L 294,452.8698 v -5.28702 -5.28701 l 2.26993,-3.39789 2.26994,-3.39788 3.48006,-1.82408 3.48007,-1.82407 15.5,0.57941 15.5,0.57942 6.78039,-1.45947 6.7804,-1.45947 4.85435,-2.64207 4.85435,-2.64207 4.72414,-3.9038 4.72414,-3.9038 h 0.87206 0.87207 l 0.63734,2.75 0.63735,2.75 2.44715,4.28974 2.44714,4.28974 3.14226,3.57883 3.14225,3.57883 3.6134,2.28103 3.61339,2.28104 4.63816,1.57469 4.63816,1.5747 6.29075,0.96234 6.29075,0.96234 8.5,0.6382 8.5,0.63819 4.3521,0.95228 4.35209,0.95228 2.88098,1.48981 2.88098,1.48981 1.51692,2.93342 1.51693,2.93341 v 2.59932 2.59932 l -1.425,2.75565 -1.42501,2.75566 -2.62205,1.19468 -2.62205,1.19469 -4.20294,-0.0128 -4.20295,-0.0128 -7.61956,-2.43371 -7.61955,-2.43372 -7.48691,-0.67844 -7.4869,-0.67845 -3.86144,1.27439 -3.86144,1.27439 -5.0321,4.62024 -5.0321,4.62024 -5.68582,3.80787 -5.68582,3.80787 -1.56418,2.38724 L 368,490.92956 v 1.65182 1.65181 l 2.25,-0.7209 2.25,-0.7209 3.01198,-0.47735 3.01198,-0.47735 2.74573,3.08162 2.74574,3.08162 h 2.05803 2.05802 l 2.18426,-1.15473 2.18426,-1.15473 4.39079,-3.84527 4.39079,-3.84527 h 2.32783 2.32782 l -0.561,1.46193 -0.56099,1.46194 -2.01817,0.64054 -2.01816,0.64054 -3.88945,3.51389 L 393,499.23265 v 2.38364 2.38364 h -46.2 -46.2 l 1.11883,-1.11883 z m 162.08835,-5.63117 6.87922,-6.75 2.42525,-3.24115 2.42524,-3.24114 5.98156,-1.0803 5.98155,-1.08029 5,-1.44363 5,-1.44364 1.5,-0.95441 1.5,-0.95441 -1.42736,-2.28052 -1.42736,-2.28051 -1.31648,-2.5 -1.31648,-2.5 0.009,-4.5 0.009,-4.5 1.44876,-6 1.44876,-6 0.0356,-6.28212 0.0356,-6.28212 -1.45526,-3.48292 -1.45526,-3.48293 -9.47018,-9.89637 -9.47019,-9.89637 -0.6881,-4.58858 L 474.77195,398 h -0.80386 -0.80387 l -9.11738,8.40257 -9.11737,8.40256 -3.4536,1.63884 -3.45359,1.63884 -1.77281,-0.94878 -1.77281,-0.94878 -1.90769,-2.10798 -1.90769,-2.10798 -0.0994,-18.73464 -0.0994,-18.73465 -1.71535,-3.67871 -1.71535,-3.6787 7.70062,-3.8213 7.70062,-3.82129 6.09034,-6 6.09033,-6 2.43295,-5 2.43294,-5 0.0834,-16 0.0834,-16 1.77069,-5 1.77069,-5 2.99792,-4.73135 2.99791,-4.73136 3.95983,-2.91209 3.95984,-2.91209 14.19788,-5.30375 14.19789,-5.30376 6.02246,-6.0528 6.02245,-6.0528 3.1141,-6 3.1141,-6 0.7027,-2.31889 0.70269,-2.31888 -4.04601,2.55413 -4.046,2.55413 -4.09454,0.91998 -4.09455,0.91999 -3.4487,-0.95224 -3.4487,-0.95223 v -0.81699 -0.817 l 4.16908,-2.886 4.16908,-2.886 4.67959,-5.62008 4.6796,-5.62008 3.60007,-5.92635 3.60006,-5.92635 2.94349,-7.45357 2.94348,-7.45357 0.71799,-2.5 0.71798,-2.5 -4.36021,4.14542 -4.36021,4.14542 -4,1.98137 -4,1.98138 -5.29922,1.1232 -5.29922,1.12321 -2.20078,-0.004 -2.20078,-0.004 3.5,-2.09585 3.5,-2.09584 3.33763,-3.15042 3.33763,-3.15041 2.14209,-4 2.14208,-4 -0.0355,-12 -0.0355,-12 -1.87952,-6 -1.87951,-6 -0.72575,6.68445 -0.72574,6.68444 -3.66987,6.98378 -3.66987,6.98377 -1.82939,1.65558 -1.82939,1.65557 0.97041,-4.31895 0.9704,-4.31895 -0.64323,-4.67688 -0.64324,-4.67689 -2.75852,-5.83288 -2.75851,-5.83287 -5.64683,-5.16089 -5.64683,-5.16088 -5.26154,-1.8342 L 487.5,142.5 l -8.5,0.11028 -8.5,0.11028 -5.75209,2.21235 -5.75208,2.21235 -4.82582,3.81459 -4.82581,3.81459 -3.50637,5.36278 -3.50637,5.36278 -1.7872,4.5 -1.78721,4.5 -1.3429,5.5 -1.34291,5.5 -0.0227,7.5 -0.0227,7.5 2.10734,6.5 2.10735,6.5 0.0194,7.5 0.0194,7.5 -1.65873,6.21785 -1.65872,6.21784 -0.58794,1.53216 L 435.78599,244 h 1.95651 1.95651 l 4.27761,-2.87287 4.2776,-2.87288 2.8818,-4.29089 2.8818,-4.2909 1.16867,-3.90067 1.16867,-3.90066 -1.1776,-11.29716 L 454,199.27681 l 0.0317,-8.88841 0.0317,-8.8884 2.21689,3 2.21689,3 3.36779,3.75 3.36779,3.75 h 0.85889 0.85889 l -1.14556,-2.75 -1.14557,-2.75 -0.0368,-11 -0.0368,-11 2.26612,-5.71576 2.26613,-5.71577 3.69096,-0.75317 3.69096,-0.75318 4.5,0.0472 4.5,0.0472 3.83577,1.27759 3.83577,1.27759 3.47314,3.04946 3.47315,3.04946 1.94108,3.80484 1.94109,3.80484 -0.0237,5.78984 -0.0237,5.78984 -2.34866,5.71069 -2.34865,5.7107 -5.69601,7.91106 -5.69601,7.91106 -7.03159,7.8744 -7.03158,7.87439 -7.50359,10.50385 -7.50358,10.50385 -3.28093,6.5 -3.28093,6.5 -2.06999,6.708 -2.07,6.70801 -0.65171,7.29199 -0.65171,7.292 1.10712,5.93862 1.10713,5.93863 4.64096,9.92823 4.64096,9.92824 0.48667,6.80186 0.48667,6.80187 -2.2123,4.57001 -2.21231,4.57001 -4.32688,3.80868 -4.32688,3.80867 -6.71524,3.27422 -6.71523,3.27422 -1.62413,0.0982 -1.62413,0.0982 -4.53208,-3.0936 -4.53207,-3.0936 -7.46793,-2.98947 -7.46792,-2.98946 -4.47515,-2.02731 -4.47515,-2.02732 -4.82078,-5.80945 -4.82078,-5.80945 -3.58445,-7.2061 -3.58445,-7.2061 -0.48096,-6.7939 -0.48097,-6.7939 1.14989,-4.25 1.14989,-4.25 h 0.85016 0.85017 l 0.66061,3.52138 0.66062,3.52138 3.05427,3.47862 3.05426,3.47862 h 0.89641 0.89641 l 0.022,-2.25 0.022,-2.25 1.97933,-4.36208 1.97932,-4.36208 4.88811,-6.72054 4.88811,-6.72054 4.59898,-7.91738 4.59897,-7.91738 3.40108,-8.06704 3.40107,-8.06704 2.26498,-8.93296 2.26498,-8.93296 0.0495,-11 0.0495,-11 -1.83231,-6.5 -1.8323,-6.5 -0.48085,-2.72093 -0.48086,-2.72093 5.19534,-6.52907 5.19534,-6.52907 h -6.56136 -6.56135 l 0.97525,-2.5651 0.97525,-2.5651 v -0.9349 -0.9349 h -4.52498 -4.52499 l -5.72501,-2.00666 -5.72502,-2.00665 -12.63167,-8.50649 -12.63166,-8.5065 -5.86834,-2.0347 -5.86833,-2.0347 -10.11535,0.0276 -10.11535,0.0276 -1.63465,0.62727 L 340,145.21398 V 131.60699 118 H 451 562 V 311 504 H 509.46399 456.92797 Z M 1026,285.5 V 285 h 0.5 0.5 v 0.5 0.5 h -0.5 -0.5 z M 669,171.5 V 171 h 0.5 0.5 v 0.5 0.5 h -0.5 -0.5 z m -12,-7 V 164 h 0.5 0.5 v 0.5 0.5 h -0.5 -0.5 z m 523,-30 V 134 h 0.5 0.5 v 0.5 0.5 h -0.5 -0.5 z"
         id="path20" />
      <path
         style="fill:#045da3"
         d="M 994.33333,505.33333 995,504.66667 995.66667,505.33333 996.33333,506 H 995 993.66667 Z m 17.47917,-0.0164 1.3125,-0.52522 0.6042,0.60416 0.6041,0.60417 -1.9166,-0.079 -1.9167,-0.0789 1.3125,-0.52522 z m -25.47917,-0.9836 0.66667,-0.66666 0.66667,0.66666 L 988.33333,505 H 987 985.66667 Z M 1020,504.5 V 504 h 0.5 0.5 v 0.5 0.5 h -0.5 -0.5 z M 120,311.01097 V 118 h 110 110 v 13.27776 13.27776 l -2,1.71245 -2,1.71246 v 1.52448 1.52449 l 3.21743,1.95663 3.21742,1.95663 4.53258,0.59554 4.53257,0.59553 5.18924,0.99142 5.18923,0.99142 2.56077,2.01429 2.56076,2.0143 v 2.77243 2.77243 l -1.82874,1.65499 L 363.34252,171 h -1.06767 -1.06767 L 358.10359,167.4652 355,163.93041 v -0.94488 -0.94488 l -3.91721,-1.99841 -3.9172,-1.99841 -7.31196,-1.13449 -7.31195,-1.13449 -9.94993,0.70542 -9.94993,0.70541 -2.32091,0.88241 L 308,158.9505 v 1.47724 1.47724 l 4.07624,10.55313 4.07623,10.55312 1.67377,0.82099 1.67376,0.82099 10.00711,-0.97657 10.00711,-0.97657 4.52546,0.67863 4.52547,0.67864 3.21742,1.95663 L 355,187.9706 V 190.4853 193 l -0.25,-0.0129 -0.25,-0.0129 -6.33909,-1.9871 -6.3391,-1.9871 h -6.21295 -6.21296 l -12.07773,3.00148 -12.07773,3.00148 -6.96208,0.10597 -6.96209,0.10598 -3.23691,-1.67387 -3.23692,-1.67388 -1.50832,-3.60992 -1.50832,-3.60992 0.62643,-4.17731 0.62642,-4.17731 1.99963,-2.14635 L 287.07791,172 h 3.09301 3.09301 l 3.25529,2.01188 3.25529,2.01188 1.53543,-0.5892 1.53542,-0.5892 0.60001,-1.56358 0.6,-1.56359 -1.4478,-2.20962 -1.44779,-2.20961 -3.71564,-1.76319 -3.71563,-1.76318 -4.89189,0.47005 -4.89189,0.47005 -2.59928,2.39365 -2.59929,2.39366 -1.84612,4 -1.84612,4 -0.022,4.60078 -0.022,4.60077 1.13606,3.39923 1.13607,3.39922 2.61393,2.88 2.61394,2.88 4.5,2.05384 4.5,2.05383 6.52095,-0.0376 6.52094,-0.0376 13.47906,-3.26085 13.47905,-3.26084 7,0.48185 7,0.48185 2.70005,1.2705 2.70004,1.2705 -1.96291,3.84762 -1.96291,3.84762 -2.43195,1.59348 -2.43195,1.59347 -5.80518,-0.67724 -5.80519,-0.67725 -5.37084,-2.4016 -5.37085,-2.40161 h -1.80243 -1.80243 l -2.96078,2.49134 -2.96079,2.49133 -4.00618,7.75867 -4.00619,7.75866 -2.56109,7.17469 -2.56109,7.17469 6.49694,-3.04029 6.49693,-3.04028 3.45973,-0.7803 3.45972,-0.78029 0.65598,1.0614 0.65599,1.0614 -2.72495,2.1728 -2.72496,2.1728 7.96033,-0.46081 7.96032,-0.46082 1.626,2.4816 1.62601,2.4816 -0.64387,1.67789 -0.64386,1.67789 -2.83751,1.46733 -2.83751,1.46734 -7.29131,0.92883 -7.29131,0.92882 -11,0.4973 -11,0.4973 -6.5,2.05914 -6.5,2.05915 -5,3.00956 -5,3.00957 -2.73363,2.18387 -2.73364,2.18388 -0.64712,-0.64712 -0.64712,-0.64711 1.12137,-4.28592 1.12137,-4.28591 1.21079,-14.25 1.21079,-14.25 -1.17946,-14.25424 -1.17947,-14.25425 -2.01609,-7.99575 -2.0161,-7.99576 -4.02684,-8.19461 -4.02684,-8.19462 -5.48273,-6.88159 -5.48274,-6.8816 -5.24627,-4.31007 -5.24627,-4.31008 -4.198,-1.88751 -4.19799,-1.8875 -7.30201,1.65689 -7.302,1.65689 -3.11649,3.29654 -3.11649,3.29654 -3.63351,0.68165 -3.63351,0.68165 v 0.75539 0.75538 l 4.88892,2.03174 4.88893,2.03175 1.13753,3.44676 1.13753,3.44676 2.22355,1.11322 2.22354,1.11322 2.5,0.2916 2.5,0.2916 0.31955,2.25 0.31955,2.25 -1.81955,-0.005 -1.81955,-0.005 -2.61778,-1.74473 -2.61778,-1.74474 -4.10393,-2.86416 -4.10392,-2.86416 -6.77829,1.24672 -6.7783,1.24672 -3.63351,0.87462 -3.63351,0.87461 -1.23894,1.49283 -1.23893,1.49282 h 3.54066 3.54066 l 1.62438,0.62333 1.62438,0.62334 1.96957,3.86067 1.96956,3.86066 2.23784,0.50677 2.23784,0.50677 5.4214,0.25923 5.42139,0.25923 0.37777,1.14748 0.37776,1.14748 -8.3176,-0.0908 -8.3176,-0.0908 -2.98156,1.68134 -2.98156,1.68135 -5.78231,2.09591 -5.78231,2.09592 -4.15566,3.16962 -4.15565,3.16962 0.43796,0.99644 0.43797,0.99644 1.5,-0.25413 1.5,-0.25413 4.53763,-0.61001 4.53763,-0.61001 3.22122,2.71049 3.22123,2.71048 3.9914,0.53536 3.9914,0.53536 6.12694,-1.71914 6.12694,-1.71913 3.25103,0.6099 3.25102,0.60989 2.62178,2.42979 2.62178,2.42978 -0.0134,4.29775 -0.0134,4.29775 -3.05477,8.5 -3.05478,8.5 -1.5456,5.5 -1.54561,5.5 0.63291,9.23526 0.63291,9.23527 1.01801,2.67757 1.01801,2.67758 0.84204,-0.91284 0.84204,-0.91284 1.1664,-3.65318 1.1664,-3.65318 2.40665,-2.59682 2.40665,-2.59682 h 3.0247 3.02469 l 1.70269,2.59862 1.70268,2.59863 1.11132,4.37683 1.11133,4.37684 -0.64128,6.99617 -0.64127,6.99618 -2.45896,4.77836 -2.45897,4.77837 -3.3386,2.25 -3.3386,2.25 h -4.88423 -4.88424 l -3.22117,-1.34589 -3.22117,-1.34589 -7.12122,-6.53515 -7.12123,-6.53514 -3.87548,-1.33796 -3.87549,-1.33796 -7,0.0476 -7,0.0476 -5.15757,1.72102 -5.15756,1.72102 -2.49768,2.31477 -2.49767,2.31476 -3.0968,2.20511 -3.09679,2.20512 -0.92819,1.73433 -0.92819,1.73434 0.81592,1.32018 0.81591,1.32018 2.96663,-1.75243 2.96663,-1.75243 6.47959,1.12837 6.4796,1.12837 h 4.16808 4.16809 v 1 1 l -6.25,0.022 -6.25,0.022 -4,1.95667 -4,1.95667 -2,1.26886 -2,1.26886 -3.25105,2.3042 -3.25105,2.30421 -1.57269,3.04123 -1.57268,3.04124 0.56951,0.56951 0.56951,0.56951 2.55128,-1.16244 2.55128,-1.16244 3.20294,0.0182 3.20295,0.0182 4.42033,2.99514 4.42032,2.99513 2.07968,-0.65016 2.07967,-0.65017 2.83467,-2.36985 2.83467,-2.36985 0.91533,0.5657 0.91533,0.5657 v 1.35696 1.35695 l -3.92615,3.10957 -3.92616,3.10958 -0.63638,2.89742 -0.63638,2.89743 -3.09318,4.66984 -3.09317,4.66984 -0.47152,4.90719 -0.47152,4.90719 h 0.79849 0.79849 l 1.68889,-1.52842 1.68888,-1.52842 2.70496,1.02842 2.70495,1.02842 h 3.96702 3.96702 l 3.71788,-1.55305 3.71788,-1.55305 2.5,-2.34499 2.5,-2.345 3.5,-2.09821 3.5,-2.09822 4.35,-0.004 4.35,-0.004 3.4,3.4 3.4,3.4 v 2.87749 2.8775 l -1.63278,2.33112 -1.63279,2.33113 3.38279,-0.7074 3.38278,-0.7074 4.5,-2.56284 4.5,-2.56283 4,-2.08839 4,-2.08838 10.5,0.007 10.5,0.007 5.44606,2.85918 5.44605,2.85918 5.71394,5.45017 5.71393,5.45017 2.73856,3.95175 2.73857,3.95175 0.40749,-0.40749 0.40749,-0.40749 -1.55605,-6.00497 -1.55604,-6.00497 0.002,-4.85565 0.002,-4.85566 1.74844,-3.41519 1.74845,-3.4152 3.4844,-1.8348 3.4844,-1.83481 h 3.81526 3.81526 l 2.70034,1.41072 2.70034,1.41073 2.6523,2.83927 2.6523,2.83928 5.16084,8.79141 5.16085,8.7914 5.37183,5.37183 5.37184,5.37184 7.31502,3.48252 7.31502,3.48252 7.85468,2.74387 7.85468,2.74388 3.89532,3.70553 3.89532,3.70553 -0.0153,3.90483 -0.0153,3.90484 -0.73468,1.11047 -0.73469,1.11047 -3.5,1.84294 -3.5,1.84294 -7.5,-0.0271 -7.5,-0.0271 -7.35914,-2.23821 -7.35913,-2.23822 -13.64087,-6.04251 -13.64086,-6.04251 -10.5,-3.53494 -10.5,-3.53494 -9.12503,-0.49034 -9.12503,-0.49033 -5.37497,1.25077 -5.37497,1.25077 -4.82355,2.57791 -4.82355,2.57791 -3.0448,3.84437 -3.04479,3.84437 -1.88166,6.04576 -1.88165,6.04577 0.006,7.1609 0.006,7.16091 1.10046,3.9638 1.10046,3.9638 3.40008,5.31518 3.40008,5.31518 4.08171,4.42813 4.08172,4.42814 8.60819,4.79288 8.6082,4.79289 5.80397,5.64593 5.80398,5.64593 v 4.03149 4.03149 l -2.63486,2.07258 -2.63486,2.07258 h -3.70859 -3.70859 l -5.40655,-1.89155 -5.40655,-1.89156 -8.5,-4.09891 -8.5,-4.09891 -5.5,-1.03256 -5.5,-1.03257 -3,0.59344 -3,0.59344 -4.57558,1.45202 -4.57557,1.45202 -3.37294,3.48 -3.37295,3.47999 -5.55148,2.06698 -5.55148,2.06698 -2.85064,2.6806 -2.85064,2.68059 -0.90651,2.33392 -0.90652,2.33391 0.5728,0.92681 0.5728,0.92681 2.15686,-1.51073 2.15686,-1.51072 h 2.65505 2.65505 l 1.37245,1.6549 1.37244,1.65491 3.21788,1.34509 3.21788,1.3451 h 2.89257 2.89258 l 3.88954,-2.65121 3.88955,-2.65121 4,-1.82683 4,-1.82683 2.25,-0.022 2.25,-0.022 v 1.0147 1.0147 l -3.11795,1.89613 -3.11795,1.89614 -3.22212,0.60448 -3.22212,0.60447 -2.03052,2.23469 -2.03052,2.23469 -1.39266,3 -1.39266,3 -41.73675,0.26097 L 120,504.02194 Z M 798.46053,459 v -45.5 l 0.28851,22.75 0.28851,22.75 -0.28851,22.75 -0.28851,22.75 z M 982,503.5 V 503 h 0.5 0.5 v 0.5 0.5 h -0.5 -0.5 z m 43,0 V 503 h 0.5 0.5 v 0.5 0.5 h -0.5 -0.5 z m 232,0 V 503 h 0.5 0.5 v 0.5 0.5 h -0.5 -0.5 z m -279,-1 V 502 h 0.5 0.5 v 0.5 0.5 h -0.5 -0.5 z m -3,-1 V 501 h 0.5 0.5 v 0.5 0.5 h -0.5 -0.5 z m 57,0 V 501 h 0.5 0.5 v 0.5 0.5 h -0.5 -0.5 z m -60,-1 V 500 h 0.5 0.5 v 0.5 0.5 h -0.5 -0.5 z m 283,0 V 500 h 0.5 0.5 v 0.5 0.5 h -0.5 -0.5 z m -218,-1 V 499 h 0.5 0.5 v 0.5 0.5 h -0.5 -0.5 z m -70,-1 V 498 h 0.5 0.5 v 0.5 0.5 h -0.5 -0.5 z m -2,-1 V 497 h 0.5 0.5 v 0.5 0.5 h -0.5 -0.5 z m 80,-2 V 495 h 0.5 0.5 v 0.5 0.5 h -0.5 -0.5 z m 5,-3 V 492 h 0.5 0.5 v 0.5 0.5 h -0.5 -0.5 z m 200,0 V 492 h 0.5 0.5 v 0.5 0.5 h -0.5 -0.5 z m -196,-3 V 489 h 0.5 0.5 v 0.5 0.5 h -0.5 -0.5 z m 194,0 V 489 h 0.5 0.5 v 0.5 0.5 h -0.5 -0.5 z m -298,-2 V 487 h 0.5 0.5 v 0.5 0.5 h -0.5 -0.5 z m 296,-1 V 486 h 0.5 0.5 v 0.5 0.5 h -0.5 -0.5 z m -186,-1.81291 v -0.31291 l 3.25,-2.93709 3.25,-2.93709 -2.9371,3.25 -2.9371,3.25 H 1060.3129 1060 Z M 1244,483.5 V 483 h 0.5 0.5 v 0.5 0.5 h -0.5 -0.5 z m -3,-5 V 478 h 0.5 0.5 v 0.5 0.5 h -0.5 -0.5 z m -302,-2 V 476 h 0.5 0.5 v 0.5 0.5 h -0.5 -0.5 z m 300,-1 V 475 h 0.5 0.5 v 0.5 0.5 h -0.5 -0.5 z m -170,-1 V 474 h 0.5 0.5 v 0.5 0.5 h -0.5 -0.5 z m -133,-2 V 472 h 0.5 0.5 v 0.5 0.5 h -0.5 -0.5 z m 301,0 V 472 h 0.5 0.5 v 0.5 0.5 h -0.5 -0.5 z m -166,-1 V 471 h 0.5 0.5 v 0.5 0.5 h -0.5 -0.5 z m -137,-2 V 469 h 0.5 0.5 v 0.5 0.5 h -0.5 -0.5 z m 301,0 V 469 h 0.5 0.5 v 0.5 0.5 h -0.5 -0.5 z m -162,-1 V 468 h 0.5 0.5 v 0.5 0.5 h -0.5 -0.5 z m -70.75,-1.18933 1.75,-0.45732 1.75,0.45732 1.75,0.45733 h -3.5 -3.5 z m -7.91667,-0.97734 0.66667,-0.66666 0.66667,0.66666 L 996.33333,467 H 995 993.66667 Z M 1012,466.5 V 466 h 0.5 0.5 v 0.5 0.5 h -0.5 -0.5 z m -21,-1 V 465 h 0.5 0.5 v 0.5 0.5 h -0.5 -0.5 z m 25,0 V 465 h 0.5 0.5 v 0.5 0.5 h -0.5 -0.5 z m -28,-1 V 464 h 0.5 0.5 v 0.5 0.5 h -0.5 -0.5 z m -2,-1 V 463 h 0.5 0.5 v 0.5 0.5 h -0.5 -0.5 z m 35,0 V 463 h 0.5 0.5 v 0.5 0.5 h -0.5 -0.5 z m -37,-1 V 462 h 0.5 0.5 v 0.5 0.5 h -0.5 -0.5 z m 40,-1 V 461 h 0.5 0.5 v 0.5 0.5 h -0.5 -0.5 z m 206,0 V 461 h 0.5 0.5 v 0.5 0.5 h -0.5 -0.5 z m -249,-1 V 460 h 0.5 0.5 v 0.5 0.5 h -0.5 -0.5 z m 96,0 V 460 h 0.5 0.5 v 0.5 0.5 h -0.5 -0.5 z m -148,-1 V 459 h 0.5 0.5 v 0.5 0.5 h -0.5 -0.5 z m 299,-1 V 458 h 0.5 0.5 v 0.5 0.5 h -0.5 -0.5 z m -198.5,-1.5 0.618,-1 h 0.5 0.5 l -0.618,1 -0.618,1 h -0.5 -0.5 z M 928,456.5 V 456 h 0.5 0.5 v 0.5 0.5 h -0.5 -0.5 z m 151,-1 V 455 h 0.5 0.5 v 0.5 0.5 h -0.5 -0.5 z m 147,0 V 455 h 0.5 0.5 v 0.5 0.5 h -0.5 -0.5 z m -299,-2 V 453 h 0.5 0.5 v 0.5 0.5 h -0.5 -0.5 z m 47,0 V 453 h 0.5 0.5 v 0.5 0.5 h -0.5 -0.5 z m 250,-1 V 452 h 0.5 0.5 v 0.5 0.5 h -0.5 -0.5 z m -190,-1 V 451 h 0.5 0.5 v 0.5 0.5 h -0.5 -0.5 z m -62,-1 V 450 h 0.5 0.5 v 0.5 0.5 h -0.5 -0.5 z m -46,-1 V 449 h 0.5 0.5 v 0.5 0.5 h -0.5 -0.5 z m 109,0 V 449 h 0.5 0.5 v 0.5 0.5 h -0.5 -0.5 z m 46,-1.5 v -1.33333 l 0.6667,0.66666 0.6666,0.66667 -0.6666,0.66667 -0.6667,0.66666 z m -45,-0.5 V 447 h 0.5 0.5 v 0.5 0.5 h -0.5 -0.5 z m 185,0 V 447 h 0.5 0.5 v 0.5 0.5 h -0.5 -0.5 z m -251,-1 V 446 h 0.5 0.5 v 0.5 0.5 h -0.5 -0.5 z m -45,-1 V 445 h 0.5 0.5 v 0.5 0.5 h -0.5 -0.5 z m 112,0 V 445 h 0.5 0.5 v 0.5 0.5 h -0.5 -0.5 z m 182,-1 V 444 h 0.5 0.5 v 0.5 0.5 h -0.5 -0.5 z m -250,-1 V 443 h 0.5 0.5 v 0.5 0.5 h -0.5 -0.5 z m 113,-0.5 v -1.33333 l 0.6667,0.66666 0.6666,0.66667 -0.6666,0.66667 -0.6667,0.66666 z m -44,-1 v -1.33333 l 0.6667,0.66666 0.6666,0.66667 -0.6666,0.66667 -0.6667,0.66666 z m 179,-0.5 V 441 h 0.5 0.5 v 0.5 0.5 h -0.5 -0.5 z M 968,440 v -1.33333 l 0.66667,0.66666 0.66666,0.66667 -0.66666,0.66667 L 968,441.33333 Z m -44,-1 v -1.33333 l 0.66667,0.66666 0.66666,0.66667 -0.66666,0.66667 L 924,440.33333 Z m 291,-0.5 V 438 h 0.5 0.5 v 0.5 0.5 h -0.5 -0.5 z m -176,-1 V 437 h 0.5 0.5 v 0.5 0.5 h -0.5 -0.5 z m 44,-1.5 v -1.33333 l 0.6667,0.66666 0.6666,0.66667 -0.6666,0.66667 -0.6667,0.66666 z m -116,-2 v -1.33333 l 0.66667,0.66666 0.66666,0.66667 -0.66666,0.66667 L 967,435.33333 Z m 73,-3 v -1.33333 l 0.6667,0.66666 0.6666,0.66667 -0.6666,0.66667 -0.6667,0.66666 z m -116.92105,-1.58333 0.0789,-1.91667 0.52522,1.3125 0.52522,1.3125 -0.60416,0.60417 -0.60417,0.60416 0.0789,-1.91666 z M 1210,430.5 V 430 h 0.5 0.5 v 0.5 0.5 h -0.5 -0.5 z m -2,-3 V 427 h 0.5 0.5 v 0.5 0.5 h -0.5 -0.5 z M 1084.232,423 v -3.5 l 0.4573,1.75 0.4573,1.75 -0.4573,1.75 -0.4573,1.75 z m -118.07411,0 v -2.5 l 0.50439,1.25 0.50439,1.25 -0.50439,1.25 -0.50439,1.25 z M 1206,424.5 V 424 h 0.5 0.5 v 0.5 0.5 h -0.5 -0.5 z m -2,-3 V 421 h 0.5 0.5 v 0.5 0.5 h -0.5 -0.5 z M 1041.232,417 v -3.5 l 0.4573,1.75 0.4573,1.75 -0.4573,1.75 -0.4573,1.75 z M 1252,417.5 V 417 h 0.5 0.5 v 0.5 0.5 h -0.5 -0.5 z m -53,-4 V 413 h 0.5 0.5 v 0.5 0.5 h -0.5 -0.5 z m -402,-1 V 412 h 0.5 0.5 v 0.5 0.5 h -0.5 -0.5 z m 452,0 V 412 h 0.5 0.5 v 0.5 0.5 h -0.5 -0.5 z m -453,-2 V 410 h 0.5 0.5 v 0.5 0.5 h -0.5 -0.5 z m 401,0 V 410 h 0.5 0.5 v 0.5 0.5 h -0.5 -0.5 z m 50,-1 V 409 h 0.5 0.5 v 0.5 0.5 h -0.5 -0.5 z m -452,-1 V 408 h 0.5 0.5 v 0.5 0.5 h -0.5 -0.5 z m 400,-1 V 407 h 0.5 0.5 v 0.5 0.5 h -0.5 -0.5 z m -401,-1 V 406 h 0.5 0.5 v 0.5 0.5 h -0.5 -0.5 z m 451,0 V 406 h 0.5 0.5 v 0.5 0.5 h -0.5 -0.5 z m -452,-2 V 404 h 0.5 0.5 v 0.5 0.5 h -0.5 -0.5 z m 400,0 V 404 h 0.5 0.5 v 0.5 0.5 h -0.5 -0.5 z m 50,-1 V 403 h 0.5 0.5 v 0.5 0.5 h -0.5 -0.5 z m -451,-1 V 402 h 0.5 0.5 v 0.5 0.5 h -0.5 -0.5 z m -1,-2 V 400 h 0.5 0.5 v 0.5 0.5 h -0.5 -0.5 z m 450,0 V 400 h 0.5 0.5 v 0.5 0.5 h -0.5 -0.5 z m -51,-1 V 399 h 0.5 0.5 v 0.5 0.5 h -0.5 -0.5 z m -400,-1 V 398 h 0.5 0.5 v 0.5 0.5 h -0.5 -0.5 z m -1,-2 V 396 h 0.5 0.5 v 0.5 0.5 h -0.5 -0.5 z m 399,0 V 396 h 0.5 0.5 v 0.5 0.5 h -0.5 -0.5 z m 50,-1 V 395 h 0.5 0.5 v 0.5 0.5 h -0.5 -0.5 z m -450,-1 V 394 h 0.5 0.5 v 0.5 0.5 h -0.5 -0.5 z m 398,-1 V 393 h 0.5 0.5 v 0.5 0.5 h -0.5 -0.5 z m -399,-1 V 392 h 0.5 0.5 v 0.5 0.5 h -0.5 -0.5 z m 449,0 V 392 h 0.5 0.5 v 0.5 0.5 h -0.5 -0.5 z m -450,-2 V 390 h 0.5 0.5 v 0.5 0.5 h -0.5 -0.5 z m 398,0 V 390 h 0.5 0.5 v 0.5 0.5 h -0.5 -0.5 z m 50,-1 V 389 h 0.5 0.5 v 0.5 0.5 h -0.5 -0.5 z m -449,-1 V 388 h 0.5 0.5 v 0.5 0.5 h -0.5 -0.5 z m 69,0 V 388 h 0.5 0.5 v 0.5 0.5 h -0.5 -0.5 z m 328,-1 V 387 h 0.5 0.5 v 0.5 0.5 h -0.5 -0.5 z m -398,-1 V 386 h 0.5 0.5 v 0.5 0.5 h -0.5 -0.5 z m 71,0 V 386 h 0.5 0.5 v 0.5 0.5 h -0.5 -0.5 z m 377,0 V 386 h 0.5 0.5 v 0.5 0.5 h -0.5 -0.5 z m -376,-2 V 384 h 0.5 0.5 v 0.5 0.5 h -0.5 -0.5 z m 374,-1 V 383 h 0.5 0.5 v 0.5 0.5 h -0.5 -0.5 z m -373,-1 V 382 h 0.5 0.5 v 0.5 0.5 h -0.5 -0.5 z m 1,-2 V 380 h 0.5 0.5 v 0.5 0.5 h -0.5 -0.5 z m 319,-1 V 379 h 0.5 0.5 v 0.5 0.5 h -0.5 -0.5 z m -318,-1 V 378 h 0.5 0.5 v 0.5 0.5 h -0.5 -0.5 z m 368,0 V 378 h 0.5 0.5 v 0.5 0.5 h -0.5 -0.5 z m -367,-2 V 376 h 0.5 0.5 v 0.5 0.5 h -0.5 -0.5 z m 315,0 V 376 h 0.5 0.5 v 0.5 0.5 h -0.5 -0.5 z m 50,-1 V 375 h 0.5 0.5 v 0.5 0.5 h -0.5 -0.5 z m -364,-1 V 374 h 0.5 0.5 v 0.5 0.5 h -0.5 -0.5 z m 180.232,-2.5 v -3.5 l 0.4573,1.75 0.4573,1.75 -0.4573,1.75 -0.4573,1.75 z M 1173,373.5 V 373 h 0.5 0.5 v 0.5 0.5 h -0.5 -0.5 z m -311,-1 V 372 h 0.5 0.5 v 0.5 0.5 h -0.5 -0.5 z m 361,0 V 372 h 0.5 0.5 v 0.5 0.5 h -0.5 -0.5 z m -360,-2 V 370 h 0.5 0.5 v 0.5 0.5 h -0.5 -0.5 z m 308,0 V 370 h 0.5 0.5 v 0.5 0.5 h -0.5 -0.5 z m 50,-1 V 369 h 0.5 0.5 v 0.5 0.5 h -0.5 -0.5 z m -357,-1 V 368 h 0.5 0.5 v 0.5 0.5 h -0.5 -0.5 z m 220.232,-2.5 v -3.5 l 0.4573,1.75 0.4573,1.75 -0.4573,1.75 -0.4573,1.75 z M 822,367.5 V 367 h 0.5 0.5 v 0.5 0.5 h -0.5 -0.5 z m 144.19495,-2 0.0371,-3 0.46099,1.76903 0.46099,1.76903 -0.49804,1.23097 -0.49805,1.23097 0.0371,-3 z M 865,366.5 V 366 h 0.5 0.5 v 0.5 0.5 h -0.5 -0.5 z m 354,0 V 366 h 0.5 0.5 v 0.5 0.5 h -0.5 -0.5 z m -396,-1 V 365 h 0.5 0.5 v 0.5 0.5 h -0.5 -0.5 z m -7,-1 V 364 h 0.5 0.5 v 0.5 0.5 h -0.5 -0.5 z m 50,0 V 364 h 0.5 0.5 v 0.5 0.5 h -0.5 -0.5 z m -94,-1 V 363 h 0.5 0.5 v 0.5 0.5 h -0.5 -0.5 z m 52,0 V 363 h 0.5 0.5 v 0.5 0.5 h -0.5 -0.5 z m -9,-1 V 362 h 0.5 0.5 v 0.5 0.5 h -0.5 -0.5 z m -44,-1 V 361 h 0.5 0.5 v 0.5 0.5 h -0.5 -0.5 z m 445,0 V 361 h 0.5 0.5 v 0.5 0.5 h -0.5 -0.5 z m -402,-1 V 360 h 0.5 0.5 v 0.5 0.5 h -0.5 -0.5 z m 109.07895,-1.08333 0.0789,-1.91667 0.52522,1.3125 0.52522,1.3125 -0.60416,0.60417 -0.60417,0.60416 0.0789,-1.91666 z M 770,359.5 V 359 h 0.5 0.5 v 0.5 0.5 h -0.5 -0.5 z m 43,-1 V 358 h 0.5 0.5 v 0.5 0.5 h -0.5 -0.5 z m 227,-0.5 v -1.33333 l 0.6667,0.66666 0.6666,0.66667 -0.6666,0.66667 -0.6667,0.66666 z m 174,0.5 V 358 h 0.5 0.5 v 0.5 0.5 h -0.5 -0.5 z m -445,-1 V 357 h 0.5 0.5 v 0.5 0.5 h -0.5 -0.5 z m 43,-1 V 356 h 0.5 0.5 v 0.5 0.5 h -0.5 -0.5 z m 15,0 V 356 h 0.5 0.5 v 0.5 0.5 h -0.5 -0.5 z m 43,0 V 356 h 0.5 0.5 v 0.5 0.5 h -0.5 -0.5 z m -102,-1 V 355 h 0.5 0.5 v 0.5 0.5 H 768.5 768 Z M 967,355 v -1.33333 l 0.66667,0.66666 0.66666,0.66667 -0.66666,0.66667 L 967,356.33333 Z m 245,0.5 V 355 h 0.5 0.5 v 0.5 0.5 h -0.5 -0.5 z m -384,-1 V 354 h 0.5 0.5 v 0.5 0.5 h -0.5 -0.5 z m 43,0 V 354 h 0.5 0.5 v 0.5 0.5 h -0.5 -0.5 z m -104,-1 V 353 h 0.5 0.5 v 0.5 0.5 h -0.5 -0.5 z m 316,-0.5 v -1.33333 l 0.6667,0.66666 0.6666,0.66667 -0.6666,0.66667 -0.6667,0.66666 z M 829,352.5 V 352 h 0.5 0.5 v 0.5 0.5 h -0.5 -0.5 z m 381,0 V 352 h 0.5 0.5 v 0.5 0.5 h -0.5 -0.5 z m -444,-1 V 351 h 0.5 0.5 v 0.5 0.5 h -0.5 -0.5 z m 44,0 V 351 h 0.5 0.5 v 0.5 0.5 h -0.5 -0.5 z m 229,-0.5 v -1.33333 l 0.6667,0.66666 0.6666,0.66667 -0.6666,0.66667 -0.6667,0.66666 z M 765,349.5 V 349 h 0.5 0.5 v 0.5 0.5 h -0.5 -0.5 z m 44,0 V 349 h 0.5 0.5 v 0.5 0.5 H 809.5 809 Z M 924,349 v -1.33333 l 0.66667,0.66666 0.66666,0.66667 -0.66666,0.66667 L 924,350.33333 Z m 44,-0.5 V 348 h 0.5 0.5 v 0.5 0.5 h -0.5 -0.5 z m -204,-1 V 347 h 0.5 0.5 v 0.5 0.5 h -0.5 -0.5 z m 44,0 V 347 h 0.5 0.5 v 0.5 0.5 h -0.5 -0.5 z m 399,0 V 347 h 0.5 0.5 v 0.5 0.5 h -0.5 -0.5 z m -169,-1 V 346 h 0.5 0.5 v 0.5 0.5 h -0.5 -0.5 z m 44,-0.5 v -1.33333 l 0.6667,0.66666 0.6666,0.66667 -0.6666,0.66667 -0.6667,0.66666 z M 763,345.5 V 345 h 0.5 0.5 v 0.5 0.5 h -0.5 -0.5 z m 44,0 V 345 h 0.5 0.5 v 0.5 0.5 h -0.5 -0.5 z m 25,0 V 345 h 0.5 0.5 v 0.5 0.5 h -0.5 -0.5 z m 137,0 V 345 h 0.5 0.5 v 0.5 0.5 h -0.5 -0.5 z m 236,-1 V 344 h 0.5 0.5 v 0.5 0.5 h -0.5 -0.5 z m -443,-1 V 343 h 0.5 0.5 v 0.5 0.5 h -0.5 -0.5 z m 71,0 V 343 h 0.5 0.5 v 0.5 0.5 h -0.5 -0.5 z m 92,0 V 343 h 0.5 0.5 v 0.5 0.5 h -0.5 -0.5 z m 112,0 V 343 h 0.5 0.5 v 0.5 0.5 h -0.5 -0.5 z m -67,-1 V 342 h 0.5 0.5 v 0.5 0.5 h -0.5 -0.5 z m -209,-1 V 341 h 0.5 0.5 v 0.5 0.5 h -0.5 -0.5 z m 73,0 V 341 h 0.5 0.5 v 0.5 0.5 h -0.5 -0.5 z m 369,0 V 341 h 0.5 0.5 v 0.5 0.5 h -0.5 -0.5 z m -122,-1 V 340 h 0.5 0.5 v 0.5 0.5 h -0.5 -0.5 z m -321,-1 V 339 h 0.5 0.5 v 0.5 0.5 h -0.5 -0.5 z m 44,-1 V 338 h 0.5 0.5 v 0.5 0.5 h -0.5 -0.5 z m 122,0 V 338 h 0.5 0.5 v 0.5 0.5 h -0.5 -0.5 z m 275,0 V 338 h 0.5 0.5 v 0.5 0.5 h -0.5 -0.5 z m -442,-1 V 337 h 0.5 0.5 v 0.5 0.5 h -0.5 -0.5 z m 121,0 V 337 h 0.5 0.5 v 0.5 0.5 h -0.5 -0.5 z m 154,0 V 337 h 0.5 0.5 v 0.5 0.5 h -0.5 -0.5 z m -231,-1 V 336 h 0.5 0.5 v 0.5 0.5 h -0.5 -0.5 z m 170,0 V 336 h 0.5 0.5 v 0.5 0.5 h -0.5 -0.5 z m 107,0 V 336 h 0.5 0.5 v 0.5 0.5 h -0.5 -0.5 z m -199,-1 V 335 h 0.5 0.5 v 0.5 0.5 h -0.5 -0.5 z m 46,0 V 335 h 0.5 0.5 v 0.5 0.5 h -0.5 -0.5 z m 272,0 V 335 h 0.5 0.5 v 0.5 0.5 h -0.5 -0.5 z m -397,-1 V 334 h 0.5 0.5 v 0.5 0.5 h -0.5 -0.5 z m 35,0 V 334 h 0.5 0.5 v 0.5 0.5 h -0.5 -0.5 z m 45,-1 V 333 h 0.5 0.5 v 0.5 0.5 h -0.5 -0.5 z m 146.9243,-2.25 -2.4243,-2.75 2.75,2.42431 2.75,2.42432 V 333.67431 334 h -0.3257 -0.3257 z M 1079,333.5 V 333 h 0.5 0.5 v 0.5 0.5 h -0.5 -0.5 z m -278,-1 V 332 h 0.5 0.5 v 0.5 0.5 h -0.5 -0.5 z m 37,0 V 332 h 0.5 0.5 v 0.5 0.5 h -0.5 -0.5 z m 45,-1 V 331 h 0.5 0.5 v 0.5 0.5 h -0.5 -0.5 z m -44,-1 V 330 h 0.5 0.5 v 0.5 0.5 h -0.5 -0.5 z m 239,0 V 330 h 0.5 0.5 v 0.5 0.5 h -0.5 -0.5 z m 118,0 V 330 h 0.5 0.5 v 0.5 0.5 h -0.5 -0.5 z m -312,-1 V 329 h 0.5 0.5 v 0.5 0.5 h -0.5 -0.5 z m 45,0 V 329 h 0.5 0.5 v 0.5 0.5 h -0.5 -0.5 z m -44,-2 V 327 h 0.5 0.5 v 0.5 0.5 h -0.5 -0.5 z m 97,0 V 327 h 0.5 0.5 v 0.5 0.5 h -0.5 -0.5 z m 212,0 V 327 h 0.5 0.5 v 0.5 0.5 h -0.5 -0.5 z m -308,-2 V 325 h 0.5 0.5 v 0.5 0.5 h -0.5 -0.5 z m 135,0 V 325 h 0.5 0.5 v 0.5 0.5 h -0.5 -0.5 z m -33,-1 V 324 h 0.5 0.5 v 0.5 0.5 h -0.5 -0.5 z m 31,0 V 324 h 0.5 0.5 v 0.5 0.5 h -0.5 -0.5 z m 173,0 V 324 h 0.5 0.5 v 0.5 0.5 h -0.5 -0.5 z m -395,-1 V 323 h 0.5 0.5 v 0.5 0.5 h -0.5 -0.5 z m 90,0 V 323 h 0.5 0.5 v 0.5 0.5 h -0.5 -0.5 z m 103,0 V 323 h 0.5 0.5 v 0.5 0.5 h -0.5 -0.5 z m 26,0 V 323 h 0.5 0.5 v 0.5 0.5 h -0.5 -0.5 z m -22,-1 V 322 h 0.5 0.5 v 0.5 0.5 h -0.5 -0.5 z m 19,0 V 322 h 0.5 0.5 v 0.5 0.5 h -0.5 -0.5 z m -217,-1 V 321 h 0.5 0.5 v 0.5 0.5 h -0.5 -0.5 z m 47,0 V 321 h 0.5 0.5 v 0.5 0.5 h -0.5 -0.5 z m 45,0 V 321 h 0.5 0.5 v 0.5 0.5 h -0.5 -0.5 z m 111.8125,-0.18311 1.3125,-0.52522 0.6042,0.60416 0.6041,0.60417 -1.9166,-0.079 -1.9167,-0.0789 1.3125,-0.52522 z m 7,0 1.3125,-0.52522 0.6042,0.60416 0.6041,0.60417 -1.9166,-0.079 -1.9167,-0.0789 1.3125,-0.52522 z M 1190,321.5 V 321 h 0.5 0.5 v 0.5 0.5 h -0.5 -0.5 z m -395,-2 V 319 h 0.5 0.5 v 0.5 0.5 h -0.5 -0.5 z m 49,0 V 319 h 0.5 0.5 v 0.5 0.5 h -0.5 -0.5 z m 45,0 V 319 h 0.5 0.5 v 0.5 0.5 h -0.5 -0.5 z m 45,0 V 319 h 0.5 0.5 v 0.5 0.5 h -0.5 -0.5 z m 138,-1 V 318 h 0.5 0.5 v 0.5 0.5 h -0.5 -0.5 z m 116,0 V 318 h 0.5 0.5 v 0.5 0.5 h -0.5 -0.5 z m -298,-1 V 317 h 0.5 0.5 v 0.5 0.5 h -0.5 -0.5 z m 1,-2 V 315 h 0.5 0.5 v 0.5 0.5 h -0.5 -0.5 z m 178.4045,-0.65451 -0.7135,-1.15451 1.1545,0.71353 1.1545,0.71352 V 315.55902 316 h -0.441 -0.441 z M 892,313.5 V 313 h 0.5 0.5 v 0.5 0.5 h -0.5 -0.5 z m 46,0 V 313 h 0.5 0.5 v 0.5 0.5 h -0.5 -0.5 z m -193,-3 V 310 h 0.5 0.5 v 0.5 0.5 h -0.5 -0.5 z m 46,0 V 310 h 0.5 0.5 v 0.5 0.5 h -0.5 -0.5 z m 57,0 V 310 h 0.5 0.5 v 0.5 0.5 h -0.5 -0.5 z m 217.4045,-0.65451 -0.7135,-1.15451 1.1545,0.71353 1.1545,0.71352 V 310.55902 311 h -0.441 -0.441 z M 1183,310.5 V 310 h 0.5 0.5 v 0.5 0.5 h -0.5 -0.5 z m -289,-1 V 309 h 0.5 0.5 v 0.5 0.5 h -0.5 -0.5 z m -150,-1 V 308 h 0.5 0.5 v 0.5 0.5 h -0.5 -0.5 z m 46,0 V 308 h 0.5 0.5 v 0.5 0.5 h -0.5 -0.5 z m 59,0 V 308 h 0.5 0.5 v 0.5 0.5 h -0.5 -0.5 z m 332,-1 V 307 h 0.5 0.5 v 0.5 0.5 h -0.5 -0.5 z m -438,-1 V 306 h 0.5 0.5 v 0.5 0.5 h -0.5 -0.5 z m 46,0 V 306 h 0.5 0.5 v 0.5 0.5 h -0.5 -0.5 z m 61,0 V 306 h 0.5 0.5 v 0.5 0.5 h -0.5 -0.5 z m 46,-1 V 305 h 0.5 0.5 v 0.5 0.5 h -0.5 -0.5 z m -154,-1 V 304 h 0.5 0.5 v 0.5 0.5 h -0.5 -0.5 z m 46,0 V 304 h 0.5 0.5 v 0.5 0.5 h -0.5 -0.5 z m 391,0 V 304 h 0.5 0.5 v 0.5 0.5 h -0.5 -0.5 z m -120.5955,-1.65451 -0.7135,-1.15451 1.1545,0.71353 1.1545,0.71352 V 303.55902 304 h -0.441 -0.441 z M 741,302.5 V 302 h 0.5 0.5 v 0.5 0.5 h -0.5 -0.5 z m 46,0 V 302 h 0.5 0.5 v 0.5 0.5 h -0.5 -0.5 z m 390,-1 V 301 h 0.5 0.5 v 0.5 0.5 h -0.5 -0.5 z m -437,-1 V 300 h 0.5 0.5 v 0.5 0.5 h -0.5 -0.5 z m 211,0 V 300 h 0.5 0.5 v 0.5 0.5 h -0.5 -0.5 z m -98,-1 V 299 h 0.5 0.5 v 0.5 0.5 h -0.5 -0.5 z m -114,-1 V 298 h 0.5 0.5 v 0.5 0.5 h -0.5 -0.5 z m 314,0 V 298 h 0.5 0.5 v 0.5 0.5 h -0.5 -0.5 z m -199,-1 V 297 h 0.5 0.5 v 0.5 0.5 h -0.5 -0.5 z m 101,0 V 297 h 0.5 0.5 v 0.5 0.5 h -0.5 -0.5 z m -217,-1 V 296 h 0.5 0.5 v 0.5 0.5 h -0.5 -0.5 z m 312,0 V 296 h 0.5 0.5 v 0.5 0.5 h -0.5 -0.5 z m -266,-1 V 295 h 0.5 0.5 v 0.5 0.5 h -0.5 -0.5 z m 71,0 V 295 h 0.5 0.5 v 0.5 0.5 h -0.5 -0.5 z m 103,0 V 295 h 0.5 0.5 v 0.5 0.5 h -0.5 -0.5 z m -221,-1 V 294 h 0.5 0.5 v 0.5 0.5 h -0.5 -0.5 z m 310,0 V 294 h 0.5 0.5 v 0.5 0.5 h -0.5 -0.5 z m -264,-1 V 293 h 0.5 0.5 v 0.5 0.5 h -0.5 -0.5 z m 73,0 V 293 h 0.5 0.5 v 0.5 0.5 h -0.5 -0.5 z m 105,0 V 293 h 0.5 0.5 v 0.5 0.5 h -0.5 -0.5 z m 211,0 V 293 h 0.5 0.5 v 0.5 0.5 h -0.5 -0.5 z m -436,-1 V 292 h 0.5 0.5 v 0.5 0.5 h -0.5 -0.5 z m 227,0 V 292 h 0.5 0.5 v 0.5 0.5 h -0.5 -0.5 z m -181,-1 V 291 h 0.5 0.5 v 0.5 0.5 h -0.5 -0.5 z m 183,0 V 291 h 0.5 0.5 v 0.5 0.5 h -0.5 -0.5 z m 77,0 V 291 h 0.5 0.5 v 0.5 0.5 h -0.5 -0.5 z m -307,-1 V 290 h 0.5 0.5 v 0.5 0.5 h -0.5 -0.5 z m 232,0 V 290 h 0.5 0.5 v 0.5 0.5 h -0.5 -0.5 z m 203,0 V 290 h 0.5 0.5 v 0.5 0.5 h -0.5 -0.5 z m -201,-1 V 289 h 0.5 0.5 v 0.5 0.5 h -0.5 -0.5 z m -235,-1 V 288 h 0.5 0.5 v 0.5 0.5 h -0.5 -0.5 z m 124,0 V 288 h 0.5 0.5 v 0.5 0.5 h -0.5 -0.5 z m 177,0 V 288 h 0.5 0.5 v 0.5 0.5 h -0.5 -0.5 z m -61,-1 V 287 h 0.5 0.5 v 0.5 0.5 h -0.5 -0.5 z m 194,0 V 287 h 0.5 0.5 v 0.5 0.5 h -0.5 -0.5 z m -435,-1 V 286 h 0.5 0.5 v 0.5 0.5 h -0.5 -0.5 z m 126,0 V 286 h 0.5 0.5 v 0.5 0.5 h -0.5 -0.5 z m 47,0 V 286 h 0.5 0.5 v 0.5 0.5 h -0.5 -0.5 z m 71,0 V 286 h 0.5 0.5 v 0.5 0.5 h -0.5 -0.5 z m 52,0 V 286 h 0.5 0.5 v 0.5 0.5 h -0.5 -0.5 z m -48,-1 V 285 h 0.5 0.5 v 0.5 0.5 h -0.5 -0.5 z m 4.33333,-1.16667 0.66667,-0.66666 0.66667,0.66666 L 987.33333,285 H 986 984.66667 Z M 1021,284.5 V 284 h 0.5 0.5 v 0.5 0.5 h -0.5 -0.5 z M 992.33333,283.33333 993,282.66667 993.66667,283.33333 994.33333,284 H 993 991.66667 Z m 21.99997,0 0.6667,-0.66666 0.6667,0.66666 0.6666,0.66667 H 1015 1013.6667 Z M 719.47046,180 v -62.5 l 0.27901,31.25 0.27902,31.25 -0.27902,31.25 -0.27901,31.25 z m 211.84961,56 v -6.5 l 0.40333,3.25 0.40332,3.25 -0.40332,3.25 -0.40333,3.25 z m 100.00003,0 v -6.5 l 0.4033,3.25 0.4033,3.25 -0.4033,3.25 -0.4033,3.25 z m 121.0132,5.33333 0.6667,-0.66666 0.6667,0.66666 0.6666,0.66667 H 1153 1151.6667 Z M 634,240.5 V 240 h 0.5 0.5 v 0.5 0.5 h -0.5 -0.5 z m 523,0 V 240 h 0.5 0.5 v 0.5 0.5 h -0.5 -0.5 z m 4,-1 V 239 h 0.5 0.5 v 0.5 0.5 h -0.5 -0.5 z m -528,-2 V 237 h 0.5 0.5 v 0.5 0.5 h -0.5 -0.5 z m 533,0 V 237 h 0.5 0.5 v 0.5 0.5 h -0.5 -0.5 z m -534,-3 V 234 h 0.5 0.5 v 0.5 0.5 h -0.5 -0.5 z m 540,-1 V 233 h 0.5 0.5 v 0.5 0.5 h -0.5 -0.5 z m -541,-2 V 231 h 0.5 0.5 v 0.5 0.5 h -0.5 -0.5 z m 18,0 V 231 h 0.5 0.5 v 0.5 0.5 H 649.5 649 Z M 768.46758,174 v -56.5 l 0.28178,28.25 0.28179,28.25 -0.28179,28.25 -0.28178,28.25 z m 346.99652,6 v -50.5 l 0.2851,25.25 0.2851,25.25 -0.2851,25.25 -0.2851,25.25 z M 1148,229.5 V 229 h 0.5 0.5 v 0.5 0.5 h -0.5 -0.5 z m 84.4713,-22 0.029,-22 27.2504,-0.0246 27.2504,-0.0246 -26.9813,0.2906 -26.9813,0.2906 -0.2978,21.73397 -0.2978,21.73396 0.029,-22 z M 630,228.5 V 228 h 0.5 0.5 v 0.5 0.5 h -0.5 -0.5 z m 20,0 V 228 h 0.5 0.5 v 0.5 0.5 h -0.5 -0.5 z m 503,0 V 228 h 0.5 0.5 v 0.5 0.5 h -0.5 -0.5 z m 3,-1 V 227 h 0.5 0.5 v 0.5 0.5 h -0.5 -0.5 z m 2,-1 V 226 h 0.5 0.5 v 0.5 0.5 h -0.5 -0.5 z m 21,0 V 226 h 0.5 0.5 v 0.5 0.5 h -0.5 -0.5 z m -550,-1 V 225 h 0.5 0.5 v 0.5 0.5 h -0.5 -0.5 z m 22,0 V 225 h 0.5 0.5 v 0.5 0.5 h -0.5 -0.5 z m 509,0 V 225 h 0.5 0.5 v 0.5 0.5 h -0.5 -0.5 z m 3,-2 V 223 h 0.5 0.5 v 0.5 0.5 h -0.5 -0.5 z m 18,0 V 223 h 0.5 0.5 v 0.5 0.5 h -0.5 -0.5 z m -553,-1 V 222 h 0.5 0.5 v 0.5 0.5 h -0.5 -0.5 z m 24,0 V 222 h 0.5 0.5 v 0.5 0.5 h -0.5 -0.5 z m 530,-1 V 221 h 0.5 0.5 v 0.5 0.5 h -0.5 -0.5 z m -529,-2 V 219 h 0.5 0.5 v 0.5 0.5 h -0.5 -0.5 z m 530,0 V 219 h 0.5 0.5 v 0.5 0.5 h -0.5 -0.5 z m -15,-1 V 218 h 0.5 0.5 v 0.5 0.5 h -0.5 -0.5 z m -514,-2 V 216 h 0.5 0.5 v 0.5 0.5 h -0.5 -0.5 z m 530,0 V 216 h 0.5 0.5 v 0.5 0.5 h -0.5 -0.5 z m -543,-2 V 214 h 0.5 0.5 v 0.5 0.5 h -0.5 -0.5 z m 14,-1 V 213 h 0.5 0.5 v 0.5 0.5 h -0.5 -0.5 z m 530,0 V 213 h 0.5 0.5 v 0.5 0.5 h -0.5 -0.5 z m -14,-1 V 212 h 0.5 0.5 v 0.5 0.5 h -0.5 -0.5 z m -529,-1 V 211 h 0.5 0.5 v 0.5 0.5 h -0.5 -0.5 z m 14,-1 V 210 h 0.5 0.5 v 0.5 0.5 h -0.5 -0.5 z m 516,-1 V 209 h 0.5 0.5 v 0.5 0.5 h -0.5 -0.5 z m 14,-0.5 v -1.33333 l 0.6667,0.66666 0.6666,0.66667 -0.6666,0.66667 -0.6667,0.66666 z M 643,208.5 V 208 h 0.5 0.5 v 0.5 0.5 h -0.5 -0.5 z m -6,-1 V 207 h 0.5 0.5 v 0.5 0.5 h -0.5 -0.5 z m 20,0 V 207 h 0.5 0.5 v 0.5 0.5 h -0.5 -0.5 z m -34,-1 V 206 h 0.5 0.5 v 0.5 0.5 h -0.5 -0.5 z m 21,-1 V 205 h 0.5 0.5 v 0.5 0.5 h -0.5 -0.5 z m -8,-1 V 204 h 0.5 0.5 v 0.5 0.5 h -0.5 -0.5 z m 22,0 V 204 h 0.5 0.5 v 0.5 0.5 h -0.5 -0.5 z m 515,-0.5 v -1.33333 l 0.6667,0.66666 0.6666,0.66667 -0.6666,0.66667 -0.6667,0.66666 z M 622,203.5 V 203 h 0.5 0.5 v 0.5 0.5 h -0.5 -0.5 z m 23,-1 V 202 h 0.5 0.5 v 0.5 0.5 h -0.5 -0.5 z m 542,-0.5 v -1.33333 l 0.6667,0.66666 0.6666,0.66667 -0.6666,0.66667 -0.6667,0.66666 z M 635,201.5 V 201 h 0.5 0.5 v 0.5 0.5 h -0.5 -0.5 z m 24,0 V 201 h 0.5 0.5 v 0.5 0.5 h -0.5 -0.5 z m -38,-1 V 200 h 0.5 0.5 v 0.5 0.5 h -0.5 -0.5 z m 25,-1 V 199 h 0.5 0.5 v 0.5 0.5 h -0.5 -0.5 z m -12,-1 V 198 h 0.5 0.5 v 0.5 0.5 h -0.5 -0.5 z m 26,0 V 198 h 0.5 0.5 v 0.5 0.5 h -0.5 -0.5 z m -40,-1 V 197 h 0.5 0.5 v 0.5 0.5 h -0.5 -0.5 z m 27,-1 V 196 h 0.5 0.5 v 0.5 0.5 h -0.5 -0.5 z m 527.1949,-2 0.037,-3 0.461,1.76903 0.461,1.76903 -0.4981,1.23097 -0.498,1.23097 0.037,-3 z M 633,195.5 V 195 h 0.5 0.5 v 0.5 0.5 h -0.5 -0.5 z m 28,0 V 195 h 0.5 0.5 v 0.5 0.5 h -0.5 -0.5 z m -42,-1 V 194 h 0.5 0.5 v 0.5 0.5 h -0.5 -0.5 z m 13,-2 V 192 h 0.5 0.5 v 0.5 0.5 h -0.5 -0.5 z m 30,0 V 192 h 0.5 0.5 v 0.5 0.5 h -0.5 -0.5 z m -44,-1 V 191 h 0.5 0.5 v 0.5 0.5 h -0.5 -0.5 z m 13,-2 V 189 h 0.5 0.5 v 0.5 0.5 h -0.5 -0.5 z m 32,0 V 189 h 0.5 0.5 v 0.5 0.5 h -0.5 -0.5 z m -46,-1 V 188 h 0.5 0.5 v 0.5 0.5 h -0.5 -0.5 z m 33,-2 V 186 h 0.5 0.5 v 0.5 0.5 h -0.5 -0.5 z m 14,0 V 186 h 0.5 0.5 v 0.5 0.5 h -0.5 -0.5 z m -48,-1 V 185 h 0.5 0.5 v 0.5 0.5 h -0.5 -0.5 z m 365.25,-0.24757 13.75,-0.30887 13.75,0.30887 13.75,0.30888 H 995 967.5 Z M 651,183.5 V 183 h 0.5 0.5 v 0.5 0.5 h -0.5 -0.5 z m 14,0 V 183 h 0.5 0.5 v 0.5 0.5 h -0.5 -0.5 z m -50,-1 V 182 h 0.5 0.5 v 0.5 0.5 h -0.5 -0.5 z m 37,-2 V 180 h 0.5 0.5 v 0.5 0.5 h -0.5 -0.5 z m 14,0 V 180 h 0.5 0.5 v 0.5 0.5 h -0.5 -0.5 z m -52,-1 V 179 h 0.5 0.5 v 0.5 0.5 h -0.5 -0.5 z m 14,0 V 179 h 0.5 0.5 v 0.5 0.5 h -0.5 -0.5 z m 25,-2 V 177 h 0.5 0.5 v 0.5 0.5 h -0.5 -0.5 z m -40,-1 V 176 h 0.5 0.5 v 0.5 0.5 h -0.5 -0.5 z m 14,0 V 176 h 0.5 0.5 v 0.5 0.5 h -0.5 -0.5 z m 27,-2 V 174 h 0.5 0.5 v 0.5 0.5 h -0.5 -0.5 z m -42,-1 V 173 h 0.5 0.5 v 0.5 0.5 h -0.5 -0.5 z m 14,0 V 173 h 0.5 0.5 v 0.5 0.5 h -0.5 -0.5 z m 355.25,-0.24757 13.75,-0.30887 13.75,0.30887 13.75,0.30888 H 995 967.5 Z m 251.1976,-0.52827 -0.4895,-1.27584 0.2924,-20.97416 0.2924,-20.97416 0.2285,21.73393 0.2286,21.73393 27.25,0.28282 27.25,0.28283 -27.2814,0.23324 L 1232.9372,174 Z M 655,171.5 V 171 h 0.5 0.5 v 0.5 0.5 h -0.5 -0.5 z m -44,-1 V 170 h 0.5 0.5 v 0.5 0.5 h -0.5 -0.5 z m 14,0 V 170 h 0.5 0.5 v 0.5 0.5 h -0.5 -0.5 z m 31,-2 V 168 h 0.5 0.5 v 0.5 0.5 h -0.5 -0.5 z m -46,-1 V 167 h 0.5 0.5 v 0.5 0.5 h -0.5 -0.5 z m 14,0 V 167 h 0.5 0.5 v 0.5 0.5 h -0.5 -0.5 z m 550.1949,-4 0.037,-3 0.461,1.76903 0.461,1.76903 -0.4981,1.23097 -0.498,1.23097 0.037,-3 z M 609,164.5 V 164 h 0.5 0.5 v 0.5 0.5 h -0.5 -0.5 z m 14,0 V 164 h 0.5 0.5 v 0.5 0.5 h -0.5 -0.5 z m -15,-3 V 161 h 0.5 0.5 v 0.5 0.5 h -0.5 -0.5 z m 14,0 V 161 h 0.5 0.5 v 0.5 0.5 h -0.5 -0.5 z m 36,0 V 161 h 0.5 0.5 v 0.5 0.5 h -0.5 -0.5 z m -51,-3 V 158 h 0.5 0.5 v 0.5 0.5 h -0.5 -0.5 z m 52,0 V 158 h 0.5 0.5 v 0.5 0.5 h -0.5 -0.5 z m 14,0 V 158 h 0.5 0.5 v 0.5 0.5 h -0.5 -0.5 z m 514,-2.5 v -1.33333 l 0.6667,0.66666 0.6666,0.66667 -0.6666,0.66667 -0.6667,0.66666 z M 606,155.5 V 155 h 0.5 0.5 v 0.5 0.5 h -0.5 -0.5 z m 54,0 V 155 h 0.5 0.5 v 0.5 0.5 h -0.5 -0.5 z m 14,0 V 155 h 0.5 0.5 v 0.5 0.5 h -0.5 -0.5 z m 499,-1 V 154 h 0.5 0.5 v 0.5 0.5 h -0.5 -0.5 z m -512,-2 V 152 h 0.5 0.5 v 0.5 0.5 h -0.5 -0.5 z m 14,0 V 152 h 0.5 0.5 v 0.5 0.5 h -0.5 -0.5 z m -56,-1 V 151 h 0.5 0.5 v 0.5 0.5 h -0.5 -0.5 z m 553,-1 V 150 h 0.5 0.5 v 0.5 0.5 h -0.5 -0.5 z m -510,-1 V 149 h 0.5 0.5 v 0.5 0.5 h -0.5 -0.5 z m 14,0 V 149 h 0.5 0.5 v 0.5 0.5 h -0.5 -0.5 z m 510,0 V 149 h 0.5 0.5 v 0.5 0.5 h -0.5 -0.5 z m -568,-1 V 148 h 0.5 0.5 v 0.5 0.5 h -0.5 -0.5 z m 45,-2 V 146 h 0.5 0.5 v 0.5 0.5 h -0.5 -0.5 z m 14,0 V 146 h 0.5 0.5 v 0.5 0.5 h -0.5 -0.5 z m -60,-1 V 145 h 0.5 0.5 v 0.5 0.5 h -0.5 -0.5 z m 568,0 V 145 h 0.5 0.5 v 0.5 0.5 h -0.5 -0.5 z m -521,-2 V 143 h 0.5 0.5 v 0.5 0.5 h -0.5 -0.5 z m 14,0 V 143 h 0.5 0.5 v 0.5 0.5 h -0.5 -0.5 z m -62,-1 V 142 h 0.5 0.5 v 0.5 0.5 h -0.5 -0.5 z m 568,0 V 142 h 0.5 0.5 v 0.5 0.5 h -0.5 -0.5 z m -16,-1 V 141 h 0.5 0.5 v 0.5 0.5 h -0.5 -0.5 z m -489,-1 V 140 h 0.5 0.5 v 0.5 0.5 h -0.5 -0.5 z m 504,0 V 140 h 0.5 0.5 v 0.5 0.5 h -0.5 -0.5 z m -568,-1 V 139 h 0.5 0.5 v 0.5 0.5 h -0.5 -0.5 z m 65,-2 V 137 h 0.5 0.5 v 0.5 0.5 h -0.5 -0.5 z m -66,-1 V 136 h 0.5 0.5 v 0.5 0.5 h -0.5 -0.5 z m 567,0 V 136 h 0.5 0.5 v 0.5 0.5 h -0.5 -0.5 z m -19,-1 V 135 h 0.5 0.5 v 0.5 0.5 h -0.5 -0.5 z m -481,-1 V 134 h 0.5 0.5 v 0.5 0.5 h -0.5 -0.5 z m -82,-1 V 133 h 0.5 0.5 v 0.5 0.5 h -0.5 -0.5 z m 14,0 V 133 h 0.5 0.5 v 0.5 0.5 h -0.5 -0.5 z m 54,0 V 133 h 0.5 0.5 v 0.5 0.5 h -0.5 -0.5 z m 512,0 V 133 h 0.5 0.5 v 0.5 0.5 h -0.5 -0.5 z m -23,-1 V 132 h 0.5 0.5 v 0.5 0.5 h -0.5 -0.5 z m -474,-1 V 131 h 0.5 0.5 v 0.5 0.5 h -0.5 -0.5 z m 471,0 V 131 h 0.5 0.5 v 0.5 0.5 h -0.5 -0.5 z m -555,-1 V 130 h 0.5 0.5 v 0.5 0.5 h -0.5 -0.5 z m 70,0 V 130 h 0.5 0.5 v 0.5 0.5 h -0.5 -0.5 z m 480.3333,-0.16667 0.6667,-0.66666 0.6667,0.66666 0.6666,0.66667 H 1149 1147.6667 Z M 1031.3201,124 v -6.5 l 0.4033,3.25 0.4033,3.25 -0.4033,3.25 -0.4033,3.25 z M 683,128.5 V 128 h 0.5 0.5 v 0.5 0.5 h -0.5 -0.5 z m -86,-1 V 127 h 0.5 0.5 v 0.5 0.5 h -0.5 -0.5 z m 72,0 V 127 h 0.5 0.5 v 0.5 0.5 h -0.5 -0.5 z m 15,-2 V 125 h 0.5 0.5 v 0.5 0.5 h -0.5 -0.5 z m 487,0 V 125 h 0.5 0.5 v 0.5 0.5 h -0.5 -0.5 z m -575,-1 V 124 h 0.5 0.5 v 0.5 0.5 h -0.5 -0.5 z m 74,0 V 124 h 0.5 0.5 v 0.5 0.5 h -0.5 -0.5 z m -60,-1 V 123 h 0.5 0.5 v 0.5 0.5 h -0.5 -0.5 z m 558,0 V 123 h 0.5 0.5 v 0.5 0.5 h -0.5 -0.5 z m -483,-1 V 122 h 0.5 0.5 v 0.5 0.5 h -0.5 -0.5 z m 481,0 V 122 h 0.5 0.5 v 0.5 0.5 h -0.5 -0.5 z m -571,-1 V 121 h 0.5 0.5 v 0.5 0.5 h -0.5 -0.5 z m 76,0 V 121 h 0.5 0.5 v 0.5 0.5 h -0.5 -0.5 z m 493,0 V 121 h 0.5 0.5 v 0.5 0.5 h -0.5 -0.5 z m -555,-1 V 120 h 0.5 0.5 v 0.5 0.5 h -0.5 -0.5 z m 552,0 V 120 h 0.5 0.5 v 0.5 0.5 h -0.5 -0.5 z m -475,-1 V 119 h 0.5 0.5 v 0.5 0.5 h -0.5 -0.5 z m 472,0 V 119 h 0.5 0.5 v 0.5 0.5 h -0.5 -0.5 z m -564,-1 V 118 h 0.5 0.5 v 0.5 0.5 h -0.5 -0.5 z m 78,0 V 118 h 0.5 0.5 v 0.5 0.5 h -0.5 -0.5 z m 481,0 V 118 h 0.5 0.5 v 0.5 0.5 h -0.5 -0.5 z"
         id="path18" />
      <path
         style="fill:#1b181b"
         d="m 990.5,504.89085 -6,-0.86526 -7,-2.10466 -7,-2.10466 -6.62766,-3.46772 -6.62767,-3.46771 -6.62982,-5.46859 -6.62982,-5.46859 -4.42166,-5.63365 -4.42166,-5.63364 -2.50915,-4.61014 -2.50915,-4.61014 -2.44935,-8.47804 L 925.22471,444.5 924.11236,434.21078 923,423.92156 l 0.0173,-29.71078 0.0173,-29.71078 0.99955,-9.5 0.99956,-9.5 1.57049,-6.5 1.57049,-6.5 3.98599,-8.18545 3.986,-8.18544 6.04882,-6.60122 6.04882,-6.60123 6.12781,-4.34542 6.12781,-4.34543 6.35647,-3.18605 6.35648,-3.18605 7.64352,-2.08919 7.64353,-2.08919 14.99996,-0.0679 15,-0.0679 7,1.85132 7,1.85131 6.1372,2.76002 6.1372,2.76001 6.1612,4.18397 6.1611,4.18396 5.2463,5.24628 5.2463,5.24628 4.1389,6.19807 4.1389,6.19808 2.159,5.73554 2.159,5.73554 1.4001,6.5 1.4001,6.5 1.1365,15 1.1366,15 -0.5645,27 -0.5644,27 -1.6761,9.5 -1.6761,9.5 -2.4362,6.5 -2.4362,6.5 -4.0433,6.20918 -4.0433,6.20919 -7.2917,6.92637 -7.2917,6.92638 -6.8674,4.05667 -6.8675,4.05668 -7.5,2.49683 -7.5,2.49684 -8.4738,1.06093 -8.4737,1.06093 -5.5263,-0.12194 -5.52616,-0.12194 -6,-0.86527 z m 20.012,-37.9777 5.8793,-1.08686 4.203,-1.97561 4.2029,-1.9756 4.662,-4.59614 4.662,-4.59614 2.0043,-3.92877 2.0043,-3.92878 1.6195,-7.66263 1.6194,-7.66262 0.066,-34 0.066,-34 -1.2948,-7.5 -1.2948,-7.5 -2.3754,-5.1965 -2.3754,-5.1965 -4.3559,-4.35589 -4.3559,-4.3559 -4.6282,-2.2405 -4.6283,-2.24051 -6.0858,-1.13177 -6.0858,-1.13177 -6.63904,1.2233 -6.63907,1.22329 -4.6406,2.35157 -4.6406,2.35157 -4.58373,4.90039 -4.58374,4.90038 -2.0404,5.45346 -2.0404,5.45345 -1.10324,8.99597 -1.10325,8.99596 -0.003,27.28941 -0.003,27.28942 1.07228,9.61624 1.07227,9.61625 1.98148,5.29597 1.98147,5.29597 4.49364,4.99801 4.49363,4.998 5.3531,2.61903 5.3531,2.61903 4.84952,0.81371 4.84948,0.81372 1.5663,0.11762 1.5664,0.11762 5.8793,-1.08685 z M 799,459.39601 V 414.79202 L 773.11797,364.14601 747.23594,313.5 740.11129,299.25 732.98665,285 h 23.31361 23.31361 l 4.15725,9.25 4.15724,9.25 15.51676,33.43094 15.51676,33.43094 0.85509,0.85509 0.85508,0.85508 6.24175,-13.78602 6.24174,-13.78603 13.6094,-29.75 13.6094,-29.75 h 23.38434 23.38434 l -9.94218,19.25 -9.94217,19.25 -23.12933,45.59689 L 841,414.69377 V 459.34689 504 H 820 799 Z M 1128,394.5 V 285 h 19.4057 19.4057 l 43.0943,66.66672 L 1253,418.33343 V 351.66672 285 h 21.5 21.5 v 109.52159 109.5216 l -19.1758,-0.2716 -19.1758,-0.27159 -33.5742,-52.01465 -33.5742,-52.01465 -9.7389,-14.98535 -9.7389,-14.98535 -0.011,67.25 -0.011,67.25 h -21.5 -21.5 V 394.5 Z m -524,-1 V 284 h 21.5 21.5 v 90.5 90.5 h 49.5 49.5 v 19 19 H 675 604 Z M 629.66127,225.29696 624.12514,208.5 609.56257,164.20712 595,119.91425 V 118.95712 118 h 6.75995 6.75994 l 15.92118,49.55204 15.92118,49.55204 0.71022,-1.30204 0.71022,-1.30204 15.19963,-47.5 15.19964,-47.5 0.75815,-0.79913 0.75815,-0.79913 6.46596,0.29913 6.46596,0.29913 -20.21108,61.5 -20.21109,61.5 -5.5053,0.29696 -5.5053,0.29696 z M 706,180 v -62 h 6.5 6.5 v 62 62 h -6.5 -6.5 z m 49,0 v -62 h 6.5 6.5 v 56 56 h 32 32 v 6 6 H 793.5 755 Z m 100,0 v -62 h 6.5 6.5 v 56 56 h 31.5 31.5 v 6 6 h -38 -38 z m 99,0 v -62 h 38.5 38.5 v 6 6 H 999.5 968 v 22 22 h 27 27 v 5.5 5.5 h -27 -27 v 22.5 22.5 h 31.5 31.5 v 6 6 H 992.5 954 Z m 148,-0.0716 v -62.07155 l 27.25,0.34998 27.25,0.34997 5.6448,2.25407 5.6448,2.25407 4.0943,2.96589 4.0943,2.96589 3.4506,4.75162 3.4506,4.75161 2.2329,6.5 2.233,6.5 0.4265,23 0.4264,23 -1.5402,8.9092 -1.5402,8.90919 -3.1009,6.29883 -3.1009,6.29883 -4.208,3.62928 -4.208,3.62927 -3.7185,1.91696 -3.7185,1.91697 -6.2815,1.48095 -6.2815,1.48096 -24.25,0.0148 L 1102,242 v -62.07155 z m 55.0508,47.44625 4.5508,-2.08601 3.5729,-3.13707 3.5729,-3.13706 2.0421,-4.75728 2.0421,-4.75728 1.0842,-7.82236 1.0842,-7.82236 -0.01,-15.17764 -0.01,-15.17764 -1.0536,-6.49398 -1.0536,-6.49398 -1.9901,-4.50602 -1.99,-4.50602 -3.0806,-3.18353 -3.0805,-3.18353 -5.1182,-2.30773 -5.1183,-2.30774 -18.75,-0.33665 -18.75,-0.33665 v 50.17159 50.17158 l 18.75,-0.36331 18.75,-0.36332 4.5508,-2.08601 z M 1219,180 v -62 h 38.5 38.5 v 6 6 h -32.0195 -32.0195 l 0.2695,21.75 0.2695,21.75 27.25,0.26607 27.25,0.26607 v 5.46786 5.46786 l -27.25,0.26607 -27.25,0.26607 -0.2691,22.25 -0.2692,22.25 H 1263.9809 1296 v 6 6 h -38.5 -38.5 z"
         id="path16" />
    </g>
  </g>
</svg>
