<?xml version="1.0" encoding="utf-8"?>
<!-- Generator: Adobe Illustrator 24.0.1, SVG Export Plug-In . SVG Version: 6.00 Build 0)  -->
<svg version="1.1" id="Calque_1" xmlns="http://www.w3.org/2000/svg" xmlns:xlink="http://www.w3.org/1999/xlink" x="0px" y="0px"
	 viewBox="0 0 1345.77 220.98" style="enable-background:new 0 0 1345.77 220.98;" xml:space="preserve">
<style type="text/css">
	.st0{fill:#E6322F;}
	.st1{fill:#FFFFFF;}
	.st2{fill:#0F9B39;}
	.st3{fill:#147132;}
	.st4{fill:#1261AC;}
</style>
<g>
	<g>
		<g>
			<path class="st0" d="M214.79,124.27c-1.31-1.38-2.75-2.72-4.33-4.02c-11.11-9.14-28.82-16.38-50.19-20.38
				c-11.83-2.21-24.79-3.44-38.37-3.44c-13.66,0-26.69,1.24-38.58,3.48c-36.74,6.92-62.61,23.42-62.61,42.68
				c0,12.63,11.13,24.08,29.16,32.42c2.42,1.12,4.95,2.18,7.6,3.18c17.5,6.6,39.95,10.56,64.42,10.56
				c55.88,0,101.19-20.67,101.19-46.16C223.08,136.08,220.12,129.89,214.79,124.27z"/>
			<path class="st1" d="M121.89,196.53c-24.39,0-48.25-3.93-67.17-11.06c-2.78-1.05-5.52-2.19-8.12-3.4
				c-21.71-10.04-33.67-24.06-33.67-39.48c0-23.03,26.42-42.32,68.94-50.32c12.73-2.4,26.19-3.61,40.02-3.61
				c13.75,0,27.13,1.2,39.8,3.57c22.5,4.21,41.57,12.03,53.71,22.02c1.82,1.5,3.52,3.07,5.03,4.67l0,0
				c6.82,7.19,10.43,15.37,10.43,23.67c0,15.55-12.14,29.66-34.18,39.71C176.57,191.48,150.01,196.53,121.89,196.53z M121.89,104.2
				c-12.86,0-25.36,1.12-37.14,3.34c-33.13,6.24-56.27,20.65-56.27,35.04c0,8.87,8.98,18.12,24.65,25.36
				c2.27,1.05,4.65,2.04,7.08,2.96c17.21,6.49,39.12,10.06,61.68,10.06c55.05,0,93.41-20.23,93.41-38.39c0-4.3-2.07-8.67-6.15-12.97
				h0c-1.08-1.14-2.3-2.27-3.63-3.37c-10.15-8.35-26.73-15.01-46.68-18.75C147.11,105.32,134.68,104.2,121.89,104.2z"/>
		</g>
		<g>
			<path class="st1" d="M214.83,124.27c-1.31-1.38-2.75-2.72-4.34-4.02c-11.11-9.14-28.83-16.38-50.22-20.38
				c-11.84-2.21-24.8-3.44-38.39-3.44c-13.67,0-26.7,1.24-38.6,3.48c-36.76,6.92-62.64,23.42-62.64,42.68
				c0,12.63,11.14,24.08,29.17,32.42c2.42,1.12,4.95,2.18,7.61,3.18c17.51,6.6,39.97,10.56,64.46,10.56
				c55.91,0,101.24-20.67,101.24-46.16C223.13,136.08,220.17,129.89,214.83,124.27z"/>
			<g>
				<path class="st2" d="M223.13,142.56c0-0.45-0.02-0.9-0.04-1.35c-0.01-0.09-0.02-0.18-0.02-0.26c-0.03-0.36-0.06-0.73-0.11-1.09
					c-0.01-0.1-0.03-0.2-0.04-0.3c-0.05-0.36-0.11-0.71-0.18-1.07c-0.02-0.09-0.03-0.18-0.05-0.26c-0.08-0.38-0.17-0.76-0.26-1.14
					c-0.01-0.05-0.03-0.11-0.04-0.16c-1.34-5.01-4.44-9.77-9.01-14.16c-0.01-0.01-0.02-0.02-0.03-0.03c-0.42-0.4-0.85-0.8-1.29-1.19
					c-5.47-0.35-13.34,0.66-22.69,2.63c0.07,0.57,0.11,1.15,0.11,1.73c0,17.1-30.39,30.96-67.88,30.96
					c-8.92,0-17.42-0.79-25.22-2.22c-19.74,8.05-36.39,15.85-44.71,21.16c0.43,0.19,0.85,0.38,1.28,0.56
					c0.38,0.16,0.76,0.32,1.15,0.48c0.83,0.34,1.68,0.68,2.53,1.01c0.47,0.18,0.94,0.36,1.42,0.54c0.59,0.22,1.18,0.43,1.78,0.64
					c0.6,0.21,1.2,0.42,1.8,0.63c0.6,0.2,1.2,0.4,1.8,0.6c0.63,0.2,1.27,0.41,1.92,0.6c0.6,0.19,1.2,0.37,1.82,0.55
					c0.68,0.2,1.36,0.39,2.05,0.58c0.6,0.17,1.19,0.33,1.8,0.5c0.75,0.2,1.51,0.39,2.27,0.58c0.57,0.14,1.13,0.29,1.7,0.42
					c0.95,0.23,1.91,0.44,2.88,0.65c0.4,0.09,0.79,0.18,1.19,0.27c1.36,0.29,2.73,0.56,4.12,0.83c0.5,0.09,1.01,0.18,1.51,0.27
					c0.92,0.17,1.84,0.33,2.77,0.49c0.59,0.1,1.19,0.19,1.79,0.28c0.86,0.13,1.73,0.27,2.6,0.39c0.63,0.09,1.26,0.17,1.89,0.25
					c0.86,0.11,1.72,0.22,2.59,0.33c0.65,0.08,1.3,0.15,1.95,0.22c0.87,0.1,1.75,0.19,2.63,0.27c0.66,0.06,1.31,0.12,1.97,0.18
					c0.9,0.08,1.8,0.15,2.71,0.22c0.65,0.05,1.3,0.1,1.95,0.14c0.95,0.06,1.9,0.11,2.86,0.16c0.62,0.03,1.24,0.07,1.87,0.09
					c1.06,0.05,2.12,0.08,3.19,0.11c0.53,0.02,1.06,0.04,1.6,0.05c1.6,0.03,3.22,0.05,4.84,0.05c0,0,0,0,0,0
					c0.89,0,1.77-0.01,2.66-0.02C179.22,188.09,223.11,167.67,223.13,142.56z"/>
				<path class="st3" d="M147.28,136.86c0,6.47-11.51,11.72-25.7,11.72c-2.89,0-5.67-0.22-8.27-0.62
					c-5.81,2.21-11.5,4.45-16.95,6.67c7.8,1.43,16.3,2.22,25.22,2.22c37.49,0,67.88-13.86,67.88-30.96c0-0.58-0.04-1.15-0.11-1.73
					c-12.17,2.56-26.86,6.76-42.15,11.77C147.25,136.25,147.28,136.55,147.28,136.86z"/>
				<path class="st2" d="M53.71,125.89c0-11.32,13.33-21.21,33.2-26.61c-0.01-0.02-0.02-0.04-0.03-0.06
					c-38.65,6.5-66.22,23.45-66.22,43.33c0,0.01,0,0.02,0,0.03c0,0.66,0.04,1.32,0.1,1.97c0.01,0.09,0.01,0.18,0.02,0.27
					c0.06,0.61,0.16,1.21,0.28,1.81c0.03,0.14,0.05,0.29,0.08,0.43c0.12,0.56,0.27,1.12,0.43,1.68c0.05,0.18,0.1,0.35,0.16,0.53
					c0.17,0.53,0.36,1.06,0.57,1.59c0.08,0.19,0.16,0.39,0.24,0.58c0.22,0.51,0.45,1.02,0.71,1.52c0.1,0.2,0.21,0.4,0.32,0.6
					c0.24,0.45,0.5,0.91,0.77,1.36c0.14,0.24,0.3,0.47,0.45,0.71c0.25,0.39,0.51,0.77,0.78,1.16c0.2,0.28,0.4,0.56,0.61,0.83
					c0.28,0.37,0.57,0.74,0.87,1.11c0.2,0.25,0.4,0.49,0.61,0.74c0.35,0.4,0.71,0.81,1.09,1.2c0.21,0.23,0.42,0.45,0.64,0.68
					c0.41,0.42,0.83,0.83,1.26,1.24c0.24,0.23,0.48,0.45,0.73,0.68c0.45,0.4,0.9,0.81,1.37,1.2c0.26,0.22,0.53,0.44,0.8,0.66
					c0.46,0.37,0.93,0.74,1.41,1.11c0.3,0.23,0.61,0.46,0.93,0.69c0.42,0.31,0.84,0.61,1.27,0.91c0.39,0.27,0.79,0.55,1.2,0.82
					c0.43,0.29,0.87,0.57,1.31,0.85c0.41,0.26,0.82,0.52,1.25,0.77c0.49,0.3,0.98,0.59,1.49,0.88c0.32,0.19,0.65,0.37,0.97,0.56
					c0.64,0.36,1.29,0.7,1.94,1.05c0.19,0.1,0.39,0.2,0.58,0.3c10.64-7.39,26.49-14.84,40.47-20.7
					C66.8,146.94,53.71,137.11,53.71,125.89z"/>
				<path class="st2" d="M188.37,120.34c6.61-1.29,12.94-2.31,18.52-2.87c-11.94-8.4-29.71-14.92-50.69-18.36
					c-0.02,0.04-0.05,0.09-0.07,0.13C172.74,103.73,184.8,111.36,188.37,120.34z"/>
				<path class="st3" d="M95.89,136.86c0-3.75,3.87-7.09,9.89-9.24c-7.05-9.37-14.49-20.3-18.87-28.34
					c-19.87,5.4-33.2,15.29-33.2,26.61c0,11.22,13.09,21.05,32.68,26.48c6.49-2.72,12.57-5.11,17.54-6.99
					C98.98,143.24,95.89,140.22,95.89,136.86z"/>
				<path class="st3" d="M188.37,120.34c-3.57-8.98-15.62-16.61-32.24-21.1c-4.96,8.7-12.6,19.94-18.94,28.31
					c3.08,1.07,5.61,2.46,7.36,4.05C157.19,127.6,173.51,123.25,188.37,120.34z"/>
				<g>
					<g>
						<path class="st0" d="M121.42,24.26c-22.63,0-41.05,18.42-41.05,41.05c0,28.07,36.75,69.3,38.25,71.05
							c1.49,1.67,4.04,1.67,5.53,0c1.58-1.75,38.25-42.98,38.25-71.05C162.47,42.68,144.05,24.26,121.42,24.26z"/>
						<path class="st1" d="M121.38,145.39c-3.25,0-6.37-1.4-8.56-3.84l-0.38-0.43c-7.57-8.71-15.04-18.55-21.04-27.7
							C78.92,94.37,72.59,78.19,72.59,65.31c0-26.92,21.9-48.83,48.83-48.83c13.05,0,25.32,5.1,34.55,14.36
							c9.2,9.24,14.24,21.49,14.19,34.49c0,30.62-36.12,71.65-40.24,76.22C127.75,143.99,124.63,145.39,121.38,145.39z
							 M118.36,131.17c0,0-0.01,0.01-0.01,0.01C118.35,131.18,118.36,131.17,118.36,131.17z M121.42,32.04
							c-18.35,0-33.28,14.93-33.28,33.28c0,11.25,8.8,33.38,33.26,62.36c11.5-13.61,33.21-43.25,33.21-62.36
							c0.03-8.87-3.4-17.2-9.66-23.49C138.66,35.51,130.31,32.04,121.42,32.04z"/>
					</g>
					<path class="st0" d="M121.63,24.26c-22.63,0-41.05,18.42-41.05,41.05c0,28.07,36.75,69.3,38.25,71.05
						c1.49,1.67,4.04,1.67,5.53,0c1.58-1.75,38.25-42.98,38.25-71.05C162.68,42.68,144.26,24.26,121.63,24.26z"/>
					<circle class="st1" cx="121.89" cy="65.93" r="28.51"/>
					<path class="st0" d="M141.19,50.49c-0.44-0.96-0.96-1.49-2.11-2.28c-0.96-0.7-2.46-0.35-3.25,0.44
						c-4.12,4.04-8.07,8.33-11.67,12.81c-1.75,2.19-4.3,4.82-5.88,7.63c-0.79-0.61-1.49-1.23-2.19-1.84
						c-2.28-2.11-4.74-4.74-7.63-6.05c-2.37-1.14-4.12-0.09-5.61,1.84c-0.44,0.61-0.96,1.58-0.96,2.37c-0.61,0.61-0.79,1.67,0,2.63
						c5,6.14,11.23,10.96,17.81,15.35c0.88,0.61,2.54,0.44,3.25-0.44c7.11-9.04,13.77-19.03,19.56-28.95
						C143.56,52.24,142.59,50.84,141.19,50.49z"/>
				</g>
			</g>
		</g>
		<path class="st1" d="M105.78,141.2c-15.99,4.36-36.07,11.97-68.66,28.93l17.51,9.95c16.22-11.79,65.05-32.98,65.05-32.98
			L105.78,141.2z"/>
		<path class="st1" d="M141.97,140.51c32.43-10.99,50.12-17.92,78.5-18.1l-14.74-10.32c-12.35,1.11-39.25,5.11-71.31,19.51
			L141.97,140.51z"/>
	</g>
</g>
<g>
	<g>
		<path class="st4" d="M332.86,74.94c5.94,3.42,14.77,11.53,14.77,19.46c0,2.34-0.72,4.68-2.52,7.03c-2.88,1.26-7.21-0.18-9.37-1.44
			l-0.54-4.14c-0.18-2.16-0.72-4.14-1.44-5.4l-2.88-1.08c-0.18,0-0.54-0.18-1.08-0.72c-5.04,0.54-10.45,0.72-15.31,0.9
			c-11.35,0.36-23.42,1.62-33.51,5.95l-4.32,4.32c0,0.36-0.18,0.9-0.36,1.44c0.18-0.18,0.36-0.36,0.72-0.18
			c-1.26,6.31,7.39,6.13,14.77,5.95h2.7c2.16,0,4.86,0,6.49,0.18c5.22,0.54,11.53,0.9,17.29,1.26l9.55,0.54
			c2.7,1.08,6.49,2.16,10.45,2.88c9.37,3.96,15.49,14.59,15.49,25.4c0,4.68-1.26,9.91-3.96,14.23c-9.55,9.01-25.4,10.45-39.63,11.17
			c-4.14-0.54-7.93-0.9-11.71-1.26c-0.9,0-1.98-0.18-2.88-0.18c-6.85-0.54-14.41-1.26-20.72-3.24c-4.86-3.24-9.01-10.27-9.01-18.19
			c0-2.16,0.36-4.68,1.44-7.39c8.83-2.7,11.35,3.78,13.33,9.55c0.18,0.72,0.36,1.44,0.36,1.62c8.11,1.8,18.01,2.88,27.2,2.88
			c7.75,0,16.57-1.08,23.42-3.24h-0.18l1.62-0.72v0.18c3.24-1.8,6.67-3.6,8.29-6.84l-0.18,0.18c0.72-2.7,0.18-6.13-1.26-7.39
			c-6.66-3.96-16.03-4.86-24.5-5.4l-7.75-0.54c-3.06-0.18-7.57-0.36-10.27-0.36c-8.65-0.18-16.75-0.36-24.5-3.96l-0.18-0.72
			c-0.18,0-0.72,0-1.98-0.9c-3.96-3.96-6.3-10.99-6.3-18.01c0-5.22,1.62-10.45,4.68-14.23c4.86-5.58,14.95-8.65,23.06-9.73
			c7.57-1.08,15.49-1.08,21.8-1.08c5.04,0,10.27,0,15.49-0.36l2.7,1.44L332.86,74.94z"/>
		<path class="st4" d="M374.29,80.52l1.44,1.8c0,3.06-0.18,7.21-0.36,9.91c-0.36,3.24,0,6.49,0.54,9.37
			c0.36,1.8,0.54,4.32,0.54,6.66v3.78c0.18,6.85,0.18,17.65,0.18,24.14c0,5.76,0,11.53,0.18,18.73c0.72,1.26,0.18,1.8-0.72,3.06
			c0,0,0.18,0,0.72,1.8c-1.98,0-2.88,0.18-3.24,0.72l-3.96-0.36c-2.88-0.18-5.76-0.54-7.21-3.6c0.36-1.98,0-3.24-0.18-4.68
			c-0.18-1.44,0-2.7,0.18-3.96c-0.36-1.8-0.36-4.14-0.36-6.49c0-1.98,0-5.04,0.18-7.03v-3.24c0-1.26,0.18-2.34,0.18-3.06
			c0-2.88-0.18-5.76-0.72-8.29c0.18-0.36,0.9-1.62,0.72-1.44c-0.72-4.14-0.54-9.73-0.54-14.41c0-2.88,0-5.4-0.18-7.93l-0.36-4.32
			c-0.18-1.98-0.36-4.68-0.36-6.67c0-1.8,0-3.6,0.54-6.3c2.34-2.16,8.11-2.34,11.35-1.08L374.29,80.52z"/>
		<path class="st4" d="M465.98,99.98c-6.85-1.98-16.03-7.03-21.62-7.03c-3.06-0.18-5.59-0.18-8.65-0.18
			c-6.49,0-16.57,1.62-23.96,3.6h0.18c-9.37,3.96-16.75,16.93-16.75,30.08c0,11.53,1.44,8.47,3.6,14.05l0.72,1.26v-0.36l1.26,1.26
			c1.44,1.44,3.96,3.6,3.96,3.6l-0.18-0.18c7.03,1.98,15.85,3.6,23.78,3.6c10.63,0,20.9-2.34,27.38-7.93h-0.18
			c2.52-2.52,4.14-4.32,4.68-5.76v-5.4c-3.42-0.36-7.75-0.36-10.99-0.36h-4.5c-1.62,0-3.24,0.18-4.68,0.18
			c-3.78,0.18-9.91,0.18-13.15-0.36c-1.8-0.9-4.14-1.8-4.5-2.88c-0.72-2.52,0-7.57,1.08-9.91c5.59-0.9,12.43-1.08,19.64-1.08
			c1.8,0,3.78,0.18,5.59,0.18h5.4c5.04,0.18,10.45,0.18,15.13,0.18c2.7,1.08,4.68,3.06,6.49,5.76c0.36,5.04-0.54,8.11-1.44,11.17
			l-1.08,4.5c0,0-0.9,1.08-0.72,0.54c-0.9,1.8-1.62,3.42-1.8,5.94c-0.36,0.36-0.36,0.18-0.36,0.18l-0.72,1.8
			c-0.54,0.9-1.26,1.62-1.8,3.78c-0.36-0.18-0.36-0.36-0.36-0.54c-10.27,9.01-24.86,12.97-39.45,12.97
			c-7.93,0-16.39-1.08-23.96-2.88c-3.78-1.8-6.49-3.78-9.37-6.3l-4.32-3.6c-0.18-1.62-0.72-2.34-1.08-3.06l-0.18-0.36l-1.8-3.24
			l-0.54-1.08c-0.54-0.72-0.9-1.62-2.52-3.6c-1.08-4.14-1.8-9.37-1.8-14.59c0-9.55,2.34-19.64,7.93-27.74
			c1.62-1.98,3.42-4.5,5.04-7.39c5.4-6.13,17.47-9.01,27.02-10.81c2.7,0.54,7.93,0.36,11.53-0.36c2.7,0.18,5.41,0.18,7.21,0.18
			c5.04,0,9.37,0,14.77,1.26c2.16,1.62,3.6,2.7,4.68,3.42c3.42,1.8,7.39,4.14,9.55,8.11c0,3.06-0.36,7.03-2.34,8.83L465.98,99.98z"
			/>
		<path class="st4" d="M558.56,93.5c-0.36-2.16-0.54-4.14-0.54-6.13c0-3.06,0.36-5.76,3.06-8.47c1.08-0.18,3.06-0.36,5.76-0.36
			c3.06,0,7.03,0.9,9.37,4.5c0.36,2.16,0.72,3.96,0.18,5.95c0.72,3.06,0.72,5.58,0.72,8.83v3.42c0,0.72-0.18,1.44-0.18,2.16
			c-0.54,18.38-0.9,39.81-12.25,49.36c-11.53,6.13-25.76,9.91-37.83,9.91c-9.55,0-19.28-2.34-28.46-6.85
			c-7.75-6.49-13.87-14.05-17.29-24.32c-1.08-7.39-2.16-16.39-2.16-26.3c0-5.22,0.54-10.99,1.44-15.49v-1.08c0-1.62,0-2.7,0.72-6.49
			c1.62-1.8,3.96-2.52,6.67-2.52s5.94,0.54,8.47,1.44c0,1.26,0.18,2.7,0.54,3.06l1.8,3.42c0.18,2.34,0.18,5.22,0.18,7.93
			c0,3.24,0,6.85-0.18,10.27c-0.18,2.88-0.18,7.21-0.18,10.27c0,9.55,1.26,18.92,5.95,26.12c0.54,0.36,1.62,1.26,2.16,1.44
			c1.26,1.26,3.42,2.7,5.59,3.6c2.7,0.54,5.04,0.9,7.21,1.62c4.32-0.18,11.35-0.54,14.59-0.9l6.13-1.08
			c0.9-0.36,2.52-1.08,3.06-1.44l1.62-0.54l6.12-3.78c4.86-6.3,6.67-17.83,7.21-27.92C559.28,99.44,558.92,96.56,558.56,93.5z"/>
		<path class="st4" d="M655.83,77.82c2.52,2.34,5.04,5.58,3.78,9.55c-2.16,4.68-6.49,4.5-10.09,4.14h-0.72
			c-0.9-0.18-1.8-0.18-2.52-0.18c-6.66,0-13.87,0.18-20.9,0.36c-5.04,0.18-11.89,0.18-16.39,0.18c-3.96,0-6.49,0-9.55-0.18
			c-0.18,1.44-0.18,3.42-0.18,5.04c0,1.08-0.18,1.8-0.18,2.88c0,1.26-0.18,2.52-0.18,3.78c0,2.34,0,4.32-0.18,5.95
			c9.19-0.36,17.47-0.54,25.76-0.54c6.66,0,13.69,0,20,0.54c4.14,0.9,6.84,5.58,6.84,10.45c0,1.98-0.36,4.14-1.8,6.13
			c-7.93-0.54-17.11-1.08-25.4-1.08c-9.01,0-18.01,0.36-26.48,2.16v12.07c0,2.52,0.18,3.96,0,6.66c6.67,0.18,12.61,0.36,19.82,0.36
			c12.79,0,26.48-0.36,41.07-1.08c0.72,0,1.8-0.18,3.06-0.36c3.6-0.36,7.03-0.72,9.91,1.8c1.62,5.04-0.18,11.53-3.06,13.33
			c-12.79,0-27.56,0.18-41.25,1.08c-3.24,0.18-6.85,0.36-10.09,0.36c-1.8,0-3.6,0.18-5.22,0.18c-5.76,0.18-12.43,0.36-19.1,0.9
			c-1.08-1.08-1.62-1.26-2.16-1.44c-0.18,0-0.72-0.36-0.72-0.36c-0.18,0-0.72-0.18-0.9-0.18c-1.8-0.72-3.78-1.62-4.5-2.34
			c-0.72-1.44-0.9-4.32-0.9-7.2c0-1.98,0.18-5.05,0.36-7.03v-0.9c-0.18-11.89,0.54-24.32,1.26-34.95l0.9-20.9
			c-3.06-4.86,0-10.99,4.68-11.89c9.37,0.9,18.74,1.08,27.92,1.08h7.2c2.52,0,4.68-0.18,7.21-0.18c5.95-0.18,15.49-0.18,20.72-0.18
			L655.83,77.82z"/>
	</g>
	<g>
		<path class="st2" d="M763.2,79.08c0,1.44,0.72,3.42,1.8,5.59l0.72,1.98l-0.18-0.18c4.5,8.11,9.01,15.85,13.87,23.78l2.88,5.22
			v-0.18c7.03,12.07,13.69,23.96,19.64,38.01c0,0-0.36,1.62-0.54,2.7c0,0.36-0.18,1.26-0.18,1.62c-2.16,1.44-4.86,2.7-7.75,3.06
			c-3.06-1.98-3.78-2.34-5.4-1.98L782.12,147l-3.6-7.21l-3.06-6.13h-5.59c-11.53,0-25.22,0.36-37.47,0.72
			c-2.7,3.78-3.78,5.76-5.05,8.11c-3.24,6.13-4.14,7.57-5.04,8.83c-1.26,1.44-2.16,2.7-3.96,6.3h0.18c-0.54,1.26-1.26,2.7-3.06,4.14
			c-5.41,0.72-9.37-3.78-11.71-7.21l1.44-3.42c0.9-2.16,1.8-4.32,4.14-5.95l-0.18,0.36c8.29-15.13,17.47-30.8,26.66-45.94l6.13-9.73
			l-0.18,0.18c0.54-1.26,1.44-2.34,1.8-3.6v0.18c0-0.18,0.18-0.18,0.18-0.54c0-0.18,0.54,1.44-0.36-3.96
			c1.08,0.36,3.78-1.26,3.42-1.98c0.54-0.9,1.08-1.44,1.62-1.44c0-0.54,0.18-0.9,0.54-1.98l2.16-0.36c1.44-0.54,3.24-0.9,5.4-0.9
			c2.16,0,4.32,0.54,6.49,2.16L763.2,79.08z M743.21,117.45c5.22-1.26,13.69,1.08,18.01,0h5.04c-2.7-5.76-5.22-11.17-8.47-16.93
			l-2.7-4.32c-1.8,3.42-4.14,7.57-6.49,11.35v-0.18c-0.72,1.26-1.8,2.7-2.52,4.14L743.21,117.45z M743.21,117.45"/>
		<path class="st2" d="M806.25,154.02c1.62,0.18-0.9-3.06,0.36-4.14c-0.36-0.72-0.36-1.44-0.36-2.34c0.54-3.78,0.9-9.19,1.26-14.95
			l0.9-9.01c0.36-6.67,0.72-13.69,0.9-19.64c0-2.88,0.36-5.22,0.36-8.11c0-1.62-0.36-3.6-0.72-5.76c-0.72-4.14-1.26-8.83,1.62-11.71
			c1.8-1.8,2.52-0.72,3.6-0.36c0.18,0,0.36,0.18,0.36,0.18c0.36,0,0.72-0.18,1.08-0.54l1.26-0.36c3.6,0,7.2-0.18,11.35-0.36
			c5.59-0.18,10.99-0.54,16.57-0.54c8.11,0,16.03,0.54,22.7,2.34c7.39,3.6,11.71,12.07,11.71,19.82c0,4.5-0.9,8.29-3.78,11.71
			c9.55,3.42,15.67,11.89,16.93,21.8c-0.54,7.93-4.86,16.93-8.83,22.16c-4.86,4.32-10.27,5.41-16.75,5.41
			c-1.8,0-3.78-0.18-5.58-0.18c-1.8-0.36-3.78-0.36-5.76-0.36c-4.68,0-9.91,0.54-14.59,0.72c-3.6,0.18-7.39,0.72-11.53,1.08
			c-5.22,0.54-10.09,1.26-14.41,1.26c-2.88,0-5.22-0.18-6.48-0.54c-1.8-1.08-1.8-2.7-1.8-4.14c0-0.54,0-1.08-0.36-1.62V154.02z
			 M822.64,131.14c-0.36,5.59-0.54,7.03-0.54,14.95c4.5-0.36,9.73-0.36,14.77-0.36c3.96,0,8.47-0.18,12.97-0.36l4.68-0.54
			c2.88-0.36,6.3-0.72,9.55-0.54c4.86,0.36,8.83,0.18,11.89-1.08c2.88-2.7,5.59-7.21,5.59-10.99c0-1.44,0-3.06-0.54-4.5
			c-5.94-3.24-13.69-4.32-21.62-4.32c-8.83,0-18.55,1.26-27.56,2.88c-3.6,0.54-5.58,0.9-8.83,1.26L822.64,131.14z M822.64,91.69
			c0.54,0,0.9,0.18,1.26,0.18c0-0.18,0.18-0.36,0.18-0.54c0-0.36,0.18-1.08,0.18-1.44L822.64,91.69z M823.9,91.87
			c-0.54,5.95-0.9,11.35-0.72,17.84l4.68-0.36c15.31-1.26,29.36-2.88,39.45-9.55c0.36-0.72,0.54-1.62,0.72-1.98
			c0.36-0.9,0.9-1.98,0.9-2.88c-6.66-3.06-14.23-3.78-22.52-3.78c-3.6,0-7.57,0.18-11.35,0.36
			C831.29,91.69,827.68,91.87,823.9,91.87z"/>
		<path class="st2" d="M910.9,80.52l1.44,1.8c0,3.06-0.18,7.21-0.36,9.91c-0.36,3.24,0,6.49,0.54,9.37c0.36,1.8,0.54,4.32,0.54,6.66
			v3.78c0.18,6.85,0.18,17.65,0.18,24.14c0,5.76,0,11.53,0.18,18.73c0.72,1.26,0.18,1.8-0.72,3.06c0,0,0.18,0,0.72,1.8
			c-1.98,0-2.88,0.18-3.24,0.72l-3.96-0.36c-2.88-0.18-5.76-0.54-7.21-3.6c0.36-1.98,0-3.24-0.18-4.68c-0.18-1.44,0-2.7,0.18-3.96
			c-0.36-1.8-0.36-4.14-0.36-6.49c0-1.98,0-5.04,0.18-7.03v-3.24c0-1.26,0.18-2.34,0.18-3.06c0-2.88-0.18-5.76-0.72-8.29
			c0.18-0.36,0.9-1.62,0.72-1.44c-0.72-4.14-0.54-9.73-0.54-14.41c0-2.88,0-5.4-0.18-7.93l-0.36-4.32
			c-0.18-1.98-0.36-4.68-0.36-6.67c0-1.8,0-3.6,0.54-6.3c2.34-2.16,8.11-2.34,11.35-1.08L910.9,80.52z"/>
		<path class="st2" d="M992.69,77.82c2.52,2.34,5.04,5.58,3.78,9.55c-2.16,4.68-6.49,4.5-10.09,4.14h-0.72
			c-0.9-0.18-1.8-0.18-2.52-0.18c-6.66,0-13.87,0.18-20.9,0.36c-5.04,0.18-11.89,0.18-16.39,0.18c-3.96,0-6.49,0-9.55-0.18
			c-0.18,1.44-0.18,3.42-0.18,5.04c0,1.08-0.18,1.8-0.18,2.88c0,1.26-0.18,2.52-0.18,3.78c0,2.34,0,4.32-0.18,5.95
			c9.19-0.36,17.47-0.54,25.76-0.54c6.66,0,13.69,0,20,0.54c4.14,0.9,6.84,5.58,6.84,10.45c0,1.98-0.36,4.14-1.8,6.13
			c-7.93-0.54-17.11-1.08-25.4-1.08c-9.01,0-18.01,0.36-26.48,2.16v12.07c0,2.52,0.18,3.96,0,6.66c6.66,0.18,12.61,0.36,19.82,0.36
			c12.79,0,26.48-0.36,41.07-1.08c0.72,0,1.8-0.18,3.06-0.36c3.6-0.36,7.03-0.72,9.91,1.8c1.62,5.04-0.18,11.53-3.06,13.33
			c-12.79,0-27.56,0.18-41.25,1.08c-3.24,0.18-6.85,0.36-10.09,0.36c-1.8,0-3.6,0.18-5.22,0.18c-5.76,0.18-12.43,0.36-19.1,0.9
			c-1.08-1.08-1.62-1.26-2.16-1.44c-0.18,0-0.72-0.36-0.72-0.36c-0.18,0-0.72-0.18-0.9-0.18c-1.8-0.72-3.78-1.62-4.5-2.34
			c-0.72-1.44-0.9-4.32-0.9-7.2c0-1.98,0.18-5.05,0.36-7.03v-0.9c-0.18-11.89,0.54-24.32,1.26-34.95l0.9-20.9
			c-3.06-4.86,0-10.99,4.68-11.89c9.37,0.9,18.74,1.08,27.92,1.08h7.2c2.52,0,4.68-0.18,7.21-0.18c5.95-0.18,15.49-0.18,20.72-0.18
			L992.69,77.82z"/>
		<path class="st2" d="M1100.4,115.47c-6.12,8.83-16.39,11.17-28.28,12.43c3.06,3.06,6.31,5.22,9.73,7.21h-0.18
			c0.54,0.36,1.26,1.08,1.98,1.44c2.34,1.26,4.32,2.52,6.12,3.78c1.98,1.44,4.5,3.24,6.85,4.68c1.62,1.08,3.24,1.98,4.68,3.06
			c1.98,1.44,4.68,3.42,7.57,5.22c0.36,6.85-3.78,9.19-8.29,9.19c-2.7,0-5.58-0.54-7.57-1.26c-7.21-6.13-15.13-11.71-22.88-16.75
			h0.18l-3.96-2.52c-5.76-3.78-12.97-8.29-18.74-12.79c-1.98,0-3.96,0.18-5.76,0.36h0.18c-3.24,0.36-7.21,0.72-9.91,0.36v3.42
			c0,2.34,0.18,4.68,0.36,7.57c0,1.08,0,2.16,0,3.24c0.18,1.98,0.36,4.5,0.36,6.49c0,4.14-0.36,7.57-1.44,10.99
			c-5.58,0.36-8.65-0.72-12.97-2.16c-0.54-1.26-1.08-2.16-2.16-3.06c-0.54-8.65-0.72-18.55-0.72-27.56
			c0-12.07,0.54-24.32,1.08-36.03c-0.72-1.8-1.26-4.14-1.26-5.59c0-2.34,0.54-5.22,1.08-7.39c0-0.72,0.36-1.62,0.36-2.16
			c5.95-1.62,12.43-2.16,18.74-2.7l9.55-0.9c2.52,0.18,5.4,0.18,8.29,0.18c3.24,0,6.67,0,10.09,0.18
			c11.89,0.54,22.52,4.68,30.26,12.25c4.68,4.14,8.29,11.53,8.29,19.09c0,3.06-0.18,6.31-1.44,9.55L1100.4,115.47z M1071.94,111.87
			h0.54c6.66-0.72,12.79-1.8,16.93-5.22c0-0.18,0.18-0.9,0.36-1.08c0.54-6.49-2.7-8.65-6.49-11.53h-0.18l-1.8-1.62
			c-8.11-3.24-16.93-4.14-25.94-4.14c-7.39,0-15.13,0.54-22.88,1.98c0.18,1.98,0.18,4.14,0.18,5.95c0,1.26-0.18,2.34-0.18,3.42v3.6
			c0,3.24-0.18,6.66,0,10.81c3.24,0.18,6.3,0.36,9.91,0.36c7.57,0,15.49-0.54,23.6-1.8C1067.8,112.23,1069.96,112.05,1071.94,111.87
			z"/>
		<path class="st2" d="M1211.72,79.26c0.36,0.18,0.9,0.54,1.26,1.08c2.7,4.32-0.18,12.07-3.24,14.05c-6.12,0-11.89,0-17.29-0.18
			h-5.95c-2.34,0-4.32-0.18-5.76-0.18c-3.78,0-7.03,0.18-10.45,0.36h-0.36c-0.18,3.42-0.18,6.49-0.18,10.09v3.78
			c0,6.3,0,12.61,0.18,19.28c0.18,7.03,0.18,14.23,0.18,20.9v1.44c0,0.54,0.18,0.9,0.18,1.26c0.18,2.88,0,6.48-2.34,9.55
			c-3.06,1.26-9.19,1.08-12.25-1.08c-1.26-6.13-1.62-13.69-1.62-21.8c0-4.68,0.18-9.37,0.36-14.05v-0.9c0-0.72,0.18-1.62,0.18-2.52
			v-2.16c0.36-7.03-0.36-14.23-1.08-20.72l-0.36-2.7c-1.98-0.54-4.14-0.36-6.31-0.36c-3.24,0-6.3,0.18-9.73,0.54
			c-3.6,0.36-7.03,0.54-10.45,0.54c-3.24,0-5.95-0.18-8.47-0.72c-4.32-4.5-4.5-9.19-4.32-14.95c1.62-0.9,2.52-1.44,2.88-2.34
			c6.66,0.36,14.59,0.36,21.26,0.36c6.67,0,13.69,0,20.36-0.18c8.29-0.18,16.39-0.18,24.32-0.18h9.19c6.66,0,11.17,0,19.09,0.72
			L1211.72,79.26z"/>
		<path class="st2" d="M1220,139.61c-1.44-5.05-1.98-10.27-1.98-15.13c0-15.13,5.59-29.72,14.59-39.09c1.98-0.54,2.7-1.08,3.6-1.8
			h-0.18l0.36-0.18l1.62-1.08h-0.18l3.24-2.34c5.04-1.8,11.71-2.34,18.01-2.88l3.96-0.36c2.52-0.36,5.95-0.36,8.29-0.36
			c8.29,0,16.21,1.08,22.7,2.34l3.24,2.34c0.18,0.18,0.9,0.54,2.7,1.26l1.62,2.16c6.3,7.39,15.49,18.01,16.57,30.08
			c0.72,8.29-0.72,16.21-1.62,22.34c0,0.18-0.72,1.26-1.08,1.62c-0.18,0.36-0.54,0.36-0.54,0.9c-2.16,3.6-4.14,7.03-5.76,9.01
			l-2.7,2.52c-0.36,0.36-0.9,0.54-1.26,0.72l-4.32,4.32c-9.73,4.68-20.72,6.49-31.71,6.49c-8.29,0-16.57-0.9-24.5-2.16
			c-11.35-3.06-19.46-8.65-23.42-19.09c-0.36,0-0.72-0.36-0.72-1.08c0,0-0.18,0.18,0-0.18L1220,139.61z M1243.42,96.92
			c1.08-0.36-0.72,1.44-2.16,2.88l-1.62,1.62v-0.18c-5.22,6.84-8.65,15.85-8.65,25.58c0,3.06,0.54,7.39,1.44,10.99
			c0.9,0.54,1.44,1.44,1.98,2.7c7.03,4.68,18.92,7.57,30.26,7.57c11.17,0,23.06-3.06,30.08-7.93h-0.18
			c5.95-5.95,10.09-19.82,10.27-31.71c-0.54-2.34-1.8-4.86-3.06-7.2l-0.36-0.9c-0.18-0.18-0.36-0.36-0.36-0.54
			c-5.22-4.5-12.79-7.93-22.16-8.29C1268.28,91.33,1253.15,91.51,1243.42,96.92z M1316.56,136.91c0.18,0,0.18,0.18,0,0.36V136.91z"
			/>
	</g>
</g>
</svg>
