<?xml version="1.0" encoding="UTF-8"?>
<svg width="750.56" height="113.57" version="1.1" viewBox="0 0 750.56 113.57" xml:space="preserve" xmlns="http://www.w3.org/2000/svg" xmlns:xlink="http://www.w3.org/1999/xlink">
<style type="text/css">
	.st0{fill:url(#SVGID_1_);}
	.st1{fill:#DAD0C9;}
	.st2{clip-path:url(#SVGID_3_);}
	.st3{fill:#E0DFDF;}
	.st4{clip-path:url(#SVGID_5_);}
	.st5{clip-path:url(#SVGID_7_);}
	.st6{fill:#ABD3E0;}
	.st7{clip-path:url(#SVGID_9_);}
	.st8{clip-path:url(#SVGID_11_);}
	.st9{fill:#CDECB0;}
	.st10{clip-path:url(#SVGID_13_);}
	.st11{clip-path:url(#SVGID_15_);}
	.st12{clip-path:url(#SVGID_17_);}
	.st13{clip-path:url(#SVGID_19_);}
	.st14{clip-path:url(#SVGID_21_);}
	.st15{clip-path:url(#SVGID_23_);}
	.st16{fill:#FFFFFF;}
	.st17{clip-path:url(#SVGID_25_);}
	.st18{clip-path:url(#SVGID_27_);}
	.st19{clip-path:url(#SVGID_29_);}
	.st20{clip-path:url(#SVGID_31_);}
	.st21{clip-path:url(#SVGID_33_);}
	.st22{clip-path:url(#SVGID_35_);}
	.st23{clip-path:url(#SVGID_37_);}
	.st24{clip-path:url(#SVGID_39_);}
	.st25{clip-path:url(#SVGID_41_);}
	.st26{clip-path:url(#SVGID_43_);}
	.st27{clip-path:url(#SVGID_45_);}
	.st28{clip-path:url(#SVGID_47_);}
	.st29{fill:#FCD6A5;}
	.st30{clip-path:url(#SVGID_49_);}
	.st31{clip-path:url(#SVGID_51_);fill:#E0DFDF;}
	.st32{clip-path:url(#SVGID_53_);fill:#FCD6A5;}
	.st33{clip-path:url(#SVGID_55_);}
	.st34{fill:#F12A2A;}
	.st35{fill:#009A00;}
	.st36{fill:#FFC900;}
	.st37{fill:#0060B1;}
</style>
<g transform="translate(-33.61,-32.64)">
	
		
			
				<linearGradient id="SVGID_1_" x1="34.123" x2="145" y1="1424" y2="1424" gradientTransform="translate(0 -1286.6)" gradientUnits="userSpaceOnUse">
				<stop stop-color="#E0DFDF" offset="0"/>
				<stop stop-color="#DAD0C9" offset=".0539"/>
				<stop stop-color="#E0DFDF" offset=".128"/>
				<stop stop-color="#E0DFDF" offset=".8798"/>
				<stop stop-color="#DAD0C9" offset=".9445"/>
				<stop stop-color="#E0DFDF" offset="1"/>
			</linearGradient>
			<path class="st0" d="m145 128.49h-110.88v12.2c0.13 3.15 4.43 5.52 10.46 5.52h90.07c6.1 0 10.27-2.38 10.34-5.52v-12.2z" fill="url(#SVGID_1_)"/>
			
				
					
						<path class="st1" d="m135.11 134.21h-91.1c-6.48 0-10.85-3.08-9.69-6.87l15.86-53.09c1.09-3.85 5.46-6.93 9.76-6.93l59.51 0.19c4.24 0 8.6 3.15 9.69 6.87l15.73 52.9c1.16 3.78-3.21 6.93-9.76 6.93z" fill="#dad0c9"/>
						
							
								
									
										
											<defs>
												<path id="SVGID_2_" d="m135.11 134.21h-91.1c-6.48 0-10.85-3.08-9.69-6.87l15.86-53.09c1.09-3.85 5.46-6.93 9.76-6.93l59.51 0.19c4.24 0 8.6 3.15 9.69 6.87l15.73 52.9c1.16 3.78-3.21 6.93-9.76 6.93z"/>
											</defs>
											<clipPath id="SVGID_3_">
												<use width="100%" height="100%" xlink:href="#SVGID_2_"/>
											</clipPath>
											<g class="st2" clip-path="url(#SVGID_3_)">
												<polygon class="st3" points="88.12 95.56 59.68 96.52 47.8 88.88 47.93 87.21 88.57 80.73" fill="#e0dfdf"/>
											</g>
										
									
								
							
							
								
									
										
											<defs>
												<path id="SVGID_4_" d="m135.11 134.21h-91.1c-6.48 0-10.85-3.08-9.69-6.87l15.86-53.09c1.09-3.85 5.46-6.93 9.76-6.93l59.51 0.19c4.24 0 8.6 3.15 9.69 6.87l15.73 52.9c1.16 3.78-3.21 6.93-9.76 6.93z"/>
											</defs>
											<clipPath id="SVGID_5_">
												<use width="100%" height="100%" xlink:href="#SVGID_4_"/>
											</clipPath>
											<g class="st4" clip-path="url(#SVGID_5_)">
												<polygon class="st3" points="135.82 116.04 147.5 115.08 139.99 95.69 125.93 103.33" fill="#e0dfdf"/>
											</g>
										
									
								
							
							
								
									
										
											<defs>
												<path id="SVGID_6_" d="m135.11 134.21h-91.1c-6.48 0-10.85-3.08-9.69-6.87l15.86-53.09c1.09-3.85 5.46-6.93 9.76-6.93l59.51 0.19c4.24 0 8.6 3.15 9.69 6.87l15.73 52.9c1.16 3.78-3.21 6.93-9.76 6.93z"/>
											</defs>
											<clipPath id="SVGID_7_">
												<use width="100%" height="100%" xlink:href="#SVGID_6_"/>
											</clipPath>
											<g class="st5" clip-path="url(#SVGID_7_)">
												<polygon class="st6" points="94.79 120.85 107.25 138.32 89.79 136.39 89.85 120.08" fill="#abd3e0"/>
											</g>
										
									
								
							
							
								
									
										
											<defs>
												<path id="SVGID_8_" d="m135.11 134.21h-91.1c-6.48 0-10.85-3.08-9.69-6.87l15.86-53.09c1.09-3.85 5.46-6.93 9.76-6.93l59.51 0.19c4.24 0 8.6 3.15 9.69 6.87l15.73 52.9c1.16 3.78-3.21 6.93-9.76 6.93z"/>
											</defs>
											<clipPath id="SVGID_9_">
												<use width="100%" height="100%" xlink:href="#SVGID_8_"/>
											</clipPath>
											<g class="st7" clip-path="url(#SVGID_9_)">
												<polygon class="st6" points="44.07 114.69 65.07 114.75 61.99 135.62 38.42 135.62" fill="#abd3e0"/>
											</g>
										
									
								
							
							
								
									
										
											<defs>
												<path id="SVGID_10_" d="m135.11 134.21h-91.1c-6.48 0-10.85-3.08-9.69-6.87l15.86-53.09c1.09-3.85 5.46-6.93 9.76-6.93l59.51 0.19c4.24 0 8.6 3.15 9.69 6.87l15.73 52.9c1.16 3.78-3.21 6.93-9.76 6.93z"/>
											</defs>
											<clipPath id="SVGID_11_">
												<use width="100%" height="100%" xlink:href="#SVGID_10_"/>
											</clipPath>
											<g class="st8" clip-path="url(#SVGID_11_)">
												<polygon class="st9" points="107.57 85.54 106.41 61.15 89.02 61.08 89.85 84.13" fill="#cdecb0"/>
											</g>
										
									
								
							
							
								
									
										
											<defs>
												<path id="SVGID_12_" d="m135.11 134.21h-91.1c-6.48 0-10.85-3.08-9.69-6.87l15.86-53.09c1.09-3.85 5.46-6.93 9.76-6.93l59.51 0.19c4.24 0 8.6 3.15 9.69 6.87l15.73 52.9c1.16 3.78-3.21 6.93-9.76 6.93z"/>
											</defs>
											<clipPath id="SVGID_13_">
												<use width="100%" height="100%" xlink:href="#SVGID_12_"/>
											</clipPath>
											<g class="st10" clip-path="url(#SVGID_13_)">
												<polygon class="st9" points="127.22 82.53 137.36 91.51 127.79 67.05 119.9 76.3" fill="#cdecb0"/>
											</g>
										
									
								
							
							
								
									
										
											<defs>
												<path id="SVGID_14_" d="m135.11 134.21h-91.1c-6.48 0-10.85-3.08-9.69-6.87l15.86-53.09c1.09-3.85 5.46-6.93 9.76-6.93l59.51 0.19c4.24 0 8.6 3.15 9.69 6.87l15.73 52.9c1.16 3.78-3.21 6.93-9.76 6.93z"/>
											</defs>
											<clipPath id="SVGID_15_">
												<use width="100%" height="100%" xlink:href="#SVGID_14_"/>
											</clipPath>
											<g class="st11" clip-path="url(#SVGID_15_)">
												<polygon class="st9" points="97.88 120.34 135.43 136.58 151.03 132.73 143.52 115.53 100.44 115.91" fill="#cdecb0"/>
											</g>
										
									
								
							
							
								
									
										
											<defs>
												<path id="SVGID_16_" d="m135.11 134.21h-91.1c-6.48 0-10.85-3.08-9.69-6.87l15.86-53.09c1.09-3.85 5.46-6.93 9.76-6.93l59.51 0.19c4.24 0 8.6 3.15 9.69 6.87l15.73 52.9c1.16 3.78-3.21 6.93-9.76 6.93z"/>
											</defs>
											<clipPath id="SVGID_17_">
												<use width="100%" height="100%" xlink:href="#SVGID_16_"/>
											</clipPath>
											<g class="st12" clip-path="url(#SVGID_17_)">
												<polygon class="st6" points="88.18 80.02 36.11 88.43 40.35 74.31 89.4 66.67" fill="#abd3e0"/>
											</g>
										
									
								
							
							
								
									
										
											<defs>
												<path id="SVGID_18_" d="m135.11 134.21h-91.1c-6.48 0-10.85-3.08-9.69-6.87l15.86-53.09c1.09-3.85 5.46-6.93 9.76-6.93l59.51 0.19c4.24 0 8.6 3.15 9.69 6.87l15.73 52.9c1.16 3.78-3.21 6.93-9.76 6.93z"/>
											</defs>
											<clipPath id="SVGID_19_">
												<use width="100%" height="100%" xlink:href="#SVGID_18_"/>
											</clipPath>
											<g class="st13" clip-path="url(#SVGID_19_)">
												<polygon class="st6" points="136.65 90.68 137.36 97.23 122.14 102.36 109.24 86.63 119.58 75.27" fill="#abd3e0"/>
											</g>
										
									
								
							
							
								
									
										
											<defs>
												<path id="SVGID_20_" d="m135.11 134.21h-91.1c-6.48 0-10.85-3.08-9.69-6.87l15.86-53.09c1.09-3.85 5.46-6.93 9.76-6.93l59.51 0.19c4.24 0 8.6 3.15 9.69 6.87l15.73 52.9c1.16 3.78-3.21 6.93-9.76 6.93z"/>
											</defs>
											<clipPath id="SVGID_21_">
												<use width="100%" height="100%" xlink:href="#SVGID_20_"/>
											</clipPath>
											<g class="st14" clip-path="url(#SVGID_21_)">
												<polygon class="st9" points="80.6 110.26 75.85 115.46 30.85 115.2 30.27 107.37 58.78 97.48" fill="#cdecb0"/>
											</g>
										
									
								
							
							
								
									
										
											<defs>
												<path id="SVGID_22_" d="m135.11 134.21h-91.1c-6.48 0-10.85-3.08-9.69-6.87l15.86-53.09c1.09-3.85 5.46-6.93 9.76-6.93l59.51 0.19c4.24 0 8.6 3.15 9.69 6.87l15.73 52.9c1.16 3.78-3.21 6.93-9.76 6.93z"/>
											</defs>
											<clipPath id="SVGID_23_">
												<use width="100%" height="100%" xlink:href="#SVGID_22_"/>
											</clipPath>
											<g class="st15" clip-path="url(#SVGID_23_)">
												<polygon class="st16" points="106.03 62.62 107.12 66.03 42.15 75.98 42.6 72.64" fill="#fff"/>
											</g>
										
									
								
							
							
								
									
										
											<defs>
												<path id="SVGID_24_" d="m135.11 134.21h-91.1c-6.48 0-10.85-3.08-9.69-6.87l15.86-53.09c1.09-3.85 5.46-6.93 9.76-6.93l59.51 0.19c4.24 0 8.6 3.15 9.69 6.87l15.73 52.9c1.16 3.78-3.21 6.93-9.76 6.93z"/>
											</defs>
											<clipPath id="SVGID_25_">
												<use width="100%" height="100%" xlink:href="#SVGID_24_"/>
											</clipPath>
											<g class="st17" clip-path="url(#SVGID_25_)">
												<polygon class="st16" points="91.39 63.27 92.35 112.06 87.15 112.06 87.67 63.27" fill="#fff"/>
											</g>
										
									
								
							
							
								
									
										
											<defs>
												<path id="SVGID_26_" d="m135.11 134.21h-91.1c-6.48 0-10.85-3.08-9.69-6.87l15.86-53.09c1.09-3.85 5.46-6.93 9.76-6.93l59.51 0.19c4.24 0 8.6 3.15 9.69 6.87l15.73 52.9c1.16 3.78-3.21 6.93-9.76 6.93z"/>
											</defs>
											<clipPath id="SVGID_27_">
												<use width="100%" height="100%" xlink:href="#SVGID_26_"/>
											</clipPath>
											<g class="st18" clip-path="url(#SVGID_27_)">
												<polygon class="st16" points="104.81 63.01 108.53 63.2 110.14 86.19 139.86 114.43 135.75 116.17 105.77 87.02" fill="#fff"/>
											</g>
										
									
								
							
							
								
									
										
											<defs>
												<path id="SVGID_28_" d="m135.11 134.21h-91.1c-6.48 0-10.85-3.08-9.69-6.87l15.86-53.09c1.09-3.85 5.46-6.93 9.76-6.93l59.51 0.19c4.24 0 8.6 3.15 9.69 6.87l15.73 52.9c1.16 3.78-3.21 6.93-9.76 6.93z"/>
											</defs>
											<clipPath id="SVGID_29_">
												<use width="100%" height="100%" xlink:href="#SVGID_28_"/>
											</clipPath>
											<g class="st19" clip-path="url(#SVGID_29_)">
												<polygon class="st16" points="96.08 113.79 141.15 113.79 142.17 117.26 96.21 117.19" fill="#fff"/>
											</g>
										
									
								
							
							
								
									
										
											<defs>
												<path id="SVGID_30_" d="m135.11 134.21h-91.1c-6.48 0-10.85-3.08-9.69-6.87l15.86-53.09c1.09-3.85 5.46-6.93 9.76-6.93l59.51 0.19c4.24 0 8.6 3.15 9.69 6.87l15.73 52.9c1.16 3.78-3.21 6.93-9.76 6.93z"/>
											</defs>
											<clipPath id="SVGID_31_">
												<use width="100%" height="100%" xlink:href="#SVGID_30_"/>
											</clipPath>
											<g class="st20" clip-path="url(#SVGID_31_)">
												<polygon class="st16" points="90.24 82.46 106.99 84.77 125.35 67.76 128.76 70.26 108.92 88.5 89.46 85.86" fill="#fff"/>
											</g>
										
									
								
							
							
								
									
										
											<defs>
												<path id="SVGID_32_" d="m135.11 134.21h-91.1c-6.48 0-10.85-3.08-9.69-6.87l15.86-53.09c1.09-3.85 5.46-6.93 9.76-6.93l59.51 0.19c4.24 0 8.6 3.15 9.69 6.87l15.73 52.9c1.16 3.78-3.21 6.93-9.76 6.93z"/>
											</defs>
											<clipPath id="SVGID_33_">
												<use width="100%" height="100%" xlink:href="#SVGID_32_"/>
											</clipPath>
											<g class="st21" clip-path="url(#SVGID_33_)">
												<polygon class="st16" points="122.59 74.05 137.49 88.75 134.08 90.49 119.45 75.85" fill="#fff"/>
											</g>
										
									
								
							
							
								
									
										
											<defs>
												<path id="SVGID_34_" d="m135.11 134.21h-91.1c-6.48 0-10.85-3.08-9.69-6.87l15.86-53.09c1.09-3.85 5.46-6.93 9.76-6.93l59.51 0.19c4.24 0 8.6 3.15 9.69 6.87l15.73 52.9c1.16 3.78-3.21 6.93-9.76 6.93z"/>
											</defs>
											<clipPath id="SVGID_35_">
												<use width="100%" height="100%" xlink:href="#SVGID_34_"/>
											</clipPath>
											<g class="st22" clip-path="url(#SVGID_35_)">
												<polygon class="st16" points="136.27 94.92 139.61 97.87 125.29 104.68 122.08 101.72" fill="#fff"/>
											</g>
										
									
								
							
							
								
									
										
											<defs>
												<path id="SVGID_36_" d="m135.11 134.21h-91.1c-6.48 0-10.85-3.08-9.69-6.87l15.86-53.09c1.09-3.85 5.46-6.93 9.76-6.93l59.51 0.19c4.24 0 8.6 3.15 9.69 6.87l15.73 52.9c1.16 3.78-3.21 6.93-9.76 6.93z"/>
											</defs>
											<clipPath id="SVGID_37_">
												<use width="100%" height="100%" xlink:href="#SVGID_36_"/>
											</clipPath>
											<g class="st23" clip-path="url(#SVGID_37_)">
												<polygon class="st16" points="58.65 95.62 89.79 94.85 89.91 98.32 59.23 99.09 33.93 107.5 32.65 104.42" fill="#fff"/>
											</g>
										
									
								
							
							
								
									
										
											<defs>
												<path id="SVGID_38_" d="m135.11 134.21h-91.1c-6.48 0-10.85-3.08-9.69-6.87l15.86-53.09c1.09-3.85 5.46-6.93 9.76-6.93l59.51 0.19c4.24 0 8.6 3.15 9.69 6.87l15.73 52.9c1.16 3.78-3.21 6.93-9.76 6.93z"/>
											</defs>
											<clipPath id="SVGID_39_">
												<use width="100%" height="100%" xlink:href="#SVGID_38_"/>
											</clipPath>
											<g class="st24" clip-path="url(#SVGID_39_)">
												<polygon class="st16" points="34.44 113.21 84.59 113.28 84.46 116.68 33.35 116.68" fill="#fff"/>
											</g>
										
									
								
							
							
								
									
										
											<defs>
												<path id="SVGID_40_" d="m135.11 134.21h-91.1c-6.48 0-10.85-3.08-9.69-6.87l15.86-53.09c1.09-3.85 5.46-6.93 9.76-6.93l59.51 0.19c4.24 0 8.6 3.15 9.69 6.87l15.73 52.9c1.16 3.78-3.21 6.93-9.76 6.93z"/>
											</defs>
											<clipPath id="SVGID_41_">
												<use width="100%" height="100%" xlink:href="#SVGID_40_"/>
											</clipPath>
											<g class="st25" clip-path="url(#SVGID_41_)">
												<polygon class="st16" points="40.93 115.27 46.19 115.27 40.99 135.62 35.02 135.62" fill="#fff"/>
											</g>
										
									
								
							
							
								
									
										
											<defs>
												<path id="SVGID_42_" d="m135.11 134.21h-91.1c-6.48 0-10.85-3.08-9.69-6.87l15.86-53.09c1.09-3.85 5.46-6.93 9.76-6.93l59.51 0.19c4.24 0 8.6 3.15 9.69 6.87l15.73 52.9c1.16 3.78-3.21 6.93-9.76 6.93z"/>
											</defs>
											<clipPath id="SVGID_43_">
												<use width="100%" height="100%" xlink:href="#SVGID_42_"/>
											</clipPath>
											<g class="st26" clip-path="url(#SVGID_43_)">
												<polygon class="st16" points="61.54 115.27 66.87 115.33 64.3 134.66 58.33 134.66" fill="#fff"/>
											</g>
										
									
								
							
							
								
									
										
											<defs>
												<path id="SVGID_44_" d="m135.11 134.21h-91.1c-6.48 0-10.85-3.08-9.69-6.87l15.86-53.09c1.09-3.85 5.46-6.93 9.76-6.93l59.51 0.19c4.24 0 8.6 3.15 9.69 6.87l15.73 52.9c1.16 3.78-3.21 6.93-9.76 6.93z"/>
											</defs>
											<clipPath id="SVGID_45_">
												<use width="100%" height="100%" xlink:href="#SVGID_44_"/>
											</clipPath>
											<g class="st27" clip-path="url(#SVGID_45_)">
												<polygon class="st16" points="92.29 134.66 86.38 134.66 86.83 108.91 107.95 134.91 102.69 136.39 92.16 124" fill="#fff"/>
											</g>
										
									
								
							
							
								
									
										
											<defs>
												<path id="SVGID_46_" d="m135.11 134.21h-91.1c-6.48 0-10.85-3.08-9.69-6.87l15.86-53.09c1.09-3.85 5.46-6.93 9.76-6.93l59.51 0.19c4.24 0 8.6 3.15 9.69 6.87l15.73 52.9c1.16 3.78-3.21 6.93-9.76 6.93z"/>
											</defs>
											<clipPath id="SVGID_47_">
												<use width="100%" height="100%" xlink:href="#SVGID_46_"/>
											</clipPath>
											<g class="st28" clip-path="url(#SVGID_47_)">
												<polygon class="st29" points="97.94 117.07 134.28 134.34 131.07 136.97 94.6 119.7" fill="#fcd6a5"/>
											</g>
										
									
								
							
							
								
									
										
											<defs>
												<path id="SVGID_48_" d="m135.11 134.21h-91.1c-6.48 0-10.85-3.08-9.69-6.87l15.86-53.09c1.09-3.85 5.46-6.93 9.76-6.93l59.51 0.19c4.24 0 8.6 3.15 9.69 6.87l15.73 52.9c1.16 3.78-3.21 6.93-9.76 6.93z"/>
											</defs>
											<clipPath id="SVGID_49_">
												<use width="100%" height="100%" xlink:href="#SVGID_48_"/>
											</clipPath>
											<g class="st30" clip-path="url(#SVGID_49_)">
												<polygon class="st29" points="45.74 84.45 89.98 113.66 86.51 116.3 42.08 87.08" fill="#fcd6a5"/>
											</g>
										
									
								
							
							
								
									
										
											<defs>
												<path id="SVGID_50_" d="m135.11 134.21h-91.1c-6.48 0-10.85-3.08-9.69-6.87l15.86-53.09c1.09-3.85 5.46-6.93 9.76-6.93l59.51 0.19c4.24 0 8.6 3.15 9.69 6.87l15.73 52.9c1.16 3.78-3.21 6.93-9.76 6.93z"/>
											</defs>
											<clipPath id="SVGID_51_">
												<use width="100%" height="100%" xlink:href="#SVGID_50_"/>
											</clipPath>
											<path class="st31" d="m103.33 115.59c0.39 4.88-5.78 8.86-13.74 8.86s-14.12-3.98-13.74-8.86c0.39-4.88 6.55-8.86 13.74-8.86s13.36 3.98 13.74 8.86z" clip-path="url(#SVGID_51_)" fill="#e0dfdf"/>
										
									
								
							
							
								
									
										
											<defs>
												<path id="SVGID_52_" d="m135.11 134.21h-91.1c-6.48 0-10.85-3.08-9.69-6.87l15.86-53.09c1.09-3.85 5.46-6.93 9.76-6.93l59.51 0.19c4.24 0 8.6 3.15 9.69 6.87l15.73 52.9c1.16 3.78-3.21 6.93-9.76 6.93z"/>
											</defs>
											<clipPath id="SVGID_53_">
												<use width="100%" height="100%" xlink:href="#SVGID_52_"/>
											</clipPath>
											<path class="st32" d="m89.59 126.18c-9.63 0-16.95-4.75-16.37-10.59s7.9-10.59 16.44-10.59c8.47 0 15.86 4.75 16.37 10.59s-6.87 10.59-16.44 10.59zm0-17.72c-5.84 0-10.85 3.21-11.11 7.13s4.69 7.13 11.04 7.13 11.3-3.21 11.11-7.13c-0.25-3.92-5.19-7.13-11.04-7.13z" clip-path="url(#SVGID_53_)" fill="#fcd6a5"/>
										
									
								
							
							
								
									
										
											<defs>
												<path id="SVGID_54_" d="m135.11 134.21h-91.1c-6.48 0-10.85-3.08-9.69-6.87l15.86-53.09c1.09-3.85 5.46-6.93 9.76-6.93l59.51 0.19c4.24 0 8.6 3.15 9.69 6.87l15.73 52.9c1.16 3.78-3.21 6.93-9.76 6.93z"/>
											</defs>
											<clipPath id="SVGID_55_">
												<use width="100%" height="100%" xlink:href="#SVGID_54_"/>
											</clipPath>
											<g class="st33" clip-path="url(#SVGID_55_)">
												<polygon class="st16" points="89.08 77.71 89.98 81.05 38.81 89.4 39 85.99" fill="#fff"/>
											</g>
										
									
								
							
						
					
				
			
		
		<path class="st34" d="m89.14 32.64c-16.56 0-30.05 13.48-30.05 30.05 0 20.54 26.9 50.72 27.99 52 1.09 1.22 2.95 1.22 4.04 0 1.16-1.28 27.99-31.46 27.99-52 0.02-16.57-13.4-30.05-29.97-30.05z" fill="#f12a2a"/>
		<path class="st35" d="m43.88 94.72c-5.65 0-10.27 4.62-10.27 10.27 0 7.06 9.18 17.4 9.63 17.85 0.39 0.39 1.03 0.39 1.35 0 0.39-0.45 9.63-10.79 9.63-17.85 0-5.64-4.62-10.27-10.34-10.27z" fill="#009a00"/>
		<path class="st36" d="m134.73 69.49c-5.65 0-10.27 4.62-10.27 10.27 0 7.06 9.18 17.4 9.63 17.85 0.39 0.39 1.03 0.39 1.35 0 0.39-0.45 9.63-10.79 9.63-17.85-0.07-5.64-4.63-10.27-10.34-10.27z" fill="#ffc900"/>
		<path class="st37" d="m119.19 101.4c-5.65 0-10.27 4.62-10.27 10.27 0 7.06 9.18 17.4 9.63 17.85 0.39 0.39 1.03 0.39 1.35 0 0.39-0.45 9.63-10.79 9.63-17.85-0.07-5.65-4.69-10.27-10.34-10.27z" fill="#0060b1"/>
		
			
				<path class="st16" d="m123.75 110.45c-1.22-1.73-2.76-1.35-3.72-1.09-0.13 0-0.19 0.06-0.32 0.06 0.13-1.09 0.71-1.93 1.73-2.57l-0.45-0.71c-0.58 0.32-1.03 0.71-1.35 1.16-0.13-0.39-0.32-0.77-0.58-1.03-0.51-0.51-1.28-0.77-2.31-0.77h-0.39v0.39c0 1.03 0.26 1.8 0.77 2.31 0.45 0.45 1.03 0.71 1.8 0.77 0 0.13-0.06 0.26-0.06 0.39-0.13 0-0.26-0.06-0.39-0.06-1.03-0.26-2.5-0.64-3.72 1.09-0.58 0.83-0.77 1.99-0.51 3.27 0.32 1.54 1.22 3.15 2.12 3.72 1.09 0.71 1.99 0.39 2.57 0.19 0.13-0.06 0.32-0.13 0.39-0.13 0.06 0 0.26 0.06 0.39 0.13 0.32 0.13 0.71 0.26 1.16 0.26 0.39 0 0.9-0.13 1.35-0.45 0.9-0.58 1.8-2.18 2.12-3.72 0.17-1.22-0.02-2.31-0.6-3.21z" fill="#fff"/>
			
		
		
			<g fill="#fff">
				<path class="st16" d="m130.49 78.35c0.13 0.06 0.51 0.39 1.22 0.83 0.64 0.45 1.16 0.83 1.54 1.09 0.06 0 0.13 0.06 0.26 0.19 0.13 0.06 0.26 0.19 0.32 0.19 0.06 0.06 0.19 0.13 0.32 0.19s0.26 0.13 0.32 0.13c0.13 0.06 0.19 0.06 0.32 0.06 0.06 0 0.19 0 0.32-0.06s0.19-0.06 0.32-0.13 0.19-0.13 0.32-0.19c0.06-0.06 0.19-0.13 0.32-0.19s0.19-0.13 0.26-0.19c0.39-0.26 1.28-0.9 2.76-1.93 0.26-0.19 0.51-0.45 0.71-0.71 0.19-0.26 0.26-0.58 0.26-0.9 0-0.26-0.06-0.45-0.26-0.64-0.19-0.19-0.39-0.26-0.64-0.26h-8.6c-0.32 0-0.51 0.13-0.71 0.32-0.19 0.19-0.26 0.45-0.26 0.77 0 0.26 0.13 0.51 0.32 0.77 0.13 0.28 0.32 0.47 0.58 0.66z"/>
				<path class="st16" d="m139.35 78.93c-1.28 0.83-2.25 1.54-2.89 1.99-0.19 0.19-0.39 0.32-0.51 0.39s-0.32 0.19-0.58 0.26-0.45 0.13-0.64 0.13-0.39-0.06-0.64-0.13-0.39-0.19-0.58-0.26c-0.13-0.06-0.32-0.19-0.51-0.39-0.51-0.39-1.48-1.03-2.89-1.99-0.19-0.13-0.45-0.32-0.58-0.51v4.62c0 0.26 0.06 0.45 0.26 0.64 0.19 0.19 0.39 0.26 0.64 0.26h8.6c0.26 0 0.45-0.06 0.64-0.26 0.19-0.19 0.26-0.39 0.26-0.64v-4.62c-0.13 0.19-0.32 0.38-0.58 0.51z"/>
			</g>
		
		<path class="st16" d="m45.62 111.03h-3.47c-0.19 0-0.32-0.13-0.32-0.32v-3.15h-3.21c-0.19 0-0.32-0.13-0.32-0.32v-3.47c0-0.19 0.13-0.32 0.32-0.32h3.15v-3.15c0-0.19 0.13-0.32 0.32-0.32h3.47c0.19 0 0.32 0.13 0.32 0.32v3.15h3.15c0.19 0 0.32 0.13 0.32 0.32v3.47c0 0.19-0.13 0.32-0.32 0.32h-3.15v3.15c0.06 0.19-0.07 0.32-0.26 0.32z" fill="#fff"/>
		<circle class="st16" cx="89.27" cy="63.14" r="20.87" fill="#fff"/>
		<path class="st34" d="m103.46 51.84c-0.32-0.71-0.71-1.09-1.54-1.67-0.71-0.51-1.8-0.26-2.38 0.32-3.02 2.95-5.91 6.1-8.54 9.37-1.28 1.61-3.15 3.53-4.3 5.59-0.58-0.45-1.09-0.9-1.61-1.35-1.67-1.54-3.47-3.47-5.59-4.43-1.73-0.83-3.02-0.06-4.11 1.35-0.32 0.45-0.71 1.16-0.71 1.73-0.45 0.45-0.58 1.22 0 1.93 3.66 4.49 8.22 8.03 13.03 11.24 0.64 0.45 1.86 0.32 2.38-0.32 5.2-6.61 10.08-13.93 14.32-21.19 0.78-1.29 0.01-2.32-0.95-2.57z" fill="#f12a2a"/>
	
	<g fill="#ffc900">
		<path class="st36" d="m173.99 88.58c-0.88-3.1-1.22-6.31-1.22-9.3 0-9.3 3.43-18.26 8.97-24.02 1.22-0.33 1.66-0.66 2.21-1.11h-0.11l0.22-0.11 1-0.66h-0.11l1.99-1.44c3.1-1.11 7.2-1.44 11.07-1.77l2.43-0.22c1.55-0.22 3.65-0.22 5.09-0.22 5.09 0 9.96 0.66 13.95 1.44l1.99 1.44c0.11 0.11 0.55 0.33 1.66 0.77l1 1.33c3.87 4.54 9.52 11.07 10.18 18.49 0.44 5.09-0.44 9.96-1 13.73 0 0.11-0.44 0.78-0.66 1-0.11 0.22-0.33 0.22-0.33 0.55-1.33 2.21-2.55 4.32-3.54 5.53l-1.66 1.55c-0.22 0.22-0.55 0.33-0.77 0.44l-2.66 2.66c-5.98 2.88-12.73 3.98-19.48 3.98-5.09 0-10.18-0.55-15.05-1.33-6.97-1.88-11.95-5.31-14.39-11.73-0.22 0-0.44-0.22-0.44-0.66 0 0-0.11 0.11 0-0.11zm14.39-26.23c0.66-0.22-0.44 0.89-1.33 1.77l-1 1v-0.11c-3.21 4.21-5.31 9.74-5.31 15.72 0 1.88 0.33 4.54 0.89 6.75 0.55 0.33 0.88 0.89 1.22 1.66 4.32 2.88 11.62 4.65 18.6 4.65 6.86 0 14.17-1.88 18.49-4.87h-0.11c3.65-3.65 6.2-12.18 6.31-19.48-0.33-1.44-1.11-2.99-1.88-4.43l-0.22-0.55c-0.11-0.11-0.22-0.22-0.22-0.33-3.21-2.77-7.86-4.87-13.61-5.09-6.55-0.12-15.85-0.01-21.83 3.31zm44.94 24.57c0.11 0 0.11 0.11 0 0.22z"/>
		<path class="st36" d="m285.12 90.91 1.66 1.88c1.77 1.77 3.43 4.32 2.77 7.97-1.66 1.77-2.99 1.44-4.54 1-0.11 0-0.33-0.11-0.44-0.11l-1.55-0.33c-1.33-0.22-2.99-0.22-4.32-0.22-1.77 0-3.76 0-5.87 0.11-1.66 0.11-4.21 0.22-5.87 0.22-1.99 0-4.54-0.11-6.42-0.33-4.32 0.33-10.4 0.44-15.28 0.44h-0.66c-1.44-0.11-3.1-0.22-4.1-1.22l-1-1.33v0.11c-0.55-0.55-1.11-1.44-1.22-2.1l0.11 0.11c-0.33-0.66-0.33-1.22-0.33-1.66 0-0.22 0-0.66-0.33-1.11v0.11c-0.55-0.55-0.78-0.77-0.89-1.99-0.11-0.89 0-1.44 0.11-1.77 0-0.22 0-0.33 0.22-0.55v0.11c0-0.11 0.11-0.11 0.11-0.33v-3.65c-0.11-1.11-0.11-3.32 0-4.43v-1.22c0-0.55 0.11-1.22 0.11-1.66l0.22-6.31c0.22-5.53 0.44-11.62 0.44-17.27 0-1-0.11-1.99-0.11-2.99v-2.66c1.22-1.55 2.43-2.21 3.76-2.21 1.99 0 3.98 0.88 5.2 2.21 0.66 1.22 0.78 2.55 0.89 4.21l0.33 2.43c-0.78 11.51-1 22.8-1 34.54z"/>
		<path class="st36" d="m340.35 90.91 1.66 1.88c1.77 1.77 3.43 4.32 2.77 7.97-1.66 1.77-2.99 1.44-4.54 1-0.11 0-0.33-0.11-0.44-0.11l-1.55-0.33c-1.33-0.22-2.99-0.22-4.32-0.22-1.77 0-3.76 0-5.87 0.11-1.66 0.11-4.21 0.22-5.87 0.22-1.99 0-4.54-0.11-6.42-0.33-4.32 0.33-10.4 0.44-15.28 0.44h-0.66c-1.44-0.11-3.1-0.22-4.1-1.22l-1-1.33v0.11c-0.55-0.55-1.11-1.44-1.22-2.1l0.11 0.11c-0.33-0.66-0.33-1.22-0.33-1.66 0-0.22 0-0.66-0.33-1.11v0.11c-0.55-0.55-0.78-0.77-0.89-1.99-0.11-0.89 0-1.44 0.11-1.77 0-0.22 0-0.33 0.22-0.55v0.11c0-0.11 0.11-0.11 0.11-0.33v-3.65c-0.11-1.11-0.11-3.32 0-4.43v-1.22c0-0.55 0.11-1.22 0.11-1.66l0.22-6.31c0.22-5.53 0.44-11.62 0.44-17.27 0-1-0.11-1.99-0.11-2.99v-2.66c1.22-1.55 2.43-2.21 3.76-2.21 1.99 0 3.98 0.88 5.2 2.21 0.66 1.22 0.78 2.55 0.89 4.21l0.33 2.43c-0.78 11.51-1 22.8-1 34.54z"/>
		<path class="st36" d="m382.96 51.39c0 0.89 0.44 2.1 1.11 3.43l0.44 1.22-0.11-0.11c2.77 4.98 5.53 9.74 8.52 14.61l1.77 3.21v-0.11c4.32 7.42 8.41 14.72 12.07 23.36 0 0-0.22 1-0.33 1.66 0 0.22-0.11 0.77-0.11 1-1.33 0.89-2.99 1.66-4.76 1.88-1.88-1.22-2.32-1.44-3.32-1.22l-3.65-7.19-2.21-4.43-1.88-3.76h-3.43c-7.08 0-15.5 0.22-23.02 0.44-1.66 2.32-2.32 3.54-3.1 4.98-1.99 3.76-2.55 4.65-3.1 5.42-0.77 0.89-1.33 1.66-2.43 3.87h0.11c-0.33 0.78-0.78 1.66-1.88 2.55-3.32 0.44-5.76-2.32-7.2-4.43l0.89-2.1c0.55-1.33 1.11-2.66 2.55-3.65l-0.11 0.22c5.09-9.3 10.74-18.93 16.38-28.23l3.76-5.98-0.11 0.11c0.33-0.78 0.89-1.44 1.11-2.21v0.11c0-0.11 0.11-0.11 0.11-0.33 0-0.11 0.33 0.89-0.22-2.43 0.66 0.22 2.32-0.77 2.1-1.22 0.33-0.55 0.66-0.89 1-0.89 0-0.33 0.11-0.55 0.33-1.22l1.33-0.22c0.89-0.33 1.99-0.55 3.32-0.55s2.66 0.33 3.98 1.33zm-12.29 23.58c3.21-0.77 8.41 0.66 11.07 0h3.1c-1.66-3.54-3.21-6.86-5.2-10.4l-1.66-2.66c-1.11 2.1-2.55 4.65-3.98 6.97v-0.11c-0.44 0.77-1.11 1.66-1.55 2.55z"/>
		<path class="st36" d="m445.49 51.39c0 0.89 0.44 2.1 1.11 3.43l0.44 1.22-0.11-0.11c2.77 4.98 5.53 9.74 8.52 14.61l1.77 3.21v-0.11c4.32 7.42 8.41 14.72 12.07 23.36 0 0-0.22 1-0.33 1.66 0 0.22-0.11 0.77-0.11 1-1.33 0.89-2.99 1.66-4.76 1.88-1.88-1.22-2.32-1.44-3.32-1.22l-3.65-7.19-2.21-4.43-1.88-3.76h-3.43c-7.08 0-15.5 0.22-23.02 0.44-1.66 2.32-2.32 3.54-3.1 4.98-1.99 3.76-2.55 4.65-3.1 5.42-0.77 0.89-1.33 1.66-2.43 3.87h0.11c-0.33 0.78-0.77 1.66-1.88 2.55-3.32 0.44-5.76-2.32-7.2-4.43l0.89-2.1c0.55-1.33 1.11-2.66 2.55-3.65l-0.11 0.22c5.09-9.3 10.74-18.93 16.38-28.23l3.76-5.98-0.11 0.11c0.33-0.78 0.89-1.44 1.11-2.21v0.11c0-0.11 0.11-0.11 0.11-0.33 0-0.11 0.33 0.89-0.22-2.43 0.66 0.22 2.32-0.77 2.1-1.22 0.33-0.55 0.66-0.89 1-0.89 0-0.33 0.11-0.55 0.33-1.22l1.33-0.22c0.89-0.33 1.99-0.55 3.32-0.55s2.66 0.33 3.98 1.33zm-12.28 23.58c3.21-0.77 8.41 0.66 11.07 0h3.1c-1.66-3.54-3.21-6.86-5.2-10.4l-1.66-2.66c-1.11 2.1-2.55 4.65-3.98 6.97v-0.11c-0.44 0.77-1.11 1.66-1.55 2.55z"/>
		<path class="st36" d="m516 81.39c1.99 2.21 4.32 4.54 6.75 6.42 0.11-1.44 0-3.1 0-4.76 0-2.99-0.11-6.31-0.22-9.3 0-1.11-0.11-2.32-0.11-3.43-0.11-1.88-0.22-4.65-0.22-6.64 0-3.87 0.22-7.86 1.22-12.51l1.11-0.11h-0.22c1.33-0.55 2.66-1.11 4.21-1.11 1 0 2.1 0.33 3.54 1.11 1.44 1.99 1.55 4.65 1.55 7.31 0 1-0.11 1.99-0.11 2.88v7.86c0 1.66-0.11 3.43-0.11 5.31 0 7.64 0.22 15.39 0.66 21.92 0 0-0.33 1.22-0.33 1.77 0 0.11-0.11 0.33-0.11 0.44 0 1-0.11 1.88-0.66 2.77-1.33 1-4.1 1.55-5.65 1.11-9.96-7.08-18.37-15.94-26.79-25.02-5.09-5.53-10.29-10.85-15.61-15.72 0 0.66-0.11 1.44-0.11 1.99v3.1c0 3.98 0.11 7.97 0.22 11.51 0.11 2.21 0.22 4.21 0.22 6.42 0 0.77-0.11 1.55-0.11 2.32v2.1c0 1-0.11 1.99-0.11 2.99v2.77c0 0.33 0.11 0.66 0.11 0.89v0.66c0.11 1.55 0.11 2.43-1.33 4.32l-0.55 0.22h0.11c-0.33 0.22-0.55 0.33-0.77 0.33 0 0 0.11 0-0.11 0.66-3.65-0.44-6.09-2.1-7.75-4.65 0.22-3.76 0.33-7.75 0.33-11.4 0-6.53-0.22-13.06-0.55-20.04l-0.44-12.4 0.89-1.66c0.22-0.33 0.55-0.77 0.44-2.1 2.32-0.55 3.54-0.89 5.2-1.11l1.88-0.22 0.55 0.55c0.11 0.11 0.44 0.22 1.66 0.33 2.77 2.88 6.09 6.09 9.08 8.86l2.66 2.43h-0.11c2.77 2.77 6.09 5.87 8.52 8.74l9.74 10.18v-0.08c0.22 0.22 0.22 0.44 0.44 0.66l0.89 1.22z"/>
	</g>
	<g fill="#009a00">
		<path class="st35" d="m601.42 50.17c0 0.92 0.46 2.18 1.15 3.56l0.46 1.26-0.11-0.12c2.87 5.16 5.73 10.09 8.83 15.14l1.83 3.33v-0.12c4.47 7.69 8.72 15.26 12.5 24.2 0 0-0.23 1.03-0.34 1.72 0 0.23-0.11 0.8-0.11 1.03-1.38 0.92-3.1 1.72-4.93 1.95-1.95-1.26-2.41-1.49-3.44-1.26l-3.78-7.46-2.29-4.59-1.95-3.9h-3.56c-7.34 0-16.06 0.23-23.86 0.46-1.72 2.41-2.41 3.67-3.21 5.16-2.06 3.9-2.64 4.82-3.21 5.62-0.8 0.92-1.38 1.72-2.52 4.01h0.12c-0.34 0.8-0.8 1.72-1.95 2.64-3.44 0.46-5.96-2.41-7.46-4.59l0.92-2.18c0.57-1.38 1.15-2.75 2.64-3.79l-0.12 0.23c5.28-9.63 11.13-19.61 16.98-29.25l3.9-6.19-0.11 0.12c0.34-0.8 0.92-1.49 1.15-2.29v0.12c0-0.12 0.11-0.12 0.11-0.34 0-0.11 0.34 0.92-0.23-2.52 0.69 0.23 2.41-0.8 2.18-1.26 0.34-0.57 0.69-0.92 1.03-0.92 0-0.34 0.12-0.57 0.34-1.26l1.38-0.23c0.92-0.34 2.07-0.57 3.44-0.57 1.38 0 2.75 0.34 4.13 1.38zm-12.73 24.43c3.33-0.8 8.72 0.69 11.47 0h3.21c-1.72-3.67-3.33-7.11-5.39-10.78l-1.72-2.75c-1.15 2.18-2.64 4.82-4.13 7.23v-0.11c-0.46 0.8-1.15 1.72-1.61 2.64z"/>
		<path class="st35" d="m680.21 59.34c-0.23-1.38-0.34-2.64-0.34-3.9 0-1.95 0.23-3.67 1.95-5.39 0.69-0.12 1.95-0.23 3.67-0.23 1.95 0 4.47 0.57 5.96 2.87 0.23 1.38 0.46 2.52 0.11 3.79 0.46 1.95 0.46 3.56 0.46 5.62v2.18c0 0.46-0.11 0.92-0.11 1.38-0.34 11.7-0.57 25.35-7.8 31.43-7.34 3.9-16.4 6.31-24.09 6.31-6.08 0-12.27-1.49-18.12-4.36-4.93-4.13-8.83-8.95-11.01-15.48-0.69-4.7-1.38-10.44-1.38-16.75 0-3.33 0.34-7 0.92-9.86v-0.69c0-1.03 0-1.72 0.46-4.13 1.03-1.15 2.52-1.61 4.24-1.61s3.78 0.34 5.39 0.92c0 0.8 0.11 1.72 0.34 1.95l1.15 2.18c0.11 1.49 0.11 3.33 0.11 5.05 0 2.06 0 4.36-0.11 6.54-0.12 1.84-0.12 4.59-0.12 6.54 0 6.08 0.8 12.04 3.79 16.63 0.34 0.23 1.03 0.8 1.38 0.92 0.8 0.8 2.18 1.72 3.56 2.29 1.72 0.34 3.21 0.57 4.59 1.03 2.75-0.11 7.23-0.34 9.29-0.57l3.9-0.69c0.57-0.23 1.61-0.69 1.95-0.92l1.03-0.34 3.9-2.41c3.1-4.01 4.24-11.35 4.59-17.78 0.8-8.73 0.57-10.57 0.34-12.52z"/>
		<path class="st35" d="m743.17 56.48c-4.36 2.06-7.91 4.82-11.01 7.23-0.8 0.69-1.61 1.26-2.41 1.84l-1.03 0.92c-0.92 0.92-1.72 1.72-2.98 2.52 5.05 4.7 11.81 9.06 17.43 12.73l2.18 1.38c6.54 4.36 13.19 8.95 18.01 13.76-0.46 3.44-2.07 4.47-3.33 5.62h0.12l-0.57 0.57c-2.75 0.57-4.01-0.34-5.16-1.26-0.57-0.46-1.15-0.92-1.95-1.15 0-0.23-0.23-0.34-0.23-0.46-0.11-0.11-0.34-0.34-0.34-0.69-1.38-1.03-2.75-1.95-4.24-2.87-1.15-0.8-2.41-1.61-3.67-2.52h0.11c-1.72-0.8-3.44-1.95-4.82-3.1 0.46 0.46-0.23-0.12-0.46-0.23l-1.84-1.38c-2.06-1.61-3.56-2.64-5.39-3.56-3.78-2.29-7.23-4.59-10.09-6.88l0.11-0.12c-0.57-0.57-1.15-0.92-2.29-1.49-0.34-0.34-0.57-0.69-1.15-1.15l-0.23-0.34c-4.24 2.75-8.26 5.39-12.39 8.6 0 0.57 0.11 1.03 0.69 1.61-0.8 3.67-0.69 5.73-0.57 7.68v0.46c0.12 2.41 0 5.73-1.38 8.49-2.06 0.46-5.96 0.46-7.68 0.11-1.15-2.18-1.15-3.9-1.03-5.05v-0.57c0-0.23 0.11-0.34 0.11-0.57-0.11-2.18-0.11-5.62-0.11-7.69 0-2.41 0-5.05 0.11-7.57 0.12-3.33 0.12-8.37 0.12-11.36 0-2.52 0-5.28-0.12-7.8-0.11-1.38-0.11-3.56-0.11-4.82 0-2.52 0.11-5.28 0.92-8.26 1.83-0.34 4.01-0.8 6.31-0.69 1.26 0.57 1.72 1.83 2.18 3.21 0.12 0.69 0.23 1.26 0.57 1.72-0.12 1.72-0.12 3.33-0.12 5.05 0 2.29 0 4.36 0.12 6.54 0 0.8 0.11 1.61 0.11 2.29v1.83c0 0.69-0.11 1.15-0.11 1.61v0.34c10.09-7.23 20.88-15.37 30.28-22.94 0.23 0.11 0.34 0.11 0.46 0 0 0 1.84-0.69 1.61-0.57 2.64 0.12 7.46 2.07 7.57 4.82 0 1.49-0.34 1.95-1.03 2.64-0.34 0.34-0.8 0.8-0.92 1.26z"/>
		<path class="st35" d="m776.09 51.09 0.92 1.15c0 1.95-0.12 4.59-0.23 6.31-0.23 2.07 0 4.13 0.34 5.96 0.23 1.15 0.34 2.75 0.34 4.24v2.41c0.11 4.36 0.11 11.24 0.11 15.37 0 3.67 0 7.34 0.12 11.93 0.46 0.8 0.11 1.15-0.46 1.95 0 0 0.11 0 0.46 1.15-1.26 0-1.84 0.11-2.07 0.46l-2.52-0.23c-1.84-0.12-3.67-0.34-4.59-2.29 0.23-1.26 0-2.07-0.11-2.98-0.12-0.92 0-1.72 0.11-2.52-0.23-1.15-0.23-2.64-0.23-4.13 0-1.26 0-3.21 0.12-4.47v-2.06c0-0.8 0.11-1.49 0.11-1.95 0-1.84-0.11-3.67-0.46-5.28 0.12-0.23 0.57-1.03 0.46-0.92-0.46-2.64-0.34-6.19-0.34-9.18 0-1.84 0-3.44-0.12-5.05l-0.23-2.75c-0.11-1.26-0.23-2.98-0.23-4.24 0-1.15 0-2.29 0.34-4.01 1.49-1.38 5.16-1.49 7.23-0.69z"/>
	</g>
	<g fill="#0060b1">
		<path class="st37" d="m207.22 141.21c-0.51 0.36-1.13 0.51-1.9 0.51-0.87 0-2-0.31-3.08-0.98 0.41 0 0.41 0 0.46 0.05-0.05-0.1-0.41-0.51-0.41-0.51 0.05-1.9 0.1-4.16 0.1-6.21 0-3.23 0-5.44-0.21-8.52-0.62 0.67-1.13 1.33-1.64 2.05-0.41 0.56-0.82 1.08-1.34 1.69-1.69 2.16-3.75 4.52-5.85 6.52-0.56-0.26-1.13-0.31-1.64-0.31-0.41-0.46-0.87-0.87-1.64-1.08-0.41-0.77-0.87-1.34-1.49-1.95l-1.08-1.28c-0.36-0.46-0.67-0.98-0.92-1.49-0.36-0.56-0.77-1.18-1.23-1.75v0.05c-0.67-0.62-1.54-1.59-2.52-2.88v3.34c0 3.75 0 6.83 0.36 10.42-0.15 0.67-0.21 1.49-0.21 2.31-0.51 0.51-1.18 0.77-1.85 0.77-0.98 0-2-0.51-2.67-1.03-0.15-1.8-0.26-3.95-0.26-6.42v-1.59c0-0.51 0.05-1.03 0.05-1.54v-2c0-0.67 0.05-1.39 0.05-2.11 0-2.21-0.05-4.42-0.21-6.47 0.15-0.41 0.15-0.98 0.15-1.54v-0.56l0.82-0.46c0.77-0.31 1.23-0.46 2.46-0.62 1.08 0.31 1.64 0.72 2.16 1.23 0.05 0.1 0.31 0.46 0.31 0.46v-0.1l0.1 0.1c1.23 1.9 2.62 3.59 3.95 5.13 1.39 1.64 2.98 3.65 4.16 5.65 1.23-1.13 2.46-2.67 3.54-3.95l1.28-1.54 0.56-0.72c0.98-1.23 1.95-2.46 3.08-3.59 0.05-0.46 0.56-1.18 0.92-1.64l0.36-0.72c0.67-0.46 1.39-0.62 2.11-0.62 0.67 0 1.59 0.26 2.26 0.41l0.26 0.31c0.05 0.1 0.1 0.15 0.51 0.51 0.05 2.11 0.05 4.16 0.05 5.8v1.75c0 2.82 0.05 5.55 0.46 9.09-0.26 0.46-0.21 1.13-0.15 1.64s0.1 1.13-0.05 1.64c0 0.1 0.05 0.36 0.1 0.46 0.05 0.21 0.1 0.46 0.1 0.98l-0.31 1.08z"/>
		<path class="st37" d="m237.66 118.88c-0.26 0.77-0.72 1.23-1.39 1.64h0.05c-1.13 1.08-2.31 2.31-3.44 3.49l-0.87 0.98-1.34 1.54c-1.23 1.39-2.62 2.98-4 4.11l-0.21 1.75c-0.15 1.54-0.31 2.98-0.31 4.36 0 0.92 0.1 1.8 0.31 2.62 0 0.87-0.21 1.59-0.51 2.21-0.72 0.36-2 0.41-3.18 0.36-0.31-0.31-0.41-0.62-0.51-0.92l-0.1-0.36v0.05c-0.05-0.15-0.1-0.31-0.21-0.46l-0.1-0.36c0.05-1.39 0.1-2.93 0.1-4.52 0-1.49-0.05-3.03-0.1-4.36l-0.31-0.31h0.05c-0.36-0.21-0.72-0.36-0.77-0.98-1.39-1.03-2.62-2.11-3.9-3.23-1.44-1.23-2.82-2.46-4.83-3.9-0.67-1.18-1.69-1.9-2.88-2.52 0-0.15 0-0.31-0.05-0.46-0.1-0.31-0.15-0.67-0.05-1.28 0.82-0.41 1.44-0.72 1.95-0.98l0.51-0.26c1.08 0.05 1.75 0.62 2.46 1.08l0.72 0.41c1.85 2.26 4.11 4.16 6.42 6.11l1.8 1.54 1.13 0.92c2.88-2.67 5.49-5.39 8.16-8.21l0.92-0.98c-0.05-0.26-0.21-0.62 0.92-0.87 0.67-0.15 1.64-0.36 2.31-0.1l0.56 0.56h-0.05c0.31 0.31 0.67 0.62 0.72 1.08v0.25z"/>
		<path class="st37" d="m239.61 135.62c-0.41-1.44-0.56-2.93-0.56-4.31 0-4.31 1.59-8.47 4.16-11.14 0.56-0.15 0.77-0.31 1.03-0.51h-0.05l0.1-0.05 0.46-0.31h-0.05l0.92-0.67c1.44-0.51 3.34-0.67 5.13-0.82l1.13-0.1c0.72-0.1 1.69-0.1 2.36-0.1 2.36 0 4.62 0.31 6.47 0.67l0.92 0.67c0.05 0.05 0.26 0.15 0.77 0.36l0.46 0.62c1.8 2.11 4.42 5.13 4.72 8.57 0.21 2.36-0.21 4.62-0.46 6.37 0 0.05-0.21 0.36-0.31 0.46-0.05 0.1-0.15 0.1-0.15 0.26-0.62 1.03-1.18 2-1.64 2.57l-0.77 0.72c-0.1 0.1-0.26 0.15-0.36 0.21l-1.23 1.23c-2.77 1.33-5.9 1.85-9.04 1.85-2.36 0-4.72-0.26-6.98-0.62-3.23-0.87-5.54-2.46-6.67-5.44-0.1 0-0.21-0.1-0.21-0.31 0 0-0.05 0.05 0-0.05zm6.68-12.17c0.31-0.1-0.21 0.41-0.62 0.82l-0.46 0.46v-0.05c-1.49 1.95-2.46 4.52-2.46 7.29 0 0.87 0.15 2.11 0.41 3.13 0.26 0.15 0.41 0.41 0.56 0.77 2 1.34 5.39 2.16 8.63 2.16 3.18 0 6.57-0.87 8.57-2.26h-0.05c1.69-1.69 2.87-5.65 2.93-9.04-0.15-0.67-0.51-1.39-0.87-2.05l-0.1-0.26c-0.05-0.05-0.1-0.1-0.1-0.15-1.49-1.28-3.65-2.26-6.32-2.36-3.04-0.05-7.35 0-10.12 1.54zm1.8-11.61c2.36-1.28 4.31 0.67 4.31 2.36 0 0.87-0.46 1.64-1.28 2-2.52 0.56-3.34-0.77-3.34-2.57 0-0.56 0.05-1.08 0.26-1.75zm7.54-0.36c0.31-0.31 0.62-0.1 0.92-0.05l0.77 0.36c0.62 0.46 1.03 1.08 1.03 2.05 0 0.56-0.21 1.23-0.62 1.95l-0.51 0.1c-0.92 0.31-1.59 0.51-2.67-0.15-0.41-0.51-0.62-1.18-0.62-1.9 0.01-1.07 0.52-2.15 1.7-2.36zm11.5 23.37c0.05 0 0.05 0.05 0 0.1z"/>
		<path class="st37" d="m288.39 117.18c1.69 0.98 4.21 3.29 4.21 5.54 0 0.67-0.21 1.34-0.72 2-0.82 0.36-2.05-0.05-2.67-0.41l-0.15-1.18c-0.05-0.62-0.21-1.18-0.41-1.54l-0.82-0.31c-0.05 0-0.15-0.05-0.31-0.21-1.44 0.15-2.98 0.21-4.36 0.26-3.23 0.1-6.67 0.46-9.55 1.69l-1.23 1.23c0 0.1-0.05 0.26-0.1 0.41 0.05-0.05 0.1-0.1 0.21-0.05-0.36 1.8 2.11 1.75 4.21 1.69h0.77c0.62 0 1.39 0 1.85 0.05 1.49 0.15 3.29 0.26 4.93 0.36l2.72 0.15c0.77 0.31 1.85 0.62 2.98 0.82 2.67 1.13 4.42 4.16 4.42 7.24 0 1.34-0.36 2.82-1.13 4.06-2.72 2.57-7.24 2.98-11.3 3.18-1.18-0.15-2.26-0.26-3.34-0.36-0.26 0-0.56-0.05-0.82-0.05-1.95-0.15-4.11-0.36-5.9-0.92-1.39-0.92-2.57-2.93-2.57-5.19 0-0.62 0.1-1.34 0.41-2.11 2.52-0.77 3.23 1.08 3.8 2.72 0.05 0.21 0.1 0.41 0.1 0.46 2.31 0.51 5.13 0.82 7.75 0.82 2.21 0 4.72-0.31 6.67-0.92h-0.05l0.46-0.21v0.05c0.92-0.51 1.9-1.03 2.36-1.95l-0.05 0.05c0.21-0.77 0.05-1.75-0.36-2.11-1.9-1.13-4.57-1.39-6.98-1.54l-2.21-0.15c-0.87-0.05-2.16-0.1-2.93-0.1-2.46-0.05-4.77-0.1-6.98-1.13l-0.05-0.21c-0.05 0-0.21 0-0.56-0.26-1.13-1.13-1.8-3.13-1.8-5.13 0-1.49 0.46-2.98 1.33-4.06 1.39-1.59 4.26-2.46 6.57-2.77 2.16-0.31 4.42-0.31 6.21-0.31 1.44 0 2.93 0 4.42-0.1l0.77 0.41z"/>
		<path class="st37" d="m341.12 128.74c-1.75 2.52-4.67 3.18-8.06 3.54 0.87 0.87 1.8 1.49 2.77 2.05h-0.05c0.15 0.1 0.36 0.31 0.56 0.41 0.67 0.36 1.23 0.72 1.75 1.08 0.56 0.41 1.28 0.92 1.95 1.33 0.46 0.31 0.92 0.56 1.33 0.87 0.56 0.41 1.34 0.98 2.16 1.49 0.1 1.95-1.08 2.62-2.36 2.62-0.77 0-1.59-0.15-2.16-0.36-2.05-1.75-4.31-3.34-6.52-4.77h0.05l-1.13-0.72c-1.64-1.08-3.7-2.36-5.34-3.65-0.56 0-1.13 0.05-1.64 0.1h0.05c-0.92 0.1-2.05 0.21-2.82 0.1v0.98c0 0.67 0.05 1.33 0.1 2.16v0.92c0.05 0.56 0.1 1.28 0.1 1.85 0 1.18-0.1 2.16-0.41 3.13-1.59 0.1-2.46-0.21-3.7-0.62-0.15-0.36-0.31-0.62-0.62-0.87-0.15-2.46-0.21-5.29-0.21-7.86 0-3.44 0.15-6.93 0.31-10.27-0.21-0.51-0.36-1.18-0.36-1.59 0-0.67 0.15-1.49 0.31-2.11 0-0.21 0.1-0.46 0.1-0.62 1.69-0.46 3.54-0.62 5.34-0.77l2.72-0.26c0.72 0.05 1.54 0.05 2.36 0.05 0.92 0 1.9 0 2.88 0.05 3.39 0.15 6.42 1.34 8.63 3.49 1.33 1.18 2.36 3.29 2.36 5.44 0 0.87-0.05 1.8-0.41 2.72zm-8.11-1.03h0.15c1.9-0.21 3.65-0.51 4.83-1.49 0-0.05 0.05-0.26 0.1-0.31 0.15-1.85-0.77-2.46-1.85-3.29h-0.05l-0.51-0.46c-2.31-0.92-4.83-1.18-7.39-1.18-2.11 0-4.31 0.15-6.52 0.56 0.05 0.56 0.05 1.18 0.05 1.69 0 0.36-0.05 0.67-0.05 0.98v1.03c0 0.92-0.05 1.9 0 3.08 0.92 0.05 1.8 0.1 2.82 0.1 2.16 0 4.42-0.15 6.73-0.51 0.51-0.1 1.12-0.15 1.69-0.2z"/>
		<path class="st37" d="m361.09 118.36c0 0.41 0.21 0.98 0.51 1.59l0.21 0.56-0.05-0.05c1.28 2.31 2.57 4.52 3.95 6.78l0.82 1.49v-0.05c2 3.44 3.9 6.83 5.6 10.83 0 0-0.1 0.46-0.15 0.77 0 0.1-0.05 0.36-0.05 0.46-0.62 0.41-1.39 0.77-2.21 0.87-0.87-0.56-1.08-0.67-1.54-0.56l-1.69-3.34-1.03-2.05-0.87-1.75h-1.59c-3.29 0-7.19 0.1-10.68 0.21-0.77 1.08-1.08 1.64-1.44 2.31-0.92 1.75-1.18 2.16-1.44 2.52-0.36 0.41-0.62 0.77-1.13 1.8h0.05c-0.15 0.36-0.36 0.77-0.87 1.18-1.54 0.21-2.67-1.08-3.34-2.05l0.41-0.98c0.26-0.62 0.51-1.23 1.18-1.69l-0.05 0.1c2.36-4.31 4.98-8.78 7.6-13.09l1.75-2.77-0.05 0.05c0.15-0.36 0.41-0.67 0.51-1.03v0.05c0-0.05 0.05-0.05 0.05-0.15 0-0.05 0.15 0.41-0.1-1.13 0.31 0.1 1.08-0.36 0.98-0.56 0.15-0.26 0.31-0.41 0.46-0.41 0-0.15 0.05-0.26 0.15-0.56l0.62-0.1c0.41-0.15 0.92-0.26 1.54-0.26s1.23 0.15 1.85 0.62zm-5.7 10.94c1.49-0.36 3.9 0.31 5.13 0h1.44c-0.77-1.64-1.49-3.18-2.41-4.83l-0.77-1.23c-0.51 0.98-1.18 2.16-1.85 3.23v-0.05c-0.21 0.36-0.51 0.77-0.72 1.18z"/>
		<path class="st37" d="m391.28 140.03c-1.75 1.28-4.57 2.11-7.34 2.11-2.36 0-4.62-0.56-6.21-1.8-1.85-1.75-3.65-4.21-3.9-6.98l-0.51-0.51v-1.08c0-0.36-0.05-0.62 0.31-1.08 0.67-0.46 1.49-0.72 2.26-0.72s1.64 0.31 2.46 1.03v1.49c0.05 2 0.1 4.16 1.54 5.6 0.72 0.31 1.95 0.31 3.29 0.31h0.98c0.41 0 0.77-0.05 1.18 0 0.98-0.31 1.95-0.62 2.57-1.13 0.87-1.34 1.18-2.88 1.18-4.42 0-0.51 0-1.18-0.05-1.8v-0.46c-0.05-0.77 0-1.49 0-2.31v-1.95c0-0.31 0.05-0.67 0.05-0.98 0-1.13 0-2.52-0.15-3.85-0.87-0.05-1.75-0.05-2.46-0.05-1.33 0-2.46 0.05-3.7 0.1-0.46 0-0.87 0.05-1.33 0.05-0.72 0.05-1.75 0.1-2.52 0.1-1.08 0-2.11-0.05-3.03-0.15-0.82-1.03-1.34-2.67-0.72-4.11 0.92 0.05 1.95 0 2.77-0.05 0.31 0 0.51-0.05 0.77-0.05 0.87-0.05 2.26-0.1 2.93-0.1 1.13 0.05 2.36 0.05 3.59 0.05 2.77 0 5.75-0.05 8.47-0.1 0.67 0 1.33-0.05 1.9-0.05h1.64c0.82 0.41 1.75 1.64 1.75 2.77 0 0.77-0.36 1.49-1.33 1.95-1.18-0.41-2.05-0.41-3.03-0.41h-0.56c-0.36 0-0.51 0.05-1.03 0 0.05 2.57 0.21 5.03 0.36 7.34l0.15 2.41c-0.05 0.51-0.05 1.03-0.05 1.44-0.1 2.62-0.21 5.39-2.11 7.34z"/>
		<path class="st37" d="m400.63 135.62c-0.41-1.44-0.56-2.93-0.56-4.31 0-4.31 1.59-8.47 4.16-11.14 0.56-0.15 0.77-0.31 1.03-0.51h-0.05l0.1-0.05 0.46-0.31h-0.05l0.92-0.67c1.44-0.51 3.34-0.67 5.13-0.82l1.13-0.1c0.72-0.1 1.69-0.1 2.36-0.1 2.36 0 4.62 0.31 6.47 0.67l0.92 0.67c0.05 0.05 0.26 0.15 0.77 0.36l0.46 0.62c1.8 2.11 4.42 5.13 4.72 8.57 0.21 2.36-0.21 4.62-0.46 6.37 0 0.05-0.21 0.36-0.31 0.46-0.05 0.1-0.15 0.1-0.15 0.26-0.62 1.03-1.18 2-1.64 2.57l-0.77 0.72c-0.1 0.1-0.26 0.15-0.36 0.21l-1.23 1.23c-2.77 1.33-5.9 1.85-9.04 1.85-2.36 0-4.72-0.26-6.98-0.62-3.23-0.87-5.54-2.46-6.67-5.44-0.1 0-0.21-0.1-0.21-0.31 0 0-0.05 0.05 0-0.05zm6.67-12.17c0.31-0.1-0.21 0.41-0.62 0.82l-0.46 0.46v-0.05c-1.49 1.95-2.46 4.52-2.46 7.29 0 0.87 0.15 2.11 0.41 3.13 0.26 0.15 0.41 0.41 0.56 0.77 2 1.34 5.39 2.16 8.63 2.16 3.18 0 6.57-0.87 8.57-2.26h-0.05c1.69-1.69 2.88-5.65 2.93-9.04-0.15-0.67-0.51-1.39-0.87-2.05l-0.1-0.26c-0.05-0.05-0.1-0.1-0.1-0.15-1.49-1.28-3.65-2.26-6.32-2.36-3.03-0.05-7.34 0-10.12 1.54zm20.85 11.4c0.05 0 0.05 0.05 0 0.1z"/>
		<path class="st37" d="m434.52 118.78 0.41 0.51c0 0.87-0.05 2.05-0.1 2.82-0.1 0.92 0 1.85 0.15 2.67 0.1 0.51 0.15 1.23 0.15 1.9v1.08c0.05 1.95 0.05 5.03 0.05 6.88 0 1.64 0 3.29 0.05 5.34 0.21 0.36 0.05 0.51-0.21 0.87 0 0 0.05 0 0.21 0.51-0.56 0-0.82 0.05-0.92 0.21l-1.13-0.1c-0.82-0.05-1.64-0.15-2.05-1.03 0.1-0.56 0-0.92-0.05-1.33s0-0.77 0.05-1.13c-0.1-0.51-0.1-1.18-0.1-1.85 0-0.56 0-1.44 0.05-2v-0.92c0-0.36 0.05-0.67 0.05-0.87 0-0.82-0.05-1.64-0.21-2.36 0.05-0.1 0.26-0.46 0.21-0.41-0.21-1.18-0.15-2.77-0.15-4.11 0-0.82 0-1.54-0.05-2.26l-0.1-1.23c-0.05-0.56-0.1-1.33-0.1-1.9 0-0.51 0-1.03 0.15-1.8 0.67-0.62 2.31-0.67 3.23-0.31z"/>
		<path class="st37" d="m465.27 118.42c0.1 0.05 0.26 0.15 0.36 0.31 0.77 1.23-0.05 3.44-0.92 4-1.75 0-3.39 0-4.93-0.05h-1.69c-0.67 0-1.23-0.05-1.64-0.05-1.08 0-2 0.05-2.98 0.1h-0.1c-0.05 0.98-0.05 1.85-0.05 2.88v1.08c0 1.8 0 3.59 0.05 5.49 0.05 2 0.05 4.06 0.05 5.96v0.41c0 0.15 0.05 0.26 0.05 0.36 0.05 0.82 0 1.85-0.67 2.72-0.87 0.36-2.62 0.31-3.49-0.31-0.36-1.75-0.46-3.9-0.46-6.21 0-1.33 0.05-2.67 0.1-4v-0.26c0-0.21 0.05-0.46 0.05-0.72v-0.62c0.1-2-0.1-4.06-0.31-5.9l-0.1-0.77c-0.56-0.15-1.18-0.1-1.8-0.1-0.92 0-1.8 0.05-2.77 0.15-1.03 0.1-2 0.15-2.98 0.15-0.92 0-1.69-0.05-2.41-0.21-1.23-1.28-1.28-2.62-1.23-4.26 0.46-0.26 0.72-0.41 0.82-0.67 1.9 0.1 4.16 0.1 6.06 0.1s3.9 0 5.8-0.05c2.36-0.05 4.67-0.05 6.93-0.05h2.62c1.9 0 3.18 0 5.44 0.21z"/>
		<path class="st37" d="m489.61 122.47c-0.1-0.62-0.15-1.18-0.15-1.75 0-0.87 0.1-1.64 0.87-2.41 0.31-0.05 0.87-0.1 1.64-0.1 0.87 0 2 0.26 2.67 1.28 0.1 0.62 0.21 1.13 0.05 1.69 0.21 0.87 0.21 1.59 0.21 2.52v0.98c0 0.21-0.05 0.41-0.05 0.62-0.15 5.24-0.26 11.35-3.49 14.07-3.29 1.75-7.34 2.82-10.78 2.82-2.72 0-5.49-0.67-8.11-1.95-2.21-1.85-3.95-4-4.93-6.93-0.31-2.11-0.62-4.67-0.62-7.5 0-1.49 0.15-3.13 0.41-4.42v-0.31c0-0.46 0-0.77 0.21-1.85 0.46-0.51 1.13-0.72 1.9-0.72s1.69 0.15 2.41 0.41c0 0.36 0.05 0.77 0.15 0.87l0.51 0.98c0.05 0.67 0.05 1.49 0.05 2.26 0 0.92 0 1.95-0.05 2.93-0.05 0.82-0.05 2.05-0.05 2.93 0 2.72 0.36 5.39 1.69 7.44 0.15 0.1 0.46 0.36 0.62 0.41 0.36 0.36 0.98 0.77 1.59 1.03 0.77 0.15 1.44 0.26 2.05 0.46 1.23-0.05 3.23-0.15 4.16-0.26l1.75-0.31c0.26-0.1 0.72-0.31 0.87-0.41l0.46-0.15 1.75-1.08c1.39-1.8 1.9-5.08 2.05-7.96 0.36-3.89 0.26-4.72 0.16-5.59z"/>
		<path class="st37" d="m516.1 117.18c1.69 0.98 4.21 3.29 4.21 5.54 0 0.67-0.21 1.34-0.72 2-0.82 0.36-2.05-0.05-2.67-0.41l-0.15-1.18c-0.05-0.62-0.21-1.18-0.41-1.54l-0.82-0.31c-0.05 0-0.15-0.05-0.31-0.21-1.44 0.15-2.98 0.21-4.36 0.26-3.23 0.1-6.67 0.46-9.55 1.69l-1.23 1.23c0 0.1-0.05 0.26-0.1 0.41 0.05-0.05 0.1-0.1 0.21-0.05-0.36 1.8 2.11 1.75 4.21 1.69h0.77c0.62 0 1.39 0 1.85 0.05 1.49 0.15 3.29 0.26 4.93 0.36l2.72 0.15c0.77 0.31 1.85 0.62 2.98 0.82 2.67 1.13 4.42 4.16 4.42 7.24 0 1.34-0.36 2.82-1.13 4.06-2.72 2.57-7.24 2.98-11.3 3.18-1.18-0.15-2.26-0.26-3.34-0.36-0.26 0-0.56-0.05-0.82-0.05-1.95-0.15-4.11-0.36-5.9-0.92-1.39-0.92-2.57-2.93-2.57-5.19 0-0.62 0.1-1.34 0.41-2.11 2.52-0.77 3.23 1.08 3.8 2.72 0.05 0.21 0.1 0.41 0.1 0.46 2.31 0.51 5.13 0.82 7.75 0.82 2.21 0 4.72-0.31 6.67-0.92h-0.05l0.46-0.21v0.05c0.92-0.51 1.9-1.03 2.36-1.95l-0.05 0.05c0.21-0.77 0.05-1.75-0.36-2.11-1.9-1.13-4.57-1.39-6.98-1.54l-2.21-0.15c-0.87-0.05-2.16-0.1-2.93-0.1-2.46-0.05-4.77-0.1-6.98-1.13l-0.05-0.21c-0.05 0-0.21 0-0.56-0.26-1.13-1.13-1.8-3.13-1.8-5.13 0-1.49 0.46-2.98 1.34-4.06 1.39-1.59 4.26-2.46 6.57-2.77 2.16-0.31 4.42-0.31 6.21-0.31 1.44 0 2.93 0 4.42-0.1l0.77 0.41z"/>
		<path class="st37" d="m551.48 118.42c0.1 0.05 0.26 0.15 0.36 0.31 0.77 1.23-0.05 3.44-0.92 4-1.75 0-3.39 0-4.93-0.05h-1.69c-0.67 0-1.23-0.05-1.64-0.05-1.08 0-2 0.05-2.98 0.1h-0.1c-0.05 0.98-0.05 1.85-0.05 2.88v1.08c0 1.8 0 3.59 0.05 5.49 0.05 2 0.05 4.06 0.05 5.96v0.41c0 0.15 0.05 0.26 0.05 0.36 0.05 0.82 0 1.85-0.67 2.72-0.87 0.36-2.62 0.31-3.49-0.31-0.36-1.75-0.46-3.9-0.46-6.21 0-1.33 0.05-2.67 0.1-4v-0.26c0-0.21 0.05-0.46 0.05-0.72v-0.62c0.1-2-0.1-4.06-0.31-5.9l-0.1-0.77c-0.56-0.15-1.18-0.1-1.8-0.1-0.92 0-1.8 0.05-2.77 0.15-1.03 0.1-2 0.15-2.98 0.15-0.92 0-1.69-0.05-2.41-0.21-1.23-1.28-1.28-2.62-1.23-4.26 0.46-0.26 0.72-0.41 0.82-0.67 1.9 0.1 4.16 0.1 6.06 0.1s3.9 0 5.8-0.05c2.36-0.05 4.67-0.05 6.93-0.05h2.62c1.9 0 3.18 0 5.44 0.21z"/>
		<path class="st37" d="m573.86 118c0.72 0.67 1.44 1.59 1.08 2.72-0.62 1.34-1.85 1.28-2.88 1.18h-0.21c-0.26-0.05-0.51-0.05-0.72-0.05-1.9 0-3.95 0.05-5.96 0.1-1.44 0.05-3.39 0.05-4.67 0.05-1.13 0-1.85 0-2.72-0.05-0.05 0.41-0.05 0.98-0.05 1.44 0 0.31-0.05 0.51-0.05 0.82 0 0.36-0.05 0.72-0.05 1.08 0 0.67 0 1.23-0.05 1.69 2.62-0.1 4.98-0.15 7.34-0.15 1.9 0 3.9 0 5.7 0.15 1.18 0.26 1.95 1.59 1.95 2.98 0 0.56-0.1 1.18-0.51 1.75-2.26-0.15-4.88-0.31-7.24-0.31-2.57 0-5.13 0.1-7.55 0.62v3.44c0 0.72 0.05 1.13 0 1.9 1.9 0.05 3.59 0.1 5.65 0.1 3.65 0 7.55-0.1 11.71-0.31 0.21 0 0.51-0.05 0.87-0.1 1.03-0.1 2-0.21 2.82 0.51 0.46 1.44-0.05 3.29-0.87 3.8-3.65 0-7.86 0.05-11.76 0.31-0.92 0.05-1.95 0.1-2.88 0.1-0.51 0-1.03 0.05-1.49 0.05-1.64 0.05-3.54 0.1-5.44 0.26-0.31-0.31-0.46-0.36-0.62-0.41-0.05 0-0.21-0.1-0.21-0.1-0.05 0-0.21-0.05-0.26-0.05-0.51-0.21-1.08-0.46-1.28-0.67-0.21-0.41-0.26-1.23-0.26-2.05 0-0.56 0.05-1.44 0.1-2v-0.26c-0.05-3.39 0.15-6.93 0.36-9.96l0.26-5.96c-0.87-1.39 0-3.13 1.34-3.39 2.67 0.26 5.34 0.31 7.96 0.31h2.05c0.72 0 1.34-0.05 2.05-0.05 1.69-0.05 4.42-0.05 5.9-0.05z"/>
		<path class="st37" d="m600.05 132.28c0.92 1.03 2 2.11 3.13 2.98 0.05-0.67 0-1.44 0-2.21 0-1.39-0.05-2.93-0.1-4.31 0-0.51-0.05-1.08-0.05-1.59-0.05-0.87-0.1-2.16-0.1-3.08 0-1.8 0.1-3.65 0.56-5.8l0.51-0.05h-0.1c0.62-0.26 1.23-0.51 1.95-0.51 0.46 0 0.98 0.15 1.64 0.51 0.67 0.92 0.72 2.16 0.72 3.39 0 0.46-0.05 0.92-0.05 1.34v3.65c0 0.77-0.05 1.59-0.05 2.46 0 3.54 0.1 7.14 0.31 10.17 0 0-0.15 0.56-0.15 0.82 0 0.05-0.05 0.15-0.05 0.21 0 0.46-0.05 0.87-0.31 1.28-0.62 0.46-1.9 0.72-2.62 0.51-4.62-3.29-8.52-7.39-12.42-11.6-2.36-2.57-4.78-5.03-7.24-7.29 0 0.31-0.05 0.67-0.05 0.92v1.44c0 1.85 0.05 3.7 0.1 5.34 0.05 1.03 0.1 1.95 0.1 2.98 0 0.36-0.05 0.72-0.05 1.08v0.98c0 0.46-0.05 0.92-0.05 1.39v1.28c0 0.15 0.05 0.31 0.05 0.41v0.31c0.05 0.72 0.05 1.13-0.62 2l-0.26 0.1h0.05c-0.15 0.1-0.26 0.15-0.36 0.15 0 0 0.05 0-0.05 0.31-1.69-0.21-2.82-0.98-3.59-2.16 0.1-1.75 0.15-3.59 0.15-5.29 0-3.03-0.1-6.06-0.26-9.29l-0.21-5.75 0.41-0.77c0.1-0.15 0.26-0.36 0.21-0.98 1.08-0.26 1.64-0.41 2.41-0.51l0.87-0.1 0.26 0.26c0.05 0.05 0.21 0.1 0.77 0.15 1.28 1.33 2.82 2.82 4.21 4.11l1.23 1.13h-0.05c1.28 1.28 2.82 2.72 3.95 4.06l4.52 4.72v-0.05c0.1 0.1 0.1 0.21 0.21 0.31l0.41 0.56z"/>
		<path class="st37" d="m646.92 118.36c0 0.41 0.21 0.98 0.51 1.59l0.21 0.56-0.05-0.05c1.28 2.31 2.57 4.52 3.95 6.78l0.82 1.49v-0.05c2 3.44 3.9 6.83 5.6 10.83 0 0-0.1 0.46-0.15 0.77 0 0.1-0.05 0.36-0.05 0.46-0.62 0.41-1.39 0.77-2.21 0.87-0.87-0.56-1.08-0.67-1.54-0.56l-1.69-3.34-1.03-2.05-0.87-1.75h-1.59c-3.29 0-7.19 0.1-10.68 0.21-0.77 1.08-1.08 1.64-1.44 2.31-0.92 1.75-1.18 2.16-1.44 2.52-0.36 0.41-0.62 0.77-1.13 1.8h0.05c-0.15 0.36-0.36 0.77-0.87 1.18-1.54 0.21-2.67-1.08-3.34-2.05l0.41-0.98c0.26-0.62 0.51-1.23 1.18-1.69l-0.05 0.1c2.36-4.31 4.98-8.78 7.6-13.09l1.75-2.77-0.05 0.05c0.15-0.36 0.41-0.67 0.51-1.03v0.05c0-0.05 0.05-0.05 0.05-0.15 0-0.05 0.15 0.41-0.1-1.13 0.31 0.1 1.08-0.36 0.98-0.56 0.15-0.26 0.31-0.41 0.46-0.41 0-0.15 0.05-0.26 0.15-0.56l0.62-0.1c0.41-0.15 0.92-0.26 1.54-0.26s1.23 0.15 1.85 0.62zm-5.69 10.94c1.49-0.36 3.9 0.31 5.13 0h1.44c-0.77-1.64-1.49-3.18-2.41-4.83l-0.77-1.23c-0.51 0.98-1.18 2.16-1.85 3.23v-0.05c-0.21 0.36-0.51 0.77-0.72 1.18z"/>
		<path class="st37" d="m664.12 118.78 0.41 0.51c0 0.87-0.05 2.05-0.1 2.82-0.1 0.92 0 1.85 0.15 2.67 0.1 0.51 0.15 1.23 0.15 1.9v1.08c0.05 1.95 0.05 5.03 0.05 6.88 0 1.64 0 3.29 0.05 5.34 0.21 0.36 0.05 0.51-0.21 0.87 0 0 0.05 0 0.21 0.51-0.56 0-0.82 0.05-0.92 0.21l-1.13-0.1c-0.82-0.05-1.64-0.15-2.05-1.03 0.1-0.56 0-0.92-0.05-1.33s0-0.77 0.05-1.13c-0.1-0.51-0.1-1.18-0.1-1.85 0-0.56 0-1.44 0.05-2v-0.92c0-0.36 0.05-0.67 0.05-0.87 0-0.82-0.05-1.64-0.21-2.36 0.05-0.1 0.26-0.46 0.21-0.41-0.21-1.18-0.15-2.77-0.15-4.11 0-0.82 0-1.54-0.05-2.26l-0.1-1.23c-0.05-0.56-0.1-1.33-0.1-1.9 0-0.51 0-1.03 0.15-1.8 0.67-0.62 2.31-0.67 3.23-0.31z"/>
		<path class="st37" d="m687.9 121.19c-1.95 0.92-3.54 2.16-4.93 3.23-0.36 0.31-0.72 0.56-1.08 0.82l-0.46 0.41c-0.41 0.41-0.77 0.77-1.34 1.13 2.26 2.11 5.29 4.06 7.8 5.7l0.98 0.62c2.93 1.95 5.9 4.01 8.06 6.16-0.21 1.54-0.92 2-1.49 2.52h0.05l-0.26 0.26c-1.23 0.26-1.8-0.15-2.31-0.56-0.26-0.21-0.51-0.41-0.87-0.51 0-0.1-0.1-0.15-0.1-0.21-0.05-0.05-0.15-0.15-0.15-0.31-0.62-0.46-1.23-0.87-1.9-1.28-0.51-0.36-1.08-0.72-1.64-1.13h0.05c-0.77-0.36-1.54-0.87-2.16-1.39 0.21 0.21-0.1-0.05-0.21-0.1l-0.82-0.62c-0.92-0.72-1.59-1.18-2.41-1.59-1.69-1.03-3.23-2.05-4.52-3.08l0.05-0.05c-0.26-0.26-0.51-0.41-1.03-0.67-0.15-0.15-0.26-0.31-0.51-0.51l-0.1-0.15c-1.9 1.23-3.7 2.41-5.55 3.85 0 0.26 0.05 0.46 0.31 0.72-0.36 1.64-0.31 2.57-0.26 3.44v0.21c0.05 1.08 0 2.57-0.62 3.8-0.92 0.21-2.67 0.21-3.44 0.05-0.51-0.98-0.51-1.75-0.46-2.26v-0.26c0-0.1 0.05-0.15 0.05-0.26-0.05-0.98-0.05-2.52-0.05-3.44 0-1.08 0-2.26 0.05-3.39 0.05-1.49 0.05-3.75 0.05-5.08 0-1.13 0-2.36-0.05-3.49-0.05-0.62-0.05-1.59-0.05-2.16 0-1.13 0.05-2.36 0.41-3.7 0.82-0.15 1.8-0.36 2.82-0.31 0.56 0.26 0.77 0.82 0.98 1.44 0.05 0.31 0.1 0.56 0.26 0.77-0.05 0.77-0.05 1.49-0.05 2.26 0 1.03 0 1.95 0.05 2.93 0 0.36 0.05 0.72 0.05 1.03v0.82c0 0.31-0.05 0.51-0.05 0.72v0.15c4.52-3.23 9.34-6.88 13.55-10.27 0.1 0.05 0.15 0.05 0.21 0 0 0 0.82-0.31 0.72-0.26 1.18 0.05 3.34 0.92 3.39 2.16 0 0.67-0.15 0.87-0.46 1.18-0.15 0.15-0.36 0.36-0.41 0.56z"/>
		<path class="st37" d="m714.44 118.36c0 0.41 0.21 0.98 0.51 1.59l0.21 0.56-0.05-0.05c1.28 2.31 2.57 4.52 3.95 6.78l0.82 1.49v-0.05c2 3.44 3.9 6.83 5.6 10.83 0 0-0.1 0.46-0.15 0.77 0 0.1-0.05 0.36-0.05 0.46-0.62 0.41-1.39 0.77-2.21 0.87-0.87-0.56-1.08-0.67-1.54-0.56l-1.69-3.34-1.03-2.05-0.87-1.75h-1.59c-3.29 0-7.19 0.1-10.68 0.21-0.77 1.08-1.08 1.64-1.44 2.31-0.92 1.75-1.18 2.16-1.44 2.52-0.36 0.41-0.62 0.77-1.13 1.8h0.05c-0.15 0.36-0.36 0.77-0.87 1.18-1.54 0.21-2.67-1.08-3.34-2.05l0.41-0.98c0.26-0.62 0.51-1.23 1.18-1.69l-0.05 0.1c2.36-4.31 4.98-8.78 7.6-13.09l1.75-2.77-0.05 0.05c0.15-0.36 0.41-0.67 0.51-1.03v0.05c0-0.05 0.05-0.05 0.05-0.15 0-0.05 0.15 0.41-0.1-1.13 0.31 0.1 1.08-0.36 0.98-0.56 0.15-0.26 0.31-0.41 0.46-0.41 0-0.15 0.05-0.26 0.15-0.56l0.62-0.1c0.41-0.15 0.92-0.26 1.54-0.26s1.23 0.15 1.85 0.62zm-5.7 10.94c1.49-0.36 3.9 0.31 5.13 0h1.44c-0.77-1.64-1.49-3.18-2.41-4.83l-0.77-1.23c-0.51 0.98-1.18 2.16-1.85 3.23v-0.05c-0.21 0.36-0.51 0.77-0.72 1.18z"/>
		<path class="st37" d="m747.15 132.28c0.92 1.03 2 2.11 3.13 2.98 0.05-0.67 0-1.44 0-2.21 0-1.39-0.05-2.93-0.1-4.31 0-0.51-0.05-1.08-0.05-1.59-0.05-0.87-0.1-2.16-0.1-3.08 0-1.8 0.1-3.65 0.56-5.8l0.51-0.05h-0.1c0.62-0.26 1.23-0.51 1.95-0.51 0.46 0 0.98 0.15 1.64 0.51 0.67 0.92 0.72 2.16 0.72 3.39 0 0.46-0.05 0.92-0.05 1.34v3.65c0 0.77-0.05 1.59-0.05 2.46 0 3.54 0.1 7.14 0.31 10.17 0 0-0.15 0.56-0.15 0.82 0 0.05-0.05 0.15-0.05 0.21 0 0.46-0.05 0.87-0.31 1.28-0.62 0.46-1.9 0.72-2.62 0.51-4.62-3.29-8.52-7.39-12.42-11.6-2.36-2.57-4.77-5.03-7.24-7.29 0 0.31-0.05 0.67-0.05 0.92v1.44c0 1.85 0.05 3.7 0.1 5.34 0.05 1.03 0.1 1.95 0.1 2.98 0 0.36-0.05 0.72-0.05 1.08v0.98c0 0.46-0.05 0.92-0.05 1.39v1.28c0 0.15 0.05 0.31 0.05 0.41v0.31c0.05 0.72 0.05 1.13-0.62 2l-0.26 0.1h0.05c-0.15 0.1-0.26 0.15-0.36 0.15 0 0 0.05 0-0.05 0.31-1.69-0.21-2.82-0.98-3.59-2.16 0.1-1.75 0.15-3.59 0.15-5.29 0-3.03-0.1-6.06-0.26-9.29l-0.21-5.75 0.41-0.77c0.1-0.15 0.26-0.36 0.21-0.98 1.08-0.26 1.64-0.41 2.41-0.51l0.87-0.1 0.26 0.26c0.05 0.05 0.21 0.1 0.77 0.15 1.28 1.33 2.82 2.82 4.21 4.11l1.23 1.13h-0.05c1.28 1.28 2.82 2.72 3.95 4.06l4.52 4.72v-0.05c0.1 0.1 0.1 0.21 0.21 0.31l0.41 0.56z"/>
		<path class="st37" d="m773.13 118.36c0 0.41 0.21 0.98 0.51 1.59l0.21 0.56-0.05-0.05c1.28 2.31 2.57 4.52 3.95 6.78l0.82 1.49v-0.05c2 3.44 3.9 6.83 5.6 10.83 0 0-0.1 0.46-0.15 0.77 0 0.1-0.05 0.36-0.05 0.46-0.62 0.41-1.39 0.77-2.21 0.87-0.87-0.56-1.08-0.67-1.54-0.56l-1.69-3.34-1.03-2.05-0.87-1.75h-1.59c-3.29 0-7.19 0.1-10.68 0.21-0.77 1.08-1.08 1.64-1.44 2.31-0.92 1.75-1.18 2.16-1.44 2.52-0.36 0.41-0.62 0.77-1.13 1.8h0.05c-0.15 0.36-0.36 0.77-0.87 1.18-1.54 0.21-2.67-1.08-3.34-2.05l0.41-0.98c0.26-0.62 0.51-1.23 1.18-1.69l-0.05 0.1c2.36-4.31 4.98-8.78 7.6-13.09l1.75-2.77-0.05 0.05c0.15-0.36 0.41-0.67 0.51-1.03v0.05c0-0.05 0.05-0.05 0.05-0.15 0-0.05 0.15 0.41-0.1-1.13 0.31 0.1 1.08-0.36 0.98-0.56 0.15-0.26 0.31-0.41 0.46-0.41 0-0.15 0.05-0.26 0.15-0.56l0.62-0.1c0.41-0.15 0.92-0.26 1.54-0.26s1.23 0.15 1.85 0.62zm-5.7 10.94c1.49-0.36 3.9 0.31 5.13 0h1.44c-0.77-1.64-1.49-3.18-2.41-4.83l-0.77-1.23c-0.51 0.98-1.18 2.16-1.85 3.23v-0.05c-0.21 0.36-0.51 0.77-0.72 1.18z"/>
	</g>
</g>
</svg>
