<?xml version="1.0" encoding="UTF-8" standalone="no"?>
<svg
   xmlns:dc="http://purl.org/dc/elements/1.1/"
   xmlns:cc="http://creativecommons.org/ns#"
   xmlns:rdf="http://www.w3.org/1999/02/22-rdf-syntax-ns#"
   xmlns:svg="http://www.w3.org/2000/svg"
   xmlns="http://www.w3.org/2000/svg"
   xmlns:xlink="http://www.w3.org/1999/xlink"
   xmlns:sodipodi="http://sodipodi.sourceforge.net/DTD/sodipodi-0.dtd"
   xmlns:inkscape="http://www.inkscape.org/namespaces/inkscape"
   inkscape:version="1.0 (4035a4fb49, 2020-05-01)"
   sodipodi:docname="restiamoaperti-mobile.svg"
   id="svg377"
   xml:space="preserve"
   viewBox="0 0 1031.6 156.32"
   version="1.1"
   height="156.32"
   width="1031.6"><metadata
   id="metadata383"><rdf:RDF><cc:Work
       rdf:about=""><dc:format>image/svg+xml</dc:format><dc:type
         rdf:resource="http://purl.org/dc/dcmitype/StillImage" /><dc:title></dc:title></cc:Work></rdf:RDF></metadata><defs
   id="defs381"><filter
     id="filter1573"
     inkscape:label="Roughen"
     style="color-interpolation-filters:sRGB;"><feTurbulence
       id="feTurbulence1569"
       result="turbulence"
       baseFrequency="3.99421 3.03584"
       seed="88"
       numOctaves="1"
       type="fractalNoise" /><feDisplacementMap
       id="feDisplacementMap1571"
       xChannelSelector="R"
       yChannelSelector="G"
       scale="0.299401"
       in2="turbulence"
       in="SourceGraphic" /></filter></defs><sodipodi:namedview
   inkscape:current-layer="svg377"
   inkscape:window-maximized="1"
   inkscape:window-y="-9"
   inkscape:window-x="-9"
   inkscape:cy="175.12076"
   inkscape:cx="204.86639"
   inkscape:zoom="0.52025403"
   showgrid="false"
   id="namedview379"
   inkscape:window-height="1001"
   inkscape:window-width="1920"
   inkscape:pageshadow="2"
   inkscape:pageopacity="0"
   guidetolerance="10"
   gridtolerance="10"
   objecttolerance="10"
   borderopacity="1"
   bordercolor="#666666"
   pagecolor="#ffffff" />
<style
   id="style2"
   type="text/css">
	.st0{fill:url(#SVGID_1_);}
	.st1{fill:#DAD0C9;}
	.st2{clip-path:url(#SVGID_3_);}
	.st3{fill:#E0DFDF;}
	.st4{clip-path:url(#SVGID_5_);}
	.st5{clip-path:url(#SVGID_7_);}
	.st6{fill:#ABD3E0;}
	.st7{clip-path:url(#SVGID_9_);}
	.st8{clip-path:url(#SVGID_11_);}
	.st9{fill:#CDECB0;}
	.st10{clip-path:url(#SVGID_13_);}
	.st11{clip-path:url(#SVGID_15_);}
	.st12{clip-path:url(#SVGID_17_);}
	.st13{clip-path:url(#SVGID_19_);}
	.st14{clip-path:url(#SVGID_21_);}
	.st15{clip-path:url(#SVGID_23_);}
	.st16{fill:#FFFFFF;}
	.st17{clip-path:url(#SVGID_25_);}
	.st18{clip-path:url(#SVGID_27_);}
	.st19{clip-path:url(#SVGID_29_);}
	.st20{clip-path:url(#SVGID_31_);}
	.st21{clip-path:url(#SVGID_33_);}
	.st22{clip-path:url(#SVGID_35_);}
	.st23{clip-path:url(#SVGID_37_);}
	.st24{clip-path:url(#SVGID_39_);}
	.st25{clip-path:url(#SVGID_41_);}
	.st26{clip-path:url(#SVGID_43_);}
	.st27{clip-path:url(#SVGID_45_);}
	.st28{clip-path:url(#SVGID_47_);}
	.st29{fill:#FCD6A5;}
	.st30{clip-path:url(#SVGID_49_);}
	.st31{clip-path:url(#SVGID_51_);fill:#E0DFDF;}
	.st32{clip-path:url(#SVGID_53_);fill:#FCD6A5;}
	.st33{clip-path:url(#SVGID_55_);}
	.st34{fill:#F12A2A;}
	.st35{fill:#009A00;}
	.st36{fill:#FFC900;}
	.st37{fill:#0060B1;}
</style>
<g
   id="g375"
   transform="translate(-86.57,-342.34)"><g
   style="font-style:normal;font-variant:normal;font-weight:normal;font-stretch:normal;font-size:39.5108px;line-height:1.25;font-family:'Bebas Neue';-inkscape-font-specification:'Bebas Neue';letter-spacing:0px;word-spacing:0px;fill:#0060b1;fill-opacity:1;stroke:none;stroke-width:4.93886;filter:url(#filter1573)"
   id="text1260"
   aria-label="I NEGOZI APERTI DURANTE IL LOCKDOWN"><path
     id="path1262"
     style="font-style:normal;font-variant:normal;font-weight:normal;font-stretch:normal;font-family:Jellee;-inkscape-font-specification:Jellee;stroke-width:4.93886;fill:#0060b1;fill-opacity:1"
     d="m 283.74026,487.09975 q -1.0225,0 -1.89066,-0.5016 -0.86815,-0.52089 -1.38905,-1.38905 -0.5016,-0.86816 -0.5016,-1.89065 v -22.88077 q 0,-1.04179 0.5016,-1.90994 0.5209,-0.86816 1.38905,-1.36976 0.86816,-0.5209 1.89066,-0.5209 1.04178,0 1.90994,0.5209 0.86816,0.5016 1.36976,1.36976 0.5209,0.86815 0.5209,1.90994 v 22.88077 q 0,1.02249 -0.5209,1.89065 -0.5016,0.86816 -1.36976,1.38905 -0.86816,0.5016 -1.90994,0.5016 z" /><path
     id="path1264"
     style="font-style:normal;font-variant:normal;font-weight:normal;font-stretch:normal;font-family:Jellee;-inkscape-font-specification:Jellee;stroke-width:4.93886;fill:#0060b1;fill-opacity:1"
     d="m 305.11622,487.09975 q -0.96462,0 -1.7749,-0.46301 -0.81028,-0.48231 -1.29259,-1.2733 -0.46302,-0.81028 -0.46302,-1.73631 v -21.83898 q 0,-1.38905 0.69453,-2.56589 0.69452,-1.19613 1.87136,-1.89065 1.17683,-0.69453 2.58518,-0.69453 1.35046,0 2.5273,0.69453 1.17683,0.67523 1.85207,1.79419 l 7.90987,13.11882 q 0.42444,0.69453 0.75241,1.36976 0.32797,0.65594 0.94532,2.0257 h 0.19293 v -15.54966 q 0,-0.94533 0.46302,-1.73632 0.46301,-0.79098 1.254,-1.254 0.81028,-0.46302 1.75561,-0.46302 0.92603,0 1.71702,0.46302 0.79099,0.46302 1.254,1.254 0.46302,0.79099 0.46302,1.73632 v 22.20553 q 0,1.29259 -0.65594,2.41155 -0.63665,1.09967 -1.75561,1.75561 -1.09966,0.63664 -2.39225,0.63664 -1.31188,0 -2.43084,-0.61735 -1.09967,-0.63665 -1.73632,-1.69773 l -8.29572,-13.6783 q -0.65594,-1.08037 -1.04179,-1.81348 -0.36656,-0.75241 -0.73311,-1.65915 h -0.19292 v 15.99339 q 0,0.92603 -0.48231,1.73631 -0.46302,0.79099 -1.2733,1.2733 -0.79099,0.46301 -1.71702,0.46301 z" /><path
     id="path1266"
     style="font-style:normal;font-variant:normal;font-weight:normal;font-stretch:normal;font-family:Jellee;-inkscape-font-specification:Jellee;stroke-width:4.93886;fill:#0060b1;fill-opacity:1"
     d="m 335.2895,486.79108 q -1.63985,0 -2.50801,-0.84887 -0.86815,-0.86816 -0.86815,-2.50801 v -23.11227 q 0,-1.63985 0.86815,-2.48872 0.86816,-0.86816 2.50801,-0.86816 h 14.52717 q 0.81028,0 1.5048,0.42444 0.71382,0.40514 1.11896,1.11895 0.42443,0.69453 0.42443,1.54339 0,0.81028 -0.42443,1.50481 -0.40514,0.69453 -1.11896,1.11896 -0.69452,0.40514 -1.5048,0.40514 h -10.3793 v 5.80701 h 8.56581 q 0.79099,0 1.46622,0.40514 0.69453,0.40514 1.09967,1.09966 0.40514,0.67523 0.40514,1.46622 0,0.81028 -0.40514,1.50481 -0.40514,0.69452 -1.09967,1.09966 -0.67523,0.40514 -1.46622,0.40514 h -8.56581 v 5.80701 h 11.17028 q 0.81028,0 1.50481,0.42443 0.71382,0.40514 1.11896,1.09967 0.42443,0.69453 0.42443,1.50481 0,0.82957 -0.42443,1.54339 -0.40514,0.71381 -1.11896,1.13825 -0.69453,0.40514 -1.50481,0.40514 z" /><path
     id="path1268"
     style="font-style:normal;font-variant:normal;font-weight:normal;font-stretch:normal;font-family:Jellee;-inkscape-font-specification:Jellee;stroke-width:4.93886;fill:#0060b1;fill-opacity:1"
     d="m 368.20231,487.42773 q -3.87777,0 -6.8488,-1.7749 -2.95173,-1.7749 -4.61088,-5.18965 -1.65914,-3.43405 -1.65914,-8.21856 0,-4.90026 1.87136,-8.48865 1.87136,-3.60767 5.20894,-5.51762 3.33758,-1.90995 7.65908,-1.90995 3.51121,0 6.13497,1.15755 2.62377,1.15754 4.34079,3.22183 0.36656,0.44372 0.55948,1.04178 0.19292,0.59807 0.19292,1.21542 0,0.92604 -0.48231,1.73632 -0.46301,0.79099 -1.27329,1.2733 -0.79099,0.46301 -1.71703,0.46301 -0.96461,0 -1.77489,-0.48231 -0.81028,-0.5016 -1.2733,-1.29259 -0.73311,-1.29259 -1.87136,-1.94853 -1.13825,-0.65594 -2.83598,-0.65594 -1.94853,0 -3.51122,1.0225 -1.56268,1.02249 -2.48871,3.20253 -0.90675,2.18004 -0.90675,5.49833 0,3.33759 0.92604,5.53692 0.92603,2.19933 2.46942,3.26041 1.54339,1.04179 3.43405,1.04179 1.98711,0 3.35687,-0.81028 1.38905,-0.81028 2.08358,-2.14146 0.69453,-1.33117 0.69453,-2.85527 v -0.32797 h -4.10928 q -0.69453,0 -1.31188,-0.34726 -0.59807,-0.36656 -0.96462,-0.96462 -0.34727,-0.61736 -0.34727,-1.33118 0,-0.69452 0.34727,-1.29259 0.36655,-0.59806 0.96462,-0.94532 0.61735,-0.36656 1.31188,-0.36656 h 7.65907 q 1.63986,0 2.48872,0.86816 0.86816,0.84886 0.86816,2.48872 v 10.43718 q 0,0.82957 -0.42443,1.54339 -0.40514,0.69452 -1.11896,1.11895 -0.71382,0.40514 -1.54339,0.40514 -1.11896,0 -1.96783,-0.69452 -0.84886,-0.71382 -1.06108,-1.79419 l -0.21221,-1.06108 h -0.19293 q -1.33117,1.96782 -3.20253,2.93244 -1.87136,0.94533 -4.86168,0.94533 z" /><path
     id="path1270"
     style="font-style:normal;font-variant:normal;font-weight:normal;font-stretch:normal;font-family:Jellee;-inkscape-font-specification:Jellee;stroke-width:4.93886;fill:#0060b1;fill-opacity:1"
     d="m 399.99615,487.42773 q -4.53371,0 -7.83271,-1.90995 -3.299,-1.92924 -5.0546,-5.44045 -1.73632,-3.53051 -1.73632,-8.21856 0,-4.64946 1.7749,-8.16068 1.7749,-3.51121 5.09319,-5.44045 3.31829,-1.92924 7.83271,-1.92924 4.53371,0 7.83271,1.92924 3.29899,1.90995 5.03531,5.42116 1.7556,3.49192 1.7556,8.17997 0,4.68805 -1.77489,8.19927 -1.75561,3.51121 -5.09319,5.44045 -3.31829,1.92924 -7.83271,1.92924 z m 0.0386,-6.01923 q 1.96783,0 3.45334,-1.0032 1.50481,-1.00321 2.35367,-3.14466 0.86816,-2.14145 0.86816,-5.40187 0,-3.26041 -0.86816,-5.38257 -0.84886,-2.14146 -2.35367,-3.14466 -1.48551,-1.0032 -3.45334,-1.0032 -1.96782,0 -3.47262,1.0032 -1.48552,1.0032 -2.35368,3.14466 -0.84886,2.12216 -0.84886,5.38257 0,3.26042 0.84886,5.40187 0.86816,2.14145 2.35368,3.14466 1.5048,1.0032 3.47262,1.0032 z" /><path
     id="path1272"
     style="font-style:normal;font-variant:normal;font-weight:normal;font-stretch:normal;font-family:Jellee;-inkscape-font-specification:Jellee;stroke-width:4.93886;fill:#0060b1;fill-opacity:1"
     d="m 418.74834,486.79108 q -0.84886,0 -1.56268,-0.40514 -0.71382,-0.42444 -1.13825,-1.13825 -0.42443,-0.73311 -0.42443,-1.58198 0,-1.08037 0.57877,-1.85207 l 13.98698,-18.84866 H 419.3657 q -0.81028,0 -1.50481,-0.40514 -0.67523,-0.40514 -1.08037,-1.09966 -0.40514,-0.69453 -0.40514,-1.50481 0,-0.81028 0.40514,-1.48551 0.40514,-0.69453 1.08037,-1.09967 0.69453,-0.40514 1.50481,-0.40514 h 17.26668 q 0.86816,0 1.60127,0.44373 0.7524,0.44372 1.19613,1.19613 0.44372,0.73311 0.44372,1.60126 0,0.54019 -0.17363,1.04179 -0.15434,0.5016 -0.46302,0.88745 l -13.89051,18.65574 h 11.99986 q 0.81028,0 1.50481,0.40514 0.69452,0.40514 1.09966,1.09966 0.40514,0.67523 0.40514,1.48551 0,0.81029 -0.40514,1.50481 -0.40514,0.69453 -1.09966,1.09967 -0.69453,0.40514 -1.50481,0.40514 z" /><path
     id="path1274"
     style="font-style:normal;font-variant:normal;font-weight:normal;font-stretch:normal;font-family:Jellee;-inkscape-font-specification:Jellee;stroke-width:4.93886;fill:#0060b1;fill-opacity:1"
     d="m 446.95382,487.09975 q -1.0225,0 -1.89066,-0.5016 -0.86815,-0.52089 -1.38905,-1.38905 -0.5016,-0.86816 -0.5016,-1.89065 v -22.88077 q 0,-1.04179 0.5016,-1.90994 0.5209,-0.86816 1.38905,-1.36976 0.86816,-0.5209 1.89066,-0.5209 1.04179,0 1.90994,0.5209 0.86816,0.5016 1.36976,1.36976 0.5209,0.86815 0.5209,1.90994 v 22.88077 q 0,1.02249 -0.5209,1.89065 -0.5016,0.86816 -1.36976,1.38905 -0.86815,0.5016 -1.90994,0.5016 z" /><path
     id="path1276"
     style="font-style:normal;font-variant:normal;font-weight:normal;font-stretch:normal;font-family:Jellee;-inkscape-font-specification:Jellee;stroke-width:4.93886;fill:#0060b1;fill-opacity:1"
     d="m 466.78638,487.09975 q -0.98391,0 -1.81348,-0.4823 -0.81028,-0.48231 -1.29259,-1.31189 -0.48231,-0.82957 -0.48231,-1.79419 0,-0.54019 0.19292,-1.17683 l 7.42757,-21.51101 q 0.63665,-1.87136 2.2765,-3.0289 1.63985,-1.15755 3.8006,-1.15755 2.16075,0 3.8006,1.15755 1.65914,1.15754 2.29579,3.0289 l 7.42757,21.51101 q 0.19292,0.63664 0.19292,1.17683 0,0.96462 -0.48231,1.79419 -0.48231,0.82958 -1.31188,1.31189 -0.82957,0.4823 -1.81348,0.4823 -1.19613,0 -2.16075,-0.69452 -0.94533,-0.71382 -1.2733,-1.79419 l -1.29259,-4.14786 h -10.74585 l -1.31189,4.14786 q -0.32797,1.08037 -1.29259,1.79419 -0.94532,0.69452 -2.14145,0.69452 z m 6.598,-12.48217 h 7.02242 l -1.89065,-6.03851 q -0.21222,-0.63665 -0.65594,-2.25721 -0.44373,-1.62056 -0.73311,-2.75881 h -0.46302 q -0.23151,0.94532 -0.69453,2.66235 -0.46301,1.69773 -0.69452,2.35367 z" /><path
     id="path1278"
     style="font-style:normal;font-variant:normal;font-weight:normal;font-stretch:normal;font-family:Jellee;-inkscape-font-specification:Jellee;stroke-width:4.93886;fill:#0060b1;fill-opacity:1"
     d="m 496.92108,487.09975 q -1.0225,0 -1.90995,-0.5016 -0.86816,-0.52089 -1.38905,-1.38905 -0.5016,-0.86816 -0.5016,-1.89065 v -22.99652 q 0,-1.63985 0.86815,-2.48872 0.86816,-0.86816 2.50801,-0.86816 h 8.83592 q 3.43404,0 6.0578,1.21542 2.64306,1.19613 4.08999,3.53051 1.46622,2.31509 1.46622,5.55621 0,3.16395 -1.44693,5.51762 -1.42763,2.35367 -4.07069,3.62696 -2.62377,1.25401 -6.13498,1.25401 h -4.57229 v 5.65267 q 0,1.02249 -0.5209,1.89065 -0.5016,0.86816 -1.36976,1.38905 -0.86815,0.5016 -1.90994,0.5016 z m 7.31181,-15.24098 q 2.45013,0 3.83918,-1.06108 1.40835,-1.08037 1.40835,-3.41475 0,-2.35367 -1.40835,-3.47263 -1.38905,-1.13825 -3.8006,-1.13825 h -3.54979 v 9.08671 z" /><path
     id="path1280"
     style="font-style:normal;font-variant:normal;font-weight:normal;font-stretch:normal;font-family:Jellee;-inkscape-font-specification:Jellee;stroke-width:4.93886;fill:#0060b1;fill-opacity:1"
     d="m 523.12013,486.79108 q -1.63985,0 -2.50801,-0.84887 -0.86815,-0.86816 -0.86815,-2.50801 v -23.11227 q 0,-1.63985 0.86815,-2.48872 0.86816,-0.86816 2.50801,-0.86816 h 14.52717 q 0.81028,0 1.5048,0.42444 0.71382,0.40514 1.11896,1.11895 0.42443,0.69453 0.42443,1.54339 0,0.81028 -0.42443,1.50481 -0.40514,0.69453 -1.11896,1.11896 -0.69452,0.40514 -1.5048,0.40514 H 527.268 v 5.80701 h 8.56581 q 0.79099,0 1.46623,0.40514 0.69452,0.40514 1.09966,1.09966 0.40514,0.67523 0.40514,1.46622 0,0.81028 -0.40514,1.50481 -0.40514,0.69452 -1.09966,1.09966 -0.67524,0.40514 -1.46623,0.40514 H 527.268 v 5.80701 h 11.17029 q 0.81028,0 1.5048,0.42443 0.71382,0.40514 1.11896,1.09967 0.42443,0.69453 0.42443,1.50481 0,0.82957 -0.42443,1.54339 -0.40514,0.71381 -1.11896,1.13825 -0.69452,0.40514 -1.5048,0.40514 z" /><path
     id="path1282"
     style="font-style:normal;font-variant:normal;font-weight:normal;font-stretch:normal;font-family:Jellee;-inkscape-font-specification:Jellee;stroke-width:4.93886;fill:#0060b1;fill-opacity:1"
     d="m 548.23881,487.09975 q -1.0225,0 -1.90994,-0.5016 -0.86816,-0.52089 -1.38906,-1.38905 -0.5016,-0.86816 -0.5016,-1.89065 v -22.99652 q 0,-1.63985 0.86816,-2.48872 0.86816,-0.86816 2.50801,-0.86816 h 9.66548 q 3.39546,0 5.88418,1.08038 2.48872,1.06108 3.81989,3.10607 1.33117,2.04499 1.33117,4.93885 0,2.89386 -1.38905,5.0546 -1.38905,2.14146 -3.91635,3.39546 v 0.0772 l 3.72343,7.15748 q 0.42443,0.81028 0.42443,1.69773 0,0.98391 -0.5016,1.83277 -0.48231,0.82958 -1.33117,1.31189 -0.82958,0.4823 -1.83278,0.4823 -1.04179,0 -1.92924,-0.54018 -0.86816,-0.54019 -1.31188,-1.42764 l -4.41796,-8.52723 h -3.99352 v 6.71375 q 0,1.02249 -0.52089,1.89065 -0.50161,0.86816 -1.36976,1.38905 -0.86816,0.5016 -1.90995,0.5016 z m 7.62049,-16.51427 q 2.21863,0 3.53051,-0.86816 1.33117,-0.86816 1.33117,-3.12537 0,-2.31508 -1.31188,-3.18324 -1.31188,-0.86816 -3.5498,-0.86816 h -3.81989 v 8.04493 z" /><path
     id="path1284"
     style="font-style:normal;font-variant:normal;font-weight:normal;font-stretch:normal;font-family:Jellee;-inkscape-font-specification:Jellee;stroke-width:4.93886;fill:#0060b1;fill-opacity:1"
     d="m 582.15482,487.09975 q -1.0225,0 -1.89065,-0.5016 -0.86816,-0.52089 -1.38906,-1.38905 -0.5016,-0.86816 -0.5016,-1.89065 v -20.35347 h -5.69125 q -0.81028,0 -1.50481,-0.40514 -0.69452,-0.40514 -1.09966,-1.09966 -0.40514,-0.69453 -0.40514,-1.50481 0,-0.81028 0.40514,-1.48551 0.40514,-0.69453 1.09966,-1.09967 0.69453,-0.40514 1.50481,-0.40514 h 18.96441 q 0.81028,0 1.48552,0.40514 0.69452,0.40514 1.09966,1.09967 0.40514,0.67523 0.40514,1.48551 0,0.81028 -0.40514,1.50481 -0.40514,0.69452 -1.09966,1.09966 -0.67524,0.40514 -1.48552,0.40514 h -5.69125 v 20.35347 q 0,1.02249 -0.52089,1.89065 -0.50161,0.86816 -1.36976,1.38905 -0.86816,0.5016 -1.90995,0.5016 z" /><path
     id="path1286"
     style="font-style:normal;font-variant:normal;font-weight:normal;font-stretch:normal;font-family:Jellee;-inkscape-font-specification:Jellee;stroke-width:4.93886;fill:#0060b1;fill-opacity:1"
     d="m 600.59835,487.09975 q -1.0225,0 -1.89065,-0.5016 -0.86816,-0.52089 -1.38906,-1.38905 -0.5016,-0.86816 -0.5016,-1.89065 v -22.88077 q 0,-1.04179 0.5016,-1.90994 0.5209,-0.86816 1.38906,-1.36976 0.86815,-0.5209 1.89065,-0.5209 1.04179,0 1.90994,0.5209 0.86816,0.5016 1.36976,1.36976 0.5209,0.86815 0.5209,1.90994 v 22.88077 q 0,1.02249 -0.5209,1.89065 -0.5016,0.86816 -1.36976,1.38905 -0.86815,0.5016 -1.90994,0.5016 z" /><path
     id="path1288"
     style="font-style:normal;font-variant:normal;font-weight:normal;font-stretch:normal;font-family:Jellee;-inkscape-font-specification:Jellee;stroke-width:4.93886;fill:#0060b1;fill-opacity:1"
     d="m 621.81996,486.79108 q -1.63985,0 -2.50801,-0.84887 -0.86815,-0.86816 -0.86815,-2.50801 v -23.11227 q 0,-1.63985 0.86815,-2.48872 0.86816,-0.86816 2.50801,-0.86816 h 6.86809 q 4.61088,0 8.23785,1.50481 3.64626,1.48551 5.80701,4.82309 2.16074,3.31829 2.16074,8.52724 0,4.90026 -1.96782,8.25714 -1.94853,3.35687 -5.59479,5.03531 -3.62697,1.67844 -8.64299,1.67844 z m 6.86809,-5.99993 q 2.62377,0 4.43725,-0.82958 1.83278,-0.82957 2.85527,-2.83598 1.04179,-2.0064 1.04179,-5.42116 0,-4.64946 -2.14145,-6.71375 -2.12217,-2.06428 -6.19286,-2.06428 h -2.72022 v 17.86475 z" /><path
     id="path1290"
     style="font-style:normal;font-variant:normal;font-weight:normal;font-stretch:normal;font-family:Jellee;-inkscape-font-specification:Jellee;stroke-width:4.93886;fill:#0060b1;fill-opacity:1"
     d="m 660.28898,487.42773 q -6.69445,0 -9.6076,-3.16396 -2.91315,-3.18324 -2.91315,-8.8552 v -14.97089 q 0,-1.04179 0.5016,-1.90994 0.52089,-0.86816 1.38905,-1.36976 0.88745,-0.5209 1.94853,-0.5209 1.0225,0 1.89065,0.5209 0.86816,0.5016 1.36976,1.36976 0.5209,0.86815 0.5209,1.90994 v 15.2024 q 0,2.60447 1.17683,4.0514 1.17684,1.44693 3.68485,1.44693 2.46942,0 3.64626,-1.46622 1.17683,-1.48552 1.17683,-4.03211 V 460.3991 q 0,-1.0225 0.50161,-1.87136 0.52089,-0.86816 1.36975,-1.36976 0.86816,-0.5209 1.89066,-0.5209 1.02249,0 1.89065,0.5209 0.86816,0.5016 1.36976,1.36976 0.5209,0.84886 0.5209,1.87136 v 15.00947 q 0,5.5755 -2.91315,8.79733 -2.91315,3.22183 -9.41469,3.22183 z" /><path
     id="path1292"
     style="font-style:normal;font-variant:normal;font-weight:normal;font-stretch:normal;font-family:Jellee;-inkscape-font-specification:Jellee;stroke-width:4.93886;fill:#0060b1;fill-opacity:1"
     d="m 680.27589,487.09975 q -1.0225,0 -1.90995,-0.5016 -0.86815,-0.52089 -1.38905,-1.38905 -0.5016,-0.86816 -0.5016,-1.89065 v -22.99652 q 0,-1.63985 0.86816,-2.48872 0.86815,-0.86816 2.50801,-0.86816 h 9.66548 q 3.39546,0 5.88418,1.08038 2.48872,1.06108 3.81989,3.10607 1.33117,2.04499 1.33117,4.93885 0,2.89386 -1.38905,5.0546 -1.38905,2.14146 -3.91635,3.39546 v 0.0772 l 3.72343,7.15748 q 0.42443,0.81028 0.42443,1.69773 0,0.98391 -0.5016,1.83277 -0.48231,0.82958 -1.33118,1.31189 -0.82957,0.4823 -1.83277,0.4823 -1.04179,0 -1.92924,-0.54018 -0.86816,-0.54019 -1.31188,-1.42764 l -4.41796,-8.52723 h -3.99352 v 6.71375 q 0,1.02249 -0.5209,1.89065 -0.5016,0.86816 -1.36975,1.38905 -0.86816,0.5016 -1.90995,0.5016 z m 7.62049,-16.51427 q 2.21862,0 3.53051,-0.86816 1.33117,-0.86816 1.33117,-3.12537 0,-2.31508 -1.31188,-3.18324 -1.31188,-0.86816 -3.5498,-0.86816 h -3.81989 v 8.04493 z" /><path
     id="path1294"
     style="font-style:normal;font-variant:normal;font-weight:normal;font-stretch:normal;font-family:Jellee;-inkscape-font-specification:Jellee;stroke-width:4.93886;fill:#0060b1;fill-opacity:1"
     d="m 705.70325,487.09975 q -0.98391,0 -1.81348,-0.4823 -0.81028,-0.48231 -1.29259,-1.31189 -0.48231,-0.82957 -0.48231,-1.79419 0,-0.54019 0.19292,-1.17683 l 7.42757,-21.51101 q 0.63665,-1.87136 2.2765,-3.0289 1.63985,-1.15755 3.8006,-1.15755 2.16075,0 3.8006,1.15755 1.65914,1.15754 2.29579,3.0289 l 7.42757,21.51101 q 0.19292,0.63664 0.19292,1.17683 0,0.96462 -0.48231,1.79419 -0.48231,0.82958 -1.31188,1.31189 -0.82957,0.4823 -1.81348,0.4823 -1.19613,0 -2.16075,-0.69452 -0.94533,-0.71382 -1.2733,-1.79419 l -1.29259,-4.14786 h -10.74585 l -1.31189,4.14786 q -0.32797,1.08037 -1.29259,1.79419 -0.94532,0.69452 -2.14145,0.69452 z m 6.598,-12.48217 h 7.02242 l -1.89065,-6.03851 q -0.21222,-0.63665 -0.65594,-2.25721 -0.44373,-1.62056 -0.73311,-2.75881 h -0.46302 q -0.23151,0.94532 -0.69453,2.66235 -0.46301,1.69773 -0.69452,2.35367 z" /><path
     id="path1296"
     style="font-style:normal;font-variant:normal;font-weight:normal;font-stretch:normal;font-family:Jellee;-inkscape-font-specification:Jellee;stroke-width:4.93886;fill:#0060b1;fill-opacity:1"
     d="m 735.56787,487.09975 q -0.96462,0 -1.7749,-0.46301 -0.81028,-0.48231 -1.29259,-1.2733 -0.46302,-0.81028 -0.46302,-1.73631 v -21.83898 q 0,-1.38905 0.69453,-2.56589 0.69452,-1.19613 1.87136,-1.89065 1.17684,-0.69453 2.58518,-0.69453 1.35047,0 2.5273,0.69453 1.17684,0.67523 1.85207,1.79419 l 7.90988,13.11882 q 0.42443,0.69453 0.7524,1.36976 0.32797,0.65594 0.94533,2.0257 h 0.19292 v -15.54966 q 0,-0.94533 0.46302,-1.73632 0.46301,-0.79098 1.254,-1.254 0.81028,-0.46302 1.75561,-0.46302 0.92603,0 1.71702,0.46302 0.79099,0.46302 1.25401,1.254 0.46301,0.79099 0.46301,1.73632 v 22.20553 q 0,1.29259 -0.65594,2.41155 -0.63665,1.09967 -1.7556,1.75561 -1.09967,0.63664 -2.39226,0.63664 -1.31188,0 -2.43084,-0.61735 -1.09967,-0.63665 -1.73631,-1.69773 l -8.29573,-13.6783 q -0.65594,-1.08037 -1.04179,-1.81348 -0.36655,-0.75241 -0.73311,-1.65915 h -0.19292 v 15.99339 q 0,0.92603 -0.48231,1.73631 -0.46302,0.79099 -1.2733,1.2733 -0.79099,0.46301 -1.71702,0.46301 z" /><path
     id="path1298"
     style="font-style:normal;font-variant:normal;font-weight:normal;font-stretch:normal;font-family:Jellee;-inkscape-font-specification:Jellee;stroke-width:4.93886;fill:#0060b1;fill-opacity:1"
     d="m 772.84073,487.09975 q -1.02249,0 -1.89065,-0.5016 -0.86816,-0.52089 -1.38905,-1.38905 -0.5016,-0.86816 -0.5016,-1.89065 v -20.35347 h -5.69126 q -0.81028,0 -1.5048,-0.40514 -0.69453,-0.40514 -1.09967,-1.09966 -0.40514,-0.69453 -0.40514,-1.50481 0,-0.81028 0.40514,-1.48551 0.40514,-0.69453 1.09967,-1.09967 0.69452,-0.40514 1.5048,-0.40514 h 18.96442 q 0.81028,0 1.48551,0.40514 0.69452,0.40514 1.09966,1.09967 0.40514,0.67523 0.40514,1.48551 0,0.81028 -0.40514,1.50481 -0.40514,0.69452 -1.09966,1.09966 -0.67523,0.40514 -1.48551,0.40514 h -5.69126 v 20.35347 q 0,1.02249 -0.52089,1.89065 -0.5016,0.86816 -1.36976,1.38905 -0.86816,0.5016 -1.90995,0.5016 z" /><path
     id="path1300"
     style="font-style:normal;font-variant:normal;font-weight:normal;font-stretch:normal;font-family:Jellee;-inkscape-font-specification:Jellee;stroke-width:4.93886;fill:#0060b1;fill-opacity:1"
     d="m 790.82124,486.79108 q -1.63985,0 -2.508,-0.84887 -0.86816,-0.86816 -0.86816,-2.50801 v -23.11227 q 0,-1.63985 0.86816,-2.48872 0.86815,-0.86816 2.508,-0.86816 h 14.52717 q 0.81028,0 1.5048,0.42444 0.71382,0.40514 1.11896,1.11895 0.42444,0.69453 0.42444,1.54339 0,0.81028 -0.42444,1.50481 -0.40514,0.69453 -1.11896,1.11896 -0.69452,0.40514 -1.5048,0.40514 h -10.3793 v 5.80701 h 8.56582 q 0.79098,0 1.46622,0.40514 0.69452,0.40514 1.09966,1.09966 0.40514,0.67523 0.40514,1.46622 0,0.81028 -0.40514,1.50481 -0.40514,0.69452 -1.09966,1.09966 -0.67524,0.40514 -1.46622,0.40514 h -8.56582 v 5.80701 h 11.17029 q 0.81028,0 1.5048,0.42443 0.71382,0.40514 1.11896,1.09967 0.42443,0.69453 0.42443,1.50481 0,0.82957 -0.42443,1.54339 -0.40514,0.71381 -1.11896,1.13825 -0.69452,0.40514 -1.5048,0.40514 z" /><path
     id="path1302"
     style="font-style:normal;font-variant:normal;font-weight:normal;font-stretch:normal;font-family:Jellee;-inkscape-font-specification:Jellee;stroke-width:4.93886;fill:#0060b1;fill-opacity:1"
     d="m 825.85622,487.09975 q -1.02249,0 -1.89065,-0.5016 -0.86816,-0.52089 -1.38905,-1.38905 -0.5016,-0.86816 -0.5016,-1.89065 v -22.88077 q 0,-1.04179 0.5016,-1.90994 0.52089,-0.86816 1.38905,-1.36976 0.86816,-0.5209 1.89065,-0.5209 1.04179,0 1.90995,0.5209 0.86816,0.5016 1.36976,1.36976 0.52089,0.86815 0.52089,1.90994 v 22.88077 q 0,1.02249 -0.52089,1.89065 -0.5016,0.86816 -1.36976,1.38905 -0.86816,0.5016 -1.90995,0.5016 z" /><path
     id="path1304"
     style="font-style:normal;font-variant:normal;font-weight:normal;font-stretch:normal;font-family:Jellee;-inkscape-font-specification:Jellee;stroke-width:4.93886;fill:#0060b1;fill-opacity:1"
     d="m 837.23874,486.79108 q -1.63986,0 -2.50801,-0.84887 -0.84887,-0.86816 -0.84887,-2.50801 v -22.99652 q 0,-1.04179 0.5016,-1.90994 0.5209,-0.86816 1.38905,-1.36976 0.86816,-0.5209 1.89066,-0.5209 1.04179,0 1.90994,0.5209 0.86816,0.5016 1.36976,1.36976 0.5209,0.86815 0.5209,1.90994 v 20.14125 h 10.41788 q 0.82958,0 1.54339,0.42443 0.71382,0.40514 1.11896,1.11896 0.42444,0.71382 0.42444,1.54339 0,0.84887 -0.42444,1.58198 -0.40514,0.71381 -1.11896,1.13825 -0.71381,0.40514 -1.54339,0.40514 z" /><path
     id="path1306"
     style="font-style:normal;font-variant:normal;font-weight:normal;font-stretch:normal;font-family:Jellee;-inkscape-font-specification:Jellee;stroke-width:4.93886;fill:#0060b1;fill-opacity:1"
     d="m 870.4216,486.79108 q -1.63986,0 -2.50801,-0.84887 -0.84887,-0.86816 -0.84887,-2.50801 v -22.99652 q 0,-1.04179 0.5016,-1.90994 0.5209,-0.86816 1.38906,-1.36976 0.86815,-0.5209 1.89065,-0.5209 1.04179,0 1.90995,0.5209 0.86815,0.5016 1.36975,1.36976 0.5209,0.86815 0.5209,1.90994 v 20.14125 h 10.41789 q 0.82957,0 1.54339,0.42443 0.71381,0.40514 1.11895,1.11896 0.42444,0.71382 0.42444,1.54339 0,0.84887 -0.42444,1.58198 -0.40514,0.71381 -1.11895,1.13825 -0.71382,0.40514 -1.54339,0.40514 z" /><path
     id="path1308"
     style="font-style:normal;font-variant:normal;font-weight:normal;font-stretch:normal;font-family:Jellee;-inkscape-font-specification:Jellee;stroke-width:4.93886;fill:#0060b1;fill-opacity:1"
     d="m 902.98715,487.42773 q -4.53371,0 -7.83271,-1.90995 -3.299,-1.92924 -5.0546,-5.44045 -1.73632,-3.53051 -1.73632,-8.21856 0,-4.64946 1.7749,-8.16068 1.7749,-3.51121 5.09319,-5.44045 3.31829,-1.92924 7.83271,-1.92924 4.53371,0 7.8327,1.92924 3.299,1.90995 5.03532,5.42116 1.7556,3.49192 1.7556,8.17997 0,4.68805 -1.7749,8.19927 -1.7556,3.51121 -5.09319,5.44045 -3.31829,1.92924 -7.8327,1.92924 z m 0.0386,-6.01923 q 1.96782,0 3.45334,-1.0032 1.5048,-1.00321 2.35367,-3.14466 0.86816,-2.14145 0.86816,-5.40187 0,-3.26041 -0.86816,-5.38257 -0.84887,-2.14146 -2.35367,-3.14466 -1.48552,-1.0032 -3.45334,-1.0032 -1.96782,0 -3.47263,1.0032 -1.48551,1.0032 -2.35367,3.14466 -0.84886,2.12216 -0.84886,5.38257 0,3.26042 0.84886,5.40187 0.86816,2.14145 2.35367,3.14466 1.50481,1.0032 3.47263,1.0032 z" /><path
     id="path1310"
     style="font-style:normal;font-variant:normal;font-weight:normal;font-stretch:normal;font-family:Jellee;-inkscape-font-specification:Jellee;stroke-width:4.93886;fill:#0060b1;fill-opacity:1"
     d="m 934.54946,487.42773 q -4.74592,0 -8.02563,-1.83278 -3.2797,-1.85207 -4.93885,-5.26682 -1.65914,-3.43405 -1.65914,-8.19926 0,-4.64947 1.79419,-8.23785 1.79419,-3.58838 5.09319,-5.5755 3.31829,-1.98712 7.73624,-1.98712 3.58839,0 6.32791,1.11896 2.75881,1.09967 4.26361,2.95174 0.57877,0.69452 0.79099,1.35046 0.23151,0.63665 0.23151,1.36976 0,1.00321 -0.48231,1.83278 -0.48231,0.81028 -1.31188,1.29259 -0.82958,0.48231 -1.7942,0.48231 -0.96461,0 -1.79419,-0.46302 -0.81028,-0.48231 -1.33117,-1.2733 -0.82957,-1.31188 -2.0257,-2.0064 -1.19613,-0.69453 -2.87457,-0.69453 -1.92923,0 -3.43404,1.0225 -1.48551,1.0032 -2.35367,3.12536 -0.84887,2.12217 -0.84887,5.34399 0,3.299 0.88745,5.47904 0.88745,2.16075 2.37297,3.18324 1.5048,1.0225 3.37616,1.0225 3.47263,0 5.13178,-3.00961 0.48231,-0.88745 1.33117,-1.40835 0.86816,-0.52089 1.90995,-0.52089 1.0032,0 1.83277,0.5016 0.84887,0.5016 1.35047,1.35047 0.5016,0.84886 0.5016,1.85207 0,0.63665 -0.2508,1.254 -0.2508,0.61736 -0.86816,1.46622 -1.48551,2.045 -4.24432,3.26042 -2.75881,1.21542 -6.69446,1.21542 z" /><path
     id="path1312"
     style="font-style:normal;font-variant:normal;font-weight:normal;font-stretch:normal;font-family:Jellee;-inkscape-font-specification:Jellee;stroke-width:4.93886;fill:#0060b1;fill-opacity:1"
     d="m 953.41742,487.09975 q -1.0032,0 -1.85207,-0.5016 -0.84886,-0.5016 -1.35047,-1.35046 -0.5016,-0.84887 -0.5016,-1.85207 v -23.03511 q 0,-1.02249 0.5016,-1.87136 0.50161,-0.84886 1.35047,-1.35047 0.84887,-0.5016 1.85207,-0.5016 1.04179,0 1.89065,0.5016 0.86816,0.50161 1.36976,1.35047 0.5016,0.84887 0.5016,1.87136 v 9.68478 l 9.47256,-12.17349 q 0.42444,-0.55948 1.09967,-0.88745 0.67523,-0.34727 1.38905,-0.34727 0.84887,0 1.58198,0.42444 0.73311,0.42443 1.15754,1.15754 0.42443,0.73311 0.42443,1.58197 0,0.55948 -0.19292,1.08038 -0.19293,0.5016 -0.5209,0.90674 l -6.03851,7.50474 7.69766,12.03844 q 0.59806,0.98391 0.59806,2.0257 0,1.0225 -0.5016,1.89066 -0.5016,0.84886 -1.35047,1.35046 -0.84886,0.5016 -1.87136,0.5016 -0.98391,0 -1.85207,-0.46301 -0.86815,-0.48231 -1.35046,-1.2733 l -6.46295,-10.34072 -3.27971,4.03211 v 4.34079 q 0,1.0032 -0.5016,1.85207 -0.5016,0.84886 -1.36976,1.35046 -0.84886,0.5016 -1.89065,0.5016 z" /><path
     id="path1314"
     style="font-style:normal;font-variant:normal;font-weight:normal;font-stretch:normal;font-family:Jellee;-inkscape-font-specification:Jellee;stroke-width:4.93886;fill:#0060b1;fill-opacity:1"
     d="m 979.96376,486.79108 q -1.63985,0 -2.50801,-0.84887 -0.86815,-0.86816 -0.86815,-2.50801 v -23.11227 q 0,-1.63985 0.86815,-2.48872 0.86816,-0.86816 2.50801,-0.86816 h 6.86809 q 4.61088,0 8.23785,1.50481 3.64626,1.48551 5.807,4.82309 2.1608,3.31829 2.1608,8.52724 0,4.90026 -1.9679,8.25714 -1.9485,3.35687 -5.59476,5.03531 -3.62697,1.67844 -8.64299,1.67844 z m 6.86809,-5.99993 q 2.62376,0 4.43725,-0.82958 1.83277,-0.82957 2.85527,-2.83598 1.04179,-2.0064 1.04179,-5.42116 0,-4.64946 -2.14146,-6.71375 -2.12216,-2.06428 -6.19285,-2.06428 h -2.72023 v 17.86475 z" /><path
     id="path1316"
     style="font-style:normal;font-variant:normal;font-weight:normal;font-stretch:normal;font-family:Jellee;-inkscape-font-specification:Jellee;stroke-width:4.93886;fill:#0060b1;fill-opacity:1"
     d="m 1019.8218,487.42773 q -4.5337,0 -7.8327,-1.90995 -3.299,-1.92924 -5.0546,-5.44045 -1.7363,-3.53051 -1.7363,-8.21856 0,-4.64946 1.7749,-8.16068 1.7749,-3.51121 5.0932,-5.44045 3.3183,-1.92924 7.8327,-1.92924 4.5337,0 7.8327,1.92924 3.299,1.90995 5.0353,5.42116 1.7556,3.49192 1.7556,8.17997 0,4.68805 -1.7749,8.19927 -1.7556,3.51121 -5.0932,5.44045 -3.3183,1.92924 -7.8327,1.92924 z m 0.039,-6.01923 q 1.9678,0 3.4533,-1.0032 1.5048,-1.00321 2.3537,-3.14466 0.8682,-2.14145 0.8682,-5.40187 0,-3.26041 -0.8682,-5.38257 -0.8489,-2.14146 -2.3537,-3.14466 -1.4855,-1.0032 -3.4533,-1.0032 -1.9678,0 -3.4726,1.0032 -1.4856,1.0032 -2.3537,3.14466 -0.8489,2.12216 -0.8489,5.38257 0,3.26042 0.8489,5.40187 0.8681,2.14145 2.3537,3.14466 1.5048,1.0032 3.4726,1.0032 z" /><path
     id="path1318"
     style="font-style:normal;font-variant:normal;font-weight:normal;font-stretch:normal;font-family:Jellee;-inkscape-font-specification:Jellee;stroke-width:4.93886;fill:#0060b1;fill-opacity:1"
     d="m 1046.9662,487.09975 q -1.3504,0 -2.5273,-0.57877 -1.1575,-0.57877 -1.9678,-1.58197 -0.8103,-1.00321 -1.0804,-2.25721 l -4.9388,-21.89685 q -0.077,-0.2701 -0.077,-0.82958 0,-0.92603 0.4244,-1.67843 0.4438,-0.7717 1.1769,-1.19613 0.7331,-0.44373 1.6012,-0.44373 1.3312,0 2.2958,0.7717 0.9839,0.77169 1.2155,1.92924 l 4.0321,18.88724 4.7845,-18.5014 q 0.3472,-1.40834 1.4662,-2.23791 1.1382,-0.84887 2.836,-0.84887 1.6977,0 2.8167,0.84887 1.1382,0.82957 1.4855,2.23791 l 4.7845,18.5014 4.0321,-18.88724 q 0.2315,-1.15755 1.1961,-1.92924 0.9839,-0.7717 2.3151,-0.7717 0.8682,0 1.6013,0.44373 0.7331,0.42443 1.1575,1.19613 0.4437,0.7524 0.4437,1.67843 0,0.55948 -0.077,0.82958 l -4.9389,21.89685 q -0.2701,1.254 -1.0803,2.25721 -0.8103,1.0032 -1.9872,1.58197 -1.1575,0.57877 -2.508,0.57877 -1.3119,0 -2.4694,-0.54018 -1.1382,-0.55948 -1.9485,-1.5241 -0.8103,-0.96462 -1.119,-2.19933 l -3.7041,-14.66221 -3.7235,14.66221 q -0.3086,1.23471 -1.1189,2.19933 -0.791,0.96462 -1.9485,1.5241 -1.1383,0.54018 -2.4502,0.54018 z" /><path
     id="path1320"
     style="font-style:normal;font-variant:normal;font-weight:normal;font-stretch:normal;font-family:Jellee;-inkscape-font-specification:Jellee;stroke-width:4.93886;fill:#0060b1;fill-opacity:1"
     d="m 1082.3677,487.09975 q -0.9646,0 -1.7749,-0.46301 -0.8102,-0.48231 -1.2926,-1.2733 -0.463,-0.81028 -0.463,-1.73631 v -21.83898 q 0,-1.38905 0.6946,-2.56589 0.6945,-1.19613 1.8713,-1.89065 1.1769,-0.69453 2.5852,-0.69453 1.3505,0 2.5273,0.69453 1.1768,0.67523 1.8521,1.79419 l 7.9098,13.11882 q 0.4245,0.69453 0.7524,1.36976 0.328,0.65594 0.9454,2.0257 h 0.1929 v -15.54966 q 0,-0.94533 0.463,-1.73632 0.463,-0.79098 1.254,-1.254 0.8103,-0.46302 1.7556,-0.46302 0.9261,0 1.717,0.46302 0.791,0.46302 1.2541,1.254 0.463,0.79099 0.463,1.73632 v 22.20553 q 0,1.29259 -0.656,2.41155 -0.6366,1.09967 -1.7556,1.75561 -1.0996,0.63664 -2.3922,0.63664 -1.3119,0 -2.4309,-0.61735 -1.0996,-0.63665 -1.7363,-1.69773 l -8.2957,-13.6783 q -0.656,-1.08037 -1.0418,-1.81348 -0.3666,-0.75241 -0.7331,-1.65915 h -0.1929 v 15.99339 q 0,0.92603 -0.4823,1.73631 -0.4631,0.79099 -1.2733,1.2733 -0.791,0.46301 -1.7171,0.46301 z" /></g>
	
		
			
				<linearGradient
   gradientUnits="userSpaceOnUse"
   gradientTransform="translate(0 -1286.6)"
   y2="1773.1"
   y1="1773.1"
   x2="239.89"
   x1="87.278"
   id="SVGID_1_">
				<stop
   id="stop4"
   offset="0"
   stop-color="#E0DFDF" />
				<stop
   id="stop6"
   offset=".0539"
   stop-color="#DAD0C9" />
				<stop
   id="stop8"
   offset=".128"
   stop-color="#E0DFDF" />
				<stop
   id="stop10"
   offset=".8798"
   stop-color="#E0DFDF" />
				<stop
   id="stop12"
   offset=".9445"
   stop-color="#DAD0C9" />
				<stop
   id="stop14"
   offset="1"
   stop-color="#E0DFDF" />
			</linearGradient>
			<path
   id="path17"
   fill="url(#SVGID_1_)"
   d="m239.89 474.27h-152.61v16.79c0.18 4.33 6.1 7.6 14.4 7.6h123.98c8.4 0 14.14-3.27 14.23-7.6z"
   class="st0" />
			
				
					
						<path
   id="path19"
   fill="#dad0c9"
   d="m226.28 482.14h-125.4c-8.93 0-14.93-4.24-13.34-9.46l21.83-73.08c1.5-5.3 7.51-9.54 13.43-9.54l81.92 0.27c5.83 0 11.84 4.33 13.34 9.46l21.65 72.82c1.6 5.2-4.41 9.53-13.43 9.53z"
   class="st1" />
						
							
								
									
										
											<defs
   id="defs22">
												<path
   d="m226.28 482.14h-125.4c-8.93 0-14.93-4.24-13.34-9.46l21.83-73.08c1.5-5.3 7.51-9.54 13.43-9.54l81.92 0.27c5.83 0 11.84 4.33 13.34 9.46l21.65 72.82c1.6 5.2-4.41 9.53-13.43 9.53z"
   id="SVGID_2_" />
											</defs>
											<clipPath
   id="SVGID_3_">
												<use
   id="use24"
   xlink:href="#SVGID_2_"
   height="100%"
   width="100%" />
											</clipPath>
											<g
   id="g29"
   clip-path="url(#SVGID_3_)"
   class="st2">
												<polygon
   id="polygon27"
   fill="#e0dfdf"
   points="161.6 428.94 122.45 430.26 106.1 419.75 106.28 417.45 162.22 408.53"
   class="st3" />
											</g>
										
									
								
							
							
								
									
										
											<defs
   id="defs32">
												<path
   d="m226.28 482.14h-125.4c-8.93 0-14.93-4.24-13.34-9.46l21.83-73.08c1.5-5.3 7.51-9.54 13.43-9.54l81.92 0.27c5.83 0 11.84 4.33 13.34 9.46l21.65 72.82c1.6 5.2-4.41 9.53-13.43 9.53z"
   id="SVGID_4_" />
											</defs>
											<clipPath
   id="SVGID_5_">
												<use
   id="use34"
   xlink:href="#SVGID_4_"
   height="100%"
   width="100%" />
											</clipPath>
											<g
   id="g39"
   clip-path="url(#SVGID_5_)"
   class="st4">
												<polygon
   id="polygon37"
   fill="#e0dfdf"
   points="227.26 457.13 243.34 455.8 233 429.12 213.65 439.63"
   class="st3" />
											</g>
										
									
								
							
							
								
									
										
											<defs
   id="defs42">
												<path
   d="m226.28 482.14h-125.4c-8.93 0-14.93-4.24-13.34-9.46l21.83-73.08c1.5-5.3 7.51-9.54 13.43-9.54l81.92 0.27c5.83 0 11.84 4.33 13.34 9.46l21.65 72.82c1.6 5.2-4.41 9.53-13.43 9.53z"
   id="SVGID_6_" />
											</defs>
											<clipPath
   id="SVGID_7_">
												<use
   id="use44"
   xlink:href="#SVGID_6_"
   height="100%"
   width="100%" />
											</clipPath>
											<g
   id="g49"
   clip-path="url(#SVGID_7_)"
   class="st5">
												<polygon
   id="polygon47"
   fill="#abd3e0"
   points="170.79 463.76 187.93 487.79 163.89 485.14 163.98 462.7"
   class="st6" />
											</g>
										
									
								
							
							
								
									
										
											<defs
   id="defs52">
												<path
   d="m226.28 482.14h-125.4c-8.93 0-14.93-4.24-13.34-9.46l21.83-73.08c1.5-5.3 7.51-9.54 13.43-9.54l81.92 0.27c5.83 0 11.84 4.33 13.34 9.46l21.65 72.82c1.6 5.2-4.41 9.53-13.43 9.53z"
   id="SVGID_8_" />
											</defs>
											<clipPath
   id="SVGID_9_">
												<use
   id="use54"
   xlink:href="#SVGID_8_"
   height="100%"
   width="100%" />
											</clipPath>
											<g
   id="g59"
   clip-path="url(#SVGID_9_)"
   class="st7">
												<polygon
   id="polygon57"
   fill="#abd3e0"
   points="100.97 455.27 129.87 455.36 125.63 484.08 93.2 484.08"
   class="st6" />
											</g>
										
									
								
							
							
								
									
										
											<defs
   id="defs62">
												<path
   d="m226.28 482.14h-125.4c-8.93 0-14.93-4.24-13.34-9.46l21.83-73.08c1.5-5.3 7.51-9.54 13.43-9.54l81.92 0.27c5.83 0 11.84 4.33 13.34 9.46l21.65 72.82c1.6 5.2-4.41 9.53-13.43 9.53z"
   id="SVGID_10_" />
											</defs>
											<clipPath
   id="SVGID_11_">
												<use
   id="use64"
   xlink:href="#SVGID_10_"
   height="100%"
   width="100%" />
											</clipPath>
											<g
   id="g69"
   clip-path="url(#SVGID_11_)"
   class="st8">
												<polygon
   id="polygon67"
   fill="#cdecb0"
   points="188.37 415.15 186.78 381.57 162.83 381.48 163.98 413.21"
   class="st9" />
											</g>
										
									
								
							
							
								
									
										
											<defs
   id="defs72">
												<path
   d="m226.28 482.14h-125.4c-8.93 0-14.93-4.24-13.34-9.46l21.83-73.08c1.5-5.3 7.51-9.54 13.43-9.54l81.92 0.27c5.83 0 11.84 4.33 13.34 9.46l21.65 72.82c1.6 5.2-4.41 9.53-13.43 9.53z"
   id="SVGID_12_" />
											</defs>
											<clipPath
   id="SVGID_13_">
												<use
   id="use74"
   xlink:href="#SVGID_12_"
   height="100%"
   width="100%" />
											</clipPath>
											<g
   id="g79"
   clip-path="url(#SVGID_13_)"
   class="st10">
												<polygon
   id="polygon77"
   fill="#cdecb0"
   points="215.41 411 229.38 423.37 216.21 389.7 205.34 402.43"
   class="st9" />
											</g>
										
									
								
							
							
								
									
										
											<defs
   id="defs82">
												<path
   d="m226.28 482.14h-125.4c-8.93 0-14.93-4.24-13.34-9.46l21.83-73.08c1.5-5.3 7.51-9.54 13.43-9.54l81.92 0.27c5.83 0 11.84 4.33 13.34 9.46l21.65 72.82c1.6 5.2-4.41 9.53-13.43 9.53z"
   id="SVGID_14_" />
											</defs>
											<clipPath
   id="SVGID_15_">
												<use
   id="use84"
   xlink:href="#SVGID_14_"
   height="100%"
   width="100%" />
											</clipPath>
											<g
   id="g89"
   clip-path="url(#SVGID_15_)"
   class="st11">
												<polygon
   id="polygon87"
   fill="#cdecb0"
   points="175.03 463.05 226.73 485.41 248.2 480.11 237.86 456.42 178.56 456.95"
   class="st9" />
											</g>
										
									
								
							
							
								
									
										
											<defs
   id="defs92">
												<path
   d="m226.28 482.14h-125.4c-8.93 0-14.93-4.24-13.34-9.46l21.83-73.08c1.5-5.3 7.51-9.54 13.43-9.54l81.92 0.27c5.83 0 11.84 4.33 13.34 9.46l21.65 72.82c1.6 5.2-4.41 9.53-13.43 9.53z"
   id="SVGID_16_" />
											</defs>
											<clipPath
   id="SVGID_17_">
												<use
   id="use94"
   xlink:href="#SVGID_16_"
   height="100%"
   width="100%" />
											</clipPath>
											<g
   id="g99"
   clip-path="url(#SVGID_17_)"
   class="st12">
												<polygon
   id="polygon97"
   fill="#abd3e0"
   points="161.68 407.55 90.02 419.13 95.85 399.69 163.36 389.17"
   class="st6" />
											</g>
										
									
								
							
							
								
									
										
											<defs
   id="defs102">
												<path
   d="m226.28 482.14h-125.4c-8.93 0-14.93-4.24-13.34-9.46l21.83-73.08c1.5-5.3 7.51-9.54 13.43-9.54l81.92 0.27c5.83 0 11.84 4.33 13.34 9.46l21.65 72.82c1.6 5.2-4.41 9.53-13.43 9.53z"
   id="SVGID_18_" />
											</defs>
											<clipPath
   id="SVGID_19_">
												<use
   id="use104"
   xlink:href="#SVGID_18_"
   height="100%"
   width="100%" />
											</clipPath>
											<g
   id="g109"
   clip-path="url(#SVGID_19_)"
   class="st13">
												<polygon
   id="polygon107"
   fill="#abd3e0"
   points="228.4 422.22 229.38 431.24 208.43 438.31 190.67 416.66 204.9 401.01"
   class="st6" />
											</g>
										
									
								
							
							
								
									
										
											<defs
   id="defs112">
												<path
   d="m226.28 482.14h-125.4c-8.93 0-14.93-4.24-13.34-9.46l21.83-73.08c1.5-5.3 7.51-9.54 13.43-9.54l81.92 0.27c5.83 0 11.84 4.33 13.34 9.46l21.65 72.82c1.6 5.2-4.41 9.53-13.43 9.53z"
   id="SVGID_20_" />
											</defs>
											<clipPath
   id="SVGID_21_">
												<use
   id="use114"
   xlink:href="#SVGID_20_"
   height="100%"
   width="100%" />
											</clipPath>
											<g
   id="g119"
   clip-path="url(#SVGID_21_)"
   class="st14">
												<polygon
   id="polygon117"
   fill="#cdecb0"
   points="151.26 449.18 144.72 456.33 82.77 455.98 81.98 445.2 121.21 431.59"
   class="st9" />
											</g>
										
									
								
							
							
								
									
										
											<defs
   id="defs122">
												<path
   d="m226.28 482.14h-125.4c-8.93 0-14.93-4.24-13.34-9.46l21.83-73.08c1.5-5.3 7.51-9.54 13.43-9.54l81.92 0.27c5.83 0 11.84 4.33 13.34 9.46l21.65 72.82c1.6 5.2-4.41 9.53-13.43 9.53z"
   id="SVGID_22_" />
											</defs>
											<clipPath
   id="SVGID_23_">
												<use
   id="use124"
   xlink:href="#SVGID_22_"
   height="100%"
   width="100%" />
											</clipPath>
											<g
   id="g129"
   clip-path="url(#SVGID_23_)"
   class="st15">
												<polygon
   id="polygon127"
   fill="#fff"
   points="186.25 383.61 187.75 388.29 98.32 401.99 98.94 397.39"
   class="st16" />
											</g>
										
									
								
							
							
								
									
										
											<defs
   id="defs132">
												<path
   d="m226.28 482.14h-125.4c-8.93 0-14.93-4.24-13.34-9.46l21.83-73.08c1.5-5.3 7.51-9.54 13.43-9.54l81.92 0.27c5.83 0 11.84 4.33 13.34 9.46l21.65 72.82c1.6 5.2-4.41 9.53-13.43 9.53z"
   id="SVGID_24_" />
											</defs>
											<clipPath
   id="SVGID_25_">
												<use
   id="use134"
   xlink:href="#SVGID_24_"
   height="100%"
   width="100%" />
											</clipPath>
											<g
   id="g139"
   clip-path="url(#SVGID_25_)"
   class="st17">
												<polygon
   id="polygon137"
   fill="#fff"
   points="166.1 384.49 167.43 451.65 160.27 451.65 160.98 384.49"
   class="st16" />
											</g>
										
									
								
							
							
								
									
										
											<defs
   id="defs142">
												<path
   d="m226.28 482.14h-125.4c-8.93 0-14.93-4.24-13.34-9.46l21.83-73.08c1.5-5.3 7.51-9.54 13.43-9.54l81.92 0.27c5.83 0 11.84 4.33 13.34 9.46l21.65 72.82c1.6 5.2-4.41 9.53-13.43 9.53z"
   id="SVGID_26_" />
											</defs>
											<clipPath
   id="SVGID_27_">
												<use
   id="use144"
   xlink:href="#SVGID_26_"
   height="100%"
   width="100%" />
											</clipPath>
											<g
   id="g149"
   clip-path="url(#SVGID_27_)"
   class="st18">
												<polygon
   id="polygon147"
   fill="#fff"
   points="184.57 384.14 189.7 384.4 191.91 416.04 232.82 454.92 227.17 457.31 185.9 417.19"
   class="st16" />
											</g>
										
									
								
							
							
								
									
										
											<defs
   id="defs152">
												<path
   d="m226.28 482.14h-125.4c-8.93 0-14.93-4.24-13.34-9.46l21.83-73.08c1.5-5.3 7.51-9.54 13.43-9.54l81.92 0.27c5.83 0 11.84 4.33 13.34 9.46l21.65 72.82c1.6 5.2-4.41 9.53-13.43 9.53z"
   id="SVGID_28_" />
											</defs>
											<clipPath
   id="SVGID_29_">
												<use
   id="use154"
   xlink:href="#SVGID_28_"
   height="100%"
   width="100%" />
											</clipPath>
											<g
   id="g159"
   clip-path="url(#SVGID_29_)"
   class="st19">
												<polygon
   id="polygon157"
   fill="#fff"
   points="172.55 454.04 234.59 454.04 236 458.81 172.73 458.72"
   class="st16" />
											</g>
										
									
								
							
							
								
									
										
											<defs
   id="defs162">
												<path
   d="m226.28 482.14h-125.4c-8.93 0-14.93-4.24-13.34-9.46l21.83-73.08c1.5-5.3 7.51-9.54 13.43-9.54l81.92 0.27c5.83 0 11.84 4.33 13.34 9.46l21.65 72.82c1.6 5.2-4.41 9.53-13.43 9.53z"
   id="SVGID_30_" />
											</defs>
											<clipPath
   id="SVGID_31_">
												<use
   id="use164"
   xlink:href="#SVGID_30_"
   height="100%"
   width="100%" />
											</clipPath>
											<g
   id="g169"
   clip-path="url(#SVGID_31_)"
   class="st20">
												<polygon
   id="polygon167"
   fill="#fff"
   points="164.51 410.91 187.58 414.09 212.85 390.68 217.53 394.12 190.23 419.22 163.45 415.6"
   class="st16" />
											</g>
										
									
								
							
							
								
									
										
											<defs
   id="defs172">
												<path
   d="m226.28 482.14h-125.4c-8.93 0-14.93-4.24-13.34-9.46l21.83-73.08c1.5-5.3 7.51-9.54 13.43-9.54l81.92 0.27c5.83 0 11.84 4.33 13.34 9.46l21.65 72.82c1.6 5.2-4.41 9.53-13.43 9.53z"
   id="SVGID_32_" />
											</defs>
											<clipPath
   id="SVGID_33_">
												<use
   id="use174"
   xlink:href="#SVGID_32_"
   height="100%"
   width="100%" />
											</clipPath>
											<g
   id="g179"
   clip-path="url(#SVGID_33_)"
   class="st21">
												<polygon
   id="polygon177"
   fill="#fff"
   points="209.05 399.34 229.55 419.57 224.87 421.96 204.72 401.81"
   class="st16" />
											</g>
										
									
								
							
							
								
									
										
											<defs
   id="defs182">
												<path
   d="m226.28 482.14h-125.4c-8.93 0-14.93-4.24-13.34-9.46l21.83-73.08c1.5-5.3 7.51-9.54 13.43-9.54l81.92 0.27c5.83 0 11.84 4.33 13.34 9.46l21.65 72.82c1.6 5.2-4.41 9.53-13.43 9.53z"
   id="SVGID_34_" />
											</defs>
											<clipPath
   id="SVGID_35_">
												<use
   id="use184"
   xlink:href="#SVGID_34_"
   height="100%"
   width="100%" />
											</clipPath>
											<g
   id="g189"
   clip-path="url(#SVGID_35_)"
   class="st22">
												<polygon
   id="polygon187"
   fill="#fff"
   points="227.87 428.06 232.47 432.12 212.76 441.49 208.34 437.42"
   class="st16" />
											</g>
										
									
								
							
							
								
									
										
											<defs
   id="defs192">
												<path
   d="m226.28 482.14h-125.4c-8.93 0-14.93-4.24-13.34-9.46l21.83-73.08c1.5-5.3 7.51-9.54 13.43-9.54l81.92 0.27c5.83 0 11.84 4.33 13.34 9.46l21.65 72.82c1.6 5.2-4.41 9.53-13.43 9.53z"
   id="SVGID_36_" />
											</defs>
											<clipPath
   id="SVGID_37_">
												<use
   id="use194"
   xlink:href="#SVGID_36_"
   height="100%"
   width="100%" />
											</clipPath>
											<g
   id="g199"
   clip-path="url(#SVGID_37_)"
   class="st23">
												<polygon
   id="polygon197"
   fill="#fff"
   points="121.03 429.03 163.89 427.97 164.07 432.74 121.83 433.8 87.01 445.38 85.25 441.13"
   class="st16" />
											</g>
										
									
								
							
							
								
									
										
											<defs
   id="defs202">
												<path
   d="m226.28 482.14h-125.4c-8.93 0-14.93-4.24-13.34-9.46l21.83-73.08c1.5-5.3 7.51-9.54 13.43-9.54l81.92 0.27c5.83 0 11.84 4.33 13.34 9.46l21.65 72.82c1.6 5.2-4.41 9.53-13.43 9.53z"
   id="SVGID_38_" />
											</defs>
											<clipPath
   id="SVGID_39_">
												<use
   id="use204"
   xlink:href="#SVGID_38_"
   height="100%"
   width="100%" />
											</clipPath>
											<g
   id="g209"
   clip-path="url(#SVGID_39_)"
   class="st24">
												<polygon
   id="polygon207"
   fill="#fff"
   points="87.72 453.24 156.74 453.33 156.56 458.01 86.22 458.01"
   class="st16" />
											</g>
										
									
								
							
							
								
									
										
											<defs
   id="defs212">
												<path
   d="m226.28 482.14h-125.4c-8.93 0-14.93-4.24-13.34-9.46l21.83-73.08c1.5-5.3 7.51-9.54 13.43-9.54l81.92 0.27c5.83 0 11.84 4.33 13.34 9.46l21.65 72.82c1.6 5.2-4.41 9.53-13.43 9.53z"
   id="SVGID_40_" />
											</defs>
											<clipPath
   id="SVGID_41_">
												<use
   id="use214"
   xlink:href="#SVGID_40_"
   height="100%"
   width="100%" />
											</clipPath>
											<g
   id="g219"
   clip-path="url(#SVGID_41_)"
   class="st25">
												<polygon
   id="polygon217"
   fill="#fff"
   points="96.64 456.07 103.89 456.07 96.73 484.08 88.51 484.08"
   class="st16" />
											</g>
										
									
								
							
							
								
									
										
											<defs
   id="defs222">
												<path
   d="m226.28 482.14h-125.4c-8.93 0-14.93-4.24-13.34-9.46l21.83-73.08c1.5-5.3 7.51-9.54 13.43-9.54l81.92 0.27c5.83 0 11.84 4.33 13.34 9.46l21.65 72.82c1.6 5.2-4.41 9.53-13.43 9.53z"
   id="SVGID_42_" />
											</defs>
											<clipPath
   id="SVGID_43_">
												<use
   id="use224"
   xlink:href="#SVGID_42_"
   height="100%"
   width="100%" />
											</clipPath>
											<g
   id="g229"
   clip-path="url(#SVGID_43_)"
   class="st26">
												<polygon
   id="polygon227"
   fill="#fff"
   points="125.01 456.07 132.35 456.16 128.81 482.76 120.59 482.76"
   class="st16" />
											</g>
										
									
								
							
							
								
									
										
											<defs
   id="defs232">
												<path
   d="m226.28 482.14h-125.4c-8.93 0-14.93-4.24-13.34-9.46l21.83-73.08c1.5-5.3 7.51-9.54 13.43-9.54l81.92 0.27c5.83 0 11.84 4.33 13.34 9.46l21.65 72.82c1.6 5.2-4.41 9.53-13.43 9.53z"
   id="SVGID_44_" />
											</defs>
											<clipPath
   id="SVGID_45_">
												<use
   id="use234"
   xlink:href="#SVGID_44_"
   height="100%"
   width="100%" />
											</clipPath>
											<g
   id="g239"
   clip-path="url(#SVGID_45_)"
   class="st27">
												<polygon
   id="polygon237"
   fill="#fff"
   points="167.34 482.76 159.21 482.76 159.83 447.32 188.9 483.11 181.66 485.14 167.16 468.09"
   class="st16" />
											</g>
										
									
								
							
							
								
									
										
											<defs
   id="defs242">
												<path
   d="m226.28 482.14h-125.4c-8.93 0-14.93-4.24-13.34-9.46l21.83-73.08c1.5-5.3 7.51-9.54 13.43-9.54l81.92 0.27c5.83 0 11.84 4.33 13.34 9.46l21.65 72.82c1.6 5.2-4.41 9.53-13.43 9.53z"
   id="SVGID_46_" />
											</defs>
											<clipPath
   id="SVGID_47_">
												<use
   id="use244"
   xlink:href="#SVGID_46_"
   height="100%"
   width="100%" />
											</clipPath>
											<g
   id="g249"
   clip-path="url(#SVGID_47_)"
   class="st28">
												<polygon
   id="polygon247"
   fill="#fcd6a5"
   points="175.12 458.54 225.13 482.31 220.72 485.94 170.52 462.17"
   class="st29" />
											</g>
										
									
								
							
							
								
									
										
											<defs
   id="defs252">
												<path
   d="m226.28 482.14h-125.4c-8.93 0-14.93-4.24-13.34-9.46l21.83-73.08c1.5-5.3 7.51-9.54 13.43-9.54l81.92 0.27c5.83 0 11.84 4.33 13.34 9.46l21.65 72.82c1.6 5.2-4.41 9.53-13.43 9.53z"
   id="SVGID_48_" />
											</defs>
											<clipPath
   id="SVGID_49_">
												<use
   id="use254"
   xlink:href="#SVGID_48_"
   height="100%"
   width="100%" />
											</clipPath>
											<g
   id="g259"
   clip-path="url(#SVGID_49_)"
   class="st30">
												<polygon
   id="polygon257"
   fill="#fcd6a5"
   points="103.27 413.65 164.16 453.86 159.39 457.48 98.24 417.27"
   class="st29" />
											</g>
										
									
								
							
							
								
									
										
											<defs
   id="defs262">
												<path
   d="m226.28 482.14h-125.4c-8.93 0-14.93-4.24-13.34-9.46l21.83-73.08c1.5-5.3 7.51-9.54 13.43-9.54l81.92 0.27c5.83 0 11.84 4.33 13.34 9.46l21.65 72.82c1.6 5.2-4.41 9.53-13.43 9.53z"
   id="SVGID_50_" />
											</defs>
											<clipPath
   id="SVGID_51_">
												<use
   id="use264"
   xlink:href="#SVGID_50_"
   height="100%"
   width="100%" />
											</clipPath>
											<path
   id="path267"
   fill="#e0dfdf"
   clip-path="url(#SVGID_51_)"
   d="m182.54 456.51c0.53 6.72-7.95 12.2-18.91 12.2s-19.44-5.48-18.91-12.2 9.01-12.2 18.91-12.2 18.38 5.48 18.91 12.2z"
   class="st31" />
										
									
								
							
							
								
									
										
											<defs
   id="defs270">
												<path
   d="m226.28 482.14h-125.4c-8.93 0-14.93-4.24-13.34-9.46l21.83-73.08c1.5-5.3 7.51-9.54 13.43-9.54l81.92 0.27c5.83 0 11.84 4.33 13.34 9.46l21.65 72.82c1.6 5.2-4.41 9.53-13.43 9.53z"
   id="SVGID_52_" />
											</defs>
											<clipPath
   id="SVGID_53_">
												<use
   id="use272"
   xlink:href="#SVGID_52_"
   height="100%"
   width="100%" />
											</clipPath>
											<path
   id="path275"
   fill="#fcd6a5"
   clip-path="url(#SVGID_53_)"
   d="m163.63 471.09c-13.26 0-23.33-6.54-22.53-14.58s10.87-14.58 22.62-14.58c11.66 0 21.83 6.54 22.53 14.58 0.71 8.04-9.45 14.58-22.62 14.58zm0-24.39c-8.04 0-14.93 4.42-15.29 9.81-0.35 5.39 6.45 9.81 15.2 9.81s15.55-4.42 15.29-9.81c-0.35-5.39-7.16-9.81-15.2-9.81z"
   class="st32" />
										
									
								
							
							
								
									
										
											<defs
   id="defs278">
												<path
   d="m226.28 482.14h-125.4c-8.93 0-14.93-4.24-13.34-9.46l21.83-73.08c1.5-5.3 7.51-9.54 13.43-9.54l81.92 0.27c5.83 0 11.84 4.33 13.34 9.46l21.65 72.82c1.6 5.2-4.41 9.53-13.43 9.53z"
   id="SVGID_54_" />
											</defs>
											<clipPath
   id="SVGID_55_">
												<use
   id="use280"
   xlink:href="#SVGID_54_"
   height="100%"
   width="100%" />
											</clipPath>
											<g
   id="g285"
   clip-path="url(#SVGID_55_)"
   class="st33">
												<polygon
   id="polygon283"
   fill="#fff"
   points="162.92 404.37 164.16 408.97 93.73 420.46 93.99 415.77"
   class="st16" />
											</g>
										
									
								
							
						
					
				
			
		
		<path
   id="path287"
   fill="#f12a2a"
   d="m163.01 342.34c-22.8 0-41.36 18.56-41.36 41.36 0 28.28 37.03 69.81 38.53 71.58 1.5 1.68 4.07 1.68 5.57 0 1.59-1.77 38.53-43.3 38.53-71.58 0-22.81-18.47-41.36-41.27-41.36z"
   class="st34" />
		<path
   id="path289"
   fill="#009a00"
   d="m100.71 427.79c-7.78 0-14.14 6.36-14.14 14.14 0 9.72 12.64 23.95 13.26 24.57 0.53 0.53 1.41 0.53 1.86 0 0.53-0.62 13.26-14.85 13.26-24.57-0.01-7.78-6.38-14.14-14.24-14.14z"
   class="st35" />
		<path
   id="path291"
   fill="#ffc900"
   d="m225.75 393.06c-7.78 0-14.14 6.36-14.14 14.14 0 9.72 12.64 23.95 13.26 24.57 0.53 0.53 1.41 0.53 1.86 0 0.53-0.62 13.26-14.85 13.26-24.57-0.1-7.78-6.37-14.14-14.24-14.14z"
   class="st36" />
		<path
   id="path293"
   fill="#0060b1"
   d="m204.37 436.98c-7.78 0-14.14 6.36-14.14 14.14 0 9.72 12.64 23.95 13.26 24.57 0.53 0.53 1.41 0.53 1.86 0 0.53-0.62 13.26-14.85 13.26-24.57-0.1-7.78-6.47-14.14-14.24-14.14z"
   class="st37" />
		
			
				<path
   id="path295"
   fill="#fff"
   d="m210.64 449.44c-1.68-2.39-3.8-1.86-5.13-1.5-0.18 0-0.27 0.09-0.44 0.09 0.18-1.5 0.97-2.65 2.39-3.53l-0.62-0.97c-0.8 0.44-1.41 0.97-1.86 1.59-0.18-0.53-0.44-1.06-0.8-1.41-0.71-0.71-1.77-1.06-3.18-1.06h-0.53v0.53c0 1.41 0.35 2.47 1.06 3.18 0.62 0.62 1.41 0.97 2.47 1.06 0 0.18-0.09 0.35-0.09 0.53-0.18 0-0.35-0.09-0.53-0.09-1.41-0.35-3.45-0.88-5.13 1.5-0.8 1.15-1.06 2.74-0.71 4.51 0.44 2.12 1.68 4.33 2.92 5.13 1.5 0.97 2.74 0.53 3.53 0.27 0.18-0.09 0.44-0.18 0.53-0.18s0.35 0.09 0.53 0.18c0.44 0.18 0.97 0.35 1.59 0.35 0.53 0 1.24-0.18 1.86-0.62 1.24-0.8 2.47-3 2.92-5.13 0.28-1.69 0.02-3.19-0.78-4.43z"
   class="st16" />
			
		
		
			<g
   id="g301"
   fill="#fff">
				<path
   id="path297"
   d="m219.92 405.26c0.18 0.09 0.71 0.53 1.68 1.15 0.88 0.62 1.59 1.15 2.12 1.5 0.09 0 0.18 0.09 0.35 0.27 0.18 0.09 0.35 0.27 0.44 0.27 0.09 0.09 0.27 0.18 0.44 0.27 0.18 0.09 0.35 0.18 0.44 0.18 0.18 0.09 0.27 0.09 0.44 0.09 0.09 0 0.27 0 0.44-0.09 0.18-0.09 0.27-0.09 0.44-0.18 0.18-0.09 0.27-0.18 0.44-0.27 0.09-0.09 0.27-0.18 0.44-0.27 0.18-0.09 0.27-0.18 0.35-0.27 0.53-0.35 1.77-1.24 3.8-2.65 0.35-0.27 0.71-0.62 0.97-0.97 0.27-0.35 0.35-0.8 0.35-1.24 0-0.35-0.09-0.62-0.35-0.88-0.27-0.27-0.53-0.35-0.88-0.35h-11.84c-0.44 0-0.71 0.18-0.97 0.44-0.27 0.27-0.35 0.62-0.35 1.06 0 0.35 0.18 0.71 0.44 1.06 0.19 0.35 0.46 0.61 0.81 0.88z"
   class="st16" />
				<path
   id="path299"
   d="m232.12 406.05c-1.77 1.15-3.09 2.12-3.98 2.74-0.27 0.27-0.53 0.44-0.71 0.53s-0.44 0.27-0.8 0.35c-0.35 0.09-0.62 0.18-0.88 0.18-0.27 0-0.53-0.09-0.88-0.18s-0.53-0.27-0.8-0.35c-0.18-0.09-0.44-0.27-0.71-0.53-0.71-0.53-2.03-1.41-3.98-2.74-0.27-0.18-0.62-0.44-0.8-0.71v6.36c0 0.35 0.09 0.62 0.35 0.88 0.27 0.27 0.53 0.35 0.88 0.35h11.84c0.35 0 0.62-0.09 0.88-0.35 0.27-0.27 0.35-0.53 0.35-0.88v-6.36c-0.15 0.27-0.41 0.53-0.76 0.71z"
   class="st16" />
			</g>
		
		<path
   id="path303"
   fill="#fff"
   d="m103.1 450.24h-4.77c-0.27 0-0.44-0.18-0.44-0.44v-4.33h-4.42c-0.27 0-0.44-0.18-0.44-0.44v-4.77c0-0.27 0.18-0.44 0.44-0.44h4.33v-4.33c0-0.27 0.18-0.44 0.44-0.44h4.77c0.27 0 0.44 0.18 0.44 0.44v4.33h4.33c0.27 0 0.44 0.18 0.44 0.44v4.77c0 0.27-0.18 0.44-0.44 0.44h-4.33v4.33c0.09 0.26-0.09 0.44-0.35 0.44z"
   class="st16" />
		<circle
   id="circle305"
   fill="#fff"
   r="28.72"
   cy="384.31"
   cx="163.19"
   class="st16" />
		<path
   id="path307"
   fill="#f12a2a"
   d="m182.72 368.76c-0.44-0.97-0.97-1.5-2.12-2.3-0.97-0.71-2.47-0.35-3.27 0.44-4.15 4.07-8.13 8.4-11.75 12.9-1.77 2.21-4.33 4.86-5.92 7.69-0.8-0.62-1.5-1.24-2.21-1.86-2.3-2.12-4.77-4.77-7.69-6.1-2.39-1.15-4.15-0.09-5.66 1.86-0.44 0.62-0.97 1.59-0.97 2.39-0.62 0.62-0.8 1.68 0 2.65 5.04 6.19 11.31 11.05 17.94 15.46 0.88 0.62 2.56 0.44 3.27-0.44 7.16-9.1 13.87-19.18 19.71-29.16 1.05-1.76-0.01-3.18-1.33-3.53z"
   class="st34" />
	
	
	
	
	
<g
   id="g1045"
   transform="matrix(1.0838805,0,0,1.0838805,90.777113,321.27796)"><path
     class="st37"
     d="m 441.8842,61.564077 c -7.6303,14.691179 -17.31054,28.357393 -23.57422,43.731883 0.34166,0.56942 0.34166,1.36662 0.45554,2.04993 1.02496,0.7972 0.004,0.2297 1.3705,0.45748 1.13885,-0.56943 1.93604,-1.48051 3.18878,-1.36663 2.61935,-5.46648 4.97743,-11.589482 7.36901,-16.714312 7.85808,-0.113885 16.07359,0.113885 25.98161,0.45554 2.96101,3.985979 4.78316,8.996921 7.97195,13.096782 -0.0409,0.99308 1.96197,4.04099 2.96101,5.01095 2.84713,0.45554 4.66929,-1.70828 5.92203,-3.64432 -0.91108,-1.70829 -1.25274,-4.21376 -2.96101,-5.238727 -7.06089,-12.982894 -11.74596,-26.535222 -19.37626,-39.17647 -0.11388,-0.45554 -0.34166,-0.797196 -0.22778,-1.594391 -1.02496,0.227769 -2.50547,-1.936048 -2.04993,-2.733243 -0.22776,-0.341656 -0.56942,-0.569426 -1.36662,-0.455541 0,-0.45554 0.68332,-0.22777 0.45554,-0.91108 -1.93605,-0.455541 -1.9064,-0.370384 -4.41188,1.565663 0.34166,1.822162 -1.36661,3.530438 -1.70827,5.466486 z M 453.47083,81.5227 c -0.56942,-0.341655 -0.22776,0.113885 -0.6833,0.22777 -0.22777,-0.113885 -0.11389,-0.797196 -0.68331,-0.683311 0.22777,0.341655 0.22777,0.569426 -0.22777,0.683311 -0.45555,-0.455541 -2.16382,0.113884 -1.82216,-0.683311 -0.22778,0.797195 -1.82216,0.569426 -1.5944,0 -4.66928,1.138851 -7.02736,0.0871 -12.0383,0.42875 2.61935,-5.808141 5.92203,-11.502397 9.1108,-17.424422 3.30268,6.149796 6.23017,11.756957 9.64673,17.678983 -0.68331,0.22777 -0.7972,-0.22777 -1.36663,-0.22777 0.11389,0.341654 -0.34166,0.22777 -0.34166,0 z m 0.45555,0 c 0,-0.227771 0.34165,-0.341655 0,-0.455541 -0.22777,0.113886 -0.34165,0.341655 -0.45555,0.455541 z m -2.84712,-0.455541 c 0,0.341655 0.45554,0.22777 0.6833,0.22777 0.11389,-0.22777 -0.45554,-0.113884 -0.6833,-0.22777 z m -0.68332,0 c 0,0.22777 0.34166,0.22777 0.45554,0.22777 0,-0.113884 -0.22777,-0.113884 -0.45554,-0.22777 z m -1.36662,0 c 0,0.22777 0.34165,0.22777 0.45554,0.22777 0,-0.113884 -0.22777,-0.113884 -0.45554,-0.22777 z"
     id="path309"
     style="fill:#ffc900;fill-opacity:1;stroke:#ffc900;stroke-width:1.13885;stroke-opacity:1"
     sodipodi:nodetypes="cccccccccccccccccccccccccccccccccccccccccc" /><path
     class="st36"
     d="m 213.72401,86.856634 c 2.95905,3.367184 6.93845,4.693651 10.71377,7.754727 3.46922,2.142754 7.44862,5.101795 10.91784,7.346589 0.20408,4.69365 -4.69365,4.08143 -7.75472,3.06107 -7.85677,-6.938438 -17.95832,-12.244305 -26.83544,-18.876637 -2.85701,-0.102036 -7.14252,0.714251 -10.5097,0.204071 -0.81629,4.795687 1.32647,13.672806 -0.40814,18.876636 -2.24479,0.20408 -3.77533,-0.3061 -5.91808,-1.02036 -0.20408,-0.61221 -0.51018,-1.22443 -1.02036,-1.63257 -0.61222,-12.244306 -0.40815,-24.998792 0.20407,-36.936991 -1.1224,-2.346825 -0.61222,-5.611974 0,-8.162871 4.28551,-1.020359 10.8158,-1.224431 15.81556,-1.836646 2.85701,0.204072 6.5303,0 10.91784,0.204072 6.93844,0.306107 12.55042,2.448861 17.24407,6.93844 3.46922,3.265149 5.91808,9.18323 3.46922,15.815563 -3.57126,5.305866 -10.61174,6.020117 -18.67257,6.734368 0.20407,1.122395 0.91832,1.836646 1.83664,1.530539 z m 11.9382,-12.346343 c 0.10204,-0.408143 0.20408,-0.714251 0.40815,-0.816287 0.51018,-5.20383 -2.5509,-6.734368 -5.1018,-8.979158 -8.87712,-3.877364 -20.61125,-2.959041 -30.81484,-1.632574 0.51018,5.816045 -0.20407,9.693409 0,16.223706 6.5303,0.408144 13.87689,0.306108 21.12143,-0.816287 5.71401,-0.918323 11.22395,-0.51018 14.38706,-3.9794 z"
     id="path311"
     style="stroke-width:1.02036" /><path
     class="st36"
     d="m 283.17319,63.038513 c -1.22443,2.346825 -4.48958,1.22443 -6.73437,1.22443 -9.18323,-0.102036 -20.30514,0.612216 -28.46801,0.204072 -0.51018,3.061077 -0.20407,8.775086 -0.81629,12.550414 10.20359,-0.306107 18.87664,-0.612215 27.8558,0 2.85701,0.612216 4.59162,4.897723 2.85701,7.550656 -10.20359,-0.714251 -21.42754,-1.122395 -31.22299,0.816287 -0.10203,3.877364 0.20408,8.877123 0,12.958558 11.63209,0.306108 23.57029,0.204072 36.937,-0.408143 2.65293,-0.102036 5.30586,-1.020359 6.93844,0.408143 0.71425,2.44886 0,5.30586 -1.42851,6.32622 -7.44862,0 -15.81556,0.10204 -23.97843,0.61222 -6.42826,0.40814 -12.75449,0.3061 -19.69293,0.81628 -1.02036,-1.12239 -3.36718,-1.02036 -4.48958,-2.24479 -0.81628,-2.14275 -0.40814,-5.816038 -0.20407,-8.162863 -0.10203,-11.938199 1.02036,-23.366219 1.22443,-33.2637 -1.53054,-2.142753 -0.20407,-5.407902 2.04072,-5.714009 12.65245,1.020358 23.97843,0.306107 36.52885,0.408143 1.22443,1.530538 3.46922,3.163113 2.65293,5.918082 z"
     id="path313"
     style="stroke-width:1.02036" /><path
     class="st36"
     d="m 332.22302,57.076673 c 3.77532,2.346825 10.50969,8.468979 6.93844,13.774845 -1.22443,0.510179 -3.06108,0.102036 -3.87737,-0.408144 -0.51018,-1.836646 -0.10203,-4.489579 -1.4285,-5.918081 -0.81629,-0.612215 -2.04072,-0.816287 -3.06108,-1.224431 -10.91784,1.020359 -20.91735,-0.102036 -29.48837,4.081436 -1.02036,1.020359 -1.93868,2.040718 -2.857,3.061076 0.10203,0.714252 -0.51018,1.122395 0,1.632575 -1.22443,5.816045 10.71377,3.265148 15.20334,4.081435 4.99976,0.612215 10.40767,0.816287 15.6115,1.224431 1.73461,0.714251 3.87736,1.22443 5.91808,1.632574 7.75472,3.061077 11.63209,13.978917 6.53029,21.733641 -5.20383,4.89773 -14.08095,5.71401 -22.34586,6.12216 -6.53029,-0.91833 -13.6728,-0.81629 -20.50921,-2.65294 -3.26515,-2.34682 -5.91808,-7.958796 -4.08143,-13.366698 4.59161,-1.326466 5.20383,3.265149 6.32622,6.530297 9.08119,2.040718 22.03975,2.857001 31.22298,0 2.44886,-1.326467 5.1018,-2.448861 6.32623,-5.101794 0.40814,-1.836646 0.20407,-4.285508 -1.22443,-5.305867 -5.30587,-3.673292 -12.85653,-3.061076 -19.69293,-3.673292 -7.14251,-0.510179 -14.4891,0.306108 -19.48885,-2.244789 -0.30611,-0.51018 -0.91833,-0.714251 -1.42851,-1.020359 -4.08143,-4.081436 -4.79568,-13.264666 -1.02036,-17.652209 2.65294,-3.061076 8.36695,-4.693651 13.16263,-5.305866 7.6527,-1.020359 14.08096,-0.306108 21.3255,-0.816287 0.51018,0.306108 1.1224,0.612215 1.83665,0.816287 -0.10204,0.204072 0.10204,0.102036 0.10204,0 z m 0,0 h -0.20408 c 0,-0.102036 0.10204,-0.204072 0.20408,0 z"
     id="path315"
     style="stroke-width:1.02036" /><path
     class="st36"
     d="m 398.29851,59.467257 c 1.32647,2.040717 0.0324,4.010269 -1.49814,4.928592 -8.87713,0.102036 -15.81557,-0.510179 -24.18251,0 -0.61221,10.611733 0.17168,23.947564 0.0696,34.661332 0,2.244789 0.61222,4.285499 -0.81629,6.122149 -1.4285,0.51018 -4.2855,0.61222 -5.50993,-0.20407 -1.22443,-6.938438 -0.81629,-15.509452 -0.61222,-23.978431 0.20407,-4.999759 -0.3385,-11.981814 -0.74665,-16.471393 -6.42826,-1.224431 -15.10131,1.122395 -21.3255,-0.204072 -1.83664,-1.938682 -2.00832,-2.507282 -1.90628,-5.262251 0.51018,-0.306108 0.81628,-0.612215 1.02036,-1.020359 13.26466,0.51018 26.32525,-0.102036 38.56956,0 7.04048,0.102036 9.79545,-0.102036 16.22371,0.408144 -0.40815,0.918323 0.40814,0.510179 0.71425,1.020359 z"
     id="path317"
     style="stroke-width:1.02036"
     sodipodi:nodetypes="cccccccccccccc" /><path
     id="path315-3"
     d="m 410.03205,59.856889 0.89025,1.110959 c 0,1.883481 -0.11036,4.43648 -0.22073,6.099239 -0.22072,1.993842 0,3.987682 0.33109,5.760802 0.22071,1.110958 0.33108,2.663359 0.33108,4.105399 v 2.324921 c 0.11036,4.215759 0.11036,10.866798 0.11036,14.854484 0,3.546239 0,7.092487 0.11036,11.528967 0.44144,0.77251 0.11036,1.11094 -0.44144,1.88348 0,0 0.11035,0 0.44144,1.11095 -1.22132,0 -1.77312,0.11035 -1.99384,0.44144 l -2.43528,-0.22071 c -1.77312,-0.11038 -1.87201,-0.23261 -2.76225,-2.11609 0.22073,-1.22132 0,-1.99384 -0.11036,-2.88409 -0.11036,-0.89023 0,-1.66275 0.11036,-2.44263 -0.22072,-1.11096 -0.22072,-2.552991 -0.22072,-3.987676 0,-1.221323 0,-3.104803 0.11036,-4.326116 v -1.993845 c 0,-0.772521 0.11036,-1.44204 0.11036,-1.88348 0,-1.773121 -0.11036,-3.54624 -0.44143,-5.09864 0.11036,-0.220721 0.5518,-1.000598 0.44143,-0.890238 -0.44143,-2.552999 -0.33107,-5.988879 -0.33107,-8.865601 0,-1.773121 0,-3.325521 -0.11036,-4.87792 l -0.22073,-2.663359 c -0.11036,-1.221319 -0.22071,-2.88408 -0.22071,-4.098042 0,-1.110959 0,-2.214562 0.33107,-3.877321 1.44204,-1.33168 3.31405,-1.540525 5.30789,-0.760646 z"
     class="st36"
     style="fill:#ffc900;stroke-width:0.735735"
     sodipodi:nodetypes="ccccscsccccccscscssccsccsccc" /><g
     id="g1207"
     transform="matrix(0.99954821,0,0,1.0790938,-23.53014,-8.0769427)"><path
       sodipodi:nodetypes="ccccccccccccccccccccsccccccccccccscscc"
       style="fill:#ffc900;fill-opacity:1;stroke-width:0.736767"
       class="st35"
       d="m 540.38849,59.135862 c -0.0526,0.09167 1.61535,0.877365 1.65698,1.217556 -5.15031,13.720135 7.39075,-16.588025 -11.77631,38.634143 0.0729,0.59532 -0.0433,1.210479 -0.40061,1.420289 l 0.0625,0.51028 c 0.6071,1.83131 -1.59907,2.5798 -2.21883,2.73103 -0.12604,0.0132 -0.48331,0.22303 -0.78799,0.34117 l -1.07074,-0.40439 c -0.651,-0.10392 -1.38581,-0.37132 -2.09925,-0.98551 l -0.5452,-0.80415 c -0.1885,-0.49704 -0.56603,-0.97422 -1.03838,-1.18304 -1.43503,-3.381006 -1.98024,-4.185146 -2.48327,-5.165991 l 0.0104,0.08505 -0.63945,-1.052668 c -0.56606,-0.974226 -1.16331,-2.203591 -1.64549,-3.01435 l -0.7868,-2.907096 -2.98636,-3.932374 c -1.64545,-3.014365 -3.30135,-6.113772 -6.00714,-9.447481 -0.49202,-1.412692 -1.24541,-3.917756 -2.4838,-4.649104 -0.0827,-1.197258 -1.25695,-2.969023 -2.0652,-3.314839 -2.93761,-2.620249 -1.88602,-3.936624 -0.62342,-6.136555 0.0526,-0.09165 0.10522,-0.183328 1.19846,-1.159521 1.00827,-0.10588 1.70146,-0.178673 2.93058,-0.566162 0.0208,0.170092 -0.0109,0.431845 0.0203,0.686984 l 1.06031,0.31935 c 1.41592,1.660235 2.69539,3.248661 3.43836,5.668681 0.577,0.542376 0.5452,0.80414 0.73369,1.301176 l 0.21971,0.752183 c 2.00333,2.287667 2.04074,3.92555 4.43143,7.292348 l 0.84267,1.363625 1.81207,2.977334 c 1.77096,3.518016 2.68471,5.111151 5.09624,8.648048 0.96945,-3.030545 2.11418,-3.443787 3.16749,-6.31085 0.93876,-2.953886 3.11304,-4.501631 4.29863,-7.843197 2.32136,-6.542706 3.5826,-12.794197 5.56855,-18.07842 0.851,-0.347783 -0.36366,0.647953 0.77065,0.528837 1.26035,-0.132351 1.58083,-0.424547 2.48274,0.68669 z"
       id="path325-0" /><path
       id="path315-3-3"
       d="m 506.60947,60.039133 0.69495,1.088793 c 0,1.8459 -0.0862,4.34796 -0.1723,5.977543 -0.17231,1.954059 0,3.908117 0.25846,5.645858 0.17229,1.088792 0.25845,2.610218 0.25845,4.023485 v 2.278533 c 0.0861,4.131643 0.0861,10.649976 0.0861,14.558097 0,3.475483 0,6.950968 0.0862,11.298928 0.3446,0.7571 0.0861,1.08878 -0.3446,1.8459 0,0 0.0861,0 0.3446,1.08879 -0.9534,0 -1.38416,0.10815 -1.55647,0.43263 l -1.90106,-0.21631 c -1.38417,-0.10817 -2.76834,-0.32448 -3.46329,-2.17038 0.17231,-1.19695 0,-1.95406 -0.0862,-2.82654 -0.0861,-0.87247 0,-1.62958 0.0862,-2.3939 -0.1723,-1.088794 -0.1723,-2.502053 -0.1723,-3.908112 0,-1.196955 0,-3.042854 0.0861,-4.239799 v -1.954062 c 0,-0.757108 0.0862,-1.413268 0.0862,-1.8459 0,-1.737742 -0.0862,-3.475483 -0.3446,-4.996908 0.0862,-0.216317 0.43076,-0.980634 0.3446,-0.872476 -0.3446,-2.50206 -0.25844,-5.869385 -0.25844,-8.688708 0,-1.737743 0,-3.259168 -0.0862,-4.780593 l -0.1723,-2.610218 c -0.0862,-1.19695 -0.1723,-2.826535 -0.1723,-4.016275 0,-1.088792 0,-2.170375 0.25844,-3.799958 1.12571,-1.305109 3.89405,-1.413267 5.45051,-0.648949 z"
       class="st36"
       style="fill:#ffc900;stroke-width:0.643531" /><path
       id="path315-3-5"
       d="m 543.00083,56.346303 0.76487,1.034147 c 0.22383,1.928476 0.44874,4.555281 0.5679,6.270572 0.08,2.067097 0.47388,4.082945 0.91996,5.859986 0.28892,1.111874 0.55185,2.68855 0.72322,4.165038 l 0.27629,2.380463 c 0.57946,4.303653 0.84297,11.66913 1.31685,15.752078 0.42141,3.630955 1.36972,6.706368 1.97542,11.236013 0.40561,0.73972 0.2105,1.12468 -0.09,1.97973 0,0 -0.79966,0.0567 -0.43232,1.15569 -0.86821,0.14179 -0.36921,0.24939 -0.48677,0.61402 l -1.75742,0.0567 c -1.27359,0.0928 -2.56029,0.0727 -3.41697,-1.75243 0.0118,-1.27611 -0.23694,-2.04147 -0.42114,-2.94017 -0.18428,-0.89869 -0.1976,-1.70249 -0.21187,-2.513805 -0.28892,-1.111872 -0.46029,-2.588361 -0.63079,-4.057311 -0.14513,-1.250505 -0.36895,-3.178981 -0.43561,-4.442282 l -0.23694,-2.041474 c -0.0918,-0.790982 -0.31461,-1.558742 -0.36708,-2.010727 -0.2107,-1.81548 -0.27816,-3.548711 -0.69805,-5.099754 -1.49728,-4.826296 -1.86407,-7.166528 -2.28942,-10.462654 -0.2107,-1.815479 0.81334,-2.944023 0.55037,-4.520692 l -0.47342,-2.701358 c -0.22361,-1.237679 -0.49963,-2.927357 -0.64389,-4.170319 -0.13202,-1.137499 -0.26317,-2.267466 -0.22542,-4.008383 0.86687,-1.530905 3.3747,-2.055596 4.88476,-1.488559 z"
       class="st36"
       style="fill:#ffc900;stroke-width:0.633611"
       sodipodi:nodetypes="ccccscsccccccscscssccccsccc" /></g><path
     id="path321-6"
     d="m 559.93151,107.33475 c -2.50238,0.75643 -5.00176,1.08002 -7.42309,1.05803 -7.41527,-0.0672 -14.50628,-3.24834 -19.08706,-8.31113 -0.21921,-1.127433 -0.51947,-1.476437 -0.89419,-1.999279 l -6e-4,0.08663 -0.0746,-0.173808 -0.52365,-0.870479 -6e-4,0.08661 -1.12238,-1.828214 c -0.88817,-2.864944 -1.08933,-6.589376 -1.36738,-10.141356 l -0.13572,-2.252109 c -0.14172,-1.386439 -0.12849,-3.29091 -0.11891,-4.675976 0.0324,-4.674603 0.59274,-9.084692 1.2233,-12.714995 l 1.1476,-1.807586 c 0.0762,-0.08588 0.23061,-0.517345 0.61554,-1.466136 l 1.06534,-0.856047 c 3.6566,-3.516248 8.913,-8.576274 14.81918,-9.128639 4.08897,-0.395723 7.94194,0.504992 10.96557,0.965308 0.0756,6.87e-4 0.60233,0.438328 0.75247,0.612837 0.15073,0.08794 0.14953,0.261077 0.45219,0.263826 1.73191,1.227735 3.5251,2.203733 4.36641,3.242826 l 1.20047,1.482628 c 0.15011,0.1745 0.22336,0.521459 0.37351,0.695968 l 2.10184,2.443102 c 2.23214,5.474318 3.09748,11.6288 3.05484,17.775036 -0.0323,4.674592 -0.51827,9.258505 -1.15481,13.75447 -1.55719,6.305639 -4.31301,10.868913 -9.47392,13.072923 -8.4e-4,0.17314 -0.15434,0.43146 -0.53266,0.42803 0,0 0.0751,0.0872 -0.0756,-7e-4 z M 542.99783,95.847767 c 0.24215,0.553556 0.57751,1.242939 1.32877,2.02891 v 0 l 1.47896,0.972331 c 3.36804,0.545994 -1.39893,0.5027 3.36804,0.545994 1.51332,0.01367 6.37814,-0.898896 8.12205,-1.402484 0.23061,-0.517342 0.68641,-0.772913 1.29415,-1.113693 2.29702,-3.874886 5.58974,-10.326478 5.6342,-16.732416 0.0433,-6.232796 -3.23266,-13.113153 -5.55068,-17.116526 l -5.9e-4,0.08658 c -2.8525,-3.31565 -3.43265,-2.435615 -9.25836,-2.575095 -1.1368,0.249395 -2.35286,1.017502 -3.56832,1.699038 l -0.4552,0.169012 c -0.0762,0.08589 -0.15254,0.171762 -0.2282,0.171076 -2.21475,2.923337 -3.60736,5.491901 -5.7797,9.77943 -1.42408,5.75751 0.51994,16.413122 2.91151,21.880015 z m 16.02276,-42.628868 c 5.9e-4,-0.08658 0.0762,-0.08589 0.15134,0.0014 z"
     class="st35"
     style="fill:#ffc900;fill-opacity:1;stroke-width:0.809356"
     sodipodi:nodetypes="cscccccccccsccccccccscscscccccscccsccscccccccssccc" /></g><g
   transform="matrix(0.92244873,0,0,0.92244873,536.92079,276.53185)"
   id="g1059"><path
     class="st35"
     d="m 380.44567,117.41876 c 1.64081,1.53826 3.38417,3.69183 2.46121,6.35815 -1.43571,3.07652 -4.30713,2.97397 -6.66579,2.76887 h -0.51276 c -0.6153,-0.10255 -1.23061,-0.10255 -1.64081,-0.10255 -4.40968,0 -9.22957,0.10255 -13.84435,0.2051 -3.38417,0.10255 -7.89641,0.10255 -10.87038,0.10255 -2.66632,0 -4.30713,0 -6.35814,-0.10255 -0.10255,0.92295 -0.10255,2.25611 -0.10255,3.38417 0,0.71786 -0.10256,1.23061 -0.10256,1.94847 0,0.8204 -0.10255,1.64081 -0.10255,2.46121 0,1.53827 0,2.87143 -0.10255,3.89693 6.0505,-0.2051 11.58824,-0.30765 17.12598,-0.30765 4.40968,0 9.12701,0 13.22904,0.30765 2.76887,0.61531 4.51223,3.69183 4.51223,6.97345 0,1.33316 -0.2051,2.76887 -1.2306,4.10203 -5.23009,-0.30765 -11.38314,-0.71785 -16.81833,-0.71785 -5.94794,0 -11.99843,0.2051 -17.53617,1.43571 v 7.99896 c 0,1.64081 0.10255,2.66631 0,4.40968 4.40968,0.10255 8.40916,0.2051 13.12649,0.2051 8.51171,0 17.53618,-0.2051 27.2785,-0.71786 0.51275,0 1.23061,-0.10255 2.05101,-0.2051 2.35867,-0.2051 4.61479,-0.51275 6.56325,1.23061 1.02551,3.38418 -0.10255,7.69131 -2.05101,8.81936 -8.51171,0 -18.25403,0.10256 -27.38105,0.71786 -2.15357,0.10255 -4.51223,0.2051 -6.6658,0.2051 -1.23061,0 -2.35867,0.10255 -3.48672,0.10255 -3.79438,0.10255 -8.20406,0.2051 -12.7163,0.61531 -0.71785,-0.71786 -1.0255,-0.82041 -1.43571,-0.92296 -0.10255,0 -0.51275,-0.2051 -0.51275,-0.2051 -0.10255,0 -0.51275,-0.10255 -0.6153,-0.10255 -1.23061,-0.51276 -2.46122,-1.02551 -2.97398,-1.53826 -0.51275,-0.92296 -0.6153,-2.87142 -0.6153,-4.81989 0,-1.33316 0.10255,-3.38417 0.2051,-4.61478 v -0.61531 c -0.10255,-7.8964 0.30765,-16.10046 0.82041,-23.17646 l 0.6153,-13.84435 c -2.05101,-3.17908 0,-7.28111 3.07652,-7.89641 6.2556,0.6153 12.40864,0.71785 18.56169,0.71785 h 4.81988 c 1.64081,0 3.07652,-0.10255 4.81989,-0.10255 3.89693,-0.10255 10.25507,-0.10255 13.7418,-0.10255 z"
     id="path327"
     style="stroke-width:1.02551" /><path
     class="st35"
     d="m 451.92353,142.44114 c -4.10203,5.84539 -10.87038,7.38366 -18.76678,8.20406 2.05101,2.05102 4.20458,3.48673 6.46069,4.81989 h -0.10255 c 0.30765,0.2051 0.82041,0.71785 1.33316,0.92295 1.53826,0.82041 2.87142,1.64081 4.10203,2.46122 1.33316,0.92296 2.97397,2.15357 4.51223,3.07652 1.02551,0.71786 2.15357,1.33316 3.07653,2.05102 1.33316,0.92295 3.07652,2.25611 5.02498,3.48672 0.2051,4.51224 -2.46122,6.0505 -5.53774,6.0505 -1.74336,0 -3.69182,-0.30766 -5.02498,-0.82041 -4.81989,-4.10203 -10.04998,-7.79386 -15.17751,-11.07548 h 0.10255 l -2.66632,-1.64081 c -3.79438,-2.46122 -8.61426,-5.53774 -12.40864,-8.51171 -1.33316,0 -2.66632,0.10255 -3.79438,0.2051 h 0.10255 c -2.15356,0.2051 -4.81988,0.51275 -6.56325,0.2051 v 2.25612 c 0,1.53826 0.10256,3.07652 0.20511,5.02498 v 2.15357 c 0.10255,1.33316 0.2051,2.97397 0.2051,4.30713 0,2.76887 -0.2051,5.02499 -0.92296,7.2811 -3.69183,0.2051 -5.74284,-0.51275 -8.61426,-1.43571 -0.30765,-0.8204 -0.71786,-1.43571 -1.43571,-2.05101 -0.30765,-5.74284 -0.51276,-12.30609 -0.51276,-18.25404 0,-7.99895 0.30766,-16.10046 0.71786,-23.89432 -0.51275,-1.23061 -0.82041,-2.76887 -0.82041,-3.69182 0,-1.53827 0.30766,-3.48673 0.71786,-4.92244 0,-0.51275 0.2051,-1.02551 0.2051,-1.43571 3.89693,-1.02551 8.20406,-1.43571 12.40864,-1.74336 l 6.35815,-0.61531 c 1.64081,0.10255 3.58927,0.10255 5.53774,0.10255 2.15356,0 4.40968,0 6.66579,0.10255 7.89641,0.30766 14.97241,3.07653 20.09995,8.10151 3.07652,2.76887 5.53774,7.69131 5.53774,12.71629 0,2.05102 -0.10255,4.20459 -0.92296,6.35815 z m -18.97189,-2.35866 h 0.30766 c 4.40968,-0.51276 8.51171,-1.23061 11.28058,-3.48673 0,-0.10255 0.10255,-0.6153 0.2051,-0.71786 0.30765,-4.30713 -1.74336,-5.74284 -4.30713,-7.6913 h -0.10255 l -1.23061,-1.02551 c -5.33264,-2.15356 -11.28058,-2.76887 -17.22853,-2.76887 -4.92243,0 -10.04997,0.30765 -15.1775,1.33316 0.10255,1.33316 0.10255,2.76887 0.10255,3.89693 0,0.82041 -0.10255,1.53826 -0.10255,2.25612 v 2.35866 c 0,2.15357 -0.10256,4.40968 0,7.17855 2.15356,0.10256 4.20458,0.20511 6.56324,0.20511 5.02499,0 10.25508,-0.30766 15.69027,-1.23061 1.33316,-0.10255 2.76887,-0.2051 3.99947,-0.30765 z"
     id="path329"
     style="stroke-width:1.02551" /><path
     class="st35"
     d="m 525.76006,118.44427 c 0.20511,0.10255 0.61531,0.30765 0.82041,0.71785 1.74336,2.87142 -0.10255,7.99896 -2.15357,9.33212 -4.10202,0 -7.8964,0 -11.48568,-0.10255 h -3.89693 c -1.53826,0 -2.87142,-0.10255 -3.79437,-0.10255 -2.46122,0 -4.61479,0.10255 -6.97345,0.2051 h -0.20511 c -0.10255,2.25612 -0.10255,4.30713 -0.10255,6.6658 v 2.46122 c 0,4.20458 0,8.40916 0.10255,12.81884 0.10256,4.61478 0.10256,9.43467 0.10256,13.84435 v 0.92296 c 0,0.30765 0.10255,0.6153 0.10255,0.8204 0.10255,1.94847 0,4.30713 -1.53827,6.35815 -2.05101,0.8204 -6.05049,0.71785 -8.1015,-0.71786 -0.82041,-4.10203 -1.02551,-9.12701 -1.02551,-14.45965 0,-3.07652 0.10255,-6.2556 0.2051,-9.33212 v -0.6153 c 0,-0.51276 0.10255,-1.02551 0.10255,-1.64082 v -1.43571 c 0.2051,-4.61478 -0.2051,-9.43466 -0.71785,-13.74179 l -0.20511,-1.74337 c -1.33315,-0.30765 -2.76887,-0.2051 -4.20458,-0.2051 -2.15356,0 -4.20458,0.10255 -6.46069,0.30765 -2.35867,0.20511 -4.61479,0.30766 -6.97345,0.30766 -2.15357,0 -3.89693,-0.10255 -5.64029,-0.51276 -2.87142,-2.97397 -2.97397,-6.05049 -2.87142,-9.94742 1.0255,-0.6153 1.64081,-0.92296 1.94846,-1.53826 4.40968,0.2051 9.63977,0.2051 14.152,0.2051 4.40968,0 9.12702,0 13.5367,-0.10255 5.53774,-0.10255 10.87038,-0.10255 16.10047,-0.10255 h 6.05049 c 4.40968,0 7.38365,0 12.71629,0.51275 z"
     id="path331"
     style="stroke-width:1.02551" /><path
     style="fill:#009a00;fill-opacity:1;stroke:#009a00;stroke-width:0.894242;stroke-miterlimit:4;stroke-dasharray:none;stroke-opacity:1"
     id="path309-1"
     d="m 215.36971,117.7771 c -8.74079,16.82929 -18.61789,33.2924 -25.79316,50.90444 0.39138,0.65229 -0.82058,0.75753 -0.69013,1.5403 1.17413,0.91321 3.82116,2.37349 5.38667,2.63441 1.30459,-0.65231 2.21782,-1.69598 3.65287,-1.56552 3.00056,-6.26206 6.39252,-13.04594 9.13216,-18.91664 9.00171,-0.13045 22.69996,0.13047 34.04995,0.52184 3.39195,4.5661 5.47929,10.30631 9.13216,15.00285 0.13046,0.52184 -0.13045,0.52184 -0.52184,0.52184 2.21783,1.43505 2.21783,3.65287 3.91379,5.21839 3.26148,0.52183 6.7628,-2.3609 8.19785,-4.5787 -1.04366,-1.95689 -1.43505,-4.827 -3.39193,-6.00115 -8.08851,-14.87238 -19.15646,-29.99307 -27.89725,-44.47409 -0.13046,-0.52184 0.0377,-2.30205 0.16818,-3.21526 -3.46086,-0.49858 -3.40913,-11.28407 -12.17046,-5.01649 0.39137,2.08734 -2.77749,5.20597 -3.16886,7.42378 z m -2.4409,24.94299 c 3.00056,-6.65343 6.78389,-13.17642 10.43675,-19.9603 15.70606,27.38605 12.351,18.64092 -10.43675,19.9603 z"
     class="st37"
     sodipodi:nodetypes="ccccccccccccccccccc" /><path
     style="fill:#009a00;fill-opacity:1;stroke:#009a00;stroke-width:1.332;stroke-miterlimit:4;stroke-dasharray:none;stroke-opacity:1"
     class="st36"
     d="m 544.81923,119.24999 1.00653,1.25607 c 0,2.1295 -0.1248,5.01596 -0.24956,6.8959 -0.24955,2.25425 0,4.50854 0.37432,6.51326 0.24956,1.25606 0.37433,3.01124 0.37433,4.64161 v 2.6286 c 0.12479,4.76639 0.12479,12.28616 0.12479,16.7947 0,4.00945 0,8.01888 0.12476,13.03483 0.49909,0.87342 0.12478,1.25605 -0.4991,2.1295 0,0 0.12478,0 0.4991,1.25606 -1.38083,0 -2.0047,0.12476 -2.25427,0.49909 l -2.75336,-0.24954 c -2.00473,-0.12479 -4.00945,-0.37434 -5.01597,-2.50381 0.24956,-1.38086 0,-2.25428 -0.12475,-3.2608 -0.1248,-1.0065 0,-1.87995 0.12475,-2.76168 -0.24955,-1.25606 -0.24955,-2.88646 -0.24955,-4.50853 0,-1.38085 0,-3.51033 0.1248,-4.89119 v -2.25427 c 0,-0.87342 0.12475,-1.63037 0.12475,-2.12949 0,-2.00471 -0.12475,-4.00942 -0.49908,-5.76459 0.12478,-0.24956 0.62388,-1.13129 0.49908,-1.00653 -0.49908,-2.88645 -0.3743,-6.7711 -0.3743,-10.02358 0,-2.00471 0,-3.75988 -0.12478,-5.51506 l -0.24956,-3.01122 c -0.12476,-1.38085 -0.24954,-3.26079 -0.24954,-4.63331 0,-1.25606 0,-2.50381 0.37432,-4.38377 1.63038,-1.50561 5.63983,-1.63039 7.89409,-0.74864 z"
     id="path315-3-1" /><path
     id="path311-8"
     d="m 290.45999,149.19884 c -3.27312,-0.1169 -8.18279,0.81828 -12.04039,0.23378 -0.93518,5.49417 -0.70227,14.45225 -2.68952,20.414 -2.57174,0.23379 -5.53716,0.25529 -7.99199,-0.56299 -0.2338,-0.70138 -0.58449,-1.40277 -1.16897,-1.87035 -0.70139,-14.02765 -0.46759,-28.63978 0.2338,-42.31674 -1.28588,-2.68863 -0.70139,-6.42935 0,-9.35177 4.90966,-1.16896 15.82497,-0.79677 21.55292,-1.49816 3.27312,0.2338 7.48141,0 12.50799,0.2338 7.949,0.35069 14.37834,2.80553 19.7556,7.949 3.97451,3.7407 6.78004,10.52073 3.97451,18.11905 -4.0914,6.07864 -12.1573,6.89692 -21.39217,7.7152 -6.0319,-0.42151 -12.74178,0.93518 -12.74178,0.93518 z m 25.08899,-13.93225 c 0.1169,-0.46759 0.2338,-0.81828 0.46759,-0.93518 0.58449,-5.96175 0.51147,-7.10923 -2.41095,-9.68097 -10.17005,-4.44208 -23.61322,-3.39 -35.30292,-1.87035 0.58448,6.66314 -0.2338,11.10522 0,18.58664 7.48141,0.46759 15.898,0.35069 24.19769,-0.93517 6.54623,-1.05208 9.42479,-1.19047 13.04859,-5.16497 z"
     class="st36"
     style="fill:#009a00;fill-opacity:1;stroke:#009a00;stroke-width:3.11754;stroke-miterlimit:4;stroke-dasharray:none;stroke-opacity:1"
     sodipodi:nodetypes="cccccccccccccccccccc" /></g><g
   aria-label=".it"
   id="text1271"
   style="font-style:normal;font-variant:normal;font-weight:normal;font-stretch:normal;font-size:50.8509px;line-height:1.25;font-family:'Adobe Hebrew';-inkscape-font-specification:'Adobe Hebrew';letter-spacing:0px;word-spacing:0px;fill:#0060b1;fill-opacity:1;stroke:none;stroke-width:6.35637"
   transform="matrix(1.0244916,0,0,1.0244916,481.54035,260.61938)"><path
     d="m 557.83989,172.90689 c -0.79455,0 -1.13722,-0.69106 -1.81589,-1.08833 -0.67867,-0.39728 -1.61059,-0.44283 -2.00786,-1.1215 -0.39727,-0.67867 -0.59591,-1.41528 -0.59591,-2.20983 0,-0.82765 0.19864,-1.58081 0.59591,-2.25949 0.39727,-0.67867 0.93525,-1.21665 1.61392,-1.61392 0.67867,-0.39727 1.41528,-0.5959 2.20983,-0.5959 H 559.28 c 0.79455,0 1.53116,-0.0968 2.20983,0.30045 0.67867,0.39727 1.21665,1.2307 1.61392,1.90937 0.39727,0.67868 0.59591,1.43184 0.59591,2.25949 0,0.79455 -0.19864,1.53116 -0.59591,2.20983 -0.39727,0.67867 -0.93525,1.21665 -1.61392,1.61392 -0.67867,0.39727 -1.41528,0.59591 -2.20983,0.59591 z"
     style="font-style:normal;font-variant:normal;font-weight:normal;font-stretch:normal;font-family:jellee;-inkscape-font-specification:jellee;fill:#0060b1;fill-opacity:1;stroke-width:6.35637"
     id="path1027"
     sodipodi:nodetypes="sssssssssssssss" /><path
     d="m 570.04239,173.30416 c -0.86076,0 -1.65531,-0.20691 -2.38364,-0.62073 -0.71178,-0.43038 -1.28286,-1.00974 -1.71324,-1.73807 -0.43037,-0.72833 -0.64556,-1.5146 -0.64556,-2.35881 0,-6.35636 1.00094,-8.70896 0,-19.06909 -0.0828,-0.85676 0.21519,-1.64702 0.64556,-2.3588 0.43038,-0.72833 1.00146,-1.30769 1.71324,-1.73807 0.72833,-0.43038 1.32591,-0.54709 2.18667,-0.54709 0.8442,0 1.82744,0.11671 2.55577,0.54709 0.72833,0.43038 1.29941,1.00974 1.71324,1.73807 0.43038,0.71178 0.16691,1.79361 0.15315,2.65425 l -0.29546,18.47819 c -0.0135,0.84409 0.17875,2.31987 -0.25163,3.0482 -0.43038,0.71178 -0.6158,0.88892 -1.34413,1.3193 -0.71178,0.43037 -1.48977,0.64556 -2.33397,0.64556 z m -1.16699,-31.26039 c -0.71178,0 -1.3739,-0.17381 -1.98636,-0.52142 -0.61247,-0.36417 -1.10078,-0.85248 -1.46495,-1.46494 -0.34761,-0.61246 -0.52142,-1.27458 -0.52142,-1.98636 0,-0.71178 0.17381,-1.3739 0.52142,-1.98637 0.36417,-0.61246 0.85248,-1.0925 1.46495,-1.44011 0.61246,-0.36417 1.27458,-0.54625 1.98636,-0.54625 h 2.33398 c 0.71178,0 1.3739,0.18208 1.98636,0.54625 0.61246,0.34761 1.0925,0.82765 1.44011,1.44011 0.36417,0.61247 0.54625,1.27459 0.54625,1.98637 0,0.71178 -0.18208,1.3739 -0.54625,1.98636 -0.34761,0.61246 -0.82765,1.10077 -1.44011,1.46494 -0.61246,0.34761 -1.27458,0.52142 -1.98636,0.52142 z"
     style="font-style:normal;font-variant:normal;font-weight:normal;font-stretch:normal;font-family:jellee;-inkscape-font-specification:jellee;fill:#0060b1;fill-opacity:1;stroke-width:6.35637"
     id="path1029"
     sodipodi:nodetypes="scsssccsscssccssccsccssccsccss" /><path
     d="m 589.09784,173.52763 c -2.185,0 -3.43065,-0.95508 -4.72179,-1.68341 -1.29113,-0.74489 -2.71052,-1.24648 -3.27332,-2.68659 -0.56281,-1.44011 -1.43082,-3.59146 -1.33663,-5.85727 l 0.49242,-11.84619 h -1.41528 c -0.56281,0 -1.08423,-0.1407 -1.56426,-0.4221 -0.48004,-0.28141 -0.86076,-0.66213 -1.14216,-1.14216 -0.26485,-0.48004 -0.39727,-0.99318 -0.39727,-1.53943 0,-0.87731 0.29795,-1.6222 0.89386,-2.23466 0.61246,-0.61247 1.328,0.12744 2.11135,-0.22931 l 1.51376,-0.68939 0.88636,-2.91005 c 0.41479,-1.36179 0.23341,-3.09042 1.09417,-3.81875 0.86076,-0.74489 1.28042,-1.11733 2.63777,-1.11733 1.35735,0 2.44985,0.37244 3.2775,1.11733 0.82765,0.72833 1.24147,1.80428 1.24147,3.22784 v 3.50096 h 3.00438 c 0.5628,0 1.08422,0.1407 1.56426,0.42211 0.48003,0.2814 0.85248,0.66212 1.11733,1.14215 0.2814,0.46349 0.4221,0.97663 0.4221,1.53944 0,0.5628 -0.1407,1.08422 -0.4221,1.56426 -0.26485,0.48003 -0.6373,0.86903 -1.11733,1.16699 -0.48004,0.2814 -1.00146,0.4221 -1.56426,0.4221 h -2.78091 v 11.32227 c 0,0.99318 0.14898,1.75462 0.44693,2.28432 0.31451,0.52969 0.69523,0.89386 1.14216,1.0925 0.46349,0.19863 1.24809,1.05356 1.95987,1.18598 2.03602,0.38072 3.251,-0.38971 3.251,1.43112 0,1.3739 -1.0064,3.49924 -2.23133,4.01238 -1.20837,0.49659 -2.90505,0.74489 -5.09005,0.74489 z"
     style="font-style:normal;font-variant:normal;font-weight:normal;font-stretch:normal;font-family:jellee;-inkscape-font-specification:jellee;fill:#0060b1;fill-opacity:1;stroke-width:6.35637"
     id="path1031"
     sodipodi:nodetypes="scsscsscscscscscscsscsccscscccscs" /></g></g>
</svg>
