<?xml version="1.0" encoding="UTF-8" standalone="no"?>
<svg
   xmlns:dc="http://purl.org/dc/elements/1.1/"
   xmlns:cc="http://creativecommons.org/ns#"
   xmlns:rdf="http://www.w3.org/1999/02/22-rdf-syntax-ns#"
   xmlns:svg="http://www.w3.org/2000/svg"
   xmlns="http://www.w3.org/2000/svg"
   xmlns:xlink="http://www.w3.org/1999/xlink"
   xmlns:sodipodi="http://sodipodi.sourceforge.net/DTD/sodipodi-0.dtd"
   xmlns:inkscape="http://www.inkscape.org/namespaces/inkscape"
   height="176.89999"
   width="596.41925"
   inkscape:version="1.0 (4035a4fb49, 2020-05-01)"
   sodipodi:docname="restiamoaperti.svg"
   id="svg333"
   xml:space="preserve"
   viewBox="0 0 596.41925 176.9"
   version="1.1"
   enable-background="new 0 0 598 176.9"><metadata
   id="metadata337"><rdf:RDF><cc:Work
       rdf:about=""><dc:format>image/svg+xml</dc:format><dc:type
         rdf:resource="http://purl.org/dc/dcmitype/StillImage" /><dc:title></dc:title></cc:Work></rdf:RDF></metadata><sodipodi:namedview
   fit-margin-bottom="0"
   fit-margin-right="0"
   fit-margin-left="0"
   fit-margin-top="0"
   inkscape:current-layer="svg333"
   inkscape:window-maximized="1"
   inkscape:window-y="-9"
   inkscape:window-x="-9"
   inkscape:cy="-53.094576"
   inkscape:cx="275.34193"
   inkscape:zoom="0.89748167"
   showgrid="false"
   id="namedview335"
   inkscape:window-height="1001"
   inkscape:window-width="1920"
   inkscape:pageshadow="2"
   inkscape:pageopacity="0"
   guidetolerance="10"
   gridtolerance="10"
   objecttolerance="10"
   borderopacity="1"
   bordercolor="#666666"
   pagecolor="#ffffff"
   inkscape:document-rotation="0" />
<style
   id="style2"
   type="text/css">
	.st0{fill:url(#SVGID_1_);}
	.st1{fill:#DAD0C9;}
	.st2{clip-path:url(#SVGID_3_);}
	.st3{fill:#E0DFDF;}
	.st4{clip-path:url(#SVGID_5_);}
	.st5{clip-path:url(#SVGID_7_);}
	.st6{fill:#ABD3E0;}
	.st7{clip-path:url(#SVGID_9_);}
	.st8{clip-path:url(#SVGID_11_);}
	.st9{fill:#CDECB0;}
	.st10{clip-path:url(#SVGID_13_);}
	.st11{clip-path:url(#SVGID_15_);}
	.st12{clip-path:url(#SVGID_17_);}
	.st13{clip-path:url(#SVGID_19_);}
	.st14{clip-path:url(#SVGID_21_);}
	.st15{clip-path:url(#SVGID_23_);}
	.st16{fill:#FFFFFF;}
	.st17{clip-path:url(#SVGID_25_);}
	.st18{clip-path:url(#SVGID_27_);}
	.st19{clip-path:url(#SVGID_29_);}
	.st20{clip-path:url(#SVGID_31_);}
	.st21{clip-path:url(#SVGID_33_);}
	.st22{clip-path:url(#SVGID_35_);}
	.st23{clip-path:url(#SVGID_37_);}
	.st24{clip-path:url(#SVGID_39_);}
	.st25{clip-path:url(#SVGID_41_);}
	.st26{clip-path:url(#SVGID_43_);}
	.st27{clip-path:url(#SVGID_45_);}
	.st28{clip-path:url(#SVGID_47_);}
	.st29{fill:#FCD6A5;}
	.st30{clip-path:url(#SVGID_49_);}
	.st31{clip-path:url(#SVGID_51_);fill:#E0DFDF;}
	.st32{clip-path:url(#SVGID_53_);fill:#FCD6A5;}
	.st33{clip-path:url(#SVGID_55_);}
	.st34{fill:#F12A2A;}
	.st35{fill:#009A00;}
	.st36{fill:#FFC900;}
	.st37{fill:#0060B1;}
</style>




				<linearGradient
   gradientUnits="userSpaceOnUse"
   gradientTransform="translate(0,-622)"
   y2="785.09998"
   y1="785.09998"
   x2="173.5"
   x1="0.80000001"
   id="SVGID_1_">
				<stop
   id="stop4"
   offset="0"
   stop-color="#E0DFDF" />
				<stop
   id="stop6"
   offset=".053881"
   stop-color="#DAD0C9" />
				<stop
   id="stop8"
   offset=".128"
   stop-color="#E0DFDF" />
				<stop
   id="stop10"
   offset=".8798"
   stop-color="#E0DFDF" />
				<stop
   id="stop12"
   offset=".9445"
   stop-color="#DAD0C9" />
				<stop
   id="stop14"
   offset="1"
   stop-color="#E0DFDF" />
			</linearGradient>
			<path
   style="fill:url(#SVGID_1_)"
   id="path17"
   d="M 173.5,149.3 H 0.8 v 19 c 0.2,4.9 6.9,8.6 16.3,8.6 h 140.3 c 9.5,0 16,-3.7 16.1,-8.6 z"
   class="st0" />



						<path
   id="path19"
   d="M 158.1,158.2 H 16.2 C 6.1,158.2 -0.7,153.4 1.1,147.5 L 25.8,64.8 C 27.5,58.8 34.3,54 41,54 l 92.7,0.3 c 6.6,0 13.4,4.9 15.1,10.7 l 24.5,82.4 c 1.8,5.9 -5,10.8 -15.2,10.8 z"
   class="st1" />



									<defs
   id="defs22">
										<path
   d="M 158.1,158.2 H 16.2 C 6.1,158.2 -0.7,153.4 1.1,147.5 L 25.8,64.8 C 27.5,58.8 34.3,54 41,54 l 92.7,0.3 c 6.6,0 13.4,4.9 15.1,10.7 l 24.5,82.4 c 1.8,5.9 -5,10.8 -15.2,10.8 z"
   id="SVGID_2_" />
									</defs>
									<clipPath
   id="SVGID_3_">
										<use
   height="100%"
   width="100%"
   y="0"
   x="0"
   id="use24"
   xlink:href="#SVGID_2_" />
									</clipPath>
									<g
   id="g29"
   clip-path="url(#SVGID_3_)"
   class="st2">
										<polygon
   id="polygon27"
   points="22.1,87.6 22.3,85 85.6,74.9 84.9,98 40.6,99.5 "
   class="st3" />
									</g>




									<defs
   id="defs32">
										<path
   d="M 158.1,158.2 H 16.2 C 6.1,158.2 -0.7,153.4 1.1,147.5 L 25.8,64.8 C 27.5,58.8 34.3,54 41,54 l 92.7,0.3 c 6.6,0 13.4,4.9 15.1,10.7 l 24.5,82.4 c 1.8,5.9 -5,10.8 -15.2,10.8 z"
   id="SVGID_4_" />
									</defs>
									<clipPath
   id="SVGID_5_">
										<use
   height="100%"
   width="100%"
   y="0"
   x="0"
   id="use34"
   xlink:href="#SVGID_4_" />
									</clipPath>
									<g
   id="g39"
   clip-path="url(#SVGID_5_)"
   class="st4">
										<polygon
   id="polygon37"
   points="165.7,98.2 143.8,110.1 159.2,129.9 177.4,128.4 "
   class="st3" />
									</g>




									<defs
   id="defs42">
										<path
   d="M 158.1,158.2 H 16.2 C 6.1,158.2 -0.7,153.4 1.1,147.5 L 25.8,64.8 C 27.5,58.8 34.3,54 41,54 l 92.7,0.3 c 6.6,0 13.4,4.9 15.1,10.7 l 24.5,82.4 c 1.8,5.9 -5,10.8 -15.2,10.8 z"
   id="SVGID_6_" />
									</defs>
									<clipPath
   id="SVGID_7_">
										<use
   height="100%"
   width="100%"
   y="0"
   x="0"
   id="use44"
   xlink:href="#SVGID_6_" />
									</clipPath>
									<g
   id="g49"
   clip-path="url(#SVGID_7_)"
   class="st5">
										<polygon
   id="polygon47"
   points="87.5,161.6 87.6,136.2 95.3,137.4 114.7,164.6 "
   class="st6" />
									</g>




									<defs
   id="defs52">
										<path
   d="M 158.1,158.2 H 16.2 C 6.1,158.2 -0.7,153.4 1.1,147.5 L 25.8,64.8 C 27.5,58.8 34.3,54 41,54 l 92.7,0.3 c 6.6,0 13.4,4.9 15.1,10.7 l 24.5,82.4 c 1.8,5.9 -5,10.8 -15.2,10.8 z"
   id="SVGID_8_" />
									</defs>
									<clipPath
   id="SVGID_9_">
										<use
   height="100%"
   width="100%"
   y="0"
   x="0"
   id="use54"
   xlink:href="#SVGID_8_" />
									</clipPath>
									<g
   id="g59"
   clip-path="url(#SVGID_9_)"
   class="st7">
										<polygon
   id="polygon57"
   points="44.2,160.4 7.5,160.4 16.3,127.8 49,127.9 "
   class="st6" />
									</g>




									<defs
   id="defs62">
										<path
   d="M 158.1,158.2 H 16.2 C 6.1,158.2 -0.7,153.4 1.1,147.5 L 25.8,64.8 C 27.5,58.8 34.3,54 41,54 l 92.7,0.3 c 6.6,0 13.4,4.9 15.1,10.7 l 24.5,82.4 c 1.8,5.9 -5,10.8 -15.2,10.8 z"
   id="SVGID_10_" />
									</defs>
									<clipPath
   id="SVGID_11_">
										<use
   height="100%"
   width="100%"
   y="0"
   x="0"
   id="use64"
   xlink:href="#SVGID_10_" />
									</clipPath>
									<g
   id="g69"
   clip-path="url(#SVGID_11_)"
   class="st8">
										<polygon
   id="polygon67"
   points="86.3,44.3 87.6,80.2 115.2,82.4 113.4,44.4 "
   class="st9" />
									</g>




									<defs
   id="defs72">
										<path
   d="M 158.1,158.2 H 16.2 C 6.1,158.2 -0.7,153.4 1.1,147.5 L 25.8,64.8 C 27.5,58.8 34.3,54 41,54 l 92.7,0.3 c 6.6,0 13.4,4.9 15.1,10.7 l 24.5,82.4 c 1.8,5.9 -5,10.8 -15.2,10.8 z"
   id="SVGID_12_" />
									</defs>
									<clipPath
   id="SVGID_13_">
										<use
   height="100%"
   width="100%"
   y="0"
   x="0"
   id="use74"
   xlink:href="#SVGID_12_" />
									</clipPath>
									<g
   id="g79"
   clip-path="url(#SVGID_13_)"
   class="st10">
										<polygon
   id="polygon77"
   points="146.7,53.6 134.4,68 145.8,77.7 161.6,91.7 "
   class="st9" />
									</g>




									<defs
   id="defs82">
										<path
   d="M 158.1,158.2 H 16.2 C 6.1,158.2 -0.7,153.4 1.1,147.5 L 25.8,64.8 C 27.5,58.8 34.3,54 41,54 l 92.7,0.3 c 6.6,0 13.4,4.9 15.1,10.7 l 24.5,82.4 c 1.8,5.9 -5,10.8 -15.2,10.8 z"
   id="SVGID_14_" />
									</defs>
									<clipPath
   id="SVGID_15_">
										<use
   height="100%"
   width="100%"
   y="0"
   x="0"
   id="use84"
   xlink:href="#SVGID_14_" />
									</clipPath>
									<g
   id="g89"
   clip-path="url(#SVGID_15_)"
   class="st11">
										<polygon
   id="polygon87"
   points="182.9,155.9 171.2,129.1 104.1,129.7 100.1,136.6 158.6,161.9 "
   class="st9" />
									</g>




									<defs
   id="defs92">
										<path
   d="M 158.1,158.2 H 16.2 C 6.1,158.2 -0.7,153.4 1.1,147.5 L 25.8,64.8 C 27.5,58.8 34.3,54 41,54 l 92.7,0.3 c 6.6,0 13.4,4.9 15.1,10.7 l 24.5,82.4 c 1.8,5.9 -5,10.8 -15.2,10.8 z"
   id="SVGID_16_" />
									</defs>
									<clipPath
   id="SVGID_17_">
										<use
   height="100%"
   width="100%"
   y="0"
   x="0"
   id="use94"
   xlink:href="#SVGID_16_" />
									</clipPath>
									<g
   id="g99"
   clip-path="url(#SVGID_17_)"
   class="st12">
										<polygon
   id="polygon97"
   points="10.5,64.9 86.9,53 85,73.8 3.9,86.9 "
   class="st6" />
									</g>




									<defs
   id="defs102">
										<path
   d="M 158.1,158.2 H 16.2 C 6.1,158.2 -0.7,153.4 1.1,147.5 L 25.8,64.8 C 27.5,58.8 34.3,54 41,54 l 92.7,0.3 c 6.6,0 13.4,4.9 15.1,10.7 l 24.5,82.4 c 1.8,5.9 -5,10.8 -15.2,10.8 z"
   id="SVGID_18_" />
									</defs>
									<clipPath
   id="SVGID_19_">
										<use
   height="100%"
   width="100%"
   y="0"
   x="0"
   id="use104"
   xlink:href="#SVGID_18_" />
									</clipPath>
									<g
   id="g109"
   clip-path="url(#SVGID_19_)"
   class="st13">
										<polygon
   id="polygon107"
   points="137.9,108.6 117.8,84.1 133.9,66.4 160.5,90.4 161.6,100.6 "
   class="st6" />
									</g>




									<defs
   id="defs112">
										<path
   d="M 158.1,158.2 H 16.2 C 6.1,158.2 -0.7,153.4 1.1,147.5 L 25.8,64.8 C 27.5,58.8 34.3,54 41,54 l 92.7,0.3 c 6.6,0 13.4,4.9 15.1,10.7 l 24.5,82.4 c 1.8,5.9 -5,10.8 -15.2,10.8 z"
   id="SVGID_20_" />
									</defs>
									<clipPath
   id="SVGID_21_">
										<use
   height="100%"
   width="100%"
   y="0"
   x="0"
   id="use114"
   xlink:href="#SVGID_20_" />
									</clipPath>
									<g
   id="g119"
   clip-path="url(#SVGID_21_)"
   class="st14">
										<polygon
   id="polygon117"
   points="-4.3,128.6 -5.2,116.4 39.2,101 73.2,120.9 65.8,129 "
   class="st9" />
									</g>




									<defs
   id="defs122">
										<path
   d="M 158.1,158.2 H 16.2 C 6.1,158.2 -0.7,153.4 1.1,147.5 L 25.8,64.8 C 27.5,58.8 34.3,54 41,54 l 92.7,0.3 c 6.6,0 13.4,4.9 15.1,10.7 l 24.5,82.4 c 1.8,5.9 -5,10.8 -15.2,10.8 z"
   id="SVGID_22_" />
									</defs>
									<clipPath
   id="SVGID_23_">
										<use
   height="100%"
   width="100%"
   y="0"
   x="0"
   id="use124"
   xlink:href="#SVGID_22_" />
									</clipPath>
									<g
   id="g129"
   clip-path="url(#SVGID_23_)"
   class="st15">
										<polygon
   id="polygon127"
   points="13.3,67.5 14,62.3 112.8,46.7 114.5,52 "
   class="st16" />
									</g>




									<defs
   id="defs132">
										<path
   d="M 158.1,158.2 H 16.2 C 6.1,158.2 -0.7,153.4 1.1,147.5 L 25.8,64.8 C 27.5,58.8 34.3,54 41,54 l 92.7,0.3 c 6.6,0 13.4,4.9 15.1,10.7 l 24.5,82.4 c 1.8,5.9 -5,10.8 -15.2,10.8 z"
   id="SVGID_24_" />
									</defs>
									<clipPath
   id="SVGID_25_">
										<use
   height="100%"
   width="100%"
   y="0"
   x="0"
   id="use134"
   xlink:href="#SVGID_24_" />
									</clipPath>
									<g
   id="g139"
   clip-path="url(#SVGID_25_)"
   class="st17">
										<polygon
   id="polygon137"
   points="83.4,123.7 84.2,47.7 90,47.7 91.5,123.7 "
   class="st16" />
									</g>




									<defs
   id="defs142">
										<path
   d="M 158.1,158.2 H 16.2 C 6.1,158.2 -0.7,153.4 1.1,147.5 L 25.8,64.8 C 27.5,58.8 34.3,54 41,54 l 92.7,0.3 c 6.6,0 13.4,4.9 15.1,10.7 l 24.5,82.4 c 1.8,5.9 -5,10.8 -15.2,10.8 z"
   id="SVGID_26_" />
									</defs>
									<clipPath
   id="SVGID_27_">
										<use
   height="100%"
   width="100%"
   y="0"
   x="0"
   id="use144"
   xlink:href="#SVGID_26_" />
									</clipPath>
									<g
   id="g149"
   clip-path="url(#SVGID_27_)"
   class="st18">
										<polygon
   id="polygon147"
   points="119.2,83.4 165.5,127.4 159.1,130.1 112.4,84.7 110.9,47.3 116.7,47.6 "
   class="st16" />
									</g>




									<defs
   id="defs152">
										<path
   d="M 158.1,158.2 H 16.2 C 6.1,158.2 -0.7,153.4 1.1,147.5 L 25.8,64.8 C 27.5,58.8 34.3,54 41,54 l 92.7,0.3 c 6.6,0 13.4,4.9 15.1,10.7 l 24.5,82.4 c 1.8,5.9 -5,10.8 -15.2,10.8 z"
   id="SVGID_28_" />
									</defs>
									<clipPath
   id="SVGID_29_">
										<use
   height="100%"
   width="100%"
   y="0"
   x="0"
   id="use154"
   xlink:href="#SVGID_28_" />
									</clipPath>
									<g
   id="g159"
   clip-path="url(#SVGID_29_)"
   class="st19">
										<polygon
   id="polygon157"
   points="169.1,131.8 97.5,131.7 97.3,126.4 167.5,126.4 "
   class="st16" />
									</g>




									<defs
   id="defs162">
										<path
   d="M 158.1,158.2 H 16.2 C 6.1,158.2 -0.7,153.4 1.1,147.5 L 25.8,64.8 C 27.5,58.8 34.3,54 41,54 l 92.7,0.3 c 6.6,0 13.4,4.9 15.1,10.7 l 24.5,82.4 c 1.8,5.9 -5,10.8 -15.2,10.8 z"
   id="SVGID_30_" />
									</defs>
									<clipPath
   id="SVGID_31_">
										<use
   height="100%"
   width="100%"
   y="0"
   x="0"
   id="use164"
   xlink:href="#SVGID_30_" />
									</clipPath>
									<g
   id="g169"
   clip-path="url(#SVGID_31_)"
   class="st20">
										<polygon
   id="polygon167"
   points="142.9,54.7 148.2,58.6 117.3,87 87,82.9 88.2,77.6 114.3,81.2 "
   class="st16" />
									</g>




									<defs
   id="defs172">
										<path
   d="M 158.1,158.2 H 16.2 C 6.1,158.2 -0.7,153.4 1.1,147.5 L 25.8,64.8 C 27.5,58.8 34.3,54 41,54 l 92.7,0.3 c 6.6,0 13.4,4.9 15.1,10.7 l 24.5,82.4 c 1.8,5.9 -5,10.8 -15.2,10.8 z"
   id="SVGID_32_" />
									</defs>
									<clipPath
   id="SVGID_33_">
										<use
   height="100%"
   width="100%"
   y="0"
   x="0"
   id="use174"
   xlink:href="#SVGID_32_" />
									</clipPath>
									<g
   id="g179"
   clip-path="url(#SVGID_33_)"
   class="st21">
										<polygon
   id="polygon177"
   points="156.5,90.1 133.7,67.3 138.6,64.5 161.8,87.4 "
   class="st16" />
									</g>




									<defs
   id="defs182">
										<path
   d="M 158.1,158.2 H 16.2 C 6.1,158.2 -0.7,153.4 1.1,147.5 L 25.8,64.8 C 27.5,58.8 34.3,54 41,54 l 92.7,0.3 c 6.6,0 13.4,4.9 15.1,10.7 l 24.5,82.4 c 1.8,5.9 -5,10.8 -15.2,10.8 z"
   id="SVGID_34_" />
									</defs>
									<clipPath
   id="SVGID_35_">
										<use
   height="100%"
   width="100%"
   y="0"
   x="0"
   id="use184"
   xlink:href="#SVGID_34_" />
									</clipPath>
									<g
   id="g189"
   clip-path="url(#SVGID_35_)"
   class="st22">
										<polygon
   id="polygon187"
   points="142.8,112.2 137.8,107.6 159.9,97 165.1,101.6 "
   class="st16" />
									</g>




									<defs
   id="defs192">
										<path
   d="M 158.1,158.2 H 16.2 C 6.1,158.2 -0.7,153.4 1.1,147.5 L 25.8,64.8 C 27.5,58.8 34.3,54 41,54 l 92.7,0.3 c 6.6,0 13.4,4.9 15.1,10.7 l 24.5,82.4 c 1.8,5.9 -5,10.8 -15.2,10.8 z"
   id="SVGID_36_" />
									</defs>
									<clipPath
   id="SVGID_37_">
										<use
   height="100%"
   width="100%"
   y="0"
   x="0"
   id="use194"
   xlink:href="#SVGID_36_" />
									</clipPath>
									<g
   id="g199"
   clip-path="url(#SVGID_37_)"
   class="st23">
										<polygon
   id="polygon197"
   points="87.7,102.3 39.9,103.5 0.5,116.6 -1.5,111.8 39,98.1 87.5,96.9 "
   class="st16" />
									</g>




									<defs
   id="defs202">
										<path
   d="M 158.1,158.2 H 16.2 C 6.1,158.2 -0.7,153.4 1.1,147.5 L 25.8,64.8 C 27.5,58.8 34.3,54 41,54 l 92.7,0.3 c 6.6,0 13.4,4.9 15.1,10.7 l 24.5,82.4 c 1.8,5.9 -5,10.8 -15.2,10.8 z"
   id="SVGID_38_" />
									</defs>
									<clipPath
   id="SVGID_39_">
										<use
   height="100%"
   width="100%"
   y="0"
   x="0"
   id="use204"
   xlink:href="#SVGID_38_" />
									</clipPath>
									<g
   id="g209"
   clip-path="url(#SVGID_39_)"
   class="st24">
										<polygon
   id="polygon207"
   points="79.2,130.9 -0.4,130.9 1.3,125.5 79.4,125.6 "
   class="st16" />
									</g>




									<defs
   id="defs212">
										<path
   d="M 158.1,158.2 H 16.2 C 6.1,158.2 -0.7,153.4 1.1,147.5 L 25.8,64.8 C 27.5,58.8 34.3,54 41,54 l 92.7,0.3 c 6.6,0 13.4,4.9 15.1,10.7 l 24.5,82.4 c 1.8,5.9 -5,10.8 -15.2,10.8 z"
   id="SVGID_40_" />
									</defs>
									<clipPath
   id="SVGID_41_">
										<use
   height="100%"
   width="100%"
   y="0"
   x="0"
   id="use214"
   xlink:href="#SVGID_40_" />
									</clipPath>
									<g
   id="g219"
   clip-path="url(#SVGID_41_)"
   class="st25">
										<polygon
   id="polygon217"
   points="11.5,160.4 2.2,160.4 11.4,128.7 19.6,128.7 "
   class="st16" />
									</g>




									<defs
   id="defs222">
										<path
   d="M 158.1,158.2 H 16.2 C 6.1,158.2 -0.7,153.4 1.1,147.5 L 25.8,64.8 C 27.5,58.8 34.3,54 41,54 l 92.7,0.3 c 6.6,0 13.4,4.9 15.1,10.7 l 24.5,82.4 c 1.8,5.9 -5,10.8 -15.2,10.8 z"
   id="SVGID_42_" />
									</defs>
									<clipPath
   id="SVGID_43_">
										<use
   height="100%"
   width="100%"
   y="0"
   x="0"
   id="use224"
   xlink:href="#SVGID_42_" />
									</clipPath>
									<g
   id="g229"
   clip-path="url(#SVGID_43_)"
   class="st26">
										<polygon
   id="polygon227"
   points="47.8,158.9 38.5,158.9 43.5,128.7 51.8,128.8 "
   class="st16" />
									</g>




									<defs
   id="defs232">
										<path
   d="M 158.1,158.2 H 16.2 C 6.1,158.2 -0.7,153.4 1.1,147.5 L 25.8,64.8 C 27.5,58.8 34.3,54 41,54 l 92.7,0.3 c 6.6,0 13.4,4.9 15.1,10.7 l 24.5,82.4 c 1.8,5.9 -5,10.8 -15.2,10.8 z"
   id="SVGID_44_" />
									</defs>
									<clipPath
   id="SVGID_45_">
										<use
   height="100%"
   width="100%"
   y="0"
   x="0"
   id="use234"
   xlink:href="#SVGID_44_" />
									</clipPath>
									<g
   id="g239"
   clip-path="url(#SVGID_45_)"
   class="st27">
										<polygon
   id="polygon237"
   points="82.9,118.8 115.8,159.3 107.6,161.6 91.2,142.3 91.4,158.9 82.2,158.9 "
   class="st16" />
									</g>




									<defs
   id="defs242">
										<path
   d="M 158.1,158.2 H 16.2 C 6.1,158.2 -0.7,153.4 1.1,147.5 L 25.8,64.8 C 27.5,58.8 34.3,54 41,54 l 92.7,0.3 c 6.6,0 13.4,4.9 15.1,10.7 l 24.5,82.4 c 1.8,5.9 -5,10.8 -15.2,10.8 z"
   id="SVGID_46_" />
									</defs>
									<clipPath
   id="SVGID_47_">
										<use
   height="100%"
   width="100%"
   y="0"
   x="0"
   id="use244"
   xlink:href="#SVGID_46_" />
									</clipPath>
									<g
   id="g249"
   clip-path="url(#SVGID_47_)"
   class="st28">
										<polygon
   id="polygon247"
   points="151.8,162.5 95,135.6 100.2,131.5 156.8,158.4 "
   class="st29" />
									</g>




									<defs
   id="defs252">
										<path
   d="M 158.1,158.2 H 16.2 C 6.1,158.2 -0.7,153.4 1.1,147.5 L 25.8,64.8 C 27.5,58.8 34.3,54 41,54 l 92.7,0.3 c 6.6,0 13.4,4.9 15.1,10.7 l 24.5,82.4 c 1.8,5.9 -5,10.8 -15.2,10.8 z"
   id="SVGID_48_" />
									</defs>
									<clipPath
   id="SVGID_49_">
										<use
   height="100%"
   width="100%"
   y="0"
   x="0"
   id="use254"
   xlink:href="#SVGID_48_" />
									</clipPath>
									<g
   id="g259"
   clip-path="url(#SVGID_49_)"
   class="st30">
										<polygon
   id="polygon257"
   points="82.4,130.3 13.2,84.8 18.9,80.7 87.8,126.2 "
   class="st29" />
									</g>




									<defs
   id="defs262">
										<path
   d="M 158.1,158.2 H 16.2 C 6.1,158.2 -0.7,153.4 1.1,147.5 L 25.8,64.8 C 27.5,58.8 34.3,54 41,54 l 92.7,0.3 c 6.6,0 13.4,4.9 15.1,10.7 l 24.5,82.4 c 1.8,5.9 -5,10.8 -15.2,10.8 z"
   id="SVGID_50_" />
									</defs>
									<clipPath
   id="SVGID_51_">
										<use
   height="100%"
   width="100%"
   y="0"
   x="0"
   id="use264"
   xlink:href="#SVGID_50_" />
									</clipPath>
									<path
   id="path267"
   clip-path="url(#SVGID_51_)"
   d="m 108.6,129.2 c 0.6,7.6 -9,13.8 -21.4,13.8 -12.4,0 -22,-6.2 -21.4,-13.8 0.6,-7.6 10.2,-13.8 21.4,-13.8 11.2,0 20.8,6.2 21.4,13.8 z"
   class="st31" />




									<defs
   id="defs270">
										<path
   d="M 158.1,158.2 H 16.2 C 6.1,158.2 -0.7,153.4 1.1,147.5 L 25.8,64.8 C 27.5,58.8 34.3,54 41,54 l 92.7,0.3 c 6.6,0 13.4,4.9 15.1,10.7 l 24.5,82.4 c 1.8,5.9 -5,10.8 -15.2,10.8 z"
   id="SVGID_52_" />
									</defs>
									<clipPath
   id="SVGID_53_">
										<use
   height="100%"
   width="100%"
   y="0"
   x="0"
   id="use272"
   xlink:href="#SVGID_52_" />
									</clipPath>
									<path
   id="path275"
   clip-path="url(#SVGID_53_)"
   d="m 87.2,145.7 c -15,0 -26.4,-7.4 -25.5,-16.5 0.9,-9.1 12.3,-16.5 25.6,-16.5 13.2,0 24.7,7.4 25.5,16.5 0.8,9.1 -10.7,16.5 -25.6,16.5 z m 0,-27.6 c -9.1,0 -16.9,5 -17.3,11.1 -0.4,6.1 7.3,11.1 17.2,11.1 9.9,0 17.6,-5 17.3,-11.1 -0.4,-6.1 -8.1,-11.1 -17.2,-11.1 z"
   class="st32" />




									<defs
   id="defs278">
										<path
   d="M 158.1,158.2 H 16.2 C 6.1,158.2 -0.7,153.4 1.1,147.5 L 25.8,64.8 C 27.5,58.8 34.3,54 41,54 l 92.7,0.3 c 6.6,0 13.4,4.9 15.1,10.7 l 24.5,82.4 c 1.8,5.9 -5,10.8 -15.2,10.8 z"
   id="SVGID_54_" />
									</defs>
									<clipPath
   id="SVGID_55_">
										<use
   height="100%"
   width="100%"
   y="0"
   x="0"
   id="use280"
   xlink:href="#SVGID_54_" />
									</clipPath>
									<g
   id="g285"
   clip-path="url(#SVGID_55_)"
   class="st33">
										<polygon
   id="polygon283"
   points="8.1,88.4 8.4,83.1 86.4,70.2 87.8,75.4 "
   class="st16" />
									</g>







		<path
   id="path287"
   d="M 86.5,0 C 60.7,0 39.7,21 39.7,46.8 c 0,32 41.9,79 43.6,81 1.7,1.9 4.6,1.9 6.3,0 1.8,-2 43.6,-49 43.6,-81 C 133.2,21 112.3,0 86.5,0 Z"
   class="st34" />
		<path
   id="path289"
   d="m 16,96.7 c -8.8,0 -16,7.2 -16,16 0,11 14.3,27.1 15,27.8 0.6,0.6 1.6,0.6 2.1,0 0.6,-0.7 15,-16.8 15,-27.8 0,-8.8 -7.2,-16 -16.1,-16 z"
   class="st35" />
		<path
   id="path291"
   d="m 157.5,57.4 c -8.8,0 -16,7.2 -16,16 0,11 14.3,27.1 15,27.8 0.6,0.6 1.6,0.6 2.1,0 0.6,-0.7 15,-16.8 15,-27.8 -0.1,-8.8 -7.2,-16 -16.1,-16 z"
   class="st36" />
		<path
   id="path293"
   d="m 133.3,107.1 c -8.8,0 -16,7.2 -16,16 0,11 14.3,27.1 15,27.8 0.6,0.6 1.6,0.6 2.1,0 0.6,-0.7 15,-16.8 15,-27.8 -0.1,-8.8 -7.3,-16 -16.1,-16 z"
   class="st37" />


				<path
   id="path295"
   d="m 140.4,121.2 c -1.9,-2.7 -4.3,-2.1 -5.8,-1.7 -0.2,0 -0.3,0.1 -0.5,0.1 0.2,-1.7 1.1,-3 2.7,-4 l -0.7,-1.1 c -0.9,0.5 -1.6,1.1 -2.1,1.8 -0.2,-0.6 -0.5,-1.2 -0.9,-1.6 -0.8,-0.8 -2,-1.2 -3.6,-1.2 h -0.6 v 0.6 c 0,1.6 0.4,2.8 1.2,3.6 0.7,0.7 1.6,1.1 2.8,1.2 0,0.2 -0.1,0.4 -0.1,0.6 -0.2,0 -0.4,-0.1 -0.6,-0.1 -1.6,-0.4 -3.9,-1 -5.8,1.7 -0.9,1.3 -1.2,3.1 -0.8,5.1 0.5,2.4 1.9,4.9 3.3,5.8 1.7,1.1 3.1,0.6 4,0.3 0.2,-0.1 0.5,-0.2 0.6,-0.2 0.1,0 0.4,0.1 0.6,0.2 0.5,0.2 1.1,0.4 1.8,0.4 0.6,0 1.4,-0.2 2.1,-0.7 1.4,-0.9 2.8,-3.4 3.3,-5.8 0.3,-1.9 0,-3.6 -0.9,-5 z"
   class="st16" />




				<path
   id="path297"
   d="m 150.9,71.2 c 0.2,0.1 0.8,0.6 1.9,1.3 1,0.7 1.8,1.3 2.4,1.7 0.1,0 0.2,0.1 0.4,0.3 0.2,0.1 0.4,0.3 0.5,0.3 0.1,0.1 0.3,0.2 0.5,0.3 0.2,0.1 0.4,0.2 0.5,0.2 0.2,0.1 0.3,0.1 0.5,0.1 0.1,0 0.3,0 0.5,-0.1 0.2,-0.1 0.3,-0.1 0.5,-0.2 0.2,-0.1 0.3,-0.2 0.5,-0.3 0.1,-0.1 0.3,-0.2 0.5,-0.3 0.2,-0.1 0.3,-0.2 0.4,-0.3 0.6,-0.4 2,-1.4 4.3,-3 0.4,-0.3 0.8,-0.7 1.1,-1.1 0.3,-0.4 0.4,-0.9 0.4,-1.4 0,-0.4 -0.1,-0.7 -0.4,-1 -0.3,-0.3 -0.6,-0.4 -1,-0.4 H 151 c -0.5,0 -0.8,0.2 -1.1,0.5 -0.3,0.3 -0.4,0.7 -0.4,1.2 0,0.4 0.2,0.8 0.5,1.2 0.2,0.4 0.5,0.7 0.9,1 z"
   class="st16" />
				<path
   id="path299"
   d="m 164.7,72.1 c -2,1.3 -3.5,2.4 -4.5,3.1 -0.3,0.3 -0.6,0.5 -0.8,0.6 -0.2,0.1 -0.5,0.3 -0.9,0.4 -0.4,0.1 -0.7,0.2 -1,0.2 -0.3,0 -0.6,-0.1 -1,-0.2 -0.4,-0.1 -0.6,-0.3 -0.9,-0.4 -0.2,-0.1 -0.5,-0.3 -0.8,-0.6 -0.8,-0.6 -2.3,-1.6 -4.5,-3.1 -0.3,-0.2 -0.7,-0.5 -0.9,-0.8 v 7.2 c 0,0.4 0.1,0.7 0.4,1 0.3,0.3 0.6,0.4 1,0.4 h 13.4 c 0.4,0 0.7,-0.1 1,-0.4 0.3,-0.3 0.4,-0.6 0.4,-1 v -7.2 c -0.2,0.3 -0.5,0.6 -0.9,0.8 z"
   class="st16" />


		<path
   id="path301"
   d="m 18.7,122.1 h -5.4 c -0.3,0 -0.5,-0.2 -0.5,-0.5 v -4.9 h -5 c -0.3,0 -0.5,-0.2 -0.5,-0.5 v -5.4 c 0,-0.3 0.2,-0.5 0.5,-0.5 h 4.9 v -4.9 c 0,-0.3 0.2,-0.5 0.5,-0.5 h 5.4 c 0.3,0 0.5,0.2 0.5,0.5 v 4.9 H 24 c 0.3,0 0.5,0.2 0.5,0.5 v 5.4 c 0,0.3 -0.2,0.5 -0.5,0.5 h -4.9 v 4.9 c 0.1,0.3 -0.1,0.5 -0.4,0.5 z"
   class="st16" />
		<circle
   id="circle303"
   r="32.5"
   cy="47.5"
   cx="86.699997"
   class="st16" />
		<path
   id="path305"
   d="m 108.8,29.9 c -0.5,-1.1 -1.1,-1.7 -2.4,-2.6 -1.1,-0.8 -2.8,-0.4 -3.7,0.5 -4.7,4.6 -9.2,9.5 -13.3,14.6 -2,2.5 -4.9,5.5 -6.7,8.7 C 81.8,50.4 81,49.7 80.2,49 77.6,46.6 74.8,43.6 71.5,42.1 68.8,40.8 66.8,42 65.1,44.2 64.6,44.9 64,46 64,46.9 c -0.7,0.7 -0.9,1.9 0,3 5.7,7 12.8,12.5 20.3,17.5 1,0.7 2.9,0.5 3.7,-0.5 8.1,-10.3 15.7,-21.7 22.3,-33 1.2,-2 0,-3.6 -1.5,-4 z"
   class="st34" />




				
				


				
				
				
				
				



			
			
			
			
			
			



<g
   id="g1045"
   transform="matrix(0.92372462,0,0,0.92372462,31.916387,8.3199304)"><path
     class="st37"
     d="m 441.8842,61.564077 c -7.6303,14.691179 -17.31054,28.357393 -23.57422,43.731883 0.34166,0.56942 0.34166,1.36662 0.45554,2.04993 1.02496,0.7972 0.004,0.2297 1.3705,0.45748 1.13885,-0.56943 1.93604,-1.48051 3.18878,-1.36663 2.61935,-5.46648 4.97743,-11.589482 7.36901,-16.714312 7.85808,-0.113885 16.07359,0.113885 25.98161,0.45554 2.96101,3.985979 4.78316,8.996921 7.97195,13.096782 -0.0409,0.99308 1.96197,4.04099 2.96101,5.01095 2.84713,0.45554 4.66929,-1.70828 5.92203,-3.64432 -0.91108,-1.70829 -1.25274,-4.21376 -2.96101,-5.238727 -7.06089,-12.982894 -11.74596,-26.535222 -19.37626,-39.17647 -0.11388,-0.45554 -0.34166,-0.797196 -0.22778,-1.594391 -1.02496,0.227769 -2.50547,-1.936048 -2.04993,-2.733243 -0.22776,-0.341656 -0.56942,-0.569426 -1.36662,-0.455541 0,-0.45554 0.68332,-0.22777 0.45554,-0.91108 -1.93605,-0.455541 -1.9064,-0.370384 -4.41188,1.565663 0.34166,1.822162 -1.36661,3.530438 -1.70827,5.466486 z M 453.47083,81.5227 c -0.56942,-0.341655 -0.22776,0.113885 -0.6833,0.22777 -0.22777,-0.113885 -0.11389,-0.797196 -0.68331,-0.683311 0.22777,0.341655 0.22777,0.569426 -0.22777,0.683311 -0.45555,-0.455541 -2.16382,0.113884 -1.82216,-0.683311 -0.22778,0.797195 -1.82216,0.569426 -1.5944,0 -4.66928,1.138851 -7.02736,0.0871 -12.0383,0.42875 2.61935,-5.808141 5.92203,-11.502397 9.1108,-17.424422 3.30268,6.149796 6.23017,11.756957 9.64673,17.678983 -0.68331,0.22777 -0.7972,-0.22777 -1.36663,-0.22777 0.11389,0.341654 -0.34166,0.22777 -0.34166,0 z m 0.45555,0 c 0,-0.227771 0.34165,-0.341655 0,-0.455541 -0.22777,0.113886 -0.34165,0.341655 -0.45555,0.455541 z m -2.84712,-0.455541 c 0,0.341655 0.45554,0.22777 0.6833,0.22777 0.11389,-0.22777 -0.45554,-0.113884 -0.6833,-0.22777 z m -0.68332,0 c 0,0.22777 0.34166,0.22777 0.45554,0.22777 0,-0.113884 -0.22777,-0.113884 -0.45554,-0.22777 z m -1.36662,0 c 0,0.22777 0.34165,0.22777 0.45554,0.22777 0,-0.113884 -0.22777,-0.113884 -0.45554,-0.22777 z"
     id="path309"
     style="fill:#ffc900;fill-opacity:1;stroke:#ffc900;stroke-width:1.13885;stroke-opacity:1"
     sodipodi:nodetypes="cccccccccccccccccccccccccccccccccccccccccc" /><path
     class="st36"
     d="m 213.72401,86.856634 c 2.95905,3.367184 6.93845,4.693651 10.71377,7.754727 3.46922,2.142754 7.44862,5.101795 10.91784,7.346589 0.20408,4.69365 -4.69365,4.08143 -7.75472,3.06107 -7.85677,-6.938438 -17.95832,-12.244305 -26.83544,-18.876637 -2.85701,-0.102036 -7.14252,0.714251 -10.5097,0.204071 -0.81629,4.795687 1.32647,13.672806 -0.40814,18.876636 -2.24479,0.20408 -3.77533,-0.3061 -5.91808,-1.02036 -0.20408,-0.61221 -0.51018,-1.22443 -1.02036,-1.63257 -0.61222,-12.244306 -0.40815,-24.998792 0.20407,-36.936991 -1.1224,-2.346825 -0.61222,-5.611974 0,-8.162871 4.28551,-1.020359 10.8158,-1.224431 15.81556,-1.836646 2.85701,0.204072 6.5303,0 10.91784,0.204072 6.93844,0.306107 12.55042,2.448861 17.24407,6.93844 3.46922,3.265149 5.91808,9.18323 3.46922,15.815563 -3.57126,5.305866 -10.61174,6.020117 -18.67257,6.734368 0.20407,1.122395 0.91832,1.836646 1.83664,1.530539 z m 11.9382,-12.346343 c 0.10204,-0.408143 0.20408,-0.714251 0.40815,-0.816287 0.51018,-5.20383 -2.5509,-6.734368 -5.1018,-8.979158 -8.87712,-3.877364 -20.61125,-2.959041 -30.81484,-1.632574 0.51018,5.816045 -0.20407,9.693409 0,16.223706 6.5303,0.408144 13.87689,0.306108 21.12143,-0.816287 5.71401,-0.918323 11.22395,-0.51018 14.38706,-3.9794 z"
     id="path311"
     style="stroke-width:1.02036" /><path
     class="st36"
     d="m 283.17319,63.038513 c -1.22443,2.346825 -4.48958,1.22443 -6.73437,1.22443 -9.18323,-0.102036 -20.30514,0.612216 -28.46801,0.204072 -0.51018,3.061077 -0.20407,8.775086 -0.81629,12.550414 10.20359,-0.306107 18.87664,-0.612215 27.8558,0 2.85701,0.612216 4.59162,4.897723 2.85701,7.550656 -10.20359,-0.714251 -21.42754,-1.122395 -31.22299,0.816287 -0.10203,3.877364 0.20408,8.877123 0,12.958558 11.63209,0.306108 23.57029,0.204072 36.937,-0.408143 2.65293,-0.102036 5.30586,-1.020359 6.93844,0.408143 0.71425,2.44886 0,5.30586 -1.42851,6.32622 -7.44862,0 -15.81556,0.10204 -23.97843,0.61222 -6.42826,0.40814 -12.75449,0.3061 -19.69293,0.81628 -1.02036,-1.12239 -3.36718,-1.02036 -4.48958,-2.24479 -0.81628,-2.14275 -0.40814,-5.816038 -0.20407,-8.162863 -0.10203,-11.938199 1.02036,-23.366219 1.22443,-33.2637 -1.53054,-2.142753 -0.20407,-5.407902 2.04072,-5.714009 12.65245,1.020358 23.97843,0.306107 36.52885,0.408143 1.22443,1.530538 3.46922,3.163113 2.65293,5.918082 z"
     id="path313"
     style="stroke-width:1.02036" /><path
     class="st36"
     d="m 332.22302,57.076673 c 3.77532,2.346825 10.50969,8.468979 6.93844,13.774845 -1.22443,0.510179 -3.06108,0.102036 -3.87737,-0.408144 -0.51018,-1.836646 -0.10203,-4.489579 -1.4285,-5.918081 -0.81629,-0.612215 -2.04072,-0.816287 -3.06108,-1.224431 -10.91784,1.020359 -20.91735,-0.102036 -29.48837,4.081436 -1.02036,1.020359 -1.93868,2.040718 -2.857,3.061076 0.10203,0.714252 -0.51018,1.122395 0,1.632575 -1.22443,5.816045 10.71377,3.265148 15.20334,4.081435 4.99976,0.612215 10.40767,0.816287 15.6115,1.224431 1.73461,0.714251 3.87736,1.22443 5.91808,1.632574 7.75472,3.061077 11.63209,13.978917 6.53029,21.733641 -5.20383,4.89773 -14.08095,5.71401 -22.34586,6.12216 -6.53029,-0.91833 -13.6728,-0.81629 -20.50921,-2.65294 -3.26515,-2.34682 -5.91808,-7.958796 -4.08143,-13.366698 4.59161,-1.326466 5.20383,3.265149 6.32622,6.530297 9.08119,2.040718 22.03975,2.857001 31.22298,0 2.44886,-1.326467 5.1018,-2.448861 6.32623,-5.101794 0.40814,-1.836646 0.20407,-4.285508 -1.22443,-5.305867 -5.30587,-3.673292 -12.85653,-3.061076 -19.69293,-3.673292 -7.14251,-0.510179 -14.4891,0.306108 -19.48885,-2.244789 -0.30611,-0.51018 -0.91833,-0.714251 -1.42851,-1.020359 -4.08143,-4.081436 -4.79568,-13.264666 -1.02036,-17.652209 2.65294,-3.061076 8.36695,-4.693651 13.16263,-5.305866 7.6527,-1.020359 14.08096,-0.306108 21.3255,-0.816287 0.51018,0.306108 1.1224,0.612215 1.83665,0.816287 -0.10204,0.204072 0.10204,0.102036 0.10204,0 z m 0,0 h -0.20408 c 0,-0.102036 0.10204,-0.204072 0.20408,0 z"
     id="path315"
     style="stroke-width:1.02036" /><path
     class="st36"
     d="m 398.29851,59.467257 c 1.32647,2.040717 0.0324,4.010269 -1.49814,4.928592 -8.87713,0.102036 -15.81557,-0.510179 -24.18251,0 -0.61221,10.611733 0.17168,23.947564 0.0696,34.661332 0,2.244789 0.61222,4.285499 -0.81629,6.122149 -1.4285,0.51018 -4.2855,0.61222 -5.50993,-0.20407 -1.22443,-6.938438 -0.81629,-15.509452 -0.61222,-23.978431 0.20407,-4.999759 -0.3385,-11.981814 -0.74665,-16.471393 -6.42826,-1.224431 -15.10131,1.122395 -21.3255,-0.204072 -1.83664,-1.938682 -2.00832,-2.507282 -1.90628,-5.262251 0.51018,-0.306108 0.81628,-0.612215 1.02036,-1.020359 13.26466,0.51018 26.32525,-0.102036 38.56956,0 7.04048,0.102036 9.79545,-0.102036 16.22371,0.408144 -0.40815,0.918323 0.40814,0.510179 0.71425,1.020359 z"
     id="path317"
     style="stroke-width:1.02036"
     sodipodi:nodetypes="cccccccccccccc" /><path
     id="path315-3"
     d="m 410.03205,59.856889 0.89025,1.110959 c 0,1.883481 -0.11036,4.43648 -0.22073,6.099239 -0.22072,1.993842 0,3.987682 0.33109,5.760802 0.22071,1.110958 0.33108,2.663359 0.33108,4.105399 v 2.324921 c 0.11036,4.215759 0.11036,10.866798 0.11036,14.854484 0,3.546239 0,7.092487 0.11036,11.528967 0.44144,0.77251 0.11036,1.11094 -0.44144,1.88348 0,0 0.11035,0 0.44144,1.11095 -1.22132,0 -1.77312,0.11035 -1.99384,0.44144 l -2.43528,-0.22071 c -1.77312,-0.11038 -1.87201,-0.23261 -2.76225,-2.11609 0.22073,-1.22132 0,-1.99384 -0.11036,-2.88409 -0.11036,-0.89023 0,-1.66275 0.11036,-2.44263 -0.22072,-1.11096 -0.22072,-2.552991 -0.22072,-3.987676 0,-1.221323 0,-3.104803 0.11036,-4.326116 v -1.993845 c 0,-0.772521 0.11036,-1.44204 0.11036,-1.88348 0,-1.773121 -0.11036,-3.54624 -0.44143,-5.09864 0.11036,-0.220721 0.5518,-1.000598 0.44143,-0.890238 -0.44143,-2.552999 -0.33107,-5.988879 -0.33107,-8.865601 0,-1.773121 0,-3.325521 -0.11036,-4.87792 l -0.22073,-2.663359 c -0.11036,-1.221319 -0.22071,-2.88408 -0.22071,-4.098042 0,-1.110959 0,-2.214562 0.33107,-3.877321 1.44204,-1.33168 3.31405,-1.540525 5.30789,-0.760646 z"
     class="st36"
     style="fill:#ffc900;stroke-width:0.735735"
     sodipodi:nodetypes="ccccscsccccccscscssccsccsccc" /><g
     id="g1207"
     transform="matrix(0.99954821,0,0,1.0790938,-23.53014,-8.0769427)"><path
       sodipodi:nodetypes="ccccccccccccccccccccsccccccccccccscscc"
       style="fill:#ffc900;fill-opacity:1;stroke-width:0.736767"
       class="st35"
       d="m 540.38849,59.135862 c -0.0526,0.09167 1.61535,0.877365 1.65698,1.217556 -5.15031,13.720135 7.39075,-16.588025 -11.77631,38.634143 0.0729,0.59532 -0.0433,1.210479 -0.40061,1.420289 l 0.0625,0.51028 c 0.6071,1.83131 -1.59907,2.5798 -2.21883,2.73103 -0.12604,0.0132 -0.48331,0.22303 -0.78799,0.34117 l -1.07074,-0.40439 c -0.651,-0.10392 -1.38581,-0.37132 -2.09925,-0.98551 l -0.5452,-0.80415 c -0.1885,-0.49704 -0.56603,-0.97422 -1.03838,-1.18304 -1.43503,-3.381006 -1.98024,-4.185146 -2.48327,-5.165991 l 0.0104,0.08505 -0.63945,-1.052668 c -0.56606,-0.974226 -1.16331,-2.203591 -1.64549,-3.01435 l -0.7868,-2.907096 -2.98636,-3.932374 c -1.64545,-3.014365 -3.30135,-6.113772 -6.00714,-9.447481 -0.49202,-1.412692 -1.24541,-3.917756 -2.4838,-4.649104 -0.0827,-1.197258 -1.25695,-2.969023 -2.0652,-3.314839 -2.93761,-2.620249 -1.88602,-3.936624 -0.62342,-6.136555 0.0526,-0.09165 0.10522,-0.183328 1.19846,-1.159521 1.00827,-0.10588 1.70146,-0.178673 2.93058,-0.566162 0.0208,0.170092 -0.0109,0.431845 0.0203,0.686984 l 1.06031,0.31935 c 1.41592,1.660235 2.69539,3.248661 3.43836,5.668681 0.577,0.542376 0.5452,0.80414 0.73369,1.301176 l 0.21971,0.752183 c 2.00333,2.287667 2.04074,3.92555 4.43143,7.292348 l 0.84267,1.363625 1.81207,2.977334 c 1.77096,3.518016 2.68471,5.111151 5.09624,8.648048 0.96945,-3.030545 2.11418,-3.443787 3.16749,-6.31085 0.93876,-2.953886 3.11304,-4.501631 4.29863,-7.843197 2.32136,-6.542706 3.5826,-12.794197 5.56855,-18.07842 0.851,-0.347783 -0.36366,0.647953 0.77065,0.528837 1.26035,-0.132351 1.58083,-0.424547 2.48274,0.68669 z"
       id="path325-0" /><path
       id="path315-3-3"
       d="m 506.60947,60.039133 0.69495,1.088793 c 0,1.8459 -0.0862,4.34796 -0.1723,5.977543 -0.17231,1.954059 0,3.908117 0.25846,5.645858 0.17229,1.088792 0.25845,2.610218 0.25845,4.023485 v 2.278533 c 0.0861,4.131643 0.0861,10.649976 0.0861,14.558097 0,3.475483 0,6.950968 0.0862,11.298928 0.3446,0.7571 0.0861,1.08878 -0.3446,1.8459 0,0 0.0861,0 0.3446,1.08879 -0.9534,0 -1.38416,0.10815 -1.55647,0.43263 l -1.90106,-0.21631 c -1.38417,-0.10817 -2.76834,-0.32448 -3.46329,-2.17038 0.17231,-1.19695 0,-1.95406 -0.0862,-2.82654 -0.0861,-0.87247 0,-1.62958 0.0862,-2.3939 -0.1723,-1.088794 -0.1723,-2.502053 -0.1723,-3.908112 0,-1.196955 0,-3.042854 0.0861,-4.239799 v -1.954062 c 0,-0.757108 0.0862,-1.413268 0.0862,-1.8459 0,-1.737742 -0.0862,-3.475483 -0.3446,-4.996908 0.0862,-0.216317 0.43076,-0.980634 0.3446,-0.872476 -0.3446,-2.50206 -0.25844,-5.869385 -0.25844,-8.688708 0,-1.737743 0,-3.259168 -0.0862,-4.780593 l -0.1723,-2.610218 c -0.0862,-1.19695 -0.1723,-2.826535 -0.1723,-4.016275 0,-1.088792 0,-2.170375 0.25844,-3.799958 1.12571,-1.305109 3.89405,-1.413267 5.45051,-0.648949 z"
       class="st36"
       style="fill:#ffc900;stroke-width:0.643531" /><path
       id="path315-3-5"
       d="m 543.00083,56.346303 0.76487,1.034147 c 0.22383,1.928476 0.44874,4.555281 0.5679,6.270572 0.08,2.067097 0.47388,4.082945 0.91996,5.859986 0.28892,1.111874 0.55185,2.68855 0.72322,4.165038 l 0.27629,2.380463 c 0.57946,4.303653 0.84297,11.66913 1.31685,15.752078 0.42141,3.630955 1.36972,6.706368 1.97542,11.236013 0.40561,0.73972 0.2105,1.12468 -0.09,1.97973 0,0 -0.79966,0.0567 -0.43232,1.15569 -0.86821,0.14179 -0.36921,0.24939 -0.48677,0.61402 l -1.75742,0.0567 c -1.27359,0.0928 -2.56029,0.0727 -3.41697,-1.75243 0.0118,-1.27611 -0.23694,-2.04147 -0.42114,-2.94017 -0.18428,-0.89869 -0.1976,-1.70249 -0.21187,-2.513805 -0.28892,-1.111872 -0.46029,-2.588361 -0.63079,-4.057311 -0.14513,-1.250505 -0.36895,-3.178981 -0.43561,-4.442282 l -0.23694,-2.041474 c -0.0918,-0.790982 -0.31461,-1.558742 -0.36708,-2.010727 -0.2107,-1.81548 -0.27816,-3.548711 -0.69805,-5.099754 -1.49728,-4.826296 -1.86407,-7.166528 -2.28942,-10.462654 -0.2107,-1.815479 0.81334,-2.944023 0.55037,-4.520692 l -0.47342,-2.701358 c -0.22361,-1.237679 -0.49963,-2.927357 -0.64389,-4.170319 -0.13202,-1.137499 -0.26317,-2.267466 -0.22542,-4.008383 0.86687,-1.530905 3.3747,-2.055596 4.88476,-1.488559 z"
       class="st36"
       style="fill:#ffc900;stroke-width:0.633611"
       sodipodi:nodetypes="ccccscsccccccscscssccccsccc" /></g><path
     id="path321-6"
     d="m 559.93151,107.33475 c -2.50238,0.75643 -5.00176,1.08002 -7.42309,1.05803 -7.41527,-0.0672 -14.50628,-3.24834 -19.08706,-8.31113 -0.21921,-1.127433 -0.51947,-1.476437 -0.89419,-1.999279 l -6e-4,0.08663 -0.0746,-0.173808 -0.52365,-0.870479 -6e-4,0.08661 -1.12238,-1.828214 c -0.88817,-2.864944 -1.08933,-6.589376 -1.36738,-10.141356 l -0.13572,-2.252109 c -0.14172,-1.386439 -0.12849,-3.29091 -0.11891,-4.675976 0.0324,-4.674603 0.59274,-9.084692 1.2233,-12.714995 l 1.1476,-1.807586 c 0.0762,-0.08588 0.23061,-0.517345 0.61554,-1.466136 l 1.06534,-0.856047 c 3.6566,-3.516248 8.913,-8.576274 14.81918,-9.128639 4.08897,-0.395723 7.94194,0.504992 10.96557,0.965308 0.0756,6.87e-4 0.60233,0.438328 0.75247,0.612837 0.15073,0.08794 0.14953,0.261077 0.45219,0.263826 1.73191,1.227735 3.5251,2.203733 4.36641,3.242826 l 1.20047,1.482628 c 0.15011,0.1745 0.22336,0.521459 0.37351,0.695968 l 2.10184,2.443102 c 2.23214,5.474318 3.09748,11.6288 3.05484,17.775036 -0.0323,4.674592 -0.51827,9.258505 -1.15481,13.75447 -1.55719,6.305639 -4.31301,10.868913 -9.47392,13.072923 -8.4e-4,0.17314 -0.15434,0.43146 -0.53266,0.42803 0,0 0.0751,0.0872 -0.0756,-7e-4 z M 542.99783,95.847767 c 0.24215,0.553556 0.57751,1.242939 1.32877,2.02891 v 0 l 1.47896,0.972331 c 3.36804,0.545994 -1.39893,0.5027 3.36804,0.545994 1.51332,0.01367 6.37814,-0.898896 8.12205,-1.402484 0.23061,-0.517342 0.68641,-0.772913 1.29415,-1.113693 2.29702,-3.874886 5.58974,-10.326478 5.6342,-16.732416 0.0433,-6.232796 -3.23266,-13.113153 -5.55068,-17.116526 l -5.9e-4,0.08658 c -2.8525,-3.31565 -3.43265,-2.435615 -9.25836,-2.575095 -1.1368,0.249395 -2.35286,1.017502 -3.56832,1.699038 l -0.4552,0.169012 c -0.0762,0.08589 -0.15254,0.171762 -0.2282,0.171076 -2.21475,2.923337 -3.60736,5.491901 -5.7797,9.77943 -1.42408,5.75751 0.51994,16.413122 2.91151,21.880015 z m 16.02276,-42.628868 c 5.9e-4,-0.08658 0.0762,-0.08589 0.15134,0.0014 z"
     class="st35"
     style="fill:#ffc900;fill-opacity:1;stroke-width:0.809356"
     sodipodi:nodetypes="cscccccccccsccccccccscscscccccscccsccscccccccssccc" /></g><g
   id="g1059"><path
     class="st35"
     d="m 380.44567,117.41876 c 1.64081,1.53826 3.38417,3.69183 2.46121,6.35815 -1.43571,3.07652 -4.30713,2.97397 -6.66579,2.76887 h -0.51276 c -0.6153,-0.10255 -1.23061,-0.10255 -1.64081,-0.10255 -4.40968,0 -9.22957,0.10255 -13.84435,0.2051 -3.38417,0.10255 -7.89641,0.10255 -10.87038,0.10255 -2.66632,0 -4.30713,0 -6.35814,-0.10255 -0.10255,0.92295 -0.10255,2.25611 -0.10255,3.38417 0,0.71786 -0.10256,1.23061 -0.10256,1.94847 0,0.8204 -0.10255,1.64081 -0.10255,2.46121 0,1.53827 0,2.87143 -0.10255,3.89693 6.0505,-0.2051 11.58824,-0.30765 17.12598,-0.30765 4.40968,0 9.12701,0 13.22904,0.30765 2.76887,0.61531 4.51223,3.69183 4.51223,6.97345 0,1.33316 -0.2051,2.76887 -1.2306,4.10203 -5.23009,-0.30765 -11.38314,-0.71785 -16.81833,-0.71785 -5.94794,0 -11.99843,0.2051 -17.53617,1.43571 v 7.99896 c 0,1.64081 0.10255,2.66631 0,4.40968 4.40968,0.10255 8.40916,0.2051 13.12649,0.2051 8.51171,0 17.53618,-0.2051 27.2785,-0.71786 0.51275,0 1.23061,-0.10255 2.05101,-0.2051 2.35867,-0.2051 4.61479,-0.51275 6.56325,1.23061 1.02551,3.38418 -0.10255,7.69131 -2.05101,8.81936 -8.51171,0 -18.25403,0.10256 -27.38105,0.71786 -2.15357,0.10255 -4.51223,0.2051 -6.6658,0.2051 -1.23061,0 -2.35867,0.10255 -3.48672,0.10255 -3.79438,0.10255 -8.20406,0.2051 -12.7163,0.61531 -0.71785,-0.71786 -1.0255,-0.82041 -1.43571,-0.92296 -0.10255,0 -0.51275,-0.2051 -0.51275,-0.2051 -0.10255,0 -0.51275,-0.10255 -0.6153,-0.10255 -1.23061,-0.51276 -2.46122,-1.02551 -2.97398,-1.53826 -0.51275,-0.92296 -0.6153,-2.87142 -0.6153,-4.81989 0,-1.33316 0.10255,-3.38417 0.2051,-4.61478 v -0.61531 c -0.10255,-7.8964 0.30765,-16.10046 0.82041,-23.17646 l 0.6153,-13.84435 c -2.05101,-3.17908 0,-7.28111 3.07652,-7.89641 6.2556,0.6153 12.40864,0.71785 18.56169,0.71785 h 4.81988 c 1.64081,0 3.07652,-0.10255 4.81989,-0.10255 3.89693,-0.10255 10.25507,-0.10255 13.7418,-0.10255 z"
     id="path327"
     style="stroke-width:1.02551" /><path
     class="st35"
     d="m 451.92353,142.44114 c -4.10203,5.84539 -10.87038,7.38366 -18.76678,8.20406 2.05101,2.05102 4.20458,3.48673 6.46069,4.81989 h -0.10255 c 0.30765,0.2051 0.82041,0.71785 1.33316,0.92295 1.53826,0.82041 2.87142,1.64081 4.10203,2.46122 1.33316,0.92296 2.97397,2.15357 4.51223,3.07652 1.02551,0.71786 2.15357,1.33316 3.07653,2.05102 1.33316,0.92295 3.07652,2.25611 5.02498,3.48672 0.2051,4.51224 -2.46122,6.0505 -5.53774,6.0505 -1.74336,0 -3.69182,-0.30766 -5.02498,-0.82041 -4.81989,-4.10203 -10.04998,-7.79386 -15.17751,-11.07548 h 0.10255 l -2.66632,-1.64081 c -3.79438,-2.46122 -8.61426,-5.53774 -12.40864,-8.51171 -1.33316,0 -2.66632,0.10255 -3.79438,0.2051 h 0.10255 c -2.15356,0.2051 -4.81988,0.51275 -6.56325,0.2051 v 2.25612 c 0,1.53826 0.10256,3.07652 0.20511,5.02498 v 2.15357 c 0.10255,1.33316 0.2051,2.97397 0.2051,4.30713 0,2.76887 -0.2051,5.02499 -0.92296,7.2811 -3.69183,0.2051 -5.74284,-0.51275 -8.61426,-1.43571 -0.30765,-0.8204 -0.71786,-1.43571 -1.43571,-2.05101 -0.30765,-5.74284 -0.51276,-12.30609 -0.51276,-18.25404 0,-7.99895 0.30766,-16.10046 0.71786,-23.89432 -0.51275,-1.23061 -0.82041,-2.76887 -0.82041,-3.69182 0,-1.53827 0.30766,-3.48673 0.71786,-4.92244 0,-0.51275 0.2051,-1.02551 0.2051,-1.43571 3.89693,-1.02551 8.20406,-1.43571 12.40864,-1.74336 l 6.35815,-0.61531 c 1.64081,0.10255 3.58927,0.10255 5.53774,0.10255 2.15356,0 4.40968,0 6.66579,0.10255 7.89641,0.30766 14.97241,3.07653 20.09995,8.10151 3.07652,2.76887 5.53774,7.69131 5.53774,12.71629 0,2.05102 -0.10255,4.20459 -0.92296,6.35815 z m -18.97189,-2.35866 h 0.30766 c 4.40968,-0.51276 8.51171,-1.23061 11.28058,-3.48673 0,-0.10255 0.10255,-0.6153 0.2051,-0.71786 0.30765,-4.30713 -1.74336,-5.74284 -4.30713,-7.6913 h -0.10255 l -1.23061,-1.02551 c -5.33264,-2.15356 -11.28058,-2.76887 -17.22853,-2.76887 -4.92243,0 -10.04997,0.30765 -15.1775,1.33316 0.10255,1.33316 0.10255,2.76887 0.10255,3.89693 0,0.82041 -0.10255,1.53826 -0.10255,2.25612 v 2.35866 c 0,2.15357 -0.10256,4.40968 0,7.17855 2.15356,0.10256 4.20458,0.20511 6.56324,0.20511 5.02499,0 10.25508,-0.30766 15.69027,-1.23061 1.33316,-0.10255 2.76887,-0.2051 3.99947,-0.30765 z"
     id="path329"
     style="stroke-width:1.02551" /><path
     class="st35"
     d="m 525.76006,118.44427 c 0.20511,0.10255 0.61531,0.30765 0.82041,0.71785 1.74336,2.87142 -0.10255,7.99896 -2.15357,9.33212 -4.10202,0 -7.8964,0 -11.48568,-0.10255 h -3.89693 c -1.53826,0 -2.87142,-0.10255 -3.79437,-0.10255 -2.46122,0 -4.61479,0.10255 -6.97345,0.2051 h -0.20511 c -0.10255,2.25612 -0.10255,4.30713 -0.10255,6.6658 v 2.46122 c 0,4.20458 0,8.40916 0.10255,12.81884 0.10256,4.61478 0.10256,9.43467 0.10256,13.84435 v 0.92296 c 0,0.30765 0.10255,0.6153 0.10255,0.8204 0.10255,1.94847 0,4.30713 -1.53827,6.35815 -2.05101,0.8204 -6.05049,0.71785 -8.1015,-0.71786 -0.82041,-4.10203 -1.02551,-9.12701 -1.02551,-14.45965 0,-3.07652 0.10255,-6.2556 0.2051,-9.33212 v -0.6153 c 0,-0.51276 0.10255,-1.02551 0.10255,-1.64082 v -1.43571 c 0.2051,-4.61478 -0.2051,-9.43466 -0.71785,-13.74179 l -0.20511,-1.74337 c -1.33315,-0.30765 -2.76887,-0.2051 -4.20458,-0.2051 -2.15356,0 -4.20458,0.10255 -6.46069,0.30765 -2.35867,0.20511 -4.61479,0.30766 -6.97345,0.30766 -2.15357,0 -3.89693,-0.10255 -5.64029,-0.51276 -2.87142,-2.97397 -2.97397,-6.05049 -2.87142,-9.94742 1.0255,-0.6153 1.64081,-0.92296 1.94846,-1.53826 4.40968,0.2051 9.63977,0.2051 14.152,0.2051 4.40968,0 9.12702,0 13.5367,-0.10255 5.53774,-0.10255 10.87038,-0.10255 16.10047,-0.10255 h 6.05049 c 4.40968,0 7.38365,0 12.71629,0.51275 z"
     id="path331"
     style="stroke-width:1.02551" /><path
     style="fill:#009a00;fill-opacity:1;stroke:#009a00;stroke-width:0.894242;stroke-miterlimit:4;stroke-dasharray:none;stroke-opacity:1"
     id="path309-1"
     d="m 215.36971,117.7771 c -8.74079,16.82929 -18.61789,33.2924 -25.79316,50.90444 0.39138,0.65229 -0.82058,0.75753 -0.69013,1.5403 1.17413,0.91321 3.82116,2.37349 5.38667,2.63441 1.30459,-0.65231 2.21782,-1.69598 3.65287,-1.56552 3.00056,-6.26206 6.39252,-13.04594 9.13216,-18.91664 9.00171,-0.13045 22.69996,0.13047 34.04995,0.52184 3.39195,4.5661 5.47929,10.30631 9.13216,15.00285 0.13046,0.52184 -0.13045,0.52184 -0.52184,0.52184 2.21783,1.43505 2.21783,3.65287 3.91379,5.21839 3.26148,0.52183 6.7628,-2.3609 8.19785,-4.5787 -1.04366,-1.95689 -1.43505,-4.827 -3.39193,-6.00115 -8.08851,-14.87238 -19.15646,-29.99307 -27.89725,-44.47409 -0.13046,-0.52184 0.0377,-2.30205 0.16818,-3.21526 -3.46086,-0.49858 -3.40913,-11.28407 -12.17046,-5.01649 0.39137,2.08734 -2.77749,5.20597 -3.16886,7.42378 z m -2.4409,24.94299 c 3.00056,-6.65343 6.78389,-13.17642 10.43675,-19.9603 15.70606,27.38605 12.351,18.64092 -10.43675,19.9603 z"
     class="st37"
     sodipodi:nodetypes="ccccccccccccccccccc" /><path
     style="fill:#009a00;fill-opacity:1;stroke:#009a00;stroke-width:1.332;stroke-miterlimit:4;stroke-dasharray:none;stroke-opacity:1"
     class="st36"
     d="m 544.81923,119.24999 1.00653,1.25607 c 0,2.1295 -0.1248,5.01596 -0.24956,6.8959 -0.24955,2.25425 0,4.50854 0.37432,6.51326 0.24956,1.25606 0.37433,3.01124 0.37433,4.64161 v 2.6286 c 0.12479,4.76639 0.12479,12.28616 0.12479,16.7947 0,4.00945 0,8.01888 0.12476,13.03483 0.49909,0.87342 0.12478,1.25605 -0.4991,2.1295 0,0 0.12478,0 0.4991,1.25606 -1.38083,0 -2.0047,0.12476 -2.25427,0.49909 l -2.75336,-0.24954 c -2.00473,-0.12479 -4.00945,-0.37434 -5.01597,-2.50381 0.24956,-1.38086 0,-2.25428 -0.12475,-3.2608 -0.1248,-1.0065 0,-1.87995 0.12475,-2.76168 -0.24955,-1.25606 -0.24955,-2.88646 -0.24955,-4.50853 0,-1.38085 0,-3.51033 0.1248,-4.89119 v -2.25427 c 0,-0.87342 0.12475,-1.63037 0.12475,-2.12949 0,-2.00471 -0.12475,-4.00942 -0.49908,-5.76459 0.12478,-0.24956 0.62388,-1.13129 0.49908,-1.00653 -0.49908,-2.88645 -0.3743,-6.7711 -0.3743,-10.02358 0,-2.00471 0,-3.75988 -0.12478,-5.51506 l -0.24956,-3.01122 c -0.12476,-1.38085 -0.24954,-3.26079 -0.24954,-4.63331 0,-1.25606 0,-2.50381 0.37432,-4.38377 1.63038,-1.50561 5.63983,-1.63039 7.89409,-0.74864 z"
     id="path315-3-1" /><path
     id="path311-8"
     d="m 290.45999,149.19884 c -3.27312,-0.1169 -8.18279,0.81828 -12.04039,0.23378 -0.93518,5.49417 -0.70227,14.45225 -2.68952,20.414 -2.57174,0.23379 -5.53716,0.25529 -7.99199,-0.56299 -0.2338,-0.70138 -0.58449,-1.40277 -1.16897,-1.87035 -0.70139,-14.02765 -0.46759,-28.63978 0.2338,-42.31674 -1.28588,-2.68863 -0.70139,-6.42935 0,-9.35177 4.90966,-1.16896 15.82497,-0.79677 21.55292,-1.49816 3.27312,0.2338 7.48141,0 12.50799,0.2338 7.949,0.35069 14.37834,2.80553 19.7556,7.949 3.97451,3.7407 6.78004,10.52073 3.97451,18.11905 -4.0914,6.07864 -12.1573,6.89692 -21.39217,7.7152 -6.0319,-0.42151 -12.74178,0.93518 -12.74178,0.93518 z m 25.08899,-13.93225 c 0.1169,-0.46759 0.2338,-0.81828 0.46759,-0.93518 0.58449,-5.96175 0.51147,-7.10923 -2.41095,-9.68097 -10.17005,-4.44208 -23.61322,-3.39 -35.30292,-1.87035 0.58448,6.66314 -0.2338,11.10522 0,18.58664 7.48141,0.46759 15.898,0.35069 24.19769,-0.93517 6.54623,-1.05208 9.42479,-1.19047 13.04859,-5.16497 z"
     class="st36"
     style="fill:#009a00;fill-opacity:1;stroke:#009a00;stroke-width:3.11754;stroke-miterlimit:4;stroke-dasharray:none;stroke-opacity:1"
     sodipodi:nodetypes="cccccccccccccccccccc" /></g><g
   aria-label=".it"
   id="text1271"
   style="font-style:normal;font-variant:normal;font-weight:normal;font-stretch:normal;font-size:50.8509px;line-height:1.25;font-family:'Adobe Hebrew';-inkscape-font-specification:'Adobe Hebrew';letter-spacing:0px;word-spacing:0px;fill:#0060b1;fill-opacity:1;stroke:none;stroke-width:6.35637"
   transform="translate(0,2)"><path
     d="m 557.83989,172.90689 c -0.79455,0 -1.13722,-0.69106 -1.81589,-1.08833 -0.67867,-0.39728 -1.61059,-0.44283 -2.00786,-1.1215 -0.39727,-0.67867 -0.59591,-1.41528 -0.59591,-2.20983 0,-0.82765 0.19864,-1.58081 0.59591,-2.25949 0.39727,-0.67867 0.93525,-1.21665 1.61392,-1.61392 0.67867,-0.39727 1.41528,-0.5959 2.20983,-0.5959 H 559.28 c 0.79455,0 1.53116,-0.0968 2.20983,0.30045 0.67867,0.39727 1.21665,1.2307 1.61392,1.90937 0.39727,0.67868 0.59591,1.43184 0.59591,2.25949 0,0.79455 -0.19864,1.53116 -0.59591,2.20983 -0.39727,0.67867 -0.93525,1.21665 -1.61392,1.61392 -0.67867,0.39727 -1.41528,0.59591 -2.20983,0.59591 z"
     style="font-style:normal;font-variant:normal;font-weight:normal;font-stretch:normal;font-family:jellee;-inkscape-font-specification:jellee;fill:#0060b1;fill-opacity:1;stroke-width:6.35637"
     id="path1027"
     sodipodi:nodetypes="sssssssssssssss" /><path
     d="m 570.04239,173.30416 c -0.86076,0 -1.65531,-0.20691 -2.38364,-0.62073 -0.71178,-0.43038 -1.28286,-1.00974 -1.71324,-1.73807 -0.43037,-0.72833 -0.64556,-1.5146 -0.64556,-2.35881 0,-6.35636 1.00094,-8.70896 0,-19.06909 -0.0828,-0.85676 0.21519,-1.64702 0.64556,-2.3588 0.43038,-0.72833 1.00146,-1.30769 1.71324,-1.73807 0.72833,-0.43038 1.32591,-0.54709 2.18667,-0.54709 0.8442,0 1.82744,0.11671 2.55577,0.54709 0.72833,0.43038 1.29941,1.00974 1.71324,1.73807 0.43038,0.71178 0.16691,1.79361 0.15315,2.65425 l -0.29546,18.47819 c -0.0135,0.84409 0.17875,2.31987 -0.25163,3.0482 -0.43038,0.71178 -0.6158,0.88892 -1.34413,1.3193 -0.71178,0.43037 -1.48977,0.64556 -2.33397,0.64556 z m -1.16699,-31.26039 c -0.71178,0 -1.3739,-0.17381 -1.98636,-0.52142 -0.61247,-0.36417 -1.10078,-0.85248 -1.46495,-1.46494 -0.34761,-0.61246 -0.52142,-1.27458 -0.52142,-1.98636 0,-0.71178 0.17381,-1.3739 0.52142,-1.98637 0.36417,-0.61246 0.85248,-1.0925 1.46495,-1.44011 0.61246,-0.36417 1.27458,-0.54625 1.98636,-0.54625 h 2.33398 c 0.71178,0 1.3739,0.18208 1.98636,0.54625 0.61246,0.34761 1.0925,0.82765 1.44011,1.44011 0.36417,0.61247 0.54625,1.27459 0.54625,1.98637 0,0.71178 -0.18208,1.3739 -0.54625,1.98636 -0.34761,0.61246 -0.82765,1.10077 -1.44011,1.46494 -0.61246,0.34761 -1.27458,0.52142 -1.98636,0.52142 z"
     style="font-style:normal;font-variant:normal;font-weight:normal;font-stretch:normal;font-family:jellee;-inkscape-font-specification:jellee;fill:#0060b1;fill-opacity:1;stroke-width:6.35637"
     id="path1029"
     sodipodi:nodetypes="scsssccsscssccssccsccssccsccss" /><path
     d="m 589.09784,173.52763 c -2.185,0 -3.43065,-0.95508 -4.72179,-1.68341 -1.29113,-0.74489 -2.71052,-1.24648 -3.27332,-2.68659 -0.56281,-1.44011 -1.43082,-3.59146 -1.33663,-5.85727 l 0.49242,-11.84619 h -1.41528 c -0.56281,0 -1.08423,-0.1407 -1.56426,-0.4221 -0.48004,-0.28141 -0.86076,-0.66213 -1.14216,-1.14216 -0.26485,-0.48004 -0.39727,-0.99318 -0.39727,-1.53943 0,-0.87731 0.29795,-1.6222 0.89386,-2.23466 0.61246,-0.61247 1.328,0.12744 2.11135,-0.22931 l 1.51376,-0.68939 0.88636,-2.91005 c 0.41479,-1.36179 0.23341,-3.09042 1.09417,-3.81875 0.86076,-0.74489 1.28042,-1.11733 2.63777,-1.11733 1.35735,0 2.44985,0.37244 3.2775,1.11733 0.82765,0.72833 1.24147,1.80428 1.24147,3.22784 v 3.50096 h 3.00438 c 0.5628,0 1.08422,0.1407 1.56426,0.42211 0.48003,0.2814 0.85248,0.66212 1.11733,1.14215 0.2814,0.46349 0.4221,0.97663 0.4221,1.53944 0,0.5628 -0.1407,1.08422 -0.4221,1.56426 -0.26485,0.48003 -0.6373,0.86903 -1.11733,1.16699 -0.48004,0.2814 -1.00146,0.4221 -1.56426,0.4221 h -2.78091 v 11.32227 c 0,0.99318 0.14898,1.75462 0.44693,2.28432 0.31451,0.52969 0.69523,0.89386 1.14216,1.0925 0.46349,0.19863 1.24809,1.05356 1.95987,1.18598 2.03602,0.38072 3.251,-0.38971 3.251,1.43112 0,1.3739 -1.0064,3.49924 -2.23133,4.01238 -1.20837,0.49659 -2.90505,0.74489 -5.09005,0.74489 z"
     style="font-style:normal;font-variant:normal;font-weight:normal;font-stretch:normal;font-family:jellee;-inkscape-font-specification:jellee;fill:#0060b1;fill-opacity:1;stroke-width:6.35637"
     id="path1031"
     sodipodi:nodetypes="scsscsscscscscscscsscsccscscccscs" /></g></svg>
