<?xml version="1.0" encoding="UTF-8"?>
<svg enable-background="new 0 0 572 176.9" version="1.1" viewBox="0 0 572 176.9" xml:space="preserve" xmlns="http://www.w3.org/2000/svg" xmlns:xlink="http://www.w3.org/1999/xlink">
<style type="text/css">
	.st0{fill:url(#SVGID_1_);}
	.st1{fill:#DAD0C9;}
	.st2{clip-path:url(#SVGID_3_);}
	.st3{fill:#E0DFDF;}
	.st4{clip-path:url(#SVGID_5_);}
	.st5{clip-path:url(#SVGID_7_);}
	.st6{fill:#ABD3E0;}
	.st7{clip-path:url(#SVGID_9_);}
	.st8{clip-path:url(#SVGID_11_);}
	.st9{fill:#CDECB0;}
	.st10{clip-path:url(#SVGID_13_);}
	.st11{clip-path:url(#SVGID_15_);}
	.st12{clip-path:url(#SVGID_17_);}
	.st13{clip-path:url(#SVGID_19_);}
	.st14{clip-path:url(#SVGID_21_);}
	.st15{clip-path:url(#SVGID_23_);}
	.st16{fill:#FFFFFF;}
	.st17{clip-path:url(#SVGID_25_);}
	.st18{clip-path:url(#SVGID_27_);}
	.st19{clip-path:url(#SVGID_29_);}
	.st20{clip-path:url(#SVGID_31_);}
	.st21{clip-path:url(#SVGID_33_);}
	.st22{clip-path:url(#SVGID_35_);}
	.st23{clip-path:url(#SVGID_37_);}
	.st24{clip-path:url(#SVGID_39_);}
	.st25{clip-path:url(#SVGID_41_);}
	.st26{clip-path:url(#SVGID_43_);}
	.st27{clip-path:url(#SVGID_45_);}
	.st28{clip-path:url(#SVGID_47_);}
	.st29{fill:#FCD6A5;}
	.st30{clip-path:url(#SVGID_49_);}
	.st31{clip-path:url(#SVGID_51_);fill:#E0DFDF;}
	.st32{clip-path:url(#SVGID_53_);fill:#FCD6A5;}
	.st33{clip-path:url(#SVGID_55_);}
	.st34{fill:#F12A2A;}
	.st35{fill:#009A00;}
	.st36{fill:#FFC900;}
	.st37{fill:#0060B1;}
</style>

	
		
			<linearGradient id="SVGID_1_" x1=".8" x2="173.5" y1="-607.82" y2="-607.82" gradientTransform="matrix(1 0 0 -1 0 -444.72)" gradientUnits="userSpaceOnUse">
			<stop stop-color="#E0DFDF" offset="0"/>
			<stop stop-color="#DAD0C9" offset=".053881"/>
			<stop stop-color="#E0DFDF" offset=".128"/>
			<stop stop-color="#E0DFDF" offset=".8798"/>
			<stop stop-color="#DAD0C9" offset=".9445"/>
			<stop stop-color="#E0DFDF" offset="1"/>
		</linearGradient>
		<path class="st0" d="m173.5 149.3h-172.7v19c0.2 4.9 6.9 8.6 16.3 8.6h140.3c9.5 0 16-3.7 16.1-8.6v-19z"/>
		
			
				
					<path class="st1" d="m158.1 158.2h-141.9c-10.1 0-16.9-4.8-15.1-10.7l24.7-82.7c1.7-6 8.5-10.8 15.2-10.8l92.7 0.3c6.6 0 13.4 4.9 15.1 10.7l24.5 82.4c1.8 5.9-5 10.8-15.2 10.8z"/>
					
						
							
								
									<defs>
										<path id="SVGID_2_" d="m158.1 158.2h-141.9c-10.1 0-16.9-4.8-15.1-10.7l24.7-82.7c1.7-6 8.5-10.8 15.2-10.8l92.7 0.3c6.6 0 13.4 4.9 15.1 10.7l24.5 82.4c1.8 5.9-5 10.8-15.2 10.8z"/>
									</defs>
									<clipPath id="SVGID_3_">
										<use xlink:href="#SVGID_2_"/>
									</clipPath>
									<g class="st2" clip-path="url(#SVGID_3_)">
										<polygon class="st3" points="22.3 85 85.6 74.9 84.9 98 40.6 99.5 22.1 87.6"/>
									</g>
								
							
						
						
							
								
									<defs>
										<path id="SVGID_4_" d="m158.1 158.2h-141.9c-10.1 0-16.9-4.8-15.1-10.7l24.7-82.7c1.7-6 8.5-10.8 15.2-10.8l92.7 0.3c6.6 0 13.4 4.9 15.1 10.7l24.5 82.4c1.8 5.9-5 10.8-15.2 10.8z"/>
									</defs>
									<clipPath id="SVGID_5_">
										<use xlink:href="#SVGID_4_"/>
									</clipPath>
									<g class="st4" clip-path="url(#SVGID_5_)">
										<polygon class="st3" points="165.7 98.2 143.8 110.1 159.2 129.9 177.4 128.4"/>
									</g>
								
							
						
						
							
								
									<defs>
										<path id="SVGID_6_" d="m158.1 158.2h-141.9c-10.1 0-16.9-4.8-15.1-10.7l24.7-82.7c1.7-6 8.5-10.8 15.2-10.8l92.7 0.3c6.6 0 13.4 4.9 15.1 10.7l24.5 82.4c1.8 5.9-5 10.8-15.2 10.8z"/>
									</defs>
									<clipPath id="SVGID_7_">
										<use xlink:href="#SVGID_6_"/>
									</clipPath>
									<g class="st5" clip-path="url(#SVGID_7_)">
										<polygon class="st6" points="87.5 161.6 87.6 136.2 95.3 137.4 114.7 164.6"/>
									</g>
								
							
						
						
							
								
									<defs>
										<path id="SVGID_8_" d="m158.1 158.2h-141.9c-10.1 0-16.9-4.8-15.1-10.7l24.7-82.7c1.7-6 8.5-10.8 15.2-10.8l92.7 0.3c6.6 0 13.4 4.9 15.1 10.7l24.5 82.4c1.8 5.9-5 10.8-15.2 10.8z"/>
									</defs>
									<clipPath id="SVGID_9_">
										<use xlink:href="#SVGID_8_"/>
									</clipPath>
									<g class="st7" clip-path="url(#SVGID_9_)">
										<polygon class="st6" points="44.2 160.4 7.5 160.4 16.3 127.8 49 127.9"/>
									</g>
								
							
						
						
							
								
									<defs>
										<path id="SVGID_10_" d="m158.1 158.2h-141.9c-10.1 0-16.9-4.8-15.1-10.7l24.7-82.7c1.7-6 8.5-10.8 15.2-10.8l92.7 0.3c6.6 0 13.4 4.9 15.1 10.7l24.5 82.4c1.8 5.9-5 10.8-15.2 10.8z"/>
									</defs>
									<clipPath id="SVGID_11_">
										<use xlink:href="#SVGID_10_"/>
									</clipPath>
									<g class="st8" clip-path="url(#SVGID_11_)">
										<polygon class="st9" points="86.3 44.3 87.6 80.2 115.2 82.4 113.4 44.4"/>
									</g>
								
							
						
						
							
								
									<defs>
										<path id="SVGID_12_" d="m158.1 158.2h-141.9c-10.1 0-16.9-4.8-15.1-10.7l24.7-82.7c1.7-6 8.5-10.8 15.2-10.8l92.7 0.3c6.6 0 13.4 4.9 15.1 10.7l24.5 82.4c1.8 5.9-5 10.8-15.2 10.8z"/>
									</defs>
									<clipPath id="SVGID_13_">
										<use xlink:href="#SVGID_12_"/>
									</clipPath>
									<g class="st10" clip-path="url(#SVGID_13_)">
										<polygon class="st9" points="146.7 53.6 134.4 68 145.8 77.7 161.6 91.7"/>
									</g>
								
							
						
						
							
								
									<defs>
										<path id="SVGID_14_" d="m158.1 158.2h-141.9c-10.1 0-16.9-4.8-15.1-10.7l24.7-82.7c1.7-6 8.5-10.8 15.2-10.8l92.7 0.3c6.6 0 13.4 4.9 15.1 10.7l24.5 82.4c1.8 5.9-5 10.8-15.2 10.8z"/>
									</defs>
									<clipPath id="SVGID_15_">
										<use xlink:href="#SVGID_14_"/>
									</clipPath>
									<g class="st11" clip-path="url(#SVGID_15_)">
										<polygon class="st9" points="171.2 129.1 104.1 129.7 100.1 136.6 158.6 161.9 182.9 155.9"/>
									</g>
								
							
						
						
							
								
									<defs>
										<path id="SVGID_16_" d="m158.1 158.2h-141.9c-10.1 0-16.9-4.8-15.1-10.7l24.7-82.7c1.7-6 8.5-10.8 15.2-10.8l92.7 0.3c6.6 0 13.4 4.9 15.1 10.7l24.5 82.4c1.8 5.9-5 10.8-15.2 10.8z"/>
									</defs>
									<clipPath id="SVGID_17_">
										<use xlink:href="#SVGID_16_"/>
									</clipPath>
									<g class="st12" clip-path="url(#SVGID_17_)">
										<polygon class="st6" points="10.5 64.9 86.9 53 85 73.8 3.9 86.9"/>
									</g>
								
							
						
						
							
								
									<defs>
										<path id="SVGID_18_" d="m158.1 158.2h-141.9c-10.1 0-16.9-4.8-15.1-10.7l24.7-82.7c1.7-6 8.5-10.8 15.2-10.8l92.7 0.3c6.6 0 13.4 4.9 15.1 10.7l24.5 82.4c1.8 5.9-5 10.8-15.2 10.8z"/>
									</defs>
									<clipPath id="SVGID_19_">
										<use xlink:href="#SVGID_18_"/>
									</clipPath>
									<g class="st13" clip-path="url(#SVGID_19_)">
										<polygon class="st6" points="117.8 84.1 133.9 66.4 160.5 90.4 161.6 100.6 137.9 108.6"/>
									</g>
								
							
						
						
							
								
									<defs>
										<path id="SVGID_20_" d="m158.1 158.2h-141.9c-10.1 0-16.9-4.8-15.1-10.7l24.7-82.7c1.7-6 8.5-10.8 15.2-10.8l92.7 0.3c6.6 0 13.4 4.9 15.1 10.7l24.5 82.4c1.8 5.9-5 10.8-15.2 10.8z"/>
									</defs>
									<clipPath id="SVGID_21_">
										<use xlink:href="#SVGID_20_"/>
									</clipPath>
									<g class="st14" clip-path="url(#SVGID_21_)">
										<polygon class="st9" points="-5.2 116.4 39.2 101 73.2 120.9 65.8 129 -4.3 128.6"/>
									</g>
								
							
						
						
							
								
									<defs>
										<path id="SVGID_22_" d="m158.1 158.2h-141.9c-10.1 0-16.9-4.8-15.1-10.7l24.7-82.7c1.7-6 8.5-10.8 15.2-10.8l92.7 0.3c6.6 0 13.4 4.9 15.1 10.7l24.5 82.4c1.8 5.9-5 10.8-15.2 10.8z"/>
									</defs>
									<clipPath id="SVGID_23_">
										<use xlink:href="#SVGID_22_"/>
									</clipPath>
									<g class="st15" clip-path="url(#SVGID_23_)">
										<polygon class="st16" points="13.3 67.5 14 62.3 112.8 46.7 114.5 52"/>
									</g>
								
							
						
						
							
								
									<defs>
										<path id="SVGID_24_" d="m158.1 158.2h-141.9c-10.1 0-16.9-4.8-15.1-10.7l24.7-82.7c1.7-6 8.5-10.8 15.2-10.8l92.7 0.3c6.6 0 13.4 4.9 15.1 10.7l24.5 82.4c1.8 5.9-5 10.8-15.2 10.8z"/>
									</defs>
									<clipPath id="SVGID_25_">
										<use xlink:href="#SVGID_24_"/>
									</clipPath>
									<g class="st17" clip-path="url(#SVGID_25_)">
										<polygon class="st16" points="83.4 123.7 84.2 47.7 90 47.7 91.5 123.7"/>
									</g>
								
							
						
						
							
								
									<defs>
										<path id="SVGID_26_" d="m158.1 158.2h-141.9c-10.1 0-16.9-4.8-15.1-10.7l24.7-82.7c1.7-6 8.5-10.8 15.2-10.8l92.7 0.3c6.6 0 13.4 4.9 15.1 10.7l24.5 82.4c1.8 5.9-5 10.8-15.2 10.8z"/>
									</defs>
									<clipPath id="SVGID_27_">
										<use xlink:href="#SVGID_26_"/>
									</clipPath>
									<g class="st18" clip-path="url(#SVGID_27_)">
										<polygon class="st16" points="159.1 130.1 112.4 84.7 110.9 47.3 116.7 47.6 119.2 83.4 165.5 127.4"/>
									</g>
								
							
						
						
							
								
									<defs>
										<path id="SVGID_28_" d="m158.1 158.2h-141.9c-10.1 0-16.9-4.8-15.1-10.7l24.7-82.7c1.7-6 8.5-10.8 15.2-10.8l92.7 0.3c6.6 0 13.4 4.9 15.1 10.7l24.5 82.4c1.8 5.9-5 10.8-15.2 10.8z"/>
									</defs>
									<clipPath id="SVGID_29_">
										<use xlink:href="#SVGID_28_"/>
									</clipPath>
									<g class="st19" clip-path="url(#SVGID_29_)">
										<polygon class="st16" points="169.1 131.8 97.5 131.7 97.3 126.4 167.5 126.4"/>
									</g>
								
							
						
						
							
								
									<defs>
										<path id="SVGID_30_" d="m158.1 158.2h-141.9c-10.1 0-16.9-4.8-15.1-10.7l24.7-82.7c1.7-6 8.5-10.8 15.2-10.8l92.7 0.3c6.6 0 13.4 4.9 15.1 10.7l24.5 82.4c1.8 5.9-5 10.8-15.2 10.8z"/>
									</defs>
									<clipPath id="SVGID_31_">
										<use xlink:href="#SVGID_30_"/>
									</clipPath>
									<g class="st20" clip-path="url(#SVGID_31_)">
										<polygon class="st16" points="117.3 87 87 82.9 88.2 77.6 114.3 81.2 142.9 54.7 148.2 58.6"/>
									</g>
								
							
						
						
							
								
									<defs>
										<path id="SVGID_32_" d="m158.1 158.2h-141.9c-10.1 0-16.9-4.8-15.1-10.7l24.7-82.7c1.7-6 8.5-10.8 15.2-10.8l92.7 0.3c6.6 0 13.4 4.9 15.1 10.7l24.5 82.4c1.8 5.9-5 10.8-15.2 10.8z"/>
									</defs>
									<clipPath id="SVGID_33_">
										<use xlink:href="#SVGID_32_"/>
									</clipPath>
									<g class="st21" clip-path="url(#SVGID_33_)">
										<polygon class="st16" points="156.5 90.1 133.7 67.3 138.6 64.5 161.8 87.4"/>
									</g>
								
							
						
						
							
								
									<defs>
										<path id="SVGID_34_" d="m158.1 158.2h-141.9c-10.1 0-16.9-4.8-15.1-10.7l24.7-82.7c1.7-6 8.5-10.8 15.2-10.8l92.7 0.3c6.6 0 13.4 4.9 15.1 10.7l24.5 82.4c1.8 5.9-5 10.8-15.2 10.8z"/>
									</defs>
									<clipPath id="SVGID_35_">
										<use xlink:href="#SVGID_34_"/>
									</clipPath>
									<g class="st22" clip-path="url(#SVGID_35_)">
										<polygon class="st16" points="142.8 112.2 137.8 107.6 159.9 97 165.1 101.6"/>
									</g>
								
							
						
						
							
								
									<defs>
										<path id="SVGID_36_" d="m158.1 158.2h-141.9c-10.1 0-16.9-4.8-15.1-10.7l24.7-82.7c1.7-6 8.5-10.8 15.2-10.8l92.7 0.3c6.6 0 13.4 4.9 15.1 10.7l24.5 82.4c1.8 5.9-5 10.8-15.2 10.8z"/>
									</defs>
									<clipPath id="SVGID_37_">
										<use xlink:href="#SVGID_36_"/>
									</clipPath>
									<g class="st23" clip-path="url(#SVGID_37_)">
										<polygon class="st16" points="0.5 116.6 -1.5 111.8 39 98.1 87.5 96.9 87.7 102.3 39.9 103.5"/>
									</g>
								
							
						
						
							
								
									<defs>
										<path id="SVGID_38_" d="m158.1 158.2h-141.9c-10.1 0-16.9-4.8-15.1-10.7l24.7-82.7c1.7-6 8.5-10.8 15.2-10.8l92.7 0.3c6.6 0 13.4 4.9 15.1 10.7l24.5 82.4c1.8 5.9-5 10.8-15.2 10.8z"/>
									</defs>
									<clipPath id="SVGID_39_">
										<use xlink:href="#SVGID_38_"/>
									</clipPath>
									<g class="st24" clip-path="url(#SVGID_39_)">
										<polygon class="st16" points="79.2 130.9 -0.4 130.9 1.3 125.5 79.4 125.6"/>
									</g>
								
							
						
						
							
								
									<defs>
										<path id="SVGID_40_" d="m158.1 158.2h-141.9c-10.1 0-16.9-4.8-15.1-10.7l24.7-82.7c1.7-6 8.5-10.8 15.2-10.8l92.7 0.3c6.6 0 13.4 4.9 15.1 10.7l24.5 82.4c1.8 5.9-5 10.8-15.2 10.8z"/>
									</defs>
									<clipPath id="SVGID_41_">
										<use xlink:href="#SVGID_40_"/>
									</clipPath>
									<g class="st25" clip-path="url(#SVGID_41_)">
										<polygon class="st16" points="11.5 160.4 2.2 160.4 11.4 128.7 19.6 128.7"/>
									</g>
								
							
						
						
							
								
									<defs>
										<path id="SVGID_42_" d="m158.1 158.2h-141.9c-10.1 0-16.9-4.8-15.1-10.7l24.7-82.7c1.7-6 8.5-10.8 15.2-10.8l92.7 0.3c6.6 0 13.4 4.9 15.1 10.7l24.5 82.4c1.8 5.9-5 10.8-15.2 10.8z"/>
									</defs>
									<clipPath id="SVGID_43_">
										<use xlink:href="#SVGID_42_"/>
									</clipPath>
									<g class="st26" clip-path="url(#SVGID_43_)">
										<polygon class="st16" points="47.8 158.9 38.5 158.9 43.5 128.7 51.8 128.8"/>
									</g>
								
							
						
						
							
								
									<defs>
										<path id="SVGID_44_" d="m158.1 158.2h-141.9c-10.1 0-16.9-4.8-15.1-10.7l24.7-82.7c1.7-6 8.5-10.8 15.2-10.8l92.7 0.3c6.6 0 13.4 4.9 15.1 10.7l24.5 82.4c1.8 5.9-5 10.8-15.2 10.8z"/>
									</defs>
									<clipPath id="SVGID_45_">
										<use xlink:href="#SVGID_44_"/>
									</clipPath>
									<g class="st27" clip-path="url(#SVGID_45_)">
										<polygon class="st16" points="107.6 161.6 91.2 142.3 91.4 158.9 82.2 158.9 82.9 118.8 115.8 159.3"/>
									</g>
								
							
						
						
							
								
									<defs>
										<path id="SVGID_46_" d="m158.1 158.2h-141.9c-10.1 0-16.9-4.8-15.1-10.7l24.7-82.7c1.7-6 8.5-10.8 15.2-10.8l92.7 0.3c6.6 0 13.4 4.9 15.1 10.7l24.5 82.4c1.8 5.9-5 10.8-15.2 10.8z"/>
									</defs>
									<clipPath id="SVGID_47_">
										<use xlink:href="#SVGID_46_"/>
									</clipPath>
									<g class="st28" clip-path="url(#SVGID_47_)">
										<polygon class="st29" points="151.8 162.5 95 135.6 100.2 131.5 156.8 158.4"/>
									</g>
								
							
						
						
							
								
									<defs>
										<path id="SVGID_48_" d="m158.1 158.2h-141.9c-10.1 0-16.9-4.8-15.1-10.7l24.7-82.7c1.7-6 8.5-10.8 15.2-10.8l92.7 0.3c6.6 0 13.4 4.9 15.1 10.7l24.5 82.4c1.8 5.9-5 10.8-15.2 10.8z"/>
									</defs>
									<clipPath id="SVGID_49_">
										<use xlink:href="#SVGID_48_"/>
									</clipPath>
									<g class="st30" clip-path="url(#SVGID_49_)">
										<polygon class="st29" points="82.4 130.3 13.2 84.8 18.9 80.7 87.8 126.2"/>
									</g>
								
							
						
						
							
								
									<defs>
										<path id="SVGID_50_" d="m158.1 158.2h-141.9c-10.1 0-16.9-4.8-15.1-10.7l24.7-82.7c1.7-6 8.5-10.8 15.2-10.8l92.7 0.3c6.6 0 13.4 4.9 15.1 10.7l24.5 82.4c1.8 5.9-5 10.8-15.2 10.8z"/>
									</defs>
									<clipPath id="SVGID_51_">
										<use xlink:href="#SVGID_50_"/>
									</clipPath>
									<path class="st31" d="m108.6 129.2c0.6 7.6-9 13.8-21.4 13.8s-22-6.2-21.4-13.8 10.2-13.8 21.4-13.8 20.8 6.2 21.4 13.8z" clip-path="url(#SVGID_51_)"/>
								
							
						
						
							
								
									<defs>
										<path id="SVGID_52_" d="m158.1 158.2h-141.9c-10.1 0-16.9-4.8-15.1-10.7l24.7-82.7c1.7-6 8.5-10.8 15.2-10.8l92.7 0.3c6.6 0 13.4 4.9 15.1 10.7l24.5 82.4c1.8 5.9-5 10.8-15.2 10.8z"/>
									</defs>
									<clipPath id="SVGID_53_">
										<use xlink:href="#SVGID_52_"/>
									</clipPath>
									<path class="st32" d="m87.2 145.7c-15 0-26.4-7.4-25.5-16.5s12.3-16.5 25.6-16.5c13.2 0 24.7 7.4 25.5 16.5s-10.7 16.5-25.6 16.5zm0-27.6c-9.1 0-16.9 5-17.3 11.1s7.3 11.1 17.2 11.1 17.6-5 17.3-11.1c-0.4-6.1-8.1-11.1-17.2-11.1z" clip-path="url(#SVGID_53_)"/>
								
							
						
						
							
								
									<defs>
										<path id="SVGID_54_" d="m158.1 158.2h-141.9c-10.1 0-16.9-4.8-15.1-10.7l24.7-82.7c1.7-6 8.5-10.8 15.2-10.8l92.7 0.3c6.6 0 13.4 4.9 15.1 10.7l24.5 82.4c1.8 5.9-5 10.8-15.2 10.8z"/>
									</defs>
									<clipPath id="SVGID_55_">
										<use xlink:href="#SVGID_54_"/>
									</clipPath>
									<g class="st33" clip-path="url(#SVGID_55_)">
										<polygon class="st16" points="8.1 88.4 8.4 83.1 86.4 70.2 87.8 75.4"/>
									</g>
								
							
						
					
				
			
		
	
	<path class="st34" d="M86.5,0C60.7,0,39.7,21,39.7,46.8c0,32,41.9,79,43.6,81c1.7,1.9,4.6,1.9,6.3,0c1.8-2,43.6-49,43.6-81   C133.2,21,112.3,0,86.5,0z"/>
	<path class="st35" d="m16 96.7c-8.8 0-16 7.2-16 16 0 11 14.3 27.1 15 27.8 0.6 0.6 1.6 0.6 2.1 0 0.6-0.7 15-16.8 15-27.8 0-8.8-7.2-16-16.1-16z"/>
	<path class="st36" d="m157.5 57.4c-8.8 0-16 7.2-16 16 0 11 14.3 27.1 15 27.8 0.6 0.6 1.6 0.6 2.1 0 0.6-0.7 15-16.8 15-27.8-0.1-8.8-7.2-16-16.1-16z"/>
	<path class="st37" d="m133.3 107.1c-8.8 0-16 7.2-16 16 0 11 14.3 27.1 15 27.8 0.6 0.6 1.6 0.6 2.1 0 0.6-0.7 15-16.8 15-27.8-0.1-8.8-7.3-16-16.1-16z"/>
	
		
			<path class="st16" d="m140.4 121.2c-1.9-2.7-4.3-2.1-5.8-1.7-0.2 0-0.3 0.1-0.5 0.1 0.2-1.7 1.1-3 2.7-4l-0.7-1.1c-0.9 0.5-1.6 1.1-2.1 1.8-0.2-0.6-0.5-1.2-0.9-1.6-0.8-0.8-2-1.2-3.6-1.2h-0.6v0.6c0 1.6 0.4 2.8 1.2 3.6 0.7 0.7 1.6 1.1 2.8 1.2 0 0.2-0.1 0.4-0.1 0.6-0.2 0-0.4-0.1-0.6-0.1-1.6-0.4-3.9-1-5.8 1.7-0.9 1.3-1.2 3.1-0.8 5.1 0.5 2.4 1.9 4.9 3.3 5.8 1.7 1.1 3.1 0.6 4 0.3 0.2-0.1 0.5-0.2 0.6-0.2s0.4 0.1 0.6 0.2c0.5 0.2 1.1 0.4 1.8 0.4 0.6 0 1.4-0.2 2.1-0.7 1.4-0.9 2.8-3.4 3.3-5.8 0.3-1.9 0-3.6-0.9-5z"/>
		
	
	
		
			<path class="st16" d="m150.9 71.2c0.2 0.1 0.8 0.6 1.9 1.3 1 0.7 1.8 1.3 2.4 1.7 0.1 0 0.2 0.1 0.4 0.3 0.2 0.1 0.4 0.3 0.5 0.3 0.1 0.1 0.3 0.2 0.5 0.3s0.4 0.2 0.5 0.2c0.2 0.1 0.3 0.1 0.5 0.1 0.1 0 0.3 0 0.5-0.1s0.3-0.1 0.5-0.2 0.3-0.2 0.5-0.3c0.1-0.1 0.3-0.2 0.5-0.3s0.3-0.2 0.4-0.3c0.6-0.4 2-1.4 4.3-3 0.4-0.3 0.8-0.7 1.1-1.1s0.4-0.9 0.4-1.4c0-0.4-0.1-0.7-0.4-1s-0.6-0.4-1-0.4h-13.4c-0.5 0-0.8 0.2-1.1 0.5s-0.4 0.7-0.4 1.2c0 0.4 0.2 0.8 0.5 1.2 0.2 0.4 0.5 0.7 0.9 1z"/>
			<path class="st16" d="m164.7 72.1c-2 1.3-3.5 2.4-4.5 3.1-0.3 0.3-0.6 0.5-0.8 0.6s-0.5 0.3-0.9 0.4-0.7 0.2-1 0.2-0.6-0.1-1-0.2-0.6-0.3-0.9-0.4c-0.2-0.1-0.5-0.3-0.8-0.6-0.8-0.6-2.3-1.6-4.5-3.1-0.3-0.2-0.7-0.5-0.9-0.8v7.2c0 0.4 0.1 0.7 0.4 1s0.6 0.4 1 0.4h13.4c0.4 0 0.7-0.1 1-0.4s0.4-0.6 0.4-1v-7.2c-0.2 0.3-0.5 0.6-0.9 0.8z"/>
		
	
	<path class="st16" d="m18.7 122.1h-5.4c-0.3 0-0.5-0.2-0.5-0.5v-4.9h-5c-0.3 0-0.5-0.2-0.5-0.5v-5.4c0-0.3 0.2-0.5 0.5-0.5h4.9v-4.9c0-0.3 0.2-0.5 0.5-0.5h5.4c0.3 0 0.5 0.2 0.5 0.5v4.9h4.9c0.3 0 0.5 0.2 0.5 0.5v5.4c0 0.3-0.2 0.5-0.5 0.5h-4.9v4.9c0.1 0.3-0.1 0.5-0.4 0.5z"/>
	<circle class="st16" cx="86.7" cy="47.5" r="32.5"/>
	<path class="st34" d="m108.8 29.9c-0.5-1.1-1.1-1.7-2.4-2.6-1.1-0.8-2.8-0.4-3.7 0.5-4.7 4.6-9.2 9.5-13.3 14.6-2 2.5-4.9 5.5-6.7 8.7-0.9-0.7-1.7-1.4-2.5-2.1-2.6-2.4-5.4-5.4-8.7-6.9-2.7-1.3-4.7-0.1-6.4 2.1-0.5 0.7-1.1 1.8-1.1 2.7-0.7 0.7-0.9 1.9 0 3 5.7 7 12.8 12.5 20.3 17.5 1 0.7 2.9 0.5 3.7-0.5 8.1-10.3 15.7-21.7 22.3-33 1.2-2 0-3.6-1.5-4z"/>


	<path class="st37" d="m239.5 91.2c0 0.9 0.4 2.1 1.1 3.5l0.4 1.2-0.1-0.1c2.8 5.1 5.6 9.9 8.7 14.8l1.8 3.3v-0.1c4.4 7.5 8.5 15 12.3 23.7 0 0-0.2 1-0.3 1.7 0 0.2-0.1 0.8-0.1 1-1.3 0.9-3 1.7-4.8 1.9-1.9-1.2-2.4-1.5-3.4-1.2l-3.7-7.3-2.2-4.5-1.9-3.8h-3.5c-7.2 0-15.7 0.2-23.4 0.4-1.7 2.4-2.4 3.6-3.1 5.1-2 3.8-2.6 4.7-3.1 5.5-0.8 0.9-1.3 1.7-2.5 3.9h0.1c-0.3 0.8-0.8 1.7-1.9 2.6-3.4 0.5-5.8-2.4-7.3-4.5l0.9-2.1c0.6-1.3 1.1-2.7 2.6-3.7l-0.1 0.2c5.2-9.4 10.9-19.2 16.6-28.7l3.8-6.1-0.1 0.1c0.3-0.8 0.9-1.5 1.1-2.2v0.1c0-0.1 0.1-0.1 0.1-0.3 0-0.1 0.3 0.9-0.2-2.5 0.7 0.2 2.4-0.8 2.1-1.2 0.3-0.6 0.7-0.9 1-0.9 0-0.3 0.1-0.6 0.3-1.2l1.3-0.2c0.9-0.3 2-0.6 3.4-0.6 1.3 0 2.7 0.3 4 1.3l0.1 0.9zm-12.5 24c3.3-0.8 8.5 0.7 11.2 0h3.1c-1.7-3.6-3.3-7-5.3-10.6l-1.7-2.7c-1.1 2.1-2.6 4.7-4 7.1v-0.1c-0.4 0.8-1.1 1.7-1.6 2.6l-1.7 3.7z"/>
	<path class="st37" d="m282.8 122.3h-3.6c-0.1 0.8 0 1.7 0 2.4 0 1.6 0.1 3.3 0.2 4.8 0.1 2 0.2 4.2 0.2 6 0 2.6-0.1 4.9-0.9 6.9-3.5 0.3-5.4-0.3-7.6-1.1-1.8-2.7-1.9-6.2-2-9v-0.7c0-1-0.1-2-0.1-3v-2.9c0-8 0.3-16.1 0.7-23.4 0-0.7 0.1-2.1 0.1-2.8-0.4-1.2-0.8-2.6-0.8-3.7 0-1.8 0.3-3.9 1-5.7 3.6-1 7.8-1.3 11.6-1.7l6-0.6h2.6c7.8 0.1 16.3 0.1 22.8 3.8 1.5 0.9 3.9 3 5.3 4.3 2.6 2.2 3.6 5.3 4.8 8.5 0.2 4-0.4 6.6-1.1 9.2-6.4 8.3-21.1 8.4-35.2 8.7-1.4-0.2-2.6 0-4 0zm21.7-11.1c3.9-0.4 8-0.9 10.3-2.9 0-0.3 0-0.6 0.3-1 0-1.5 0-2.7-0.4-3.7l0.1 0.1c-3.8-5.7-11.8-7.3-20.1-7.3-4.4 0-9.8 0.6-14.1 1-0.3 0.1-1 0.3-1.1 0.4 0.1 1.1 0.1 2.4 0.1 3.5 0 0.8-0.1 1.6-0.1 2.1v2.2c-0.1 2.1-0.2 4.4-0.1 7 1.9 0.1 3.8 0.1 5.7 0.1 5.1 0 10.5-0.3 15.4-1.1 1.2-0.1 2.4-0.3 4-0.4z"/>
	<path class="st36" d="m371.5 90.4c1.6 1.5 3.1 3.5 2.4 6-1.3 2.9-4 2.8-6.3 2.6h-0.4c-0.6-0.1-1.1-0.1-1.6-0.1-4.2 0-8.7 0.1-13 0.2-3.1 0.1-7.4 0.1-10.2 0.1-2.5 0-4 0-6-0.1-0.1 0.9-0.1 2.1-0.1 3.1 0 0.7-0.1 1.1-0.1 1.8 0 0.8-0.1 1.6-0.1 2.4 0 1.5 0 2.7-0.1 3.7 5.7-0.2 10.9-0.3 16.1-0.3 4.2 0 8.5 0 12.5 0.3 2.6 0.6 4.3 3.5 4.3 6.5 0 1.2-0.2 2.6-1.1 3.8-4.9-0.3-10.7-0.7-15.9-0.7-5.6 0-11.2 0.2-16.5 1.3v7.5c0 1.6 0.1 2.5 0 4.2 4.2 0.1 7.9 0.2 12.4 0.2 8 0 16.5-0.2 25.6-0.7 0.4 0 1.1-0.1 1.9-0.2 2.2-0.2 4.4-0.5 6.2 1.1 1 3.1-0.1 7.2-1.9 8.3-8 0-17.2 0.1-25.7 0.7-2 0.1-4.3 0.2-6.3 0.2-1.1 0-2.2 0.1-3.3 0.1-3.6 0.1-7.8 0.2-11.9 0.6-0.7-0.7-1-0.8-1.3-0.9-0.1 0-0.5-0.2-0.5-0.2-0.1 0-0.4-0.1-0.6-0.1-1.1-0.5-2.4-1-2.8-1.5-0.4-0.9-0.6-2.7-0.6-4.5 0-1.2 0.1-3.1 0.2-4.4v-0.4c-0.1-7.4 0.3-15.2 0.8-21.8l0.6-13c-1.9-3 0-6.9 2.9-7.4 5.8 0.6 11.7 0.7 17.4 0.7h4.5c1.6 0 2.9-0.1 4.5-0.1 3.7-0.1 9.7-0.1 12.9-0.1l1.1 1.1z"/>
	<path class="st36" d="m438.7 113.9c-3.8 5.5-10.2 7-17.7 7.8 1.9 1.9 3.9 3.3 6.1 4.5h-0.1c0.3 0.2 0.8 0.7 1.2 0.9 1.5 0.8 2.7 1.6 3.8 2.4 1.2 0.9 2.8 2 4.3 2.9 1 0.7 2 1.2 2.9 1.9 1.2 0.9 2.9 2.1 4.7 3.3 0.2 4.3-2.4 5.7-5.2 5.7-1.7 0-3.5-0.3-4.7-0.8-4.5-3.8-9.4-7.3-14.3-10.5h0.1l-2.5-1.6c-3.6-2.4-8.1-5.2-11.7-8-1.2 0-2.5 0.1-3.6 0.2h0.1c-2 0.2-4.5 0.4-6.2 0.2v2.1c0 1.5 0.1 2.9 0.2 4.7v2c0.1 1.2 0.2 2.8 0.2 4 0 2.6-0.2 4.7-0.9 6.9-3.5 0.2-5.4-0.4-8.1-1.3-0.3-0.8-0.7-1.3-1.3-1.9-0.3-5.4-0.4-11.6-0.4-17.2 0-7.5 0.3-15.2 0.7-22.5-0.4-1.1-0.8-2.6-0.8-3.5 0-1.5 0.3-3.3 0.7-4.6 0-0.5 0.2-1 0.2-1.3 3.7-1 7.8-1.3 11.7-1.7l6-0.6c1.6 0.1 3.4 0.1 5.2 0.1 2 0 4.2 0 6.3 0.1 7.4 0.3 14.1 2.9 18.9 7.6 2.9 2.6 5.2 7.2 5.2 11.9 0 1.9-0.1 3.9-0.9 6l-0.1 0.3zm-17.7-2.2h0.3c4.2-0.4 8-1.1 10.6-3.3 0-0.1 0.1-0.6 0.2-0.7 0.3-4-1.7-5.4-4-7.2h-0.1l-1.1-1c-5.1-2-10.6-2.6-16.2-2.6-4.6 0-9.4 0.3-14.3 1.2 0.1 1.2 0.1 2.6 0.1 3.7 0 0.8-0.1 1.5-0.1 2.1v2.2c0 2-0.1 4.2 0 6.7 2 0.1 3.9 0.2 6.2 0.2 4.7 0 9.7-0.3 14.7-1.1 1.1 0 2.4-0.1 3.7-0.2z"/>
	<path class="st35" d="m508.2 91.3c0.2 0.1 0.6 0.3 0.8 0.7 1.7 2.7-0.1 7.5-2 8.8-3.8 0-7.4 0-10.8-0.1h-3.7c-1.5 0-2.7-0.1-3.6-0.1-2.4 0-4.4 0.1-6.5 0.2h-0.2c-0.1 2.1-0.1 4-0.1 6.3v2.4c0 3.9 0 7.9 0.1 12 0.1 4.4 0.1 8.9 0.1 13v0.9c0 0.3 0.1 0.6 0.1 0.8 0.1 1.8 0 4-1.5 6-1.9 0.8-5.7 0.7-7.6-0.7-0.8-3.8-1-8.5-1-13.6 0-2.9 0.1-5.8 0.2-8.8v-0.6c0-0.4 0.1-1 0.1-1.6v-1.3c0.2-4.4-0.2-8.9-0.7-12.9l-0.2-1.7c-1.2-0.3-2.6-0.2-3.9-0.2-2 0-3.9 0.1-6.1 0.3s-4.4 0.3-6.5 0.3c-2 0-3.7-0.1-5.3-0.4-2.7-2.8-2.8-5.7-2.7-9.3 1-0.6 1.6-0.9 1.8-1.5 4.2 0.2 9.1 0.2 13.3 0.2s8.5 0 12.7-0.1c5.2-0.1 10.2-0.1 15.2-0.1h5.7c4.2 0 7 0 11.9 0.4l0.4 0.7z"/>
	<path class="st35" d="m547.8 91.2c0 0.9 0.5 2.1 1.1 3.5l0.4 1.2-0.1-0.1c2.8 5.1 5.6 9.9 8.7 14.8l1.8 3.3v-0.1c4.4 7.5 8.5 15 12.3 23.7 0 0-0.2 1-0.3 1.7 0 0.2-0.1 0.8-0.1 1-1.3 0.9-3 1.7-4.8 1.9-1.9-1.2-2.4-1.5-3.4-1.2l-3.7-7.3-2.2-4.5-1.9-3.8h-3.6c-7.2 0-15.7 0.2-23.4 0.4-1.7 2.4-2.4 3.6-3.1 5.1-2 3.8-2.6 4.7-3.1 5.5-0.8 0.9-1.3 1.7-2.5 3.9h0.1c-0.3 0.8-0.8 1.7-1.9 2.6-3.4 0.5-5.8-2.4-7.3-4.5l0.9-2.1c0.6-1.3 1.1-2.7 2.6-3.7l-0.1 0.2c5.2-9.4 10.9-19.2 16.6-28.7l3.8-6.1-0.1 0.1c0.3-0.8 0.9-1.5 1.1-2.2v0.1c0-0.1 0.1-0.1 0.1-0.3 0-0.1 0.3 0.9-0.2-2.5 0.7 0.2 2.4-0.8 2.1-1.2 0.3-0.6 0.7-0.9 1-0.9 0-0.3 0.1-0.6 0.3-1.2l1.3-0.2c0.9-0.3 2-0.6 3.4-0.6 1.3 0 2.7 0.3 4 1.3l0.2 0.9zm-12.5 24c3.3-0.8 8.5 0.7 11.2 0h3.1c-1.7-3.6-3.3-7-5.3-10.6l-1.7-2.7c-1.1 2.1-2.6 4.7-4 7.1v-0.1c-0.5 0.8-1.1 1.7-1.6 2.6l-1.7 3.7z"/>

</svg>
