<?xml version="1.0" encoding="UTF-8"?>
<svg width="677.06" height="233.9" version="1.1" viewBox="0 0 677.06 233.9" xml:space="preserve" xmlns="http://www.w3.org/2000/svg" xmlns:xlink="http://www.w3.org/1999/xlink">
<style type="text/css">
	.st0{fill:url(#SVGID_1_);}
	.st1{fill:#DAD0C9;}
	.st2{clip-path:url(#SVGID_3_);}
	.st3{fill:#E0DFDF;}
	.st4{clip-path:url(#SVGID_5_);}
	.st5{clip-path:url(#SVGID_7_);}
	.st6{fill:#ABD3E0;}
	.st7{clip-path:url(#SVGID_9_);}
	.st8{clip-path:url(#SVGID_11_);}
	.st9{fill:#CDECB0;}
	.st10{clip-path:url(#SVGID_13_);}
	.st11{clip-path:url(#SVGID_15_);}
	.st12{clip-path:url(#SVGID_17_);}
	.st13{clip-path:url(#SVGID_19_);}
	.st14{clip-path:url(#SVGID_21_);}
	.st15{clip-path:url(#SVGID_23_);}
	.st16{fill:#FFFFFF;}
	.st17{clip-path:url(#SVGID_25_);}
	.st18{clip-path:url(#SVGID_27_);}
	.st19{clip-path:url(#SVGID_29_);}
	.st20{clip-path:url(#SVGID_31_);}
	.st21{clip-path:url(#SVGID_33_);}
	.st22{clip-path:url(#SVGID_35_);}
	.st23{clip-path:url(#SVGID_37_);}
	.st24{clip-path:url(#SVGID_39_);}
	.st25{clip-path:url(#SVGID_41_);}
	.st26{clip-path:url(#SVGID_43_);}
	.st27{clip-path:url(#SVGID_45_);}
	.st28{clip-path:url(#SVGID_47_);}
	.st29{fill:#FCD6A5;}
	.st30{clip-path:url(#SVGID_49_);}
	.st31{clip-path:url(#SVGID_51_);fill:#E0DFDF;}
	.st32{clip-path:url(#SVGID_53_);fill:#FCD6A5;}
	.st33{clip-path:url(#SVGID_55_);}
	.st34{fill:#F12A2A;}
	.st35{fill:#009A00;}
	.st36{fill:#FFC900;}
	.st37{fill:#0060B1;}
</style>
<g transform="translate(-346.38,-302.62)">
	
		
			
				<linearGradient id="SVGID_1_" x1="347.45" x2="575.8" y1="1804.9" y2="1804.9" gradientTransform="translate(0 -1286.6)" gradientUnits="userSpaceOnUse">
				<stop stop-color="#E0DFDF" offset="0"/>
				<stop stop-color="#DAD0C9" offset=".0539"/>
				<stop stop-color="#E0DFDF" offset=".128"/>
				<stop stop-color="#E0DFDF" offset=".8798"/>
				<stop stop-color="#DAD0C9" offset=".9445"/>
				<stop stop-color="#E0DFDF" offset="1"/>
			</linearGradient>
			<path class="st0" d="m575.8 500.03h-228.35v25.12c0.26 6.48 9.12 11.37 21.55 11.37h185.51c12.56 0 21.16-4.89 21.29-11.37z" fill="url(#SVGID_1_)"/>
			
				
					
						<path class="st1" d="m555.43 511.79h-187.62c-13.35 0-22.35-6.35-19.97-14.15l32.66-109.34c2.25-7.93 11.24-14.28 20.1-14.28l122.57 0.4c8.73 0 17.72 6.48 19.97 14.15l32.39 108.95c2.38 7.8-6.61 14.27-20.1 14.27z" fill="#dad0c9"/>
						
							
								
									
										
											<defs>
												<path id="SVGID_2_" d="m555.43 511.79h-187.62c-13.35 0-22.35-6.35-19.97-14.15l32.66-109.34c2.25-7.93 11.24-14.28 20.1-14.28l122.57 0.4c8.73 0 17.72 6.48 19.97 14.15l32.39 108.95c2.38 7.8-6.61 14.27-20.1 14.27z"/>
											</defs>
											<clipPath id="SVGID_3_">
												<use width="100%" height="100%" xlink:href="#SVGID_2_"/>
											</clipPath>
											<g class="st2" clip-path="url(#SVGID_3_)">
												<polygon class="st3" points="458.65 432.2 400.07 434.18 375.61 418.44 375.87 415.01 459.57 401.65" fill="#e0dfdf"/>
											</g>
										
									
								
							
							
								
									
										
											<defs>
												<path id="SVGID_4_" d="m555.43 511.79h-187.62c-13.35 0-22.35-6.35-19.97-14.15l32.66-109.34c2.25-7.93 11.24-14.28 20.1-14.28l122.57 0.4c8.73 0 17.72 6.48 19.97 14.15l32.39 108.95c2.38 7.8-6.61 14.27-20.1 14.27z"/>
											</defs>
											<clipPath id="SVGID_5_">
												<use width="100%" height="100%" xlink:href="#SVGID_4_"/>
											</clipPath>
											<g class="st4" clip-path="url(#SVGID_5_)">
												<polygon class="st3" points="556.89 474.38 580.95 472.39 565.48 432.46 536.53 448.19" fill="#e0dfdf"/>
											</g>
										
									
								
							
							
								
									
										
											<defs>
												<path id="SVGID_6_" d="m555.43 511.79h-187.62c-13.35 0-22.35-6.35-19.97-14.15l32.66-109.34c2.25-7.93 11.24-14.28 20.1-14.28l122.57 0.4c8.73 0 17.72 6.48 19.97 14.15l32.39 108.95c2.38 7.8-6.61 14.27-20.1 14.27z"/>
											</defs>
											<clipPath id="SVGID_7_">
												<use width="100%" height="100%" xlink:href="#SVGID_6_"/>
											</clipPath>
											<g class="st5" clip-path="url(#SVGID_7_)">
												<polygon class="st6" points="472.4 484.29 498.05 520.26 462.08 516.29 462.22 482.71" fill="#abd3e0"/>
											</g>
										
									
								
							
							
								
									
										
											<defs>
												<path id="SVGID_8_" d="m555.43 511.79h-187.62c-13.35 0-22.35-6.35-19.97-14.15l32.66-109.34c2.25-7.93 11.24-14.28 20.1-14.28l122.57 0.4c8.73 0 17.72 6.48 19.97 14.15l32.39 108.95c2.38 7.8-6.61 14.27-20.1 14.27z"/>
											</defs>
											<clipPath id="SVGID_9_">
												<use width="100%" height="100%" xlink:href="#SVGID_8_"/>
											</clipPath>
											<g class="st7" clip-path="url(#SVGID_9_)">
												<polygon class="st6" points="367.94 471.6 411.18 471.73 404.83 514.7 356.31 514.7" fill="#abd3e0"/>
											</g>
										
									
								
							
							
								
									
										
											<defs>
												<path id="SVGID_10_" d="m555.43 511.79h-187.62c-13.35 0-22.35-6.35-19.97-14.15l32.66-109.34c2.25-7.93 11.24-14.28 20.1-14.28l122.57 0.4c8.73 0 17.72 6.48 19.97 14.15l32.39 108.95c2.38 7.8-6.61 14.27-20.1 14.27z"/>
											</defs>
											<clipPath id="SVGID_11_">
												<use width="100%" height="100%" xlink:href="#SVGID_10_"/>
											</clipPath>
											<g class="st8" clip-path="url(#SVGID_11_)">
												<polygon class="st9" points="498.71 411.57 496.33 361.32 460.5 361.19 462.22 408.66" fill="#cdecb0"/>
											</g>
										
									
								
							
							
								
									
										
											<defs>
												<path id="SVGID_12_" d="m555.43 511.79h-187.62c-13.35 0-22.35-6.35-19.97-14.15l32.66-109.34c2.25-7.93 11.24-14.28 20.1-14.28l122.57 0.4c8.73 0 17.72 6.48 19.97 14.15l32.39 108.95c2.38 7.8-6.61 14.27-20.1 14.27z"/>
											</defs>
											<clipPath id="SVGID_13_">
												<use width="100%" height="100%" xlink:href="#SVGID_12_"/>
											</clipPath>
											<g class="st10" clip-path="url(#SVGID_13_)">
												<polygon class="st9" points="539.17 405.35 560.06 423.87 540.36 373.49 524.1 392.53" fill="#cdecb0"/>
											</g>
										
									
								
							
							
								
									
										
											<defs>
												<path id="SVGID_14_" d="m555.43 511.79h-187.62c-13.35 0-22.35-6.35-19.97-14.15l32.66-109.34c2.25-7.93 11.24-14.28 20.1-14.28l122.57 0.4c8.73 0 17.72 6.48 19.97 14.15l32.39 108.95c2.38 7.8-6.61 14.27-20.1 14.27z"/>
											</defs>
											<clipPath id="SVGID_15_">
												<use width="100%" height="100%" xlink:href="#SVGID_14_"/>
											</clipPath>
											<g class="st11" clip-path="url(#SVGID_15_)">
												<polygon class="st9" points="478.74 483.23 556.09 516.69 588.22 508.75 572.75 473.32 484.03 474.11" fill="#cdecb0"/>
											</g>
										
									
								
							
							
								
									
										
											<defs>
												<path id="SVGID_16_" d="m555.43 511.79h-187.62c-13.35 0-22.35-6.35-19.97-14.15l32.66-109.34c2.25-7.93 11.24-14.28 20.1-14.28l122.57 0.4c8.73 0 17.72 6.48 19.97 14.15l32.39 108.95c2.38 7.8-6.61 14.27-20.1 14.27z"/>
											</defs>
											<clipPath id="SVGID_17_">
												<use width="100%" height="100%" xlink:href="#SVGID_16_"/>
											</clipPath>
											<g class="st12" clip-path="url(#SVGID_17_)">
												<polygon class="st6" points="458.78 400.2 351.55 417.52 360.27 388.43 461.29 372.7" fill="#abd3e0"/>
											</g>
										
									
								
							
							
								
									
										
											<defs>
												<path id="SVGID_18_" d="m555.43 511.79h-187.62c-13.35 0-22.35-6.35-19.97-14.15l32.66-109.34c2.25-7.93 11.24-14.28 20.1-14.28l122.57 0.4c8.73 0 17.72 6.48 19.97 14.15l32.39 108.95c2.38 7.8-6.61 14.27-20.1 14.27z"/>
											</defs>
											<clipPath id="SVGID_19_">
												<use width="100%" height="100%" xlink:href="#SVGID_18_"/>
											</clipPath>
											<g class="st13" clip-path="url(#SVGID_19_)">
												<polygon class="st6" points="558.61 422.15 560.06 435.63 528.72 446.21 502.15 413.82 523.44 390.41" fill="#abd3e0"/>
											</g>
										
									
								
							
							
								
									
										
											<defs>
												<path id="SVGID_20_" d="m555.43 511.79h-187.62c-13.35 0-22.35-6.35-19.97-14.15l32.66-109.34c2.25-7.93 11.24-14.28 20.1-14.28l122.57 0.4c8.73 0 17.72 6.48 19.97 14.15l32.39 108.95c2.38 7.8-6.61 14.27-20.1 14.27z"/>
											</defs>
											<clipPath id="SVGID_21_">
												<use width="100%" height="100%" xlink:href="#SVGID_20_"/>
											</clipPath>
											<g class="st14" clip-path="url(#SVGID_21_)">
												<polygon class="st9" points="443.18 462.48 433.39 473.19 340.7 472.66 339.51 456.53 398.22 436.16" fill="#cdecb0"/>
											</g>
										
									
								
							
							
								
									
										
											<defs>
												<path id="SVGID_22_" d="m555.43 511.79h-187.62c-13.35 0-22.35-6.35-19.97-14.15l32.66-109.34c2.25-7.93 11.24-14.28 20.1-14.28l122.57 0.4c8.73 0 17.72 6.48 19.97 14.15l32.39 108.95c2.38 7.8-6.61 14.27-20.1 14.27z"/>
											</defs>
											<clipPath id="SVGID_23_">
												<use width="100%" height="100%" xlink:href="#SVGID_22_"/>
											</clipPath>
											<g class="st15" clip-path="url(#SVGID_23_)">
												<polygon class="st16" points="495.54 364.37 497.78 371.37 363.97 391.87 364.9 384.99" fill="#fff"/>
											</g>
										
									
								
							
							
								
									
										
											<defs>
												<path id="SVGID_24_" d="m555.43 511.79h-187.62c-13.35 0-22.35-6.35-19.97-14.15l32.66-109.34c2.25-7.93 11.24-14.28 20.1-14.28l122.57 0.4c8.73 0 17.72 6.48 19.97 14.15l32.39 108.95c2.38 7.8-6.61 14.27-20.1 14.27z"/>
											</defs>
											<clipPath id="SVGID_25_">
												<use width="100%" height="100%" xlink:href="#SVGID_24_"/>
											</clipPath>
											<g class="st17" clip-path="url(#SVGID_25_)">
												<polygon class="st16" points="465.39 365.69 467.37 466.18 456.66 466.18 457.72 365.69" fill="#fff"/>
											</g>
										
									
								
							
							
								
									
										
											<defs>
												<path id="SVGID_26_" d="m555.43 511.79h-187.62c-13.35 0-22.35-6.35-19.97-14.15l32.66-109.34c2.25-7.93 11.24-14.28 20.1-14.28l122.57 0.4c8.73 0 17.72 6.48 19.97 14.15l32.39 108.95c2.38 7.8-6.61 14.27-20.1 14.27z"/>
											</defs>
											<clipPath id="SVGID_27_">
												<use width="100%" height="100%" xlink:href="#SVGID_26_"/>
											</clipPath>
											<g class="st18" clip-path="url(#SVGID_27_)">
												<polygon class="st16" points="493.02 365.16 500.69 365.56 504 412.89 565.22 471.07 556.76 474.64 495.01 414.61" fill="#fff"/>
											</g>
										
									
								
							
							
								
									
										
											<defs>
												<path id="SVGID_28_" d="m555.43 511.79h-187.62c-13.35 0-22.35-6.35-19.97-14.15l32.66-109.34c2.25-7.93 11.24-14.28 20.1-14.28l122.57 0.4c8.73 0 17.72 6.48 19.97 14.15l32.39 108.95c2.38 7.8-6.61 14.27-20.1 14.27z"/>
											</defs>
											<clipPath id="SVGID_29_">
												<use width="100%" height="100%" xlink:href="#SVGID_28_"/>
											</clipPath>
											<g class="st19" clip-path="url(#SVGID_29_)">
												<polygon class="st16" points="475.04 469.75 567.86 469.75 569.98 476.89 475.31 476.76" fill="#fff"/>
											</g>
										
									
								
							
							
								
									
										
											<defs>
												<path id="SVGID_30_" d="m555.43 511.79h-187.62c-13.35 0-22.35-6.35-19.97-14.15l32.66-109.34c2.25-7.93 11.24-14.28 20.1-14.28l122.57 0.4c8.73 0 17.72 6.48 19.97 14.15l32.39 108.95c2.38 7.8-6.61 14.27-20.1 14.27z"/>
											</defs>
											<clipPath id="SVGID_31_">
												<use width="100%" height="100%" xlink:href="#SVGID_30_"/>
											</clipPath>
											<g class="st20" clip-path="url(#SVGID_31_)">
												<polygon class="st16" points="463.01 405.22 497.52 409.98 535.34 374.94 542.34 380.1 501.49 417.65 461.42 412.23" fill="#fff"/>
											</g>
										
									
								
							
							
								
									
										
											<defs>
												<path id="SVGID_32_" d="m555.43 511.79h-187.62c-13.35 0-22.35-6.35-19.97-14.15l32.66-109.34c2.25-7.93 11.24-14.28 20.1-14.28l122.57 0.4c8.73 0 17.72 6.48 19.97 14.15l32.39 108.95c2.38 7.8-6.61 14.27-20.1 14.27z"/>
											</defs>
											<clipPath id="SVGID_33_">
												<use width="100%" height="100%" xlink:href="#SVGID_32_"/>
											</clipPath>
											<g class="st21" clip-path="url(#SVGID_33_)">
												<polygon class="st16" points="529.65 387.9 560.33 418.18 553.32 421.75 523.17 391.6" fill="#fff"/>
											</g>
										
									
								
							
							
								
									
										
											<defs>
												<path id="SVGID_34_" d="m555.43 511.79h-187.62c-13.35 0-22.35-6.35-19.97-14.15l32.66-109.34c2.25-7.93 11.24-14.28 20.1-14.28l122.57 0.4c8.73 0 17.72 6.48 19.97 14.15l32.39 108.95c2.38 7.8-6.61 14.27-20.1 14.27z"/>
											</defs>
											<clipPath id="SVGID_35_">
												<use width="100%" height="100%" xlink:href="#SVGID_34_"/>
											</clipPath>
											<g class="st22" clip-path="url(#SVGID_35_)">
												<polygon class="st16" points="557.81 430.87 564.69 436.96 535.2 450.97 528.59 444.89" fill="#fff"/>
											</g>
										
									
								
							
							
								
									
										
											<defs>
												<path id="SVGID_36_" d="m555.43 511.79h-187.62c-13.35 0-22.35-6.35-19.97-14.15l32.66-109.34c2.25-7.93 11.24-14.28 20.1-14.28l122.57 0.4c8.73 0 17.72 6.48 19.97 14.15l32.39 108.95c2.38 7.8-6.61 14.27-20.1 14.27z"/>
											</defs>
											<clipPath id="SVGID_37_">
												<use width="100%" height="100%" xlink:href="#SVGID_36_"/>
											</clipPath>
											<g class="st23" clip-path="url(#SVGID_37_)">
												<polygon class="st16" points="397.96 432.33 462.08 430.74 462.35 437.88 399.15 439.47 347.05 456.79 344.41 450.44" fill="#fff"/>
											</g>
										
									
								
							
							
								
									
										
											<defs>
												<path id="SVGID_38_" d="m555.43 511.79h-187.62c-13.35 0-22.35-6.35-19.97-14.15l32.66-109.34c2.25-7.93 11.24-14.28 20.1-14.28l122.57 0.4c8.73 0 17.72 6.48 19.97 14.15l32.39 108.95c2.38 7.8-6.61 14.27-20.1 14.27z"/>
											</defs>
											<clipPath id="SVGID_39_">
												<use width="100%" height="100%" xlink:href="#SVGID_38_"/>
											</clipPath>
											<g class="st24" clip-path="url(#SVGID_39_)">
												<polygon class="st16" points="348.11 468.56 451.37 468.69 451.11 475.7 345.86 475.7" fill="#fff"/>
											</g>
										
									
								
							
							
								
									
										
											<defs>
												<path id="SVGID_40_" d="m555.43 511.79h-187.62c-13.35 0-22.35-6.35-19.97-14.15l32.66-109.34c2.25-7.93 11.24-14.28 20.1-14.28l122.57 0.4c8.73 0 17.72 6.48 19.97 14.15l32.39 108.95c2.38 7.8-6.61 14.27-20.1 14.27z"/>
											</defs>
											<clipPath id="SVGID_41_">
												<use width="100%" height="100%" xlink:href="#SVGID_40_"/>
											</clipPath>
											<g class="st25" clip-path="url(#SVGID_41_)">
												<polygon class="st16" points="361.46 472.79 372.3 472.79 361.59 514.7 349.3 514.7" fill="#fff"/>
											</g>
										
									
								
							
							
								
									
										
											<defs>
												<path id="SVGID_42_" d="m555.43 511.79h-187.62c-13.35 0-22.35-6.35-19.97-14.15l32.66-109.34c2.25-7.93 11.24-14.28 20.1-14.28l122.57 0.4c8.73 0 17.72 6.48 19.97 14.15l32.39 108.95c2.38 7.8-6.61 14.27-20.1 14.27z"/>
											</defs>
											<clipPath id="SVGID_43_">
												<use width="100%" height="100%" xlink:href="#SVGID_42_"/>
											</clipPath>
											<g class="st26" clip-path="url(#SVGID_43_)">
												<polygon class="st16" points="403.91 472.79 414.88 472.92 409.59 512.72 397.29 512.72" fill="#fff"/>
											</g>
										
									
								
							
							
								
									
										
											<defs>
												<path id="SVGID_44_" d="m555.43 511.79h-187.62c-13.35 0-22.35-6.35-19.97-14.15l32.66-109.34c2.25-7.93 11.24-14.28 20.1-14.28l122.57 0.4c8.73 0 17.72 6.48 19.97 14.15l32.39 108.95c2.38 7.8-6.61 14.27-20.1 14.27z"/>
											</defs>
											<clipPath id="SVGID_45_">
												<use width="100%" height="100%" xlink:href="#SVGID_44_"/>
											</clipPath>
											<g class="st27" clip-path="url(#SVGID_45_)">
												<polygon class="st16" points="467.24 512.72 455.08 512.72 456 459.7 499.5 513.25 488.66 516.29 466.98 490.77" fill="#fff"/>
											</g>
										
									
								
							
							
								
									
										
											<defs>
												<path id="SVGID_46_" d="m555.43 511.79h-187.62c-13.35 0-22.35-6.35-19.97-14.15l32.66-109.34c2.25-7.93 11.24-14.28 20.1-14.28l122.57 0.4c8.73 0 17.72 6.48 19.97 14.15l32.39 108.95c2.38 7.8-6.61 14.27-20.1 14.27z"/>
											</defs>
											<clipPath id="SVGID_47_">
												<use width="100%" height="100%" xlink:href="#SVGID_46_"/>
											</clipPath>
											<g class="st28" clip-path="url(#SVGID_47_)">
												<polygon class="st29" points="478.88 476.49 553.71 512.06 547.1 517.48 472 481.91" fill="#fcd6a5"/>
											</g>
										
									
								
							
							
								
									
										
											<defs>
												<path id="SVGID_48_" d="m555.43 511.79h-187.62c-13.35 0-22.35-6.35-19.97-14.15l32.66-109.34c2.25-7.93 11.24-14.28 20.1-14.28l122.57 0.4c8.73 0 17.72 6.48 19.97 14.15l32.39 108.95c2.38 7.8-6.61 14.27-20.1 14.27z"/>
											</defs>
											<clipPath id="SVGID_49_">
												<use width="100%" height="100%" xlink:href="#SVGID_48_"/>
											</clipPath>
											<g class="st30" clip-path="url(#SVGID_49_)">
												<polygon class="st29" points="371.38 409.32 462.48 469.48 455.34 474.9 363.84 414.74" fill="#fcd6a5"/>
											</g>
										
									
								
							
							
								
									
										
											<defs>
												<path id="SVGID_50_" d="m555.43 511.79h-187.62c-13.35 0-22.35-6.35-19.97-14.15l32.66-109.34c2.25-7.93 11.24-14.28 20.1-14.28l122.57 0.4c8.73 0 17.72 6.48 19.97 14.15l32.39 108.95c2.38 7.8-6.61 14.27-20.1 14.27z"/>
											</defs>
											<clipPath id="SVGID_51_">
												<use width="100%" height="100%" xlink:href="#SVGID_50_"/>
											</clipPath>
											<path class="st31" d="m489.98 473.45c0.79 10.05-11.9 18.25-28.3 18.25s-29.09-8.2-28.3-18.25 13.49-18.25 28.3-18.25 27.51 8.2 28.3 18.25z" clip-path="url(#SVGID_51_)" fill="#e0dfdf"/>
										
									
								
							
							
								
									
										
											<defs>
												<path id="SVGID_52_" d="m555.43 511.79h-187.62c-13.35 0-22.35-6.35-19.97-14.15l32.66-109.34c2.25-7.93 11.24-14.28 20.1-14.28l122.57 0.4c8.73 0 17.72 6.48 19.97 14.15l32.39 108.95c2.38 7.8-6.61 14.27-20.1 14.27z"/>
											</defs>
											<clipPath id="SVGID_53_">
												<use width="100%" height="100%" xlink:href="#SVGID_52_"/>
											</clipPath>
											<path class="st32" d="m461.69 495.27c-19.83 0-34.91-9.78-33.72-21.82s16.26-21.82 33.85-21.82c17.45 0 32.66 9.78 33.72 21.82 1.05 12.03-14.15 21.82-33.85 21.82zm0-36.5c-12.03 0-22.35 6.61-22.87 14.68-0.53 8.07 9.65 14.68 22.74 14.68s23.27-6.61 22.87-14.68c-0.53-8.07-10.71-14.68-22.74-14.68z" clip-path="url(#SVGID_53_)" fill="#fcd6a5"/>
										
									
								
							
							
								
									
										
											<defs>
												<path id="SVGID_54_" d="m555.43 511.79h-187.62c-13.35 0-22.35-6.35-19.97-14.15l32.66-109.34c2.25-7.93 11.24-14.28 20.1-14.28l122.57 0.4c8.73 0 17.72 6.48 19.97 14.15l32.39 108.95c2.38 7.8-6.61 14.27-20.1 14.27z"/>
											</defs>
											<clipPath id="SVGID_55_">
												<use width="100%" height="100%" xlink:href="#SVGID_54_"/>
											</clipPath>
											<g class="st33" clip-path="url(#SVGID_55_)">
												<polygon class="st16" points="460.63 395.44 462.48 402.31 357.1 419.5 357.5 412.49" fill="#fff"/>
											</g>
										
									
								
							
						
					
				
			
		
		<path class="st34" d="m460.76 302.62c-34.11 0-61.88 27.77-61.88 61.88 0 42.31 55.4 104.46 57.65 107.1 2.25 2.51 6.08 2.51 8.33 0 2.38-2.64 57.65-64.79 57.65-107.1 0-34.12-27.63-61.88-61.75-61.88z" fill="#f12a2a"/>
		<path class="st35" d="m367.54 430.48c-11.64 0-21.16 9.52-21.16 21.16 0 14.54 18.91 35.83 19.83 36.76 0.79 0.79 2.12 0.79 2.78 0 0.79-0.93 19.83-22.21 19.83-36.76 0.01-11.64-9.51-21.16-21.28-21.16z" fill="#009a00"/>
		<path class="st36" d="m554.64 378.51c-11.64 0-21.16 9.52-21.16 21.16 0 14.54 18.91 35.83 19.83 36.76 0.79 0.79 2.12 0.79 2.78 0 0.79-0.93 19.83-22.21 19.83-36.76-0.12-11.64-9.51-21.16-21.28-21.16z" fill="#ffc900"/>
		<path class="st37" d="m522.64 444.23c-11.64 0-21.16 9.52-21.16 21.16 0 14.54 18.91 35.83 19.83 36.76 0.79 0.79 2.12 0.79 2.78 0 0.79-0.93 19.83-22.21 19.83-36.76-0.12-11.64-9.64-21.16-21.28-21.16z" fill="#0060b1"/>
		
			
				<path class="st16" d="m532.03 462.87c-2.51-3.57-5.69-2.78-7.67-2.25-0.26 0-0.4 0.13-0.66 0.13 0.26-2.25 1.45-3.97 3.57-5.29l-0.93-1.45c-1.19 0.66-2.12 1.45-2.78 2.38-0.26-0.79-0.66-1.59-1.19-2.12-1.06-1.06-2.64-1.59-4.76-1.59h-0.79v0.79c0 2.12 0.53 3.7 1.59 4.76 0.93 0.93 2.12 1.45 3.7 1.59 0 0.26-0.13 0.53-0.13 0.79-0.26 0-0.53-0.13-0.79-0.13-2.12-0.53-5.16-1.32-7.67 2.25-1.19 1.72-1.59 4.1-1.06 6.74 0.66 3.17 2.51 6.48 4.36 7.67 2.25 1.45 4.1 0.79 5.29 0.4 0.26-0.13 0.66-0.26 0.79-0.26s0.53 0.13 0.79 0.26c0.66 0.26 1.45 0.53 2.38 0.53 0.79 0 1.85-0.26 2.78-0.93 1.85-1.19 3.7-4.5 4.36-7.67 0.41-2.5 0.01-4.75-1.18-6.6z" fill="#fff"/>
			
		
		
			<g fill="#fff">
				<path class="st16" d="m545.91 396.76c0.26 0.13 1.06 0.79 2.51 1.72 1.32 0.93 2.38 1.72 3.17 2.25 0.13 0 0.26 0.13 0.53 0.4 0.26 0.13 0.53 0.4 0.66 0.4 0.13 0.13 0.4 0.26 0.66 0.4 0.26 0.13 0.53 0.26 0.66 0.26 0.26 0.13 0.4 0.13 0.66 0.13 0.13 0 0.4 0 0.66-0.13s0.4-0.13 0.66-0.26 0.4-0.26 0.66-0.4c0.13-0.13 0.4-0.26 0.66-0.4 0.26-0.13 0.4-0.26 0.53-0.4 0.79-0.53 2.64-1.85 5.69-3.97 0.53-0.4 1.06-0.93 1.45-1.45 0.4-0.53 0.53-1.19 0.53-1.85 0-0.53-0.13-0.93-0.53-1.32s-0.79-0.53-1.32-0.53h-17.72c-0.66 0-1.06 0.26-1.45 0.66s-0.53 0.93-0.53 1.59c0 0.53 0.26 1.06 0.66 1.59 0.28 0.52 0.67 0.91 1.2 1.31z"/>
				<path class="st16" d="m564.16 397.95c-2.64 1.72-4.63 3.17-5.95 4.1-0.4 0.4-0.79 0.66-1.06 0.79-0.26 0.13-0.66 0.4-1.19 0.53s-0.93 0.26-1.32 0.26c-0.4 0-0.79-0.13-1.32-0.26s-0.79-0.4-1.19-0.53c-0.26-0.13-0.66-0.4-1.06-0.79-1.06-0.79-3.04-2.12-5.95-4.1-0.4-0.26-0.93-0.66-1.19-1.06v9.52c0 0.53 0.13 0.93 0.53 1.32s0.79 0.53 1.32 0.53h17.72c0.53 0 0.93-0.13 1.32-0.53s0.53-0.79 0.53-1.32v-9.52c-0.26 0.4-0.66 0.8-1.19 1.06z"/>
			</g>
		
		<path class="st16" d="m371.11 464.06h-7.14c-0.4 0-0.66-0.26-0.66-0.66v-6.48h-6.61c-0.4 0-0.66-0.26-0.66-0.66v-7.14c0-0.4 0.26-0.66 0.66-0.66h6.48v-6.48c0-0.4 0.26-0.66 0.66-0.66h7.14c0.4 0 0.66 0.26 0.66 0.66v6.48h6.48c0.4 0 0.66 0.26 0.66 0.66v7.14c0 0.4-0.26 0.66-0.66 0.66h-6.48v6.48c0.14 0.4-0.13 0.66-0.53 0.66z" fill="#fff"/>
		<circle class="st16" cx="461.03" cy="365.42" r="42.97" fill="#fff"/>
		<path class="st34" d="m490.25 342.15c-0.66-1.45-1.45-2.25-3.17-3.44-1.45-1.06-3.7-0.53-4.89 0.66-6.21 6.08-12.16 12.56-17.59 19.3-2.64 3.31-6.48 7.27-8.86 11.5-1.19-0.93-2.25-1.85-3.31-2.78-3.44-3.17-7.14-7.14-11.5-9.12-3.57-1.72-6.21-0.13-8.46 2.78-0.66 0.93-1.45 2.38-1.45 3.57-0.93 0.93-1.19 2.51 0 3.97 7.54 9.26 16.92 16.53 26.84 23.14 1.32 0.93 3.83 0.66 4.89-0.66 10.71-13.62 20.76-28.69 29.49-43.63 1.58-2.64-0.01-4.76-1.99-5.29z" fill="#f12a2a"/>
	
	<g fill="#ffc900">
		<path class="st36" d="m616.01 430.69c1.36 0.15-0.75-2.56 0.3-3.47-0.3-0.6-0.3-1.21-0.3-1.96 0.45-3.17 0.75-7.69 1.05-12.51l0.75-7.53c0.3-5.57 0.6-11.45 0.75-16.42 0-2.41 0.3-4.37 0.3-6.78 0-1.36-0.3-3.01-0.6-4.82-0.6-3.47-1.05-7.38 1.36-9.79 1.51-1.51 2.11-0.6 3.01-0.3 0.15 0 0.3 0.15 0.3 0.15 0.3 0 0.6-0.15 0.9-0.45l1.05-0.3c3.01 0 6.03-0.15 9.49-0.3 4.67-0.15 9.19-0.45 13.86-0.45 6.78 0 13.41 0.45 18.99 1.96 6.18 3.01 9.79 10.1 9.79 16.58 0 3.77-0.75 6.93-3.16 9.79 7.99 2.86 13.11 9.95 14.16 18.23-0.45 6.63-4.07 14.16-7.38 18.53-4.07 3.62-8.59 4.52-14.01 4.52-1.51 0-3.16-0.15-4.67-0.15-1.51-0.3-3.17-0.3-4.82-0.3-3.92 0-8.29 0.45-12.21 0.6-3.01 0.15-6.18 0.6-9.64 0.9-4.37 0.45-8.44 1.05-12.05 1.05-2.41 0-4.37-0.15-5.43-0.45-1.51-0.9-1.51-2.26-1.51-3.47 0-0.45 0-0.9-0.3-1.36v-1.5zm13.71-19.13c-0.3 4.67-0.45 5.88-0.45 12.51 3.77-0.3 8.14-0.3 12.35-0.3 3.32 0 7.08-0.15 10.85-0.3l3.92-0.45c2.41-0.3 5.27-0.6 7.99-0.45 4.07 0.3 7.38 0.15 9.94-0.9 2.41-2.26 4.67-6.03 4.67-9.19 0-1.21 0-2.56-0.45-3.77-4.97-2.71-11.45-3.62-18.08-3.62-7.38 0-15.52 1.05-23.05 2.41-3.01 0.45-4.67 0.75-7.38 1.05zm0-33c0.45 0 0.75 0.15 1.06 0.15 0-0.15 0.15-0.3 0.15-0.45 0-0.3 0.15-0.9 0.15-1.21zm1.05 0.15c-0.45 4.97-0.75 9.49-0.6 14.92l3.92-0.3c12.81-1.05 24.56-2.41 33-7.99 0.3-0.6 0.45-1.36 0.6-1.66 0.3-0.75 0.75-1.66 0.75-2.41-5.57-2.56-11.9-3.16-18.83-3.16-3.01 0-6.33 0.15-9.49 0.3-3.17 0.15-6.18 0.3-9.35 0.3z"/>
		<path class="st36" d="m755.54 421.8 2.26 2.56c2.41 2.41 4.67 5.88 3.77 10.85-2.26 2.41-4.07 1.96-6.18 1.36-0.15 0-0.45-0.15-0.6-0.15l-2.11-0.45c-1.81-0.3-4.07-0.3-5.88-0.3-2.41 0-5.12 0-7.99 0.15-2.26 0.15-5.73 0.3-7.99 0.3-2.71 0-6.18-0.15-8.74-0.45-5.88 0.45-14.16 0.6-20.79 0.6h-0.9c-1.96-0.15-4.22-0.3-5.57-1.66l-1.36-1.81v0.15c-0.75-0.75-1.51-1.96-1.66-2.86l0.15 0.15c-0.45-0.9-0.45-1.66-0.45-2.26 0-0.3 0-0.9-0.45-1.51v0.15c-0.75-0.75-1.05-1.06-1.21-2.71-0.15-1.21 0-1.96 0.15-2.41 0-0.3 0-0.45 0.3-0.75v0.15c0-0.15 0.15-0.15 0.15-0.45v-4.97c-0.15-1.51-0.15-4.52 0-6.03v-1.66c0-0.75 0.15-1.66 0.15-2.26l0.3-8.59c0.3-7.53 0.6-15.82 0.6-23.51 0-1.36-0.15-2.71-0.15-4.07v-3.62c1.66-2.11 3.31-3.01 5.12-3.01 2.71 0 5.42 1.21 7.08 3.01 0.9 1.66 1.05 3.47 1.21 5.73l0.45 3.31c-1.05 15.67-1.36 31.04-1.36 47.01h51.7z"/>
		<path class="st36" d="m826.36 366.96c2.11 1.96 4.22 4.67 3.16 7.99-1.81 3.92-5.43 3.77-8.44 3.47h-0.6c-0.75-0.15-1.51-0.15-2.11-0.15-5.57 0-11.6 0.15-17.48 0.3-4.22 0.15-9.95 0.15-13.71 0.15-3.31 0-5.42 0-7.99-0.15-0.15 1.21-0.15 2.86-0.15 4.22 0 0.9-0.15 1.51-0.15 2.41 0 1.05-0.15 2.11-0.15 3.16 0 1.96 0 3.62-0.15 4.97 7.69-0.3 14.62-0.45 21.55-0.45 5.58 0 11.45 0 16.73 0.45 3.47 0.75 5.73 4.67 5.73 8.74 0 1.66-0.3 3.47-1.51 5.12-6.63-0.45-14.31-0.9-21.25-0.9-7.53 0-15.07 0.3-22.15 1.81v10.09c0 2.11 0.15 3.32 0 5.58 5.57 0.15 10.55 0.3 16.57 0.3 10.7 0 22.15-0.3 34.36-0.9 0.6 0 1.51-0.15 2.56-0.3 3.01-0.3 5.88-0.6 8.29 1.51 1.36 4.22-0.15 9.64-2.56 11.15-10.7 0-23.05 0.15-34.51 0.9-2.71 0.15-5.73 0.3-8.44 0.3-1.51 0-3.01 0.15-4.37 0.15-4.82 0.15-10.4 0.3-15.97 0.75-0.9-0.9-1.36-1.05-1.81-1.21-0.15 0-0.6-0.3-0.6-0.3-0.15 0-0.6-0.15-0.75-0.15-1.51-0.6-3.17-1.36-3.77-1.96-0.6-1.21-0.75-3.62-0.75-6.03 0-1.66 0.15-4.22 0.3-5.88v-0.75c-0.15-9.95 0.45-20.34 1.05-29.23l0.75-17.48c-2.56-4.07 0-9.19 3.92-9.95 7.83 0.75 15.67 0.9 23.35 0.9h6.03c2.11 0 3.92-0.15 6.03-0.15 4.97-0.15 12.96-0.15 17.33-0.15z"/>
		<path class="st36" d="m857.85 369.22 1.21 1.51c0 2.56-0.15 6.03-0.3 8.29-0.3 2.71 0 5.42 0.45 7.83 0.3 1.51 0.45 3.62 0.45 5.58v3.16c0.15 5.73 0.15 14.77 0.15 20.19 0 4.82 0 9.64 0.15 15.67 0.6 1.05 0.15 1.51-0.6 2.56 0 0 0.15 0 0.6 1.51-1.66 0-2.41 0.15-2.71 0.6l-3.31-0.3c-2.41-0.15-4.82-0.45-6.03-3.01 0.3-1.66 0-2.71-0.15-3.92s0-2.26 0.15-3.32c-0.3-1.51-0.3-3.47-0.3-5.42 0-1.66 0-4.22 0.15-5.88v-2.71c0-1.05 0.15-1.96 0.15-2.56 0-2.41-0.15-4.82-0.6-6.93 0.15-0.3 0.75-1.36 0.6-1.21-0.6-3.47-0.45-8.14-0.45-12.05 0-2.41 0-4.52-0.15-6.63l-0.3-3.62c-0.15-1.66-0.3-3.92-0.3-5.57 0-1.51 0-3.01 0.45-5.27 1.96-1.81 6.78-1.96 9.49-0.9z"/>
		<path class="st36" d="m864.63 430.69c1.36 0.15-0.75-2.56 0.3-3.47-0.3-0.6-0.3-1.21-0.3-1.96 0.45-3.17 0.75-7.69 1.05-12.51l0.75-7.53c0.3-5.57 0.6-11.45 0.75-16.42 0-2.41 0.3-4.37 0.3-6.78 0-1.36-0.3-3.01-0.6-4.82-0.6-3.47-1.05-7.38 1.36-9.79 1.51-1.51 2.11-0.6 3.01-0.3 0.15 0 0.3 0.15 0.3 0.15 0.3 0 0.6-0.15 0.9-0.45l1.05-0.3c3.01 0 6.03-0.15 9.49-0.3 4.67-0.15 9.19-0.45 13.86-0.45 6.78 0 13.41 0.45 18.99 1.96 6.18 3.01 9.79 10.1 9.79 16.58 0 3.77-0.75 6.93-3.16 9.79 7.99 2.86 13.11 9.95 14.16 18.23-0.45 6.63-4.07 14.16-7.38 18.53-4.07 3.62-8.59 4.52-14.01 4.52-1.51 0-3.16-0.15-4.67-0.15-1.51-0.3-3.17-0.3-4.82-0.3-3.92 0-8.29 0.45-12.21 0.6-3.01 0.15-6.18 0.6-9.64 0.9-4.37 0.45-8.44 1.05-12.05 1.05-2.41 0-4.37-0.15-5.43-0.45-1.51-0.9-1.51-2.26-1.51-3.47 0-0.45 0-0.9-0.3-1.36v-1.5zm13.71-19.13c-0.3 4.67-0.45 5.88-0.45 12.51 3.77-0.3 8.14-0.3 12.35-0.3 3.32 0 7.08-0.15 10.85-0.3l3.92-0.45c2.41-0.3 5.27-0.6 7.99-0.45 4.07 0.3 7.38 0.15 9.94-0.9 2.41-2.26 4.67-6.03 4.67-9.19 0-1.21 0-2.56-0.45-3.77-4.97-2.71-11.45-3.62-18.08-3.62-7.38 0-15.52 1.05-23.05 2.41-3.01 0.45-4.67 0.75-7.38 1.05zm0-33c0.45 0 0.75 0.15 1.06 0.15 0-0.15 0.15-0.3 0.15-0.45 0-0.3 0.15-0.9 0.15-1.21zm1.06 0.15c-0.45 4.97-0.75 9.49-0.6 14.92l3.92-0.3c12.81-1.05 24.56-2.41 33-7.99 0.3-0.6 0.45-1.36 0.6-1.66 0.3-0.75 0.75-1.66 0.75-2.41-5.57-2.56-11.9-3.16-18.83-3.16-3.01 0-6.33 0.15-9.49 0.3-3.17 0.15-6.19 0.3-9.35 0.3z"/>
		<path class="st36" d="m1021.5 368.16c0.3 0.15 0.75 0.45 1.05 0.9 2.26 3.62-0.15 10.1-2.71 11.75-5.12 0-9.95 0-14.47-0.15h-4.97c-1.96 0-3.62-0.15-4.82-0.15-3.16 0-5.88 0.15-8.74 0.3h-0.3c-0.15 2.86-0.15 5.42-0.15 8.44v3.17c0 5.27 0 10.55 0.15 16.12 0.15 5.88 0.15 11.9 0.15 17.48v1.21c0 0.45 0.15 0.75 0.15 1.05 0.15 2.41 0 5.43-1.96 7.99-2.56 1.05-7.69 0.9-10.25-0.9-1.05-5.12-1.36-11.45-1.36-18.23 0-3.92 0.15-7.83 0.3-11.75v-0.75c0-0.6 0.15-1.36 0.15-2.11v-1.81c0.3-5.88-0.3-11.9-0.9-17.33l-0.3-2.26c-1.66-0.45-3.47-0.3-5.27-0.3-2.71 0-5.27 0.15-8.14 0.45-3.01 0.3-5.88 0.45-8.74 0.45-2.71 0-4.97-0.15-7.08-0.6-3.62-3.77-3.77-7.68-3.62-12.51 1.36-0.75 2.11-1.21 2.41-1.96 5.58 0.3 12.21 0.3 17.78 0.3 5.58 0 11.45 0 17.03-0.15 6.93-0.15 13.71-0.15 20.34-0.15h7.68c5.57 0 9.34 0 15.97 0.6z"/>
	</g>
	<g fill="#009a00">
		<path class="st35" d="m617.66 513.82c-1.21-4.22-1.66-8.59-1.66-12.66 0-12.66 4.67-24.86 12.2-32.7 1.66-0.45 2.26-0.9 3.01-1.51h-0.15l0.3-0.15 1.36-0.9h-0.15l2.71-1.96c4.22-1.51 9.79-1.96 15.07-2.41l3.31-0.3c2.11-0.3 4.97-0.3 6.93-0.3 6.93 0 13.56 0.9 18.99 1.96l2.71 1.96c0.15 0.15 0.75 0.45 2.26 1.05l1.36 1.81c5.27 6.18 12.96 15.07 13.86 25.16 0.6 6.93-0.6 13.56-1.36 18.68 0 0.15-0.6 1.05-0.9 1.36-0.15 0.3-0.45 0.3-0.45 0.75-1.81 3.01-3.47 5.88-4.82 7.53l-2.26 2.11c-0.3 0.3-0.75 0.45-1.05 0.6l-3.62 3.62c-8.14 3.92-17.33 5.42-26.52 5.42-6.93 0-13.86-0.75-20.49-1.81-9.49-2.56-16.27-7.23-19.59-15.97-0.3 0-0.6-0.3-0.6-0.9 0 0-0.15 0.15 0-0.15zm19.59-35.71c0.9-0.3-0.6 1.21-1.81 2.41l-1.35 1.36v-0.15c-4.37 5.73-7.23 13.26-7.23 21.4 0 2.56 0.45 6.18 1.21 9.19 0.75 0.45 1.21 1.21 1.66 2.26 5.88 3.92 15.82 6.33 25.31 6.33 9.34 0 19.29-2.56 25.16-6.63h-0.15c4.97-4.97 8.44-16.57 8.59-26.52-0.45-1.96-1.51-4.07-2.56-6.03l-0.3-0.75c-0.15-0.15-0.3-0.3-0.3-0.45-4.37-3.77-10.7-6.63-18.53-6.93-8.91-0.16-21.57-0.01-29.7 4.51zm61.17 33.45c0.15 0 0.15 0.15 0 0.3z"/>
		<path class="st35" d="m777.98 464.1c0.3 2.86-0.15 5.12-1.36 7.08 0 0.15-0.15 1.05-0.15 1.66-9.04 0-19.29 0.3-27.88 0.6-1.51 0-3.01 0.15-4.52 0.15-5.88 0.3-13.26 0.6-19.29 0.6-1.36 0-2.56-0.15-3.62-0.15h-2.86c-0.45 2.26-0.45 5.27-0.45 7.38s0 4.07-0.15 5.88c8.89-0.45 18.84-0.75 28.33-0.75 3.47 0 7.38 0 10.55 0.15 2.26 2.26 3.16 7.83 2.11 12.05h-6.03c-9.64 0-23.2 0.45-33.9 2.11-0.3 4.97-0.3 9.79-0.3 14.47 0 5.12 0 10.85 0.3 15.37-1.96 2.56-7.38 1.81-9.49 1.51-2.11-1.96-2.71-4.07-2.71-6.93 0-1.51 0.15-3.16 0.3-4.67 0.45-3.16 0.91-6.33-0.3-8.29v-4.97c0-4.37-0.15-9.49-0.3-14.32-0.15-5.12-0.3-9.94-0.3-14.61 0-3.77 0-7.38 0.3-10.55 0 0-0.15 0-0.45-0.3-0.45-0.45-0.9-1.36-0.45-3.47 1.36-1.21 4.52-3.16 6.63-3.31 6.93 0.9 15.07 1.21 23.05 1.21 7.69 0 15.37-0.3 23.81-0.6h1.66c1.51 0 3.01-0.15 4.52-0.3 0.3 0 0.45-0.15 0.75-0.15 1.21-0.15 2.56-0.15 4.07-0.15 2.41 0 3.92 0.15 5.42 0.3l0.9 1.51c0.9 0.3 1.21 0.45 1.51 0.75z"/>
		<path class="st35" d="m854.68 464.1c0.3 2.86-0.15 5.12-1.36 7.08 0 0.15-0.15 1.05-0.15 1.66-9.04 0-19.29 0.3-27.88 0.6-1.51 0-3.01 0.15-4.52 0.15-5.88 0.3-13.26 0.6-19.29 0.6-1.36 0-2.56-0.15-3.62-0.15h-2.86c-0.45 2.26-0.45 5.27-0.45 7.38s0 4.07-0.15 5.88c8.89-0.45 18.84-0.75 28.33-0.75 3.47 0 7.38 0 10.55 0.15 2.26 2.26 3.16 7.83 2.11 12.05h-6.03c-9.64 0-23.2 0.45-33.9 2.11-0.3 4.97-0.3 9.79-0.3 14.47 0 5.12 0 10.85 0.3 15.37-1.96 2.56-7.38 1.81-9.49 1.51-2.11-1.96-2.71-4.07-2.71-6.93 0-1.51 0.15-3.16 0.3-4.67 0.45-3.16 0.91-6.33-0.3-8.29v-4.97c0-4.37-0.15-9.49-0.3-14.32-0.15-5.12-0.3-9.94-0.3-14.61 0-3.77 0-7.38 0.3-10.55 0 0-0.15 0-0.45-0.3-0.45-0.45-0.9-1.36-0.45-3.47 1.36-1.21 4.52-3.16 6.63-3.31 6.93 0.9 15.07 1.21 23.05 1.21 7.69 0 15.37-0.3 23.81-0.6h1.66c1.51 0 3.01-0.15 4.52-0.3 0.3 0 0.45-0.15 0.75-0.15 1.2-0.15 2.56-0.15 4.07-0.15 2.41 0 3.92 0.15 5.42 0.3l0.9 1.51c0.9 0.3 1.21 0.45 1.51 0.75z"/>
		<path class="st35" d="m917.97 462.14c2.11 1.96 4.22 4.67 3.16 7.99-1.81 3.92-5.43 3.77-8.44 3.47h-0.6c-0.75-0.15-1.51-0.15-2.11-0.15-5.57 0-11.6 0.15-17.48 0.3-4.22 0.15-9.95 0.15-13.71 0.15-3.31 0-5.43 0-7.99-0.15-0.15 1.21-0.15 2.86-0.15 4.22 0 0.9-0.15 1.51-0.15 2.41 0 1.05-0.15 2.11-0.15 3.16 0 1.96 0 3.62-0.15 4.97 7.69-0.3 14.62-0.45 21.55-0.45 5.58 0 11.45 0 16.73 0.45 3.47 0.75 5.73 4.67 5.73 8.74 0 1.66-0.3 3.47-1.51 5.12-6.63-0.45-14.31-0.9-21.25-0.9-7.53 0-15.07 0.3-22.15 1.81v10.09c0 2.11 0.15 3.32 0 5.58 5.57 0.15 10.55 0.3 16.57 0.3 10.7 0 22.15-0.3 34.36-0.91 0.6 0 1.51-0.15 2.56-0.3 3.01-0.3 5.88-0.6 8.29 1.51 1.36 4.22-0.15 9.64-2.56 11.15-10.7 0-23.05 0.15-34.51 0.9-2.71 0.15-5.73 0.3-8.44 0.3-1.51 0-3.01 0.15-4.37 0.15-4.82 0.15-10.4 0.3-15.97 0.75-0.9-0.9-1.36-1.05-1.81-1.21-0.15 0-0.6-0.3-0.6-0.3-0.15 0-0.6-0.15-0.75-0.15-1.51-0.6-3.17-1.36-3.77-1.96-0.6-1.21-0.75-3.62-0.75-6.03 0-1.66 0.15-4.22 0.3-5.88v-0.75c-0.15-9.95 0.45-20.34 1.05-29.23l0.75-17.48c-2.56-4.07 0-9.19 3.92-9.95 7.83 0.75 15.67 0.9 23.35 0.9h6.03c2.11 0 3.92-0.15 6.03-0.15 4.97-0.15 12.96-0.15 17.33-0.15z"/>
		<path class="st35" d="m994.97 504.03c2.71 3.01 5.88 6.18 9.19 8.74 0.15-1.96 0-4.22 0-6.48 0-4.07-0.15-8.59-0.3-12.66 0-1.51-0.15-3.16-0.15-4.67-0.15-2.56-0.3-6.33-0.3-9.04 0-5.27 0.3-10.7 1.66-17.03l1.51-0.15h-0.3c1.81-0.75 3.62-1.51 5.73-1.51 1.36 0 2.86 0.45 4.82 1.51 1.96 2.71 2.11 6.33 2.11 9.95 0 1.36-0.15 2.71-0.15 3.92v10.7c0 2.26-0.15 4.67-0.15 7.23 0 10.4 0.3 20.94 0.9 29.83 0 0-0.45 1.66-0.45 2.41 0 0.15-0.15 0.45-0.15 0.6 0 1.36-0.15 2.56-0.9 3.77-1.81 1.36-5.57 2.11-7.69 1.51-13.56-9.64-25.01-21.7-36.46-34.05-6.93-7.53-14.01-14.77-21.25-21.4 0 0.9-0.15 1.96-0.15 2.71v4.22c0 5.42 0.15 10.85 0.3 15.67 0.15 3.01 0.3 5.73 0.3 8.74 0 1.06-0.15 2.11-0.15 3.17v2.86c0 1.36-0.15 2.71-0.15 4.07v3.77c0 0.45 0.15 0.9 0.15 1.21v0.9c0.15 2.11 0.15 3.31-1.81 5.88l-0.75 0.3h0.15c-0.45 0.3-0.75 0.45-1.05 0.45 0 0 0.15 0-0.15 0.9-4.97-0.6-8.29-2.86-10.55-6.33 0.3-5.12 0.45-10.55 0.45-15.52 0-8.89-0.3-17.78-0.75-27.27l-0.6-16.88 1.21-2.26c0.3-0.45 0.75-1.06 0.6-2.86 3.16-0.75 4.82-1.21 7.08-1.51l2.56-0.3 0.75 0.75c0.15 0.15 0.6 0.3 2.26 0.45 3.77 3.92 8.29 8.29 12.36 12.05l3.62 3.32h-0.15c3.77 3.77 8.29 7.99 11.6 11.9l13.26 13.86v-0.15c0.3 0.3 0.3 0.6 0.6 0.9l1.21 1.66z"/>
	</g>
</g>
</svg>
