<?xml version="1.0" encoding="UTF-8"?>
<svg width="1031.6" height="156.32" version="1.1" viewBox="0 0 1031.6 156.32" xml:space="preserve" xmlns="http://www.w3.org/2000/svg" xmlns:xlink="http://www.w3.org/1999/xlink">
<style type="text/css">
	.st0{fill:url(#SVGID_1_);}
	.st1{fill:#DAD0C9;}
	.st2{clip-path:url(#SVGID_3_);}
	.st3{fill:#E0DFDF;}
	.st4{clip-path:url(#SVGID_5_);}
	.st5{clip-path:url(#SVGID_7_);}
	.st6{fill:#ABD3E0;}
	.st7{clip-path:url(#SVGID_9_);}
	.st8{clip-path:url(#SVGID_11_);}
	.st9{fill:#CDECB0;}
	.st10{clip-path:url(#SVGID_13_);}
	.st11{clip-path:url(#SVGID_15_);}
	.st12{clip-path:url(#SVGID_17_);}
	.st13{clip-path:url(#SVGID_19_);}
	.st14{clip-path:url(#SVGID_21_);}
	.st15{clip-path:url(#SVGID_23_);}
	.st16{fill:#FFFFFF;}
	.st17{clip-path:url(#SVGID_25_);}
	.st18{clip-path:url(#SVGID_27_);}
	.st19{clip-path:url(#SVGID_29_);}
	.st20{clip-path:url(#SVGID_31_);}
	.st21{clip-path:url(#SVGID_33_);}
	.st22{clip-path:url(#SVGID_35_);}
	.st23{clip-path:url(#SVGID_37_);}
	.st24{clip-path:url(#SVGID_39_);}
	.st25{clip-path:url(#SVGID_41_);}
	.st26{clip-path:url(#SVGID_43_);}
	.st27{clip-path:url(#SVGID_45_);}
	.st28{clip-path:url(#SVGID_47_);}
	.st29{fill:#FCD6A5;}
	.st30{clip-path:url(#SVGID_49_);}
	.st31{clip-path:url(#SVGID_51_);fill:#E0DFDF;}
	.st32{clip-path:url(#SVGID_53_);fill:#FCD6A5;}
	.st33{clip-path:url(#SVGID_55_);}
	.st34{fill:#F12A2A;}
	.st35{fill:#009A00;}
	.st36{fill:#FFC900;}
	.st37{fill:#0060B1;}
</style>
<g transform="translate(-86.57,-342.34)">
	
		
			
				<linearGradient id="SVGID_1_" x1="87.278" x2="239.89" y1="1773.1" y2="1773.1" gradientTransform="translate(0 -1286.6)" gradientUnits="userSpaceOnUse">
				<stop stop-color="#E0DFDF" offset="0"/>
				<stop stop-color="#DAD0C9" offset=".0539"/>
				<stop stop-color="#E0DFDF" offset=".128"/>
				<stop stop-color="#E0DFDF" offset=".8798"/>
				<stop stop-color="#DAD0C9" offset=".9445"/>
				<stop stop-color="#E0DFDF" offset="1"/>
			</linearGradient>
			<path class="st0" d="m239.89 474.27h-152.61v16.79c0.18 4.33 6.1 7.6 14.4 7.6h123.98c8.4 0 14.14-3.27 14.23-7.6z" fill="url(#SVGID_1_)"/>
			
				
					
						<path class="st1" d="m226.28 482.14h-125.4c-8.93 0-14.93-4.24-13.34-9.46l21.83-73.08c1.5-5.3 7.51-9.54 13.43-9.54l81.92 0.27c5.83 0 11.84 4.33 13.34 9.46l21.65 72.82c1.6 5.2-4.41 9.53-13.43 9.53z" fill="#dad0c9"/>
						
							
								
									
										
											<defs>
												<path id="SVGID_2_" d="m226.28 482.14h-125.4c-8.93 0-14.93-4.24-13.34-9.46l21.83-73.08c1.5-5.3 7.51-9.54 13.43-9.54l81.92 0.27c5.83 0 11.84 4.33 13.34 9.46l21.65 72.82c1.6 5.2-4.41 9.53-13.43 9.53z"/>
											</defs>
											<clipPath id="SVGID_3_">
												<use width="100%" height="100%" xlink:href="#SVGID_2_"/>
											</clipPath>
											<g class="st2" clip-path="url(#SVGID_3_)">
												<polygon class="st3" points="161.6 428.94 122.45 430.26 106.1 419.75 106.28 417.45 162.22 408.53" fill="#e0dfdf"/>
											</g>
										
									
								
							
							
								
									
										
											<defs>
												<path id="SVGID_4_" d="m226.28 482.14h-125.4c-8.93 0-14.93-4.24-13.34-9.46l21.83-73.08c1.5-5.3 7.51-9.54 13.43-9.54l81.92 0.27c5.83 0 11.84 4.33 13.34 9.46l21.65 72.82c1.6 5.2-4.41 9.53-13.43 9.53z"/>
											</defs>
											<clipPath id="SVGID_5_">
												<use width="100%" height="100%" xlink:href="#SVGID_4_"/>
											</clipPath>
											<g class="st4" clip-path="url(#SVGID_5_)">
												<polygon class="st3" points="227.26 457.13 243.34 455.8 233 429.12 213.65 439.63" fill="#e0dfdf"/>
											</g>
										
									
								
							
							
								
									
										
											<defs>
												<path id="SVGID_6_" d="m226.28 482.14h-125.4c-8.93 0-14.93-4.24-13.34-9.46l21.83-73.08c1.5-5.3 7.51-9.54 13.43-9.54l81.92 0.27c5.83 0 11.84 4.33 13.34 9.46l21.65 72.82c1.6 5.2-4.41 9.53-13.43 9.53z"/>
											</defs>
											<clipPath id="SVGID_7_">
												<use width="100%" height="100%" xlink:href="#SVGID_6_"/>
											</clipPath>
											<g class="st5" clip-path="url(#SVGID_7_)">
												<polygon class="st6" points="170.79 463.76 187.93 487.79 163.89 485.14 163.98 462.7" fill="#abd3e0"/>
											</g>
										
									
								
							
							
								
									
										
											<defs>
												<path id="SVGID_8_" d="m226.28 482.14h-125.4c-8.93 0-14.93-4.24-13.34-9.46l21.83-73.08c1.5-5.3 7.51-9.54 13.43-9.54l81.92 0.27c5.83 0 11.84 4.33 13.34 9.46l21.65 72.82c1.6 5.2-4.41 9.53-13.43 9.53z"/>
											</defs>
											<clipPath id="SVGID_9_">
												<use width="100%" height="100%" xlink:href="#SVGID_8_"/>
											</clipPath>
											<g class="st7" clip-path="url(#SVGID_9_)">
												<polygon class="st6" points="100.97 455.27 129.87 455.36 125.63 484.08 93.2 484.08" fill="#abd3e0"/>
											</g>
										
									
								
							
							
								
									
										
											<defs>
												<path id="SVGID_10_" d="m226.28 482.14h-125.4c-8.93 0-14.93-4.24-13.34-9.46l21.83-73.08c1.5-5.3 7.51-9.54 13.43-9.54l81.92 0.27c5.83 0 11.84 4.33 13.34 9.46l21.65 72.82c1.6 5.2-4.41 9.53-13.43 9.53z"/>
											</defs>
											<clipPath id="SVGID_11_">
												<use width="100%" height="100%" xlink:href="#SVGID_10_"/>
											</clipPath>
											<g class="st8" clip-path="url(#SVGID_11_)">
												<polygon class="st9" points="188.37 415.15 186.78 381.57 162.83 381.48 163.98 413.21" fill="#cdecb0"/>
											</g>
										
									
								
							
							
								
									
										
											<defs>
												<path id="SVGID_12_" d="m226.28 482.14h-125.4c-8.93 0-14.93-4.24-13.34-9.46l21.83-73.08c1.5-5.3 7.51-9.54 13.43-9.54l81.92 0.27c5.83 0 11.84 4.33 13.34 9.46l21.65 72.82c1.6 5.2-4.41 9.53-13.43 9.53z"/>
											</defs>
											<clipPath id="SVGID_13_">
												<use width="100%" height="100%" xlink:href="#SVGID_12_"/>
											</clipPath>
											<g class="st10" clip-path="url(#SVGID_13_)">
												<polygon class="st9" points="215.41 411 229.38 423.37 216.21 389.7 205.34 402.43" fill="#cdecb0"/>
											</g>
										
									
								
							
							
								
									
										
											<defs>
												<path id="SVGID_14_" d="m226.28 482.14h-125.4c-8.93 0-14.93-4.24-13.34-9.46l21.83-73.08c1.5-5.3 7.51-9.54 13.43-9.54l81.92 0.27c5.83 0 11.84 4.33 13.34 9.46l21.65 72.82c1.6 5.2-4.41 9.53-13.43 9.53z"/>
											</defs>
											<clipPath id="SVGID_15_">
												<use width="100%" height="100%" xlink:href="#SVGID_14_"/>
											</clipPath>
											<g class="st11" clip-path="url(#SVGID_15_)">
												<polygon class="st9" points="175.03 463.05 226.73 485.41 248.2 480.11 237.86 456.42 178.56 456.95" fill="#cdecb0"/>
											</g>
										
									
								
							
							
								
									
										
											<defs>
												<path id="SVGID_16_" d="m226.28 482.14h-125.4c-8.93 0-14.93-4.24-13.34-9.46l21.83-73.08c1.5-5.3 7.51-9.54 13.43-9.54l81.92 0.27c5.83 0 11.84 4.33 13.34 9.46l21.65 72.82c1.6 5.2-4.41 9.53-13.43 9.53z"/>
											</defs>
											<clipPath id="SVGID_17_">
												<use width="100%" height="100%" xlink:href="#SVGID_16_"/>
											</clipPath>
											<g class="st12" clip-path="url(#SVGID_17_)">
												<polygon class="st6" points="161.68 407.55 90.02 419.13 95.85 399.69 163.36 389.17" fill="#abd3e0"/>
											</g>
										
									
								
							
							
								
									
										
											<defs>
												<path id="SVGID_18_" d="m226.28 482.14h-125.4c-8.93 0-14.93-4.24-13.34-9.46l21.83-73.08c1.5-5.3 7.51-9.54 13.43-9.54l81.92 0.27c5.83 0 11.84 4.33 13.34 9.46l21.65 72.82c1.6 5.2-4.41 9.53-13.43 9.53z"/>
											</defs>
											<clipPath id="SVGID_19_">
												<use width="100%" height="100%" xlink:href="#SVGID_18_"/>
											</clipPath>
											<g class="st13" clip-path="url(#SVGID_19_)">
												<polygon class="st6" points="228.4 422.22 229.38 431.24 208.43 438.31 190.67 416.66 204.9 401.01" fill="#abd3e0"/>
											</g>
										
									
								
							
							
								
									
										
											<defs>
												<path id="SVGID_20_" d="m226.28 482.14h-125.4c-8.93 0-14.93-4.24-13.34-9.46l21.83-73.08c1.5-5.3 7.51-9.54 13.43-9.54l81.92 0.27c5.83 0 11.84 4.33 13.34 9.46l21.65 72.82c1.6 5.2-4.41 9.53-13.43 9.53z"/>
											</defs>
											<clipPath id="SVGID_21_">
												<use width="100%" height="100%" xlink:href="#SVGID_20_"/>
											</clipPath>
											<g class="st14" clip-path="url(#SVGID_21_)">
												<polygon class="st9" points="151.26 449.18 144.72 456.33 82.77 455.98 81.98 445.2 121.21 431.59" fill="#cdecb0"/>
											</g>
										
									
								
							
							
								
									
										
											<defs>
												<path id="SVGID_22_" d="m226.28 482.14h-125.4c-8.93 0-14.93-4.24-13.34-9.46l21.83-73.08c1.5-5.3 7.51-9.54 13.43-9.54l81.92 0.27c5.83 0 11.84 4.33 13.34 9.46l21.65 72.82c1.6 5.2-4.41 9.53-13.43 9.53z"/>
											</defs>
											<clipPath id="SVGID_23_">
												<use width="100%" height="100%" xlink:href="#SVGID_22_"/>
											</clipPath>
											<g class="st15" clip-path="url(#SVGID_23_)">
												<polygon class="st16" points="186.25 383.61 187.75 388.29 98.32 401.99 98.94 397.39" fill="#fff"/>
											</g>
										
									
								
							
							
								
									
										
											<defs>
												<path id="SVGID_24_" d="m226.28 482.14h-125.4c-8.93 0-14.93-4.24-13.34-9.46l21.83-73.08c1.5-5.3 7.51-9.54 13.43-9.54l81.92 0.27c5.83 0 11.84 4.33 13.34 9.46l21.65 72.82c1.6 5.2-4.41 9.53-13.43 9.53z"/>
											</defs>
											<clipPath id="SVGID_25_">
												<use width="100%" height="100%" xlink:href="#SVGID_24_"/>
											</clipPath>
											<g class="st17" clip-path="url(#SVGID_25_)">
												<polygon class="st16" points="166.1 384.49 167.43 451.65 160.27 451.65 160.98 384.49" fill="#fff"/>
											</g>
										
									
								
							
							
								
									
										
											<defs>
												<path id="SVGID_26_" d="m226.28 482.14h-125.4c-8.93 0-14.93-4.24-13.34-9.46l21.83-73.08c1.5-5.3 7.51-9.54 13.43-9.54l81.92 0.27c5.83 0 11.84 4.33 13.34 9.46l21.65 72.82c1.6 5.2-4.41 9.53-13.43 9.53z"/>
											</defs>
											<clipPath id="SVGID_27_">
												<use width="100%" height="100%" xlink:href="#SVGID_26_"/>
											</clipPath>
											<g class="st18" clip-path="url(#SVGID_27_)">
												<polygon class="st16" points="184.57 384.14 189.7 384.4 191.91 416.04 232.82 454.92 227.17 457.31 185.9 417.19" fill="#fff"/>
											</g>
										
									
								
							
							
								
									
										
											<defs>
												<path id="SVGID_28_" d="m226.28 482.14h-125.4c-8.93 0-14.93-4.24-13.34-9.46l21.83-73.08c1.5-5.3 7.51-9.54 13.43-9.54l81.92 0.27c5.83 0 11.84 4.33 13.34 9.46l21.65 72.82c1.6 5.2-4.41 9.53-13.43 9.53z"/>
											</defs>
											<clipPath id="SVGID_29_">
												<use width="100%" height="100%" xlink:href="#SVGID_28_"/>
											</clipPath>
											<g class="st19" clip-path="url(#SVGID_29_)">
												<polygon class="st16" points="172.55 454.04 234.59 454.04 236 458.81 172.73 458.72" fill="#fff"/>
											</g>
										
									
								
							
							
								
									
										
											<defs>
												<path id="SVGID_30_" d="m226.28 482.14h-125.4c-8.93 0-14.93-4.24-13.34-9.46l21.83-73.08c1.5-5.3 7.51-9.54 13.43-9.54l81.92 0.27c5.83 0 11.84 4.33 13.34 9.46l21.65 72.82c1.6 5.2-4.41 9.53-13.43 9.53z"/>
											</defs>
											<clipPath id="SVGID_31_">
												<use width="100%" height="100%" xlink:href="#SVGID_30_"/>
											</clipPath>
											<g class="st20" clip-path="url(#SVGID_31_)">
												<polygon class="st16" points="164.51 410.91 187.58 414.09 212.85 390.68 217.53 394.12 190.23 419.22 163.45 415.6" fill="#fff"/>
											</g>
										
									
								
							
							
								
									
										
											<defs>
												<path id="SVGID_32_" d="m226.28 482.14h-125.4c-8.93 0-14.93-4.24-13.34-9.46l21.83-73.08c1.5-5.3 7.51-9.54 13.43-9.54l81.92 0.27c5.83 0 11.84 4.33 13.34 9.46l21.65 72.82c1.6 5.2-4.41 9.53-13.43 9.53z"/>
											</defs>
											<clipPath id="SVGID_33_">
												<use width="100%" height="100%" xlink:href="#SVGID_32_"/>
											</clipPath>
											<g class="st21" clip-path="url(#SVGID_33_)">
												<polygon class="st16" points="209.05 399.34 229.55 419.57 224.87 421.96 204.72 401.81" fill="#fff"/>
											</g>
										
									
								
							
							
								
									
										
											<defs>
												<path id="SVGID_34_" d="m226.28 482.14h-125.4c-8.93 0-14.93-4.24-13.34-9.46l21.83-73.08c1.5-5.3 7.51-9.54 13.43-9.54l81.92 0.27c5.83 0 11.84 4.33 13.34 9.46l21.65 72.82c1.6 5.2-4.41 9.53-13.43 9.53z"/>
											</defs>
											<clipPath id="SVGID_35_">
												<use width="100%" height="100%" xlink:href="#SVGID_34_"/>
											</clipPath>
											<g class="st22" clip-path="url(#SVGID_35_)">
												<polygon class="st16" points="227.87 428.06 232.47 432.12 212.76 441.49 208.34 437.42" fill="#fff"/>
											</g>
										
									
								
							
							
								
									
										
											<defs>
												<path id="SVGID_36_" d="m226.28 482.14h-125.4c-8.93 0-14.93-4.24-13.34-9.46l21.83-73.08c1.5-5.3 7.51-9.54 13.43-9.54l81.92 0.27c5.83 0 11.84 4.33 13.34 9.46l21.65 72.82c1.6 5.2-4.41 9.53-13.43 9.53z"/>
											</defs>
											<clipPath id="SVGID_37_">
												<use width="100%" height="100%" xlink:href="#SVGID_36_"/>
											</clipPath>
											<g class="st23" clip-path="url(#SVGID_37_)">
												<polygon class="st16" points="121.03 429.03 163.89 427.97 164.07 432.74 121.83 433.8 87.01 445.38 85.25 441.13" fill="#fff"/>
											</g>
										
									
								
							
							
								
									
										
											<defs>
												<path id="SVGID_38_" d="m226.28 482.14h-125.4c-8.93 0-14.93-4.24-13.34-9.46l21.83-73.08c1.5-5.3 7.51-9.54 13.43-9.54l81.92 0.27c5.83 0 11.84 4.33 13.34 9.46l21.65 72.82c1.6 5.2-4.41 9.53-13.43 9.53z"/>
											</defs>
											<clipPath id="SVGID_39_">
												<use width="100%" height="100%" xlink:href="#SVGID_38_"/>
											</clipPath>
											<g class="st24" clip-path="url(#SVGID_39_)">
												<polygon class="st16" points="87.72 453.24 156.74 453.33 156.56 458.01 86.22 458.01" fill="#fff"/>
											</g>
										
									
								
							
							
								
									
										
											<defs>
												<path id="SVGID_40_" d="m226.28 482.14h-125.4c-8.93 0-14.93-4.24-13.34-9.46l21.83-73.08c1.5-5.3 7.51-9.54 13.43-9.54l81.92 0.27c5.83 0 11.84 4.33 13.34 9.46l21.65 72.82c1.6 5.2-4.41 9.53-13.43 9.53z"/>
											</defs>
											<clipPath id="SVGID_41_">
												<use width="100%" height="100%" xlink:href="#SVGID_40_"/>
											</clipPath>
											<g class="st25" clip-path="url(#SVGID_41_)">
												<polygon class="st16" points="96.64 456.07 103.89 456.07 96.73 484.08 88.51 484.08" fill="#fff"/>
											</g>
										
									
								
							
							
								
									
										
											<defs>
												<path id="SVGID_42_" d="m226.28 482.14h-125.4c-8.93 0-14.93-4.24-13.34-9.46l21.83-73.08c1.5-5.3 7.51-9.54 13.43-9.54l81.92 0.27c5.83 0 11.84 4.33 13.34 9.46l21.65 72.82c1.6 5.2-4.41 9.53-13.43 9.53z"/>
											</defs>
											<clipPath id="SVGID_43_">
												<use width="100%" height="100%" xlink:href="#SVGID_42_"/>
											</clipPath>
											<g class="st26" clip-path="url(#SVGID_43_)">
												<polygon class="st16" points="125.01 456.07 132.35 456.16 128.81 482.76 120.59 482.76" fill="#fff"/>
											</g>
										
									
								
							
							
								
									
										
											<defs>
												<path id="SVGID_44_" d="m226.28 482.14h-125.4c-8.93 0-14.93-4.24-13.34-9.46l21.83-73.08c1.5-5.3 7.51-9.54 13.43-9.54l81.92 0.27c5.83 0 11.84 4.33 13.34 9.46l21.65 72.82c1.6 5.2-4.41 9.53-13.43 9.53z"/>
											</defs>
											<clipPath id="SVGID_45_">
												<use width="100%" height="100%" xlink:href="#SVGID_44_"/>
											</clipPath>
											<g class="st27" clip-path="url(#SVGID_45_)">
												<polygon class="st16" points="167.34 482.76 159.21 482.76 159.83 447.32 188.9 483.11 181.66 485.14 167.16 468.09" fill="#fff"/>
											</g>
										
									
								
							
							
								
									
										
											<defs>
												<path id="SVGID_46_" d="m226.28 482.14h-125.4c-8.93 0-14.93-4.24-13.34-9.46l21.83-73.08c1.5-5.3 7.51-9.54 13.43-9.54l81.92 0.27c5.83 0 11.84 4.33 13.34 9.46l21.65 72.82c1.6 5.2-4.41 9.53-13.43 9.53z"/>
											</defs>
											<clipPath id="SVGID_47_">
												<use width="100%" height="100%" xlink:href="#SVGID_46_"/>
											</clipPath>
											<g class="st28" clip-path="url(#SVGID_47_)">
												<polygon class="st29" points="175.12 458.54 225.13 482.31 220.72 485.94 170.52 462.17" fill="#fcd6a5"/>
											</g>
										
									
								
							
							
								
									
										
											<defs>
												<path id="SVGID_48_" d="m226.28 482.14h-125.4c-8.93 0-14.93-4.24-13.34-9.46l21.83-73.08c1.5-5.3 7.51-9.54 13.43-9.54l81.92 0.27c5.83 0 11.84 4.33 13.34 9.46l21.65 72.82c1.6 5.2-4.41 9.53-13.43 9.53z"/>
											</defs>
											<clipPath id="SVGID_49_">
												<use width="100%" height="100%" xlink:href="#SVGID_48_"/>
											</clipPath>
											<g class="st30" clip-path="url(#SVGID_49_)">
												<polygon class="st29" points="103.27 413.65 164.16 453.86 159.39 457.48 98.24 417.27" fill="#fcd6a5"/>
											</g>
										
									
								
							
							
								
									
										
											<defs>
												<path id="SVGID_50_" d="m226.28 482.14h-125.4c-8.93 0-14.93-4.24-13.34-9.46l21.83-73.08c1.5-5.3 7.51-9.54 13.43-9.54l81.92 0.27c5.83 0 11.84 4.33 13.34 9.46l21.65 72.82c1.6 5.2-4.41 9.53-13.43 9.53z"/>
											</defs>
											<clipPath id="SVGID_51_">
												<use width="100%" height="100%" xlink:href="#SVGID_50_"/>
											</clipPath>
											<path class="st31" d="m182.54 456.51c0.53 6.72-7.95 12.2-18.91 12.2s-19.44-5.48-18.91-12.2 9.01-12.2 18.91-12.2 18.38 5.48 18.91 12.2z" clip-path="url(#SVGID_51_)" fill="#e0dfdf"/>
										
									
								
							
							
								
									
										
											<defs>
												<path id="SVGID_52_" d="m226.28 482.14h-125.4c-8.93 0-14.93-4.24-13.34-9.46l21.83-73.08c1.5-5.3 7.51-9.54 13.43-9.54l81.92 0.27c5.83 0 11.84 4.33 13.34 9.46l21.65 72.82c1.6 5.2-4.41 9.53-13.43 9.53z"/>
											</defs>
											<clipPath id="SVGID_53_">
												<use width="100%" height="100%" xlink:href="#SVGID_52_"/>
											</clipPath>
											<path class="st32" d="m163.63 471.09c-13.26 0-23.33-6.54-22.53-14.58s10.87-14.58 22.62-14.58c11.66 0 21.83 6.54 22.53 14.58 0.71 8.04-9.45 14.58-22.62 14.58zm0-24.39c-8.04 0-14.93 4.42-15.29 9.81-0.35 5.39 6.45 9.81 15.2 9.81s15.55-4.42 15.29-9.81c-0.35-5.39-7.16-9.81-15.2-9.81z" clip-path="url(#SVGID_53_)" fill="#fcd6a5"/>
										
									
								
							
							
								
									
										
											<defs>
												<path id="SVGID_54_" d="m226.28 482.14h-125.4c-8.93 0-14.93-4.24-13.34-9.46l21.83-73.08c1.5-5.3 7.51-9.54 13.43-9.54l81.92 0.27c5.83 0 11.84 4.33 13.34 9.46l21.65 72.82c1.6 5.2-4.41 9.53-13.43 9.53z"/>
											</defs>
											<clipPath id="SVGID_55_">
												<use width="100%" height="100%" xlink:href="#SVGID_54_"/>
											</clipPath>
											<g class="st33" clip-path="url(#SVGID_55_)">
												<polygon class="st16" points="162.92 404.37 164.16 408.97 93.73 420.46 93.99 415.77" fill="#fff"/>
											</g>
										
									
								
							
						
					
				
			
		
		<path class="st34" d="m163.01 342.34c-22.8 0-41.36 18.56-41.36 41.36 0 28.28 37.03 69.81 38.53 71.58 1.5 1.68 4.07 1.68 5.57 0 1.59-1.77 38.53-43.3 38.53-71.58 0-22.81-18.47-41.36-41.27-41.36z" fill="#f12a2a"/>
		<path class="st35" d="m100.71 427.79c-7.78 0-14.14 6.36-14.14 14.14 0 9.72 12.64 23.95 13.26 24.57 0.53 0.53 1.41 0.53 1.86 0 0.53-0.62 13.26-14.85 13.26-24.57-0.01-7.78-6.38-14.14-14.24-14.14z" fill="#009a00"/>
		<path class="st36" d="m225.75 393.06c-7.78 0-14.14 6.36-14.14 14.14 0 9.72 12.64 23.95 13.26 24.57 0.53 0.53 1.41 0.53 1.86 0 0.53-0.62 13.26-14.85 13.26-24.57-0.1-7.78-6.37-14.14-14.24-14.14z" fill="#ffc900"/>
		<path class="st37" d="m204.37 436.98c-7.78 0-14.14 6.36-14.14 14.14 0 9.72 12.64 23.95 13.26 24.57 0.53 0.53 1.41 0.53 1.86 0 0.53-0.62 13.26-14.85 13.26-24.57-0.1-7.78-6.47-14.14-14.24-14.14z" fill="#0060b1"/>
		
			
				<path class="st16" d="m210.64 449.44c-1.68-2.39-3.8-1.86-5.13-1.5-0.18 0-0.27 0.09-0.44 0.09 0.18-1.5 0.97-2.65 2.39-3.53l-0.62-0.97c-0.8 0.44-1.41 0.97-1.86 1.59-0.18-0.53-0.44-1.06-0.8-1.41-0.71-0.71-1.77-1.06-3.18-1.06h-0.53v0.53c0 1.41 0.35 2.47 1.06 3.18 0.62 0.62 1.41 0.97 2.47 1.06 0 0.18-0.09 0.35-0.09 0.53-0.18 0-0.35-0.09-0.53-0.09-1.41-0.35-3.45-0.88-5.13 1.5-0.8 1.15-1.06 2.74-0.71 4.51 0.44 2.12 1.68 4.33 2.92 5.13 1.5 0.97 2.74 0.53 3.53 0.27 0.18-0.09 0.44-0.18 0.53-0.18s0.35 0.09 0.53 0.18c0.44 0.18 0.97 0.35 1.59 0.35 0.53 0 1.24-0.18 1.86-0.62 1.24-0.8 2.47-3 2.92-5.13 0.28-1.69 0.02-3.19-0.78-4.43z" fill="#fff"/>
			
		
		
			<g fill="#fff">
				<path class="st16" d="m219.92 405.26c0.18 0.09 0.71 0.53 1.68 1.15 0.88 0.62 1.59 1.15 2.12 1.5 0.09 0 0.18 0.09 0.35 0.27 0.18 0.09 0.35 0.27 0.44 0.27 0.09 0.09 0.27 0.18 0.44 0.27 0.18 0.09 0.35 0.18 0.44 0.18 0.18 0.09 0.27 0.09 0.44 0.09 0.09 0 0.27 0 0.44-0.09 0.18-0.09 0.27-0.09 0.44-0.18 0.18-0.09 0.27-0.18 0.44-0.27 0.09-0.09 0.27-0.18 0.44-0.27 0.18-0.09 0.27-0.18 0.35-0.27 0.53-0.35 1.77-1.24 3.8-2.65 0.35-0.27 0.71-0.62 0.97-0.97 0.27-0.35 0.35-0.8 0.35-1.24 0-0.35-0.09-0.62-0.35-0.88-0.27-0.27-0.53-0.35-0.88-0.35h-11.84c-0.44 0-0.71 0.18-0.97 0.44-0.27 0.27-0.35 0.62-0.35 1.06 0 0.35 0.18 0.71 0.44 1.06 0.19 0.35 0.46 0.61 0.81 0.88z"/>
				<path class="st16" d="m232.12 406.05c-1.77 1.15-3.09 2.12-3.98 2.74-0.27 0.27-0.53 0.44-0.71 0.53s-0.44 0.27-0.8 0.35c-0.35 0.09-0.62 0.18-0.88 0.18-0.27 0-0.53-0.09-0.88-0.18s-0.53-0.27-0.8-0.35c-0.18-0.09-0.44-0.27-0.71-0.53-0.71-0.53-2.03-1.41-3.98-2.74-0.27-0.18-0.62-0.44-0.8-0.71v6.36c0 0.35 0.09 0.62 0.35 0.88 0.27 0.27 0.53 0.35 0.88 0.35h11.84c0.35 0 0.62-0.09 0.88-0.35 0.27-0.27 0.35-0.53 0.35-0.88v-6.36c-0.15 0.27-0.41 0.53-0.76 0.71z"/>
			</g>
		
		<path class="st16" d="m103.1 450.24h-4.77c-0.27 0-0.44-0.18-0.44-0.44v-4.33h-4.42c-0.27 0-0.44-0.18-0.44-0.44v-4.77c0-0.27 0.18-0.44 0.44-0.44h4.33v-4.33c0-0.27 0.18-0.44 0.44-0.44h4.77c0.27 0 0.44 0.18 0.44 0.44v4.33h4.33c0.27 0 0.44 0.18 0.44 0.44v4.77c0 0.27-0.18 0.44-0.44 0.44h-4.33v4.33c0.09 0.26-0.09 0.44-0.35 0.44z" fill="#fff"/>
		<circle class="st16" cx="163.19" cy="384.31" r="28.72" fill="#fff"/>
		<path class="st34" d="m182.72 368.76c-0.44-0.97-0.97-1.5-2.12-2.3-0.97-0.71-2.47-0.35-3.27 0.44-4.15 4.07-8.13 8.4-11.75 12.9-1.77 2.21-4.33 4.86-5.92 7.69-0.8-0.62-1.5-1.24-2.21-1.86-2.3-2.12-4.77-4.77-7.69-6.1-2.39-1.15-4.15-0.09-5.66 1.86-0.44 0.62-0.97 1.59-0.97 2.39-0.62 0.62-0.8 1.68 0 2.65 5.04 6.19 11.31 11.05 17.94 15.46 0.88 0.62 2.56 0.44 3.27-0.44 7.16-9.1 13.87-19.18 19.71-29.16 1.05-1.76-0.01-3.18-1.33-3.53z" fill="#f12a2a"/>
	
	<g fill="#ffc900">
		<path class="st36" d="m275.46 416.79c1.36 0.15-0.75-2.56 0.3-3.47-0.3-0.6-0.3-1.21-0.3-1.96 0.45-3.17 0.75-7.69 1.05-12.51l0.75-7.53c0.3-5.57 0.6-11.45 0.75-16.42 0-2.41 0.3-4.37 0.3-6.78 0-1.36-0.3-3.01-0.6-4.82-0.6-3.47-1.05-7.38 1.36-9.79 1.51-1.51 2.11-0.6 3.01-0.3 0.15 0 0.3 0.15 0.3 0.15 0.3 0 0.6-0.15 0.9-0.45l1.05-0.3c3.01 0 6.03-0.15 9.49-0.3 4.67-0.15 9.19-0.45 13.86-0.45 6.78 0 13.41 0.45 18.99 1.96 6.18 3.01 9.79 10.1 9.79 16.58 0 3.77-0.75 6.93-3.16 9.79 7.99 2.86 13.11 9.95 14.16 18.23-0.45 6.63-4.07 14.16-7.38 18.53-4.07 3.62-8.59 4.52-14.01 4.52-1.51 0-3.17-0.15-4.67-0.15-1.51-0.3-3.17-0.3-4.82-0.3-3.92 0-8.29 0.45-12.21 0.6-3.01 0.15-6.18 0.6-9.64 0.9-4.37 0.45-8.44 1.05-12.05 1.05-2.41 0-4.37-0.15-5.43-0.45-1.51-0.9-1.51-2.26-1.51-3.47 0-0.45 0-0.9-0.3-1.36v-1.5zm13.71-19.14c-0.3 4.67-0.45 5.88-0.45 12.51 3.77-0.3 8.14-0.3 12.35-0.3 3.32 0 7.08-0.15 10.85-0.3l3.92-0.45c2.41-0.3 5.27-0.6 7.99-0.45 4.07 0.3 7.38 0.15 9.94-0.9 2.41-2.26 4.67-6.03 4.67-9.19 0-1.21 0-2.56-0.45-3.77-4.97-2.71-11.45-3.62-18.08-3.62-7.38 0-15.52 1.05-23.05 2.41-3.01 0.45-4.67 0.75-7.38 1.05zm0-33c0.45 0 0.75 0.15 1.06 0.15 0-0.15 0.15-0.3 0.15-0.45 0-0.3 0.15-0.9 0.15-1.21zm1.05 0.15c-0.45 4.97-0.75 9.49-0.6 14.92l3.92-0.3c12.81-1.05 24.56-2.41 33-7.99 0.3-0.6 0.45-1.36 0.6-1.66 0.3-0.75 0.75-1.66 0.75-2.41-5.57-2.56-11.9-3.16-18.83-3.16-3.01 0-6.33 0.15-9.49 0.3-3.17 0.15-6.18 0.3-9.35 0.3z"/>
		<path class="st36" d="m414.99 407.9 2.26 2.56c2.41 2.41 4.67 5.88 3.77 10.85-2.26 2.41-4.07 1.96-6.18 1.36-0.15 0-0.45-0.15-0.6-0.15l-2.11-0.45c-1.81-0.3-4.07-0.3-5.88-0.3-2.41 0-5.12 0-7.99 0.15-2.26 0.15-5.73 0.3-7.99 0.3-2.71 0-6.18-0.15-8.74-0.45-5.88 0.45-14.16 0.6-20.79 0.6h-0.9c-1.96-0.15-4.22-0.3-5.57-1.66l-1.36-1.81v0.15c-0.75-0.75-1.51-1.96-1.66-2.86l0.15 0.15c-0.45-0.9-0.45-1.66-0.45-2.26 0-0.3 0-0.9-0.45-1.51v0.15c-0.75-0.75-1.05-1.06-1.21-2.71-0.15-1.21 0-1.96 0.15-2.41 0-0.3 0-0.45 0.3-0.75v0.15c0-0.15 0.15-0.15 0.15-0.45v-4.97c-0.15-1.51-0.15-4.52 0-6.03v-1.66c0-0.75 0.15-1.66 0.15-2.26l0.3-8.59c0.3-7.53 0.6-15.82 0.6-23.51 0-1.36-0.15-2.71-0.15-4.07v-3.62c1.66-2.11 3.31-3.01 5.12-3.01 2.71 0 5.42 1.21 7.08 3.01 0.9 1.66 1.05 3.47 1.21 5.73l0.45 3.31c-1.05 15.67-1.36 31.04-1.36 47.01h51.7z"/>
		<path class="st36" d="m485.81 353.05c2.11 1.96 4.22 4.67 3.16 7.99-1.81 3.92-5.43 3.77-8.44 3.47h-0.6c-0.75-0.15-1.51-0.15-2.11-0.15-5.57 0-11.6 0.15-17.48 0.3-4.22 0.15-9.95 0.15-13.71 0.15-3.31 0-5.43 0-7.99-0.15-0.15 1.21-0.15 2.86-0.15 4.22 0 0.9-0.15 1.51-0.15 2.41 0 1.05-0.15 2.11-0.15 3.16 0 1.96 0 3.62-0.15 4.97 7.69-0.3 14.62-0.45 21.55-0.45 5.58 0 11.45 0 16.73 0.45 3.47 0.75 5.73 4.67 5.73 8.74 0 1.66-0.3 3.47-1.51 5.12-6.63-0.45-14.31-0.9-21.25-0.9-7.53 0-15.07 0.3-22.15 1.81v10.09c0 2.11 0.15 3.32 0 5.58 5.57 0.15 10.55 0.3 16.57 0.3 10.7 0 22.15-0.3 34.36-0.9 0.6 0 1.51-0.15 2.56-0.3 3.01-0.3 5.88-0.6 8.29 1.51 1.36 4.22-0.15 9.64-2.56 11.15-10.7 0-23.05 0.15-34.51 0.9-2.71 0.15-5.73 0.3-8.44 0.3-1.51 0-3.01 0.15-4.37 0.15-4.82 0.15-10.4 0.3-15.97 0.75-0.9-0.9-1.36-1.05-1.81-1.21-0.15 0-0.6-0.3-0.6-0.3-0.15 0-0.6-0.15-0.75-0.15-1.51-0.6-3.17-1.36-3.77-1.96-0.6-1.21-0.75-3.62-0.75-6.03 0-1.66 0.15-4.22 0.3-5.88v-0.75c-0.15-9.95 0.45-20.34 1.05-29.23l0.75-17.48c-2.56-4.07 0-9.19 3.92-9.95 7.83 0.75 15.67 0.9 23.35 0.9h6.03c2.11 0 3.92-0.15 6.03-0.15 4.97-0.15 12.96-0.15 17.33-0.15z"/>
		<path class="st36" d="m517.3 355.31 1.21 1.51c0 2.56-0.15 6.03-0.3 8.29-0.3 2.71 0 5.42 0.45 7.83 0.3 1.51 0.45 3.62 0.45 5.58v3.16c0.15 5.73 0.15 14.77 0.15 20.19 0 4.82 0 9.64 0.15 15.67 0.6 1.05 0.15 1.51-0.6 2.56 0 0 0.15 0 0.6 1.51-1.66 0-2.41 0.15-2.71 0.6l-3.31-0.3c-2.41-0.15-4.82-0.45-6.03-3.01 0.3-1.66 0-2.71-0.15-3.92s0-2.26 0.15-3.32c-0.3-1.51-0.3-3.47-0.3-5.42 0-1.66 0-4.22 0.15-5.88v-2.71c0-1.05 0.15-1.96 0.15-2.56 0-2.41-0.15-4.82-0.6-6.93 0.15-0.3 0.75-1.36 0.6-1.21-0.6-3.47-0.45-8.14-0.45-12.05 0-2.41 0-4.52-0.15-6.63l-0.3-3.62c-0.15-1.66-0.3-3.92-0.3-5.57 0-1.51 0-3.01 0.45-5.27 1.96-1.81 6.78-1.96 9.49-0.9z"/>
		<path class="st36" d="m524.08 416.79c1.36 0.15-0.75-2.56 0.3-3.47-0.3-0.6-0.3-1.21-0.3-1.96 0.45-3.17 0.75-7.69 1.05-12.51l0.75-7.53c0.3-5.57 0.6-11.45 0.75-16.42 0-2.41 0.3-4.37 0.3-6.78 0-1.36-0.3-3.01-0.6-4.82-0.6-3.47-1.05-7.38 1.36-9.79 1.51-1.51 2.11-0.6 3.01-0.3 0.15 0 0.3 0.15 0.3 0.15 0.3 0 0.6-0.15 0.9-0.45l1.05-0.3c3.01 0 6.03-0.15 9.49-0.3 4.67-0.15 9.19-0.45 13.86-0.45 6.78 0 13.41 0.45 18.99 1.96 6.18 3.01 9.79 10.1 9.79 16.58 0 3.77-0.75 6.93-3.16 9.79 7.99 2.86 13.11 9.95 14.16 18.23-0.45 6.63-4.07 14.16-7.38 18.53-4.07 3.62-8.59 4.52-14.01 4.52-1.51 0-3.17-0.15-4.67-0.15-1.51-0.3-3.16-0.3-4.82-0.3-3.92 0-8.29 0.45-12.21 0.6-3.01 0.15-6.18 0.6-9.64 0.9-4.37 0.45-8.44 1.05-12.05 1.05-2.41 0-4.37-0.15-5.42-0.45-1.51-0.9-1.51-2.26-1.51-3.47 0-0.45 0-0.9-0.3-1.36v-1.5zm13.71-19.14c-0.3 4.67-0.45 5.88-0.45 12.51 3.77-0.3 8.14-0.3 12.35-0.3 3.32 0 7.08-0.15 10.85-0.3l3.92-0.45c2.41-0.3 5.27-0.6 7.99-0.45 4.07 0.3 7.38 0.15 9.94-0.9 2.41-2.26 4.67-6.03 4.67-9.19 0-1.21 0-2.56-0.45-3.77-4.97-2.71-11.45-3.62-18.08-3.62-7.38 0-15.52 1.05-23.05 2.41-3.01 0.45-4.67 0.75-7.38 1.05zm0-33c0.45 0 0.75 0.15 1.06 0.15 0-0.15 0.15-0.3 0.15-0.45 0-0.3 0.15-0.9 0.15-1.21zm1.06 0.15c-0.45 4.97-0.75 9.49-0.6 14.92l3.92-0.3c12.81-1.05 24.56-2.41 33-7.99 0.3-0.6 0.45-1.36 0.6-1.66 0.3-0.75 0.75-1.66 0.75-2.41-5.57-2.56-11.9-3.16-18.83-3.16-3.01 0-6.33 0.15-9.49 0.3-3.17 0.15-6.19 0.3-9.35 0.3z"/>
		<path class="st36" d="m680.94 354.25c0.3 0.15 0.75 0.45 1.05 0.9 2.26 3.62-0.15 10.1-2.71 11.75-5.12 0-9.95 0-14.47-0.15h-4.97c-1.96 0-3.62-0.15-4.82-0.15-3.16 0-5.88 0.15-8.74 0.3h-0.3c-0.15 2.86-0.15 5.42-0.15 8.44v3.17c0 5.27 0 10.55 0.15 16.12 0.15 5.88 0.15 11.9 0.15 17.48v1.21c0 0.45 0.15 0.75 0.15 1.05 0.15 2.41 0 5.43-1.96 7.99-2.56 1.05-7.69 0.9-10.25-0.9-1.05-5.12-1.36-11.45-1.36-18.23 0-3.92 0.15-7.83 0.3-11.75v-0.75c0-0.6 0.15-1.36 0.15-2.11v-1.81c0.3-5.88-0.3-11.9-0.9-17.33l-0.3-2.26c-1.66-0.45-3.47-0.3-5.27-0.3-2.71 0-5.27 0.15-8.14 0.45-3.01 0.3-5.88 0.45-8.74 0.45-2.71 0-4.97-0.15-7.08-0.6-3.62-3.77-3.77-7.68-3.62-12.51 1.36-0.75 2.11-1.21 2.41-1.96 5.58 0.3 12.21 0.3 17.78 0.3 5.58 0 11.45 0 17.03-0.15 6.93-0.15 13.71-0.15 20.34-0.15h7.68c5.57 0 9.34 0 15.97 0.6z"/>
	</g>
	<g fill="#009a00">
		<path class="st35" d="m705.5 404.73c-1.21-4.22-1.66-8.59-1.66-12.66 0-12.66 4.67-24.86 12.2-32.7 1.66-0.45 2.26-0.9 3.01-1.51h-0.15l0.3-0.15 1.36-0.9h-0.15l2.71-1.96c4.22-1.51 9.79-1.96 15.07-2.41l3.31-0.3c2.11-0.3 4.97-0.3 6.93-0.3 6.93 0 13.56 0.9 18.99 1.96l2.71 1.96c0.15 0.15 0.75 0.45 2.26 1.05l1.36 1.81c5.27 6.18 12.96 15.07 13.86 25.16 0.6 6.93-0.6 13.56-1.36 18.68 0 0.15-0.6 1.05-0.9 1.36-0.15 0.3-0.45 0.3-0.45 0.75-1.81 3.01-3.47 5.88-4.82 7.53l-2.26 2.11c-0.3 0.3-0.75 0.45-1.05 0.6l-3.62 3.62c-8.14 3.92-17.33 5.42-26.52 5.42-6.93 0-13.86-0.75-20.49-1.81-9.49-2.56-16.27-7.23-19.59-15.97-0.3 0-0.6-0.3-0.6-0.9 0 0-0.15 0.15 0-0.15zm19.59-35.71c0.9-0.3-0.6 1.21-1.81 2.41l-1.36 1.36v-0.15c-4.37 5.73-7.23 13.26-7.23 21.4 0 2.56 0.45 6.18 1.21 9.19 0.75 0.45 1.21 1.21 1.66 2.26 5.88 3.92 15.82 6.33 25.31 6.33 9.34 0 19.29-2.56 25.16-6.63h-0.15c4.97-4.97 8.44-16.57 8.59-26.52-0.45-1.96-1.51-4.07-2.56-6.03l-0.3-0.75c-0.15-0.15-0.3-0.3-0.3-0.45-4.37-3.77-10.7-6.63-18.53-6.93-8.9-0.16-21.55-0.01-29.69 4.51zm61.18 33.45c0.15 0 0.15 0.15 0 0.3z"/>
		<path class="st35" d="m865.83 355.01c0.3 2.86-0.15 5.12-1.36 7.08 0 0.15-0.15 1.05-0.15 1.66-9.04 0-19.29 0.3-27.88 0.6-1.51 0-3.01 0.15-4.52 0.15-5.88 0.3-13.26 0.6-19.29 0.6-1.36 0-2.56-0.15-3.62-0.15h-2.86c-0.45 2.26-0.45 5.27-0.45 7.38s0 4.07-0.15 5.88c8.89-0.45 18.84-0.75 28.33-0.75 3.47 0 7.38 0 10.55 0.15 2.26 2.26 3.17 7.83 2.11 12.05h-6.03c-9.64 0-23.2 0.45-33.9 2.11-0.3 4.97-0.3 9.79-0.3 14.47 0 5.12 0 10.85 0.3 15.37-1.96 2.56-7.38 1.81-9.49 1.51-2.11-1.96-2.71-4.07-2.71-6.93 0-1.51 0.15-3.17 0.3-4.67 0.45-3.16 0.9-6.33-0.3-8.29v-4.97c0-4.37-0.15-9.49-0.3-14.32-0.15-5.12-0.3-9.94-0.3-14.61 0-3.77 0-7.38 0.3-10.55 0 0-0.15 0-0.45-0.3-0.45-0.45-0.9-1.36-0.45-3.47 1.36-1.21 4.52-3.16 6.63-3.31 6.93 0.9 15.07 1.21 23.05 1.21 7.69 0 15.37-0.3 23.81-0.6h1.66c1.51 0 3.01-0.15 4.52-0.3 0.3 0 0.45-0.15 0.75-0.15 1.21-0.15 2.56-0.15 4.07-0.15 2.41 0 3.92 0.15 5.43 0.3l0.9 1.51c0.9 0.3 1.21 0.45 1.51 0.75z"/>
		<path class="st35" d="m942.52 355.01c0.3 2.86-0.15 5.12-1.36 7.08 0 0.15-0.15 1.05-0.15 1.66-9.04 0-19.29 0.3-27.88 0.6-1.51 0-3.01 0.15-4.52 0.15-5.88 0.3-13.26 0.6-19.29 0.6-1.36 0-2.56-0.15-3.62-0.15h-2.86c-0.45 2.26-0.45 5.27-0.45 7.38s0 4.07-0.15 5.88c8.89-0.45 18.84-0.75 28.33-0.75 3.47 0 7.38 0 10.55 0.15 2.26 2.26 3.16 7.83 2.11 12.05h-6.03c-9.64 0-23.2 0.45-33.9 2.11-0.3 4.97-0.3 9.79-0.3 14.47 0 5.12 0 10.85 0.3 15.37-1.96 2.56-7.38 1.81-9.49 1.51-2.11-1.96-2.71-4.07-2.71-6.93 0-1.51 0.15-3.17 0.3-4.67 0.45-3.16 0.9-6.33-0.3-8.29v-4.97c0-4.37-0.15-9.49-0.3-14.32-0.15-5.12-0.3-9.94-0.3-14.61 0-3.77 0-7.38 0.3-10.55 0 0-0.15 0-0.45-0.3-0.45-0.45-0.9-1.36-0.45-3.47 1.35-1.21 4.52-3.16 6.63-3.31 6.93 0.9 15.07 1.21 23.05 1.21 7.69 0 15.37-0.3 23.81-0.6h1.66c1.51 0 3.01-0.15 4.52-0.3 0.3 0 0.45-0.15 0.75-0.15 1.2-0.15 2.56-0.15 4.07-0.15 2.41 0 3.92 0.15 5.43 0.3l0.9 1.51c0.9 0.3 1.21 0.45 1.51 0.75z"/>
		<path class="st35" d="m1005.8 353.05c2.11 1.96 4.22 4.67 3.16 7.99-1.81 3.92-5.43 3.77-8.44 3.47h-0.6c-0.75-0.15-1.51-0.15-2.11-0.15-5.57 0-11.6 0.15-17.48 0.3-4.22 0.15-9.95 0.15-13.71 0.15-3.31 0-5.43 0-7.99-0.15-0.15 1.21-0.15 2.86-0.15 4.22 0 0.9-0.15 1.51-0.15 2.41 0 1.05-0.15 2.11-0.15 3.16 0 1.96 0 3.62-0.15 4.97 7.69-0.3 14.62-0.45 21.55-0.45 5.58 0 11.45 0 16.73 0.45 3.47 0.75 5.73 4.67 5.73 8.74 0 1.66-0.3 3.47-1.51 5.12-6.63-0.45-14.31-0.9-21.25-0.9-7.53 0-15.07 0.3-22.15 1.81v10.09c0 2.11 0.15 3.32 0 5.58 5.57 0.15 10.55 0.3 16.57 0.3 10.7 0 22.15-0.3 34.36-0.9 0.6 0 1.51-0.15 2.56-0.3 3.01-0.3 5.88-0.6 8.29 1.51 1.36 4.22-0.15 9.64-2.56 11.15-10.7 0-23.05 0.15-34.51 0.9-2.71 0.15-5.73 0.3-8.44 0.3-1.51 0-3.01 0.15-4.37 0.15-4.82 0.15-10.4 0.3-15.97 0.75-0.9-0.9-1.36-1.05-1.81-1.21-0.15 0-0.6-0.3-0.6-0.3-0.15 0-0.6-0.15-0.75-0.15-1.51-0.6-3.16-1.36-3.77-1.96-0.6-1.21-0.75-3.62-0.75-6.03 0-1.66 0.15-4.22 0.3-5.88v-0.75c-0.15-9.95 0.45-20.34 1.05-29.23l0.75-17.48c-2.56-4.07 0-9.19 3.92-9.95 7.83 0.75 15.67 0.9 23.35 0.9h6.03c2.11 0 3.92-0.15 6.03-0.15 4.97-0.15 12.96-0.15 17.33-0.15z"/>
		<path class="st35" d="m1082.8 394.94c2.71 3.01 5.88 6.18 9.19 8.74 0.15-1.96 0-4.22 0-6.48 0-4.07-0.15-8.59-0.3-12.66 0-1.51-0.15-3.16-0.15-4.67-0.15-2.56-0.3-6.33-0.3-9.04 0-5.27 0.3-10.7 1.66-17.03l1.51-0.15h-0.3c1.81-0.75 3.62-1.51 5.73-1.51 1.36 0 2.86 0.45 4.82 1.51 1.96 2.71 2.11 6.33 2.11 9.95 0 1.36-0.15 2.71-0.15 3.92v10.7c0 2.26-0.15 4.67-0.15 7.23 0 10.4 0.3 20.94 0.9 29.83 0 0-0.45 1.66-0.45 2.41 0 0.15-0.15 0.45-0.15 0.6 0 1.36-0.15 2.56-0.9 3.77-1.81 1.36-5.57 2.11-7.69 1.51-13.56-9.64-25.01-21.7-36.46-34.05-6.93-7.53-14.01-14.77-21.25-21.4 0 0.9-0.15 1.96-0.15 2.71v4.22c0 5.42 0.15 10.85 0.3 15.67 0.15 3.01 0.3 5.73 0.3 8.74 0 1.06-0.15 2.11-0.15 3.17v2.86c0 1.36-0.15 2.71-0.15 4.07v3.77c0 0.45 0.15 0.9 0.15 1.21v0.9c0.15 2.11 0.15 3.31-1.81 5.88l-0.75 0.3h0.15c-0.45 0.3-0.75 0.45-1.05 0.45 0 0 0.15 0-0.15 0.9-4.97-0.6-8.29-2.86-10.55-6.33 0.3-5.12 0.45-10.55 0.45-15.52 0-8.89-0.3-17.78-0.75-27.27l-0.6-16.88 1.21-2.26c0.3-0.45 0.75-1.06 0.6-2.86 3.16-0.75 4.82-1.21 7.08-1.51l2.56-0.3 0.75 0.75c0.15 0.15 0.6 0.3 2.26 0.45 3.77 3.92 8.29 8.29 12.36 12.05l3.62 3.32h-0.15c3.77 3.77 8.29 7.99 11.6 11.9l13.26 13.86v-0.15c0.3 0.3 0.3 0.6 0.6 0.9l1.21 1.66z"/>
	</g>
	<g fill="#0060b1">
		<path class="st37" d="m301.03 452.43c0 0.62 0.31 1.47 0.78 2.4l0.31 0.85-0.08-0.08c1.94 3.49 3.88 6.82 5.97 10.23l1.24 2.25v-0.08c3.02 5.19 5.89 10.31 8.45 16.35 0 0-0.16 0.7-0.23 1.16 0 0.15-0.08 0.54-0.08 0.7-0.93 0.62-2.09 1.16-3.33 1.32-1.32-0.85-1.63-1.01-2.32-0.85l-2.56-5.04-2.87-5.74h-2.4c-4.96 0-10.85 0.16-16.12 0.31-1.16 1.63-1.63 2.48-2.17 3.49-1.4 2.64-1.78 3.26-2.17 3.8-0.54 0.62-0.93 1.16-1.7 2.71h0.08c-0.23 0.54-0.54 1.16-1.32 1.78-2.32 0.31-4.03-1.63-5.04-3.1l0.62-1.47c0.39-0.93 0.78-1.86 1.78-2.56l-0.08 0.16c3.56-6.51 7.52-13.25 11.47-19.76l2.64-4.18-0.08 0.08c0.23-0.54 0.62-1.01 0.78-1.55v0.08c0-0.08 0.08-0.08 0.08-0.23 0-0.08 0.23 0.62-0.16-1.7 0.46 0.16 1.63-0.54 1.47-0.85 0.23-0.39 0.47-0.62 0.7-0.62 0-0.23 0.08-0.39 0.23-0.85l0.93-0.16c0.62-0.23 1.4-0.39 2.33-0.39s1.86 0.23 2.79 0.93zm-8.61 16.51c2.25-0.54 5.89 0.46 7.75 0h2.17c-1.16-2.48-2.25-4.81-3.64-7.29l-1.16-1.86c-0.78 1.47-1.78 3.26-2.79 4.88v-0.08c-0.31 0.54-0.78 1.16-1.08 1.78z"/>
		<path class="st37" d="m330.94 473.82h-2.48c-0.08 0.54 0 1.16 0 1.63 0 1.08 0.08 2.25 0.15 3.33 0.08 1.39 0.16 2.87 0.16 4.11 0 1.78-0.08 3.41-0.62 4.73-2.4 0.23-3.72-0.23-5.27-0.77-1.24-1.86-1.32-4.26-1.39-6.2v-0.47c0-0.7-0.08-1.39-0.08-2.09v-2.02c0-5.5 0.23-11.08 0.46-16.12 0-0.46 0.08-1.47 0.08-1.94-0.31-0.85-0.54-1.78-0.54-2.56 0-1.24 0.23-2.71 0.7-3.95 2.48-0.7 5.35-0.93 7.98-1.16l4.11-0.39h1.78c5.35 0.08 11.24 0.08 15.73 2.64 1.01 0.62 2.71 2.09 3.64 2.94 1.78 1.55 2.48 3.64 3.33 5.89 0.15 2.79-0.31 4.57-0.78 6.35-4.42 5.73-14.57 5.81-24.26 5.97-0.92 0-1.77 0.08-2.7 0.08zm14.96-7.6c2.71-0.31 5.5-0.62 7.13-2.02 0-0.23 0-0.39 0.23-0.7 0-1.01 0-1.86-0.31-2.56l0.08 0.08c-2.64-3.95-8.14-5.04-13.87-5.04-3.02 0-6.74 0.39-9.69 0.7-0.23 0.08-0.7 0.23-0.78 0.31 0.08 0.78 0.08 1.63 0.08 2.4 0 0.54-0.08 1.08-0.08 1.47v1.55c-0.08 1.47-0.16 3.02-0.08 4.8 1.32 0.08 2.64 0.08 3.95 0.08 3.49 0 7.21-0.23 10.62-0.78 0.78-0.13 1.63-0.21 2.72-0.29z"/>
		<path class="st37" d="m361.94 478.47c-0.62-2.17-0.85-4.42-0.85-6.51 0-6.51 2.4-12.79 6.28-16.82 0.85-0.23 1.16-0.47 1.55-0.78h-0.08l0.16-0.08 0.7-0.46h-0.08l1.4-1.01c2.17-0.78 5.04-1.01 7.75-1.24l1.7-0.16c1.09-0.16 2.56-0.16 3.57-0.16 3.56 0 6.97 0.46 9.76 1.01l1.4 1.01c0.08 0.08 0.39 0.23 1.16 0.54l0.7 0.93c2.71 3.18 6.66 7.75 7.13 12.94 0.31 3.56-0.31 6.97-0.7 9.61 0 0.08-0.31 0.54-0.46 0.7-0.08 0.16-0.23 0.16-0.23 0.39-0.93 1.55-1.78 3.02-2.48 3.87l-1.16 1.08c-0.15 0.16-0.39 0.23-0.54 0.31l-1.86 1.86c-4.18 2.02-8.91 2.79-13.64 2.79-3.56 0-7.13-0.39-10.54-0.93-4.88-1.32-8.37-3.72-10.07-8.21-0.15 0-0.31-0.16-0.31-0.46 0 0-0.08 0.08 0-0.08zm10.07-18.37c0.46-0.16-0.31 0.62-0.93 1.24l-0.7 0.7v-0.08c-2.25 2.94-3.72 6.82-3.72 11 0 1.32 0.23 3.18 0.62 4.73 0.39 0.23 0.62 0.62 0.85 1.16 3.02 2.01 8.14 3.25 13.02 3.25 4.8 0 9.92-1.32 12.94-3.41h-0.08c2.56-2.56 4.34-8.52 4.42-13.64-0.23-1.01-0.77-2.09-1.32-3.1l-0.15-0.39c-0.08-0.08-0.16-0.15-0.16-0.23-2.25-1.94-5.5-3.41-9.53-3.56-4.56-0.07-11.07 0.01-15.26 2.33zm31.47 17.2c0.08 0 0.08 0.08 0 0.16z"/>
		<path class="st37" d="m448.74 452.51c0.16 0.08 0.39 0.23 0.54 0.46 1.16 1.86-0.08 5.19-1.39 6.05-2.64 0-5.11 0-7.44-0.08h-2.56c-1.01 0-1.86-0.08-2.48-0.08-1.63 0-3.02 0.08-4.49 0.16h-0.16c-0.08 1.47-0.08 2.79-0.08 4.34v1.63c0 2.71 0 5.42 0.08 8.29 0.08 3.02 0.08 6.12 0.08 8.99v0.62c0 0.23 0.08 0.39 0.08 0.54 0.08 1.24 0 2.79-1.01 4.11-1.32 0.54-3.95 0.46-5.27-0.47-0.54-2.64-0.7-5.89-0.7-9.38 0-2.01 0.08-4.03 0.16-6.04v-0.39c0-0.31 0.08-0.7 0.08-1.08v-0.93c0.16-3.02-0.16-6.12-0.46-8.91l-0.16-1.16c-0.85-0.23-1.78-0.15-2.71-0.15-1.39 0-2.71 0.08-4.18 0.23-1.55 0.16-3.02 0.23-4.49 0.23-1.39 0-2.56-0.08-3.64-0.31-1.86-1.94-1.94-3.95-1.86-6.43 0.7-0.39 1.09-0.62 1.24-1.01 2.87 0.16 6.28 0.16 9.14 0.16 2.87 0 5.89 0 8.76-0.08 3.57-0.08 7.05-0.08 10.46-0.08h3.95c2.87 0 4.8 0 8.21 0.31z"/>
		<path class="st37" d="m456.41 452.2c1.39 1.4 1.24 3.18 1.08 4.96-0.08 0.85-0.16 1.71-0.16 2.48 0.08 1.86 0.16 3.41 0.46 5.27-0.15 0.31-0.15 0.62-0.15 1.01v0.78c0 0.23 0.08 0.23 0 0.7 2.25 0.46 4.42 0.46 6.51 0.46h1.78c0.62 0 1.16-0.08 1.71-0.08h2.01c0.7 0 1.32-0.08 1.94-0.08h2.02c3.26 0 6.35 0 9.76-0.23 0.16-1.08 0.08-1.86 0.08-2.71 0-1.4-0.08-2.94-0.23-4.26 0-0.39-0.08-0.93-0.08-1.32-0.08-0.78-0.16-1.78-0.16-2.48 0-1.47 0.16-3.1 0.62-4.65 1.78-0.23 4.18 0.23 5.19 1.24-0.08 4.57 0.31 8.91 0.62 12.48 0.23 2.4 0.39 5.04 0.46 7.21 0 0.54-0.08 0.78-0.16 1.08-0.08 0.31-0.16 0.62-0.16 0.78 0 0.23 0.08 0.54 0.23 0.85 0.08 0.39 0.23 1.55 0.23 1.55 0 0.7-0.08 1.24-0.15 2.17-0.08 0.77-0.16 1.55-0.16 2.25 0 0.31 0 0.54 0.08 1.01v0.47c0.08 1.01 0.08 2.32-0.23 3.25-0.93 1.32-3.18 2.17-4.96 1.47-1.32-1.86-1.24-4.26-1.16-6.43 0.08-1.55 0.08-3.1-0.39-4.26 0-0.77 0-1.32 0.08-1.78 0.08-0.31 0.08-0.7 0.08-1.01-1.63-0.08-3.33-0.08-4.81-0.08-3.95 0-7.52 0.08-11.24 0.16-2.79 0.08-6.82 0.08-9.38 0.08-0.08 1.4 0 3.18 0.08 4.34s0.16 2.87 0.16 3.87c0 1.47-0.08 2.71-0.23 3.64-1.24 0.7-3.49 1.55-5.11 0.85-0.85-1.47-1.16-2.71-1.16-3.64l0.23-2.4c0.08-0.78 0.16-1.55 0.16-2.32 0.08-3.49-0.08-7.29-0.23-10.93-0.15-2.94-0.23-6.74-0.23-9.07 0-0.23 0-0.7 0.08-1.16 0-0.08 0.08-0.16 0.08-0.23 0-0.39-0.08-0.85-0.15-1.24-0.16-1.16-0.23-2.32 0.62-3.95 0.54-0.39 2.32-0.39 3.41-0.31 0.08 0 0.23 0.08 0.47 0.08z"/>
		<path class="st37" d="m522.75 451.89c1.08 1.01 2.17 2.4 1.63 4.11-0.93 2.02-2.79 1.94-4.34 1.78h-0.31c-0.39-0.08-0.77-0.08-1.08-0.08-2.87 0-5.97 0.08-8.99 0.15-2.17 0.08-5.11 0.08-7.05 0.08-1.7 0-2.79 0-4.11-0.08-0.08 0.62-0.08 1.47-0.08 2.17 0 0.46-0.08 0.78-0.08 1.24 0 0.54-0.08 1.08-0.08 1.63 0 1.01 0 1.86-0.08 2.56 3.95-0.16 7.52-0.23 11.08-0.23 2.87 0 5.89 0 8.6 0.23 1.78 0.39 2.95 2.4 2.95 4.49 0 0.85-0.16 1.78-0.78 2.64-3.41-0.23-7.36-0.47-10.93-0.47-3.88 0-7.75 0.16-11.39 0.93v5.19c0 1.09 0.08 1.71 0 2.87 2.87 0.08 5.42 0.16 8.52 0.16 5.5 0 11.39-0.16 17.67-0.47 0.31 0 0.77-0.08 1.32-0.15 1.55-0.16 3.02-0.31 4.26 0.77 0.7 2.17-0.08 4.96-1.32 5.73-5.5 0-11.86 0.08-17.75 0.46-1.39 0.08-2.94 0.16-4.34 0.16-0.77 0-1.55 0.08-2.25 0.08-2.48 0.08-5.35 0.16-8.21 0.39-0.46-0.46-0.7-0.54-0.93-0.62-0.08 0-0.31-0.15-0.31-0.15-0.08 0-0.31-0.08-0.39-0.08-0.78-0.31-1.63-0.7-1.94-1.01-0.31-0.62-0.39-1.86-0.39-3.1 0-0.85 0.08-2.17 0.15-3.02v-0.39c-0.08-5.11 0.23-10.46 0.54-15.03l0.39-8.99c-1.32-2.09 0-4.73 2.02-5.11 4.03 0.39 8.06 0.46 12.01 0.46h3.1c1.08 0 2.02-0.08 3.1-0.08 2.56-0.08 6.66-0.08 8.91-0.08z"/>
		<path class="st37" d="m563.98 456.69c-2.94 1.4-5.35 3.26-7.44 4.88-0.54 0.47-1.08 0.85-1.63 1.24l-0.7 0.62c-0.62 0.62-1.16 1.16-2.02 1.71 3.41 3.18 7.98 6.12 11.78 8.6l1.47 0.93c4.42 2.95 8.91 6.04 12.17 9.3-0.31 2.33-1.39 3.02-2.25 3.8h0.08l-0.39 0.39c-1.86 0.39-2.71-0.23-3.49-0.85-0.39-0.31-0.78-0.62-1.32-0.78 0-0.16-0.15-0.23-0.15-0.31-0.08-0.08-0.23-0.23-0.23-0.47-0.93-0.7-1.86-1.32-2.87-1.94-0.77-0.54-1.63-1.09-2.48-1.71h0.08c-1.16-0.54-2.32-1.32-3.25-2.09 0.31 0.31-0.16-0.08-0.31-0.16l-1.24-0.93c-1.4-1.08-2.4-1.78-3.64-2.4-2.56-1.55-4.88-3.1-6.82-4.65l0.08-0.08c-0.39-0.39-0.78-0.62-1.55-1.01-0.23-0.23-0.39-0.46-0.77-0.77l-0.16-0.23c-2.87 1.86-5.58 3.64-8.37 5.81 0 0.39 0.08 0.7 0.47 1.08-0.54 2.48-0.47 3.88-0.39 5.19v0.31c0.08 1.63 0 3.88-0.93 5.73-1.4 0.31-4.03 0.31-5.19 0.08-0.78-1.47-0.78-2.64-0.7-3.41v-0.39c0-0.16 0.08-0.23 0.08-0.39-0.08-1.47-0.08-3.8-0.08-5.19 0-1.63 0-3.41 0.08-5.11 0.08-2.25 0.08-5.66 0.08-7.67 0-1.7 0-3.56-0.08-5.27-0.08-0.93-0.08-2.4-0.08-3.26 0-1.7 0.08-3.56 0.62-5.58 1.24-0.23 2.71-0.54 4.26-0.46 0.85 0.39 1.16 1.24 1.47 2.17 0.08 0.47 0.16 0.85 0.39 1.16-0.08 1.16-0.08 2.25-0.08 3.41 0 1.55 0 2.94 0.08 4.42 0 0.54 0.08 1.08 0.08 1.55v1.24c0 0.46-0.08 0.77-0.08 1.08v0.23c6.82-4.88 14.1-10.38 20.46-15.5 0.16 0.08 0.23 0.08 0.31 0 0 0 1.24-0.46 1.08-0.39 1.78 0.08 5.04 1.4 5.11 3.26 0 1.01-0.23 1.32-0.7 1.78-0.23 0.23-0.54 0.54-0.62 0.85z"/>
		<path class="st37" d="m610.63 451.89c1.09 1.01 2.17 2.4 1.63 4.11-0.93 2.02-2.79 1.94-4.34 1.78h-0.31c-0.39-0.08-0.77-0.08-1.08-0.08-2.87 0-5.97 0.08-8.99 0.15-2.17 0.08-5.11 0.08-7.05 0.08-1.7 0-2.79 0-4.11-0.08-0.08 0.62-0.08 1.47-0.08 2.17 0 0.46-0.08 0.78-0.08 1.24 0 0.54-0.08 1.08-0.08 1.63 0 1.01 0 1.86-0.08 2.56 3.95-0.16 7.52-0.23 11.08-0.23 2.87 0 5.89 0 8.6 0.23 1.78 0.39 2.95 2.4 2.95 4.49 0 0.85-0.16 1.78-0.78 2.64-3.41-0.23-7.36-0.47-10.93-0.47-3.87 0-7.75 0.16-11.39 0.93v5.19c0 1.09 0.08 1.71 0 2.87 2.87 0.08 5.42 0.16 8.52 0.16 5.5 0 11.39-0.16 17.67-0.47 0.31 0 0.77-0.08 1.32-0.15 1.55-0.16 3.02-0.31 4.26 0.77 0.7 2.17-0.08 4.96-1.32 5.73-5.5 0-11.86 0.08-17.75 0.46-1.39 0.08-2.94 0.16-4.34 0.16-0.77 0-1.55 0.08-2.25 0.08-2.48 0.08-5.35 0.16-8.21 0.39-0.46-0.46-0.7-0.54-0.93-0.62-0.08 0-0.31-0.15-0.31-0.15-0.08 0-0.31-0.08-0.39-0.08-0.78-0.31-1.63-0.7-1.94-1.01-0.31-0.62-0.39-1.86-0.39-3.1 0-0.85 0.08-2.17 0.15-3.02v-0.39c-0.08-5.11 0.23-10.46 0.54-15.03l0.39-8.99c-1.32-2.09 0-4.73 2.02-5.11 4.03 0.39 8.06 0.46 12.01 0.46h3.1c1.09 0 2.02-0.08 3.1-0.08 2.56-0.08 6.67-0.08 8.91-0.08z"/>
		<path class="st37" d="m620.86 492.49c2.25-2.17 4.19-4.65 4.73-7.83h-0.08c-0.08 0-0.31 0-0.46-0.08-0.08 0-0.54-0.23-0.54-0.23v-2.09c0.85-0.62 1.78-0.93 2.79-0.93 2.48 0 5.11 2.32 4.96 5.35-1.01 2.94-2.64 6.2-5.35 6.82-0.08 0.08-0.31 0.16-0.31 0.16v-0.08c-0.16 0.23-0.08 0.31-0.78 0.7-1.86 0.08-3.02 0.15-4.73-0.54z"/>
		<path class="st37" d="m664.8 484.67c0.7 0.08-0.39-1.32 0.15-1.78-0.15-0.31-0.15-0.62-0.15-1.01 0.23-1.63 0.39-3.95 0.54-6.43l0.39-3.88c0.16-2.87 0.31-5.89 0.39-8.45 0-1.24 0.15-2.25 0.15-3.49 0-0.7-0.15-1.55-0.31-2.48-0.31-1.78-0.54-3.8 0.7-5.04 0.77-0.78 1.08-0.31 1.55-0.16 0.08 0 0.16 0.08 0.16 0.08 0.16 0 0.31-0.08 0.46-0.23l0.54-0.16c1.55 0 3.1-0.08 4.88-0.15 2.4-0.08 4.73-0.23 7.13-0.23 3.49 0 6.9 0.23 9.76 1.01 3.18 1.55 5.04 5.19 5.04 8.53 0 1.94-0.39 3.56-1.63 5.04 4.11 1.47 6.74 5.11 7.28 9.38-0.23 3.41-2.09 7.29-3.8 9.53-2.09 1.86-4.42 2.32-7.21 2.32-0.78 0-1.63-0.08-2.4-0.08-0.78-0.15-1.63-0.15-2.48-0.15-2.02 0-4.26 0.23-6.28 0.31-1.55 0.08-3.18 0.31-4.96 0.46-2.25 0.23-4.34 0.54-6.2 0.54-1.24 0-2.25-0.08-2.79-0.23-0.78-0.46-0.78-1.16-0.78-1.78 0-0.23 0-0.47-0.15-0.7v-0.77zm7.06-9.85c-0.15 2.4-0.23 3.02-0.23 6.43 1.94-0.16 4.18-0.16 6.35-0.16 1.7 0 3.64-0.08 5.58-0.16l2.02-0.23c1.24-0.15 2.71-0.31 4.11-0.23 2.09 0.16 3.8 0.08 5.11-0.46 1.24-1.16 2.4-3.1 2.4-4.73 0-0.62 0-1.32-0.23-1.94-2.56-1.39-5.89-1.86-9.3-1.86-3.8 0-7.98 0.54-11.86 1.24-1.55 0.23-2.4 0.39-3.8 0.54zm0-16.97c0.23 0 0.39 0.08 0.54 0.08 0-0.08 0.08-0.15 0.08-0.23 0-0.16 0.08-0.47 0.08-0.62zm0.54 0.08c-0.23 2.56-0.39 4.88-0.31 7.67l2.02-0.16c6.59-0.54 12.63-1.24 16.97-4.11 0.16-0.31 0.23-0.7 0.31-0.85 0.16-0.39 0.39-0.85 0.39-1.24-2.87-1.32-6.12-1.63-9.69-1.63-1.55 0-3.26 0.08-4.88 0.16-1.63 0.08-3.18 0.16-4.81 0.16z"/>
		<path class="st37" d="m727.73 452.43c0 0.62 0.31 1.47 0.78 2.4l0.31 0.85-0.08-0.08c1.94 3.49 3.88 6.82 5.97 10.23l1.24 2.25v-0.08c3.02 5.19 5.89 10.31 8.45 16.35 0 0-0.16 0.7-0.23 1.16 0 0.15-0.08 0.54-0.08 0.7-0.93 0.62-2.09 1.16-3.33 1.32l-0.93-0.54 0.16 0.08-0.16-0.16c-0.39-0.23-0.7-0.39-1.39-0.23l-2.56-5.04-2.87-5.74h-2.4c-4.96 0-10.85 0.16-16.12 0.31-1.16 1.63-1.63 2.48-2.17 3.49-0.7 1.4-1.47 2.79-2.09 3.8-1.32 1.78-1.63 2.32-1.78 2.71h0.08c-0.23 0.54-0.54 1.16-1.32 1.78-2.32 0.31-4.03-1.63-5.04-3.1l0.62-1.47c0.39-0.93 0.78-1.86 1.78-2.56l-0.08 0.16c3.56-6.51 7.52-13.25 11.47-19.76l2.64-4.18-0.08 0.08c0.23-0.54 0.62-1.01 0.78-1.55v0.08c0-0.08 0.08-0.08 0.08-0.23 0-0.08 0.23 0.62-0.16-1.7 0.46 0.16 1.63-0.54 1.47-0.85 0.23-0.39 0.47-0.62 0.7-0.62 0-0.23 0.08-0.39 0.23-0.85l0.93-0.16c0.62-0.23 1.4-0.39 2.33-0.39s1.86 0.23 2.79 0.93zm-11.16-10.39c3.56-1.94 6.51 1.01 6.51 3.56 0 1.32-0.7 2.48-1.94 3.1-3.8 0.7-5.04-1.32-5.04-3.95 0-0.77 0.08-1.63 0.39-2.63zm2.56 26.9c0.46-0.16 6.35 0.15 7.75 0h2.17c-1.16-2.48-2.25-4.81-3.64-7.29l-1.16-1.86c-0.78 1.47-1.78 3.26-2.79 4.88v-0.08c-0.31 0.54-0.78 1.16-1.08 1.78zm8.83-27.44c0.46-0.16 1.01-0.16 1.39-0.08l1.16 0.54c0.93 0.7 1.47 1.7 1.47 3.1 0 0.85-0.23 1.86-0.85 2.94l-0.7 0.16c-1.4 0.46-2.64 0.78-4.11-0.16-0.62-0.85-0.93-1.86-0.93-2.94 0.02-1.62 0.95-3.25 2.57-3.56z"/>
		<path class="st37" d="m781.36 461.73c-1.08-0.23-1.78-0.46-2.63-0.93v0.08c-1.01-0.39-2.02-0.85-3.26-1.01-1.01-0.39-1.7-0.54-2.4-0.7-0.93-0.15-1.78-0.31-2.48-0.7-0.78-0.08-1.63-0.08-2.4-0.08-4.26 0-9.14 1.63-12.01 3.49-1.08 1.78-1.86 4.34-2.48 6.59l-0.23 1.16c0.16 5.58 2.64 9.07 6.28 10.93l-0.08-0.08c2.64 0.62 5.5 1.01 8.06 1.01 4.42 0 8.68-1.01 11.55-3.72 0.46 0 0.77 0 1.08-0.08 0.62-0.08 1.32-0.15 2.09-0.08 1.16 0.93 1.7 1.63 1.7 2.56 0 0.7-0.7 1.86-1.55 2.48l-2.63 1.94-1.09 0.78h0.08s-0.7 0.46-1.7 1.01c-3.41 1.09-6.51 1.47-10.31 1.47-1.63 0-3.87-0.08-5.73-0.23-1.71-0.62-3.1-1.08-4.03-1.24-8.14-4.57-12.79-14.65-8.6-23.25v0.08c0.08-0.31 0.39-0.85 0.46-1.16l0.39-1.09c0.15-0.7-0.46 0.16 1.08-2.79 0.7-1.16 3.1-2.56 4.42-3.41 0.78-0.54 1.86-1.16 2.71-1.86l2.71-0.62 0.78-0.08c1.55-0.39 3.56-0.7 5.35-0.85 3.26-0.23 6.05 0.31 8.45 0.93l0.54 0.08h-0.08l3.02 0.78 0.39 0.31h-0.08c0.54 0.47 3.72 2.25 1.32 1.09 1.16 0.7 2.25 1.47 3.18 3.02 0.08 1.78 0.08 3.41-1.4 4.11z"/>
		<path class="st37" d="m818.4 456.69c-2.94 1.4-5.35 3.26-7.44 4.88-0.54 0.47-1.08 0.85-1.63 1.24l-0.7 0.62c-0.62 0.62-1.16 1.16-2.02 1.71 3.41 3.18 7.98 6.12 11.78 8.6l1.47 0.93c4.42 2.95 8.91 6.04 12.17 9.3-0.31 2.33-1.39 3.02-2.25 3.8h0.08l-0.39 0.39c-1.86 0.39-2.71-0.23-3.49-0.85-0.39-0.31-0.78-0.62-1.32-0.78 0-0.16-0.15-0.23-0.15-0.31-0.08-0.08-0.23-0.23-0.23-0.47-0.93-0.7-1.86-1.32-2.87-1.94-0.77-0.54-1.63-1.09-2.48-1.71h0.08c-1.16-0.54-2.32-1.32-3.25-2.09 0.31 0.31-0.16-0.08-0.31-0.16l-1.24-0.93c-1.4-1.08-2.4-1.78-3.64-2.4-2.56-1.55-4.88-3.1-6.82-4.65l0.08-0.08c-0.39-0.39-0.78-0.62-1.55-1.01-0.23-0.23-0.39-0.46-0.77-0.77l-0.16-0.23c-2.87 1.86-5.58 3.64-8.37 5.81 0 0.39 0.08 0.7 0.47 1.08-0.54 2.48-0.47 3.88-0.39 5.19v0.31c0.08 1.63 0 3.88-0.93 5.73-1.4 0.31-4.03 0.31-5.19 0.08-0.78-1.47-0.78-2.64-0.7-3.41v-0.39c0-0.16 0.08-0.23 0.08-0.39-0.08-1.47-0.08-3.8-0.08-5.19 0-1.63 0-3.41 0.08-5.11 0.08-2.25 0.08-5.66 0.08-7.67 0-1.7 0-3.56-0.08-5.27-0.08-0.93-0.08-2.4-0.08-3.26 0-1.7 0.08-3.56 0.62-5.58 1.24-0.23 2.71-0.54 4.26-0.46 0.85 0.39 1.16 1.24 1.47 2.17 0.08 0.47 0.16 0.85 0.39 1.16-0.08 1.16-0.08 2.25-0.08 3.41 0 1.55 0 2.94 0.08 4.42 0 0.54 0.08 1.08 0.08 1.55v1.24c0 0.46-0.08 0.77-0.08 1.08v0.23c6.82-4.88 14.1-10.38 20.46-15.5 0.16 0.08 0.23 0.08 0.31 0 0 0 1.24-0.46 1.08-0.39 1.78 0.08 5.04 1.4 5.11 3.26 0 1.01-0.23 1.32-0.7 1.78-0.23 0.23-0.54 0.54-0.62 0.85z"/>
		<path class="st37" d="m865.06 451.89c1.09 1.01 2.17 2.4 1.63 4.11-0.93 2.02-2.79 1.94-4.34 1.78h-0.31c-0.39-0.08-0.77-0.08-1.08-0.08-2.87 0-5.97 0.08-8.99 0.15-2.17 0.08-5.11 0.08-7.05 0.08-1.7 0-2.79 0-4.11-0.08-0.08 0.62-0.08 1.47-0.08 2.17 0 0.46-0.08 0.78-0.08 1.24 0 0.54-0.08 1.08-0.08 1.63 0 1.01 0 1.86-0.08 2.56 3.95-0.16 7.52-0.23 11.08-0.23 2.87 0 5.89 0 8.6 0.23 1.78 0.39 2.95 2.4 2.95 4.49 0 0.85-0.16 1.78-0.78 2.64-3.41-0.23-7.36-0.47-10.93-0.47-3.87 0-7.75 0.16-11.39 0.93v5.19c0 1.09 0.08 1.71 0 2.87 2.87 0.08 5.42 0.16 8.52 0.16 5.5 0 11.39-0.16 17.67-0.47 0.31 0 0.77-0.08 1.32-0.15 1.55-0.16 3.02-0.31 4.26 0.77 0.7 2.17-0.08 4.96-1.32 5.73-5.5 0-11.86 0.08-17.75 0.46-1.39 0.08-2.94 0.16-4.34 0.16-0.77 0-1.55 0.08-2.25 0.08-2.48 0.08-5.35 0.16-8.21 0.39-0.46-0.46-0.7-0.54-0.93-0.62-0.08 0-0.31-0.15-0.31-0.15-0.08 0-0.31-0.08-0.39-0.08-0.78-0.31-1.63-0.7-1.94-1.01-0.31-0.62-0.39-1.86-0.39-3.1 0-0.85 0.08-2.17 0.15-3.02v-0.39c-0.08-5.11 0.23-10.46 0.54-15.03l0.39-8.99c-1.32-2.09 0-4.73 2.02-5.11 4.03 0.39 8.06 0.46 12.01 0.46h3.1c1.09 0 2.02-0.08 3.1-0.08 2.56-0.08 6.67-0.08 8.91-0.08z"/>
		<path class="st37" d="m911.48 468.08c-2.64 3.8-7.05 4.8-12.17 5.35 1.32 1.32 2.71 2.25 4.18 3.1h-0.08c0.23 0.16 0.54 0.46 0.85 0.62 1.01 0.54 1.86 1.08 2.63 1.63 0.85 0.62 1.94 1.39 2.95 2.01 0.7 0.47 1.39 0.85 2.01 1.32 0.85 0.62 2.02 1.47 3.26 2.25 0.16 2.94-1.63 3.95-3.56 3.95-1.16 0-2.4-0.23-3.26-0.54-3.1-2.64-6.51-5.04-9.84-7.21h0.08l-1.7-1.09c-2.48-1.63-5.58-3.56-8.06-5.5-0.85 0-1.71 0.08-2.48 0.16h0.08c-1.39 0.16-3.1 0.31-4.26 0.16v1.47c0 1.01 0.08 2.02 0.16 3.26v1.4c0.08 0.85 0.16 1.94 0.16 2.79 0 1.78-0.16 3.26-0.62 4.73-2.4 0.16-3.72-0.31-5.58-0.93-0.23-0.54-0.46-0.93-0.93-1.32-0.23-3.72-0.31-7.98-0.31-11.86 0-5.19 0.23-10.46 0.46-15.5-0.31-0.78-0.54-1.78-0.54-2.4 0-1.01 0.23-2.25 0.46-3.18 0-0.31 0.16-0.7 0.16-0.93 2.56-0.7 5.35-0.93 8.06-1.16l4.11-0.39c1.09 0.08 2.33 0.08 3.57 0.08 1.39 0 2.87 0 4.34 0.08 5.11 0.23 9.69 2.02 13.02 5.27 2.01 1.78 3.56 4.96 3.56 8.21 0 1.32-0.08 2.71-0.62 4.11zm-12.25-1.55h0.23c2.87-0.31 5.5-0.77 7.29-2.25 0-0.08 0.08-0.39 0.15-0.46 0.23-2.79-1.16-3.72-2.79-4.96h-0.08l-0.78-0.7c-3.49-1.4-7.28-1.78-11.16-1.78-3.18 0-6.51 0.23-9.84 0.85 0.08 0.85 0.08 1.78 0.08 2.56 0 0.54-0.08 1.01-0.08 1.47v1.55c0 1.4-0.08 2.87 0 4.65 1.4 0.08 2.71 0.16 4.26 0.16 3.26 0 6.67-0.23 10.15-0.78 0.79-0.15 1.72-0.23 2.57-0.31z"/>
		<path class="st37" d="m973.17 468.47h-0.08l0.93 0.85c1.4 1.16 2.48 2.17 4.11 3.41l0.78-0.7c1.7-1.24 3.41-2.63 4.96-3.95 2.4 0 5.42 0.78 5.97 4.18-0.77 0.54-1.86 1.32-2.63 1.94h0.08l-0.39 0.31c-0.93 0.85-1.78 1.63-3.33 2.56 1.01 0.93 2.4 1.71 3.49 2.25 2.25 1.16 4.34 2.17 5.19 4.88-0.31 0.93-0.85 1.47-1.16 1.7h0.08l-0.23 0.23v-0.08c-0.16 0.16-0.16-0.23-0.54 1.08-3.72-0.78-6.97-2.94-9.22-4.88-0.77-0.39-1.63-1.01-2.4-1.63-4.96 3.8-11.55 7.28-19.3 7.28-1.32 0-2.56-0.08-3.64-0.23-0.15 0-0.39-0.08-0.46-0.08-0.31-0.31-0.78-0.46-1.24-0.46 0 0-1.16-0.78-1.4-0.93-0.23-0.16-0.7-0.31-0.85-0.47-2.09-2.79-3.95-6.2-3.18-10.07 2.17-3.64 7.05-6.51 10.46-8.53 0.85-0.54 1.7-1.01 2.48-1.63-0.08-0.08-0.31-0.31-0.31-0.39-1.86-2.48-3.72-5.11-3.8-9.61 0.16-0.7 0.62-1.4 1.01-1.94v0.08l0.62-1.08c2.48-1.78 6.43-2.87 10.38-2.87 5.58 0 11.31 2.56 12.01 9.15-0.78 5.19-4.65 7.36-8.68 9.3zm-2.87 5.58c-0.85-0.78-2.32-2.02-3.56-2.79-4.11 2.09-7.83 4.73-11.31 7.52-0.54 0.93-1.08 2.32-0.93 3.18 1.01 0.16 2.09 0.16 3.18 0.16h2.02c4.42-1.01 10.07-3.1 13.41-5.73-0.54-0.47-1.24-0.85-1.7-1.32l-1.24-1.09zm-3.1-11.55 1.55-0.78v0.08l0.93-0.46c2.56-1.16 4.88-2.4 5.81-5.19-1.01-0.93-2.09-1.24-3.64-1.24-2.4 0-5.11 1.01-6.74 1.86 0 2.48 0.93 4.03 2.09 5.73zm-0.39 8.76m0.62-8.45-0.23-0.31-0.31 0.23z"/>
		<path class="st37" d="m1060.4 461.73c-1.08-0.23-1.78-0.46-2.64-0.93v0.08c-1.01-0.39-2.01-0.85-3.25-1.01-1.01-0.39-1.71-0.54-2.4-0.7-0.93-0.15-1.78-0.31-2.48-0.7-0.78-0.08-1.63-0.08-2.4-0.08-4.26 0-9.15 1.63-12.01 3.49-1.08 1.78-1.86 4.34-2.48 6.59l-0.23 1.16c0.16 5.58 2.64 9.07 6.28 10.93l-0.08-0.08c2.64 0.62 5.5 1.01 8.06 1.01 4.42 0 8.68-1.01 11.55-3.72 0.46 0 0.77 0 1.08-0.08 0.62-0.08 1.32-0.15 2.09-0.08 1.16 0.93 1.71 1.63 1.71 2.56 0 0.7-0.7 1.86-1.55 2.48l-2.64 1.94-1.08 0.78h0.08s-0.7 0.46-1.7 1.01c-3.41 1.09-6.51 1.47-10.31 1.47-1.63 0-3.88-0.08-5.73-0.23-1.7-0.62-3.1-1.08-4.03-1.24-8.14-4.57-12.79-14.65-8.6-23.25v0.08c0.08-0.31 0.39-0.85 0.46-1.16l0.39-1.09c0.16-0.7-0.47 0.16 1.08-2.79 0.7-1.16 3.1-2.56 4.42-3.41 0.78-0.54 1.86-1.16 2.71-1.86l2.71-0.62 0.78-0.08c1.55-0.39 3.56-0.7 5.35-0.85 3.26-0.23 6.04 0.31 8.45 0.93l0.54 0.08h-0.08l3.02 0.78 0.39 0.31h-0.08c0.54 0.47 3.72 2.25 1.32 1.09 1.16 0.7 2.25 1.47 3.18 3.02 0.08 1.78 0.08 3.41-1.39 4.11z"/>
		<path class="st37" d="m1066.5 478.47c-0.62-2.17-0.85-4.42-0.85-6.51 0-6.51 2.4-12.79 6.28-16.82 0.85-0.23 1.16-0.47 1.55-0.78h-0.08l0.16-0.08 0.7-0.46h-0.08l1.4-1.01c2.17-0.78 5.04-1.01 7.75-1.24l1.7-0.16c1.09-0.16 2.56-0.16 3.57-0.16 3.56 0 6.97 0.46 9.76 1.01l1.4 1.01c0.08 0.08 0.39 0.23 1.16 0.54l0.7 0.93c2.71 3.18 6.66 7.75 7.13 12.94 0.31 3.56-0.31 6.97-0.7 9.61 0 0.08-0.31 0.54-0.46 0.7-0.08 0.16-0.23 0.16-0.23 0.39-0.93 1.55-1.78 3.02-2.48 3.87l-1.16 1.08c-0.15 0.16-0.39 0.23-0.54 0.31l-1.86 1.86c-4.18 2.02-8.91 2.79-13.64 2.79-3.56 0-7.13-0.39-10.54-0.93-4.88-1.32-8.37-3.72-10.07-8.21-0.15 0-0.31-0.16-0.31-0.46 0 0-0.08 0.08 0-0.08zm10.07-18.37c0.46-0.16-0.31 0.62-0.93 1.24l-0.7 0.7v-0.08c-2.25 2.94-3.72 6.82-3.72 11 0 1.32 0.23 3.18 0.62 4.73 0.39 0.23 0.62 0.62 0.85 1.16 3.02 2.01 8.14 3.25 13.02 3.25 4.8 0 9.92-1.32 12.94-3.41h-0.08c2.56-2.56 4.34-8.52 4.42-13.64-0.23-1.01-0.77-2.09-1.32-3.1l-0.15-0.39c-0.08-0.08-0.16-0.15-0.16-0.23-2.25-1.94-5.5-3.41-9.53-3.56-4.56-0.07-11.07 0.01-15.26 2.33zm31.47 17.2c0.08 0 0.08 0.08 0 0.16z"/>
	</g>
	<path class="st37" d="m1111.7 479.02c3.56-1.94 6.51 1.01 6.51 3.56 0 1.32-0.7 2.48-1.94 3.1-3.8 0.7-5.04-1.32-5.04-3.95 0-0.77 0.08-1.63 0.39-2.63z" fill="#0060b1"/>
</g>
</svg>
